<svg version="1.1" id="Layer_1" xmlns="http://www.w3.org/2000/svg" viewBox="0 0 1139 1024" xml:space="preserve">
<style type="text/css">
	.st0{fill:#4285F9;}
	.st1{fill:#9ABDFC;}
	.st2{fill:#669DFB;}
	.st3{fill:#B5CFFC;}
	.st4{fill:#699EFB;}
	.st5{fill:#5C96FB;}
	.st6{fill:#5B95FB;}
	.st7{fill:#BAD2FD;}
	.st8{fill:#4079DE;}
	.st9{fill:#FEFEFE;}
	.st10{fill:#407ADE;}
</style>
<path class="st0" d="M1140,507c0,1.33,0,2.67,0,4c-1.36,1.94-1,4.11-0.83,6.25c-0.01,1.61-0.02,3.22-0.03,4.83
	c-1.68,12.67-5.37,24.73-11.63,35.89c-7.24,12.93-14.68,25.74-22.11,38.56c-7.67,13.24-15.44,26.42-23.16,39.63
	c-1.86-1.66-3.8-3.22-5.56-4.98c-79.82-79.8-159.63-159.61-239.45-239.41c-1.64-1.64-3.41-3.17-5.12-4.75
	c-0.6-2.7-2.8-1.86-4.45-1.86c-44.58-0.04-89.17,0-133.75-0.1c-3.46-0.01-4.6,0.98-4.56,4.48c0.17,13.47,0.05,26.95,0.09,40.42
	c0,1.55-0.63,3.45,1.51,4.3c0.48,0.86,0.78,1.9,1.45,2.57c14.48,14.42,28.99,28.79,43.5,43.18c0,5,0,10,0,15
	c-1.59-1.46-3.23-2.86-4.76-4.38c-25.86-25.83-51.68-51.69-77.58-77.48c-1.29-1.29-2.11-3.59-4.65-3.13
	c-0.92-1.16-1.86-2.31-2.77-3.48c-11.01-14.08-24.99-21.95-43.32-21.52c-13.64,0.32-27.29,0.04-40.93,0.07
	c-29.36,0.06-52.52,23.21-52.62,52.52c-0.03,10.14-0.17,20.29-0.26,30.43c-1.61-1.44-3.28-2.81-4.81-4.33
	c-17.32-17.29-34.61-34.62-51.96-51.88c-1.2-1.19-1.98-3.26-4.31-2.88c-0.64-0.75-1.32-1.47-1.93-2.25
	c-11.26-14.44-25.65-22.18-44.34-21.65c-13.65,0.39-27.31,0.05-40.97,0.08c-28.05,0.07-51.59,23.52-51.61,51.51
	c-0.04,63.45-0.02,126.91,0.02,190.36c0,1.72-0.77,3.69,0.91,5.16c1.35,1.47,2.65,2.99,4.06,4.4
	c124.82,124.84,249.67,249.65,374.41,374.57c3.61,3.61,7.25,5.01,12.29,4.99c37.14-0.13,74.27-0.01,111.41,0.04
	c-3.72,1.29-7.59,0.75-11.38,0.75c-73.48-0.02-146.97-0.12-220.45-0.15c-80.15-0.03-160.3,0.14-240.46-0.07
	c-40.85-0.11-72.21-17.75-92.71-53.22C169.9,829.68,92.81,695.77,15.62,561.91c-5.7-9.89-9.89-20.33-12.4-31.46
	C2.58,527.62,2.91,524.51,1,522c0-1,0-2,0-3c1.68-2.33,1.22-4.67,0-7c0-2,0-4,0-6c1.18-2,1.52-4,0-6c0-1.33,0-2.67,0-4
	c1.17-0.49,1.01-1.61,1.16-2.54c2.35-14.86,8.23-28.29,15.72-41.25c52.23-90.37,104.3-180.83,156.44-271.25
	c25.2-43.7,49.91-87.69,75.87-130.92c17.59-29.3,44.69-44.84,78.73-48.16c2.01-0.01,4.02-0.01,6.03-0.02
	C336.62,1.9,338.28,2,339.94,2C493.65,2,647.35,2,801.06,2c1.66,0,3.33-0.1,4.99-0.15c2.01,0.01,4.02,0.01,6.03,0.02
	c36.12,3.49,63.39,21.07,81.46,52.34c77.37,133.9,154.52,267.93,231.78,401.89c5.7,9.88,9.9,20.31,12.43,31.44
	c0.72,3.16,0.44,6.57,2.26,9.47c0,1.33,0,2.67,0,4C1138.56,503,1138.73,505,1140,507z"/>
<path class="st1" d="M806.05,1.85C804.38,1.9,802.72,2,801.06,2C647.35,2,493.65,2,339.94,2c-1.66,0-3.33-0.1-4.99-0.15
	c0.02-0.28,0.04-0.56,0.05-0.85c157,0,314,0,471,0C806.01,1.28,806.03,1.57,806.05,1.85z"/>
<path class="st2" d="M1,512c1.22,2.33,1.68,4.67,0,7C1,516.67,1,514.33,1,512z"/>
<path class="st3" d="M335,1c-0.01,0.28-0.03,0.57-0.05,0.85c-2.01,0.01-4.02,0.01-6.03,0.02C328.97,1.58,329,1.29,329,1
	C331,1,333,1,335,1z"/>
<path class="st3" d="M806.05,1.85C806.03,1.57,806.01,1.28,806,1c2,0,4,0,6,0c0,0.29,0.03,0.58,0.08,0.87
	C810.07,1.86,808.06,1.85,806.05,1.85z"/>
<path class="st4" d="M1,500c1.52,2,1.18,4,0,6C1,504,1,502,1,500z"/>
<path class="st5" d="M1140,507c-1.27-2-1.44-4,0-6C1140,503,1140,505,1140,507z"/>
<path class="st6" d="M1139.17,517.25c-0.17-2.14-0.54-4.31,0.83-6.25c0,2,0,4,0,6C1139.75,517.17,1139.47,517.25,1139.17,517.25z"/>
<path class="st7" d="M1139.17,517.25c0.3,0,0.58-0.08,0.83-0.25c0,1.67,0,3.33,0,5l-0.42,0.08l-0.43-0.01
	C1139.15,520.47,1139.16,518.86,1139.17,517.25z"/>
<path class="st8" d="M1082.24,636.15c-2,5.33-5.29,9.97-8.1,14.85c-59.97,104.09-120.02,208.13-179.97,312.23
	c-15.45,26.82-37.89,44.13-68.15,51.1c-4.54,1.05-9.11,1.89-13.8,1.82c-37.14-0.05-74.28-0.17-111.41-0.04
	c-5.04,0.02-8.68-1.38-12.29-4.99C563.77,886.21,438.92,761.39,314.1,636.56c-1.41-1.41-2.71-2.93-4.06-4.4
	c14.32-0.05,28.65-0.28,42.97-0.04c4.28,0.07,5.16-1.24,5.14-5.3c-0.18-28.98-0.01-57.97-0.18-86.95c-0.03-4.31,0.74-6.06,5.61-5.91
	c12.65,0.38,25.32,0.31,37.97,0.03c4.25-0.09,5.63,0.81,5.59,5.4c-0.24,29.32-0.06,58.64-0.2,87.95c-0.02,3.65,0.81,4.84,4.65,4.76
	c12.99-0.25,25.99-0.28,38.98,0.01c4.27,0.09,5.56-0.84,5.55-5.4c-0.18-61.47-0.26-122.94,0-184.4c0.05-11.98-1.72-23.15-8.16-33.36
	c2.32-0.39,3.1,1.68,4.31,2.88c17.35,17.26,34.64,34.59,51.96,51.88c1.53,1.52,3.2,2.89,4.81,4.33c0.09,2.16,0.25,4.32,0.26,6.47
	c0.01,50.48,0.07,100.95-0.09,151.43c-0.01,4.56,0.73,6.37,5.86,6.2c12.65-0.42,25.32-0.31,37.98-0.04c4.1,0.09,5.33-0.94,5.3-5.18
	c-0.19-29.15,0-58.31-0.21-87.46c-0.03-4.49,1.24-5.57,5.59-5.49c13.99,0.28,27.99,0.17,41.98,0.09
	c26.99-0.17,50.25-23.45,50.42-50.47c0.09-13.99-0.31-28,0.12-41.98c0.34-11.29-1.51-21.84-7.3-31.6c2.55-0.46,3.36,1.84,4.65,3.13
	c25.9,25.79,51.72,51.65,77.58,77.48c1.52,1.52,3.17,2.92,4.76,4.38c0.07,28.16,0.07,56.32,0.27,84.48
	c0.03,3.53-1.68,3.59-4.28,3.58c-12.83-0.07-25.67,0.06-38.5-0.1c-3.05-0.04-4.05,0.85-4.02,3.93c0.13,13.66,0.14,27.33-0.01,41
	c-0.04,3.28,1.03,4.18,4.28,4.17c44.66-0.1,89.33-0.1,133.99-0.01c3.11,0.01,4.39-0.62,4.34-4.07c-0.19-13.66-0.2-27.33,0-40.99
	c0.05-3.56-1.41-4.04-4.42-4.01c-12.66,0.13-25.33-0.05-38,0.12c-3.33,0.05-4.59-0.68-4.58-4.34c0.12-46.83,0.11-93.66,0.02-140.49
	c-0.01-3.22,0.85-4.31,4.18-4.27c12.5,0.18,25-0.09,37.49,0.16c4.05,0.08,5.4-0.9,5.33-5.17c-0.22-13.99,0.03-27.99,0.09-41.98
	c1.71,1.58,3.47,3.1,5.12,4.75c79.82,79.8,159.63,159.62,239.45,239.41C1078.44,632.93,1080.38,634.5,1082.24,636.15z"/>
<path class="st9" d="M447.95,408.94c6.45,10.21,8.22,21.37,8.16,33.36c-0.26,61.47-0.18,122.94,0,184.4
	c0.01,4.56-1.28,5.49-5.55,5.4c-12.99-0.28-25.99-0.26-38.98-0.01c-3.84,0.07-4.66-1.11-4.65-4.76c0.15-29.32-0.04-58.64,0.2-87.95
	c0.04-4.59-1.35-5.49-5.59-5.4c-12.65,0.28-25.33,0.35-37.97-0.03c-4.86-0.15-5.63,1.6-5.61,5.91c0.17,28.98,0.01,57.97,0.18,86.95
	c0.02,4.06-0.86,5.37-5.14,5.3c-14.32-0.24-28.64-0.01-42.97,0.04c-1.68-1.47-0.91-3.43-0.91-5.16
	c-0.04-63.45-0.07-126.91-0.02-190.36c0.02-27.99,23.56-51.43,51.61-51.51c13.66-0.04,27.32,0.31,40.97-0.08
	c18.7-0.54,33.09,7.21,44.34,21.65C446.63,407.47,447.3,408.2,447.95,408.94z M407.02,459.62c0-7.32-0.11-14.64,0.05-21.96
	c0.06-2.76-0.7-3.75-3.61-3.72c-13.97,0.14-27.95,0.14-41.92,0c-3-0.03-3.56,1.15-3.54,3.81c0.1,14.47,0.12,28.95-0.02,43.42
	c-0.03,3,0.77,4.05,3.9,4.01c13.81-0.15,27.62-0.17,41.42,0.01c3.31,0.04,3.82-1.29,3.76-4.12
	C406.92,473.93,407.02,466.78,407.02,459.62z"/>
<path class="st9" d="M648.92,410.01c5.8,9.76,7.65,20.31,7.3,31.6c-0.42,13.98-0.03,27.98-0.12,41.98
	c-0.17,27.02-23.44,50.3-50.42,50.47c-13.99,0.09-27.99,0.19-41.98-0.09c-4.35-0.09-5.62,1-5.59,5.49
	c0.21,29.15,0.02,58.31,0.21,87.46c0.03,4.24-1.2,5.27-5.3,5.18c-12.66-0.27-25.33-0.38-37.98,0.04c-5.13,0.17-5.87-1.64-5.86-6.2
	c0.16-50.48,0.1-100.95,0.09-151.43c0-2.16-0.17-4.32-0.26-6.47c0.09-10.14,0.22-20.29,0.26-30.43
	c0.1-29.32,23.26-52.47,52.62-52.52c13.64-0.03,27.29,0.25,40.93-0.07c18.33-0.43,32.31,7.44,43.32,21.52
	C647.06,407.7,647.99,408.85,648.92,410.01z M558.22,459.53c0,7.16,0.1,14.33-0.05,21.49c-0.06,2.84,0.53,4.21,3.8,4.17
	c13.82-0.16,27.65-0.12,41.47-0.02c2.75,0.02,3.79-0.74,3.76-3.64c-0.12-14.66-0.12-29.32,0-43.97c0.02-2.9-1.01-3.64-3.76-3.61
	c-13.82,0.11-27.65,0.15-41.47-0.02c-3.28-0.04-3.88,1.26-3.82,4.12C558.32,445.21,558.22,452.37,558.22,459.53z"/>
<path class="st9" d="M832.11,387.01c-0.07,13.99-0.31,27.99-0.09,41.98c0.07,4.27-1.28,5.25-5.33,5.17
	c-12.49-0.26-25,0.01-37.49-0.16c-3.33-0.05-4.18,1.05-4.18,4.27c0.09,46.83,0.1,93.66-0.02,140.49c-0.01,3.66,1.25,4.38,4.58,4.34
	c12.66-0.17,25.33,0,38-0.12c3.01-0.03,4.47,0.45,4.42,4.01c-0.2,13.66-0.19,27.33,0,40.99c0.05,3.46-1.24,4.08-4.34,4.07
	c-44.66-0.08-89.33-0.09-133.99,0.01c-3.25,0.01-4.32-0.89-4.28-4.17c0.15-13.66,0.14-27.33,0.01-41c-0.03-3.08,0.98-3.97,4.02-3.93
	c12.83,0.15,25.66,0.02,38.5,0.1c2.6,0.01,4.31-0.05,4.28-3.58c-0.2-28.16-0.21-56.32-0.27-84.48c0-5,0-10,0-15
	c0.07-14.13,0.1-28.26,0.23-42.39c0.02-2.41-0.51-3.61-3.29-3.58c-13.96,0.17-27.93,0.17-41.9,0.23c-2.14-0.85-1.51-2.75-1.51-4.3
	c-0.04-13.47,0.07-26.95-0.09-40.42c-0.04-3.5,1.1-4.49,4.56-4.48c44.58,0.1,89.17,0.06,133.75,0.1
	C829.31,385.15,831.52,384.31,832.11,387.01z"/>
<path class="st10" d="M690.96,434.25c13.97-0.06,27.93-0.06,41.9-0.23c2.77-0.03,3.31,1.16,3.29,3.58
	c-0.13,14.13-0.17,28.26-0.23,42.39c-14.51-14.38-29.02-28.76-43.5-43.18C691.74,436.15,691.44,435.11,690.96,434.25z"/>
<path class="st10" d="M407.02,459.62c0,7.15-0.1,14.31,0.05,21.46c0.06,2.83-0.45,4.16-3.76,4.12c-13.81-0.18-27.62-0.16-41.42-0.01
	c-3.13,0.03-3.92-1.01-3.9-4.01c0.14-14.47,0.11-28.95,0.02-43.42c-0.02-2.66,0.54-3.84,3.54-3.81c13.97,0.14,27.95,0.14,41.92,0
	c2.91-0.03,3.67,0.96,3.61,3.72C406.91,444.98,407.02,452.3,407.02,459.62z"/>
<path class="st10" d="M558.22,459.53c0-7.16,0.1-14.33-0.05-21.49c-0.06-2.86,0.53-4.16,3.82-4.12c13.82,0.17,27.65,0.14,41.47,0.02
	c2.75-0.02,3.78,0.71,3.76,3.61c-0.12,14.66-0.12,29.32,0,43.97c0.02,2.9-1.02,3.66-3.76,3.64c-13.82-0.11-27.65-0.14-41.47,0.02
	c-3.28,0.04-3.86-1.33-3.8-4.17C558.32,473.86,558.22,466.7,558.22,459.53z"/>
</svg>