<svg xmlns="http://www.w3.org/2000/svg" xmlns:xlink="http://www.w3.org/1999/xlink" viewBox="0 0 1921 1454"><defs><style>.cls-1{mask:url(#mask);filter:url(#luminosity-noclip-12);}.cls-10,.cls-12,.cls-14,.cls-16,.cls-18,.cls-2,.cls-20,.cls-22,.cls-36,.cls-4,.cls-44,.cls-46,.cls-48,.cls-52,.cls-56,.cls-58,.cls-6,.cls-60,.cls-66,.cls-68,.cls-8{mix-blend-mode:multiply;}.cls-2{fill:url(#linear-gradient);}.cls-3{mask:url(#mask-2);filter:url(#luminosity-noclip-17);}.cls-4{fill:url(#linear-gradient-2);}.cls-5{mask:url(#mask-3);filter:url(#luminosity-noclip-18);}.cls-6{fill:url(#linear-gradient-3);}.cls-7{mask:url(#mask-4);filter:url(#luminosity-noclip-19);}.cls-8{fill:url(#linear-gradient-4);}.cls-9{mask:url(#mask-5);filter:url(#luminosity-noclip-20);}.cls-10{fill:url(#linear-gradient-5);}.cls-11{mask:url(#mask-6);filter:url(#luminosity-noclip-21);}.cls-12{fill:url(#linear-gradient-6);}.cls-13{mask:url(#mask-7);filter:url(#luminosity-noclip-13);}.cls-14{fill:url(#linear-gradient-7);}.cls-15{mask:url(#mask-8);filter:url(#luminosity-noclip-22);}.cls-16{fill:url(#linear-gradient-8);}.cls-17{mask:url(#mask-9);filter:url(#luminosity-noclip-14);}.cls-18{fill:url(#linear-gradient-9);}.cls-19{mask:url(#mask-10);filter:url(#luminosity-noclip-15);}.cls-20{fill:url(#linear-gradient-10);}.cls-21{mask:url(#mask-11);filter:url(#luminosity-noclip-16);}.cls-22{fill:url(#linear-gradient-11);}.cls-23{fill:#001749;}.cls-24{isolation:isolate;}.cls-25{fill:#010b25;}.cls-26{fill:#bad5fc;}.cls-27{mask:url(#mask-12);}.cls-28{fill:url(#linear-gradient-12);}.cls-29{fill:#87aee7;}.cls-30{fill:#d6ddfd;}.cls-31{fill:#547faf;}.cls-32{fill:#87a8d5;opacity:0.55;}.cls-33{fill:#dd641d;}.cls-34{fill:#fac52f;}.cls-35{mask:url(#mask-13);}.cls-36{fill:url(#linear-gradient-13);}.cls-37{fill:#fddb82;}.cls-38,.cls-42{fill:#fff;}.cls-38{opacity:0.13;}.cls-39{fill:#fad56e;}.cls-40{fill:#f49529;}.cls-41{fill:#e5e5e5;}.cls-43{mask:url(#mask-14);}.cls-44{fill:url(#linear-gradient-14);}.cls-45{mask:url(#mask-15);}.cls-46{fill:url(#linear-gradient-15);}.cls-47{mask:url(#mask-16);}.cls-48{fill:url(#linear-gradient-16);}.cls-49{fill:#3d84f8;}.cls-50{fill:#93cdf7;}.cls-51{mask:url(#mask-17);}.cls-52{fill:url(#linear-gradient-17);}.cls-53{fill:#a9d0fc;}.cls-54{fill:#052b71;}.cls-55{mask:url(#mask-18);}.cls-56{fill:url(#linear-gradient-18);}.cls-57{mask:url(#mask-19);}.cls-58{fill:url(#linear-gradient-19);}.cls-59{mask:url(#mask-20);}.cls-60{fill:url(#linear-gradient-20);}.cls-61{fill:#fddf85;}.cls-62{fill:#094ea1;}.cls-63{fill:#1864d4;}.cls-64{fill:#5dfdf4;}.cls-65{mask:url(#mask-21);}.cls-66{fill:url(#linear-gradient-21);}.cls-67{mask:url(#mask-22);}.cls-68{fill:url(#linear-gradient-22);}.cls-69{opacity:0.4;mix-blend-mode:color-dodge;fill:url(#radial-gradient);}.cls-70{clip-path:url(#clip-path);}.cls-71{fill:#09544e;}.cls-72{fill:#0d6c79;}.cls-73{fill:url(#linear-gradient-23);}.cls-74{filter:url(#luminosity-noclip-11);}.cls-75{filter:url(#luminosity-noclip-10);}.cls-76{filter:url(#luminosity-noclip-9);}.cls-77{filter:url(#luminosity-noclip-8);}.cls-78{filter:url(#luminosity-noclip-7);}.cls-79{filter:url(#luminosity-noclip-6);}.cls-80{filter:url(#luminosity-noclip-5);}.cls-81{filter:url(#luminosity-noclip-4);}.cls-82{filter:url(#luminosity-noclip-3);}.cls-83{filter:url(#luminosity-noclip-2);}.cls-84{filter:url(#luminosity-noclip);}</style><filter id="luminosity-noclip" x="0" y="-7725" width="1920" height="32766" filterUnits="userSpaceOnUse" color-interpolation-filters="sRGB"><feFlood flood-color="#fff" result="bg"/><feBlend in="SourceGraphic" in2="bg"/></filter><mask id="mask" x="0" y="-7725" width="1920" height="32766" maskUnits="userSpaceOnUse"><g class="cls-84"/></mask><linearGradient id="linear-gradient" x1="945.82" y1="1488.68" x2="1026.74" y2="857.5" gradientUnits="userSpaceOnUse"><stop offset="0"/><stop offset="1" stop-color="#fff"/></linearGradient><filter id="luminosity-noclip-2" x="523.32" y="-7725" width="121.26" height="32766" filterUnits="userSpaceOnUse" color-interpolation-filters="sRGB"><feFlood flood-color="#fff" result="bg"/><feBlend in="SourceGraphic" in2="bg"/></filter><mask id="mask-2" x="523.32" y="-7725" width="121.26" height="32766" maskUnits="userSpaceOnUse"><g class="cls-83"/></mask><linearGradient id="linear-gradient-2" x1="569.3" y1="885.41" x2="603.65" y2="1004.1" gradientUnits="userSpaceOnUse"><stop offset="0"/><stop offset="0.99" stop-color="#fff"/></linearGradient><filter id="luminosity-noclip-3" x="1447.67" y="-7725" width="55.66" height="32766" filterUnits="userSpaceOnUse" color-interpolation-filters="sRGB"><feFlood flood-color="#fff" result="bg"/><feBlend in="SourceGraphic" in2="bg"/></filter><mask id="mask-3" x="1447.67" y="-7725" width="55.66" height="32766" maskUnits="userSpaceOnUse"><g class="cls-82"/></mask><linearGradient id="linear-gradient-3" x1="1580.47" y1="1223.5" x2="1634.91" y2="1223.5" gradientTransform="translate(-31.17 -124.91) rotate(4.43)" xlink:href="#linear-gradient"/><filter id="luminosity-noclip-4" x="1354.02" y="-7725" width="62.06" height="32766" filterUnits="userSpaceOnUse" color-interpolation-filters="sRGB"><feFlood flood-color="#fff" result="bg"/><feBlend in="SourceGraphic" in2="bg"/></filter><mask id="mask-4" x="1354.02" y="-7725" width="62.06" height="32766" maskUnits="userSpaceOnUse"><g class="cls-81"/></mask><linearGradient id="linear-gradient-4" x1="1486.45" y1="1229.04" x2="1548.4" y2="1229.04" gradientTransform="translate(-31.17 -124.91) rotate(4.43)" xlink:href="#linear-gradient"/><filter id="luminosity-noclip-5" x="1316.9" y="-7725" width="90.34" height="32766" filterUnits="userSpaceOnUse" color-interpolation-filters="sRGB"><feFlood flood-color="#fff" result="bg"/><feBlend in="SourceGraphic" in2="bg"/></filter><mask id="mask-5" x="1316.9" y="-7725" width="90.34" height="32766" maskUnits="userSpaceOnUse"><g class="cls-80"/></mask><linearGradient id="linear-gradient-5" x1="1451.49" y1="893.61" x2="1493.96" y2="1046.4" gradientTransform="translate(-31.17 -124.91) rotate(4.43)" xlink:href="#linear-gradient"/><filter id="luminosity-noclip-6" x="1442.3" y="-7725" width="21.6" height="32766" filterUnits="userSpaceOnUse" color-interpolation-filters="sRGB"><feFlood flood-color="#fff" result="bg"/><feBlend in="SourceGraphic" in2="bg"/></filter><mask id="mask-6" x="1442.3" y="-7725" width="21.6" height="32766" maskUnits="userSpaceOnUse"><g class="cls-79"/></mask><linearGradient id="linear-gradient-6" x1="1558.05" y1="1044.79" x2="1580.49" y2="1044.79" gradientTransform="translate(-31.17 -124.91) rotate(4.43)" xlink:href="#linear-gradient"/><filter id="luminosity-noclip-7" x="382.42" y="-7725" width="96.14" height="32766" filterUnits="userSpaceOnUse" color-interpolation-filters="sRGB"><feFlood flood-color="#fff" result="bg"/><feBlend in="SourceGraphic" in2="bg"/></filter><mask id="mask-7" x="382.42" y="-7725" width="96.14" height="32766" maskUnits="userSpaceOnUse"><g class="cls-78"/></mask><linearGradient id="linear-gradient-7" x1="363.57" y1="916.6" x2="438.22" y2="993.02" xlink:href="#linear-gradient-2"/><filter id="luminosity-noclip-8" x="1451.81" y="-7725" width="30.91" height="32766" filterUnits="userSpaceOnUse" color-interpolation-filters="sRGB"><feFlood flood-color="#fff" result="bg"/><feBlend in="SourceGraphic" in2="bg"/></filter><mask id="mask-8" x="1451.81" y="-7725" width="30.91" height="32766" maskUnits="userSpaceOnUse"><g class="cls-77"/></mask><linearGradient id="linear-gradient-8" x1="1793.15" y1="933.15" x2="1444.02" y2="978.72" gradientTransform="translate(-31.17 -124.91) rotate(4.43)" xlink:href="#linear-gradient"/><filter id="luminosity-noclip-9" x="446.37" y="-7725" width="19.33" height="32766" filterUnits="userSpaceOnUse" color-interpolation-filters="sRGB"><feFlood flood-color="#fff" result="bg"/><feBlend in="SourceGraphic" in2="bg"/></filter><mask id="mask-9" x="446.37" y="-7725" width="19.33" height="32766" maskUnits="userSpaceOnUse"><g class="cls-76"/></mask><linearGradient id="linear-gradient-9" x1="446.37" y1="1162.68" x2="465.69" y2="1162.68" xlink:href="#linear-gradient-2"/><filter id="luminosity-noclip-10" x="497.24" y="-7725" width="36.71" height="32766" filterUnits="userSpaceOnUse" color-interpolation-filters="sRGB"><feFlood flood-color="#fff" result="bg"/><feBlend in="SourceGraphic" in2="bg"/></filter><mask id="mask-10" x="497.24" y="-7725" width="36.71" height="32766" maskUnits="userSpaceOnUse"><g class="cls-75"/></mask><linearGradient id="linear-gradient-10" x1="497.24" y1="1159.31" x2="533.95" y2="1159.31" xlink:href="#linear-gradient-2"/><filter id="luminosity-noclip-11" x="448.89" y="-7725" width="88.07" height="32766" filterUnits="userSpaceOnUse" color-interpolation-filters="sRGB"><feFlood flood-color="#fff" result="bg"/><feBlend in="SourceGraphic" in2="bg"/></filter><mask id="mask-11" x="448.89" y="-7725" width="88.07" height="32766" maskUnits="userSpaceOnUse"><g class="cls-74"/></mask><linearGradient id="linear-gradient-11" x1="705.48" y1="1012.62" x2="447" y2="968.06" xlink:href="#linear-gradient-2"/><filter id="luminosity-noclip-12" x="0" y="1089.78" width="1920" height="362.23" filterUnits="userSpaceOnUse" color-interpolation-filters="sRGB"><feFlood flood-color="#fff" result="bg"/><feBlend in="SourceGraphic" in2="bg"/></filter><mask id="mask-12" x="0" y="1089.78" width="1920" height="362.23" maskUnits="userSpaceOnUse"><g class="cls-1"><path class="cls-2" d="M1920,1304.16V1452H0V1304.16c193.39-128.28,550.92-214.38,960-214.38S1726.61,1175.88,1920,1304.16Z"/></g></mask><linearGradient id="linear-gradient-12" x1="945.82" y1="1488.68" x2="1026.74" y2="857.5" gradientUnits="userSpaceOnUse"><stop offset="0" stop-color="#fff"/><stop offset="1" stop-color="#fff"/></linearGradient><filter id="luminosity-noclip-13" x="382.42" y="934.15" width="96.14" height="104.32" filterUnits="userSpaceOnUse" color-interpolation-filters="sRGB"><feFlood flood-color="#fff" result="bg"/><feBlend in="SourceGraphic" in2="bg"/></filter><mask id="mask-13" x="382.42" y="934.15" width="96.14" height="104.32" maskUnits="userSpaceOnUse"><g class="cls-13"><path class="cls-14" d="M478.56,934.15a12.81,12.81,0,0,1-.49,1.94c-1.48,4.31-4.91,7.82-8.78,10.51s-8.21,4.71-12.35,7c-16,8.93-28.81,22.33-38.73,37.14s-17.12,31.08-23.72,47.46c-3.8.82-8.12-.47-12.07-2.15.85-2.56,2.67-5.22,3.59-7.08a218.85,218.85,0,0,1,16.1-27.15,222.56,222.56,0,0,1,42.44-45.73,215,215,0,0,1,29.25-20A17.08,17.08,0,0,1,478.56,934.15Z"/></g></mask><linearGradient id="linear-gradient-13" x1="363.57" y1="916.6" x2="438.22" y2="993.02" gradientUnits="userSpaceOnUse"><stop offset="0" stop-color="#fff"/><stop offset="0.99" stop-color="#f2b52a"/></linearGradient><filter id="luminosity-noclip-14" x="446.37" y="1062.92" width="19.33" height="199.52" filterUnits="userSpaceOnUse" color-interpolation-filters="sRGB"><feFlood flood-color="#fff" result="bg"/><feBlend in="SourceGraphic" in2="bg"/></filter><mask id="mask-14" x="446.37" y="1062.92" width="19.33" height="199.52" maskUnits="userSpaceOnUse"><g class="cls-17"><path class="cls-18" d="M462.16,1262.43H459.3a569.35,569.35,0,0,0-12.93-199.51c1,0,2,.09,2.95.1A572.14,572.14,0,0,1,462.16,1262.43Z"/></g></mask><linearGradient id="linear-gradient-14" x1="446.37" y1="1162.68" x2="465.69" y2="1162.68" xlink:href="#linear-gradient-13"/><filter id="luminosity-noclip-15" x="497.24" y="1054.05" width="36.71" height="210.51" filterUnits="userSpaceOnUse" color-interpolation-filters="sRGB"><feFlood flood-color="#fff" result="bg"/><feBlend in="SourceGraphic" in2="bg"/></filter><mask id="mask-15" x="497.24" y="1054.05" width="36.71" height="210.51" maskUnits="userSpaceOnUse"><g class="cls-19"><path class="cls-20" d="M532.7,1264.56h-2.89a475.17,475.17,0,0,0-32.57-209.93c.94-.18,1.89-.36,2.83-.58a471.11,471.11,0,0,1,30.54,120A473.81,473.81,0,0,1,532.7,1264.56Z"/></g></mask><linearGradient id="linear-gradient-15" x1="497.24" y1="1159.31" x2="533.95" y2="1159.31" xlink:href="#linear-gradient-13"/><filter id="luminosity-noclip-16" x="448.89" y="920.29" width="88.07" height="119.96" filterUnits="userSpaceOnUse" color-interpolation-filters="sRGB"><feFlood flood-color="#fff" result="bg"/><feBlend in="SourceGraphic" in2="bg"/></filter><mask id="mask-16" x="448.89" y="920.29" width="88.07" height="119.96" maskUnits="userSpaceOnUse"><g class="cls-21"><path class="cls-22" d="M537,986.92c-8,20.68-10.66,32.53-14.65,53.33a39.13,39.13,0,0,0-8.39-8.89,50.7,50.7,0,0,0-19-8.88,62.73,62.73,0,0,0-21.1-1.56c-6.81.65-13.92,1.41-20.72,2.15a4.39,4.39,0,0,1-3-.37c-.85-.57-1.82-1.87-.9-2.31Q457.6,999.6,466,978.82c4.46-11.11,9-22.3,15.45-32.37s15.15-19.05,26.05-24a37,37,0,0,1,6-2.15,57.15,57.15,0,0,1,15.33,7.3,47.26,47.26,0,0,0-24.94,19.46c-2.94,4.68-5,10.34-7.27,15.36A69.43,69.43,0,0,1,537,986.92Z"/></g></mask><linearGradient id="linear-gradient-16" x1="705.48" y1="1012.62" x2="447" y2="968.06" xlink:href="#linear-gradient-13"/><filter id="luminosity-noclip-17" x="523.32" y="900.45" width="121.26" height="72.88" filterUnits="userSpaceOnUse" color-interpolation-filters="sRGB"><feFlood flood-color="#fff" result="bg"/><feBlend in="SourceGraphic" in2="bg"/></filter><mask id="mask-17" x="523.32" y="900.45" width="121.26" height="72.88" maskUnits="userSpaceOnUse"><g class="cls-3"><path class="cls-4" d="M644.58,911.53a121.59,121.59,0,0,1-31.14,33.89,140.73,140.73,0,0,1-15.54,10.11,154.6,154.6,0,0,1-43.45,16.3,67.28,67.28,0,0,1-8.68,1.38,33.3,33.3,0,0,1-5.47,0c-4.74-.39-9.52-2.07-12.87-5.45a16.44,16.44,0,0,1-4.11-7.27,25.9,25.9,0,0,0,4.44,3.31,40.16,40.16,0,0,0,18.71,4.53c10.17,0,20.1-3.12,29.42-7.19a152.07,152.07,0,0,0,51.18-36.68c3.7-4.05,7.26-8.45,9-13.67a17.86,17.86,0,0,0,.3-10.36A18.86,18.86,0,0,1,644.58,911.53Z"/></g></mask><linearGradient id="linear-gradient-17" x1="569.3" y1="885.41" x2="603.65" y2="1004.1" xlink:href="#linear-gradient-13"/><filter id="luminosity-noclip-18" x="1447.67" y="1188.08" width="55.66" height="61.4" filterUnits="userSpaceOnUse" color-interpolation-filters="sRGB"><feFlood flood-color="#fff" result="bg"/><feBlend in="SourceGraphic" in2="bg"/></filter><mask id="mask-18" x="1447.67" y="1188.08" width="55.66" height="61.4" maskUnits="userSpaceOnUse"><g class="cls-5"><path class="cls-6" d="M1503.33,1233.34s-50.58,22.14-55.42,14.56a1.82,1.82,0,0,1-.16-.31c-.39-.9.64-3.15,2.42-6a19.69,19.69,0,0,1,1.74-1.17c3.43-2.07,7.32-3.24,10.91-5s7-4.37,8.48-8.11.68-8.43,3.14-11.67c2.07-2.71,5.76-3.54,8.46-5.62,3.67-2.83,5.12-7.64,6.08-12.17a47.21,47.21,0,0,1,2.66-9.74c4.2,17.1,8.24,32.42,10.29,40.08C1502.81,1231.46,1503.33,1233.34,1503.33,1233.34Z"/></g></mask><linearGradient id="linear-gradient-18" x1="1580.47" y1="1223.5" x2="1634.91" y2="1223.5" gradientTransform="translate(-31.17 -124.91) rotate(4.43)" gradientUnits="userSpaceOnUse"><stop offset="0" stop-color="#fff"/><stop offset="1" stop-color="#0b46d4"/></linearGradient><filter id="luminosity-noclip-19" x="1354.02" y="1193.13" width="62.06" height="49.64" filterUnits="userSpaceOnUse" color-interpolation-filters="sRGB"><feFlood flood-color="#fff" result="bg"/><feBlend in="SourceGraphic" in2="bg"/></filter><mask id="mask-19" x="1354.02" y="1193.13" width="62.06" height="49.64" maskUnits="userSpaceOnUse"><g class="cls-7"><path class="cls-8" d="M1416.09,1239.41s-12.8,1.21-33.13,2.71-27.86.33-28.86-3.06a2,2,0,0,1,0-1,6.48,6.48,0,0,1,1.88-2.9c.38,0,.76,0,1.14,0,5.3.24,10.66.32,15.86-.83,6-1.33,11.86-4.51,15.06-9.76,1.63-2.67,2.61-5.89,5.09-7.78,1.86-1.42,4.27-1.87,6.28-3,3-1.73,4.84-4.86,6.23-8s2.48-6.48,4.47-9.28a12.91,12.91,0,0,1,3.5-3.37c.67,17.67,1.62,33.11,2.14,40.9C1415.94,1237.46,1416.09,1239.41,1416.09,1239.41Z"/></g></mask><linearGradient id="linear-gradient-19" x1="1486.45" y1="1229.04" x2="1548.4" y2="1229.04" xlink:href="#linear-gradient-18"/><filter id="luminosity-noclip-20" x="1316.9" y="924.01" width="90.34" height="61.39" filterUnits="userSpaceOnUse" color-interpolation-filters="sRGB"><feFlood flood-color="#fff" result="bg"/><feBlend in="SourceGraphic" in2="bg"/></filter><mask id="mask-20" x="1316.9" y="924.01" width="90.34" height="61.39" maskUnits="userSpaceOnUse"><g class="cls-9"><path class="cls-10" d="M1407.24,929.05q-2.77,10.66-6.16,21.18c-2.29,7-4.9,14.24-9.81,19.8a31.2,31.2,0,0,1-2.64,2.63,40.91,40.91,0,0,1-12.54,7.33,74.85,74.85,0,0,1-10,3c-16,3.72-33,2.7-49-.44l-.09-11.73c2.51,3.49,4.17,6.53,8.63,8.53,6.57,3,14.11,2.64,21.27,1.83s14.1-2,20.53-4.94c9.94-4.53,17.74-12.92,23.4-22.26s9.39-19.71,13.09-30C1405,925.66,1406.13,927.34,1407.24,929.05Z"/></g></mask><linearGradient id="linear-gradient-20" x1="1451.49" y1="893.61" x2="1493.96" y2="1046.4" xlink:href="#linear-gradient-18"/><filter id="luminosity-noclip-21" x="1442.3" y="1023.18" width="21.6" height="28.94" filterUnits="userSpaceOnUse" color-interpolation-filters="sRGB"><feFlood flood-color="#fff" result="bg"/><feBlend in="SourceGraphic" in2="bg"/></filter><mask id="mask-21" x="1442.3" y="1023.18" width="21.6" height="28.94" maskUnits="userSpaceOnUse"><g class="cls-11"><path class="cls-12" d="M1463.91,1037.8a42.16,42.16,0,0,1-5.11,8.13,21.22,21.22,0,0,1-9.33,6.19h0a24.12,24.12,0,0,0,6.36-6.3,7.91,7.91,0,0,0,1.73-4.89c-.14-1.89-1.39-3.5-2.68-4.89a43.51,43.51,0,0,0-10.64-8.4,5.15,5.15,0,0,1-2-1.56c1.14-.9,2.2-1.9,3.26-2.89a19.78,19.78,0,0,1,7.61,4.64c2.19,2,4.15,4.3,6.36,6.3A36.47,36.47,0,0,0,1463.91,1037.8Z"/></g></mask><linearGradient id="linear-gradient-21" x1="1558.05" y1="1044.79" x2="1580.49" y2="1044.79" xlink:href="#linear-gradient-18"/><filter id="luminosity-noclip-22" x="1451.81" y="890.31" width="30.91" height="130.85" filterUnits="userSpaceOnUse" color-interpolation-filters="sRGB"><feFlood flood-color="#fff" result="bg"/><feBlend in="SourceGraphic" in2="bg"/></filter><mask id="mask-22" x="1451.81" y="890.31" width="30.91" height="130.85" maskUnits="userSpaceOnUse"><g class="cls-15"><path class="cls-16" d="M1460.55,1016.25a13.29,13.29,0,0,0-.11,4.91q-4.29-3.6-8.63-7.22c11-10.92,22.69-26.46,25.51-41.64a32,32,0,0,0-.44-14.67,27.54,27.54,0,0,0-1.66-4.42q-7.58-15.84-13.59-32.36-2.19-6-4.17-12.11c-1.1-3.39-2.16-6.92-1.73-10.45s2.75-7.1,6.24-7.84a7.13,7.13,0,0,1,2.8,0c-4.45,5.58-3.71,13.65-1,20.33q5.68,13.79,11.35,27.58c3.86,9.4,7.79,19.13,7.55,29.28-.35,14.37-8.9,27.08-17.12,38.86C1463.48,1009.52,1461.33,1012.65,1460.55,1016.25Z"/></g></mask><linearGradient id="linear-gradient-22" x1="1793.15" y1="933.15" x2="1444.02" y2="978.72" xlink:href="#linear-gradient-18"/><radialGradient id="radial-gradient" cx="1694.04" cy="897.45" r="141.45" gradientTransform="matrix(0.52, 0.49, -0.45, 0.57, 1140.75, -520.13)" gradientUnits="userSpaceOnUse"><stop offset="0" stop-color="#fff"/><stop offset="0.23" stop-color="#feffff"/><stop offset="0.32" stop-color="#f9fdfd" stop-opacity="0.98"/><stop offset="0.38" stop-color="#f2fbfb" stop-opacity="0.95"/><stop offset="0.42" stop-color="#e7f8f8" stop-opacity="0.9"/><stop offset="0.47" stop-color="#d9f4f4" stop-opacity="0.84"/><stop offset="0.5" stop-color="#c8efef" stop-opacity="0.77"/><stop offset="0.54" stop-color="#b3e9e9" stop-opacity="0.68"/><stop offset="0.57" stop-color="#9ce3e3" stop-opacity="0.59"/><stop offset="0.59" stop-color="#87dddd" stop-opacity="0.5"/><stop offset="0.67" stop-color="#71bbbf" stop-opacity="0.45"/><stop offset="0.85" stop-color="#396271" stop-opacity="0.32"/><stop offset="1" stop-color="#010b25" stop-opacity="0.2"/></radialGradient><clipPath id="clip-path"><circle class="cls-23" cx="1600.03" cy="830.76" r="66.63" transform="translate(-201.34 903.76) rotate(-29.76)"/></clipPath><linearGradient id="linear-gradient-23" x1="2447.41" y1="1153.65" x2="2582.73" y2="1153.65" gradientTransform="translate(4099.08 -357.24) rotate(129.91)" gradientUnits="userSpaceOnUse"><stop offset="0" stop-color="#031e3f" stop-opacity="0.4"/><stop offset="0.01" stop-color="#031e3f" stop-opacity="0.41"/><stop offset="0.4" stop-color="#010f2b" stop-opacity="0.86"/><stop offset="1" stop-color="#010b25"/></linearGradient></defs><title>section-dark-bg</title><g class="cls-24"><g id="Layer_2" data-name="Layer 2"><g id="Layer_1-2" data-name="Layer 1"><path class="cls-25" d="M436.9,823.92c137.4,55,440.74,201.11,381.53,249s-450.6-95.78-684.12,38.3-111.83-47.88,0-91,411.13-4.79,302.59-86.2S305.34,771.25,436.9,823.92Zm1391.74-247.1c-93.23,94.76-190,81.95-309.61,56.34-128.39-27.48-466.18-156.22-471.46-112.68-3.12,25.72,460.9,153.66,450.35,243.3s-218.14,33.3-223.42,79.39S1629.86,920,1835.68,1196.6c132,177.33,66.85-7.68-31.67-120.37s-139.51-245.62-38.7-307.33c154.81-94.76,173.18-366.8,144.25-345.74C1895.49,433.4,1874.26,530.46,1828.64,576.82ZM462.35,407.27c-312,119.52,44.57,209.67,520.72,486.27,273.19,158.7,276.77,447.35-354.19,324.41C347.42,1163.12,63.41,1337.4,34.75,1454H1907c-2.14-16.94-5.91-32.61-11.48-51.65-114.93-392.7-980.45-512.21-921.81-601s245.09,36.56,232.21-85.36c-9.38-88.79-511.33-95.62-384.67-314.17s821,341.48,1010.94,3.42C1946.37,202,1649.48,69.74,1394.48,0H129.28C647.65,139.4,701.33,315.71,462.35,407.27Z"/><path class="cls-26" d="M1920,1304.16V1452H0V1304.16c193.39-128.28,550.92-214.38,960-214.38S1726.61,1175.88,1920,1304.16Z"/><g class="cls-27"><path class="cls-28" d="M1920,1304.16V1452H0V1304.16c193.39-128.28,550.92-214.38,960-214.38S1726.61,1175.88,1920,1304.16Z"/></g><path class="cls-29" d="M1054.38,1183.23h0l-.05,0-.31-.27-23.12-19.5H768.84l-22.44,19h0c-1.78,1.27-2.72,2.57-2.72,3.9,0,11.55,69.93,20.92,156.19,20.92s156.19-9.37,156.19-20.92A4.31,4.31,0,0,0,1054.38,1183.23Z"/><path class="cls-30" d="M1030.91,1163.43c0,3.19-6.38,6.19-17.53,8.77-22.65,5.25-65,8.78-113.5,8.78s-90.85-3.53-113.51-8.78c-11.15-2.58-17.53-5.58-17.53-8.77,0-9.69,58.67-17.55,131-17.55S1030.91,1153.74,1030.91,1163.43Z"/><path class="cls-31" d="M1013.38,1172.2c-22.65,5.25-65,8.78-113.5,8.78s-90.85-3.53-113.51-8.78c22.66-5.24,65-8.77,113.51-8.77S990.73,1167,1013.38,1172.2Z"/><path class="cls-29" d="M1075,1351.36h0l0,0a3,3,0,0,0-.27-.23l-20.37-17.19H823.44l-19.78,16.73h0c-1.56,1.11-2.39,2.26-2.39,3.43,0,10.18,61.61,18.43,137.61,18.43s137.61-8.25,137.61-18.43A3.8,3.8,0,0,0,1075,1351.36Z"/><path class="cls-30" d="M1054.34,1333.91c0,2.82-5.62,5.46-15.45,7.73-20,4.62-57.26,7.73-100,7.73s-80-3.11-100-7.73c-9.83-2.27-15.45-4.91-15.45-7.73,0-8.54,51.69-15.46,115.45-15.46S1054.34,1325.37,1054.34,1333.91Z"/><path class="cls-31" d="M1038.89,1341.64c-20,4.62-57.26,7.73-100,7.73s-80-3.11-100-7.73c20-4.62,57.26-7.73,100-7.73S1018.93,1337,1038.89,1341.64Z"/><path class="cls-29" d="M307.21,1391.81h0l0,0-.28-.24-20.37-17.18H55.64l-19.78,16.73h0c-1.57,1.11-2.39,2.26-2.39,3.43,0,10.18,61.61,18.43,137.61,18.43s137.61-8.25,137.61-18.43A3.76,3.76,0,0,0,307.21,1391.81Z"/><path class="cls-30" d="M286.53,1374.36c0,2.81-5.62,5.45-15.44,7.73-20,4.62-57.27,7.73-100,7.73s-80-3.11-100-7.73c-9.82-2.28-15.44-4.92-15.44-7.73,0-8.54,51.69-15.46,115.45-15.46S286.53,1365.82,286.53,1374.36Z"/><path class="cls-31" d="M271.09,1382.09c-20,4.62-57.27,7.73-100,7.73s-80-3.11-100-7.73c20-4.62,57.27-7.73,100-7.73S251.13,1377.47,271.09,1382.09Z"/><path class="cls-29" d="M1847.66,1388h0l0,0-.28-.23L1827,1370.53H1596.09l-19.78,16.72h0c-1.57,1.11-2.4,2.26-2.4,3.43,0,10.18,61.61,18.43,137.62,18.43s137.61-8.25,137.61-18.43A3.81,3.81,0,0,0,1847.66,1388Z"/><path class="cls-30" d="M1827,1370.52c0,2.82-5.62,5.46-15.44,7.73-20,4.63-57.27,7.74-100,7.74s-80-3.11-100-7.74c-9.82-2.27-15.44-4.91-15.44-7.73,0-8.53,51.68-15.45,115.45-15.45S1827,1362,1827,1370.52Z"/><path class="cls-31" d="M1811.54,1378.25c-20,4.63-57.27,7.74-100,7.74s-80-3.11-100-7.74c20-4.62,57.27-7.73,100-7.73S1791.58,1373.63,1811.54,1378.25Z"/><path class="cls-29" d="M363,1250h0l0,0-.18-.19L350,1236.3H204.85l-12.43,13.11h0a3.72,3.72,0,0,0-1.5,2.69c0,8,38.73,14.43,86.52,14.43S364,1260.07,364,1252.1A3.25,3.25,0,0,0,363,1250Z"/><path class="cls-30" d="M350,1236.3c0,2.21-3.54,4.27-9.71,6.06-12.55,3.62-36,6.05-62.88,6.05s-50.33-2.43-62.88-6.05c-6.17-1.79-9.71-3.85-9.71-6.06,0-6.69,32.5-12.11,72.59-12.11S350,1229.61,350,1236.3Z"/><path class="cls-31" d="M340.32,1242.36c-12.55,3.62-36,6.05-62.88,6.05s-50.33-2.43-62.88-6.05c12.55-3.62,36-6.06,62.88-6.06S327.77,1238.74,340.32,1242.36Z"/><ellipse class="cls-32" cx="508.56" cy="1262.78" rx="101.13" ry="8.01"/><path class="cls-33" d="M391.82,1056a2.93,2.93,0,0,1-.81,2.2,2,2,0,0,1-2.69-.75,5.69,5.69,0,0,1-.61-3l-.12-6.88a1.85,1.85,0,0,0-.4-1.35,1.24,1.24,0,0,0-1.66.21,3.61,3.61,0,0,0-.72,1.69q-1.67,7-3.34,14c-.2.87-.52,1.86-1.36,2.16A1.85,1.85,0,0,1,378,1063a5.33,5.33,0,0,1,0-2.72l1.8-11.11a1.23,1.23,0,0,0-.16-1.1.86.86,0,0,0-1.18.13,2.49,2.49,0,0,0-.49,1.22l-3,14.3c-.12.59-.32,1.26-.87,1.48a1.24,1.24,0,0,1-1.4-.56,3.37,3.37,0,0,1-.42-1.56,34.22,34.22,0,0,1,1.49-13.56,1.91,1.91,0,0,0,0-1.68,1.26,1.26,0,0,0-1.8,0,3.6,3.6,0,0,0-.81,1.83q-1.41,6-2.81,12c-.19.82-.56,1.81-1.4,1.91a1.38,1.38,0,0,1-1.3-.76,3.6,3.6,0,0,1-.36-1.55c-.38-5.65,1.76-11.13,3.86-16.39a13.76,13.76,0,0,0-4.58,7.88,5.48,5.48,0,0,1-.6,2,1.5,1.5,0,0,1-1.84.67c-.66-.34-.76-1.24-.72-2a19.15,19.15,0,0,1,2.84-8.58,56.78,56.78,0,0,1,5.45-7.3q3.58-4.34,7.19-8.66a24.24,24.24,0,0,0,14,6c1.83.15,2.58.71,2.27,2.52a59.72,59.72,0,0,0-.47,6Q392.24,1049.73,391.82,1056Z"/><path class="cls-34" d="M478.56,934.15a12.81,12.81,0,0,1-.49,1.94c-1.48,4.31-4.91,7.82-8.78,10.51s-8.21,4.71-12.35,7c-14.64,8.17-26.61,20.08-36.14,33.4-.88,1.24-1.75,2.48-2.59,3.74q-1.83,2.73-3.53,5.52c-8.15,13.29-14.4,27.57-20.19,41.94-3.8.82-8.12-.47-12.07-2.15-1.92-.81-3.74-1.72-5.37-2.53-5.05-2.49-1.46-7.59.49-12.73a181.29,181.29,0,0,1,14-28.91q2.47-4.14,5.17-8.15,3.36-5,7-9.82a195.81,195.81,0,0,1,24.57-26.57,198.53,198.53,0,0,1,22.93-17.78c6-4,16.68-12.25,23.88-6.06A11.35,11.35,0,0,1,478.56,934.15Z"/><g class="cls-35"><path class="cls-36" d="M478.56,934.15a12.81,12.81,0,0,1-.49,1.94c-1.48,4.31-4.91,7.82-8.78,10.51s-8.21,4.71-12.35,7c-16,8.93-28.81,22.33-38.73,37.14s-17.12,31.08-23.72,47.46c-3.8.82-8.12-.47-12.07-2.15.85-2.56,2.67-5.22,3.59-7.08a218.85,218.85,0,0,1,16.1-27.15,222.56,222.56,0,0,1,42.44-45.73,215,215,0,0,1,29.25-20A17.08,17.08,0,0,1,478.56,934.15Z"/></g><path class="cls-37" d="M420.8,987c-.88,1.24-1.75,2.48-2.59,3.74q-1.83,2.73-3.53,5.52a81.58,81.58,0,0,1-17.95-12.53q3.36-5,7-9.82A54.57,54.57,0,0,0,420.8,987Z"/><path class="cls-34" d="M570.31,875.92a45.89,45.89,0,0,1-23.78,40.23A45.73,45.73,0,0,1,527,921.76c-.85,0-1.7.07-2.56.07A45.92,45.92,0,1,1,540.67,833a46.76,46.76,0,0,1,4.94,2.22c1,.52,2,1.08,2.93,1.66a46.09,46.09,0,0,1,21.77,39.07Z"/><path class="cls-37" d="M570.31,875.92a45.89,45.89,0,0,1-23.78,40.23,45.29,45.29,0,0,1-9.27,3.85,42.73,42.73,0,0,1,7.42-84.82h.93c1,.52,2,1.08,2.93,1.66a46.09,46.09,0,0,1,21.77,39.07Z"/><path class="cls-25" d="M570.31,875.92a45.89,45.89,0,0,1-23.78,40.23c-.84.05-1.69.08-2.54.08a38.32,38.32,0,0,1-1.38-76.61l1.38,0A38.35,38.35,0,0,1,554.16,841,45.82,45.82,0,0,1,570.31,875.92Z"/><path class="cls-38" d="M566.67,893.85a46.07,46.07,0,0,1-20.14,22.3c-.84.05-1.69.08-2.54.08a38.32,38.32,0,0,1-1.38-76.61,44.78,44.78,0,0,0-20.13,14.2,42.08,42.08,0,0,0-7,12.51c-1.23,3.56-2,7.39-1.3,11.09s3.13,7.23,6.68,8.46,8.11-.46,9.34-4c1.33-3.84-1.31-8.2-.07-12.08s6-5.59,9.75-4.26,6.21,5.1,6.89,9-.2,7.91-1.5,11.65a32,32,0,0,0-1.84,6.13,7.68,7.68,0,0,0,1.43,6.05c1.4,1.62,4,2.25,5.75,1,1.36-1,1.81-2.83,2-4.51s.18-3.46,1-4.94,2.78-2.52,4.23-1.65,1.46,3,.71,4.49-2.06,2.61-2.95,4-1.28,3.41-.16,4.64a3.42,3.42,0,0,0,4,.45,10,10,0,0,0,3.12-2.88Z"/><path class="cls-37" d="M487.5,865.53a1.44,1.44,0,0,1-1.38-1.08l-7.77-30.92a1.44,1.44,0,0,1,1-1.73,1.42,1.42,0,0,1,1.72,1l7.77,30.92a1.43,1.43,0,0,1-1,1.73A1.39,1.39,0,0,1,487.5,865.53Z"/><ellipse class="cls-39" cx="489.24" cy="876.92" rx="13.54" ry="15.75"/><path class="cls-40" d="M496,876.92c0,4.24-2.56,7.79-6,8.66a6.74,6.74,0,0,1-1.63.2c-4.21,0-7.62-4-7.62-8.86s3.41-8.86,7.62-8.86a6.74,6.74,0,0,1,1.63.2C493.44,869.13,496,872.68,496,876.92Z"/><path class="cls-33" d="M496,876.92c0,4.24-2.56,7.79-6,8.66-3.42-.87-6-4.42-6-8.66s2.57-7.79,6-8.66C493.44,869.13,496,872.68,496,876.92Z"/><path class="cls-40" d="M481.31,913.92a24.29,24.29,0,0,1,6.83-2.57A42.94,42.94,0,0,1,530,924.58c.76.85,1.53,2,1.17,3a3.08,3.08,0,0,1-2.37,1.66c-5.86,1.47-11.89-.9-17.7-2.59a80.13,80.13,0,0,0-31.84-2.57c-1.1.13-3.83,1.08-4.8.51-1.15-.68-.38-2.34,0-3.23A17.14,17.14,0,0,1,481.31,913.92Z"/><rect class="cls-41" x="336.24" y="995.39" width="248.57" height="87.03" rx="3.97" transform="translate(-348.78 241.13) rotate(-21.5)"/><polygon class="cls-42" points="370.69 1110.23 415.97 1091.82 392.19 1033.96 347.55 1052.25 370.69 1110.23"/><path class="cls-42" d="M552.63,977.19a1.7,1.7,0,0,1-1,1.89L412.33,1037.2a1.7,1.7,0,0,1-1.31-3.13L550.31,976a1.69,1.69,0,0,1,2.22.91A1.39,1.39,0,0,1,552.63,977.19Z"/><path class="cls-42" d="M559,992a1.71,1.71,0,0,1-1,1.9L418.7,1052a1.71,1.71,0,0,1-2.23-.91,1.7,1.7,0,0,1,.92-2.22l139.29-58.12a1.69,1.69,0,0,1,2.22.91C558.94,991.75,559,991.85,559,992Z"/><path class="cls-42" d="M564.53,1006.1a1.7,1.7,0,0,1-1,1.89l-139.29,58.12a1.69,1.69,0,1,1-1.3-3.13l139.29-58.12a1.7,1.7,0,0,1,2.22.91C564.47,1005.88,564.5,1006,564.53,1006.1Z"/><path class="cls-42" d="M570.05,1020.23a1.69,1.69,0,0,1-1,1.9l-139.29,58.12a1.7,1.7,0,1,1-1.3-3.14L567.73,1019a1.71,1.71,0,0,1,2.23.92A1.92,1.92,0,0,1,570.05,1020.23Z"/><path class="cls-34" d="M509.36,1262.43H445.07l-.24-4c-1.75-32.14.42-64.42-1.23-96.58-.11-2.18-.25-4.37-.4-6.59-.32-4.45-.74-9-1.27-13.54-3.25-28.16-10.67-57.81-25-80.64.66-3.15.91-2.07,1.57-5.23a74.6,74.6,0,0,0,27.9,7.05c1,0,2,.09,2.95.1a74.7,74.7,0,0,0,15.87-1.43h0a71.77,71.77,0,0,0,7.88-2,177.59,177.59,0,0,1,8,31.92c2.66,16.69,3.3,33.78,3,50.76-.07,3.07-.16,6.14-.28,9.19,0,1.22-.1,2.44-.17,3.65-1.49,29.58-6.88,56.89-9.17,89.81,5.95,1,17.34,2.08,22.75,4.76,4.45,2.2,8.82,5.45,11,9.8A13.84,13.84,0,0,1,509.36,1262.43Z"/><g class="cls-43"><path class="cls-44" d="M462.16,1262.43H459.3a569.35,569.35,0,0,0-12.93-199.51c1,0,2,.09,2.95.1A572.14,572.14,0,0,1,462.16,1262.43Z"/></g><path class="cls-37" d="M484.06,1142.23c-.07,3.07-.16,6.14-.28,9.19,0,1.22-.1,2.44-.17,3.65-13.45.46-26.94.41-40.41.21-.32-4.45-.74-9-1.27-13.54A313.4,313.4,0,0,0,484.06,1142.23Z"/><path class="cls-37" d="M509.36,1262.43H445.07l-.24-4c3.31-.36,6.69-.88,9.95-1.17a8.12,8.12,0,0,1,12.84-8.51c2.66,2.08,4.17,5.92,3,9.1l17.64.74,19.93.83A13.84,13.84,0,0,1,509.36,1262.43Z"/><path class="cls-34" d="M570.71,1264.56H516.14c0-1.63,0-3.26,0-4.89-.17-33-2-66.14-9-98.37q-.81-3.75-1.73-7.49-1.6-6.57-3.54-13.07a232.37,232.37,0,0,0-20.79-49.27,188.8,188.8,0,0,0-16.27-24c-1.5-1.87-1.57-4.15.22-5.75l.15-.13h0c1.77-1.49,4.18-2,6.47-2.37l23.3-4.17,2.27-.42c.94-.18,1.89-.36,2.83-.58a34.15,34.15,0,0,0,7.85-2.61c4-2,7.61-5.35,8.8-9.69a296.4,296.4,0,0,1,29.36,90.82c.74,4.81,1.35,9.65,1.84,14.49a281.61,281.61,0,0,1-7.09,98.48c6.57.49,13.32,1,19.29,3.84a18.72,18.72,0,0,1,9.6,10.17A15.61,15.61,0,0,1,570.71,1264.56Z"/><g class="cls-45"><path class="cls-46" d="M532.7,1264.56h-2.89a475.17,475.17,0,0,0-32.57-209.93c.94-.18,1.89-.36,2.83-.58a471.11,471.11,0,0,1,30.54,120A473.81,473.81,0,0,1,532.7,1264.56Z"/></g><path class="cls-37" d="M547.92,1147.06a276.23,276.23,0,0,1-40,6.54l-2.47.21q-1.6-6.57-3.54-13.07a316,316,0,0,0,44.2-8.17C546.82,1137.38,547.43,1142.22,547.92,1147.06Z"/><path class="cls-37" d="M570.71,1264.56H516.14c0-1.63,0-3.26,0-4.89l8.59-.05a7.17,7.17,0,1,1,11.59-.07h33.42A15.61,15.61,0,0,1,570.71,1264.56Z"/><path class="cls-34" d="M537.74,984.9c-.27.68-.53,1.36-.79,2-8,20.68-10.66,32.53-14.65,53.33-.34,1.78-.69,3.62-1,5.54-6.92,36.39-93.13,29.67-101.7,19.67s-4.72-35.26-4.72-35.26c3.84-29.8,18.7-56.88,33.28-83.15,4.33-7.79,8.86-15.83,16-21.09a42.87,42.87,0,0,1,15.67-6.75,64.59,64.59,0,0,1,33.6,1.08,57.15,57.15,0,0,1,15.33,7.3l1,.68c6.76,4.8,14.73,4.66,17,12.64C550.19,953.3,542.46,972.93,537.74,984.9Z"/><g class="cls-47"><path class="cls-48" d="M537,986.92c-8,20.68-10.66,32.53-14.65,53.33a39.13,39.13,0,0,0-8.39-8.89,50.7,50.7,0,0,0-19-8.88,62.73,62.73,0,0,0-21.1-1.56c-6.81.65-13.92,1.41-20.72,2.15a4.39,4.39,0,0,1-3-.37c-.85-.57-1.82-1.87-.9-2.31Q457.6,999.6,466,978.82c4.46-11.11,9-22.3,15.45-32.37s15.15-19.05,26.05-24a37,37,0,0,1,6-2.15,57.15,57.15,0,0,1,15.33,7.3,47.26,47.26,0,0,0-24.94,19.46c-2.94,4.68-5,10.34-7.27,15.36A69.43,69.43,0,0,1,537,986.92Z"/></g><path class="cls-49" d="M482.6,919.68a2.48,2.48,0,0,1-.77.41l-.33.07c-1.36.21-2.7.48-4,.82l-.84.22a42.62,42.62,0,0,0-4.7,1.6l-.81.33a45.23,45.23,0,0,0-4.67,2.34l-.74.44a42.59,42.59,0,0,0-4.37,3l-.67.54a40.44,40.44,0,0,0-3.06,2.8l-.61.62a40.75,40.75,0,0,0-5.22,6.78c-2.21,3.58-7.87.29-5.65-3.31a47.56,47.56,0,0,1,3.8-5.32c.24-.29.48-.58.73-.86a51.15,51.15,0,0,1,3.82-4l.75-.67a49.93,49.93,0,0,1,5.29-4.11l.79-.51a48.31,48.31,0,0,1,4.58-2.62l.91-.45a47.16,47.16,0,0,1,5.31-2.15h0l1-.31a46.5,46.5,0,0,1,5.59-1.37l1-.17h0l.11,0a3.36,3.36,0,0,1,4,2.29A3.55,3.55,0,0,1,482.6,919.68Z"/><path class="cls-50" d="M457.61,932.29l-.61.62a14,14,0,0,0-7.07-1.85c.24-.29.48-.58.73-.86A14.91,14.91,0,0,1,457.61,932.29Z"/><path class="cls-50" d="M461.34,929l-.67.54a15.92,15.92,0,0,0-6.19-3.26l.75-.67A16.63,16.63,0,0,1,461.34,929Z"/><path class="cls-50" d="M466.45,925.47l-.74.44a19.81,19.81,0,0,0-5.19-4.46l.79-.51A20.6,20.6,0,0,1,466.45,925.47Z"/><path class="cls-50" d="M471.93,922.8l-.81.33a17.41,17.41,0,0,0-5.23-4.81l.91-.45A18.53,18.53,0,0,1,471.93,922.8Z"/><path class="cls-50" d="M477.47,921l-.84.22a17.2,17.2,0,0,0-4.52-5.48l1-.31A17.89,17.89,0,0,1,477.47,921Z"/><path class="cls-50" d="M482.6,919.68a2.48,2.48,0,0,1-.77.41,14.5,14.5,0,0,0-3.17-6.05l1-.17h0A15.54,15.54,0,0,1,482.6,919.68Z"/><path class="cls-49" d="M537.68,932.46a46.78,46.78,0,0,1-6.41-3.15l-.74-.46c-.77-.47-1.44-.9-2-1.27a13.28,13.28,0,0,0-1.12-1.13l-.66-.55a14.5,14.5,0,0,0-1.41-.95,15,15,0,0,0-2.44-1.13l-.83-.28a20.19,20.19,0,0,0-5.64-.82h-.88a24.33,24.33,0,0,0-2.72.22c-.84.11-1.66.26-2.48.45-.29.06-.57.13-.85.21a29.14,29.14,0,0,0-5,1.79l-.81.38a31.41,31.41,0,0,0-4.66,2.88l-.68.53a27.9,27.9,0,0,0-2.57,2.28c-.21.21-.41.41-.6.62a27.76,27.76,0,0,0-2.71,3.33,3.27,3.27,0,1,1-5.65-3.3c.69-1,1.41-1.94,2.17-2.85l.62-.72a35.74,35.74,0,0,1,3-3c.23-.21.46-.42.7-.62a39.52,39.52,0,0,1,3.49-2.65c.54-.36,1.09-.71,1.65-1h0c.27-.16.54-.32.82-.47a35.77,35.77,0,0,1,6.66-2.89l.87-.26a34.44,34.44,0,0,1,6.26-1.21l.93-.07a30.69,30.69,0,0,1,7.1.31l.75.14c.31.06.61.12.91.2a21.07,21.07,0,0,1,6.82,3c.26.16.5.34.75.52a19.5,19.5,0,0,1,3.92,3.83l.53.72A17.32,17.32,0,0,1,537.68,932.46Z"/><path class="cls-50" d="M495.78,931.47c-.21.21-.41.41-.6.62a20.18,20.18,0,0,0-6.19-2.82l.62-.72A21.31,21.31,0,0,1,495.78,931.47Z"/><path class="cls-50" d="M499,928.66l-.68.53a21.66,21.66,0,0,0-5.74-3.67c.23-.21.46-.42.7-.62A22.75,22.75,0,0,1,499,928.66Z"/><path class="cls-50" d="M504.5,925.4l-.81.38a35.12,35.12,0,0,0-5.24-4.57c.27-.16.54-.32.82-.47l1.2.91A34.89,34.89,0,0,1,504.5,925.4Z"/><path class="cls-50" d="M510.37,923.4c-.29.06-.57.13-.85.21a34.91,34.91,0,0,0-3.59-5.76l.87-.26c.33.43.65.87,1,1.33A34.44,34.44,0,0,1,510.37,923.4Z"/><path class="cls-50" d="M516.45,922.72h-.88a32.16,32.16,0,0,0-2.51-6.35l.93-.07.1.2A33.78,33.78,0,0,1,516.45,922.72Z"/><path class="cls-50" d="M522.92,923.82l-.83-.28a21.15,21.15,0,0,0-.25-6.78c.31.06.61.12.91.2A22.23,22.23,0,0,1,522.92,923.82Z"/><path class="cls-50" d="M530.32,920.47a16.69,16.69,0,0,1-2.89,6l-.66-.55a15.74,15.74,0,0,0,2.8-5.95C529.83,920.11,530.07,920.29,530.32,920.47Z"/><path class="cls-50" d="M534.77,925a38.77,38.77,0,0,1-3.5,4.29l-.74-.46a38.57,38.57,0,0,0,3.71-4.55Z"/><path class="cls-34" d="M644.58,911.53a121.59,121.59,0,0,1-31.14,33.89,140.73,140.73,0,0,1-15.54,10.11,154.6,154.6,0,0,1-43.45,16.3,67.28,67.28,0,0,1-8.68,1.38,33.3,33.3,0,0,1-5.47,0c-4.74-.39-9.52-2.07-12.87-5.45a16.44,16.44,0,0,1-4.11-7.27,21,21,0,0,1,.47-12.32c2.32-6.6,8.31-11.9,14.2-15.69.93.17,1.87.32,2.81.46a92.52,92.52,0,0,0,43.06-3.48c1.35-.45,2.69-.92,4-1.43a95.34,95.34,0,0,0,9.84-4.42,93.92,93.92,0,0,0,31-25.6,15.79,15.79,0,0,1,7.66,2.42A18.86,18.86,0,0,1,644.58,911.53Z"/><path class="cls-37" d="M545.77,973.21a33.3,33.3,0,0,1-5.47,0c-4.74-.39-9.52-2.07-12.87-5.45-4.93-5-5.95-13-3.64-19.59s8.31-11.9,14.2-15.69c.93.17,1.87.32,2.81.46a10.27,10.27,0,0,0-1.24,1.09,27.75,27.75,0,0,0-6,9.29,24.38,24.38,0,0,0,2,21.71A21.24,21.24,0,0,0,545.77,973.21Z"/><path class="cls-37" d="M613.44,945.42a140.73,140.73,0,0,1-15.54,10.11,28.23,28.23,0,0,1-14-26c1.35-.45,2.69-.92,4-1.43a95.34,95.34,0,0,0,9.84-4.42,22.4,22.4,0,0,1,7.74,6.2A39.07,39.07,0,0,1,613.44,945.42Z"/><g class="cls-51"><path class="cls-52" d="M644.58,911.53a121.59,121.59,0,0,1-31.14,33.89,140.73,140.73,0,0,1-15.54,10.11,154.6,154.6,0,0,1-43.45,16.3,67.28,67.28,0,0,1-8.68,1.38,33.3,33.3,0,0,1-5.47,0c-4.74-.39-9.52-2.07-12.87-5.45a16.44,16.44,0,0,1-4.11-7.27,25.9,25.9,0,0,0,4.44,3.31,40.16,40.16,0,0,0,18.71,4.53c10.17,0,20.1-3.12,29.42-7.19a152.07,152.07,0,0,0,51.18-36.68c3.7-4.05,7.26-8.45,9-13.67a17.86,17.86,0,0,0,.3-10.36A18.86,18.86,0,0,1,644.58,911.53Z"/></g><path class="cls-33" d="M671,896.61a2.83,2.83,0,0,1-1.11,1.85,15.11,15.11,0,0,1-2.26,1.74,20,20,0,0,1-2.31,1.28,65.2,65.2,0,0,1-9.38,3.21c-4.92,1.49-10.1,3.67-12.65,8.14.22-.39-.19-1.34-.81-2.38a42.47,42.47,0,0,0-2.7-3.84,24.71,24.71,0,0,0-5.35-5.06c-.59-.41-1.21-.8-1.84-1.15-.44-.26-.89-.49-1.34-.72-.77-.37-2.21-.64-2.69-1.39-1.09-1.7.22-5.72.8-7.45A22.79,22.79,0,0,1,634,883a28.64,28.64,0,0,1,5.74-4.91c1-.64,2-1.23,3-1.78A43.09,43.09,0,0,1,648,874a5.56,5.56,0,0,1,2.07-.46,1.81,1.81,0,0,1,1.43,3.09A5.93,5.93,0,0,1,649.8,878L646,880.25l-2.31,1.41-3.5,2.12a3.26,3.26,0,0,0-1.72,1.8,1.24,1.24,0,0,0,.43,1.34,1.48,1.48,0,0,0,1.53-.1,51.4,51.4,0,0,0,13.34-8.9c.61-.56,1.21-1.14,1.79-1.73s1.07-1.11,1.58-1.68a5.5,5.5,0,0,1,2.65-2,2,2,0,0,1,1.52.2c1,.62.95,1.88.67,2.91a11.91,11.91,0,0,1-2,3.89,25.9,25.9,0,0,1-2,2.36c-1.36,1.45-2.84,2.84-4.13,4.36a.57.57,0,0,0,.77.82,27.23,27.23,0,0,0,5.88-5.81q.51-.71,1-1.44a26.66,26.66,0,0,0,1.79-3.28,4.43,4.43,0,0,1,1.34-2,1.56,1.56,0,0,1,1.3-.25c1.14.35,1.16,1.89.88,3a22,22,0,0,1-1.82,4.7c-.29.57-.61,1.14-.95,1.7a64.29,64.29,0,0,1-6.45,8.39,2.68,2.68,0,0,0,2.6-.3,7.89,7.89,0,0,0,1.87-2l2.4-3.23,1.24-1.68c.84-1.13,1.69-2.26,2.53-3.4a1.29,1.29,0,0,1,2.32.67,9.81,9.81,0,0,1-.92,4.82,12.51,12.51,0,0,1-1,1.76,20,20,0,0,1-1.3,1.73,31.91,31.91,0,0,1-2.55,2.65c-1.08,1-2.2,2-3.26,3a.86.86,0,0,0,.87,1.44l2.3-.76,2.18-.73,1.69-.57c.69-.23,1.53-.44,2.07.18A1.24,1.24,0,0,1,671,896.61Z"/><path class="cls-40" d="M646,880.25l-2.31,1.41a10.85,10.85,0,0,0-.85-1.24,8.08,8.08,0,0,0-3.17-2.34c1-.64,2-1.23,3-1.78a12.27,12.27,0,0,1,2.71,2.86A5.74,5.74,0,0,1,646,880.25Z"/><path class="cls-40" d="M660,879.52a25.9,25.9,0,0,1-2,2.36,8.54,8.54,0,0,0-4.25-4c.61-.56,1.21-1.14,1.79-1.73a12.65,12.65,0,0,1,3.58,2.27A3.82,3.82,0,0,1,660,879.52Z"/><path class="cls-40" d="M665.05,882c-.29.57-.61,1.14-.95,1.7a5.75,5.75,0,0,0-3.53-2.47q.51-.71,1-1.44a5.1,5.1,0,0,1,2.22.87A4.91,4.91,0,0,1,665.05,882Z"/><path class="cls-40" d="M668.72,888.76a20,20,0,0,1-1.3,1.73,6.51,6.51,0,0,0-1.62-3,15.2,15.2,0,0,0-1.28-.92l1.24-1.68a2.51,2.51,0,0,1,1.48.9,7.12,7.12,0,0,1,1,1.74A10.56,10.56,0,0,1,668.72,888.76Z"/><path class="cls-40" d="M667.63,900.09v.11a20,20,0,0,1-2.31,1.28c0-.85,0-2,0-2.12-.07-.8-.45-1.7-.5-2.52l2.18-.73a5.52,5.52,0,0,1,.44,1.18A10.93,10.93,0,0,1,667.63,900.09Z"/><path class="cls-40" d="M653.13,900.82a9,9,0,0,1-3,3.38l-7.69,6.25a42.47,42.47,0,0,0-2.7-3.84,24.71,24.71,0,0,0-5.35-5.06c-.59-.41-1.21-.8-1.84-1.15l.26-.12a41,41,0,0,0,7.79-5,39.07,39.07,0,0,0,3.78-3.5,4.17,4.17,0,0,1,2.39-1.58c1.22-.12,2.22.89,3,1.8a18.27,18.27,0,0,1,2.91,4A6,6,0,0,1,653.13,900.82Z"/><path class="cls-37" d="M505.31,961.09q-7.67,27-17.31,53.48c-.55,1.54-1.12,3.08-1.69,4.61q-2.35,6.35-4.82,12.63c-1.95,5-4.64,10.58-9.83,11.9a17.27,17.27,0,0,1-6.25,0l-44-5.3a37.33,37.33,0,0,1-9.44-2c-2.71-1.08-6.45-2.94-6.9-5.65a3.37,3.37,0,0,1,0-.9,203,203,0,0,1,3.64-22.45q.57-2.61,1.21-5.22A203.63,203.63,0,0,1,423,965.08a111,111,0,0,1,13.67-22.87,24.43,24.43,0,0,1,16.31-9c5.45-.62,11-1.26,16.25-1.85,7.29-.82,14.77-1.64,21.89.14a25.26,25.26,0,0,1,9.16,4.37,17.65,17.65,0,0,1,6.6,9.46C508.18,950.51,506.77,956,505.31,961.09Z"/><path class="cls-40" d="M505.31,961.09q-10.19,35.91-23.82,70.72c-1.95,5-4.64,10.58-9.83,11.9a17.27,17.27,0,0,1-6.25,0l-44-5.3a37.33,37.33,0,0,1-9.44-2c-2.71-1.08-6.45-2.94-6.9-5.65,1.72-.84,4.08-.72,6.09-.45l53.33,7.28.16-.59q16-47.79,31.9-95.59c.69-2.05,1.51-4.28,3.37-5.39.12-.06.23-.13.35-.18a17.65,17.65,0,0,1,6.6,9.46C508.18,950.51,506.77,956,505.31,961.09Z"/><path class="cls-33" d="M488,1014.57c-.55,1.54-1.12,3.08-1.69,4.61a64.91,64.91,0,0,0-6.49-3.45c-12-5.53-25.35-7.36-38.36-8.8-10.72-1.19-22.28-2.53-32.81.52q.57-2.61,1.21-5.22a61.9,61.9,0,0,1,13.94-1.43,182.33,182.33,0,0,1,20.34,1.59,185.46,185.46,0,0,1,21.33,3.47A81.46,81.46,0,0,1,488,1014.57Z"/><path class="cls-40" d="M481.88,935.68l-1.13,3.45L474,960l-13.15.29-4.62.1c2.52-11.54,9.29-23.49,9.29-23.49Z"/><path class="cls-33" d="M480.75,939.13,474,960l-13.15.29a104.38,104.38,0,0,1,8.5-20.3Z"/><path class="cls-49" d="M434.45,1041.57c-.2,1.43-.41,2.86-.64,4.29-.05.29-.09.58-.14.87-.28,1.68-.57,3.35-.88,5-.06.29-.12.59-.17.89q-.64,3.33-1.38,6.64c-.07.28-.13.57-.19.85-.31,1.34-.63,2.68-1,4-.24,1-.49,2-.78,3-.08.28-.16.56-.25.84a26.1,26.1,0,0,1-2.88,6.59c-.17.27-.35.54-.55.8a13.19,13.19,0,0,1-4.18,3.8,12,12,0,0,1-2.33,1c-.28.09-.57.17-.85.23a9.93,9.93,0,0,1-10.35-3.57c-.17-.23-.33-.45-.48-.7h0a10.31,10.31,0,0,1-.55-1,19.05,19.05,0,0,1-1.6-5h0c-.05-.27-.1-.55-.14-.84a30.81,30.81,0,0,1-.26-5.44c0-.28,0-.57,0-.86.1-1.74.31-3.46.57-5.11.08-.5.16-1,.26-1.5.06-.3.12-.59.19-.89a41.31,41.31,0,0,1,1.69-5.73q.15-.42.33-.84a42.64,42.64,0,0,1,2.46-5.15c.15-.26.29-.51.45-.77.43-.74.89-1.46,1.38-2.17a2.76,2.76,0,0,1,1.77-1.23c0,1.19-.09,3.67,0,6.17l0,1.07c0,.72.08,1.43.14,2.1a36.34,36.34,0,0,0-1.43,3.42c-.1.28-.19.55-.28.83a35.51,35.51,0,0,0-1.27,4.92c-.05.28-.11.56-.15.85l-.12.78c-.15,1.08-.28,2.25-.36,3.46,0,.29,0,.58-.05.86a25.65,25.65,0,0,0,.12,3.92q0,.42.12.84a11.75,11.75,0,0,0,1.42,4.1l0,0a4.71,4.71,0,0,0,.5.69c1.49,1.69,3.7,1.61,5.6.64a6.71,6.71,0,0,0,.86-.51,7.79,7.79,0,0,0,1.79-1.69,13.23,13.23,0,0,0,1.2-1.93c.14-.27.27-.55.39-.83a29.87,29.87,0,0,0,1.31-3.87s0-.08,0-.13c.07-.28.15-.55.22-.83.58-2.15,1.09-4.32,1.57-6.5.06-.25.11-.49.17-.74a.29.29,0,0,1,0-.09q.69-3.14,1.29-6.28c.06-.28.11-.56.16-.84.32-1.74.63-3.48.91-5.22,0-.28.09-.56.13-.84.21-1.32.41-2.65.6-4,.21-1.54,2.17-2.36,3.5-2A2.94,2.94,0,0,1,434.45,1041.57Z"/><path class="cls-50" d="M414,1046.87a22.91,22.91,0,0,1-3.61-3.07c.15-.26.29-.51.45-.77a22.31,22.31,0,0,0,3.13,2.77Z"/><path class="cls-50" d="M412.75,1052.39c-.1.28-.19.55-.28.83a38,38,0,0,1-4.83-3.43q.15-.42.33-.84A37.59,37.59,0,0,0,412.75,1052.39Z"/><path class="cls-50" d="M411.2,1058.14c-.05.28-.11.56-.15.85a26.7,26.7,0,0,1-5.29-2.58c.06-.3.12-.59.19-.89A25.74,25.74,0,0,0,411.2,1058.14Z"/><path class="cls-50" d="M410.57,1063.23c0,.29,0,.58-.05.86a24.15,24.15,0,0,1-5.63-.21c0-.28,0-.57,0-.86A22.68,22.68,0,0,0,410.57,1063.23Z"/><path class="cls-50" d="M410.76,1068.85l-5.47,1.31c-.05-.27-.1-.55-.14-.84l5.49-1.31Q410.69,1068.43,410.76,1068.85Z"/><path class="cls-50" d="M412.71,1073.69a27.54,27.54,0,0,1-4.79,3.12c-.17-.23-.33-.45-.48-.7h0a27.13,27.13,0,0,0,4.77-3.11A4.71,4.71,0,0,0,412.71,1073.69Z"/><path class="cls-50" d="M419.17,1073.82q0,3.17-.05,6.33c-.28.09-.57.17-.85.23,0-2,0-4,0-6.05A6.71,6.71,0,0,0,419.17,1073.82Z"/><path class="cls-50" d="M426.18,1074.53c-.17.27-.35.54-.55.8a20.43,20.43,0,0,0-3.47-5.13c.14-.27.27-.55.39-.83A21.1,21.1,0,0,1,426.18,1074.53Z"/><path class="cls-50" d="M429.31,1067.1c-.08.28-.16.56-.25.84a27,27,0,0,0-5.16-2.57c.07-.28.15-.55.22-.83A28.12,28.12,0,0,1,429.31,1067.1Z"/><path class="cls-50" d="M431.24,1059.28c-.07.28-.13.57-.19.85a33.25,33.25,0,0,0-5.36-2.09c.06-.25.11-.49.17-.74a.29.29,0,0,1,0-.09A32.61,32.61,0,0,1,431.24,1059.28Z"/><path class="cls-50" d="M432.79,1051.75c-.06.29-.12.59-.17.89a10.77,10.77,0,0,0-5.45-1.71c.06-.28.11-.56.16-.84A11.61,11.61,0,0,1,432.79,1051.75Z"/><path class="cls-50" d="M433.81,1045.86c-.05.29-.09.58-.14.87a35.15,35.15,0,0,0-5.43-1.86c0-.28.09-.56.13-.84A34.78,34.78,0,0,1,433.81,1045.86Z"/><path class="cls-49" d="M525.88,1049c0,.29,0,.57,0,.86a53.08,53.08,0,0,1-.79,6.28c0,.28-.11.56-.17.84-.32,1.59-.72,3.16-1.19,4.7h0l-.27.82a47,47,0,0,1-2.31,5.82l-.39.8a46.26,46.26,0,0,1-2.28,4.06c-.73,1.16-1.51,2.27-2.33,3.36-.17.22-.34.45-.52.67a48.39,48.39,0,0,1-4.93,5.38l-.64.58a48.59,48.59,0,0,1-6.28,4.78c-.24.16-.49.31-.74.46a47.26,47.26,0,0,1-6.84,3.48l-.34.14-.49.19a42.41,42.41,0,0,1-9.69,2.46l-.85.11a44.59,44.59,0,0,1-8.41.14l-.86-.07a42.82,42.82,0,0,1-6.75-1.21c-.28-.07-.55-.14-.83-.23-.94-.26-1.88-.56-2.8-.9a42.49,42.49,0,0,1-5.26-2.33h0l-.75-.41a41.47,41.47,0,0,1-6.26-4.24l-.69-.58a38.64,38.64,0,0,1-5.1-5.29c-.18-.22-.36-.45-.53-.68a36.33,36.33,0,0,1-3.77-6.18c-.12-.26-.25-.52-.36-.78l-.18-.41a40.16,40.16,0,0,1-2.1-6.21c-.07-.29-.14-.58-.2-.86a39.42,39.42,0,0,1-.92-6.75c0-.3,0-.59,0-.89a37.79,37.79,0,0,1,.33-6.2c0-.28.08-.57.13-.85a35.91,35.91,0,0,1,1.49-6c.09-.27.19-.54.29-.82s.29-.78.45-1.17a2.92,2.92,0,0,1,3.5-2c1.36.37,2.57,2.07,2,3.5-.24.59-.47,1.19-.67,1.79-.1.27-.19.54-.27.82a32.85,32.85,0,0,0-1.21,5.26c0,.28-.08.55-.11.83a34.48,34.48,0,0,0-.21,5.56c0,.29,0,.58.05.86a33.22,33.22,0,0,0,.91,5.69c.07.28.14.56.22.83a32.79,32.79,0,0,0,2,5.29c.13.26.25.51.39.76s.31.6.48.9a31.64,31.64,0,0,0,2.82,4.22c.17.22.35.44.53.65a31.87,31.87,0,0,0,4.86,4.72l.68.53a33.1,33.1,0,0,0,4.29,2.73c.24.14.49.27.75.4a36.77,36.77,0,0,0,6.83,2.66l.84.22a38.62,38.62,0,0,0,5.86,1l.85.08a39.4,39.4,0,0,0,7.6-.18l.86-.11a37.76,37.76,0,0,0,8.33-2.19l.79-.33c.74-.31,1.48-.64,2.2-1a40.93,40.93,0,0,0,3.73-2.12l.71-.47a40.26,40.26,0,0,0,4.88-3.82l.62-.59a41.54,41.54,0,0,0,4.27-4.73l.52-.68a44.28,44.28,0,0,0,3.89-6.3l.39-.78a44.91,44.91,0,0,0,2.13-5.24c.1-.27.18-.54.27-.82q.63-2,1.08-4c.06-.28.12-.57.17-.85q.42-2.09.63-4.2c0-.32.06-.63.08-1s0-.37,0-.55c.31-1.08.64-2.43,1-3.85l.24-1.05c.31-1.39.6-2.81.86-4.11.07-.32.13-.63.19-.93.27-1.38.49-2.56.63-3.29a2.64,2.64,0,0,1,2.21,2l.15,1.06c0,.28.07.57.1.86.12,1,.21,2.11.27,3.17,0,.29,0,.57,0,.85C526,1045.65,526,1047.33,525.88,1049Z"/><path class="cls-50" d="M446.49,1045.18c-.1.27-.19.54-.27.82a21.9,21.9,0,0,1-5.29-2.14c.09-.27.19-.54.29-.82A21,21,0,0,0,446.49,1045.18Z"/><path class="cls-50" d="M445,1051.26c0,.28-.08.55-.11.83a44.68,44.68,0,0,1-5.59-1.37c0-.28.08-.57.13-.85A46.74,46.74,0,0,0,445,1051.26Z"/><path class="cls-50" d="M444.74,1058.51a31.49,31.49,0,0,1-5.73-.7c0-.3,0-.59,0-.89a29.76,29.76,0,0,0,5.71.73C444.71,1057.94,444.72,1058.23,444.74,1058.51Z"/><path class="cls-50" d="M445.87,1065a34.47,34.47,0,0,1-5.74.39c-.07-.29-.14-.58-.2-.86a33.18,33.18,0,0,0,5.72-.36C445.72,1064.48,445.79,1064.76,445.87,1065Z"/><path class="cls-50" d="M448.25,1071.08a37.91,37.91,0,0,1-5.48,1.74c-.12-.26-.25-.52-.36-.78a35.91,35.91,0,0,0,5.45-1.72C448,1070.58,448.11,1070.83,448.25,1071.08Z"/><path class="cls-50" d="M452.08,1076.85a41.06,41.06,0,0,1-5,2.83c-.18-.22-.36-.45-.53-.68a41.61,41.61,0,0,0,5-2.8C451.72,1076.42,451.9,1076.64,452.08,1076.85Z"/><path class="cls-50" d="M457.62,1082.1a21.59,21.59,0,0,1-4.76,3.45l-.69-.58a21,21,0,0,0,4.77-3.4Z"/><path class="cls-50" d="M462.66,1085.23a27.87,27.87,0,0,1-2.79,5h0l-.75-.41a26,26,0,0,0,2.79-5C462.15,1085,462.4,1085.1,462.66,1085.23Z"/><path class="cls-50" d="M470.33,1088.11a19.8,19.8,0,0,1-1.57,5.55c-.28-.07-.55-.14-.83-.23a18.76,18.76,0,0,0,1.56-5.54Z"/><path class="cls-50" d="M477,1089.21a45.91,45.91,0,0,1-.67,5.73l-.86-.07a44.28,44.28,0,0,0,.68-5.74Z"/><path class="cls-50" d="M485.63,1094.69l-.85.11c0-1.93-.09-3.85-.14-5.77l.86-.11C485.54,1090.84,485.59,1092.77,485.63,1094.69Z"/><path class="cls-50" d="M496.15,1091.9l-.34.14-.49.19a15.46,15.46,0,0,0-1.49-5.5l.79-.33A16.17,16.17,0,0,1,496.15,1091.9Z"/><path class="cls-50" d="M503.73,1088c-.24.16-.49.31-.74.46a22.49,22.49,0,0,0-2.44-5.15l.71-.47A23.76,23.76,0,0,1,503.73,1088Z"/><path class="cls-50" d="M510.65,1082.6l-.64.58a22.38,22.38,0,0,0-3.87-4.2l.62-.59A23.18,23.18,0,0,1,510.65,1082.6Z"/><path class="cls-50" d="M516.1,1076.55c-.17.22-.34.45-.52.67a17.45,17.45,0,0,0-4.55-3.56l.52-.68A17.87,17.87,0,0,1,516.1,1076.55Z"/><path class="cls-50" d="M521.1,1068.33l-.39.8a9.61,9.61,0,0,0-5.27-2.45l.39-.78A10.41,10.41,0,0,1,521.1,1068.33Z"/><path class="cls-50" d="M523.68,1061.69h0l-.27.82a16.44,16.44,0,0,0-5.45-1.85c.1-.27.18-.54.27-.82A17.58,17.58,0,0,1,523.68,1061.69Z"/><path class="cls-50" d="M525,1056.15c0,.28-.11.56-.17.84a12.86,12.86,0,0,0-5.56-1.2c.06-.28.12-.57.17-.85A13.63,13.63,0,0,1,525,1056.15Z"/><path class="cls-50" d="M525.88,1049c0,.29,0,.57,0,.86a12.85,12.85,0,0,0-5.72.87c0-.32.06-.63.08-1A13.79,13.79,0,0,1,525.88,1049Z"/><path class="cls-50" d="M525.9,1044a15.54,15.54,0,0,0-4.69,1.43l.24-1.05a16.08,16.08,0,0,1,4.41-1.23C525.88,1043.4,525.89,1043.68,525.9,1044Z"/><path class="cls-50" d="M525.59,1039.94a9.31,9.31,0,0,0-3.28.29c.07-.32.13-.63.19-.93a10,10,0,0,1,3-.22C525.52,1039.36,525.56,1039.65,525.59,1039.94Z"/><ellipse class="cls-32" cx="1367.87" cy="1243.2" rx="176.13" ry="12.54"/><rect class="cls-41" x="1204.91" y="938.68" width="109.52" height="312.82" rx="13.94" transform="translate(-104.9 133.88) rotate(-5.84)"/><polygon class="cls-42" points="1207.54 962.3 1214.47 1023.42 1292.65 1014.26 1285.66 953.95 1207.54 962.3"/><path class="cls-42" d="M1306.94,1228a2.13,2.13,0,0,1-2-1.87l-23.1-188.53a2.14,2.14,0,1,1,4.24-.52l23.1,188.53a2.14,2.14,0,0,1-1.86,2.38A2.08,2.08,0,0,1,1306.94,1228Z"/><path class="cls-42" d="M1286.87,1230.66a2.13,2.13,0,0,1-1.95-1.87l-23.1-188.53a2.14,2.14,0,1,1,4.24-.52l23.1,188.53a2.14,2.14,0,0,1-1.86,2.38A2.08,2.08,0,0,1,1286.87,1230.66Z"/><path class="cls-42" d="M1267.86,1232.56a2.15,2.15,0,0,1-1.95-1.87l-23.1-188.53a2.14,2.14,0,0,1,4.24-.52l23.1,188.53a2.13,2.13,0,0,1-1.86,2.38A2.06,2.06,0,0,1,1267.86,1232.56Z"/><path class="cls-42" d="M1248.86,1234.46a2.15,2.15,0,0,1-2-1.88l-23.1-188.52a2.14,2.14,0,1,1,4.25-.52l23.1,188.53a2.14,2.14,0,0,1-1.86,2.38A3.12,3.12,0,0,1,1248.86,1234.46Z"/><path class="cls-49" d="M1503.64,1233.36s-1.69.75-4.49,1.91l-2.82,1.16c-14.2,5.8-44.42,17.26-48.1,11.49a3.07,3.07,0,0,1-.17-.31c-.39-.89.65-3.15,2.43-6,5.31-8.59,17.24-22.75,17.24-22.75-3.73-8.66-7.15-17.41-10.29-26.15a576.38,576.38,0,0,1-19.28-66.87q-1.85-8.11-3.39-15.85c-4.19-20.83-6.91-39.4-8.65-53.87-2.37-19.63-2.94-31.72-2.94-31.72a23.14,23.14,0,0,1,1.79-11.55c4.28-9.82,15.15-16.34,25.86-20.53,1-.4,2-.78,3.05-1.14a125.72,125.72,0,0,1,23.23-5.7c-1,12.9-2.25,72.56,0,116.09.28,5.3.61,10.36,1,15.06.61,7.36,1.35,13.85,2.27,19.05,2.35,13.22,6.11,30,9.95,45.84.53,2.22,1.07,4.43,1.6,6.6,4.21,17.11,8.25,32.42,10.3,40.08C1503.13,1231.48,1503.64,1233.36,1503.64,1233.36Z"/><path class="cls-53" d="M1499.15,1235.27l-2.82,1.16c-9.3-20.06-16.62-37.79-22.65-54.75-9.71-27.29-16-52.46-19.21-77-3.39-25.79-3.47-52.18-3.54-77.71l-.1-34.71c1-.4,2-.78,3.05-1.14l.1,35.85c.08,25.42.15,51.71,3.51,77.32,3.2,24.28,9.43,49.25,19.06,76.33C1482.57,1197.56,1489.87,1215.24,1499.15,1235.27Z"/><path class="cls-53" d="M1478.13,1116.61a194.33,194.33,0,0,1-40,9.21q-1.85-8.11-3.39-15.85a200.35,200.35,0,0,0,42.36-8.42C1477.41,1106.85,1477.74,1111.91,1478.13,1116.61Z"/><path class="cls-54" d="M1503.64,1233.36s-50.57,22.14-55.41,14.56a3.07,3.07,0,0,1-.17-.31c-.39-.89.65-3.15,2.43-6,5.31-8.59,17.24-22.75,17.24-22.75-3.73-8.66-7.15-17.41-10.29-26.15a177.81,177.81,0,0,0,32.91-11.19c.53,2.22,1.07,4.43,1.6,6.6,4.21,17.11,8.25,32.42,10.3,40.08C1503.13,1231.48,1503.64,1233.36,1503.64,1233.36Z"/><g class="cls-55"><path class="cls-56" d="M1503.33,1233.34s-50.58,22.14-55.42,14.56a1.82,1.82,0,0,1-.16-.31c-.39-.9.64-3.15,2.42-6a19.69,19.69,0,0,1,1.74-1.17c3.43-2.07,7.32-3.24,10.91-5s7-4.37,8.48-8.11.68-8.43,3.14-11.67c2.07-2.71,5.76-3.54,8.46-5.62,3.67-2.83,5.12-7.64,6.08-12.17a47.21,47.21,0,0,1,2.66-9.74c4.2,17.1,8.24,32.42,10.29,40.08C1502.81,1231.46,1503.33,1233.34,1503.33,1233.34Z"/></g><path class="cls-53" d="M1503.64,1233.36s-50.57,22.14-55.41,14.56a252,252,0,0,0,31.33-11.68c-3.1-2.87-5-7.27-4.13-11.39s5.29-7.46,9.39-6.46a9.26,9.26,0,0,1,5.93,5.61,27.53,27.53,0,0,1,1.61,8.27,102.57,102.57,0,0,1,9.89-4.09C1503.13,1231.48,1503.64,1233.36,1503.64,1233.36Z"/><path class="cls-49" d="M1415.72,1234c.22,3.43.37,5.38.37,5.38s-4.42.42-12.19,1.07l-3.05.25c-5,.4-11,.88-17.89,1.39-20.33,1.51-27.86.33-28.86-3.06a2,2,0,0,1,0-1,6.48,6.48,0,0,1,1.88-2.9c6.42-6.6,26.74-15.84,26.74-15.84q-2.81-13-4.62-25.67a412.13,412.13,0,0,1-4-70.48c.16-5.78.43-11.42.79-16.88,3.78-57.3,17.59-96,17.59-96l43.57,3.38s-4.74,19-9.87,42.41c-3.92,17.84-8.08,38.24-10.54,54.67-.42,2.76-.79,5.41-1.1,7.92s-.6,5.52-.82,8.59c-1.28,17.64-1,41.58-.2,62.81l.12,3C1414.25,1210.8,1415.2,1226.24,1415.72,1234Z"/><path class="cls-53" d="M1403.9,1240.48l-3.05.25a487.47,487.47,0,0,1,12.37-228.81l3.11.24a484.67,484.67,0,0,0-12.43,228.32Z"/><path class="cls-53" d="M1415.58,1110.77c-.42,2.76-.79,5.41-1.1,7.92s-.6,5.52-.82,8.59a198.36,198.36,0,0,1-39.62-4.08c.16-5.78.43-11.42.79-16.88A198.58,198.58,0,0,0,1415.58,1110.77Z"/><path class="cls-54" d="M1416.09,1239.41s-12.8,1.21-33.13,2.71-27.86.33-28.86-3.06a2,2,0,0,1,0-1,6.48,6.48,0,0,1,1.88-2.9c6.42-6.6,26.74-15.84,26.74-15.84q-2.81-13-4.62-25.67a122.28,122.28,0,0,0,35.39-3.59l.12,3c.67,17.67,1.62,33.11,2.14,40.9C1415.94,1237.46,1416.09,1239.41,1416.09,1239.41Z"/><g class="cls-57"><path class="cls-58" d="M1416.09,1239.41s-12.8,1.21-33.13,2.71-27.86.33-28.86-3.06a2,2,0,0,1,0-1,6.48,6.48,0,0,1,1.88-2.9c.38,0,.76,0,1.14,0,5.3.24,10.66.32,15.86-.83,6-1.33,11.86-4.51,15.06-9.76,1.63-2.67,2.61-5.89,5.09-7.78,1.86-1.42,4.27-1.87,6.28-3,3-1.73,4.84-4.86,6.23-8s2.48-6.48,4.47-9.28a12.91,12.91,0,0,1,3.5-3.37c.67,17.67,1.62,33.11,2.14,40.9C1415.94,1237.46,1416.09,1239.41,1416.09,1239.41Z"/></g><path class="cls-53" d="M1416.09,1239.41s-12.8,1.21-33.13,2.71-27.86.33-28.86-3.06a2,2,0,0,1,0-1,82.12,82.12,0,0,0,10.63.67,166.34,166.34,0,0,0,17.13-1.21l11-1.17a18.22,18.22,0,0,1-1.27-6.38c.08-3.57-.31-3.31,1.86-6.4a6.84,6.84,0,0,1,5.71-3c3,.14,5.44,2.76,6.34,5.63s.61,6,.31,9c2.71-.42,5.48-.45,8.19-.87l1.75-.25C1415.94,1237.46,1416.09,1239.41,1416.09,1239.41Z"/><path class="cls-49" d="M1410.88,913.71q-1.67,7.71-3.64,15.34-2.77,10.66-6.16,21.18c-2.29,7-4.9,14.24-9.81,19.8a31.2,31.2,0,0,1-2.64,2.63,40.91,40.91,0,0,1-12.54,7.33,74.85,74.85,0,0,1-10,3c-16,3.72-33,2.7-49-.44l-.09-11.73q0-4.3-.07-8.61a136.13,136.13,0,0,0,46.05-3.91c1.29-.34,2.61-.72,3.89-1.17,3.14-1.1,6.08-2.67,8-5.29l.2-.28c1.91-2.72,2.55-6.13,3.29-9.39a117.21,117.21,0,0,1,19.92-43.69c2-2.74,5.27-4.72,8.32-3.2s4.83,4.9,5.28,8.27S1411.6,910.37,1410.88,913.71Z"/><path class="cls-54" d="M1298.25,955.2l-5.51-3.59c-.88-.57-1.86-1.31-1.89-2.36a2.25,2.25,0,0,1,2-2.07,6.58,6.58,0,0,1,3.06.44,34.06,34.06,0,0,1,5.82,2.22,11.18,11.18,0,0,1,4.54,4.16c2,3.52,1.3,8.26,3.83,11.42a85.53,85.53,0,0,0,1.17,15.23c-3.41-.37-7.09-.7-10.5-1.07C1301.14,971.51,1301,962.8,1298.25,955.2Z"/><path class="cls-53" d="M1316.93,962.05c.25-.59.41-2.4-7.28-2.37a1.45,1.45,0,0,0-1.42,1.16c-.66,3.34-2.29,13.35-.07,21.29a1.45,1.45,0,0,0,1.13,1c2.18.41,7.71,1.26,7.7-.59l-.16-20A1.45,1.45,0,0,1,1316.93,962.05Z"/><path class="cls-53" d="M1388.63,972.66a40.91,40.91,0,0,1-12.54,7.33,71.6,71.6,0,0,0-9.32-22.83c3.14-1.1,6.08-2.67,8-5.29l.2-.28C1381,957.35,1385,965,1388.63,972.66Z"/><g class="cls-59"><path class="cls-60" d="M1407.24,929.05q-2.77,10.66-6.16,21.18c-2.29,7-4.9,14.24-9.81,19.8a31.2,31.2,0,0,1-2.64,2.63,40.91,40.91,0,0,1-12.54,7.33,74.85,74.85,0,0,1-10,3c-16,3.72-33,2.7-49-.44l-.09-11.73c2.51,3.49,4.17,6.53,8.63,8.53,6.57,3,14.11,2.64,21.27,1.83s14.1-2,20.53-4.94c9.94-4.53,17.74-12.92,23.4-22.26s9.39-19.71,13.09-30C1405,925.66,1406.13,927.34,1407.24,929.05Z"/></g><path class="cls-49" d="M1470.63,1002.57c-4,3-8.6,5-13.26,6.82l-2.39.92c-10.86,4.16-20.94,9.9-31.8,14.07-9.06-6.34-20.19-10.85-30.76-14.07-2.47-37.78-4.81-76.64,6.9-112.64,2.08.17,4.15.25,6.23.24a78.57,78.57,0,0,0,35.68-9c.4-.2.79-.42,1.18-.63,3.12-1.69,6.39-3.45,9.94-3.28,1.65.08,4.7,1.18,7.85,2.7,4.17,2,8.52,4.79,10,6.92,7.67,11,1.57,22.54,6,35.15.89,2.54,1.79,5.1,2.65,7.66,2.67,8,5,16.07,5.94,24.35.22,2,.36,4,.41,6C1485.51,980.82,1481.05,994.68,1470.63,1002.57Z"/><path class="cls-53" d="M1484.81,961.81c-6.26-.21-25.54-3.52-27.42-1.58-1.71,1.77,0,36,0,49.16l-2.39.92c-10.86,4.16-20.94,9.9-31.8,14.07-9.06-6.34-20.19-10.85-30.76-14.07-2.47-37.78-4.81-76.64,6.9-112.64,2.08.17,4.15.25,6.23.24-6.33,22-4.2,63.17-4.2,63.17l42.07-1.93s1.42-21.31.19-33.95c-.94-9.72-2-28.22-2.38-36.26.4-.2.79-.42,1.18-.63,3.12-1.69,6.39-3.45,9.94-3.28,1.65.08,4.7,1.18,7.85,2.7-17.39,5.9-4.63,43.46-4.63,43.46l23.3,6.27c.54,1.63,1.08,3.27,1.59,4.91l-20.7-2.31-1,13,25.14,2.72C1484.27,957.76,1484.58,959.77,1484.81,961.81Z"/><path class="cls-61" d="M1410.8,968c0,.29-.07.6-.11.91a65.39,65.39,0,0,1-1.33,7c-.07.29-.14.59-.22.9-.35,1.32-.75,2.71-1.22,4.16-.23.72-.48,1.41-.76,2.08l-.36.86a34.71,34.71,0,0,1-3.18,5.6c-.18.25-.35.5-.54.75a68,68,0,0,1-4.57,5.57l-.62.69c-1.57,1.72-3.17,3.44-4.73,5.23-.2.24-.41.47-.61.72q-1.47,1.71-2.83,3.55a14.89,14.89,0,0,0-1,1.64c-.15.26-.29.53-.42.8a13.68,13.68,0,0,0-1.17,7.95c.05.31.1.61.16.9a15.67,15.67,0,0,0,1.28,3.72,7,7,0,0,0,.38.68l-.06.19-2.3,8.68a30.16,30.16,0,0,1-3.73-6c-.13-.28-.25-.56-.37-.84a21.42,21.42,0,0,1-1.52-5.82c0-.3-.06-.6-.08-.91a22.69,22.69,0,0,1,2.18-11c.12-.28.25-.55.39-.83a38.85,38.85,0,0,1,3.9-6.26l.56-.73a67.6,67.6,0,0,1,5.13-5.8l.64-.65c.66-.65,1.32-1.29,2-1.92a24.89,24.89,0,0,0,2.7-3c.19-.25.38-.5.55-.75a25.68,25.68,0,0,0,2.51-4.4l.36-.85a30.3,30.3,0,0,0,1.68-5.74c0-.31.11-.61.16-.91a36.08,36.08,0,0,0,.44-5.9c0-.32,0-.62,0-.92a27,27,0,0,0-.39-4.12c2-3.57,7.46-.28,7.46-.28A38.53,38.53,0,0,1,1410.8,968Z"/><path class="cls-61" d="M1478.93,1030.41h0c-.07.36-.15.72-.23,1.06a17.3,17.3,0,0,1-2.84,6c0-.38,0-.76,0-1.13a21.5,21.5,0,0,0-.67-4c-.08-.29-.17-.59-.26-.88a22.42,22.42,0,0,0-2.25-4.92c-.16-.26-.33-.53-.51-.79a32,32,0,0,0-4.26-5.14c-.22-.23-.46-.46-.69-.68-1.09-1-2.27-2.05-3.56-3.06l-.72-.57c-1.47-1.13-3.07-2.25-4.78-3.36l-.81-.53q-3.54-2.27-7.72-4.53l-.82-.45c-2.9-1.56-6-3.13-9.35-4.74l-.16-.08c-.33-.16-.65-.33-1-.5a26.41,26.41,0,0,1-6.44-4.94c-.22-.24-.44-.47-.65-.71a31.29,31.29,0,0,1-4.36-6.37c-.15-.28-.29-.56-.43-.84a43,43,0,0,1-2.55-6.53l-.27-.9a55.52,55.52,0,0,1-1.38-6.32c0-.31-.1-.62-.14-.92-.34-2.32-.52-4.45-.62-6.26,0-.32,0-.64,0-.94-.11-3,0-5,0-5,3.4-4.09,7.12-.35,7.12-.35.08,2,.19,3.82.36,5.56,0,.3,0,.6.08.9.21,2,.47,3.79.79,5.49,0,.3.11.6.17.9a43.89,43.89,0,0,0,1.58,5.74c.1.29.21.58.32.86a29.35,29.35,0,0,0,2.66,5.32c.16.26.34.52.51.78a28.42,28.42,0,0,0,4.08,4.72l.71.64a46.71,46.71,0,0,0,5.82,4.31l.83.52c2.1,1.3,4.38,2.59,6.84,4l.81.44c2.72,1.5,5.66,3.1,8.81,4.91l.8.47,1.46.85c1,.6,2,1.2,2.83,1.8l.75.53a33.79,33.79,0,0,1,5.18,4.52c.21.23.41.45.6.68a19.47,19.47,0,0,1,4,6.92h0c.09.31.18.61.25.91A15.53,15.53,0,0,1,1478.93,1030.41Z"/><path class="cls-33" d="M1410.8,968c0,.29-.07.6-.11.91a17.6,17.6,0,0,0-6.65-.71c0-.32,0-.62,0-.92A18.29,18.29,0,0,1,1410.8,968Z"/><path class="cls-33" d="M1409.36,975.92c-.07.29-.14.59-.22.9a16.63,16.63,0,0,0-5.7-1.79c0-.31.11-.61.16-.91A17.42,17.42,0,0,1,1409.36,975.92Z"/><path class="cls-33" d="M1407.16,983.06l-.36.86a32.1,32.1,0,0,0-5.4-2.3l.36-.85A33.27,33.27,0,0,1,1407.16,983.06Z"/><path class="cls-33" d="M1403.62,989.52c-.18.25-.35.5-.54.75a20.77,20.77,0,0,1-4.74-3.5c.19-.25.38-.5.55-.75A20.28,20.28,0,0,0,1403.62,989.52Z"/><path class="cls-33" d="M1398.51,995.84l-.62.69a30.56,30.56,0,0,1-4.88-4.2l.64-.65A30.61,30.61,0,0,0,1398.51,995.84Z"/><path class="cls-33" d="M1393.16,1001.76c-.2.24-.41.47-.61.72a23.26,23.26,0,0,1-5.23-3.62l.56-.73A22.44,22.44,0,0,0,1393.16,1001.76Z"/><path class="cls-33" d="M1388.68,1007.67c-.15.26-.29.53-.42.8A30,30,0,0,1,1383,1006c.12-.28.25-.55.39-.83A30.38,30.38,0,0,0,1388.68,1007.67Z"/><path class="cls-33" d="M1387.25,1017.32a22,22,0,0,1-6.32.56c0-.3-.06-.6-.08-.91a21.15,21.15,0,0,0,6.24-.55C1387.14,1016.73,1387.19,1017,1387.25,1017.32Z"/><path class="cls-33" d="M1388.91,1021.72l-.06.19a29.63,29.63,0,0,1-6,2.63c-.13-.28-.25-.56-.37-.84.29-.08.57-.17.86-.27a28.32,28.32,0,0,0,5.22-2.39A7,7,0,0,0,1388.91,1021.72Z"/><path class="cls-33" d="M1429,968.56a22.27,22.27,0,0,1-7.55-.21c0-.32,0-.64,0-.94a21.3,21.3,0,0,0,7.51.25C1429,968,1429,968.26,1429,968.56Z"/><path class="cls-33" d="M1430,975a36,36,0,0,1-7.75.58c0-.31-.1-.62-.14-.92.53,0,1.06,0,1.6,0a34,34,0,0,0,6.12-.59C1429.85,974.35,1429.91,974.65,1430,975Z"/><path class="cls-33" d="M1431.87,981.55a47.12,47.12,0,0,1-8,1.2l-.27-.9a47.33,47.33,0,0,0,8-1.16C1431.65,981,1431.76,981.27,1431.87,981.55Z"/><path class="cls-33" d="M1435,987.65a53.25,53.25,0,0,1-8.19,2.47c-.15-.28-.29-.56-.43-.84l1.35-.3a52.93,52.93,0,0,0,6.76-2.11C1434.69,987.13,1434.87,987.39,1435,987.65Z"/><path class="cls-33" d="M1439.83,993a82.84,82.84,0,0,1-8,4.19c-.22-.24-.44-.47-.65-.71l1.31-.6q3.38-1.62,6.6-3.52Z"/><path class="cls-33" d="M1446.48,997.84a64.48,64.48,0,0,1-7.21,4.8c-.33-.16-.65-.33-1-.5.46-.25.9-.51,1.35-.77a65.65,65.65,0,0,0,6-4Z"/><path class="cls-33" d="M1454.13,1002.24q-2.13,2.94-4.53,5.67l-.82-.45c1.6-1.81,3.12-3.7,4.54-5.66Z"/><path class="cls-33" d="M1463.74,1007.62a30.91,30.91,0,0,1-5.61,5.35l-.81-.53a30.64,30.64,0,0,0,5.62-5.29Z"/><path class="cls-33" d="M1468.78,1010.8l-5.15,6.1-.72-.57,5.12-6.06Z"/><path class="cls-33" d="M1474.56,1016a28,28,0,0,1-6.68,4.64c-.22-.23-.46-.46-.69-.68a27.51,27.51,0,0,0,6.77-4.64C1474.17,1015.55,1474.37,1015.77,1474.56,1016Z"/><path class="cls-33" d="M1478.76,1023.83a34.16,34.16,0,0,1-6.11,2.74c-.16-.26-.33-.53-.51-.79a32.24,32.24,0,0,0,6.37-2.86C1478.6,1023.23,1478.69,1023.53,1478.76,1023.83Z"/><path class="cls-33" d="M1478.93,1030.42c-.07.36-.15.72-.23,1.06a18.73,18.73,0,0,1-3.54.89c-.08-.29-.17-.59-.26-.88A19.32,19.32,0,0,0,1478.93,1030.42Z"/><path class="cls-34" d="M1434.9,925s8.22-.92,9.75.76c2.81,3.09,3.45,33.26,1.53,34.71s-53.16,3.1-54.87,3.07a4.85,4.85,0,0,1-4.28-4c-.29-2.31.66-25.84.79-27.44S1434.9,925,1434.9,925Z"/><rect class="cls-61" x="1386.04" y="926.22" width="53.12" height="34.24" rx="10.91" transform="translate(-47.81 75.85) rotate(-3.02)"/><path class="cls-34" d="M1429.09,937.68a2.37,2.37,0,0,1-1.51.68c-1.52.08-2.83-1.44-2.94-3.4s1-3.61,2.57-3.68a2.27,2.27,0,0,1,.94.15,3.64,3.64,0,0,1,2,3.24A3.93,3.93,0,0,1,1429.09,937.68Z"/><path class="cls-33" d="M1429.09,937.68a3.64,3.64,0,0,1-2-3.24,4,4,0,0,1,1.05-3,3.64,3.64,0,0,1,2,3.24A3.93,3.93,0,0,1,1429.09,937.68Z"/><path class="cls-34" d="M1412.89,952.54a1.5,1.5,0,0,1-1.46,1.54l-16.57.43-2.07.06a1.51,1.51,0,0,1-1.55-1.47l0-1.51a1.51,1.51,0,0,1,1.45-1.54l2-.07,16.67-.62a1.51,1.51,0,0,1,1.57,1.47Z"/><path class="cls-33" d="M1412.89,952.54a1.5,1.5,0,0,1-1.46,1.54l-16.57.43a1.71,1.71,0,0,1-.82-1.42l0-1.74a1.7,1.7,0,0,1,.62-1.37l16.67-.62a1.51,1.51,0,0,1,1.57,1.47Z"/><path class="cls-62" d="M1387.76,873.5a3.6,3.6,0,0,0-2.51-1.42l-9.35-.72-.78,10.06,9.35.72a3.57,3.57,0,0,0,2.7-1,5.93,5.93,0,0,0,.59-7.63Z"/><path class="cls-63" d="M1379.51,876.7a5.71,5.71,0,0,1-1.69,3.71,3.6,3.6,0,0,1-2.7,1c-2.21-.17-3.83-2.56-3.61-5.34s2.18-4.89,4.39-4.72a3.55,3.55,0,0,1,2.51,1.41A5.71,5.71,0,0,1,1379.51,876.7Z"/><path class="cls-61" d="M1379.51,876.7a5.71,5.71,0,0,1-1.69,3.71,3,3,0,0,1-.89.07c-1.82-.14-3.16-2-3-4.22s1.78-3.84,3.6-3.7a3.16,3.16,0,0,1,.87.21A5.71,5.71,0,0,1,1379.51,876.7Z"/><path class="cls-61" d="M1453.49,879.79h0c-.16.39-.33.79-.52,1.21-.32.71-.69,1.46-1.13,2.26a23.66,23.66,0,0,1-1.68,2.65c-.2.28-.41.55-.62.83a29.51,29.51,0,0,1-3.21,3.42l-.7.61a36,36,0,0,1-5.6,4l-.78.44A48.31,48.31,0,0,1,1433,898l-.84.3a55.34,55.34,0,0,1-7.07,2l-.88.19a57.64,57.64,0,0,1-7.31,1h0l-.94,0a49.85,49.85,0,0,1-7.37-.18c-.32,0-.65-.07-1-.12l-1.08-.14a21.28,21.28,0,0,1-5.28-1.42,11.49,11.49,0,0,1-1.11-.53c-7.06-3.89-2.19-11.06-2.19-11.06l1.32.31.9.2c1.84.4,3.6.71,5.29.95l.92.13a57.39,57.39,0,0,0,6.64.5h.9a43.5,43.5,0,0,0,6.26-.44l.92-.14a33.45,33.45,0,0,0,6.38-1.7l.84-.33a29.39,29.39,0,0,0,4.88-2.56c.26-.16.5-.33.75-.51a30,30,0,0,0,4.29-3.63l.63-.67a42,42,0,0,0,2.76-3.32h0c.2-.26.39-.5.56-.75,1.32-1.79,2.25-3.17,3-3.66a8.28,8.28,0,0,1,1.43-.68c.33-.12.68-.23,1-.33C1451.62,870.47,1456.76,871.52,1453.49,879.79Z"/><path class="cls-33" d="M1401.28,899.67a11.49,11.49,0,0,1-1.11-.53,26.21,26.21,0,0,1-.87-10.75l.9.2A25.11,25.11,0,0,0,1401.28,899.67Z"/><path class="cls-33" d="M1408.61,901.35c-.32,0-.65-.07-1-.12a52.77,52.77,0,0,1-2.15-11.69l.92.13A51,51,0,0,0,1408.61,901.35Z"/><path class="cls-33" d="M1416.92,901.48l-.94,0a48.09,48.09,0,0,1-2.93-11.36h.9c0,.17,0,.34.07.52A47.24,47.24,0,0,0,1416.92,901.48Z"/><path class="cls-33" d="M1425.11,900.33l-.88.19a74.32,74.32,0,0,0-4-10.78l.92-.14A75.61,75.61,0,0,1,1425.11,900.33Z"/><path class="cls-33" d="M1433,898l-.84.3a45.84,45.84,0,0,0-4.67-10.43l.84-.33c.2.33.39.66.58,1A45.7,45.7,0,0,1,1433,898Z"/><path class="cls-33" d="M1440,894.73l-.78.44a36.92,36.92,0,0,0-6-10.16c.26-.16.5-.33.75-.51A38.32,38.32,0,0,1,1440,894.73Z"/><path class="cls-33" d="M1446.33,890.17l-.7.61c-.13-.29-.28-.58-.43-.87a31.7,31.7,0,0,0-6.93-9l.63-.67c.26.23.5.46.75.7A33,33,0,0,1,1446.33,890.17Z"/><path class="cls-33" d="M1450.16,885.92c-.2.28-.41.55-.62.83a21.92,21.92,0,0,0-7.88-9.87h0c.2-.26.39-.5.56-.75.13.08.25.17.37.26A22.82,22.82,0,0,1,1450.16,885.92Z"/><path class="cls-33" d="M1453.49,879.79h0c-.16.39-.33.79-.52,1.21l0,0a19.69,19.69,0,0,0-6.27-9.17c.33-.12.68-.23,1-.33A21,21,0,0,1,1453.49,879.79Z"/><circle class="cls-49" cx="1415.6" cy="851.65" r="42.07" transform="translate(-187.59 1250.42) rotate(-45)"/><path class="cls-64" d="M1454.33,838.81a.92.92,0,0,1-.85-.94l.66-24.78a.92.92,0,0,1,1.84,0l-.66,24.78a.92.92,0,0,1-.94.89Z"/><path class="cls-63" d="M1458.23,853.13a28.48,28.48,0,0,0-.4-5.3,28.82,28.82,0,0,0-1.35-5.13l-1.18-7-4.5.76c-2.75.46-4,6.31-2.92,13.07s4.28,11.87,7,11.41l4.5-.76Z"/><ellipse class="cls-49" cx="1457.35" cy="847.91" rx="5.04" ry="12.41" transform="translate(-120.24 252.91) rotate(-9.53)"/><path class="cls-63" d="M1458.81,855.54a1.4,1.4,0,0,1-.7-.06c-1.62-.51-3.28-3.57-3.94-7.46-.57-3.39-.2-6.43.8-7.83a1.74,1.74,0,0,1,1.13-.79c1.81-.31,3.88,3.06,4.63,7.52S1460.62,855.24,1458.81,855.54Z"/><path class="cls-62" d="M1458.11,855.48c-1.62-.51-3.28-3.57-3.94-7.46-.57-3.39-.2-6.43.8-7.83,1.62.51,3.28,3.57,3.94,7.46C1459.47,851,1459.11,854.09,1458.11,855.48Z"/><ellipse class="cls-53" cx="1410.16" cy="854.71" rx="38.6" ry="36.88" transform="translate(449 2194.57) rotate(-85.57)"/><path class="cls-25" d="M1442.25,858.71c-1.59,20.42-18.31,35.78-37.36,34.3s-33.21-19.22-31.62-39.65a38.9,38.9,0,0,1,6.81-19.27c6.92-9.92,18.24-16,30.54-15a32.23,32.23,0,0,1,8.92,2C1433.89,826.42,1443.57,841.63,1442.25,858.71Z"/><path class="cls-38" d="M1442.25,858.71c-1.59,20.42-18.31,35.78-37.36,34.3s-33.21-19.22-31.62-39.65a38.9,38.9,0,0,1,6.81-19.27,4.83,4.83,0,0,1,.88,2.22,7.4,7.4,0,0,1-.1,3l-3.27,14.2a8.46,8.46,0,0,0-.1,4.18,1.7,1.7,0,0,0,1.7,1.34,3.2,3.2,0,0,1,3.06,2.12,1.46,1.46,0,0,0,.07.19c.38,1,.84,2,1.18,3.1.86,2.58,1.87,5.24,4.26,6.82a5,5,0,0,0,4,.75c3.66-1,4-5.73,2.77-9.07-1.21-3.15-3.39-6.05-3.5-9.43a8,8,0,0,1,14-5.47c2.09,2.43,2.52,5.8,3.11,9s1.61,6.54,4.32,8.25c3.19,2,7.48.83,10.66-1.22a22.59,22.59,0,0,0,.37-37.69c-1.34-.9-2.81-1.69-3.63-3.17a3.14,3.14,0,0,1-.35-2.12C1433.89,826.42,1443.57,841.63,1442.25,858.71Z"/><path class="cls-62" d="M1459.43,871.79a3.59,3.59,0,0,0-2.51-1.41l-9.35-.72-.78,10.06,9.35.72a3.55,3.55,0,0,0,2.7-1,5.94,5.94,0,0,0,.59-7.64Z"/><path class="cls-63" d="M1451.18,875a5.61,5.61,0,0,1-1.69,3.71,3.56,3.56,0,0,1-2.7,1c-2.21-.18-3.83-2.57-3.61-5.35s2.18-4.89,4.39-4.71a3.52,3.52,0,0,1,2.51,1.41A5.65,5.65,0,0,1,1451.18,875Z"/><path class="cls-61" d="M1451.18,875a5.61,5.61,0,0,1-1.69,3.71,2.64,2.64,0,0,1-.89.08c-1.82-.14-3.16-2-3-4.22s1.78-3.84,3.61-3.7a3.1,3.1,0,0,1,.86.21A5.65,5.65,0,0,1,1451.18,875Z"/><path class="cls-49" d="M1503.48,972.33a85.89,85.89,0,0,1-7.92,22.36c-6.53,12.8-15.5,24.16-24.42,35.42-3.61-3-7.15-6-10.7-8.95q-4.29-3.6-8.63-7.22c11-10.92,22.69-26.46,25.51-41.64a32,32,0,0,0-.44-14.67,27.54,27.54,0,0,0-1.66-4.42q-7.58-15.84-13.59-32.36-2.19-6-4.17-12.11c-1.1-3.39-2.16-6.92-1.73-10.45s2.75-7.1,6.24-7.84a7.13,7.13,0,0,1,2.8,0,15,15,0,0,1,6.49,3.5,62.88,62.88,0,0,1,10,10.94c2.15,2.88,4.14,5.89,6.08,8.9,7.78,12.12,15.11,25.06,16.89,39.35.12,1,.22,2,.28,2.93A61.75,61.75,0,0,1,1503.48,972.33Z"/><path class="cls-53" d="M1481.31,904.88a17.23,17.23,0,0,0-1.9.37,25.85,25.85,0,0,0-13.78,9.19,34.23,34.23,0,0,0-4,6.41q-2.19-6-4.17-12.11c-1.1-3.39-2.16-6.92-1.73-10.45s2.75-7.1,6.24-7.84,6.65,1.29,9.29,3.49A62.88,62.88,0,0,1,1481.31,904.88Z"/><path class="cls-53" d="M1503.48,972.33c-2-.34-3.91-.63-5.81-.87a62.11,62.11,0,0,0-20.35.84,32,32,0,0,0-.44-14.67,63.63,63.63,0,0,1,19.19-2.74,40.09,40.09,0,0,1,8.49,1.17A61.75,61.75,0,0,1,1503.48,972.33Z"/><path class="cls-54" d="M1463.91,1037.8a42.16,42.16,0,0,1-5.11,8.13,21.22,21.22,0,0,1-9.33,6.19l-1,.29a2.35,2.35,0,0,1-1.61,0c-.49-.25-.7-1.26-.26-1.59a11.33,11.33,0,0,1-3.9,1.66,3.25,3.25,0,0,1-1.83,0,1.67,1.67,0,0,1-.86-1.69,11.93,11.93,0,0,1-7.47,1.45,1.22,1.22,0,0,1-.69-.26,1,1,0,0,1,.08-1l-3.71.57a7.09,7.09,0,0,1-2,.12,2.42,2.42,0,0,1-1.69-.87,2.57,2.57,0,0,1,.52-3.22,9.28,9.28,0,0,1,3.08-1.71,25,25,0,0,0,10.46-8.45,3.48,3.48,0,0,0,.58-1.07,1.34,1.34,0,0,0-.19-1.17c-.46-.56-1.38-.54-2.1-.51a48.29,48.29,0,0,1-7.32-.25,5.62,5.62,0,0,1-1.83-.42,2.1,2.1,0,0,1-1.2-1.37,2.45,2.45,0,0,1,1.61-2.45c2.09-1,4.57-.47,6.88-.73a13.21,13.21,0,0,0,5.71-2.28c.51-.35,1-.72,1.48-1.1,1.14-.9,2.2-1.9,3.26-2.89a19.78,19.78,0,0,1,7.61,4.64c2.19,2,4.15,4.3,6.36,6.3A36.47,36.47,0,0,0,1463.91,1037.8Z"/><g class="cls-65"><path class="cls-66" d="M1463.91,1037.8a42.16,42.16,0,0,1-5.11,8.13,21.22,21.22,0,0,1-9.33,6.19h0a24.12,24.12,0,0,0,6.36-6.3,7.91,7.91,0,0,0,1.73-4.89c-.14-1.89-1.39-3.5-2.68-4.89a43.51,43.51,0,0,0-10.64-8.4,5.15,5.15,0,0,1-2-1.56c1.14-.9,2.2-1.9,3.26-2.89a19.78,19.78,0,0,1,7.61,4.64c2.19,2,4.15,4.3,6.36,6.3A36.47,36.47,0,0,0,1463.91,1037.8Z"/></g><g class="cls-67"><path class="cls-68" d="M1460.55,1016.25a13.29,13.29,0,0,0-.11,4.91q-4.29-3.6-8.63-7.22c11-10.92,22.69-26.46,25.51-41.64a32,32,0,0,0-.44-14.67,27.54,27.54,0,0,0-1.66-4.42q-7.58-15.84-13.59-32.36-2.19-6-4.17-12.11c-1.1-3.39-2.16-6.92-1.73-10.45s2.75-7.1,6.24-7.84a7.13,7.13,0,0,1,2.8,0c-4.45,5.58-3.71,13.65-1,20.33q5.68,13.79,11.35,27.58c3.86,9.4,7.79,19.13,7.55,29.28-.35,14.37-8.9,27.08-17.12,38.86C1463.48,1009.52,1461.33,1012.65,1460.55,1016.25Z"/></g><path class="cls-53" d="M1451.81,1013.94s-.94-.68-3.55,2.65-5,5.79-3.68,7,16.94,15.43,19.43,16.22,8.46-8.56,7.13-9.67Z"/><ellipse class="cls-69" cx="1615.65" cy="817.41" rx="94.77" ry="108.25" transform="translate(-120.2 1332.51) rotate(-43.36)"/><circle class="cls-23" cx="1600.03" cy="830.76" r="66.63" transform="translate(-201.34 903.76) rotate(-29.76)"/><g class="cls-70"><path class="cls-71" d="M1545.15,802.72c.08-1,.12-1.45.23-2.42l.83-.47c.18.36.28.53.48.89l.78-1.38a4.53,4.53,0,0,1-.25,1.46c-.11.18-.47.81-.81,1.4l-.65,1.13-.73.07C1545.07,803.13,1545.1,803,1545.15,802.72Z"/><path class="cls-72" d="M1639.22,771.44a2.66,2.66,0,0,1-.94-.32l-.32-.23a2.63,2.63,0,0,1,.79.13l1,.34a1.29,1.29,0,0,1,.36.22c.19.17-.57-.09-.57-.09Z"/><path class="cls-72" d="M1670.47,802.49c-.19.09-.52.48-.94.22a2.52,2.52,0,0,0-.74-.31s-1.23.34-1-.3.64-.64.64-1a1,1,0,0,1,.37-.83c.27-.23,1.44-.45,1.26-1a5.1,5.1,0,0,1-.21-.81s-.23,0-.33-.53-.78-.65-.7-1a.68.68,0,0,0-.15-.72c-.13-.11-1.28-.81-1.28-.81l-.58-.31s-.92-.38-.94-.71a3,3,0,0,0,0-.78c-.08-.4.18-.64-.57-.85a12.28,12.28,0,0,1-2.07-.65c-.07-.11-.68-.23-.71-.83a1.83,1.83,0,0,0-.22-.86,7.34,7.34,0,0,0-1.1-.6c-.62-.28-.35-.24-1.23-.64s-1.56-.64-2-.9a5.34,5.34,0,0,1-1-.59c-.11-.14-.74-.74-.74-.74l-.39-.39a1,1,0,0,1,.85.22,5.3,5.3,0,0,0,1.32.87c.49.22,1,.39,1.4.58s1,.35,1.52.64a5,5,0,0,0,1.09.37,4.82,4.82,0,0,1,1.1.44c.22.17,1,.3.55.32a5,5,0,0,1-1.32-.29c-.22-.05-.68-.55-.22-.05a11.74,11.74,0,0,0,1.35,1.05c.52.38,1,.69,1,.69l.67,0s1,.21.63.35a.91.91,0,0,1-.69-.06,1.15,1.15,0,0,0,.41.54c.35.27-.48.12.35.27a5.92,5.92,0,0,0,1.46.09.92.92,0,0,0,.54-.72c.15-.62-.16-1.38,0-1.48l.79-.48s.81.34.43.74-.36.28-.22.68.45.44.25.94a1.16,1.16,0,0,0-.1.77l.2.25c.15.18.39-.1.15.18s-.36.06-.81.38,0,.19-.44.32-.36.22-.25.33a9.45,9.45,0,0,0,1.22.64,11.59,11.59,0,0,1,1.13.58,6.59,6.59,0,0,1,1.07.58c.31.27,1.18,1.13,1.18,1.13s0,.1.4.42a6.88,6.88,0,0,1,.78.67s.7-.11-.1.32-.46.31-.8.42-.54.08-.85.36a1,1,0,0,0-.38.77c0,.21.19.65-.2.91s-.63.45-.62.58A5,5,0,0,1,1670.47,802.49Z"/><path class="cls-72" d="M1669.84,814.32a11.62,11.62,0,0,1-.5-1.9c.06-.28.1-.42.16-.69a10,10,0,0,0,.65.82c.5.59.59.93,1,1.18s.29.46,1,.41,1.21-.38.92.26a4.55,4.55,0,0,1-1.26,1.33S1670.12,815,1669.84,814.32Z"/><path class="cls-72" d="M1672.33,818.71c.17-.73.24-1.09.39-1.8a.58.58,0,0,1-.11-.61,4,4,0,0,1,.78-1.09s.57.92.75,1.31a1.88,1.88,0,0,0,.65.7,7,7,0,0,1,.75.83c.13.22.37.41.09.78s-1.45,1.71-1.45,1.71.27-.92-.12-1.15A15.62,15.62,0,0,0,1672.33,818.71Z"/><path class="cls-72" d="M1674.41,826.49c-.53-.06-.57-1-.9-1.28s0-.91,0-.91l1.74-1.23s1.1-.8.82-1.09-.06-1.1-.06-1.1a18.74,18.74,0,0,0-1.64,1.75,1.82,1.82,0,0,1-1.54.58c-.31,0-.63-.19-.9.34s-.69,0-.54,1,.37,1.44,0,2.23.44.76.44.76,0,.09.29-.77l.29-.85a1,1,0,0,0,.5.54A3.61,3.61,0,0,0,1674.41,826.49Z"/><path class="cls-72" d="M1673.5,830.36s1.66-1,1.7-1.55a4.93,4.93,0,0,0,0-.58s.06-.43-.82.35l-1.29,1.15c-.25.56-.38.83-.64,1.39Z"/><path class="cls-72" d="M1670.64,831.74a11.41,11.41,0,0,1-1.4-.12l-.22,0a8.19,8.19,0,0,1,1.21-.81c.61-.31.45-.06,1.2-.51s1-.42,1-.42l-1,.95c-.07.27-.1.4-.18.68Z"/><path class="cls-72" d="M1682.39,826.35c.07-.48.18-1.49.18-1.49s2-.31,0-.41a5.2,5.2,0,0,1-2.31-.39s-.83,1.4-.88.37a5.6,5.6,0,0,1,0-1.43s-1.19,1.1-1.28.52a3.15,3.15,0,0,1,0-1c.24-.33.36-.49.59-.82l1-.38s1.28-.15,1.18.11a4.52,4.52,0,0,0,0,1.09l.48.32s.7-.63,1.19-1,.18.35.5-.38-.88-.4.63-.42,2.09-.28,2.26,0,.25.4.62.4.51.42.51.42c.06.38.09.58.14,1,0,0,.62-.54.76-.34s.15.76.3.89a.72.72,0,0,0,.39.12l.69,0c.14.15.21.22.34.38a.49.49,0,0,1-.18.77c-.56.27-.17.93-1.23.6s-1,.09-1.09-.35.24-.76,0-.75a12.42,12.42,0,0,0-1.27.27l-.41.88s-.1.13-.75.34-.07,0-.73,0l-.67-.07Z"/><path class="cls-72" d="M1689.14,820.94l.78-.35.83-1-.45.2s-.34.22-.26-.37a2.74,2.74,0,0,1,.87-1.24s.51-.05.66.19a1.86,1.86,0,0,1,.28.74c.05.29.48.93-.19,1.19a3.62,3.62,0,0,0-1.14.52l-1.08.6Z"/><path class="cls-72" d="M1668.38,858.16c.2-.67.29-1,.44-1.67l.76-1.11c.4-.56.81-1.13.88-1.18s0,.43.2.37,1.1-1.09,1.33-1.2-.72,1.29-.72,1.29a7.69,7.69,0,0,1-.91,1.2c-.61.66-1.37,1.69-1.37,1.69Z"/><path class="cls-72" d="M1672.49,855.43l1.19-1.31c.64-.69,1.36-1.45,1.66-1.76.6-.61.44-.4,1.27-1.32l1.51-1.72c.54-.61,1.05-1.19,1.36-1.52s1.08-1.29,1.75-2.18,1.25-1.67,1.25-1.67a.8.8,0,0,1,0,.7,7.2,7.2,0,0,1-1.67,2.25l-1.54,1.55c-.73.76-1.55,1.62-2,2.2l-1.56,1.8a8.25,8.25,0,0,1-1.22,1.38c-1.26,1.31-1,1.08-1.67,1.75s-.45.62-.67.68S1672.49,855.43,1672.49,855.43Z"/><path class="cls-71" d="M1585.35,891.38s-.65-.58-.55-.68.14.17.89-.1,0-.85.76-.27,1.23.81.87,1.13,1,.93-.48.42Z"/><path class="cls-71" d="M1554.67,870.13c1,.45,2,.82,2.91,1.18s1.77.68,2.55,1a12.23,12.23,0,0,1,2.12,1.17,7.23,7.23,0,0,1,1.65,1.57,8.46,8.46,0,0,1,1.18,2.22l1.1,1c.33.31.66.62,1.11,1s.59.79,1,1.31l.93,1.17c.28.35.56.71.94,1.17s.77.94,1.11,1.34l1.13,1.34,1,1.15,1.5,1c-.09.46-.13.68-.21,1.12.28.61.43.91.73,1.51l2,.6,1.86,1.44,1.68,1.15,1.46,1,1.68,1.17c.93.34,1.39.52,2.31.87l1.49,0c.06-.19.1-.29.17-.49l-1.16-.92-2.59-.6-1.29-1.38c-.73-.79-1.08-1.19-1.79-2l.79-.57-2.32-1.18c.06-.26.1-.39.17-.65-.37-.74-.55-1.11-.9-1.85l-1.24-.77c0-.27.06-.4.11-.67.1-.59.15-.89.28-1.5,0-.38,0-.56,0-.94l-.87-1.23-1-1.49,2.2-.36c-.13-.65-.22-1.14-.3-1.63s-.17-1-.27-1.66a4.15,4.15,0,0,1-1.18-1.69,2.23,2.23,0,0,1,0-1.51,5.06,5.06,0,0,0,1.18-2.09,9,9,0,0,0,.32-2.36c0-.82,0-1.67,0-2.54a15.88,15.88,0,0,1,.18-2.65c.22-.49,1.47-.84,1.48-1.66a4.21,4.21,0,0,0-.83-2.63,3.55,3.55,0,0,0-1.93-1.16,10.57,10.57,0,0,0-2.66-.24c-1,0-2,.09-3,.13-.49-.09-1.23-.22-2-.39s-1.68-.36-2.46-.58a3.15,3.15,0,0,1-.89-1,3.19,3.19,0,0,0-.88-1c-.87-.19-1.64-.41-2.36-.63l-2-.68c-.66-.22-1.31-.42-2-.59a17.47,17.47,0,0,0-2.27-.4c-.41.12-1.1.72-1.52.83a4.44,4.44,0,0,0-2.63-.82,3,3,0,0,0-1.83.85,8.34,8.34,0,0,0-1.33,1.7c-.38.61-.75,1.23-1.1,1.72a4.22,4.22,0,0,0-.73,1.93,6,6,0,0,0,.15,2.17,9.48,9.48,0,0,0,.91,2.3,15.14,15.14,0,0,0,1.55,2.29,22.66,22.66,0,0,0,2,2.18"/><path class="cls-71" d="M1546,856.3c-.06.16,0,.52-.24.74s-.86.3-2.27,0c0,0-.15-.94-.43-1.06s-.67-1.78-.67-1.78l-1.26-.31-2.32.33a3.35,3.35,0,0,1,.21-1.16,15.65,15.65,0,0,0,.82-1.68c.05-.43.07-.65.12-1.09l-1.76-.38a12.67,12.67,0,0,0-1.42,1.33c-.08.22-.27,1.57-.27,1.57l-2.16.57c-.46-.56-.68-.84-1.11-1.4l-.63-.63c.19-.82.29-1.24.5-2.07a10.92,10.92,0,0,0,.25-1.49,7.83,7.83,0,0,1,.3-1.33l2.19-1.43,1,.45,1.46-.54s.32-.9.54-.91,2-.37,2-.37a10.27,10.27,0,0,0,.8,1.28c.18.14,1.1,1.46,1.1,1.46a1.78,1.78,0,0,0,.82-2.54c-.12-.67-.25-1.29-.25-1.29l.7-1.92c.27-.47.48-.82.68-1.18l.68-1.19s.16-.84.35-1.71a10.74,10.74,0,0,1,.49-1.88c.09-.1.59-.7,1-1.28l.92-1.15,1.54-1.45,1.37-2.25,1.45.53s-.2,1.06.14,1a11.71,11.71,0,0,0,1.4-1.07c.6-.49,1.15-1,1.15-1l.79-1.21-1.18.42-1.32,0c0-.65.08-1,.14-1.62l-.54-.51-1.23.46,1.09-1.75,2.22,0s1.22-.59,1.32-.84a12.9,12.9,0,0,1,1.11-1.41l.65.33c-.47,1-.7,1.47-1.17,2.44,0,.42-.08.63-.13,1l1.78-.13,1.27.06c.07-.77.1-1.16.18-1.94l-.84-1c-.13-.53-.2-.8-.32-1.33s0-.87,0-1.45a10.19,10.19,0,0,0-1.46-.54c-.2,0-1.31-1.37-1.21-1.63a10.14,10.14,0,0,0-.56-2.21l-.45-1.19c-.33.68-.5,1-.84,1.7l-1.56.2a4.82,4.82,0,0,1-.5-1.85c.11-.54-1-1.19-1-1.19s-1.19.87-1.19,1.08a17.66,17.66,0,0,1-.72,1.87l-1.08,2.09c.2.5.31.74.52,1.24-.32.83-.49,1.24-.81,2.07l-.87.63-.2,1.39c-.25.66-.38,1-.63,1.63l-.58.09c0-.59,0-1-.06-1.48s0-.9,0-1.5l-.81-.41-1.24-.51c-.54-.45-.8-.67-1.31-1.12-.11-.62-.17-.93-.27-1.55l.71-1.26.72-1.26s1.41-1.52,1.59-1.67a18.13,18.13,0,0,0,1.06-1.71l1.56-1.6s-.81-.31-.58-.55.77-.7,1.38-1.24l1.2-1.05s.84-.32.87-1a2.6,2.6,0,0,0-.2-1.15l-1.27-.15-.85,1.84c-.2-.61-.3-.92-.49-1.53a1.58,1.58,0,0,1-.48-1.57,9.74,9.74,0,0,0,.26-2.27s-1.42,1.15-1.35,1.64a22.8,22.8,0,0,1-.34,2.35,6,6,0,0,1-.76,1.51s-.68.93-1.09,1a3.14,3.14,0,0,1-1.07-.31l-1.72-.17c-.13.17-.2.25-.32.42-.25.56-.37.84-.61,1.4l-1-.07-1.59.2c.13-.6.2-.91.33-1.52-.35-.23-.52-.34-.84-.57l-.65-.08c-.17-.25-.26-.38-.41-.63l-.25.16c-.52.55-.77.83-1.29,1.39l-1.29.25c-.52.13-.77.19-1.27.33a8.12,8.12,0,0,1-.47-.93s-.92,0-1-.15a1.69,1.69,0,0,1-.19-.88c.07-.31-.4-.42-.4-.42l-1.88,1.53s-1.34,1.33-1.56,1.61-.81,1-.81,1l-.33,0-.6.8c-.1.12-.95,1.52-.95,1.52a7.45,7.45,0,0,0,0,.82l-.84,1.1-.64.12-.19-.21a14.64,14.64,0,0,0-1.31,1.35c-.26.37-.83,1.34-.71,1.35a5.7,5.7,0,0,0,.83-.17l-1.12,1.36s-.77.72-1.19,1.07a13.84,13.84,0,0,0-1.54,1.54c-.12.19-1.14,1.76-1.4,2.06s-1.26,1.35-1.26,1.35a2.35,2.35,0,0,1,.33.53c0,.16,1.11.35,1.11.35-.78.73-1.17,1.1-2,1.82,0,0-.79.77-1.65,1.58s-1.8,1.67-2,1.87c-.5.39-.92.7-2.07,1.63l-1.51,1.22-.65.52s-.17.47.06.33.55-.31,1.07-.63a11,11,0,0,0,1.55-1.1c.42-.39,1.1-.9,1.71-1.38a10.73,10.73,0,0,0,1.35-1.14c.37-.44,1-1,1.46-1.42s1.66-1.48,1.91-1.77,1.46-1.31,1.46-1.31l-1.1,1.42.47-.15a14.45,14.45,0,0,0,1-1.32,8.22,8.22,0,0,1,1-1.75c.61-.75,1.32-1.48,1.32-1.48-.17.49-.24.74-.39,1.23,0,0,1.81-1.55,2-1.79s.68,0,.48.66-.17,1.69.23,1.73a8.48,8.48,0,0,1,1.3.36c-.25.86-.37,1.29-.59,2.14.07.36.11.54.19.91-.1.69-.14,1-.22,1.71s-.09,1-.14,1.61c0,0-.88,1.52-.75,1.81a5.19,5.19,0,0,1,.62,1.47,23.22,23.22,0,0,1-1.15,2.45l-1.32,1.86c-.18.56-.31,1-.43,1.39s-.25.82-.41,1.36c.11.88.17,1.31.32,2.17.3.52.46.78.79,1.3l1.35.69.67.43-.35,1.27s.64,1.52.86,2a6.56,6.56,0,0,0,.66,1.54,8.56,8.56,0,0,0,1.6,1.18l.93-.11-.3-.94a5,5,0,0,1-1.29-.87c-.29-.39-1-1.24-1-1.24s0-.91-.07-1.37a2.31,2.31,0,0,1,.09-.94,5.66,5.66,0,0,1,.5,1.1,7.49,7.49,0,0,0,1.22,1.67c.17.12.75.79.94,1s1,1,1,1,1.06,1.22,1.28,1.46a8.24,8.24,0,0,0,1.32,1.15,6.74,6.74,0,0,0,1.28.13l1.44.08a9.82,9.82,0,0,1,2,1,3.25,3.25,0,0,0,1.06-.11,4.39,4.39,0,0,0,.79-.79l.89.77,1,.55s1.25-.54,1.62-.38a11.73,11.73,0,0,1,1.31.81c.21.14,1.14,1.12,1.14,1.12a11.31,11.31,0,0,0,1.21.85,2,2,0,0,0,2.35-.12,3.58,3.58,0,0,1,2-1.14l-.26.47c.41-.11.68-.58,1.1-.71Z"/><path class="cls-71" d="M1539.1,808c-.29-.52-.43-.78-.67-1.3l.74-1.28-.36-.66-1.21,1.62c-.12-.65-.16-1-.23-1.62l.84-1.28,1-1.47c.14-.24,1.22-1.79,1.22-1.79a5.6,5.6,0,0,1,.73.48c.06.09.73.78.74,1.23a10.82,10.82,0,0,0,.41,1.67l1-1.28c0,.38,0,.57,0,.94l.56-1.26s.63-.33.67-.14-.42,1.87-.43,2.15a12.62,12.62,0,0,0,0,1.28,2.27,2.27,0,0,1-.09.48l-1.45,1.38c-.18-.25-.26-.38-.42-.64l-1.63.79-.82,1.41C1539.39,808.41,1539.29,808.26,1539.1,808Z"/><path class="cls-71" d="M1545.93,798.85l.26.17.62-.35a5.69,5.69,0,0,1-.27-.72c0-.15-.31.18-.29-.53s0-1.27,0-1.27-.34-.47-.59.1a10.27,10.27,0,0,1-.91,1.46c-.22-.49-.32-.74-.51-1.22,0,0,1.37-1,1-1.13s-.63-.43-1.18.09a13.66,13.66,0,0,0-1.47,1.43c-.2.33-.76,1.28-.34,1.49s1.06-.1,1,.68.08,1.08.33,1.19a1.26,1.26,0,0,0,1.11-.34A9.77,9.77,0,0,1,1545.93,798.85Z"/><path class="cls-71" d="M1546.44,794.46s.2-.91.35-.88l.67.23a12.62,12.62,0,0,1-.64,1.25c-.2.28-.66-.34-.66-.34Z"/><path class="cls-71" d="M1547.28,796.43s.56-.38.82,0a4.87,4.87,0,0,1,.58,1.05c.06.14.3.74.36.81s-.09.62-.09.62a1.2,1.2,0,0,1-1.1,0c-.59-.28-.66-.46-.64-.78S1547.28,796.43,1547.28,796.43Z"/><path class="cls-71" d="M1550.2,799s-.61-.76-.56-1.07a2.71,2.71,0,0,0-.31-1.18c-.09-.12.28-1.4.56-1.27s.56.65,1,1,.69.09.9.33,1.32-.69,1.48-.18.49,1,.39,1.22a5.58,5.58,0,0,1-1.58,1.14,5.84,5.84,0,0,1-1.24,0Z"/><path class="cls-71" d="M1548.16,802.07c0-.41-.09-1.66.26-1.81a2.8,2.8,0,0,1,1.17,0,.67.67,0,0,1-.09.72c-.29.33-.72.78-.72.78Z"/><path class="cls-71" d="M1549.44,804.3l-1.17-.46a3.39,3.39,0,0,0,.71-.93,7,7,0,0,1,1.09-1.82,2,2,0,0,0,1-.49,15.92,15.92,0,0,1,1.89-1s.18,1.23.55.89c1.24-1.16.53.52.57.8s1.24,0,1.24,0a2.12,2.12,0,0,1,1,.57,6.54,6.54,0,0,1,.5,2c0,.56,0,.84,0,1.4l.66.63s.47.6.38.89a9.51,9.51,0,0,1-.91,1.3s-.12,1-.34.56-1-1.49-1-1.26-.44,1-.33,1.23.67.51.73.85.2,1.26.2,1.26-.69.77-1.07.44a6.93,6.93,0,0,0-.58-.49s.38,1.91.17,2.11-1,.13-1.15-.19a8.58,8.58,0,0,0-.76-1.19c-.24-.38-.24-.68-.69-.48a21.07,21.07,0,0,1-2,.53s.61-1.16.91-1.23a2.12,2.12,0,0,0,1.23-1.14c.1-.53.71-.19.81-.66a8.63,8.63,0,0,1,.8-1.55s-.35-.5-.5-.67-.78.05-.91-.43a7,7,0,0,1-.22-1.27,1.59,1.59,0,0,0-.07-.44l-1.15,1.6-.68-.74A7,7,0,0,0,1549.44,804.3Z"/><path class="cls-71" d="M1550.23,794.39a5.81,5.81,0,0,0-1.25.17c-.59.12-.74-.28-.75-.35a1.59,1.59,0,0,1,.21-.91c.24-.46.82-1.3.82-1.3a1,1,0,0,1,.69.38c.27.34,1,.11,1,.11-.13.67-.19,1-.3,1.68Z"/><path class="cls-71" d="M1551.93,793.43l-.72-.33c0-.29-.07-.43-.12-.71.13-.36.2-.53.34-.89.23-.55.34-.83.57-1.39l.64-.88c.11.4.17.61.3,1l.62.36.13-.84.2-1.26s-.05-.27.89-.51a16.79,16.79,0,0,0,2.36-1s.61-.87,1.17-.56,1-1.07,1-1.07c.76-.4,1.14-.59,1.9-1-.44,1-.67,1.44-1.14,2.4,0,0-1.62,1-1.87,1.31a8.13,8.13,0,0,0-.63,1.57c-.23.72-.45,1.42-.48,1.53s-.74,2.41-.74,2.41-.46.76-.49.84a9.84,9.84,0,0,1-.82,1.24,4.24,4.24,0,0,1-1.18,0c-.09-.07-1.36-.5-1.36-.5l-.54,0a8.39,8.39,0,0,1,.55-1.21c.13-.14,1.07.67,1.07.67a4.57,4.57,0,0,0,.1-.9l-.4-.72c.25-.39.37-.59.61-1l.56.53.68-1.59,1-.15c-.08-.41-.11-.62-.18-1l-1.53.68-.76,1.17-1.23,1.82Z"/><path class="cls-71" d="M1557.76,796.23c-.28-.46-.41-.69-.67-1.15l.42-1.47.72-2.16.65-1.28c.09-.6.14-.91.24-1.51a.62.62,0,0,0,.41-.2c.12-.19,1.08-1.22,1.08-1.22l.64-.32s.42-.55.54-.67a15.94,15.94,0,0,1,1.49-.71l1.69.36.47-.92c.07.25.11.38.19.62l.59-.06c.37-.7.55-1,.91-1.75l.9-.39,1.63-.68s.2-.94.4-.64,1,1.27,1,1.27l.81-.12s0,0,.22.31a2.4,2.4,0,0,0,.61.52c.19-.45.28-.68.46-1.14.43-.51.64-.77,1-1.27l1.87.13c-.2.58-.36,1-.53,1.45s-.33.88-.55,1.46-.44.82-.75,1.36c.16.89.25,1.33.41,2.21,0,0-.19.58-.35.48s-.17.75-.17.75l.46.09a2,2,0,0,1,.48.78c.06.36.38.76.32,1s-1.07-.45-1.07-.45c-.11.38-.17.58-.29,1,0,0,.85.83,1,.91a5.4,5.4,0,0,1,.45.81v.57l-1.12.91a3.12,3.12,0,0,1,.27.67c0,.24.35,1.09.34,1.29s-.5,2-.5,2a8,8,0,0,0-.66,1.39,1.52,1.52,0,0,1-.77.84s-.83-.53-1.09-.12-1.46.53-1.44,1a5.45,5.45,0,0,1,0,1.4c-.1.42-1.23,1.21-1.23,1.21a7.48,7.48,0,0,0-.8.61,1.85,1.85,0,0,1-1.16.43s-.34,1.57-.41,1.85-.41,1.47-.52,1.83a6.65,6.65,0,0,1-.34.82,8.83,8.83,0,0,0-.45,1.17c-.07.28-.06.4-.31.55a5.52,5.52,0,0,1-2.23-.05c-.13-.14-.69-.8-.69-.8s-.44-1-.44-1.12-.33-1.2-.34-1.38-.36-1.17-.09-1.65.59-1.1.59-1.1-.4.16-.07-.91.5-.88.59-1.79.11-1.35.11-1.35-.87.47-.86.66-1.16.78-1.16.78-.27-.51-.09-.77.72-.6.9-.81.8-.88,1-.9.71-.6.36-.65-.8-.35-1.14-.21a1.87,1.87,0,0,1-.72.12s.35-1,.39-1.28.21-.71,0-.7-.66-.08-.67-.51a9.54,9.54,0,0,1-.16-1.41c.08-.17-.19-.54-.19-.54a3,3,0,0,0-1.08-.06,6.88,6.88,0,0,1-1,.22Z"/><path class="cls-71" d="M1575.59,806c-.61.08-1.94.77-2.12-.2s-.74-1,0-1.62,1.38-1.43,2-1.07,1-.67,1.15-.63.41-.19.62-.21.69.07.76.43.75,1.35.36,1.67a5.09,5.09,0,0,1-1.39,1.17A9.7,9.7,0,0,1,1575.59,806Z"/><path class="cls-71" d="M1586.68,786.6a8.76,8.76,0,0,0,1.24-1.55,1.32,1.32,0,0,1,.66.41c.2.29,1.17.68,1.13.27a13,13,0,0,0-1.14-2.21s-1-.27-.41-.45,1.34-.49,1.65-.07a2,2,0,0,0,.94.6,1.59,1.59,0,0,0-1-1.64c-1.16-.4-1.41-.58-1.68-.51s-1.42-.11-1.72.48-.52.8-.57,1.13-1.09-.19-1.36.4-.51.46-.5.84.12.73.1,1.21,0,1,.37,1.27a6.61,6.61,0,0,0,1.28.7,7.21,7.21,0,0,0,1-.31C1586.69,786.94,1586.69,786.83,1586.68,786.6Z"/><path class="cls-71" d="M1596,779.93l-1.09-1,.23-.77a1.88,1.88,0,0,1,.6.41c.15.21.41.45.35.74S1596,779.93,1596,779.93Z"/><path class="cls-71" d="M1596.25,778.22c.06-.2,0-.75.07-1.36s-.09-1.79.23-1.28.6,1.35.77,1.5.5.68.59.55,0-.17,0-.42c-.22-1-.29-1-.06-1.31s.58-.83.87-.73a2.32,2.32,0,0,1,.7.56s.83,0,.31.54c-.26.28-.75.76-1.2,1.19a10.09,10.09,0,0,1-1,.86,2.92,2.92,0,0,1-.73.15Z"/><path class="cls-71" d="M1582.26,814.71c-.16.12-1.55.11-1-.83a4.23,4.23,0,0,1,1.09-1.1c.37-.31.69-.58.75-.95.11-.74.65-.72.77-.5s.32.28.18.71a6.84,6.84,0,0,1-.35,1.45,7.31,7.31,0,0,0-.66,1C1583,814.68,1582.26,814.71,1582.26,814.71Z"/><path class="cls-71" d="M1584.19,810a1.83,1.83,0,0,1-1.09-.3c-.38-.32-.64-.43-.7-.67a2.65,2.65,0,0,1,.14-.88s.41.45.72.29.38-.38.64-.72.81-.76.92-.54.19.92.31,1.16a6.91,6.91,0,0,1,.28,1s0,.65.21.71.68-.23,1,.15a8.88,8.88,0,0,0,1.09.92,1.43,1.43,0,0,0,.2.7.76.76,0,0,1-.12.87c-.2.19-.75.62-1.35,1.12s-.13,0-.6.51a13.6,13.6,0,0,0-1,1.33,1.58,1.58,0,0,1-.11-1.37,3.1,3.1,0,0,0,.33-1.26c0-.14.19-.2,0-.74a3.13,3.13,0,0,0-.47-.86c0-.22-.08-.33-.14-.55S1584.31,810.37,1584.19,810Z"/><path class="cls-71" d="M1627.67,772.07c-.22-.05-2.24-.28-2.24-.28a5.37,5.37,0,0,0,1,.54l1.63,0Z"/><path class="cls-71" d="M1622.08,770.54c.13-.38.19-.56.29-.92l.31,0a7.33,7.33,0,0,0,.77.21c.32.06-.6-.16.35,0a15.44,15.44,0,0,1,1.85.4s.39-.27.4-.39-.31-.18,0-.12a3.63,3.63,0,0,1,1.31.74c.1.17.56.32-.18.28l-1.38-.07s-.15,0,0,.22a.29.29,0,0,1-.09.36.8.8,0,0,0-.59,0c-.24.14-.18-.14-.24.14l-.07.28a5.82,5.82,0,0,1-1.1-.25l-.94-.31Z"/><path class="cls-71" d="M1656.26,826l.7-.25,1.14.41,1.09,1a4.26,4.26,0,0,1,1.43.48l.45.33,1.1.78c.61-.13.11.06.61-.13l2-.74,0,.76-1,1.27s-.11-.16-.37.73-.26.88-.26.88-.67.46-.88.34-1.29,0-1.28-.59-.3-.77-.65-1.24a6.42,6.42,0,0,1-.63-1.17c-.13-.24-.21-.91-.62-.86a1.31,1.31,0,0,1-1.08-.22,7.12,7.12,0,0,0-.92-.58l-.69-.36C1656.34,826.53,1656.31,826.36,1656.26,826Z"/><path class="cls-71" d="M1668.09,827.89c-.5.1-1.27.78-1.68.65s-.64-.71-.64-.71a1,1,0,0,0-.48-1c0-.52-.07-.78-.12-1.31,0,0-.09.13.75-.75.42-.45.82-.88,1.13-1.27a3.08,3.08,0,0,0,.6-1,2.91,2.91,0,0,1,.58-1.25c.27-.29,1-1.51,1-1.51s.21-.07.61.45.38.53.38.53.09.63.15,1.26-.37,1.45.16,1.73,1-.56.53.26-.67.54-1,1.61-.45,1.14-.43,1.78.22,1.67-.07,1.7.29.18-.29,0S1668.09,827.89,1668.09,827.89Z"/><path class="cls-71" d="M1668.11,832.2s.88-.89.35-1-.36-.89-.36-.89l-.55.22-1.65.67c-1.07.42-1.57,0-1.57,0-.34.42-.51.63-.86,1l.69.28s-.39-.65.78-.32a5.67,5.67,0,0,0,2,.09C1667.61,832.3,1668.11,832.2,1668.11,832.2Z"/><path class="cls-71" d="M1684.68,826.79a2.35,2.35,0,0,0-.29,1.39,2.37,2.37,0,0,1-.33,1.4l.86,0a2.22,2.22,0,0,1-.32,1.13,3.24,3.24,0,0,0-.32,1.28c-.11.37-.34,1-.34,1s.4-.21.57.15-.57,1.54-.57,1.54l.34.4s-.64.89-.41,1,0,.94,0,.94a2.67,2.67,0,0,1-.5,1.07,3.4,3.4,0,0,0-.6.86s-.47.85-.62,1.15a3.63,3.63,0,0,1-.48.86c-.19.25-.49.58-.8.95a11.91,11.91,0,0,0-.91,1.18c-.27.41-.51.77-.77,1.13s-.54.72-.88,1.12a19.47,19.47,0,0,0-1.34,1.71,8.22,8.22,0,0,1-.93,1.18c-.92,1.11-1.48,1.71-1.73,2.09s.36-.59-.7.51a13.22,13.22,0,0,1-1.44,1.38s.07.36-.54.4a3.64,3.64,0,0,1-1.06-.1c.38-.81.56-1.22.91-2,0,0,.6-1,0-.59a10.28,10.28,0,0,0-1.65,1.69l1.1-1.53c.33-.46.66-.92,1.11-1.53-.65.59-1,.89-1.61,1.49a1.38,1.38,0,0,0,.36-.95.84.84,0,0,0-.31-.72s1-.91-.45-.23l-1.43.67s.32-.36-.65.46a19,19,0,0,0-1.85,1.87s.6-.08-.16.53-1,1-1.48.78-1.56.52-1.56.52a8.05,8.05,0,0,1-.85,1.22c-.49.55.35,1-.48.55a5.65,5.65,0,0,0-1.53-.57,3.51,3.51,0,0,0,1.43-1.26c.5-.84,1-.33,1.34-2a11.44,11.44,0,0,0,.28-1.6,7.17,7.17,0,0,1,.34-1.45c.46-1.42,0-1.09.32-1.83a6.37,6.37,0,0,0,.26-1.2,2.81,2.81,0,0,1,.79-1.45,10.15,10.15,0,0,0,1.12-1.59,4.13,4.13,0,0,1,1.65-1.48c1.77-.93,1.86-.8,2.25-1.36.2-.28.53-.6.85-1a4,4,0,0,0,.79-1.21,17.2,17.2,0,0,1,.84-1.89l1-.37,1.22-1.58s-.34,1.08.43.9a3.18,3.18,0,0,0,1.27-.87,5.33,5.33,0,0,0,1-1.26,3.14,3.14,0,0,0,.22-1.54,7.06,7.06,0,0,1,.59-1.15c.34-.49.76-.81,1-.14.59,1.35,1.22.67,1.22.67s.38-.08.33.2-.81,1.43-.79,1.77a1.51,1.51,0,0,0,.59,1c.23.05.3,1.11,1,.19a11.41,11.41,0,0,0,1.23-2.21,7.17,7.17,0,0,0,.6-1.47,7.74,7.74,0,0,1,.86-1.36C1684.34,827.2,1684.68,826.79,1684.68,826.79Z"/><path class="cls-71" d="M1629.38,858s-1.31.36-1.39-.16-.79-.62-.24-1.48.32.22.32-1.34-.22,1.3,0-1.55c.11-1.43.16-2.14.19-2.5l0-.35s.37.95.87-.32c.24-.63.49-1.29.67-1.8s.3-.85.3-.85.37-.83.69-.2.81,1.2.36,2.15.47,1.73.29,2.46a7.17,7.17,0,0,0-.29,2.09,8,8,0,0,1,.21,1.48c0,.45-1.3,1.46-1.3,1.46Z"/><path class="cls-71" d="M1593.89,890.16s-.64-1,0-.75a2.2,2.2,0,0,1,.94.77l-.42.06Z"/><path class="cls-71" d="M1648,829.76c-.17-.36-1.33-2.38-1.33-2.38a1.87,1.87,0,0,0,.81-.27c.49-.26.58-.91.82-.26s-.09.61.23,1.15a1.78,1.78,0,0,1,.23,1.09Z"/><path class="cls-71" d="M1652.34,774.85c-.32-.14-1.34-.54-1.79-.7s-.94-.32-.94-.32l-1.12-.18-1.67-.26c-.36-.06-.8-.12-1.33-.22s-1.14-.23-1.83-.43l-1.93-.54-1.14-.16s-.36.19-.34.31-1-.18-1.07-.13.73.44,1.4.76-.19,0-.51-.08-1.19-.41-1.83-.73.6.58.57.64a.19.19,0,0,0,0,.14,9.72,9.72,0,0,1-1.2.31,2.82,2.82,0,0,1-.63-.24c-.14-.06-.92-.39-1.65-.66s-.71-.05-.81,0-.26.65-.29.73a2.47,2.47,0,0,1-1.28-.27c-.61-.24-.67-.14-1.2-.33s.35.39.56.62-.61,0-.61,0l-2.16-.42a4.07,4.07,0,0,0-1.26.27,1.68,1.68,0,0,0,.38.75,4.09,4.09,0,0,0,1.22.56,3.25,3.25,0,0,1-.26.69c-.1.11-1-.29-1.42-.43s-.35.3-.35.3a12.35,12.35,0,0,0,1.13.65c.51.24.15.57.15.57l-1.22-.31a6.62,6.62,0,0,1-1.23-.42,6.64,6.64,0,0,0-1-.42,11,11,0,0,0-.85-.8,2.25,2.25,0,0,0-1.6.34c-.11.18,1,1,1,1l-.89.06-1.91.12a1.82,1.82,0,0,1-1.12.08,2.18,2.18,0,0,1-.64-.44s-.58-.12-.66.12,0,0,0,.13a5.73,5.73,0,0,1-.38.87,5.8,5.8,0,0,1-.68-1c-.24-.47-.13-.62-.32-1a3.09,3.09,0,0,0-1-1c-.31-.16-.47-.15-1-.42s-.36.1-.8.18-.25.56-.42.69-.53,0-.53,0c-.25-.38-.38-.57-.64-.94,0,0-.31.09-1.8-1s-.31,0-.62-.08-.82.07-1.12-.09a3.87,3.87,0,0,0-1.93-.14c-.72.12-.15.57-.19.89s1.18.88,1.18.88a4,4,0,0,0,1.32-.14c.53-.18.52,0,1.21-.24s.83.31,1.45.44.46,1.32.78,1.8-.42.21-.66.43a2.05,2.05,0,0,0-.62.9,7.16,7.16,0,0,1-.85,1.26c.49.69.73,1,1.2,1.72,0,.16,0,.24,0,.4,0,0-.8,1-.82,1.06s-.26.38-.13.58a5.06,5.06,0,0,1,.29.87l-1,.24-.55-.9a1.12,1.12,0,0,0-.85-.42c0,.23,0,.34,0,.57l1.06,1.77a3.24,3.24,0,0,0,.77.75,2.09,2.09,0,0,1,.45,1.22s-.42-.26-1-.64-.55-.72-.93-.86-.36-.48-.79-.88-.74-.83-1.08-1.09-.22.51-.25.79a2.06,2.06,0,0,0,.26.92c.11.18-.07.92-.07.92a5.08,5.08,0,0,0,.23.79c.1.19.32.35,1.47.75a14,14,0,0,1,1.87.73c.28.15-1.17.45-1.17.45a2,2,0,0,1-.77-.19,4.25,4.25,0,0,0-1-.35s-.93-.22-1.15-.25a16.42,16.42,0,0,0-1.67.22l-1.42-.21c-.14-.3-.22-.46-.37-.76,0,0-.26-.65-.45-1a7.4,7.4,0,0,1-.49-1.1c-.07-.27.09-.58.43-1.36s.34-.42.69-.7a3.14,3.14,0,0,0,.49-1.9c-.07-.33-.77-.38-.77-.38-.24.39-.37.58-.62,1,0,0-.46.74-.74,1.15s-.06.86-.24,1.1-.33.72-.59.72.37,1.47.37,1.47a11.29,11.29,0,0,0,.29,2.28c.2.43,1.17.77,1.17.77s.84,0,1.07-.21,1.36.08,2.09.21a2.78,2.78,0,0,1,1.35.56c.41.28-.81.52-.81.52l-1.09.53a1.75,1.75,0,0,1-1.18-.36,8.94,8.94,0,0,1-1,2.25c-.5.55-.29-.65-.29-.65l-.68-1.5-.8.56a5.15,5.15,0,0,1-.08.95c-.08.45-.21.7-.25,1s.42.12,1.45,1.1.24,1.25.24,1.25a5.59,5.59,0,0,0-1.17,1.27,8.67,8.67,0,0,0-.71,1.17c-.09.3-1.22,0-1.3-.16s-.61-.33-.61-.33l-1.42-1-1.41-1s.24.06.75.15,1.31.22,2.41.34c2.2.23,1-.26,1.45-.59s-.08-1.23-.08-1.74-1.17-.36-1.17-.36-.77-.06-1.64-.16a16.57,16.57,0,0,1-2.29-.37c-.9-.28,0,0-1.27-.92s-.7.55-1.15,1.05a6.11,6.11,0,0,1-1.39.85,9,9,0,0,0-1.44.83c-.51.44-1.36.83-1.56,1a9.32,9.32,0,0,0-.53,1.88l.78-.68c.77-.68.51.15.51.15-.06.67-.08,1-.14,1.68,0,0-.2.66-.25.92a14,14,0,0,1-.29,1.7,8.42,8.42,0,0,1-1.09,1.68c-.1.19-.87,1.17-.87,1.17l.25.9c.07.73.11,1.09.17,1.82l1.8.73h.29s.71-.44.65-.65.24-.59.49-.46.32-.09.32-.09a5.89,5.89,0,0,1,1,1.73c.38,1,.28.22.64.93,0,0-.36-.72,1.85-1.14s.37-.4.54-1a1.73,1.73,0,0,0-.07-1.1,10.42,10.42,0,0,1-1.12.7c-.19.05-.82-.81-.74-1.13s.16-.5.9-1-.19-.58-.19-.58-.42-.44-.61-.61a5.09,5.09,0,0,1-.67-.55c-.21-.24,0-.58.05-1.77s.89-.21,1.12-.33-.21-.63-.46-1.16a1.42,1.42,0,0,1,.17-1.31c.14-.19.69,0,1.09,0s.63,1.42.63,1.42-.48.59-.61.8-.09.74-.27,1,.57,1.08.64,1.29a.61.61,0,0,0,.24.3l.91.23a2.9,2.9,0,0,0,1-.29c.6-.28.57-.57.9-.81s1.85.46,1.85.46l-.77.58s-.69.86-.91.84-1.27.21-1.48.2-.3.38-.47.71-.07.41,0,1.19a3.71,3.71,0,0,0,.43,1.29,2.18,2.18,0,0,1-.48.74c-.28.23-.41.93-.54,1.21s-1.25.35-1.5.44a3.1,3.1,0,0,0-1,1.29c-.21.48-.8-.26-1.13-.67s-.79-1.66-1.19-2.29-.3.17-.3.17-.21,1-.47,1-.31.39-.16.72.2.39.18.62.93.92.83,1.07a1.56,1.56,0,0,1-1.07.73c-.68.13-.77.57-.77.57s.27,1.68,0,1.69-.31.17-.55.62-.65,1.54-.81,1.74-.83.41-1.17.74a5,5,0,0,0-1.08,1.08c-.36.56.73-.23.92-.28a9.13,9.13,0,0,1,1.55.27c.06.76.09,1.14.16,1.9l-.88.87a6,6,0,0,1-1.9.21,1.59,1.59,0,0,0-1.44.89,10.94,10.94,0,0,0,.2,1.29c.17.92.09.34.09.34s.72,1.28,1,1.87,0,.83,0,.83l1.1.11c1.1.11,1.12-.12,1-.3s.57-.1,1.32-.55.35-.41.35-.41a5.6,5.6,0,0,0-.11-.64c-.06-.2,1.52-.91,1.59-1.45s-.14-.48-.27-1,.45-.21.78-.61.1-.41,0-.82.32-.92.32-.92h.52l1-.14c1-.15.74-.23.74-.23l0-.45c0-.2,0-.3-.08-.5l.92-.13.77.6.26.37a3.55,3.55,0,0,0,1.34.5c.6.05.35.2.69.1s.76.29.76.29l.06.44a2.5,2.5,0,0,0,.23.75l-.32.17a2.63,2.63,0,0,0-1,.3c-.3.24,0,0,.4.11s.15.48.15.48a1.77,1.77,0,0,0,1,.24,1,1,0,0,0,.51-.53l.45-.73s.12-.56,0-.74a3.57,3.57,0,0,1-.28-.67l.76-.67-.56-.13-.75-.24s-.73-.45-1.09-.65l-.62-.34a12.14,12.14,0,0,1-1.63-.26c-.49-.16,0,0-.4-.33s.35-.56.93-.58a1.54,1.54,0,0,1,1,.31l.85.35a9.56,9.56,0,0,0,1,.51,3.66,3.66,0,0,0,1.31-.08c.27-.08.49.6.59,1a2,2,0,0,1,0,.81s.81.66,1.1.87,1.77,1.12,1.77,1.12l.34-.13c.33-.14.23-.7.16-.91a8.68,8.68,0,0,0-1-1.13l-.64-1.53c-.64-1.53,1,.08,1.23.09s.87.64.87.64a13.09,13.09,0,0,0,1.35,1.62c1,1.12,1,.34,1,.34s.9,0,1-.3.54-.19,1.9-1.1,1.32-.31,1.81,0,.1.75,0,1.46a2.78,2.78,0,0,0-.06,1,8.75,8.75,0,0,0,.3,1.17s-.45,0-.82,0a5.55,5.55,0,0,0-1.41.78l-1,.29a5,5,0,0,1-2.26-.24c-1.63-.41-1.61.63-1.81.69a10.87,10.87,0,0,0-1.41,1.53c-.45.51-.37,0-.84-.27s-.57-.14-.57-.14l-1.23.33-1.54.42a.87.87,0,0,1-1-.3,9.72,9.72,0,0,1-1.16-2.39c-.45-1.26-.38.23-.83.24a10.33,10.33,0,0,0-1.78.54s-1.1.82-1.57.47-1.53.13-1.73.19-.26.15-.74.55-1.36,1-1.36,1-1.1.26-1.39.28a3.11,3.11,0,0,0-1,.44l.1.71a18,18,0,0,0-1.11,1.61,3.79,3.79,0,0,0-.19,1.18,4.07,4.07,0,0,0,.09,1.39c.12.41-.08,1-.52,1a3.09,3.09,0,0,0-1.09.63s-.35,1.89-.48,2.23-.32.47-1.2,1.55c-.44.54-.36.86-.11,1.22a5.42,5.42,0,0,1,.89,1.36,4.65,4.65,0,0,0,1.07,1.76c.15.26.11.34.11.34s.31,1,.66,2.11,1.45,1,2.13,1.46a6.13,6.13,0,0,0,1.72.91,3.71,3.71,0,0,1,1.52,1.28c.32.45.49.85.56.94s1.73-.65,2.07-.75l1.3-.37c1.3-.38,1.14-.18,1.4-.78s1-.91,1.63-1.23a11,11,0,0,1,1.89-.63,3.17,3.17,0,0,0,.41.85c.24.3,0,0,2.33-.39s1.26.22,1.92.47,0,0,.14.71-.17.95-.48,1.87,0,0,.61.34.6.27,1,.83a5.47,5.47,0,0,1,.7,1.89c.28,1,0,0,.55.88s.41.4,1.1,1.32a14.07,14.07,0,0,1,1,1.34c.73,1.05-.08.7-.52,1.65s0,.55.23,2,.35.95.46,1.36.23.31.78,1.49.45.62,1.08,1.17a12.11,12.11,0,0,0,1.36,1c1.36,1,.71.83,1.6,2s.61.56,1.08,1.61a10.92,10.92,0,0,0,.63,1.23c.28.59.3.43.59.56s.27.07.89-.29.3-.09,1.18-.38a2.12,2.12,0,0,0,1.17-.76l.15-.2c.14-.2.46-.83.7-1.21a3.88,3.88,0,0,1,.76-.94c.38-.35.31-.7.27-1.22a10.46,10.46,0,0,1,.13-1.91c.09-.56.46-1,1.29-1.79s.16-.5.09-.85-.28-1.1-.37-1.52a2.26,2.26,0,0,1,.1-1,5.91,5.91,0,0,1,.79-1.62,6.14,6.14,0,0,0,.8-1.69,6.26,6.26,0,0,0,.22-1c0-.2.1-.54.21-1s.27-1.09.46-1.82c.4-1.47-.08-1.09-.18-1.58a6.68,6.68,0,0,0-.9-1.56,19.89,19.89,0,0,1-.77-2.49c-.06-.28.13-.71.82-1.75.35-.52.66-1,.93-1.34a7.15,7.15,0,0,0,.62-1c.3-.61.37-.93.7-1.7a10.9,10.9,0,0,1,1.6-2.13s.15-.71.31-1.53.33-1.76.39-2.22c.14-.92-.68-.66-.68-.66a5.14,5.14,0,0,0-.79,1.27c-.32.76-1.33.86-2,1.14a1.84,1.84,0,0,1-1.66-.43,7.63,7.63,0,0,0-1.39-.75,4.36,4.36,0,0,1-1.24-.73l-.75-.81c-.21-.23-1.6-.62-2.26-1.09a9.28,9.28,0,0,1-1.54-1.69c-.46-.53-.76-.51-1.46-1.12a5.3,5.3,0,0,1-1.41-1.66c-.81-1.17-.13-1.15.36-1.52,0,0,.41.35,1,.73a7,7,0,0,0,1.82,1c1.16.33,1,.59,1.37,1.3s0,0,.4.84.31.28,1.3.57c.81.24.76.14.72.1a7.68,7.68,0,0,1,1.29,1.43c.42.69.35.71.72,1.26s1.85.76,1.85.76a6.27,6.27,0,0,1,.67-1.1,10.84,10.84,0,0,0,1.76-1.2,8.47,8.47,0,0,1,1-1,10,10,0,0,1,1.9-1.24c1.08-.7.31-.76.31-1a4.2,4.2,0,0,1,.31-1.55,6,6,0,0,0,.55-1.47c-.06-.2-.32-1.06-.57-1.13s-.69.21-1.12,0-.51-.43-.91-.74a1.41,1.41,0,0,0-1.75.22.84.84,0,0,1-1.14.19c-.34-.12-.75-.22-1.09-.34s-.82-.2-1.07-.27-1-1.84-1-1.84a14.74,14.74,0,0,1,1.79.14c1,.14,0,0,.75.44s.93.53.93.53a3.86,3.86,0,0,1,1.08-.17c.32.06.48.08,2,.3a3.45,3.45,0,0,1,1,.21s0-.06,0-.15a14,14,0,0,1,1.91-1.34,4.18,4.18,0,0,1,1.19,0c.62,0,1.39,0,2.06,0,1.35,0,.41.1,1.39.81s0,0,0,.41.92,1.07.92,1.07,1.52-1.23,2-1.09,0,0,.78.61,0,0,.35,1-.06.3-.28,1.42.44,1.36.44,1.36l.35.12,2.47.83c2.81.93.88.63.88.63l1.23,1.57.65-.71a2,2,0,0,0,.28-.72,3.19,3.19,0,0,1,.17-.89,4.28,4.28,0,0,0,0-1.11c0-.34,0-1.1,0-1.1s-.16-.92-.24-1.25-.22-.83-.22-.83a1.42,1.42,0,0,1,.15-.49,20.08,20.08,0,0,1,1.19-2.2c1.37-2.28.81-.32.81-.32l.4-.94s1-1.45,2-1.4.48,0,2.22,1.1.63.89.71,1.2.71,1,1.3.67a1.07,1.07,0,0,0,.58-.91s.71.71.74,1.17,1.11.59,1.11.59,0,0,.61,1.07.12,1,.16,1.14a15.65,15.65,0,0,0,1,2.06c.29.43.27.31.81,1s.31.69.35,1,2,.22,2,.22-.1-.82-.12-1a9.52,9.52,0,0,0-.49-1.94c-.4-1.11-.9-.68-1.12-1.06s-.89-.17-1.38-.41-.52-1.15-.56-1.34a6.78,6.78,0,0,1,.06-1,10.56,10.56,0,0,1,2.09.85,3.25,3.25,0,0,0,1.45,1.09c.87.43.51-.37.74-.64a7.06,7.06,0,0,0,.89-1.41c.26-.53,0-.59-.06-1a1.53,1.53,0,0,1,0-.79c.09-.76.13-1.13.21-1.88a13.15,13.15,0,0,1-1.49-.08,3.47,3.47,0,0,1-2-.66c-.67-.78-.66.33-1.11.33-.22,0-.08-.35.18-.83s.65-1.08.91-1.58c.51-1,1.21-.48,2.07-.86s.1-.61.27-.78a14.84,14.84,0,0,1,1.74-.94c.77-.41.61-.43.87-1a4.94,4.94,0,0,0,.52-1.27c0-.25.12-1.46.1-1.89a2.7,2.7,0,0,0-.11-1l-.34-.77-1.94-1.29a9.24,9.24,0,0,1-1.44-.4c-.31-.17-1.1-.78-1.1-.78a11.9,11.9,0,0,0-.72-2c-.34-.6-.48.53-.81.48a4.88,4.88,0,0,1-2-.86c-.19-.32.26-1.52.26-1.52a8.4,8.4,0,0,0,2.14,1.13c.68.09,0-.49.38-.93s.61.23.61.23.84.49,1.59,1,.49.56,1.85,1.63.71,0,1.18-.27,1-1.22.76-1.41a8.21,8.21,0,0,0-2-.75c-.24,0-.58-.94-.4-1.27,0,0-.47-.37-1.37-1.13s-.8-1-.68-1.32,0,0,1.76.08.1-.3.1-.3a12.75,12.75,0,0,1-.71-1.07,6.76,6.76,0,0,0-.63-.9l-.35-.45a3,3,0,0,1-.52-.91,2.86,2.86,0,0,0-.56-1c-.13-.15-1.47-1.15-1.69-1.39a15.81,15.81,0,0,0-2.34-1l-1.51-1a7.76,7.76,0,0,0-1.88-.43c-1-.09-.47.11-.47.11a5.19,5.19,0,0,1-1.28-.5,11,11,0,0,1-1.82-1.68,2.19,2.19,0,0,1-.32-1.43c0-.36-.07-.5.12-.51s1-.37,1-.52.07-.77.07-.77l.82.24c.52.15,1.26.36,2.16.59,1.79.46.33-.07.48-.22s.83-.45.48-.66a21.6,21.6,0,0,0-2.22-.68c-.6-.2-.69-.47-1.15-.94s-1.18-.93-.34-.56a2.21,2.21,0,0,0,.68.24c.25.06.75.17,2.18.57s1.39.35,1,.19-1.23-.42-1.32-.48-1.33-1-2.14-1.55-.13-.2,1.35.21.87.48,1.79.92.9.76,1,.86a16,16,0,0,1,1.15,1.28c.48.64.73.58,1.16,1s.59.55,1.13,1l1.22,1c.16.13,1.86.66,2.36.9s1,.29,1.86.6.76.4,1,.66a15.22,15.22,0,0,0,1.56,1.15,2.8,2.8,0,0,0-.37-.88c-.23-.26,0-.47-.19-.74a6.09,6.09,0,0,0-1-.92,23.4,23.4,0,0,0-2-1.22c-.56-.32-.48-.41-.48-.67a.87.87,0,0,0-.28-.51s-1-.68-1.56-1a7.48,7.48,0,0,0-1.79-.36,20.46,20.46,0,0,1-2.17-.91l-.59-.52.2-.2c.19-.2,0,0-.12-.28s.12-.23.37-.35.49-.07.36-.18-.07-.22-.47-.55a12.56,12.56,0,0,0-1.49-1.05c-.34-.18.13-.22,1-.17s.29,0,.33-.1a5.94,5.94,0,0,0-1.52-.7c-.61-.22-1.84-.43-2.24-.58l-1.7-.66s-1.61-.68-2.09-.94,0,0,.93.21,1.83.46,2.21.55,1.74.14,1.48,0S1652.67,775,1652.34,774.85Zm-39,38.32a12.91,12.91,0,0,0-1.38,1.05,1.35,1.35,0,0,1-1.44.31c-1-.5-.73-1.35-1.52-.36s.24.71.24.71a9.71,9.71,0,0,1-1.94.42c-1,.11-2.08,0-2.37-.87a8.65,8.65,0,0,1-.52-2.14.9.9,0,0,1,.67-1c1-.28,2.08,1.2,2.48.42s-.34-.91.61-1.84,1-1.06,1.49.26a2.87,2.87,0,0,0,1,1.4,2.93,2.93,0,0,0,1.31.5C1612.86,812.09,1614.31,812.69,1613.36,813.17Z"/><path class="cls-72" d="M1629.45,821.17Z"/></g><circle class="cls-73" cx="1600.49" cy="831.68" r="67.66"/></g></g></g></svg>