<svg xmlns="http://www.w3.org/2000/svg" viewBox="0 0 256 246.77912"><defs><style>.cls-1{fill:#734dff;}.cls-2{fill:#808cff;}.cls-3{fill:#b3d4ff;}</style></defs><title>Autoscrape Logo</title><g id="Layer_2" data-name="Layer 2"><g id="Layer_1-2" data-name="Layer 1"><path class="cls-1" d="M91.22217,246.77912A62.9406,62.9406,0,0,1,36.714,152.36806L74.04329,87.71171a31.15116,31.15116,0,0,1,53.95741.00363L90.675,152.36522a31.15345,31.15345,0,0,0,26.9796,46.73026h74.652a59.43491,59.43491,0,0,0,51.47149-89.15229,91.22372,91.22372,0,0,1-79.00186,136.83593Z"></path><path class="cls-2" d="M165.32638,152.36542,128.0007,87.71534a31.15116,31.15116,0,0,0-53.95741-.00363L36.714,152.36806a62.9406,62.9406,0,0,0,54.50819,94.41106A91.22182,91.22182,0,0,1,12.22148,109.94631L49.54814,45.29457a62.37042,62.37042,0,0,1,105.43235-4.30939l37.32558,64.64989a31.15362,31.15362,0,0,1-26.97969,46.73035Z"></path><path class="cls-3" d="M49.54814,45.29457a90.58925,90.58925,0,0,1,156.90512,0l37.32489,64.64862a59.43491,59.43491,0,0,1-51.47149,89.15229h-74.652A31.15345,31.15345,0,0,1,90.675,152.36522h74.65136a31.15342,31.15342,0,0,0,26.97969-46.73015L154.98049,40.98518A62.37042,62.37042,0,0,0,49.54814,45.29457Z"></path></g></g></svg>