<svg xmlns="http://www.w3.org/2000/svg" xmlns:xlink="http://www.w3.org/1999/xlink" viewBox="0 0 223.14 329.41"><defs><style>.cls-1{mask:url(#mask);filter:url(#luminosity-noclip-5);}.cls-19,.cls-2,.cls-26,.cls-29,.cls-31,.cls-4,.cls-6,.cls-8{mix-blend-mode:multiply;}.cls-2{fill:url(#linear-gradient);}.cls-3{mask:url(#mask-2);filter:url(#luminosity-noclip-6);}.cls-4{fill:url(#linear-gradient-2);}.cls-5{mask:url(#mask-3);filter:url(#luminosity-noclip-7);}.cls-6{fill:url(#linear-gradient-3);}.cls-7{mask:url(#mask-4);filter:url(#luminosity-noclip-8);}.cls-8{fill:url(#linear-gradient-4);}.cls-9{isolation:isolate;}.cls-10{fill:#ddd;}.cls-11{fill:#ccc;}.cls-12{fill:#f2f2f2;}.cls-13{fill:#bfbfbf;}.cls-14{fill:#a5a5a5;}.cls-15{opacity:0.1;}.cls-16{fill:#fac52f;}.cls-17{fill:#fddf85;}.cls-18{mask:url(#mask-5);}.cls-19{fill:url(#linear-gradient-5);}.cls-20{fill:#ed5733;}.cls-21{fill:#fc826a;}.cls-22{fill:#ac2310;}.cls-23{fill:#052b71;}.cls-24{fill:#86cfd7;}.cls-25{mask:url(#mask-6);}.cls-26{fill:url(#linear-gradient-6);}.cls-27{fill:#fddb82;}.cls-28{mask:url(#mask-7);}.cls-29{fill:url(#linear-gradient-7);}.cls-30{mask:url(#mask-8);}.cls-31{fill:url(#linear-gradient-8);}.cls-32{fill:#010b25;}.cls-33{fill:#f5fdd3;opacity:0.11;}.cls-34{fill:#011224;}.cls-35{fill:#edf1fd;}.cls-36{fill:#b8d2ea;}.cls-37{fill:#fff;}.cls-38{filter:url(#luminosity-noclip-4);}.cls-39{filter:url(#luminosity-noclip-3);}.cls-40{filter:url(#luminosity-noclip-2);}.cls-41{filter:url(#luminosity-noclip);}</style><filter id="luminosity-noclip" x="37.12" y="-6931.35" width="70.33" height="32766" filterUnits="userSpaceOnUse" color-interpolation-filters="sRGB"><feFlood flood-color="#fff" result="bg"/><feBlend in="SourceGraphic" in2="bg"/></filter><mask id="mask" x="37.12" y="-6931.35" width="70.33" height="32766" maskUnits="userSpaceOnUse"><g class="cls-41"/></mask><linearGradient id="linear-gradient" x1="9185.08" y1="-7419.64" x2="9204.59" y2="-7411.34" gradientTransform="matrix(-0.76, 0.65, 0.65, 0.76, 11873.79, -262.57)" gradientUnits="userSpaceOnUse"><stop offset="0"/><stop offset="1" stop-color="#fff"/></linearGradient><filter id="luminosity-noclip-2" x="111.2" y="-6931.35" width="89.24" height="32766" filterUnits="userSpaceOnUse" color-interpolation-filters="sRGB"><feFlood flood-color="#fff" result="bg"/><feBlend in="SourceGraphic" in2="bg"/></filter><mask id="mask-2" x="111.2" y="-6931.35" width="89.24" height="32766" maskUnits="userSpaceOnUse"><g class="cls-40"/></mask><linearGradient id="linear-gradient-2" x1="13188.55" y1="-5123.04" x2="13204" y2="-5123.04" gradientTransform="matrix(0.25, -0.97, 0.97, 0.25, 1809.15, 14172.8)" gradientUnits="userSpaceOnUse"><stop offset="0"/><stop offset="0.99" stop-color="#fff"/></linearGradient><filter id="luminosity-noclip-3" x="111.25" y="-6931.35" width="90.89" height="32766" filterUnits="userSpaceOnUse" color-interpolation-filters="sRGB"><feFlood flood-color="#fff" result="bg"/><feBlend in="SourceGraphic" in2="bg"/></filter><mask id="mask-3" x="111.25" y="-6931.35" width="90.89" height="32766" maskUnits="userSpaceOnUse"><g class="cls-39"/></mask><linearGradient id="linear-gradient-3" x1="12863.52" y1="-6167.92" x2="12880.99" y2="-6167.92" gradientTransform="matrix(0.26, -1.02, 0.87, 0.22, 2088.74, 14673.71)" xlink:href="#linear-gradient-2"/><filter id="luminosity-noclip-4" x="43.34" y="-6931.35" width="38.18" height="32766" filterUnits="userSpaceOnUse" color-interpolation-filters="sRGB"><feFlood flood-color="#fff" result="bg"/><feBlend in="SourceGraphic" in2="bg"/></filter><mask id="mask-4" x="43.34" y="-6931.35" width="38.18" height="32766" maskUnits="userSpaceOnUse"><g class="cls-38"/></mask><linearGradient id="linear-gradient-4" x1="9162.1" y1="-7485.79" x2="9173.05" y2="-7427.48" xlink:href="#linear-gradient"/><filter id="luminosity-noclip-5" x="37.12" y="59.42" width="70.33" height="66.39" filterUnits="userSpaceOnUse" color-interpolation-filters="sRGB"><feFlood flood-color="#fff" result="bg"/><feBlend in="SourceGraphic" in2="bg"/></filter><mask id="mask-5" x="37.12" y="59.42" width="70.33" height="66.39" maskUnits="userSpaceOnUse"><g class="cls-1"><path class="cls-2" d="M48.34,125.81l18.17-.37L80,125.17h0l16.72-.34q5.4-3.8,10.65-7.78c.53-.45-4-10.78-4.39-12L98.39,92.49c-2.73-7.44-4.72-15.61-9.2-22.29A24.3,24.3,0,0,0,72.06,59.42,70,70,0,0,1,90.89,86.31c1.41,3.6,2.47,7.85.54,11.2-2.24,3.87-8.49,4-12.72,2.52s-7.54-4.75-10.48-8.13c-4.44-5.1-8.38-10.62-12.34-16.11-2.45-3.41-5.14-7-9-8.5A8.42,8.42,0,0,0,44,66.73a44.56,44.56,0,0,0-5.38,3.85c-.52.44-1,.89-1.52,1.35a83.73,83.73,0,0,1,16,17.3c1.78,2.59,3.48,5.48,3.43,8.63-.07,4.26-3.45,7.9-7.38,9.56-3.61,1.53-7.61,1.72-11.55,1.72A113.73,113.73,0,0,0,48.34,125.81Z"/></g></mask><linearGradient id="linear-gradient-5" x1="9185.08" y1="-7419.64" x2="9204.59" y2="-7411.34" gradientTransform="matrix(-0.76, 0.65, 0.65, 0.76, 11873.79, -262.57)" gradientUnits="userSpaceOnUse"><stop offset="0" stop-color="#fff"/><stop offset="1" stop-color="#fcb444"/></linearGradient><filter id="luminosity-noclip-6" x="111.2" y="107.49" width="89.24" height="11.69" filterUnits="userSpaceOnUse" color-interpolation-filters="sRGB"><feFlood flood-color="#fff" result="bg"/><feBlend in="SourceGraphic" in2="bg"/></filter><mask id="mask-6" x="111.2" y="107.49" width="89.24" height="11.69" maskUnits="userSpaceOnUse"><g class="cls-3"><path class="cls-4" d="M200.44,118l-.3,1.18a199.83,199.83,0,0,0-88.94-8.86c0-.41.06-.81.07-1.22a200.09,200.09,0,0,1,89.17,8.9Z"/></g></mask><linearGradient id="linear-gradient-6" x1="13188.55" y1="-5123.04" x2="13204" y2="-5123.04" gradientTransform="matrix(0.25, -0.97, 0.97, 0.25, 1809.15, 14172.8)" gradientUnits="userSpaceOnUse"><stop offset="0" stop-color="#fff"/><stop offset="0.99" stop-color="#f2b52a"/></linearGradient><filter id="luminosity-noclip-7" x="111.25" y="124.39" width="90.89" height="11.16" filterUnits="userSpaceOnUse" color-interpolation-filters="sRGB"><feFlood flood-color="#fff" result="bg"/><feBlend in="SourceGraphic" in2="bg"/></filter><mask id="mask-7" x="111.25" y="124.39" width="90.89" height="11.16" maskUnits="userSpaceOnUse"><g class="cls-5"><path class="cls-6" d="M202.14,134.14l-.37,1.41A174.13,174.13,0,0,0,111.25,129c0-.48.09-1,.12-1.44a176.16,176.16,0,0,1,53.26-2.06A170.64,170.64,0,0,1,202.14,134.14Z"/></g></mask><linearGradient id="linear-gradient-7" x1="12863.52" y1="-6167.92" x2="12880.99" y2="-6167.92" gradientTransform="matrix(0.26, -1.02, 0.87, 0.22, 2088.74, 14673.71)" xlink:href="#linear-gradient-6"/><filter id="luminosity-noclip-8" x="43.34" y="54.11" width="38.18" height="14.08" filterUnits="userSpaceOnUse" color-interpolation-filters="sRGB"><feFlood flood-color="#fff" result="bg"/><feBlend in="SourceGraphic" in2="bg"/></filter><mask id="mask-8" x="43.34" y="54.11" width="38.18" height="14.08" maskUnits="userSpaceOnUse"><g class="cls-7"><path class="cls-8" d="M44.7,62.71a26,26,0,0,0,15.62,5.48,25.34,25.34,0,0,0,5.95-.63,26.15,26.15,0,0,0,9.8-4.47l.38-.29a18.6,18.6,0,0,0,2.27-2.08,15.5,15.5,0,0,0,2.8-4.53,7.56,7.56,0,0,0-2.86-2c-1.51-.49-3.5.77-4.64,1.63-1,.74-1.87,1.6-2.79,2.42l-.63.53A20,20,0,0,1,61.77,63a18.17,18.17,0,0,1-1.8.27,20,20,0,0,1-11.31-2.2,11.37,11.37,0,0,0-2.18-1,2.83,2.83,0,0,0-2.33.24,2.28,2.28,0,0,0-.81,1A5.21,5.21,0,0,0,44.7,62.71Z"/></g></mask><linearGradient id="linear-gradient-8" x1="9162.1" y1="-7485.79" x2="9173.05" y2="-7427.48" xlink:href="#linear-gradient-5"/></defs><title>contact-success</title><g class="cls-9"><g id="Layer_2" data-name="Layer 2"><g id="Layer_1-2" data-name="Layer 1"><path class="cls-10" d="M223.14,217.85A111.57,111.57,0,1,1,191,139.46,111.57,111.57,0,0,1,223.14,217.85Z"/><path class="cls-11" d="M223.14,217.85a111.57,111.57,0,0,1-200,68C30.69,292,39,297.33,48.3,300.51c13,4.44,27.12,4.42,40.63,2.16,40.55-6.75,77.09-34.22,94.84-71.3,13.58-28.35,15.88-61.74,7.19-91.91A111.21,111.21,0,0,1,223.14,217.85Z"/><path class="cls-12" d="M51.23,151.29a2.77,2.77,0,0,0-1.71-.5h0l-3.46-.84-2.8,3.73a38.09,38.09,0,0,0-7,7.32,38.65,38.65,0,0,0-5,8.66l-2.78,3.7,2,3.94h0a2.43,2.43,0,0,0,.7.82c1.12.84,2.93.6,5-.49,3-1.56,6.69-4.86,9.95-9.21,4-5.34,6.28-10.81,6.23-14.22A3.55,3.55,0,0,0,51.23,151.29Z"/><path class="cls-13" d="M48,152.91c0,3-2,7.88-5.54,12.62-2.89,3.86-6.14,6.79-8.82,8.17-1.88,1-3.48,1.19-4.48.44-2.43-1.82-.42-8.62,4.5-15.2s10.88-10.43,13.31-8.61A3.12,3.12,0,0,1,48,152.91Z"/><path class="cls-14" d="M48,152.91c0,3-2,7.88-5.54,12.62-2.89,3.86-6.14,6.79-8.82,8.17,0-3,2-7.88,5.53-12.62C42,157.22,45.28,154.29,48,152.91Z"/><path class="cls-12" d="M17.58,227.46a2.76,2.76,0,0,0-1.41,1.08h0l-2.72,2.3,1.36,4.45a38.07,38.07,0,0,0,1.76,10,38.84,38.84,0,0,0,4.05,9.13L22,258.84l4.36.72h0a2.56,2.56,0,0,0,1.07-.07c1.35-.41,2.21-2,2.58-4.37.52-3.35,0-8.26-1.57-13.46-1.95-6.37-5-11.45-7.8-13.41A3.53,3.53,0,0,0,17.58,227.46Z"/><path class="cls-13" d="M17,231.05c2.47,1.74,5.19,6.25,6.93,11.91,1.41,4.61,1.86,9,1.39,11.95C25,257,24.19,258.42,23,258.78c-2.9.89-7.21-4.75-9.61-12.6s-2-14.93.89-15.82A3.07,3.07,0,0,1,17,231.05Z"/><path class="cls-14" d="M17,231.05c2.47,1.74,5.19,6.25,6.93,11.91,1.41,4.61,1.86,9,1.39,11.95-2.47-1.75-5.19-6.26-6.92-11.92A28.67,28.67,0,0,1,17,231.05Z"/><path class="cls-12" d="M69.63,295a4.34,4.34,0,0,0,.33,2.78h0l.92,5.52L78,305.09a60.12,60.12,0,0,0,15,5.65,60.42,60.42,0,0,0,15.62,1.84l7.09,1.74,4.48-5.33h0a3.92,3.92,0,0,0,.76-1.51c.52-2.16-.94-4.62-3.84-7-4.13-3.41-11.17-6.68-19.5-8.7-10.2-2.47-19.55-2.4-24.44-.22C71.22,292.41,70,293.58,69.63,295Z"/><path class="cls-13" d="M74,298.76c4.35-1.94,12.65-2,21.7.2,7.39,1.79,13.65,4.69,17.31,7.72,2.58,2.12,3.88,4.3,3.41,6.21-1.13,4.65-12.23,5.95-24.8,2.9s-21.84-9.29-20.72-13.94A4.94,4.94,0,0,1,74,298.76Z"/><path class="cls-14" d="M74,298.76c4.35-1.94,12.65-2,21.7.2,7.39,1.79,13.65,4.69,17.31,7.72-4.35,1.94-12.65,2-21.7-.2C83.91,304.69,77.65,301.79,74,298.76Z"/><path class="cls-12" d="M180.12,273.3a4.35,4.35,0,0,0,2.79.3h0l5.6.32,3.27-6.56a65.2,65.2,0,0,0,14-28.19l3.26-6.53-4.21-5.54h0a4.07,4.07,0,0,0-1.31-1.08c-2-1-4.71-.1-7.68,2.21-4.23,3.27-9,9.42-12.77,17.1-4.66,9.41-6.65,18.54-5.6,23.8C177.91,271.18,178.77,272.64,180.12,273.3Z"/><path class="cls-13" d="M184.72,269.87c-.94-4.67.83-12.78,5-21.13,3.38-6.81,7.59-12.27,11.35-15.18,2.63-2,5.05-2.83,6.81-2,4.29,2.13,3.11,13.24-2.64,24.83S191.33,275.69,187,273.57C185.84,273,185.08,271.68,184.72,269.87Z"/><path class="cls-14" d="M184.72,269.87c-.94-4.67.83-12.78,5-21.13,3.38-6.81,7.59-12.27,11.35-15.18.93,4.67-.83,12.78-5,21.13C192.68,261.5,188.48,267,184.72,269.87Z"/><path class="cls-12" d="M198,189a2.88,2.88,0,0,0,1-1.49h0l1.94-3.07-2.69-3.93a42.55,42.55,0,0,0-11.58-16.88L184,159.74l-4.47.64h0a2.4,2.4,0,0,0-1,.4c-1.19.82-1.55,2.64-1.17,5.05.52,3.44,2.52,8.08,5.68,12.66,3.87,5.62,8.42,9.63,11.75,10.69A3.58,3.58,0,0,0,198,189Z"/><path class="cls-13" d="M197.49,185.33c-3-1-7-4.51-10.43-9.5-2.81-4.07-4.58-8.18-5-11.23-.33-2.14,0-3.77,1-4.49,2.56-1.76,8.51,2.41,13.28,9.34s6.56,14,4,15.72A3.2,3.2,0,0,1,197.49,185.33Z"/><path class="cls-14" d="M197.49,185.33c-3-1-7-4.51-10.43-9.5-2.81-4.07-4.58-8.18-5-11.23,2.94.94,7,4.5,10.43,9.49C195.25,178.16,197,182.27,197.49,185.33Z"/><path class="cls-12" d="M126.71,125.87a2.8,2.8,0,0,0-.7-1.68h0l-1.57-3.29-4.76.19a42.48,42.48,0,0,0-20.44.81l-4.74.19-1.84,4.13h0a2.58,2.58,0,0,0-.2,1.08c.06,1.44,1.41,2.71,3.65,3.68,3.19,1.39,8.18,2.17,13.74,1.94,6.82-.29,12.64-2,15.31-4.26A3.6,3.6,0,0,0,126.71,125.87Z"/><path class="cls-13" d="M123.32,124.32c-2.37,2-7.54,3.52-13.59,3.78-4.94.21-9.36-.48-12.2-1.72-2-.86-3.19-2-3.24-3.27-.13-3.1,6.57-5.91,15-6.26s15.31,1.88,15.44,5A3.16,3.16,0,0,1,123.32,124.32Z"/><path class="cls-14" d="M123.32,124.32c-2.37,2-7.54,3.52-13.59,3.78-4.94.21-9.36-.48-12.2-1.72,2.37-2,7.54-3.52,13.6-3.77C116.06,122.41,120.49,123.09,123.32,124.32Z"/><path class="cls-12" d="M160.89,246.3a15.17,15.17,0,1,1-15.17-15.17,13.71,13.71,0,0,1,2,.14A15.16,15.16,0,0,1,160.89,246.3Z"/><path class="cls-14" d="M155.64,244.57a15.15,15.15,0,0,1-17.2,15,15.17,15.17,0,0,1,7.28-28.47,13.71,13.71,0,0,1,2,.14A15.13,15.13,0,0,1,155.64,244.57Z"/><path class="cls-12" d="M53.44,220.7a15.16,15.16,0,1,1,21.36-2,14,14,0,0,1-1.41,1.47A15.16,15.16,0,0,1,53.44,220.7Z"/><path class="cls-14" d="M58.12,217.77a15.21,15.21,0,0,1-.57-22.84,15.17,15.17,0,0,1,17.25,23.8,14,14,0,0,1-1.41,1.47A15.17,15.17,0,0,1,58.12,217.77Z"/><path class="cls-15" d="M184.09,140.69c0,3.25-31.05,5.89-69.35,5.89s-69.35-2.64-69.35-5.89,31.05-5.89,69.35-5.89S184.09,137.44,184.09,140.69Z"/><path class="cls-16" d="M76.38,97l1,.19c10.31,1.87,16.1,2.12,26.21,2.29l2.69,0c17.69.28,20,36.79,15.76,41.1s-16.41,4.5-16.41,4.5c-14.37.53-28.15-3.73-41.53-7.94-4-1.25-8.06-2.57-11-5.19A17,17,0,0,1,48.91,126a24.25,24.25,0,0,1-1.62-14.12,23.33,23.33,0,0,1,2.49-6.93l.26-.46c1.85-3.17,1.28-6.49,4.92-8C60.61,94.1,70.41,95.92,76.38,97Z"/><path class="cls-16" d="M48.34,125.81l18.17-.37L80,125.17h0l16.72-.34q5.4-3.8,10.65-7.78c.53-.45-4-10.78-4.39-12L98.39,92.49c-2.73-7.44-4.72-15.61-9.2-22.29A24.3,24.3,0,0,0,72.06,59.42c-6.87-1-14.32.47-21,3.59a68.42,68.42,0,0,0-7,3.72,44.56,44.56,0,0,0-5.38,3.85c-.52.44-1,.89-1.52,1.35S36,73.09,35.39,73.7,34.3,75,33.8,75.63a19.13,19.13,0,0,0-3.91,9.25c-.54,4.55.93,9.09,2.63,13.35l.1.25a110.7,110.7,0,0,0,5,10.66A113.73,113.73,0,0,0,48.34,125.81Z"/><path class="cls-17" d="M48.34,125.81l18.17-.37L80,125.17h0l16.72-.34q5.4-3.8,10.65-7.78c.53-.45-4-10.78-4.39-12L98.39,92.49c-2.73-7.44-4.72-15.61-9.2-22.29A24.3,24.3,0,0,0,72.06,59.42,70,70,0,0,1,90.89,86.31c1.41,3.6,2.47,7.85.54,11.2-2.24,3.87-8.49,4-12.72,2.52s-7.54-4.75-10.48-8.13c-4.44-5.1-8.38-10.62-12.34-16.11-2.45-3.41-5.14-7-9-8.5A8.42,8.42,0,0,0,44,66.73a44.56,44.56,0,0,0-5.38,3.85c-.52.44-1,.89-1.52,1.35a83.73,83.73,0,0,1,16,17.3c1.78,2.59,3.48,5.48,3.43,8.63-.07,4.26-3.45,7.9-7.38,9.56-3.61,1.53-7.61,1.72-11.55,1.72A113.73,113.73,0,0,0,48.34,125.81Z"/><g class="cls-18"><path class="cls-19" d="M48.34,125.81l18.17-.37L80,125.17h0l16.72-.34q5.4-3.8,10.65-7.78c.53-.45-4-10.78-4.39-12L98.39,92.49c-2.73-7.44-4.72-15.61-9.2-22.29A24.3,24.3,0,0,0,72.06,59.42,70,70,0,0,1,90.89,86.31c1.41,3.6,2.47,7.85.54,11.2-2.24,3.87-8.49,4-12.72,2.52s-7.54-4.75-10.48-8.13c-4.44-5.1-8.38-10.62-12.34-16.11-2.45-3.41-5.14-7-9-8.5A8.42,8.42,0,0,0,44,66.73a44.56,44.56,0,0,0-5.38,3.85c-.52.44-1,.89-1.52,1.35a83.73,83.73,0,0,1,16,17.3c1.78,2.59,3.48,5.48,3.43,8.63-.07,4.26-3.45,7.9-7.38,9.56-3.61,1.53-7.61,1.72-11.55,1.72A113.73,113.73,0,0,0,48.34,125.81Z"/></g><path class="cls-20" d="M32.8,36.22h0a.78.78,0,0,0,.71-.85L31.61,14.44a.79.79,0,0,0-.85-.71.78.78,0,0,0-.71.85L32,35.5A.78.78,0,0,0,32.8,36.22Z"/><path class="cls-16" d="M32.57,39.68A25.21,25.21,0,0,0,58.7,63.94a25.58,25.58,0,0,0,3.17-.31,25.22,25.22,0,1,0-29.3-24Z"/><path class="cls-17" d="M76.64,55.36a25.21,25.21,0,0,0-16.41-42,29.52,29.52,0,0,0-7.68,3.45A30.92,30.92,0,0,0,49,19.4a27.25,27.25,0,0,0-9,14.69A21.05,21.05,0,0,0,42.68,50C49.34,60.49,64.53,62.88,76.64,55.36Z"/><ellipse class="cls-21" cx="31.79" cy="40.35" rx="5.18" ry="7.55" transform="translate(-1.47 1.21) rotate(-2.12)"/><path class="cls-22" d="M27.46,40.51c.09,2.34,1.46,4.19,3.06,4.13a2,2,0,0,0,1-.28,4.43,4.43,0,0,0,1.79-4.06,4.45,4.45,0,0,0-2.08-3.92,2.08,2.08,0,0,0-1-.2C28.6,36.24,27.37,38.18,27.46,40.51Z"/><path class="cls-20" d="M29.4,40.44a4.47,4.47,0,0,0,2.08,3.92,4.43,4.43,0,0,0,1.79-4.06,4.45,4.45,0,0,0-2.08-3.92A4.44,4.44,0,0,0,29.4,40.44Z"/><path class="cls-16" d="M31.57,123.94a27.06,27.06,0,0,0,2.11,2.17c6.93,6.42,16.74,9.29,26.26,10.16a39.41,39.41,0,0,0,6,.18,19.67,19.67,0,0,0,6.35-1.32c3.86-1.56,7.17-5,7.43-9.21a6.13,6.13,0,0,0-2.47-5.6c-1.8-1.16-4.07-.93-6.25-.73l-1.1.09a21.9,21.9,0,0,1-19.59-9.51,21.66,21.66,0,0,1-2.69-5.35L47.3,104c-1.51-5.13-1.11-10.6-1.88-15.89-.65-4.45-5.16-16.66-11.56-11.79a11.83,11.83,0,0,0-2.66,3.22,44.86,44.86,0,0,0-7.15,22.41,33.2,33.2,0,0,0,5.26,19A28.22,28.22,0,0,0,31.57,123.94Z"/><path class="cls-17" d="M65.89,136.45a19.67,19.67,0,0,0,6.35-1.32c3.86-1.56,7.17-5,7.43-9.21a6.13,6.13,0,0,0-2.47-5.6c-1.8-1.16-4.07-.93-6.25-.73a13.76,13.76,0,0,0-2.13,1.33,12.17,12.17,0,0,0-4.7,8.24A11.22,11.22,0,0,0,65.89,136.45Z"/><path class="cls-17" d="M31.57,123.94a27.06,27.06,0,0,0,2.11,2.17A8.38,8.38,0,0,1,34,124.7a15.2,15.2,0,0,1,3-5.31,29,29,0,0,1,13.31-9.22,21.66,21.66,0,0,1-2.69-5.35A33.41,33.41,0,0,0,36,111.31,22.35,22.35,0,0,0,30,119.18a15.39,15.39,0,0,0-.65,1.8A28.22,28.22,0,0,0,31.57,123.94Z"/><path class="cls-17" d="M34.74,85.12C34.3,81.74,30.18,81,29,84.4c-1,2.44.07,6.25,2.89,6.83C34.2,91.29,35.15,86.93,34.74,85.12Z"/><path class="cls-23" d="M70.55,134.66A5.68,5.68,0,0,0,74,136.25a21.25,21.25,0,0,0,5.61-.46,10.75,10.75,0,0,1,5.58.27l.5.23c.33.16.64.34,1,.52s.66.37,1,.54a4,4,0,0,0,2.69.45,2,2,0,0,0,1.55-2,2.08,2.08,0,0,0,3.34-2,1.63,1.63,0,0,0,2.41-1.74c.09.41,1.6-.16,1.78-.25a1.45,1.45,0,0,0,.9-1.44,3.08,3.08,0,0,0-.52-1.54,7.11,7.11,0,0,0-2.12-2.11,10.29,10.29,0,0,0-1-.58l-.32-.15a23,23,0,0,0-4.32-1.34l-9-2.15a16.81,16.81,0,0,0-6.4-.69,8.31,8.31,0,0,0-1.56.4,8.87,8.87,0,0,0-3.57,2.39,9.43,9.43,0,0,0-2.29,5c0,.14,0,.28,0,.42A5.94,5.94,0,0,0,70.55,134.66Z"/><path class="cls-24" d="M69.27,129.55l4.78.94a10.74,10.74,0,0,0,4.4.25,10.75,10.75,0,0,0,4.66-3,4.45,4.45,0,0,0,1-1.13,1.53,1.53,0,0,0,.08-1.44,2.18,2.18,0,0,0-1.05-.83,20.85,20.85,0,0,0-4-1.37,25.81,25.81,0,0,0-4-.78,8.87,8.87,0,0,0-3.57,2.39A9.43,9.43,0,0,0,69.27,129.55Z"/><path class="cls-24" d="M85.72,136.29c.33.16.64.34,1,.52a4.07,4.07,0,0,1,.71-1.1,4.25,4.25,0,0,1,2.52-1.38,3.85,3.85,0,0,1,1.14-2,1.75,1.75,0,0,1,1.47-.55,2.76,2.76,0,0,1,.79-1.54,3,3,0,0,1,1.63-.78s0,0,0,0a3.53,3.53,0,0,1,1.44-2.13,3.59,3.59,0,0,1,1.28-.53,10.29,10.29,0,0,0-1-.58,4.1,4.1,0,0,0-2.22,2.4,3.64,3.64,0,0,0-3.08,2.33,4.55,4.55,0,0,0-1.54.73,1.63,1.63,0,0,0-.62,1.56,4.22,4.22,0,0,0-2.87,1.75A4,4,0,0,0,85.72,136.29Z"/><path class="cls-16" d="M204.45,102.52l-5.75,22.23c-.67-.18-1.33-.35-2-.51-13.46-3.41-27.14-6.18-41-6.72-1.07,0-2.15-.07-3.23-.08-1.9,0-3.8,0-5.69.06a98,98,0,0,0-22.26,3.27,79.33,79.33,0,0,0-11.49,4.1,1.67,1.67,0,0,1-2.32-.69l0-.08h0a5.74,5.74,0,0,1-.28-2.89l.75-9.93c0-.32.05-.64.07-1s.06-.81.07-1.22a14.38,14.38,0,0,0-.24-3.47,6.81,6.81,0,0,0-3-4.61,124.72,124.72,0,0,1,40.08-2.38c2,.2,4.08.46,6.1.77a118.42,118.42,0,0,1,39.36,13.28c.89-2.63,1.82-5.33,3.6-7.46a7.92,7.92,0,0,1,5.15-2.84A6.78,6.78,0,0,1,204.45,102.52Z"/><g class="cls-25"><path class="cls-26" d="M200.44,118l-.3,1.18a199.83,199.83,0,0,0-88.94-8.86c0-.41.06-.81.07-1.22a200.09,200.09,0,0,1,89.17,8.9Z"/></g><path class="cls-27" d="M154.19,99.41a116,116,0,0,1-1.56,17c0,.34-.11.69-.17,1-1.9,0-3.8,0-5.69.06a132.16,132.16,0,0,0,1.32-18.86C150.13,98.84,152.17,99.1,154.19,99.41Z"/><path class="cls-27" d="M204.45,102.52l-5.75,22.23c-.67-.18-1.33-.35-2-.51.3-1.17.59-2.34.89-3.51a3,3,0,1,1,1.19-4.73l3.52-13.61A6.78,6.78,0,0,1,204.45,102.52Z"/><path class="cls-16" d="M206.92,115.66l-6.87,26.54-2-.52c-13.61-3.43-27.48-6.09-41.63-6.11-1.1,0-2.2,0-3.3,0-1.94.06-3.88.16-5.83.33a91.52,91.52,0,0,0-22.9,4.86,80.18,80.18,0,0,0-11.93,5.36,1.52,1.52,0,0,1-2.34-.72l0-.09h0a7.58,7.58,0,0,1-.16-3.4q.6-5.89,1.21-11.78l.12-1.15c0-.48.09-1,.12-1.44a19.9,19.9,0,0,0-.09-4.09,7.47,7.47,0,0,0-2.88-5.32,113.17,113.17,0,0,1,41.08-4.6c2.07.16,4.14.37,6.2.65a101.88,101.88,0,0,1,39.65,13.94c1-3.14,2.09-6.37,4-9a8.74,8.74,0,0,1,5.39-3.59A5.76,5.76,0,0,1,206.92,115.66Z"/><g class="cls-28"><path class="cls-29" d="M202.14,134.14l-.37,1.41A174.13,174.13,0,0,0,111.25,129c0-.48.09-1,.12-1.44a176.16,176.16,0,0,1,53.26-2.06A170.64,170.64,0,0,1,202.14,134.14Z"/></g><path class="cls-27" d="M155.68,114.22a160.76,160.76,0,0,1-2.35,20.17c-.07.4-.15.81-.22,1.22-1.94.06-3.88.16-5.83.33a183.53,183.53,0,0,0,2.2-22.37C151.55,113.73,153.62,113.94,155.68,114.22Z"/><path class="cls-27" d="M206.92,115.66l-6.87,26.54-2-.52c.35-1.39.7-2.78,1.06-4.18a2.82,2.82,0,0,1-3.82-1.47,4.26,4.26,0,0,1,1.19-4.67,2.8,2.8,0,0,1,4.05.5l4.21-16.26A5.76,5.76,0,0,1,206.92,115.66Z"/><path class="cls-16" d="M97.38,102.48a64.31,64.31,0,0,0,5.67,3.19l1,.47a52.67,52.67,0,0,0,27.78,5.08,42.17,42.17,0,0,0,7.84-1.55,17,17,0,0,0,5.55-2.59,7.74,7.74,0,0,0,3.12-5.11c.36-3.32-2.16-6.41-5.19-7.81a20.87,20.87,0,0,0-7.93-1.51h0c-.62,0-1.25-.05-1.88-.06-7-.2-14.23-.62-20.56-3.24a26.57,26.57,0,0,1-4.7-2.51l-.32-.22c-5.27-3.68-8.88-9.24-12.6-14.5a69.67,69.67,0,0,0-5.27-6.73,30.16,30.16,0,0,0-5.64-4.94c-1.3-.86-2.74-2.13-4.33-2.28a10,10,0,0,0-9.65,6,12.72,12.72,0,0,0,.13,9A31,31,0,0,0,75,81.05,84.89,84.89,0,0,0,97.38,102.48Z"/><path class="cls-17" d="M131.81,111.22a42.17,42.17,0,0,0,7.84-1.55,17,17,0,0,0,5.55-2.59,7.74,7.74,0,0,0,3.12-5.11c.36-3.32-2.16-6.41-5.19-7.81a20.87,20.87,0,0,0-7.93-1.51h0a12.16,12.16,0,0,0-2.68,2.07,12.83,12.83,0,0,0-3,12.3A10,10,0,0,0,131.81,111.22Z"/><path class="cls-17" d="M97.38,102.48a64.31,64.31,0,0,0,5.67,3.19l1,.47a22.82,22.82,0,0,1,6.83-15.28,13.6,13.6,0,0,1,1.89-1.51,26.57,26.57,0,0,1-4.7-2.51l-.32-.22a57.33,57.33,0,0,0-7.34,9.57A28.18,28.18,0,0,0,97.38,102.48Z"/><path class="cls-23" d="M134.61,108.22a5.74,5.74,0,0,0,3.48,1.59,21.25,21.25,0,0,0,5.61-.46,10.75,10.75,0,0,1,5.58.27l.5.23c.33.16.64.34,1,.51s.66.38,1,.54a4,4,0,0,0,2.69.46,2,2,0,0,0,1.55-2,2.13,2.13,0,0,0,2.37.15,2.11,2.11,0,0,0,1-2.16,1.63,1.63,0,0,0,2.42-1.74c.08.41,1.6-.16,1.78-.26a1.42,1.42,0,0,0,.9-1.43,3.08,3.08,0,0,0-.52-1.54,7.23,7.23,0,0,0-2.12-2.11,10.29,10.29,0,0,0-1-.58,3.18,3.18,0,0,0-.32-.16,23.77,23.77,0,0,0-4.32-1.34l-9-2.14a16.61,16.61,0,0,0-6.4-.69,7.87,7.87,0,0,0-1.57.4,8.83,8.83,0,0,0-3.57,2.39,9.38,9.38,0,0,0-2.28,5c0,.14,0,.28-.05.42A5.94,5.94,0,0,0,134.61,108.22Z"/><path class="cls-24" d="M133.33,103.11l4.77.94a11,11,0,0,0,4.41.25,10.81,10.81,0,0,0,4.66-3,4.39,4.39,0,0,0,1-1.13,1.54,1.54,0,0,0,.09-1.44,2.12,2.12,0,0,0-1.05-.83,20.41,20.41,0,0,0-4-1.37,25.71,25.71,0,0,0-4-.78,8.83,8.83,0,0,0-3.57,2.39A9.38,9.38,0,0,0,133.33,103.11Z"/><path class="cls-24" d="M149.78,109.85c.33.16.64.34,1,.51a4.37,4.37,0,0,1,.7-1.1,4.32,4.32,0,0,1,2.53-1.37,3.87,3.87,0,0,1,1.13-2,1.74,1.74,0,0,1,1.48-.55,2.82,2.82,0,0,1,.79-1.55A3,3,0,0,1,159,103s0,0,.06,0a3.46,3.46,0,0,1,2.72-2.65,10.29,10.29,0,0,0-1-.58,4.12,4.12,0,0,0-2.23,2.4,3.64,3.64,0,0,0-3.07,2.33,4.55,4.55,0,0,0-1.54.73,1.63,1.63,0,0,0-.62,1.56,4.22,4.22,0,0,0-2.88,1.75A3.9,3.9,0,0,0,149.78,109.85Z"/><path class="cls-23" d="M48.51,70.35a21.41,21.41,0,0,0,7.1,3,31,31,0,0,0,13.17.24,30.43,30.43,0,0,0,7-2.25,20.47,20.47,0,0,0,3.78-2.22,12.36,12.36,0,0,0,2.7-2.75,8,8,0,0,0,1-7.83,9.26,9.26,0,0,0-1.68-2.33,7.56,7.56,0,0,0-2.86-2c-1.51-.49-3.5.77-4.64,1.63-1,.74-1.87,1.6-2.79,2.42l-.63.53A20,20,0,0,1,61.77,63a18.17,18.17,0,0,1-1.8.27,20,20,0,0,1-11.31-2.2,11.37,11.37,0,0,0-2.18-1,2.83,2.83,0,0,0-2.33.24,2.28,2.28,0,0,0-.81,1,2.85,2.85,0,0,0-.21,1,5.19,5.19,0,0,0,.46,2.25A13.3,13.3,0,0,0,48.51,70.35Z"/><g class="cls-30"><path class="cls-31" d="M44.7,62.71a26,26,0,0,0,15.62,5.48,25.34,25.34,0,0,0,5.95-.63,26.15,26.15,0,0,0,9.8-4.47l.38-.29a18.6,18.6,0,0,0,2.27-2.08,15.5,15.5,0,0,0,2.8-4.53,7.56,7.56,0,0,0-2.86-2c-1.51-.49-3.5.77-4.64,1.63-1,.74-1.87,1.6-2.79,2.42l-.63.53A20,20,0,0,1,61.77,63a18.17,18.17,0,0,1-1.8.27,20,20,0,0,1-11.31-2.2,11.37,11.37,0,0,0-2.18-1,2.83,2.83,0,0,0-2.33.24,2.28,2.28,0,0,0-.81,1A5.21,5.21,0,0,0,44.7,62.71Z"/></g><path class="cls-24" d="M68.78,73.57a30.43,30.43,0,0,0,7-2.25,20.47,20.47,0,0,0,3.78-2.22,17.53,17.53,0,0,0-2.33-5.27c-.24-.35-.48-.7-.74-1a17.57,17.57,0,0,0-5.22-4.53l-.63.53A20,20,0,0,1,61.77,63a16.91,16.91,0,0,1,4.5,4.58q.3.45.57.93A17.87,17.87,0,0,1,68.78,73.57Z"/><path class="cls-32" d="M40.87,42.54a.77.77,0,0,0,0,.15c1.2,9.6,10,17.68,21.47,18.93,13.11,1.42,24.74-6.63,26-18a19.49,19.49,0,0,0-5.93-15.86c-.49-.49-1-1-1.55-1.43a26.27,26.27,0,0,0-14-5.84c-13.12-1.43-24.75,6.62-26,18A17.77,17.77,0,0,0,40.87,42.54Z"/><path class="cls-33" d="M40.87,42.54a.77.77,0,0,0,0,.15c1.2,9.6,10,17.68,21.47,18.93,13.11,1.42,24.74-6.63,26-18a19.49,19.49,0,0,0-5.93-15.86,37.13,37.13,0,0,1,1.48,15.57c-.34,2.81-1.06,5.7-2.92,7.83s-5.12,3.25-7.63,1.94c-1.79-.94-2.84-2.85-3.68-4.69S68,44.62,66.49,43.32s-4.15-1.63-5.48-.11c-1,1.21-.93,3-.61,4.59s.76,3.25.16,4.73a4.75,4.75,0,0,1-4.71,2.59A10.9,10.9,0,0,1,50.59,53,31.9,31.9,0,0,1,40.87,42.54Z"/><path class="cls-20" d="M101.41,92.89a9.91,9.91,0,0,1-4,4.72c-3.1,1.91-20.59,11.17-22.67,11.06s-13-19-12.46-21c.21-.81,1.8-1.54,1.8-1.54S91.78,82.7,101.41,92.89Z"/><path class="cls-21" d="M93,74.3s9.24,15.31,8.44,18.59C100.89,95,77.68,106,76,106.39c-2.39.5-13.38-19.6-12-20.25S91.65,71.34,93,74.3Z"/><path class="cls-20" d="M73.11,88.65a2.71,2.71,0,0,0,1.41.15,1.17,1.17,0,0,0,.79-.45A2.67,2.67,0,0,0,75.17,86,1.92,1.92,0,0,0,73.28,85a1.72,1.72,0,0,0-1.2.88,1.86,1.86,0,0,0-.24.84A2.11,2.11,0,0,0,73.11,88.65Z"/><path class="cls-22" d="M73.11,88.65a2.71,2.71,0,0,0,1.41.15,3,3,0,0,0-.3-2,1.91,1.91,0,0,0-1.89-1l-.25.07a1.86,1.86,0,0,0-.24.84A2.11,2.11,0,0,0,73.11,88.65Z"/><path class="cls-20" d="M81.69,92.37l10.89-5.08,1.66-.77-1.92-3.69-1.85.8c-3.18,1.39-9.42,4.13-10.15,4.68C79.34,89.05,81.69,92.37,81.69,92.37Z"/><path class="cls-22" d="M81.69,92.37l10.89-5.08-2.11-3.66c-3.18,1.39-9.42,4.13-10.15,4.68C79.34,89.05,81.69,92.37,81.69,92.37Z"/><path class="cls-20" d="M77.42,96.89a.86.86,0,0,0,.38-.13,1.56,1.56,0,0,0-1.55-2.63.83.83,0,0,0-.3.26,1.52,1.52,0,0,0,0,1.69A1.51,1.51,0,0,0,77.42,96.89Z"/><path class="cls-22" d="M77.42,96.89a1.5,1.5,0,0,0,0-1.69A1.54,1.54,0,0,0,76,94.39a1.52,1.52,0,0,0,0,1.69A1.51,1.51,0,0,0,77.42,96.89Z"/><path class="cls-34" d="M163.61,19.7c.48-.14,35.86-14.06,35.86-14.06L197.07,0Z"/><path class="cls-35" d="M168.2,17.37h0l0,0Z"/><path class="cls-35" d="M168.9,17h0l0,0Z"/><polygon class="cls-36" points="201.05 0.89 200.1 13.11 163.7 19.63 201.05 0.89"/><polygon class="cls-37" points="163.7 19.63 201.05 0.89 213.44 3.71 163.7 19.63"/></g></g></g></svg>