<svg xmlns="http://www.w3.org/2000/svg" xmlns:xlink="http://www.w3.org/1999/xlink" viewBox="0 0 285.27862 278.91327"><defs><style>.cls-1{mask:url(#mask);filter:url(#luminosity-noclip-6);}.cls-10,.cls-14,.cls-17,.cls-2,.cls-25,.cls-27,.cls-29,.cls-31,.cls-38,.cls-39,.cls-4,.cls-6,.cls-8{mix-blend-mode:multiply;}.cls-2{fill:url(#linear-gradient);}.cls-3{mask:url(#mask-2);filter:url(#luminosity-noclip-7);}.cls-4{fill:url(#linear-gradient-2);}.cls-5{mask:url(#mask-3);filter:url(#luminosity-noclip-8);}.cls-6{fill:url(#linear-gradient-3);}.cls-7{mask:url(#mask-4);filter:url(#luminosity-noclip-9);}.cls-8{fill:url(#linear-gradient-4);}.cls-9{mask:url(#mask-5);filter:url(#luminosity-noclip-10);}.cls-10{fill:url(#linear-gradient-5);}.cls-11{isolation:isolate;}.cls-12{fill:url(#linear-gradient-6);}.cls-13{fill:#e2ecf0;}.cls-14{fill:#ebebeb;}.cls-15{fill:#eef4f6;}.cls-16,.cls-35{fill:#fff;}.cls-17{fill:#909a9d;}.cls-18{fill:#e2d8ba;}.cls-19{fill:#f6f3ec;}.cls-20{fill:#dd641d;}.cls-21{fill:#f49529;}.cls-22{fill:#fac52f;}.cls-23{fill:#fddb82;}.cls-24{mask:url(#mask-6);}.cls-25{fill:url(#linear-gradient-7);}.cls-26{mask:url(#mask-7);}.cls-27{fill:url(#linear-gradient-8);}.cls-28{mask:url(#mask-8);}.cls-29{fill:url(#linear-gradient-9);}.cls-30{mask:url(#mask-9);}.cls-31{fill:url(#linear-gradient-10);}.cls-32{fill:#3d84f8;}.cls-33{fill:#93cdf7;}.cls-34{fill:#010b25;}.cls-35{opacity:0.13;}.cls-36{fill:#fad56e;}.cls-37{mask:url(#mask-10);}.cls-38{fill:url(#linear-gradient-11);}.cls-39{fill:#47af93;}.cls-40{filter:url(#luminosity-noclip-5);}.cls-41{filter:url(#luminosity-noclip-4);}.cls-42{filter:url(#luminosity-noclip-3);}.cls-43{filter:url(#luminosity-noclip-2);}.cls-44{filter:url(#luminosity-noclip);}</style><filter id="luminosity-noclip" x="137.01091" y="-2980.78132" width="70.28862" height="32766" filterUnits="userSpaceOnUse" color-interpolation-filters="sRGB"><feFlood flood-color="#fff" result="bg"/><feBlend in="SourceGraphic" in2="bg"/></filter><mask id="mask" x="137.01091" y="-2980.78132" width="70.28862" height="32766" maskUnits="userSpaceOnUse"><g class="cls-44"/></mask><linearGradient id="linear-gradient" x1="-2692.84528" y1="1741.99838" x2="-2671.1535" y2="1816.95294" gradientTransform="matrix(-0.46945, 0.88296, 0.88296, 0.46945, -2653.76772, 1634.25058)" gradientUnits="userSpaceOnUse"><stop offset="0"/><stop offset="0.99441" stop-color="#fff"/></linearGradient><filter id="luminosity-noclip-2" x="207.58091" y="-2980.78132" width="70.50942" height="32766" filterUnits="userSpaceOnUse" color-interpolation-filters="sRGB"><feFlood flood-color="#fff" result="bg"/><feBlend in="SourceGraphic" in2="bg"/></filter><mask id="mask-2" x="207.58091" y="-2980.78132" width="70.50942" height="32766" maskUnits="userSpaceOnUse"><g class="cls-43"/></mask><linearGradient id="linear-gradient-2" x1="-3909.63261" y1="3806.52366" x2="-3897.42859" y2="3806.52366" gradientTransform="matrix(-0.80004, 0.59995, 0.59995, 0.80004, -5164.74826, -504.34192)" xlink:href="#linear-gradient"/><filter id="luminosity-noclip-3" x="189.33311" y="-2980.78132" width="24.99978" height="32766" filterUnits="userSpaceOnUse" color-interpolation-filters="sRGB"><feFlood flood-color="#fff" result="bg"/><feBlend in="SourceGraphic" in2="bg"/></filter><mask id="mask-3" x="189.33311" y="-2980.78132" width="24.99978" height="32766" maskUnits="userSpaceOnUse"><g class="cls-42"/></mask><linearGradient id="linear-gradient-3" x1="-4976.40027" y1="2582.45112" x2="-4953.21544" y2="2582.45112" gradientTransform="matrix(-0.94799, 0.31831, 0.31831, 0.94799, -5326.90135, -662.97602)" xlink:href="#linear-gradient"/><filter id="luminosity-noclip-4" x="170.21043" y="-2980.78132" width="53.74593" height="32766" filterUnits="userSpaceOnUse" color-interpolation-filters="sRGB"><feFlood flood-color="#fff" result="bg"/><feBlend in="SourceGraphic" in2="bg"/></filter><mask id="mask-4" x="170.21043" y="-2980.78132" width="53.74593" height="32766" maskUnits="userSpaceOnUse"><g class="cls-41"/></mask><linearGradient id="linear-gradient-4" x1="-5579.20663" y1="534.26449" x2="-5742.43347" y2="506.12193" gradientTransform="matrix(-0.99688, -0.07894, -0.07894, 0.99688, -5456.78576, -872.01861)" xlink:href="#linear-gradient"/><filter id="luminosity-noclip-5" x="114.05665" y="-2980.78132" width="74.81074" height="32766" filterUnits="userSpaceOnUse" color-interpolation-filters="sRGB"><feFlood flood-color="#fff" result="bg"/><feBlend in="SourceGraphic" in2="bg"/></filter><mask id="mask-5" x="114.05665" y="-2980.78132" width="74.81074" height="32766" maskUnits="userSpaceOnUse"><g class="cls-40"/></mask><linearGradient id="linear-gradient-5" x1="-1072.5334" y1="275.56482" x2="-1048.15138" y2="359.81529" gradientTransform="matrix(-0.49438, 0.64057, 0.76076, 0.58714, -610.41712, 582.14001)" xlink:href="#linear-gradient"/><linearGradient id="linear-gradient-6" x1="129.66962" y1="-411.89648" x2="130.07599" y2="-307.86192" gradientTransform="translate(-46.54807 460.81431) rotate(-0.31316)" gradientUnits="userSpaceOnUse"><stop offset="0" stop-color="#efe7d8"/><stop offset="0.40032" stop-color="#ece4d5"/><stop offset="0.7208" stop-color="#e2dbcd"/><stop offset="0.98536" stop-color="#d3cec1"/></linearGradient><filter id="luminosity-noclip-6" x="137.01091" y="70.97412" width="70.28862" height="53.09242" filterUnits="userSpaceOnUse" color-interpolation-filters="sRGB"><feFlood flood-color="#fff" result="bg"/><feBlend in="SourceGraphic" in2="bg"/></filter><mask id="mask-6" x="137.01091" y="70.97412" width="70.28862" height="53.09242" maskUnits="userSpaceOnUse"><g class="cls-1"><path class="cls-2" d="M140.74794,124.06655a76.72057,76.72057,0,0,0,28.12387-7.31591,88.61552,88.61552,0,0,0,10.24381-5.66554,97.65115,97.65115,0,0,0,21.97053-19.394,42.69826,42.69826,0,0,0,3.34435-4.43409,21.49247,21.49247,0,0,0,1.6329-3.04062,12.87731,12.87731,0,0,0,.77619-8.79267,10.35156,10.35156,0,0,0-2.83513-4.44965,16.29517,16.29517,0,0,1,.52751,3.45879,25.37556,25.37556,0,0,1-3.02013,11.777c-2.98742,5.684-7.69657,10.2816-12.732,14.26828a96.02524,96.02524,0,0,1-35.62208,17.66837c-3.35784.862-6.86387,1.54341-10.27909.94034a11.33486,11.33486,0,0,1-5.86774-2.902A11.90024,11.90024,0,0,0,140.74794,124.06655Z"/></g></mask><linearGradient id="linear-gradient-7" x1="-2692.84528" y1="1741.99838" x2="-2671.1535" y2="1816.95294" gradientTransform="matrix(-0.46945, 0.88296, 0.88296, 0.46945, -2653.76772, 1634.25058)" gradientUnits="userSpaceOnUse"><stop offset="0" stop-color="#fff"/><stop offset="0.99441" stop-color="#f2b52a"/></linearGradient><filter id="luminosity-noclip-7" x="207.58091" y="145.02966" width="70.50942" height="106.78567" filterUnits="userSpaceOnUse" color-interpolation-filters="sRGB"><feFlood flood-color="#fff" result="bg"/><feBlend in="SourceGraphic" in2="bg"/></filter><mask id="mask-7" x="207.58091" y="145.02966" width="70.50942" height="106.78567" maskUnits="userSpaceOnUse"><g class="cls-3"><path class="cls-4" d="M276.64434,251.81533l1.446-1.08436a359.55856,359.55856,0,0,1-69.057-105.70131c-.47578.40169-.96161.793-1.45247,1.17455A361.4052,361.4052,0,0,0,276.64434,251.81533Z"/></g></mask><linearGradient id="linear-gradient-8" x1="-3909.63261" y1="3806.52366" x2="-3897.42859" y2="3806.52366" gradientTransform="matrix(-0.80004, 0.59995, 0.59995, 0.80004, -5164.74826, -504.34192)" xlink:href="#linear-gradient-7"/><filter id="luminosity-noclip-8" x="189.33311" y="138.46787" width="24.99978" height="132.80509" filterUnits="userSpaceOnUse" color-interpolation-filters="sRGB"><feFlood flood-color="#fff" result="bg"/><feBlend in="SourceGraphic" in2="bg"/></filter><mask id="mask-8" x="189.33311" y="138.46787" width="24.99978" height="132.80509" maskUnits="userSpaceOnUse"><g class="cls-5"><path class="cls-6" d="M212.60246,271.273l1.73043-.581a300.01831,300.01831,0,0,1-22.697-132.22406c-.60262.08484-1.20752.16287-1.81416.22442A300.16508,300.16508,0,0,0,212.60246,271.273Z"/></g></mask><linearGradient id="linear-gradient-9" x1="-4976.40027" y1="2582.45112" x2="-4953.21544" y2="2582.45112" gradientTransform="matrix(-0.94799, 0.31831, 0.31831, 0.94799, -5326.90135, -662.97602)" xlink:href="#linear-gradient-7"/><filter id="luminosity-noclip-9" x="170.21043" y="52.43435" width="53.74593" height="75.0776" filterUnits="userSpaceOnUse" color-interpolation-filters="sRGB"><feFlood flood-color="#fff" result="bg"/><feBlend in="SourceGraphic" in2="bg"/></filter><mask id="mask-9" x="170.21043" y="52.43435" width="53.74593" height="75.0776" maskUnits="userSpaceOnUse"><g class="cls-7"><path class="cls-8" d="M170.21043,93.2053c4.02323,13.42094,5.09268,21.01381,6.565,34.30666a24.646,24.646,0,0,1,5.72492-5.17872,32.10355,32.10355,0,0,1,12.38543-4.6477,39.71834,39.71834,0,0,1,13.36352.07054c4.25151.75116,8.69162,1.57857,12.93157,2.38466a2.793,2.793,0,0,0,1.88468-.085c.56015-.31429,1.23914-1.08233.68456-1.40742q-4.21865-13.50221-8.43551-27.00426c-2.2563-7.21646-4.53192-14.48491-8.1119-21.14475-3.58012-6.658-8.59114-12.74816-15.20356-16.41308a23.21386,23.21386,0,0,0-3.65393-1.65184,36.22362,36.22362,0,0,0-10.012,3.83A29.82217,29.82217,0,0,1,193.06151,69.758c1.617,3.09094,2.61,6.75605,3.81037,10.03208A43.86836,43.86836,0,0,0,170.21043,93.2053Z"/></g></mask><linearGradient id="linear-gradient-10" x1="-5579.20663" y1="534.26449" x2="-5742.43347" y2="506.12193" gradientTransform="matrix(-0.99688, -0.07894, -0.07894, 0.99688, -5456.78576, -872.01861)" xlink:href="#linear-gradient-7"/><filter id="luminosity-noclip-10" x="114.05665" y="67.28786" width="74.81074" height="36.06217" filterUnits="userSpaceOnUse" color-interpolation-filters="sRGB"><feFlood flood-color="#fff" result="bg"/><feBlend in="SourceGraphic" in2="bg"/></filter><mask id="mask-10" x="114.05665" y="67.28786" width="74.81074" height="36.06217" maskUnits="userSpaceOnUse"><g class="cls-9"><path class="cls-10" d="M117.15293,102.011a79.36125,79.36125,0,0,0,29.22369-.03568A81.10692,81.10692,0,0,0,181.339,86.16294a33.209,33.209,0,0,0,3.79316-3.37433,16.46951,16.46951,0,0,0,1.93016-2.47552,10.87829,10.87829,0,0,0,1.57309-8.12406,11.86031,11.86031,0,0,0-2.48316-4.90117,15.321,15.321,0,0,1,.22727,3.39956,20.2,20.2,0,0,1-4.119,10.39685c-3.54208,4.6435-8.73632,7.83851-14.20753,10.376A89.47619,89.47619,0,0,1,130.28822,99.45a27.387,27.387,0,0,1-10.52638-1.62616,14.4452,14.4452,0,0,1-5.70207-4.17987A12.89235,12.89235,0,0,0,117.15293,102.011Z"/></g></mask><linearGradient id="linear-gradient-11" x1="-1072.5334" y1="275.56482" x2="-1048.15138" y2="359.81529" gradientTransform="matrix(-0.49438, 0.64057, 0.76076, 0.58714, -610.41712, 582.14001)" xlink:href="#linear-gradient-7"/></defs><title>guide-2</title><g class="cls-11"><g id="Layer_2" data-name="Layer 2"><g id="Layer_1-2" data-name="Layer 1"><path class="cls-12" d="M96.96945,52.60551a25.65712,25.65712,0,0,0-31.71159.17333L0,105.41218,81.75414,169.89l81.04631-65.36705Z"/><rect class="cls-13" x="38.91416" y="90.85704" width="78.28344" height="91.24758" transform="translate(-0.74479 0.42866) rotate(-0.31316)"/><rect class="cls-14" x="42.79854" y="98.20108" width="74.41913" height="83.89293" transform="translate(-0.7648 0.43939) rotate(-0.31316)"/><rect class="cls-15" x="44.93023" y="96.80769" width="78.28344" height="91.24758" transform="translate(-0.77722 0.46163) rotate(-0.31316)"/><rect class="cls-14" x="49.00193" y="104.94208" width="74.23396" height="83.10206" transform="translate(-0.79939 0.47288) rotate(-0.31316)"/><rect class="cls-16" x="50.94629" y="102.75835" width="78.28344" height="91.24758" transform="translate(-0.80966 0.4946) rotate(-0.31316)"/><rect class="cls-17" x="61.7848" y="123.20679" width="54.6479" height="2.36845" transform="translate(-0.67854 0.48889) rotate(-0.31316)"/><rect class="cls-17" x="61.82415" y="130.40552" width="54.6479" height="2.36845" transform="translate(-0.71789 0.48922) rotate(-0.31316)"/><rect class="cls-17" x="61.86417" y="137.7289" width="54.6479" height="2.36845" transform="translate(-0.75791 0.48954) rotate(-0.31316)"/><path class="cls-18" d="M162.80045,104.52292a10.93716,10.93716,0,0,1-13.5095.07489L93.55756,60.638a20.05277,20.05277,0,0,0-24.79222.13551L13.5079,105.34A10.92559,10.92559,0,0,1,0,105.41218L65.25786,52.77884a25.65712,25.65712,0,0,1,31.71159-.17333Z"/><path class="cls-14" d="M0,105.41218l38.81682,13.36367.02542,4.65161,5.98335-.0327.01524,2.78855,5.98409.09982-.043,2.6522,18.43435,8.53914a35.59087,35.59087,0,0,1,13.43015-2.57934c7.90816-.04323,11.35283,3.19562,11.35283,3.19562l35.08315-16.78082-.0283-5.17762,32.78-10.48795-64.32922,46.8362-37.16834.20315Z"/><polygon class="cls-19" points="80.352 151.263 0 105.412 0.506 197.992 80.352 151.263"/><polygon class="cls-19" points="82.956 151.249 162.8 104.523 163.306 197.102 82.956 151.249"/><path class="cls-16" d="M65.76354,145.35989.506,197.99169l162.80045-.88982-65.8281-51.91532A25.66155,25.66155,0,0,0,65.76354,145.35989Z"/><path class="cls-20" d="M136.89471,127.19752a26.919,26.919,0,0,0-.94692,3.93519c-.05283.31737-.10348.63435-.14764.95017-.07107.51571-.1316,1.02763-.18227,1.532a3.24666,3.24666,0,0,0,.0502,1.26859,1.35283,1.35283,0,0,0,.88564.92406,1.8876,1.8876,0,0,0,2.01721-.97864,5.43362,5.43362,0,0,0,.42777-2.12294c.0079-.06835.01583-.13671.02586-.20544a7.58361,7.58361,0,0,1,.16918-.91769,10.09986,10.09986,0,0,1,1.84929-3.78957"/><path class="cls-21" d="M139.19374,131.58286a9.0981,9.0981,0,0,1-3.24595-.45015c-.05283.31737-.10348.63435-.14764.95017a10.07911,10.07911,0,0,0,3.22441.41767A7.58361,7.58361,0,0,1,139.19374,131.58286Z"/><path class="cls-22" d="M140.74794,124.06655a76.72057,76.72057,0,0,0,28.12387-7.31591,88.61552,88.61552,0,0,0,10.24381-5.66554,97.65115,97.65115,0,0,0,21.97053-19.394,42.69826,42.69826,0,0,0,3.34435-4.43409,21.49247,21.49247,0,0,0,1.6329-3.04062,12.87731,12.87731,0,0,0,.77619-8.79267,10.35156,10.35156,0,0,0-2.83513-4.44965,13.23908,13.23908,0,0,0-7.00816-3.38625c-4.37006-.66713-9.10326,1.10159-12.96217,3.2619-.1823.57252-.375,1.14156-.574,1.70724a58.46905,58.46905,0,0,1-14.70845,22.97621q-.96962.92816-1.98558,1.81338a60.84649,60.84649,0,0,1-5.37772,4.175,59.29122,59.29122,0,0,1-23.45538,9.67588,9.98168,9.98168,0,0,0-.9221,4.98739A11.90024,11.90024,0,0,0,140.74794,124.06655Z"/><path class="cls-23" d="M205.78665,75.64883a21.49207,21.49207,0,0,0,3.4394.28676,12.87729,12.87729,0,0,0,8.37433-2.79c3.35325-2.88121,4.3938-7.87395,3.26715-12.1498-1.12859-4.27419-4.63613-7.91133-8.15464-10.59054-.59775.0608-1.19645.11072-1.7946.15347a6.79337,6.79337,0,0,1,.73031.74629,17.57218,17.57218,0,0,1,3.31215,6.15022,15.37748,15.37748,0,0,1-2.31761,13.56406A13.39765,13.39765,0,0,1,205.78665,75.64883Z"/><g class="cls-24"><path class="cls-25" d="M140.74794,124.06655a76.72057,76.72057,0,0,0,28.12387-7.31591,88.61552,88.61552,0,0,0,10.24381-5.66554,97.65115,97.65115,0,0,0,21.97053-19.394,42.69826,42.69826,0,0,0,3.34435-4.43409,21.49247,21.49247,0,0,0,1.6329-3.04062,12.87731,12.87731,0,0,0,.77619-8.79267,10.35156,10.35156,0,0,0-2.83513-4.44965,16.29517,16.29517,0,0,1,.52751,3.45879,25.37556,25.37556,0,0,1-3.02013,11.777c-2.98742,5.684-7.69657,10.2816-12.732,14.26828a96.02524,96.02524,0,0,1-35.62208,17.66837c-3.35784.862-6.86387,1.54341-10.27909.94034a11.33486,11.33486,0,0,1-5.86774-2.902A11.90024,11.90024,0,0,0,140.74794,124.06655Z"/></g><path class="cls-22" d="M252.80127,269.69534l32.47735-24.35489q-.68877-1.05323-1.38723-2.10142c-11.29077-16.907-24.62151-32.38968-35.97085-49.264q-1.15119-1.71031-2.29085-3.48309-2.28725-3.55315-4.49256-7.32046c-9.02529-15.45513-16.50932-33.2451-17.90282-50.22619-1.52777-1.34254-1.24465-.70147-2.77351-2.04545a47.05119,47.05119,0,0,1-11.42742,14.12977c-.47578.40169-.96161.793-1.45247,1.17455a47.48683,47.48683,0,0,1-8.56089,5.288l-.00143.00108a45.77243,45.77243,0,0,1-4.75438,1.95513,112.02958,112.02958,0,0,0,8.04485,19.1637,181.308,181.308,0,0,0,17.735,26.77013q1.7904,2.28867,3.61994,4.53672.73026.89745,1.46521,1.78018c11.96143,14.37843,25.034,26.136,38.66231,41.89868-2.62,2.77093-7.97643,7.61863-9.69494,11.02278-1.41088,2.79618-2.38737,6.09976-1.86258,9.13538A8.77471,8.77471,0,0,0,252.80127,269.69534Z"/><g class="cls-26"><path class="cls-27" d="M276.64434,251.81533l1.446-1.08436a359.55856,359.55856,0,0,1-69.057-105.70131c-.47578.40169-.96161.793-1.45247,1.17455A361.4052,361.4052,0,0,0,276.64434,251.81533Z"/></g><path class="cls-23" d="M220.04408,199.38229q1.7904,2.28867,3.61994,4.53672.73026.89745,1.46521,1.78018c6.97337-4.86556,13.766-10.002,20.50046-15.2072q-2.28725-3.55315-4.49256-7.32046A197.655,197.655,0,0,1,220.04408,199.38229Z"/><path class="cls-23" d="M252.80127,269.69534l32.47735-24.35489q-.68877-1.05323-1.38723-2.10142c-1.80927,1.06709-3.71413,2.08457-5.47166,3.17573a5.12427,5.12427,0,0,0-9.70792.5632,5.37861,5.37861,0,0,0,1.9127,5.75184q-4.31753,3.52741-8.63358,7.05377-4.87973,3.986-9.75691,7.97246A8.77471,8.77471,0,0,0,252.80127,269.69534Z"/><path class="cls-22" d="M189.848,278.91327l32.67213-10.97036q-.49154-1.46388-.97512-2.93233c-6.5316-19.79122-12.121-39.98788-14.40373-60.694q-.26607-2.40948-.46681-4.82764-.35788-4.25774-.50845-8.53583a146.666,146.666,0,0,1,2.54077-33.67612,118.70361,118.70361,0,0,1,4.91725-17.64089,2.504,2.504,0,0,0-1.28577-3.39468c-.03981-.017-.07962-.03392-.12055-.04858l-.0017.00057a8.544,8.544,0,0,0-4.35055-.116q-7.394,1.09256-14.78857,2.18344c-.47879.06978-.95929.14014-1.44093.2071-.60262.08484-1.20752.16287-1.81416.22442a21.79883,21.79883,0,0,1-5.2235.016,10.235,10.235,0,0,1-7.21576-4.03219,187.08425,187.08425,0,0,0,.67926,60.26676q.78975,4.54485,1.80949,9.04659a177.83312,177.83312,0,0,0,24.04391,57.52536c-3.83883,1.61685-7.77354,3.29241-10.77838,6.17949a11.84885,11.84885,0,0,0-3.70264,8.01669A9.89162,9.89162,0,0,0,189.848,278.91327Z"/><g class="cls-28"><path class="cls-29" d="M212.60246,271.273l1.73043-.581a300.01831,300.01831,0,0,1-22.697-132.22406c-.60262.08484-1.20752.16287-1.81416.22442A300.16508,300.16508,0,0,0,212.60246,271.273Z"/></g><path class="cls-23" d="M179.87125,203.98943a174.17341,174.17341,0,0,0,25.28135-4.13358q.76064-.18149,1.52182-.367-.35788-4.25774-.50845-8.53583a199.46635,199.46635,0,0,1-28.10421,3.98977Q178.85151,199.48769,179.87125,203.98943Z"/><path class="cls-23" d="M189.848,278.91327l32.67213-10.97036q-.49154-1.46388-.97512-2.93233-2.57439.85018-5.151,1.69925a4.52585,4.52585,0,1,0-6.9542,2.28385L189.43414,275.711A9.89162,9.89162,0,0,0,189.848,278.91327Z"/><path class="cls-22" d="M169.81651,91.89811c.13447.44139.26742.879.39392,1.30719,4.02323,13.42094,5.09268,21.01381,6.565,34.30666.12643,1.13463.255,2.31085.38863,3.53615,2.5383,23.25178,57.14468,23.32065,63.04146,17.45083,5.89485-5.86812,4.727-21.95919,4.727-21.95919-.93425-18.95076-8.937-36.74008-16.80833-54.00356-2.33225-5.11924-4.78829-10.40508-9.04618-14.08a27.01217,27.01217,0,0,0-9.52318-5.029,40.82709,40.82709,0,0,0-21.20958-.99281,36.22362,36.22362,0,0,0-10.012,3.83c-.21882.12325-.43614.25022-.6518.37912-4.49293,2.68463-9.50786,2.19742-11.31522,7.10962C163.55612,71.383,167.44227,84.12263,169.81651,91.89811Z"/><g class="cls-30"><path class="cls-31" d="M170.21043,93.2053c4.02323,13.42094,5.09268,21.01381,6.565,34.30666a24.646,24.646,0,0,1,5.72492-5.17872,32.10355,32.10355,0,0,1,12.38543-4.6477,39.71834,39.71834,0,0,1,13.36352.07054c4.25151.75116,8.69162,1.57857,12.93157,2.38466a2.793,2.793,0,0,0,1.88468-.085c.56015-.31429,1.23914-1.08233.68456-1.40742q-4.21865-13.50221-8.43551-27.00426c-2.2563-7.21646-4.53192-14.48491-8.1119-21.14475-3.58012-6.658-8.59114-12.74816-15.20356-16.41308a23.21386,23.21386,0,0,0-3.65393-1.65184,36.22362,36.22362,0,0,0-10.012,3.83A29.82217,29.82217,0,0,1,193.06151,69.758c1.617,3.09094,2.61,6.75605,3.81037,10.03208A43.86836,43.86836,0,0,0,170.21043,93.2053Z"/></g><path class="cls-32" d="M207.78119,53.58949a1.573,1.573,0,0,0,.46537.291,1.54123,1.54123,0,0,0,.20049.06273q1.26842.30049,2.4951.71842c.17377.05882.34739.11943.51908.18168a27.35519,27.35519,0,0,1,2.88114,1.2374c.16476.08154.32744.16651.48833.25134a27.07415,27.07415,0,0,1,2.82414,1.70688c.14873.10189.29732.20557.444.3109a26.83181,26.83181,0,0,1,2.5994,2.13244c.13449.12238.26512.24807.3956.37555a25.98274,25.98274,0,0,1,1.788,1.90959c.11874.13917.2372.28191.35208.42438a25.86055,25.86055,0,0,1,2.95243,4.52494c1.20949,2.36481,4.93578.57647,3.72162-1.79772a30.38883,30.38883,0,0,0-2.131-3.54076c-.13433-.19266-.27224-.38561-.414-.57526a30.60088,30.60088,0,0,0-2.21108-2.68922c-.14434-.15741-.28895-.31124-.43729-.46356a31.226,31.226,0,0,0-3.12321-2.84616c-.15613-.1223-.31225-.2446-.4721-.36539a31.3051,31.3051,0,0,0-2.75292-1.87786c-.18234-.11-.3666-.21827-.551-.32479a29.90377,29.90377,0,0,0-3.23318-1.61671l-.00179-.00014c-.19685-.08588-.39234-.16624-.59141-.24688a29.18784,29.18784,0,0,0-3.44742-1.14167c-.20478-.05406-.40791-.10619-.61491-.155l-.00179-.00015-.069-.01627a2.11743,2.11743,0,0,0-2.64818,1.23751A2.25108,2.25108,0,0,0,207.78119,53.58949Z"/><path class="cls-33" d="M222.88182,62.76739c.11874.13917.2372.28191.35208.42438a8.8456,8.8456,0,0,1,4.543-.81354c-.13433-.19266-.27224-.38561-.414-.57526A9.36862,9.36862,0,0,0,222.88182,62.76739Z"/><path class="cls-33" d="M220.69821,60.48225c.13449.12238.26512.24807.3956.37555a9.981,9.981,0,0,1,4.058-1.744c-.14434-.15741-.28895-.31124-.43729-.46356A10.53781,10.53781,0,0,0,220.69821,60.48225Z"/><path class="cls-33" d="M217.65484,58.03891c.14873.10189.29732.20557.444.3109a12.55949,12.55949,0,0,1,3.4925-2.54578c-.15613-.1223-.31225-.2446-.4721-.36539A13.19329,13.19329,0,0,0,217.65484,58.03891Z"/><path class="cls-33" d="M214.34237,56.08069c.16476.08154.32744.16651.48833.25134a11.15584,11.15584,0,0,1,3.53559-2.77125c-.18234-.11-.3666-.21827-.551-.32479A11.70428,11.70428,0,0,0,214.34237,56.08069Z"/><path class="cls-33" d="M210.94215,54.66161c.17377.05882.34739.11943.51908.18168a10.86539,10.86539,0,0,1,3.11908-3.22415c-.19685-.08588-.39234-.16624-.59141-.24688A11.32353,11.32353,0,0,0,210.94215,54.66161Z"/><path class="cls-33" d="M207.78119,53.58949a1.573,1.573,0,0,0,.46537.291,9.12234,9.12234,0,0,1,2.29492-3.64987c-.20478-.05406-.40791-.10619-.61491-.155l-.00179-.00015A9.71366,9.71366,0,0,0,207.78119,53.58949Z"/><path class="cls-32" d="M172.46858,58.8836a28.99453,28.99453,0,0,0,4.18859-1.66342c.17064-.08381.33577-.16626.49359-.24748.50877-.25708.9497-.49971,1.3065-.704a7.82,7.82,0,0,1,.76541-.65308c.144-.11116.291-.21486.4411-.31291a8.331,8.331,0,0,1,.93585-.52965,9.20084,9.20084,0,0,1,1.59135-.59129c.17705-.05086.35531-.09441.53509-.13425a12.60145,12.60145,0,0,1,3.5923-.23279c.18476.011.36909.02742.55314.0474a16.43155,16.43155,0,0,1,1.70294.27543q.77886.1671,1.53937.40664c.17612.0518.35.10882.52351.17122a18.48186,18.48186,0,0,1,3.06823,1.37837c.1639.09228.32767.18635.48936.28386A19.3834,19.3834,0,0,1,196.9888,58.421c.13657.11895.2712.23955.40361.36537a18.22323,18.22323,0,0,1,1.50327,1.568c.11889.13737.2339.27805.34713.41858A17.90885,17.90885,0,0,1,200.78,63.00516a2.06654,2.06654,0,1,0,3.72163-1.79772q-.57344-.98617-1.2261-1.90474c-.1169-.16245-.23394-.32311-.3547-.48226a23.45092,23.45092,0,0,0-1.73312-2.05663c-.13651-.14237-.273-.28475-.4134-.42382a23.51838,23.51838,0,0,0-2.06361-1.84311c-.32229-.2544-.65051-.50207-.98675-.73956l-.00179-.00014c-.1622-.11377-.32455-.22575-.489-.33429a22.55654,22.55654,0,0,0-4.05228-2.152c-.17621-.07343-.35629-.14356-.53486-.21a21.81244,21.81244,0,0,0-3.88026-1.06961c-.192-.03323-.386-.06481-.57839-.09266a19.51748,19.51748,0,0,0-4.486-.157c-.16139.01245-.32127.02863-.48143.04839-.19462.02243-.38773.04859-.58141.08192a13.46479,13.46479,0,0,0-4.44378,1.54048c-.16777.093-.33224.19-.49534.2924a12.208,12.208,0,0,0-2.66071,2.21514q-.1896.20937-.3693.43033A10.88277,10.88277,0,0,0,172.46858,58.8836Z"/><path class="cls-33" d="M198.89568,60.35443c.11889.13737.2339.27805.34713.41858a12.78017,12.78017,0,0,1,4.03272-1.47031c-.1169-.16245-.23394-.32311-.3547-.48226A13.35759,13.35759,0,0,0,198.89568,60.35443Z"/><path class="cls-33" d="M196.9888,58.421c.13657.11895.2712.23955.40361.36537a13.69248,13.69248,0,0,1,3.7953-2.02257c-.13651-.14237-.273-.28475-.4134-.42382A14.30017,14.30017,0,0,0,196.9888,58.421Z"/><path class="cls-33" d="M193.70555,56.09384c.1639.09228.32767.18635.48936.28386a22.23331,22.23331,0,0,1,3.52725-2.62052c-.1622-.11377-.32455-.22575-.489-.33429-.27087.166-.53664.336-.79941.51342A22.534,22.534,0,0,0,193.70555,56.09384Z"/><path class="cls-33" d="M190.11381,54.54425c.17612.0518.35.10882.52351.17122a21.94285,21.94285,0,0,1,2.54359-3.44454c-.17621-.07343-.35629-.14356-.53486-.21q-.34419.38636-.66995.7904A22.117,22.117,0,0,0,190.11381,54.54425Z"/><path class="cls-33" d="M186.31836,53.81478c.18476.011.36909.02742.55314.0474a20.8581,20.8581,0,0,1,1.89429-3.87082c-.192-.03323-.386-.06481-.57839-.09266-.02669.04114-.05159.08242-.07648.12371A21.24715,21.24715,0,0,0,186.31836,53.81478Z"/><path class="cls-33" d="M182.191,54.18182c.17705-.05086.35531-.09441.53509-.13425a13.44689,13.44689,0,0,1,.49392-4.25745c-.19462.02243-.38773.04859-.58141.08192A14.015,14.015,0,0,0,182.191,54.18182Z"/><path class="cls-33" d="M177.69945,51.70492a10.45621,10.45621,0,0,0,1.52322,3.91075c.144-.11116.291-.21486.4411-.31291a9.92072,9.92072,0,0,1-1.469-3.89024C178.027,51.50557,177.86255,51.60249,177.69945,51.70492Z"/><path class="cls-33" d="M174.66944,54.35039a24.487,24.487,0,0,0,1.98773,2.86979c.17064-.08381.33577-.16626.49359-.24748a24.50146,24.50146,0,0,1-2.112-3.05264Q174.84914,54.12943,174.66944,54.35039Z"/><path class="cls-23" d="M191.41568,78.52538q3.485,17.40726,8.23078,34.52867.41148,1.49511.83577,2.98763,1.16727,4.10424,2.40459,8.18878c.98,3.237,2.39387,6.89034,5.59682,7.97841a10.80547,10.80547,0,0,0,3.936.32068q13.99192-.57087,27.98207-1.14186a23.59088,23.59088,0,0,0,6.0391-.77076c1.75866-.542,4.20825-1.5249,4.62488-3.21306a2.1075,2.1075,0,0,0,.06065-.5611,128.06066,128.06066,0,0,0-1.16624-14.31392q-.22938-1.678-.50617-3.349a128.73033,128.73033,0,0,0-6.39233-24.03817,70.18443,70.18443,0,0,0-7.46562-15.08126,15.46143,15.46143,0,0,0-9.81785-6.47433c-3.40068-.66217-6.84377-1.33491-10.14006-1.9726-4.5494-.88109-9.21565-1.766-13.78557-.99968a15.90937,15.90937,0,0,0-5.98836,2.29227,11.12744,11.12744,0,0,0-4.623,5.62462C190.13805,71.718,190.755,75.21639,191.41568,78.52538Z"/><path class="cls-21" d="M191.41568,78.52538q4.62553,23.11248,11.47114,45.70508c.98,3.237,2.39387,6.89034,5.59682,7.97841a10.80547,10.80547,0,0,0,3.936.32068q13.99192-.57087,27.98207-1.14186a23.59088,23.59088,0,0,0,6.0391-.77076c1.75866-.542,4.20825-1.5249,4.62488-3.21306a7.08974,7.08974,0,0,0-3.81217-.58662q-16.96692.96247-33.9319,1.9233l-.0766-.37553q-7.6572-30.88146-15.31591-61.76663c-.3291-1.32909-.73387-2.77231-1.85375-3.56026a1.84746,1.84746,0,0,0-.21122-.13207,11.12744,11.12744,0,0,0-4.623,5.62462C190.13805,71.718,190.755,75.21639,191.41568,78.52538Z"/><path class="cls-20" d="M199.64646,113.05405q.41148,1.49511.83577,2.98763a40.112,40.112,0,0,1,4.26093-1.84874c7.83037-2.88533,16.32339-3.37347,24.5837-3.63133,6.81143-.214,14.15322-.47969,20.6332,1.96724q-.22938-1.678-.50617-3.349a38.94544,38.94544,0,0,0-8.70123-1.59372,114.74367,114.74367,0,0,0-12.8833-.0127,117.26873,117.26873,0,0,0-13.60182,1.1181A51.4976,51.4976,0,0,0,199.64646,113.05405Z"/><path class="cls-21" d="M207.43686,63.69629l.53543,2.22852L211.206,79.39318l8.26378.83639,2.90724.29328a62.69313,62.69313,0,0,0-4.67875-15.24807Z"/><path class="cls-20" d="M207.97229,65.92481,211.206,79.39318l8.26378.83639A65.96238,65.96238,0,0,0,215.13187,67.027Z"/><path class="cls-32" d="M232.01313,132.71854q.08353,1.36911.19256,2.73484c.01419.185.02838.36991.0445.55322q.13262,1.60278.30326,3.20318c.02107.1891.042.38.06293.57089q.23436,2.12717.53778,4.24724c.02522.18222.05058.36263.07759.545q.18726,1.28811.40168,2.5748c.10373.62458.21378,1.26048.34353,1.89792.03611.18128.074.36271.11563.54264a16.69321,16.69321,0,0,0,1.48212,4.2932c.09743.18071.19873.35814.30747.53256a8.37274,8.37274,0,0,0,2.44182,2.59756,7.53,7.53,0,0,0,1.41787.75748c.17456.07149.34983.134.52567.18941a6.2668,6.2668,0,0,0,6.69028-1.73385c.12046-.13286.2321-.2682.341-.41457l.00014-.00179a6.56342,6.56342,0,0,0,.39252-.58711,11.91268,11.91268,0,0,0,1.254-3.04561l.00014-.00179c.04614-.173.08869-.34622.12974-.52319a19.22482,19.22482,0,0,0,.43429-3.41332c.007-.17967.01238-.36128.01761-.54109.02411-1.10107-.02083-2.195-.10156-3.24668-.02326-.32084-.05382-.64046-.09155-.96064-.02107-.18909-.04407-.37656-.07066-.5643a26.19248,26.19248,0,0,0-.78-3.6915c-.05208-.18435-.10789-.36719-.16384-.54824a26.708,26.708,0,0,0-1.29627-3.36292c-.07843-.17021-.1588-.33878-.2429-.50584q-.35572-.731-.75836-1.43877a1.77739,1.77739,0,0,0-1.05468-.86029c-.03614.75228-.12578,2.31675-.293,3.8823-.025.2251-.05021.452-.07689.67514-.05572.45336-.1179.8972-.18856,1.31153q.41858,1.09827.72462,2.22909c.04907.1769.09442.35529.138.53356a22.81581,22.81581,0,0,1,.55373,3.15814c.02.18.038.36166.05073.54289.01574.16527.02612.3301.03636.4967.041.68812.06857,1.43283.05816,2.20156-.00164.1801-.00522.36184-.01417.54316a15.52405,15.52405,0,0,1-.272,2.45656c-.03388.17754-.07314.35466-.11748.52777a7.48281,7.48281,0,0,1-1.09436,2.50858c-.00816.012-.01618.02215-.02419.03231a3.0506,3.0506,0,0,1-.35133.40835,2.81037,2.81037,0,0,1-3.55664.12387,4.81875,4.81875,0,0,1-.51372-.36326,4.9002,4.9002,0,0,1-1.044-1.155,7.89654,7.89654,0,0,1-.65607-1.27388c-.07415-.17889-.14263-.361-.20575-.54257a18.33794,18.33794,0,0,1-.63293-2.49936c-.00489-.02924-.01172-.05679-.01661-.086q-.05192-.26634-.09843-.53225c-.25622-1.38459-.46847-2.77832-.66638-4.17091-.02169-.15851-.04517-.31717-.06686-.47568-.002-.02-.00584-.04011-.00786-.06012q-.282-2.00386-.50192-4.01729c-.02013-.17822-.03833-.35808-.05488-.536q-.17918-1.66324-.31317-3.32831c-.01641-.17972-.03116-.35753-.044-.537q-.09988-1.265-.17634-2.5299a1.80778,1.80778,0,0,0-2.10382-1.42638A1.85732,1.85732,0,0,0,232.01313,132.71854Z"/><path class="cls-33" d="M244.59757,137.07442a14.669,14.669,0,0,0,2.42583-1.75254c-.07843-.17021-.1588-.33878-.2429-.50584a14.03267,14.03267,0,0,1-2.106,1.58324C244.64943,136.62438,244.62425,136.85126,244.59757,137.07442Z"/><path class="cls-33" d="M245.13363,140.615c.04907.1769.09442.35529.138.53356a24.32308,24.32308,0,0,0,3.2119-1.91556c-.05208-.18435-.10789-.36719-.16384-.54824A23.778,23.778,0,0,1,245.13363,140.615Z"/><path class="cls-33" d="M245.82534,144.30674c.02.18.038.36166.05073.54289a16.75368,16.75368,0,0,0,3.45813-1.36079c-.02107-.18909-.04407-.37656-.07066-.5643A16.28153,16.28153,0,0,1,245.82534,144.30674Z"/><path class="cls-33" d="M245.97059,147.54789c-.00164.1801-.00522.36184-.01417.54316a15.28431,15.28431,0,0,0,3.55328.1462c.007-.17967.01238-.36128.01761-.54109A14.47376,14.47376,0,0,1,245.97059,147.54789Z"/><path class="cls-33" d="M245.56692,151.07538q1.6893.55008,3.37875,1.09838c.04614-.173.08869-.34622.12974-.52319q-1.69446-.5532-3.391-1.103C245.65052,150.72515,245.61126,150.90227,245.56692,151.07538Z"/><path class="cls-33" d="M244.097,154.02462a17.61006,17.61006,0,0,0,2.86078,2.2c.12046-.13286.2321-.2682.341-.41457l.00014-.00179a17.038,17.038,0,0,1-2.85061-2.192A3.0506,3.0506,0,0,1,244.097,154.02462Z"/><path class="cls-33" d="M240.02668,153.78523q-.14151,1.992-.28481,3.98384c.17456.07149.34983.134.52567.18941q.14008-1.90562.27286-3.81A4.81875,4.81875,0,0,1,240.02668,153.78523Z"/><path class="cls-33" d="M235.57471,153.88147c.09743.18071.19873.35814.30747.53256a12.84171,12.84171,0,0,1,2.44447-3.0577c-.07415-.17889-.14263-.361-.20575-.54257A13.36188,13.36188,0,0,0,235.57471,153.88147Z"/><path class="cls-33" d="M233.977,149.04563c.03611.18128.074.36271.11563.54264a17.24641,17.24641,0,0,1,3.37877-1.35989q-.05192-.26634-.09843-.53225A17.807,17.807,0,0,0,233.977,149.04563Z"/><path class="cls-33" d="M233.15416,144.02791c.02522.18222.05058.36263.07759.545a20.962,20.962,0,0,1,3.4748-1.04769c-.02169-.15851-.04517-.31717-.06686-.47568-.002-.02-.00584-.04011-.00786-.06012A21.02886,21.02886,0,0,0,233.15416,144.02791Z"/><path class="cls-33" d="M232.55345,139.20978c.02107.1891.042.38.06293.57089a6.85044,6.85044,0,0,1,3.51353-.80854c-.02013-.17822-.03833-.35808-.05488-.536A7.39989,7.39989,0,0,0,232.55345,139.20978Z"/><path class="cls-33" d="M232.20569,135.45338c.01419.185.02838.36991.0445.55322a21.451,21.451,0,0,1,3.51167-.89879c-.01641-.17972-.03116-.35753-.044-.537A21.89821,21.89821,0,0,0,232.20569,135.45338Z"/><path class="cls-32" d="M174.08585,132.84631c-.00522.17981-.00866.35977-.01209.53972a33.38383,33.38383,0,0,0,.18655,3.99413c.01806.18165.03984.3618.06341.54209q.18508,1.52046.51808,3.01654l-.00014.00179c.03819.17784.08023.3524.12393.5289a29.99565,29.99565,0,0,0,1.168,3.77627c.06533.17639.13439.35125.20538.5245a29.27236,29.27236,0,0,0,1.234,2.66953q.60138,1.14516,1.29606,2.22748c.09612.15177.19416.30193.29579.45236a30.13535,30.13535,0,0,0,2.83774,3.62914c.12289.1323.24743.26652.37211.39894a30.10669,30.10669,0,0,0,3.71274,3.32177c.14608.11252.29245.22141.44255.32881a29.76268,29.76268,0,0,0,4.136,2.52806c.06744.036.135.07015.20439.1045.10062.04943.20124.09883.302.14646a26.73765,26.73765,0,0,0,5.974,2.032c.17533.03915.35273.07479.53027.10869a27.77347,27.77347,0,0,0,5.28882.51071c.18009.00164.36047-.00029.541-.004a27.13725,27.13725,0,0,0,4.31009-.42105c.17921-.03268.35841-.06535.538-.10339.60615-.1214,1.20864-.26475,1.80374-.42849a26.47186,26.47186,0,0,0,3.428-1.2082l.00179.00014c.164-.06813.32827-.13981.49118-.217a25.93958,25.93958,0,0,0,4.15156-2.35662c.15816-.10823.313-.22034.468-.33421a24.57093,24.57093,0,0,0,3.47123-3.07373q.186-.19881.36716-.40345a22.70786,22.70786,0,0,0,2.68293-3.702c.08992-.15688.18-.31556.26646-.47452.04442-.083.0887-.16419.13312-.24718a25.06557,25.06557,0,0,0,1.62792-3.80721c.06075-.17542.11627-.353.17179-.53068a25.26838,25.26838,0,0,0,.91683-4.20414c.02177-.18391.04368-.36961.06367-.55368a23.97543,23.97543,0,0,0,.09782-3.92114c-.0091-.18095-.02178-.36218-.03819-.5419a22.60614,22.60614,0,0,0-.63718-3.85681c-.0437-.17648-.091-.35324-.14363-.53042-.06819-.25411-.14368-.507-.22469-.75852a1.84165,1.84165,0,0,0-2.10576-1.42471,1.80755,1.80755,0,0,0-1.42457,2.104c.12274.38457.2343.7737.33319,1.16359.04742.175.08947.34953.12959.52572a21.37909,21.37909,0,0,1,.49716,3.37173q.01677.26626.02816.53208a21.25226,21.25226,0,0,1-.14652,3.51182c-.02313.17839-.0482.35843-.07492.53654a20.83922,20.83922,0,0,1-.85512,3.53859c-.05674.17033-.11707.34037-.17918.51025a20.15764,20.15764,0,0,1-1.51915,3.23012c-.09157.15493-.18285.30632-.27786.45918-.11354.18206-.22873.36218-.34929.54187a20.14891,20.14891,0,0,1-1.98508,2.51373c-.12211.13091-.24407.26-.36768.38722a20.43809,20.43809,0,0,1-3.29242,2.72743c-.15056.1034-.3025.20133-.45608.29728a21.252,21.252,0,0,1-2.8355,1.50926c-.16263.07363-.32676.14354-.49254.2115a23.29439,23.29439,0,0,1-4.4345,1.33218c-.1777.03639-.3587.06891-.53762.098a24.30276,24.30276,0,0,1-3.74235.35248c-.17873.00387-.35911.00582-.5392.00416a24.65138,24.65138,0,0,1-4.77682-.49c-.1774-.03569-.35287-.073-.53-.11225a23.61523,23.61523,0,0,1-5.13476-1.79615c-.16311-.07958-.32443-.15906-.48532-.24387-.452-.23225-.89914-.48031-1.33591-.74558a25.99574,25.99574,0,0,1-2.24223-1.522c-.14114-.10669-.28213-.21518-.42106-.32711a25.725,25.725,0,0,1-2.87906-2.652c-.12468-.13241-.24564-.26632-.36646-.40206a26.504,26.504,0,0,1-2.45068-3.1912c-.09984-.15029-.196-.3021-.29193-.45566a27.6244,27.6244,0,0,1-2.13655-4.154c-.06935-.17128-.13868-.3426-.20609-.51554a28.22074,28.22074,0,0,1-1.08067-3.3999c-.04549-.17663-.08739-.353-.12737-.531-.1987-.85917-.35879-1.72792-.47491-2.60581-.02536-.18044-.04879-.36252-.07043-.54445-.10108-.88567-.1637-1.77916-.18291-2.67461q-.00863-.30071-.0065-.60065c-.00167-.11547-.00141-.23258.00065-.3496-.143-.698-.28559-1.55992-.42065-2.47174-.03285-.22249-.06541-.44855-.09618-.67447-.126-.88945-.24137-1.79972-.34162-2.62768-.02352-.20371-.04746-.40205-.07018-.59309-.10287-.88584-.184-1.6366-.23517-2.10565a1.66806,1.66806,0,0,0-1.492,1.15787c-.04968.21774-.09758.43563-.14382.65543-.0376.17907-.07521.35812-.10938.53924q-.19154.98505-.32828,1.98352c-.02478.17646-.046.3532-.06719.52994Q174.13278,131.25234,174.08585,132.84631Z"/><path class="cls-33" d="M224.257,134.39322c.04742.175.08947.34953.12959.52572a14.0525,14.0525,0,0,0,3.43587-1.07962c-.0437-.17648-.091-.35324-.14363-.53042A13.373,13.373,0,0,1,224.257,134.39322Z"/><path class="cls-33" d="M224.88375,138.29067q.01677.26626.02816.53208a28.39575,28.39575,0,0,0,3.58592-.58472c-.0091-.18095-.02178-.36218-.03819-.5419A28.267,28.267,0,0,1,224.88375,138.29067Z"/><path class="cls-33" d="M224.69047,142.87111a19.98223,19.98223,0,0,0,3.64587-.15826c.02177-.18391.04368-.36961.06367-.55368a19.40474,19.40474,0,0,1-3.63462.1754C224.74226,142.513,224.71719,142.693,224.69047,142.87111Z"/><path class="cls-33" d="M223.65617,146.92a21.43276,21.43276,0,0,0,3.59155.52772c.06075-.17542.11627-.353.17179-.53068a21.1291,21.1291,0,0,1-3.58416-.50729C223.77861,146.58,223.71828,146.75007,223.65617,146.92Z"/><path class="cls-33" d="M221.85916,150.60925a23.15633,23.15633,0,0,0,3.36106,1.36733c.08992-.15688.18-.31556.26646-.47452a22.48277,22.48277,0,0,1-3.34966-1.352C222.04545,150.305,221.95417,150.45639,221.85916,150.60925Z"/><path class="cls-33" d="M219.15711,154.05207a26.6769,26.6769,0,0,0,3.013,2.03q.186-.19881.36716-.40345a26.0745,26.0745,0,0,1-3.0125-2.01378C219.40268,153.79576,219.28072,153.92489,219.15711,154.05207Z"/><path class="cls-33" d="M215.40861,157.07678a13.74049,13.74049,0,0,0,2.82228,2.41324c.15816-.10823.313-.22034.468-.33421a13.17009,13.17009,0,0,1-2.83421-2.37631C215.71413,156.8829,215.56219,156.98083,215.40861,157.07678Z"/><path class="cls-33" d="M212.08057,158.79754a17.27489,17.27489,0,0,0,1.50579,3.266l.00179.00014c.164-.06813.32827-.13981.49118-.217a16.44432,16.44432,0,0,1-1.50622-3.2606C212.41048,158.65967,212.24635,158.72958,212.08057,158.79754Z"/><path class="cls-33" d="M207.10845,160.22772a12.531,12.531,0,0,0,.70809,3.57588c.17921-.03268.35841-.06535.538-.10339a12.01648,12.01648,0,0,1-.70852-3.57049C207.46837,160.16611,207.28737,160.19863,207.10845,160.22772Z"/><path class="cls-33" d="M202.8269,160.58436a29.1999,29.1999,0,0,0,.13856,3.64431c.18009.00164.36047-.00029.541-.004a28.86511,28.86511,0,0,1-.14035-3.64445C203.18737,160.58407,203.007,160.586,202.8269,160.58436Z"/><path class="cls-33" d="M197.14637,163.60927c.17533.03915.35273.07479.53027.10869q.1868-1.81269.37344-3.62359c-.1774-.03569-.35287-.073-.53-.11225Q197.33331,161.79481,197.14637,163.60927Z"/><path class="cls-33" d="M190.666,161.32634c.06744.036.135.07015.20439.1045.10062.04943.20124.09883.302.14646a9.597,9.597,0,0,1,1.21292-3.39133c-.16311-.07958-.32443-.15906-.48532-.24387A10.15326,10.15326,0,0,0,190.666,161.32634Z"/><path class="cls-33" d="M186.08744,158.46947c.14608.11252.29245.22141.44255.32881a14.13626,14.13626,0,0,1,1.79188-3.12379c-.14114-.10669-.28213-.21518-.42106-.32711A14.78647,14.78647,0,0,0,186.08744,158.46947Z"/><path class="cls-33" d="M182.00259,154.74876c.12289.1323.24743.26652.37211.39894a13.99466,13.99466,0,0,1,2.64705-2.45234c-.12468-.13241-.24564-.26632-.36646-.40206A14.62862,14.62862,0,0,0,182.00259,154.74876Z"/><path class="cls-33" d="M178.86906,150.66726c.09612.15177.19416.30193.29579.45236a11.04056,11.04056,0,0,1,3.03976-2.01752c-.09984-.15029-.196-.3021-.29193-.45566A11.54547,11.54547,0,0,0,178.86906,150.66726Z"/><path class="cls-33" d="M176.1336,145.24575c.06533.17639.13439.35125.20538.5245a6.04266,6.04266,0,0,1,3.43715-1.27777c-.06935-.17128-.13868-.3426-.20609-.51554A6.60026,6.60026,0,0,0,176.1336,145.24575Z"/><path class="cls-33" d="M174.8418,140.93879l-.00014.00179c.03819.17784.08023.3524.12393.5289a10.30742,10.30742,0,0,1,3.52378-.89244c-.04549-.17663-.08739-.353-.12737-.531A10.85422,10.85422,0,0,0,174.8418,140.93879Z"/><path class="cls-33" d="M174.26031,137.38016c.01806.18165.03984.3618.06341.54209a8.07492,8.07492,0,0,1,3.56337-.482c-.02536-.18044-.04879-.36252-.07043-.54445A8.61565,8.61565,0,0,0,174.26031,137.38016Z"/><path class="cls-33" d="M174.08585,132.84631c-.00522.17981-.00866.35977-.01209.53972a8.12153,8.12153,0,0,1,3.56.83517q-.00863-.30071-.0065-.60065A8.66016,8.66016,0,0,0,174.08585,132.84631Z"/><path class="cls-33" d="M174.3234,129.66432a9.75686,9.75686,0,0,1,2.88385,1.13489c-.03285-.22249-.06541-.44855-.09618-.67447a10.17908,10.17908,0,0,0-2.72048-.99036C174.36581,129.31084,174.3446,129.48758,174.3234,129.66432Z"/><path class="cls-33" d="M174.71887,127.15086a5.966,5.966,0,0,1,2.05058.3462c-.02352-.20371-.04746-.40205-.07018-.59309a6.414,6.414,0,0,0-1.871-.29235C174.79065,126.79069,174.753,126.96974,174.71887,127.15086Z"/><path class="cls-20" d="M141.043,127.79329a11.86576,11.86576,0,0,1,3.41235-2.98688c.40318-.23471.87073-.50961.92683-.92126a1.12972,1.12972,0,0,0-.22585-.69977q-.44286-.74982-.8767-1.49939c-1.62646-2.80162-3.178-5.59747-4.79082-8.39772q-.64777-1.12626-1.31388-2.255-5.22561,4.30858-10.45011,8.62271-.3744.308-.75248.62041c-.38609.31772-.77.635-1.15613.95272-.57481.47578-1.20827,1.08637-1.05186,1.73543a2.24089,2.24089,0,0,0-.063,2.29867,2.81194,2.81194,0,0,0-1.618,1.42169,2.036,2.036,0,0,0,.23681,1.89886,5.28314,5.28314,0,0,0-1.28127,1.70379,1.36881,1.36881,0,0,0,.58562,1.68536,2.80533,2.80533,0,0,0,1.78844.04343,26.275,26.275,0,0,0,3.34955-.9588c.318-.11045.63257-.22792.94862-.34949,1.27136-.48373,2.52025-1.03037,3.7608-1.57362q2.21231-.96954,4.42282-1.93686"/><path class="cls-21" d="M144.27966,121.686c-1.62646-2.80162-3.178-5.59747-4.79082-8.39772q-1.05855.51647-2.09248,1.07055-2.13729,1.14543-4.16509,2.43961a2.37978,2.37978,0,0,0-.88658.80891,1.72527,1.72527,0,0,0-.0771,1.06952,17.84952,17.84952,0,0,0,1.9485,5.77724,1.69373,1.69373,0,0,0,1.0118.96651,2.26558,2.26558,0,0,0,1.04886-.07671A23.10977,23.10977,0,0,0,144.27966,121.686Z"/><path class="cls-21" d="M127.72485,119.65593q-.3744.308-.75248.62041a3.04994,3.04994,0,0,0,.24331,1.22257,2.40241,2.40241,0,0,0-.184,2.89789,2.19631,2.19631,0,0,0-.675,1.50355,2.04394,2.04394,0,0,0,.63014,1.4842,2.97428,2.97428,0,0,0-.08862,2.55572,3.12911,3.12911,0,0,0,.86427,1.11722c.318-.11045.63257-.22792.94862-.34949a2.8725,2.8725,0,0,1-.96794-3.585,1.84149,1.84149,0,0,1-.3572-1.38389,6.0988,6.0988,0,0,1,.41694-1.47074,2.75149,2.75149,0,0,1,.1519-3.15224A2.61565,2.61565,0,0,1,127.72485,119.65593Z"/><path class="cls-22" d="M148.66588,28.131a28.96794,28.96794,0,0,0,26.50658,29.75482c.53251.04465,1.07083.0751,1.61137.09123a28.99489,28.99489,0,1,0-8.60364-56.394,28.46339,28.46339,0,0,0-3.15936,1.3077q-.95745.46213-1.87562.99373A29.03373,29.03373,0,0,0,148.66588,28.131Z"/><path class="cls-23" d="M148.66588,28.131A29.01245,29.01245,0,0,0,168.694,56.57991a26.98631,26.98631,0,0,0-3.0839-53.67876c-.19756-.0059-.39334-.00994-.58924-.0104q-.95745.46213-1.87562.99373A29.03373,29.03373,0,0,0,148.66588,28.131Z"/><path class="cls-34" d="M148.66588,28.131a28.969,28.969,0,0,0,14.25164,25.84275q.79313.07491,1.60212.09994a24.19762,24.19762,0,0,0,2.31421-48.33207c-.28883-.0194-.57957-.03347-.87052-.04216a24.27376,24.27376,0,0,0-6.44576.6686A28.93238,28.93238,0,0,0,148.66588,28.131Z"/><path class="cls-35" d="M150.62488,39.52049a29.0796,29.0796,0,0,0,12.29264,14.4533q.79313.07491,1.60212.09994a24.19762,24.19762,0,0,0,2.31421-48.33207,28.259,28.259,0,0,1,12.43971,9.344,26.612,26.612,0,0,1,4.17495,8.0261,13.72527,13.72527,0,0,1,.61184,7.02283,6.95229,6.95229,0,0,1-4.37785,5.2167c-2.26805.71239-5.10948-.44188-5.81823-2.71161-.768-2.453.9788-5.15278.27246-7.62375-.68677-2.40389-3.6982-3.64411-6.07587-2.87208a7.2508,7.2508,0,0,0-4.5155,5.5523A14.90241,14.90241,0,0,0,164.274,35.082a20.39651,20.39651,0,0,1,1.04281,3.90458,4.8486,4.8486,0,0,1-1.0173,3.79277,2.80562,2.80562,0,0,1-3.64592.50591,3.92245,3.92245,0,0,1-1.17034-2.88385,8.21239,8.21239,0,0,0-.53364-3.13806,2.0657,2.0657,0,0,0-2.63944-1.11589,2.193,2.193,0,0,0-.53157,2.81508c.4479.95163,1.251,1.68738,1.78837,2.59135a2.498,2.498,0,0,1,.00777,2.93183,2.16013,2.16013,0,0,1-2.51545.20892,6.33289,6.33289,0,0,1-1.91747-1.87981Z"/><path class="cls-23" d="M201.13005,23.13463a.89856.89856,0,0,0,.89041-.65334l5.48686-19.3731a.89828.89828,0,1,0-1.72857-.48953l-5.48688,19.3731a.899.899,0,0,0,.83818,1.14287Z"/><ellipse class="cls-36" cx="199.81818" cy="30.29082" rx="9.94471" ry="8.55218" transform="translate(163.58007 229.11647) rotate(-88.29056)"/><path class="cls-21" d="M195.55046,30.163a5.47272,5.47272,0,0,0,3.61707,5.57932,4.18031,4.18031,0,0,0,1.02695.16006c2.65782.07932,4.88579-2.3616,4.978-5.45222.09218-3.08883-1.98625-5.65827-4.64408-5.73759a4.18,4.18,0,0,0-1.03466.09854A5.472,5.472,0,0,0,195.55046,30.163Z"/><path class="cls-20" d="M195.55046,30.163a5.47272,5.47272,0,0,0,3.61707,5.57932,5.4741,5.4741,0,0,0,3.94516-5.35363,5.47338,5.47338,0,0,0-3.61892-5.57758A5.472,5.472,0,0,0,195.55046,30.163Z"/><path class="cls-21" d="M208.87848,50.02339a15.39634,15.39634,0,0,0-4.17138-1.95831,27.12259,27.12259,0,0,0-27.03683,6.23841c-.52078.49866-1.06365,1.15859-.888,1.85789a1.94968,1.94968,0,0,0,1.40653,1.16375c3.61675,1.21622,7.53529.02453,11.27219-.74727a50.59111,50.59111,0,0,1,20.17336-.033c.68432.13827,2.35515.87295,2.99457.56034.7617-.37239.35734-1.45451.14108-2.03345A10.83952,10.83952,0,0,0,208.87848,50.02339Z"/><path class="cls-22" d="M117.15293,102.011a79.36125,79.36125,0,0,0,29.22369-.03568A81.10692,81.10692,0,0,0,181.339,86.16294a33.209,33.209,0,0,0,3.79316-3.37433,16.46951,16.46951,0,0,0,1.93016-2.47552,10.87829,10.87829,0,0,0,1.57309-8.12406,11.86031,11.86031,0,0,0-2.48316-4.90117,16.86339,16.86339,0,0,0-6.81742-4.91682c-4.38-1.70018-9.34625-1.186-13.45926-.08754-.23628.49674-.48279.98765-.73544,1.47384a45.20688,45.20688,0,0,1-16.99237,18.12622q-1.06785.64036-2.17895,1.22878a51.4996,51.4996,0,0,1-5.83574,2.63181,57.22375,57.22375,0,0,1-24.69156,3.40957,8.11418,8.11418,0,0,0-1.38177,4.49023A12.89235,12.89235,0,0,0,117.15293,102.011Z"/><path class="cls-23" d="M185.13219,82.78861a16.46951,16.46951,0,0,0,1.93016-2.47552,10.87829,10.87829,0,0,0,1.57309-8.12406c-.95122-4.31332-4.92-8.11534-9.30058-9.818-4.38-1.70018-9.34625-1.186-13.45926-.08754-.23628.49674-.48279.98765-.73544,1.47384a6.64955,6.64955,0,0,1,1.02416-.11368,19.67861,19.67861,0,0,1,7.12371,1.14673,19.35653,19.35653,0,0,1,11.0301,9.937A12.81587,12.81587,0,0,1,185.13219,82.78861Z"/><path class="cls-23" d="M146.37662,101.97531a80.67607,80.67607,0,0,0,10.91218-2.85044,17.98425,17.98425,0,0,0-1.51525-8.03885,22.434,22.434,0,0,0-7.62576-9.20246q-1.06785.64036-2.17895,1.22878a51.4996,51.4996,0,0,1-5.83574,2.63181,13.51149,13.51149,0,0,0,.627,6.10245A28.7859,28.7859,0,0,0,146.37662,101.97531Z"/><g class="cls-37"><path class="cls-38" d="M117.15293,102.011a79.36125,79.36125,0,0,0,29.22369-.03568A81.10692,81.10692,0,0,0,181.339,86.16294a33.209,33.209,0,0,0,3.79316-3.37433,16.46951,16.46951,0,0,0,1.93016-2.47552,10.87829,10.87829,0,0,0,1.57309-8.12406,11.86031,11.86031,0,0,0-2.48316-4.90117,15.321,15.321,0,0,1,.22727,3.39956,20.2,20.2,0,0,1-4.119,10.39685c-3.54208,4.6435-8.73632,7.83851-14.20753,10.376A89.47619,89.47619,0,0,1,130.28822,99.45a27.387,27.387,0,0,1-10.52638-1.62616,14.4452,14.4452,0,0,1-5.70207-4.17987A12.89235,12.89235,0,0,0,117.15293,102.011Z"/></g><path class="cls-20" d="M99.82462,107.80693a2.03822,2.03822,0,0,0,1.387.2675,9.66969,9.66969,0,0,0,1.73294-.30149,11.60044,11.60044,0,0,0,1.49949-.51674,34.28658,34.28658,0,0,0,5.0256-2.92886c2.53121-1.61534,5.52807-3.06534,8.83415-2.3591-.28988-.06273-.65317-.64654-.99935-1.3637a29.08461,29.08461,0,0,1-1.12549-2.82335,15.52861,15.52861,0,0,1-.85514-4.54262c-.01413-.44227-.0074-.883.01966-1.31824.01956-.30486.04824-.60882.08815-.90829.06677-.50579.42807-1.26933.19068-1.80345-.5338-1.20461-3.16894-2.28469-4.30108-2.73943a16.43453,16.43453,0,0,0-5.85965-1.18054,17.771,17.771,0,0,0-4.66233.56507,20.09028,20.09028,0,0,0-2.024.63417,23.29394,23.29394,0,0,0-3.12335,1.43286,2.76387,2.76387,0,0,0-.97262.752,1.13782,1.13782,0,0,0-.08175,1.2208,1.60337,1.60337,0,0,0,1.24393.71647,3.60161,3.60161,0,0,0,1.35105-.21643q1.278-.37905,2.5535-.758.78988-.23256,1.57414-.46736c.79343-.234,1.58277-.469,2.37464-.70414a2.11411,2.11411,0,0,1,1.579-.0322.93855.93855,0,0,1,.56624.75282c.01325.37352-.29826.52939-.58782.65683a29.86015,29.86015,0,0,1-9.491,2.35581q-.77443.06485-1.557.09256c-.48366.01682-.97355.02268-1.46306.0185a3.26358,3.26358,0,0,0-2.00489.37435.99463.99463,0,0,0-.42407.775c-.02151.72031.68,1.2184,1.33549,1.51578a8.92875,8.92875,0,0,0,2.79156.72812,17.13358,17.13358,0,0,0,1.97146.07872c1.26075-.01365,2.53269-.10533,3.80535-.05818.42269.01453.56945.60256.17181.6858a17.10056,17.10056,0,0,1-5.20232.25152q-.55914-.05688-1.12174-.14741a19.11317,19.11317,0,0,1-2.40135-.55082,3.087,3.087,0,0,0-1.53389-.2137.77308.77308,0,0,0-.58892.48674c-.21445.66219.60772,1.31528,1.3144,1.65426a16.66686,16.66686,0,0,0,3.17339,1.13228q.62506.15729,1.25418.27438a43.79673,43.79673,0,0,0,6.7929.56529,1.32846,1.32846,0,0,1-1.07382,1.05784,5.11023,5.11023,0,0,1-1.72829.0223c-.86381-.08456-1.72814-.17163-2.59194-.25621L95.34278,100.55q-1.36277-.13527-2.724-.26938c-.76733-.07617-1.06235.79841-.45312,1.33671a7.863,7.863,0,0,0,2.92653,1.59191,9.8474,9.8474,0,0,0,1.29035.28785,12.49437,12.49437,0,0,0,1.39186.13092,20.99424,20.99424,0,0,0,2.32585-.05648c.92685-.067,1.84671-.16622,2.77624-.22079.57729-.03334.93408.72089.47187.9958l-1.2215.72511-1.16.68994-.89522.531c-.37059.21972-.78088.50994-.63365,1.01161A.97147.97147,0,0,0,99.82462,107.80693Z"/><path class="cls-21" d="M99.746,89.63557q.78988-.23256,1.57414-.46736a6.98088,6.98088,0,0,1-.37024-.89879,4.76945,4.76945,0,0,1-.15065-2.41573,20.09028,20.09028,0,0,0-2.024.63417,7.88455,7.88455,0,0,0,.59509,2.4243A4.24884,4.24884,0,0,0,99.746,89.63557Z"/><path class="cls-21" d="M94.43921,95.70162a17.13358,17.13358,0,0,0,1.97146.07872,5.36727,5.36727,0,0,1-.64951-3.583q-.77443.06485-1.557.09256a7.091,7.091,0,0,0-.031,2.57483A2.59873,2.59873,0,0,0,94.43921,95.70162Z"/><path class="cls-21" d="M94.0274,99.02083q.62506.15729,1.25418.27438a3.39387,3.39387,0,0,1-.09607-2.63573q-.55914-.05688-1.12174-.14741a2.62573,2.62573,0,0,0-.30963,1.37314A3.22994,3.22994,0,0,0,94.0274,99.02083Z"/><path class="cls-21" d="M96.38257,103.49705a12.49437,12.49437,0,0,0,1.39186.13092,4.76076,4.76076,0,0,1-1.043-1.97738,9.23459,9.23459,0,0,1-.051-.96616L95.34278,100.55a1.44429,1.44429,0,0,0-.03314,1.04983,5.203,5.203,0,0,0,.59017,1.16967A8.45768,8.45768,0,0,0,96.38257,103.49705Z"/><path class="cls-21" d="M102.88053,107.72562c.02151.0166.04148.032.064.04732a11.60044,11.60044,0,0,0,1.49949-.51674c-.46636-.34546-1.04645-.82623-1.13058-.90145-.40828-.36671-.763-.9171-1.18654-1.28314l-1.16.68994a4.78167,4.78167,0,0,0,.48435.69377A9.05429,9.05429,0,0,0,102.88053,107.72562Z"/><path class="cls-21" d="M108.36717,101.43919a5.96735,5.96735,0,0,0,2.86643.05938q3.03468-.44448,6.07081-.894a29.08461,29.08461,0,0,1-1.12549-2.82335,15.52861,15.52861,0,0,1-.85514-4.54262c-.01413-.44227-.0074-.883.01966-1.31824-.05445.02609-.10439.0495-.15131.069a23.4536,23.4536,0,0,1-5.42463,1.467,25.31085,25.31085,0,0,1-3.2165.26081,2.405,2.405,0,0,0-1.69181.42608c-.48877.50625-.30042,1.38025-.08927,2.12944a12.42071,12.42071,0,0,0,1.13518,2.99184A4.84514,4.84514,0,0,0,108.36717,101.43919Z"/><path class="cls-39" d="M62.757,119.71216h-.89886v-5.7904h2.29128a1.73282,1.73282,0,0,1,1.9181,1.78166,1.66847,1.66847,0,0,1-1.12357,1.65326l1.30013,2.35548h-1.0393l-1.17975-2.207H62.757Zm0-2.97345h1.29211a.963.963,0,0,0,1.09548-1.01522.98706.98706,0,0,0-1.11956-1.01121H62.757Z"/><path class="cls-39" d="M71.02326,119.71216H67.34759v-5.7904h3.67567v.8186H68.24644v1.63721h2.62835v.77847H68.24644v1.73752h2.77682Z"/><path class="cls-39" d="M72.93734,118.15521c.07625.54975.61395.89886,1.38842.89886.72229,0,1.252-.37319,1.252-.88682,0-.4414-.33707-.70624-1.1035-.88682l-.74637-.18057c-1.04733-.24478-1.52485-.75038-1.52485-1.60109,0-1.03127.84268-1.71745,2.10669-1.71745a1.88873,1.88873,0,0,1,2.08663,1.66128h-.87478a1.10583,1.10583,0,0,0-1.22388-.86676c-.71026,0-1.18376.34109-1.18376.86274,0,.41332.305.65007,1.05936.82663l.638.1565c1.18777.27688,1.67733.75841,1.67733,1.62917,0,1.10752-.85873,1.80173-2.23109,1.80173-1.28408,0-2.14682-.66211-2.211-1.6974Z"/><path class="cls-39" d="M78.55921,117.63757a1.4486,1.4486,0,0,0,2.89319,0v-3.71581h.89885v3.79606a2.35584,2.35584,0,0,1-4.6909,0v-3.79606h.89886Z"/><path class="cls-39" d="M87.40732,119.71216H83.79584v-5.7904h.89886v4.96377h2.71262Z"/><path class="cls-39" d="M89.24917,119.71216v-4.9718H87.42738v-.8186H91.9658v.8186H90.148v4.9718Z"/><path class="cls-39" d="M93.68326,118.15521c.07624.54975.614.89886,1.38841.89886.72229,0,1.252-.37319,1.252-.88682,0-.4414-.33707-.70624-1.1035-.88682l-.74637-.18057c-1.04733-.24478-1.52485-.75038-1.52485-1.60109,0-1.03127.84268-1.71745,2.1067-1.71745a1.88874,1.88874,0,0,1,2.08663,1.66128h-.87478a1.10585,1.10585,0,0,0-1.22389-.86676c-.71026,0-1.18376.34109-1.18376.86274,0,.41332.305.65007,1.05936.82663l.638.1565c1.18777.27688,1.67733.75841,1.67733,1.62917,0,1.10752-.85873,1.80173-2.23109,1.80173-1.28408,0-2.14682-.66211-2.211-1.6974Z"/></g></g></g></svg>