<svg xmlns="http://www.w3.org/2000/svg" xmlns:xlink="http://www.w3.org/1999/xlink" viewBox="0 0 312.16175 324.19753"><defs><style>.cls-1{mask:url(#mask);filter:url(#luminosity-noclip-8);}.cls-10,.cls-12,.cls-14,.cls-2,.cls-4,.cls-58,.cls-6,.cls-60,.cls-8{mix-blend-mode:multiply;}.cls-2{fill:url(#linear-gradient);}.cls-3{mask:url(#mask-2);filter:url(#luminosity-noclip-13);}.cls-4{fill:url(#linear-gradient-2);}.cls-5{mask:url(#mask-3);filter:url(#luminosity-noclip-14);}.cls-6{fill:url(#linear-gradient-3);}.cls-7{mask:url(#mask-4);filter:url(#luminosity-noclip-9);}.cls-8{fill:url(#linear-gradient-4);}.cls-9{mask:url(#mask-5);filter:url(#luminosity-noclip-10);}.cls-10{fill:url(#linear-gradient-5);}.cls-11{mask:url(#mask-6);filter:url(#luminosity-noclip-11);}.cls-12{fill:url(#linear-gradient-6);}.cls-13{mask:url(#mask-7);filter:url(#luminosity-noclip-12);}.cls-14{fill:url(#linear-gradient-7);}.cls-15{isolation:isolate;}.cls-16,.cls-18,.cls-68{fill:#fff;}.cls-16{opacity:0.75;}.cls-17{fill:#e6605e;}.cls-19{fill:url(#linear-gradient-8);}.cls-20{mask:url(#mask-8);}.cls-21{fill:url(#linear-gradient-9);}.cls-22{fill:url(#linear-gradient-10);}.cls-23{fill:url(#linear-gradient-11);}.cls-24{fill:url(#linear-gradient-12);}.cls-25{fill:url(#linear-gradient-13);}.cls-26{fill:url(#linear-gradient-14);}.cls-27{fill:url(#linear-gradient-15);}.cls-28{fill:url(#linear-gradient-16);}.cls-29{fill:url(#linear-gradient-17);}.cls-30{fill:url(#linear-gradient-18);}.cls-31{fill:url(#linear-gradient-19);}.cls-32{fill:url(#linear-gradient-20);}.cls-33{fill:url(#linear-gradient-21);}.cls-34{fill:url(#linear-gradient-22);}.cls-35{fill:url(#linear-gradient-23);}.cls-36{mask:url(#mask-9);}.cls-37{fill:url(#linear-gradient-24);}.cls-38{fill:url(#linear-gradient-25);}.cls-39{fill:url(#linear-gradient-26);}.cls-40{mask:url(#mask-10);}.cls-41{fill:url(#linear-gradient-27);}.cls-42{fill:url(#linear-gradient-28);}.cls-43{fill:url(#linear-gradient-29);}.cls-44{fill:url(#linear-gradient-30);}.cls-45{mask:url(#mask-11);}.cls-46{fill:url(#linear-gradient-31);}.cls-47{mask:url(#mask-12);}.cls-48{fill:url(#linear-gradient-32);}.cls-49{fill:url(#linear-gradient-33);}.cls-50{fill:url(#Degradado_sin_nombre_8);}.cls-51{fill:url(#Degradado_sin_nombre_8-2);}.cls-52{fill:#ed5733;}.cls-53{fill:#052b71;}.cls-54{fill:#62aad6;}.cls-55{fill:#3d84f8;}.cls-56{fill:#a9d0fc;}.cls-57{mask:url(#mask-13);}.cls-58{fill:url(#linear-gradient-34);}.cls-59{mask:url(#mask-14);}.cls-60{fill:url(#linear-gradient-35);}.cls-61{fill:#fddf85;}.cls-62{fill:#dd641d;}.cls-63{fill:#fac52f;}.cls-64{fill:#094ea1;}.cls-65{fill:#1864d4;}.cls-66{fill:#5dfdf4;}.cls-67{fill:#010b25;}.cls-68{opacity:0.13;}.cls-69{fill:#adaffb;}.cls-70{fill:#4c51db;}.cls-71{fill:#8082ed;}.cls-72{fill:#83d493;}.cls-73{filter:url(#luminosity-noclip-7);}.cls-74{filter:url(#luminosity-noclip-6);}.cls-75{filter:url(#luminosity-noclip-5);}.cls-76{filter:url(#luminosity-noclip-4);}.cls-77{filter:url(#luminosity-noclip-3);}.cls-78{filter:url(#luminosity-noclip-2);}.cls-79{filter:url(#luminosity-noclip);}</style><filter id="luminosity-noclip" x="0" y="-2886" width="165.14949" height="32766" filterUnits="userSpaceOnUse" color-interpolation-filters="sRGB"><feFlood flood-color="#fff" result="bg"/><feBlend in="SourceGraphic" in2="bg"/></filter><mask id="mask" x="0" y="-2886" width="165.14949" height="32766" maskUnits="userSpaceOnUse"><g class="cls-79"/></mask><linearGradient id="linear-gradient" x1="442.77044" y1="127.79004" x2="-155.80057" y2="145.4747" gradientUnits="userSpaceOnUse"><stop offset="0"/><stop offset="1" stop-color="#fff"/></linearGradient><filter id="luminosity-noclip-2" x="213.74964" y="-2886" width="48.0237" height="32766" filterUnits="userSpaceOnUse" color-interpolation-filters="sRGB"><feFlood flood-color="#fff" result="bg"/><feBlend in="SourceGraphic" in2="bg"/></filter><mask id="mask-2" x="213.74964" y="-2886" width="48.0237" height="32766" maskUnits="userSpaceOnUse"><g class="cls-78"/></mask><linearGradient id="linear-gradient-2" x1="37.56169" y1="141.36698" x2="166.63862" y2="175.02004" gradientTransform="translate(112.28828 44.61702) rotate(0.21517)" xlink:href="#linear-gradient"/><filter id="luminosity-noclip-3" x="196.70331" y="-2886" width="90.15505" height="32766" filterUnits="userSpaceOnUse" color-interpolation-filters="sRGB"><feFlood flood-color="#fff" result="bg"/><feBlend in="SourceGraphic" in2="bg"/></filter><mask id="mask-3" x="196.70331" y="-2886" width="90.15505" height="32766" maskUnits="userSpaceOnUse"><g class="cls-77"/></mask><linearGradient id="linear-gradient-3" x1="14.02934" y1="134.50478" x2="207.31734" y2="228.70499" gradientTransform="translate(112.28828 44.61702) rotate(0.21517)" xlink:href="#linear-gradient"/><filter id="luminosity-noclip-4" x="14.34311" y="-2886" width="44.77327" height="32766" filterUnits="userSpaceOnUse" color-interpolation-filters="sRGB"><feFlood flood-color="#fff" result="bg"/><feBlend in="SourceGraphic" in2="bg"/></filter><mask id="mask-4" x="14.34311" y="-2886" width="44.77327" height="32766" maskUnits="userSpaceOnUse"><g class="cls-76"/></mask><linearGradient id="linear-gradient-4" x1="14.21163" y1="122.70854" x2="38.08265" y2="171.6323" xlink:href="#linear-gradient"/><filter id="luminosity-noclip-5" x="157.35282" y="-2886" width="32.14622" height="32766" filterUnits="userSpaceOnUse" color-interpolation-filters="sRGB"><feFlood flood-color="#fff" result="bg"/><feBlend in="SourceGraphic" in2="bg"/></filter><mask id="mask-5" x="157.35282" y="-2886" width="32.14622" height="32766" maskUnits="userSpaceOnUse"><g class="cls-75"/></mask><linearGradient id="linear-gradient-5" x1="145.71999" y1="150.32417" x2="170.71167" y2="229.12128" xlink:href="#linear-gradient"/><filter id="luminosity-noclip-6" x="64.15402" y="-2886" width="199.19912" height="32766" filterUnits="userSpaceOnUse" color-interpolation-filters="sRGB"><feFlood flood-color="#fff" result="bg"/><feBlend in="SourceGraphic" in2="bg"/></filter><mask id="mask-6" x="64.15402" y="-2886" width="199.19912" height="32766" maskUnits="userSpaceOnUse"><g class="cls-74"/></mask><linearGradient id="linear-gradient-6" x1="416.87644" y1="-3.98383" x2="-181.69396" y2="13.70081" xlink:href="#linear-gradient"/><filter id="luminosity-noclip-7" x="39.79959" y="-2886" width="23.03372" height="32766" filterUnits="userSpaceOnUse" color-interpolation-filters="sRGB"><feFlood flood-color="#fff" result="bg"/><feBlend in="SourceGraphic" in2="bg"/></filter><mask id="mask-7" x="39.79959" y="-2886" width="23.03372" height="32766" maskUnits="userSpaceOnUse"><g class="cls-73"/></mask><linearGradient id="linear-gradient-7" x1="-99.24316" y1="31.19736" x2="72.22042" y2="54.43472" xlink:href="#linear-gradient"/><linearGradient id="linear-gradient-8" y1="194.6918" x2="202.60338" y2="194.6918" gradientUnits="userSpaceOnUse"><stop offset="0" stop-color="#fc9eed"/><stop offset="1" stop-color="#fff3de"/></linearGradient><filter id="luminosity-noclip-8" x="0" y="133.8373" width="165.14949" height="9.11042" filterUnits="userSpaceOnUse" color-interpolation-filters="sRGB"><feFlood flood-color="#fff" result="bg"/><feBlend in="SourceGraphic" in2="bg"/></filter><mask id="mask-8" x="0" y="133.8373" width="165.14949" height="9.11042" maskUnits="userSpaceOnUse"><g class="cls-1"><path class="cls-2" d="M165.14949,142.94772H2.03949L.14862,137.42338a2.70792,2.70792,0,0,1,2.56326-3.58608H160.09551a2.706,2.706,0,0,1,2.56326,1.83092Z"/></g></mask><linearGradient id="linear-gradient-9" x1="442.77044" y1="127.79004" x2="-155.80057" y2="145.4747" gradientUnits="userSpaceOnUse"><stop offset="0" stop-color="#fff"/><stop offset="1" stop-color="#fff"/></linearGradient><linearGradient id="linear-gradient-10" x1="86.50354" y1="85.08926" x2="171.03447" y2="391.34835" gradientUnits="userSpaceOnUse"><stop offset="0" stop-color="#f6a1c9"/><stop offset="1" stop-color="#9173f3"/></linearGradient><linearGradient id="linear-gradient-11" x1="87.31663" y1="120.61627" x2="92.93039" y2="156.75505" xlink:href="#linear-gradient-8"/><linearGradient id="linear-gradient-12" x1="116.45611" y1="116.08999" x2="122.06987" y2="152.22873" xlink:href="#linear-gradient-8"/><linearGradient id="linear-gradient-13" x1="103.22928" y1="118.14447" x2="108.84304" y2="154.28325" xlink:href="#linear-gradient-8"/><linearGradient id="linear-gradient-14" x1="90.29691" y1="120.15308" x2="95.91067" y2="156.29186" xlink:href="#linear-gradient-8"/><linearGradient id="linear-gradient-15" x1="91.78712" y1="119.92198" x2="97.40088" y2="156.06075" xlink:href="#linear-gradient-8"/><linearGradient id="linear-gradient-16" x1="120.92657" y1="115.39542" x2="126.54034" y2="151.5342" xlink:href="#linear-gradient-8"/><linearGradient id="linear-gradient-17" x1="47.11372" y1="95.9613" x2="131.64466" y2="402.2204" xlink:href="#linear-gradient-10"/><linearGradient id="linear-gradient-18" x1="49.21449" y1="126.53515" x2="54.82826" y2="162.67396" xlink:href="#linear-gradient-8"/><linearGradient id="linear-gradient-19" x1="78.35392" y1="122.0085" x2="83.96769" y2="158.14734" xlink:href="#linear-gradient-8"/><linearGradient id="linear-gradient-20" x1="64.6494" y1="124.13738" x2="70.26315" y2="160.2761" xlink:href="#linear-gradient-8"/><linearGradient id="linear-gradient-21" x1="51.23937" y1="126.22041" x2="56.85314" y2="162.35924" xlink:href="#linear-gradient-8"/><linearGradient id="linear-gradient-22" x1="52.25181" y1="126.06318" x2="57.86558" y2="162.20199" xlink:href="#linear-gradient-8"/><linearGradient id="linear-gradient-23" x1="81.39124" y1="121.53656" x2="87.00502" y2="157.6754" xlink:href="#linear-gradient-8"/><filter id="luminosity-noclip-9" x="14.34311" y="156.07354" width="44.77327" height="25.5761" filterUnits="userSpaceOnUse" color-interpolation-filters="sRGB"><feFlood flood-color="#fff" result="bg"/><feBlend in="SourceGraphic" in2="bg"/></filter><mask id="mask-9" x="14.34311" y="156.07354" width="44.77327" height="25.5761" maskUnits="userSpaceOnUse"><g class="cls-7"><path class="cls-8" d="M57.22606,181.64963H24.27573a1.88914,1.88914,0,0,1-1.77407-1.23745l-1.2943-3.50716L16.92051,165.285l-2.45915-6.66708a1.89042,1.89042,0,0,1,1.7741-2.54435H49.18575a1.88917,1.88917,0,0,1,1.7741,1.23745l.85864,2.32653L58.997,179.10525A1.88871,1.88871,0,0,1,57.22606,181.64963Z"/></g></mask><linearGradient id="linear-gradient-24" x1="14.21163" y1="122.70854" x2="38.08265" y2="171.6323" xlink:href="#linear-gradient-9"/><linearGradient id="linear-gradient-25" x1="21.20736" y1="170.64358" x2="59.11638" y2="170.64358" xlink:href="#linear-gradient-10"/><linearGradient id="linear-gradient-26" x1="14.34311" y1="160.67926" x2="35.49843" y2="160.67926" xlink:href="#linear-gradient-10"/><filter id="luminosity-noclip-10" x="157.35282" y="228.37289" width="32.14622" height="18.61543" filterUnits="userSpaceOnUse" color-interpolation-filters="sRGB"><feFlood flood-color="#fff" result="bg"/><feBlend in="SourceGraphic" in2="bg"/></filter><mask id="mask-10" x="157.35282" y="228.37289" width="32.14622" height="18.61543" maskUnits="userSpaceOnUse"><g class="cls-9"><path class="cls-10" d="M187.60667,246.98832H164.717a1.8908,1.8908,0,0,1-1.7741-1.23426l-.17359-.47352-3.03684-8.236-2.26024-6.12725a1.88872,1.88872,0,0,1,1.77095-2.54438h22.88969a1.89078,1.89078,0,0,1,1.7741,1.23426l5.47383,14.83679A1.89042,1.89042,0,0,1,187.60667,246.98832Z"/></g></mask><linearGradient id="linear-gradient-27" x1="145.71999" y1="150.32417" x2="170.71167" y2="229.12128" xlink:href="#linear-gradient-9"/><linearGradient id="linear-gradient-28" x1="175.03769" y1="198.30472" x2="176.21376" y2="248.58204" xlink:href="#linear-gradient-10"/><linearGradient id="linear-gradient-29" x1="161.03321" y1="198.63235" x2="162.20928" y2="248.90962" xlink:href="#linear-gradient-10"/><linearGradient id="linear-gradient-30" x1="30.5745" y1="51.23743" x2="263.35314" y2="51.23743" xlink:href="#linear-gradient-8"/><filter id="luminosity-noclip-11" x="64.15402" y="0" width="199.19912" height="6.84386" filterUnits="userSpaceOnUse" color-interpolation-filters="sRGB"><feFlood flood-color="#fff" result="bg"/><feBlend in="SourceGraphic" in2="bg"/></filter><mask id="mask-11" x="64.15402" y="0" width="199.19912" height="6.84386" maskUnits="userSpaceOnUse"><g class="cls-11"><path class="cls-12" d="M263.07431,5.93787l-.3378.906H64.154l1.47421-3.97121A4.40545,4.40545,0,0,1,69.75727,0h189.188A4.406,4.406,0,0,1,263.07431,5.93787Z"/></g></mask><linearGradient id="linear-gradient-31" x1="416.87644" y1="-3.98383" x2="-181.69396" y2="13.70081" xlink:href="#linear-gradient-9"/><filter id="luminosity-noclip-12" x="39.79959" y="29.99557" width="23.03372" height="42.44268" filterUnits="userSpaceOnUse" color-interpolation-filters="sRGB"><feFlood flood-color="#fff" result="bg"/><feBlend in="SourceGraphic" in2="bg"/></filter><mask id="mask-12" x="39.79959" y="29.99557" width="23.03372" height="42.44268" maskUnits="userSpaceOnUse"><g class="cls-13"><path class="cls-14" d="M62.4178,38.2947,53.017,62.6365a15.39161,15.39161,0,0,1-13.21737,9.80175L55.55815,29.99557h1.17116A6.10047,6.10047,0,0,1,62.4178,38.2947Z"/></g></mask><linearGradient id="linear-gradient-32" x1="-99.24316" y1="31.19736" x2="72.22042" y2="54.43472" xlink:href="#linear-gradient-9"/><linearGradient id="linear-gradient-33" x1="19.68275" y1="57.37774" x2="176.22921" y2="53.72012" xlink:href="#linear-gradient-10"/><linearGradient id="Degradado_sin_nombre_8" x1="12.14188" y1="25.81804" x2="132.80805" y2="44.21557" gradientUnits="userSpaceOnUse"><stop offset="0" stop-color="#ba5b9e"/><stop offset="1" stop-color="#fdc66c"/></linearGradient><linearGradient id="Degradado_sin_nombre_8-2" x1="10.50363" y1="36.56103" x2="131.17018" y2="54.95862" xlink:href="#Degradado_sin_nombre_8"/><filter id="luminosity-noclip-13" x="213.74964" y="177.15738" width="48.0237" height="74.82853" filterUnits="userSpaceOnUse" color-interpolation-filters="sRGB"><feFlood flood-color="#fff" result="bg"/><feBlend in="SourceGraphic" in2="bg"/></filter><mask id="mask-13" x="213.74964" y="177.15738" width="48.0237" height="74.82853" maskUnits="userSpaceOnUse"><g class="cls-3"><path class="cls-4" d="M261.29059,238.84923l-6.36723,12.36185a1.42677,1.42677,0,0,1-1.86127.646q-.73674-.33554-1.90746-.86592c1.11962-2.77246,2.661-5.41806,3.27087-6.79159a7.20745,7.20745,0,0,0,.90745-4.39233c-.43119-1.898-2.2695-3.08038-3.95292-4.05995q-12.3525-7.19016-24.70677-14.38212a39.77033,39.77033,0,0,1-8.73781-6.20513c-2.50042-2.56777-4.32668-6.0043-4.17726-9.58547.15339-3.69026,2.38623-7.04534,5.23254-9.398,2.8481-2.35267,6.28519-3.85688,9.67031-5.3327q15.71139-6.84324,31.421-13.6865c.10514.10415.20854.20832.31192.3107,5.32039,5.321-5.11366,5.84-25.03908,15.49953-9.90267,4.80047-14.71355,8.62712-16.6484,11.71317a5.42539,5.42539,0,0,0,.14658,6.70242,12.1694,12.1694,0,0,0,1.502,1.63728c3.45343,3.19929,33.26721,19.70459,40.2427,23.54864A1.70741,1.70741,0,0,1,261.29059,238.84923Z"/></g></mask><linearGradient id="linear-gradient-34" x1="37.56169" y1="141.36698" x2="166.63862" y2="175.02004" gradientTransform="translate(112.28828 44.61702) rotate(0.21517)" gradientUnits="userSpaceOnUse"><stop offset="0" stop-color="#fff"/><stop offset="1" stop-color="#23affb"/></linearGradient><filter id="luminosity-noclip-14" x="196.70331" y="183.08494" width="90.15505" height="108.20313" filterUnits="userSpaceOnUse" color-interpolation-filters="sRGB"><feFlood flood-color="#fff" result="bg"/><feBlend in="SourceGraphic" in2="bg"/></filter><mask id="mask-14" x="196.70331" y="183.08494" width="90.15505" height="108.20313" maskUnits="userSpaceOnUse"><g class="cls-5"><path class="cls-6" d="M286.85836,183.08494s-19.6723,15.62883-35.51349,29.15738c-4.37581,3.737-8.99434,9.69879-13.41875,16.85816-1.65783,2.68095-3.28764,5.53021-4.86778,8.49235-9.09708,17.0515-16.53371,37.86449-17.92717,52.09673a1.76583,1.76583,0,0,1-1.90242,1.59229l-14.89832-1.24032a1.77336,1.77336,0,0,1-1.61528-1.96868c.14243-1.24468.36762-3.08835.69124-5.41472,4.25788,1.45618,9.01129,2.92856,13.00487-.02811,3.07682-2.27665,4.11183-6.33041,5.08644-10.03011a150.89942,150.89942,0,0,1,33.634-62.25337c8.56067-9.5072,18.29244-17.87394,28.08462-26.12237A29.80849,29.80849,0,0,0,286.85836,183.08494Z"/></g></mask><linearGradient id="linear-gradient-35" x1="14.02934" y1="134.50478" x2="207.31734" y2="228.70499" xlink:href="#linear-gradient-34"/></defs><title>guide-1</title><g class="cls-15"><g id="Layer_2" data-name="Layer 2"><g id="Layer_1-2" data-name="Layer 1"><path class="cls-16" d="M78.03942,14.46581a3.63565,3.63565,0,0,1,3.63565-3.63565H229.75386a3.63566,3.63566,0,0,1,3.63565,3.63565"/><circle class="cls-17" cx="171.73099" cy="42.47729" r="5.44507"/><path class="cls-18" d="M171.50835,45.49217V41.1716h-1.56512v-.57811a3.70067,3.70067,0,0,0,.59562-.04668,1.647,1.647,0,0,0,.5229-.17415,1.20059,1.20059,0,0,0,.39543-.3492,1.32532,1.32532,0,0,0,.22128-.56105h.553v6.02976Z"/><path class="cls-19" d="M199.89283,255.54631H42.506a2.71189,2.71189,0,0,1-2.56326-1.83408L2.03949,142.94772.14862,137.42338a2.70792,2.70792,0,0,1,2.56326-3.58608H160.09551a2.706,2.706,0,0,1,2.56326,1.83092l2.49072,7.2795,37.3066,109.0125A2.71158,2.71158,0,0,1,199.89283,255.54631Z"/><g class="cls-20"><path class="cls-21" d="M165.14949,142.94772H2.03949L.14862,137.42338a2.70792,2.70792,0,0,1,2.56326-3.58608H160.09551a2.706,2.706,0,0,1,2.56326,1.83092Z"/></g><path class="cls-18" d="M65.62876,214.82523a.31545.31545,0,0,1-.293-.1979,20.68692,20.68692,0,0,1,8.26261-25.27939.31558.31558,0,1,1,.33357.5358,20.05636,20.05636,0,0,0-8.01044,24.50806.31566.31566,0,0,1-.2927.43343Z"/><path class="cls-22" d="M154.98493,197.60493H80.65742a1.89015,1.89015,0,0,1-1.7866-1.27313l-7.80519-22.5992a1.89016,1.89016,0,0,1,1.7866-2.50723h74.32751a1.89022,1.89022,0,0,1,1.78664,1.27312l7.80519,22.59921A1.89018,1.89018,0,0,1,154.98493,197.60493Z"/><path class="cls-23" d="M109.75855,177.66037H82.4009a.63136.63136,0,0,1,0-1.26271h27.35765a.63136.63136,0,1,1,0,1.26271Z"/><path class="cls-24" d="M139.601,177.66037H112.24359a.63136.63136,0,0,1,0-1.26271H139.601a.63136.63136,0,0,1,0,1.26271Z"/><path class="cls-25" d="M141.54337,182.28051H84.64469a.63135.63135,0,0,1,0-1.2627h56.89868a.63135.63135,0,1,1,0,1.2627Z"/><path class="cls-26" d="M114.24615,186.90053H86.88849a.63135.63135,0,1,1,0-1.2627h27.35766a.63135.63135,0,0,1,0,1.2627Z"/><path class="cls-27" d="M116.48994,191.52068H89.13229a.63136.63136,0,0,1,0-1.26271h27.35765a.63136.63136,0,0,1,0,1.26271Z"/><path class="cls-28" d="M146.33247,191.52068H118.975a.63136.63136,0,1,1,0-1.26271h27.35749a.63136.63136,0,0,1,0,1.26271Z"/><path class="cls-29" d="M125.32714,243.73645H50.99963a1.89021,1.89021,0,0,1-1.78664-1.27313l-7.80519-22.5992a1.89018,1.89018,0,0,1,1.78664-2.50723H117.522a1.89017,1.89017,0,0,1,1.7866,1.27312l7.80523,22.59921A1.8902,1.8902,0,0,1,125.32714,243.73645Z"/><path class="cls-30" d="M77.91821,224.32017H50.56059a.55227.55227,0,0,1-.56339-.62409.71779.71779,0,0,1,.69935-.62412H78.05416a.55228.55228,0,0,1,.56339.62412A.71779.71779,0,0,1,77.91821,224.32017Z"/><path class="cls-31" d="M107.76073,224.32017H80.40324a.55223.55223,0,0,1-.56336-.62409.71776.71776,0,0,1,.69932-.62412h27.35749a.55225.55225,0,0,1,.56336.62412A.71777.71777,0,0,1,107.76073,224.32017Z"/><path class="cls-32" d="M109.20555,228.88728H52.30688a.55227.55227,0,0,1-.56336-.62409.71782.71782,0,0,1,.69935-.62412h56.89864a.55226.55226,0,0,1,.56336.62412A.71776.71776,0,0,1,109.20555,228.88728Z"/><path class="cls-33" d="M81.41088,233.45427H54.05323a.55231.55231,0,0,1-.56339-.62413.71784.71784,0,0,1,.69935-.62409H81.54684a.55225.55225,0,0,1,.56335.62409A.71781.71781,0,0,1,81.41088,233.45427Z"/><path class="cls-34" d="M83.15717,238.02138H55.79955a.55231.55231,0,0,1-.56339-.62413.71784.71784,0,0,1,.69935-.62409H83.29313a.55227.55227,0,0,1,.56338.62409A.71782.71782,0,0,1,83.15717,238.02138Z"/><path class="cls-35" d="M112.9997,238.02138H85.6422a.55227.55227,0,0,1-.56336-.62413.71778.71778,0,0,1,.69932-.62409h27.3575a.55225.55225,0,0,1,.56336.62409A.71781.71781,0,0,1,112.9997,238.02138Z"/><g class="cls-36"><path class="cls-37" d="M57.22606,181.64963H24.27573a1.88914,1.88914,0,0,1-1.77407-1.23745l-1.2943-3.50716L16.92051,165.285l-2.45915-6.66708a1.89042,1.89042,0,0,1,1.7741-2.54435H49.18575a1.88917,1.88917,0,0,1,1.7741,1.23745l.85864,2.32653L58.997,179.10525A1.88871,1.88871,0,0,1,57.22606,181.64963Z"/></g><path class="cls-38" d="M57.22606,181.64963H24.27573a1.88914,1.88914,0,0,1-1.77407-1.23745l-1.2943-3.50716c.32515-.57769.65345-1.127.9565-1.62889a8.36129,8.36129,0,0,1,5.99785-4.23006c2.33288-.25886,4.60887.76078,6.68918,1.84986,2.08031,1.09224,4.19534,2.30759,6.53766,2.48753,2.34547.17993,4.994-1.0512,5.5559-3.33354a11.08934,11.08934,0,0,0,.04735-2.98314,11.49194,11.49194,0,0,1,4.82669-9.42926L58.997,179.10525A1.88871,1.88871,0,0,1,57.22606,181.64963Z"/><path class="cls-39" d="M35.438,158.28959a6.84846,6.84846,0,0,1-4.249,5.54327,11.4239,11.4239,0,0,1-5.79266.07261,14.47006,14.47006,0,0,0-5.8116-.23992,4.84267,4.84267,0,0,0-2.66427,1.61942l-2.45915-6.66708a1.89042,1.89042,0,0,1,1.7741-2.54435H35.397A7.77913,7.77913,0,0,1,35.438,158.28959Z"/><g class="cls-40"><path class="cls-41" d="M187.60667,246.98832H164.717a1.8908,1.8908,0,0,1-1.7741-1.23426l-.17359-.47352-3.03684-8.236-2.26024-6.12725a1.88872,1.88872,0,0,1,1.77095-2.54438h22.88969a1.89078,1.89078,0,0,1,1.7741,1.23426l5.47383,14.83679A1.89042,1.89042,0,0,1,187.60667,246.98832Z"/></g><path class="cls-42" d="M187.60667,246.98832H164.717a1.8908,1.8908,0,0,1-1.7741-1.23426l-.17359-.47352c.15468,0,.30618-.00315.44823-.0095a46.99688,46.99688,0,0,0,5.56225-.625,46.04208,46.04208,0,0,0,6.27246-1.54057c1.34162-.42925,2.78111-1.01963,3.42512-2.27284.82388-1.60679-.0316-3.57033-1.13647-4.99718-1.108-1.42683-2.51594-2.72742-2.97048-4.47626a4.75525,4.75525,0,0,1,.23675-2.9863h7.5257a1.89078,1.89078,0,0,1,1.7741,1.23426l5.47383,14.83679A1.89042,1.89042,0,0,1,187.60667,246.98832Z"/><path class="cls-43" d="M163.52688,235.65242a12.5122,12.5122,0,0,1-3.79443,1.3921l-2.26024-6.12725a1.88872,1.88872,0,0,1,1.77095-2.54438h5.70427a5.15865,5.15865,0,0,1,1.23745,2.53488A5.09482,5.09482,0,0,1,163.52688,235.65242Z"/><path class="cls-44" d="M263.07431,5.93787l-.3378.906L228.29628,99.6022a4.40136,4.40136,0,0,1-4.12592,2.87265H34.98237A4.40507,4.40507,0,0,1,30.85332,96.537l8.94627-24.09873L55.55815,29.99557,64.154,6.84386l1.47421-3.97121A4.40545,4.40545,0,0,1,69.75727,0h189.188A4.406,4.406,0,0,1,263.07431,5.93787Z"/><g class="cls-45"><path class="cls-46" d="M263.07431,5.93787l-.3378.906H64.154l1.47421-3.97121A4.40545,4.40545,0,0,1,69.75727,0h189.188A4.406,4.406,0,0,1,263.07431,5.93787Z"/></g><g class="cls-47"><path class="cls-48" d="M62.4178,38.2947,53.017,62.6365a15.39161,15.39161,0,0,1-13.21737,9.80175L55.55815,29.99557h1.17116A6.10047,6.10047,0,0,1,62.4178,38.2947Z"/></g><path class="cls-49" d="M178.9811,54.43564a37.85054,37.85054,0,0,1-9.87435,20.8031,38.7484,38.7484,0,0,1-24.20288,12.45343,33.61686,33.61686,0,0,1-3.57348.18938c-18.47023,0-31.56132-14.97569-29.23479-33.44591,1.711-13.60881,11.31384-25.32037,23.641-30.53853a35.84805,35.84805,0,0,1,14.00969-2.90422,31.24522,31.24522,0,0,1,11.23811,2.0298C173.20423,27.70732,180.7994,40.003,178.9811,54.43564Z"/><path class="cls-50" d="M178.9811,54.43564a37.85054,37.85054,0,0,1-9.87435,20.8031,3.075,3.075,0,0,1-1.90037-2.66115c-.02526-1.44583.98806-3.0905.05682-4.19537-.98491-1.168-3.01784-.30936-4.33427-1.08593-1.11746-.65973-1.27846-2.2192-1.03854-3.4945s.75131-2.55386.50508-3.826c-.50193-2.56958-3.81025-3.58293-6.36085-2.98627-2.55069.59975-4.74465,2.23183-7.25427,2.98627-2.5065.75131-5.82423.202-6.78073-2.235-.80494-2.0519.58716-4.46051,2.557-5.4486a10.50231,10.50231,0,0,1,6.47452-.49877,31.58037,31.58037,0,0,0,6.53447.89655,6.61923,6.61923,0,0,0,4.81406-2.0298,3.858,3.858,0,0,0,.19575-4.91827c-1.048-1.1585-2.76216-1.34478-4.22693-1.89721-1.46155-.55559-2.91685-2.08028-2.26653-3.504.57772-1.26586,2.29813-1.37638,3.68707-1.34162,1.3922.03788,3.13785-.20522,3.56717-1.52791.51771-1.60363-1.36687-2.82214-2.56957-4.00277-2.254-2.2129-2.42758-6.00417-.92181-8.78212a9.85814,9.85814,0,0,1,1.1396-1.66361C173.20423,27.70732,180.7994,40.003,178.9811,54.43564Z"/><path class="cls-51" d="M148.77722,73.98547c-1.40163.85867-3.05581,1.209-4.52367,1.95091s-2.83477,2.10872-2.778,3.75021c.08839,2.377,2.95792,3.75973,3.51663,6.0673a3.58062,3.58062,0,0,1-.08836,1.93828,33.61686,33.61686,0,0,1-3.57348.18938c-18.47023,0-31.56132-14.97569-29.23479-33.44591,1.711-13.60881,11.31384-25.32037,23.641-30.53853a15.848,15.848,0,0,1,.47983,5.76425c-.44826,2.42439-2.15607,4.41631-3.99646,6.05467a42.54878,42.54878,0,0,0-5.42967,5.00035c-1.531,1.93193-2.47487,4.56149-1.65414,6.8849.92812,2.63271,3.90182,4.35314,4.208,7.12794.45773,4.11645-5.095,6.61026-5.66636,10.71093-.39775,2.86315,1.96666,5.57165,4.73514,6.40188s5.77053.17994,8.47585-.83654c2.70538-1.01964,5.28758-2.4023,8.094-3.09679,2.235-.55555,5.26861-.21466,5.9,2.00139C151.33414,71.49166,150.17879,73.12683,148.77722,73.98547Z"/><path class="cls-18" d="M121.44824,40.8811a.472.472,0,0,1-.33481-.13871L107.11962,26.74858H73.92767a.47352.47352,0,0,1,0-.947h33.388a.47357.47357,0,0,1,.33482.13871L121.783,40.07281a.4735.4735,0,0,1-.33477.80829Z"/><path class="cls-18" d="M101.93192,86.12919H61.0984a.47351.47351,0,1,1,0-.947h40.63745l17.73124-17.73123a.47346.47346,0,0,1,.66958.66958L102.26673,85.99045A.47356.47356,0,0,1,101.93192,86.12919Z"/><path class="cls-18" d="M169.43688,38.00055a.4735.4735,0,0,1-.33477-.80829l18.81712-18.81712a.47342.47342,0,0,1,.33477-.13871h55.38917a.47352.47352,0,0,1,0,.947h-55.1931L169.77169,37.86184A.472.472,0,0,1,169.43688,38.00055Z"/><path class="cls-18" d="M209.899,86.57742h-30.6499a.47336.47336,0,0,1-.45053-.328l-7.44368-23.03989a.47346.47346,0,1,1,.90109-.291l7.33777,22.7119H209.899a.47352.47352,0,0,1,0,.947Z"/><path class="cls-52" d="M110.98511,19.81478H70.93061a1.14447,1.14447,0,0,1-1.12-1.57838A2.27257,2.27257,0,0,1,71.84744,16.658H111.902a1.14449,1.14449,0,0,1,1.12,1.57838A2.27252,2.27252,0,0,1,110.98511,19.81478Z"/><path class="cls-52" d="M243.99174,15.05423h-40.0545a1.14448,1.14448,0,0,1-1.11995-1.57839,2.27253,2.27253,0,0,1,2.03677-1.57838h40.05453a1.14448,1.14448,0,0,1,1.12,1.57838A2.27257,2.27257,0,0,1,243.99174,15.05423Z"/><path class="cls-52" d="M201.74828,95.95361H161.69375a1.14449,1.14449,0,0,1-1.12-1.57838,2.27265,2.27265,0,0,1,2.03681-1.57838h40.0545a1.1445,1.1445,0,0,1,1.12,1.57838A2.27265,2.27265,0,0,1,201.74828,95.95361Z"/><path class="cls-52" d="M97.47558,81.15129H57.42105a1.14448,1.14448,0,0,1-1.12-1.57838,2.27257,2.27257,0,0,1,2.0368-1.57838H98.3924a1.14447,1.14447,0,0,1,1.12,1.57838A2.27257,2.27257,0,0,1,97.47558,81.15129Z"/><path class="cls-53" d="M191.9673,103.12874c-2.244,1.97162-4.55288,4.00407-6.7967,5.97391l-4.92678-5.254a26.96013,26.96013,0,0,0-3.12814-2.99431,13.48417,13.48417,0,0,0-4.14109-2.16231q-.14314-.04656-.28689-.08779c-.12367-.03616-.2473-.07231-.37274-.10868a3.0896,3.0896,0,0,1-1.28476-.62486c-.5666-.5278-.66949-1.67477.36961-1.84079a1.4795,1.4795,0,0,1,.80082.114l.5458.22992.58678.24915,4.04795,1.71362q-1.67007-1.79064-3.34189-3.58149c-.07046-.07494-.1407-.15165-.21115-.22659-.18561-.19837-.37243-.40228-.5435-.617a2.92421,2.92421,0,0,1-.69542-1.42382c-.10925-.80186.51853-1.744,1.319-1.62646a.87533.87533,0,0,1-.34676-1.38642,1.42355,1.42355,0,0,1,1.591-.26324,4.18365,4.18365,0,0,1,1.34583,1.05537c.01117.01212.02256.02247.03375.03459.26967.28031.54132.559.811.83936q1.7202,1.77762,3.43866,3.555a41.42,41.42,0,0,0-2.72851-4.3398c-.03638-.05832-.07652-.11528-.11644-.174-.18123-.26631-.39291-.53439-.601-.802-.18438-.23966-.3652-.47889-.51739-.71656a1.4443,1.4443,0,0,1,.36175-2.157,1.47994,1.47994,0,0,1,1.04539-.06621,2.603,2.603,0,0,1,1.12163.71016,8.19517,8.19517,0,0,1,.62892.73327l.02193.0278q3.6879,4.6679,7.37738,9.33777a.84222.84222,0,0,0,.17036-.52939c-.02254-1.04926.002-2.10019.07646-3.147.01818-.27708.04013-.55552.06738-.83333q.07679-.83671.19664-1.672a2.38011,2.38011,0,0,1,.42535-1.22717.96883.96883,0,0,1,.49091-.32956c.60286-.16328,1.06713.36148,1.33892.869a7.51875,7.51875,0,0,1,.72291,2.15482c.05.24907.08888.50043.126.75159.06336.47221.11009.94787.15725,1.42Q191.55724,98.9184,191.9673,103.12874Z"/><path class="cls-54" d="M172.97459,98.692q-.14314-.04656-.28689-.08779c-.12367-.03616-.2473-.07231-.37274-.10868a5.89029,5.89029,0,0,1,.43147-2.12174l.58678.24915A3.83362,3.83362,0,0,0,172.97459,98.692Z"/><path class="cls-54" d="M176.53194,90.30154c.26967.28031.54132.559.811.83936a1.61437,1.61437,0,0,0-.9374.695,8.83021,8.83021,0,0,1-.81979,1.21139c-.221.22441-.49425.38862-.73422.591a2.93746,2.93746,0,0,0-.81227,1.11681c-.07046-.07494-.1407-.15165-.21115-.22659-.18561-.19837-.37243-.40228-.5435-.617a3.23868,3.23868,0,0,1,.1489-.3932,2.20042,2.20042,0,0,1,1.5927-1.30424A2.86462,2.86462,0,0,1,176.53194,90.30154Z"/><path class="cls-54" d="M179.97594,87.88379a5.48414,5.48414,0,0,0-2.03928,2.29834c-.18123-.26631-.39291-.53439-.601-.802a6.64836,6.64836,0,0,1,2.01138-2.22956A8.19517,8.19517,0,0,1,179.97594,87.88379Z"/><path class="cls-54" d="M190.99016,93.28631a6.72165,6.72165,0,0,0-1.44183-.10112,6.54287,6.54287,0,0,0-1.92626.38774c.01818-.27708.04013-.55552.06738-.83333.33019-.09627.6455-.15827.83543-.19538a6.22675,6.22675,0,0,1,2.3393-.0095C190.91415,92.78379,190.95306,93.03515,190.99016,93.28631Z"/><path class="cls-55" d="M253.90729,119.6634c-.95185,2.18123-3.00935,3.65418-5.06173,4.85392-10.56966,6.18048-23.42552,7.84441-35.49246,5.58762a55.96818,55.96818,0,0,1-5.95759-1.45182c-.08341-.026-.1688-.05048-.25222-.0765-8.61-2.65546-16.63873-7.64922-21.529-15.05162a29.11951,29.11951,0,0,1-1.96813-3.46856,28.73972,28.73972,0,0,1,8.83134-8.815q1.31728,1.206,2.70427,2.32479a57.67533,57.67533,0,0,0,16.16453,9.20028,55.8556,55.8556,0,0,0,5.89063,1.82225,53.24594,53.24594,0,0,0,16.08436,1.51872,112.38813,112.38813,0,0,0,13.70045-1.96811q2.45589-.45695,4.91359-.91369C254.12479,114.1533,254.859,117.484,253.90729,119.6634Z"/><path class="cls-56" d="M213.3531,130.10494a55.96818,55.96818,0,0,1-5.95759-1.45182c-.08341-.026-.1688-.05048-.25222-.0765a73.28816,73.28816,0,0,1,4.203-15.81011,55.8556,55.8556,0,0,0,5.89063,1.82225A44.46377,44.46377,0,0,0,213.3531,130.10494Z"/><path class="cls-56" d="M195.18175,103.56623a37.15361,37.15361,0,0,0-8.98578,9.08686q-.29908.42958-.5817.87191a29.11951,29.11951,0,0,1-1.96813-3.46856,28.73972,28.73972,0,0,1,8.83134-8.815Q193.79477,102.44747,195.18175,103.56623Z"/><path class="cls-53" d="M278.21044,247.27312c-.10342,2.28961-16.2508,34.944-16.2508,34.944a5.41813,5.41813,0,0,1-1.94518-.8303,4.78807,4.78807,0,0,1-1.57315-1.75918c-1.13675-2.19767,1.62311-25.84069,1.62311-25.84069l-5.99828-2.97985,6.53464-13.11085s10.9233,4.494,15.56348,7.53321C277.43319,246.06079,278.232,246.7812,278.21044,247.27312Z"/><path class="cls-56" d="M278.21044,247.27312c-.10342,2.28961-16.2508,34.944-16.2508,34.944a5.41813,5.41813,0,0,1-1.94518-.8303L271.212,256.68956s-8.37884-3.65612-6.74256-7.75053,9.53455.79974,9.53455.79974l2.16025-4.5093C277.43319,246.06079,278.232,246.7812,278.21044,247.27312Z"/><path class="cls-55" d="M261.29059,238.84923l-6.36723,12.36185a1.42677,1.42677,0,0,1-1.86127.646q-.73674-.33554-1.90746-.86592c-4.63657-2.09632-14.35642-6.44092-28.85137-12.66945-11.58345-4.97958-21.87306-11.48034-27.40032-18.8864a20.95238,20.95238,0,0,1-4.0162-8.64379,16.28442,16.28442,0,0,1,1.86764-10.91529c8.2266-15.36412,43.96206-31.68761,43.96206-31.68761,9.543-4.79286,18.02206,3.62261,23.36565,8.96873.10514.10415.20854.20832.31192.3107,5.32039,5.321-5.11366,5.84-25.03908,15.49953-9.90267,4.80047-14.71355,8.62712-16.6484,11.71317a5.42539,5.42539,0,0,0,.14658,6.70242,12.1694,12.1694,0,0,0,1.502,1.63728c3.45343,3.19929,33.26721,19.70459,40.2427,23.54864A1.70741,1.70741,0,0,1,261.29059,238.84923Z"/><path class="cls-56" d="M218.85311,211.3832a42.61124,42.61124,0,0,0-23.95017,8.05214,20.95238,20.95238,0,0,1-4.0162-8.64379,60.19645,60.19645,0,0,1,27.81979-6.11077A5.42539,5.42539,0,0,0,218.85311,211.3832Z"/><g class="cls-57"><path class="cls-58" d="M261.29059,238.84923l-6.36723,12.36185a1.42677,1.42677,0,0,1-1.86127.646q-.73674-.33554-1.90746-.86592c1.11962-2.77246,2.661-5.41806,3.27087-6.79159a7.20745,7.20745,0,0,0,.90745-4.39233c-.43119-1.898-2.2695-3.08038-3.95292-4.05995q-12.3525-7.19016-24.70677-14.38212a39.77033,39.77033,0,0,1-8.73781-6.20513c-2.50042-2.56777-4.32668-6.0043-4.17726-9.58547.15339-3.69026,2.38623-7.04534,5.23254-9.398,2.8481-2.35267,6.28519-3.85688,9.67031-5.3327q15.71139-6.84324,31.421-13.6865c.10514.10415.20854.20832.31192.3107,5.32039,5.321-5.11366,5.84-25.03908,15.49953-9.90267,4.80047-14.71355,8.62712-16.6484,11.71317a5.42539,5.42539,0,0,0,.14658,6.70242,12.1694,12.1694,0,0,0,1.502,1.63728c3.45343,3.19929,33.26721,19.70459,40.2427,23.54864A1.70741,1.70741,0,0,1,261.29059,238.84923Z"/></g><path class="cls-53" d="M214.92755,307.703l-30.69089,16.49453a8.40385,8.40385,0,0,1-2.474-2.00057,4.45339,4.45339,0,0,1-.98466-4.10245c1.04325-3.87122,16.52488-19.31722,16.52488-19.31722a64.12324,64.12324,0,0,1,.43487-10.044l15.89155,1.643,1.02218,13.6509Z"/><path class="cls-56" d="M214.92755,307.703l-30.69089,16.49453a8.40385,8.40385,0,0,1-2.474-2.00057l22.77556-12.0766s-3.14177-9.01085,1.18056-12.32227c4.32228-3.30966,5.79352,7.96165,5.79352,7.96165l3.13918-1.73256Z"/><path class="cls-55" d="M286.85836,183.08494s-19.6723,15.62883-35.51349,29.15738c-4.37581,3.737-8.99434,9.69879-13.41875,16.85816-1.65783,2.68095-3.28764,5.53021-4.86778,8.49235-9.09708,17.0515-16.53371,37.86449-17.92717,52.09673a1.76583,1.76583,0,0,1-1.90242,1.59229l-14.89832-1.24032a1.77336,1.77336,0,0,1-1.61528-1.96868c.14243-1.24468.36762-3.08835.69124-5.41472,1.57943-11.35291,5.49386-34.19722,13.52555-54.82729,1.47772-3.79624,3.0965-7.51859,4.86495-11.07937,1.46563-2.95362,3.03638-5.79772,4.71565-8.48216,19.10388-30.525,29.15261-37.53091,29.15261-37.53091s11.73843,12.77516,27.5512,13.48577A29.80849,29.80849,0,0,0,286.85836,183.08494Z"/><path class="cls-56" d="M237.92612,229.10048c-1.65783,2.68095-3.28764,5.53021-4.86778,8.49235a45.07509,45.07509,0,0,0-4.09657-2.97453,46.19807,46.19807,0,0,0-18.02983-6.78746c1.47772-3.79624,3.0965-7.51859,4.86495-11.07937a19.39782,19.39782,0,0,1,6.62,1.7853A51.51,51.51,0,0,1,237.92612,229.10048Z"/><g class="cls-59"><path class="cls-60" d="M286.85836,183.08494s-19.6723,15.62883-35.51349,29.15738c-4.37581,3.737-8.99434,9.69879-13.41875,16.85816-1.65783,2.68095-3.28764,5.53021-4.86778,8.49235-9.09708,17.0515-16.53371,37.86449-17.92717,52.09673a1.76583,1.76583,0,0,1-1.90242,1.59229l-14.89832-1.24032a1.77336,1.77336,0,0,1-1.61528-1.96868c.14243-1.24468.36762-3.08835.69124-5.41472,4.25788,1.45618,9.01129,2.92856,13.00487-.02811,3.07682-2.27665,4.11183-6.33041,5.08644-10.03011a150.89942,150.89942,0,0,1,33.634-62.25337c8.56067-9.5072,18.29244-17.87394,28.08462-26.12237A29.80849,29.80849,0,0,0,286.85836,183.08494Z"/></g><polyline class="cls-53" points="249.399 95.223 246.736 91.065 245.189 91.202 241.982 93.316 238.861 96.52 236.714 98.906 236.112 101.156 237.344 103.609 238.289 105.722 242.355 104.63 249.399 95.223"/><path class="cls-55" d="M278.67435,189.06913a34.58017,34.58017,0,0,1-9.2385,2.13643c-.53678.06669-1.07663.13029-1.61464.19454-7.34532.86807-14.456,2.83157-21.80012,3.70209-4.59167-5.32217-10.74749-9.8406-16.7624-13.47762,4.37881-23.6697,9.00505-47.98733,21.85-68.344q1.876.64256,3.80179,1.11959a49.91846,49.91846,0,0,0,23.39167.04376c.27587-.06463.55116-.13355.8246-.20309,2.18632-.55885,4.48137-1.13015,6.63909-.4693a16.37737,16.37737,0,0,1,4.41677,2.89051c2.25672,1.897,4.50662,4.28131,5.09735,5.833,3.0174,7.946-2.55643,14.13273-1.79577,22.59737.153,1.70715.30608,3.42047.43576,5.13613a75.36279,75.36279,0,0,1-.14036,15.93392c-.17117,1.2535-.39451,2.4976-.67916,3.73532C291.24248,177.99268,286.32587,185.83757,278.67435,189.06913Z"/><path class="cls-56" d="M293.77962,166.16252c-3.827-1.10554-15.19319-6.15782-16.65153-5.25487-1.33347.8242-5.64461,22.21176-7.69224,30.29791-.53678.06669-1.07663.13029-1.61464.19454-7.34532.86807-14.456,2.83157-21.80012,3.70209-4.59167-5.32217-10.74749-9.8406-16.7624-13.47762,4.37881-23.6697,9.00505-47.98733,21.85-68.344q1.876.64256,3.80179,1.11959c-7.33621,12.55389-12.45708,38.276-12.45708,38.276l26.23061,5.38067s4.20308-12.91092,5.42037-20.8922c.937-6.13766,3.2-17.7018,4.19777-22.72073.27587-.06463.55116-.13355.8246-.20309,2.18632-.55885,4.48137-1.13015,6.63909-.4693a16.37737,16.37737,0,0,1,4.41677,2.89051c-11.642.91728-9.64216,26.06021-9.64216,26.06021L293.92,150.2286c.08235,1.09117.15615,2.18357.21393,3.27463l-12.3978-4.66089-2.64644,7.8389,15.06764,5.60117C294.07928,163.58171,293.95645,164.87406,293.77962,166.16252Z"/><path class="cls-61" d="M247.19193,158.43109c-.06754.17593-.137.35738-.21078.54555a40.88238,40.88238,0,0,1-1.90589,4.0977q-.1363.25822-.28008.52011-.62776,1.1403-1.40014,2.37524c-.25572.40541-.51933.79176-.79638,1.16332-.1154.15977-.23572.31585-.35539.47009a21.783,21.783,0,0,1-2.834,2.95661c-.14783.12834-.2956.2567-.44653.38194a43.79383,43.79383,0,0,1-3.69121,2.71639c-.16374.10864-.32557.2179-.4893.32654-1.2358.82031-2.49122,1.62581-3.72841,2.48662-.16559.11416-.32928.22894-.49183.3462-.7787.55255-1.547,1.12911-2.29773,1.75053a9.75775,9.75775,0,0,0-.89951.84371c-.13373.14129-.26261.28628-.38346.43194a8.669,8.669,0,0,0-1.95858,4.715q-.03063.30006-.04276.5818a10.00889,10.00889,0,0,0,.20773,2.49191c.067.30536.12341.47807.12341.47807l.89619.6312-.93941,7.62519c-.66515-1.51332-3.90367-6.10578-4.15011-7.46953-.03553-.1923-.06729-.38331-.0936-.57249a13.65354,13.65354,0,0,1-.03012-3.82518c.02655-.19391.05614-.38469.09122-.57364a14.44463,14.44463,0,0,1,3.06657-6.45544c.12087-.15178.24485-.30048.37308-.44977a24.90616,24.90616,0,0,1,3.379-3.248c.15211-.1228.30544-.24315.46056-.36288a42.6023,42.6023,0,0,1,4.06654-2.772c.16555-.1019.33228-.20131.499-.30075q.75687-.44825,1.527-.87566a15.86348,15.86348,0,0,0,2.13009-1.41785c.15458-.124.3073-.24867.45514-.377a16.42777,16.42777,0,0,0,2.233-2.32355c.12154-.15361.23941-.30846.35537-.464a19.28288,19.28288,0,0,0,1.931-3.27989c.083-.17893.16405-.3585.24026-.53562a22.55574,22.55574,0,0,0,1.19541-3.56512c.048-.19685.09294-.38453.1323-.56794a17.88713,17.88713,0,0,0,.40291-2.60128c1.82124-1.88068,4.63836.99019,4.63836.99019A23.50951,23.50951,0,0,1,247.19193,158.43109Z"/><path class="cls-61" d="M279.43894,207.52957l-.00063.00184c-.09779.21693-.20174.42156-.30992.62066a10.87958,10.87958,0,0,1-2.68786,3.2764c.05864-.23427.10923-.4692.15312-.70231a13.37408,13.37408,0,0,0,.21617-2.57624c-.00172-.19521-.009-.39231-.0211-.587a14.24446,14.24446,0,0,0-.62056-3.38117c-.05878-.18991-.11946-.38044-.18686-.56914a20.66679,20.66679,0,0,0-1.82266-3.8321c-.10431-.1766-.21287-.35256-.32456-.52551q-.76149-1.21287-1.71067-2.44611c-.11607-.15393-.23459-.30662-.35736-.4587q-1.09782-1.391-2.41951-2.82271c-.13757-.15094-.27755-.30064-.42061-.45343q-1.82867-1.9481-4.04978-3.996c-.14312-.13435-.28808-.26936-.43555-.40314q-2.31594-2.12493-5.02063-4.38518c-.02875-.024-.05751-.04809-.08384-.07338-.17926-.14863-.35058-.30276-.51881-.45995a16.55938,16.55938,0,0,1-3.19867-4.05283c-.10183-.1778-.19937-.35619-.292-.537a20.079,20.079,0,0,1-1.69322-4.60384c-.04652-.196-.09116-.39139-.13154-.58737a27.14034,27.14034,0,0,1-.55452-4.42636c-.00909-.1977-.0163-.39478-.02353-.59187a36.50971,36.50971,0,0,1,.13369-4.11615q.02688-.29827.05747-.5891c.153-1.47887.3749-2.8218.60084-3.95231.03944-.20182.08072-.39687.12011-.58642.4075-1.88671.79442-3.051.79442-3.051a2.94981,2.94981,0,0,1,4.44349.89367q-.39288,1.83738-.6518,3.48432c-.03022.19265-.05919.38161-.08813.57059-.18036,1.24424-.30514,2.40891-.372,3.505-.013.19639-.023.38972-.03231.58123a27.52958,27.52958,0,0,0,.07324,3.78237c.01954.19715.03964.39244.061.584a18.953,18.953,0,0,0,.809,3.69068q.0947.284.19675.56429a18.05926,18.05926,0,0,0,1.7783,3.54462q.163.25479.33323.50588a30.028,30.028,0,0,0,2.91695,3.56433c.14.14971.28433.29883.428.44979,1.0908,1.13248,2.29635,2.28324,3.60169,3.50863.14189.13192.285.26629.43.4013,1.44231,1.34746,3.00158,2.79178,4.659,4.40036q.20823.20247.42014.4123.38163.37164.76874.75741c.52775.52444,1.01442,1.04318,1.46,1.55012q.19526.22268.37953.44161a21.24915,21.24915,0,0,1,2.48955,3.59828c.09388.171.18163.342.26509.51362a12.31345,12.31345,0,0,1,1.352,4.88l-.00062.00184c.00969.202.01443.4003.01247.59427A9.84975,9.84975,0,0,1,279.43894,207.52957Z"/><path class="cls-62" d="M247.19193,158.43109c-.06754.17593-.137.35738-.21078.54555a11.13207,11.13207,0,0,0-3.98394-1.47818c.048-.19685.09294-.38453.1323-.56794A11.67959,11.67959,0,0,1,247.19193,158.43109Z"/><path class="cls-62" d="M245.07526,163.07434q-.1363.25822-.28008.52011a10.67507,10.67507,0,0,0-3.23364-1.99525c.083-.17893.16405-.3585.24026-.53562A11.15078,11.15078,0,0,1,245.07526,163.07434Z"/><path class="cls-62" d="M242.59866,167.133c-.1154.15977-.23572.31585-.35539.47009a20.413,20.413,0,0,0-2.96806-2.26c.12154-.15361.23941-.30846.35537-.464A20.933,20.933,0,0,1,242.59866,167.133Z"/><path class="cls-62" d="M239.40926,170.55971c-.14783.12834-.2956.2567-.44653.38194a13.35334,13.35334,0,0,1-2.37562-2.898c.15458-.124.3073-.24867.45514-.377A12.72838,12.72838,0,0,0,239.40926,170.55971Z"/><path class="cls-62" d="M235.27152,173.658c-.16374.10864-.32557.2179-.4893.32654a19.64988,19.64988,0,0,1-2.35121-3.34668c.16555-.1019.33228-.20131.499-.30075A19.39422,19.39422,0,0,0,235.27152,173.658Z"/><path class="cls-62" d="M231.05381,176.4712c-.16559.11416-.32928.22894-.49183.3462a14.698,14.698,0,0,1-2.65807-3.04463c.15211-.1228.30544-.24315.46056-.36288A14.08979,14.08979,0,0,0,231.05381,176.4712Z"/><path class="cls-62" d="M227.36474,179.41164c-.13373.14129-.26261.28628-.38346.43194a19.1193,19.1193,0,0,1-2.82946-2.37308c.12087-.15178.24485-.30048.37308-.44977A18.92617,18.92617,0,0,0,227.36474,179.41164Z"/><path class="cls-62" d="M224.97994,185.14041a14.29349,14.29349,0,0,1-3.98591-.64083c.02655-.19391.05614-.38469.09122-.57364a13.54543,13.54543,0,0,0,3.93745.63267Q224.99207,184.85867,224.97994,185.14041Z"/><path class="cls-62" d="M225.31108,188.11039l-.0612.10842a19.07178,19.07178,0,0,1-4.13213.67844c-.03553-.1923-.06729-.38331-.0936-.57249.18971-.00973.38009-.02127.56981-.03711a18.44882,18.44882,0,0,0,3.59371-.65533C225.25465,187.93768,225.31108,188.11039,225.31108,188.11039Z"/><path class="cls-62" d="M258.33393,161.61081a14.06686,14.06686,0,0,1-4.61809-1.31118c.03944-.20182.08072-.39687.12011-.58642a13.49456,13.49456,0,0,0,4.58611,1.327C258.39184,161.23287,258.36287,161.42183,258.33393,161.61081Z"/><path class="cls-62" d="M257.92965,165.69708a22.62723,22.62723,0,0,1-4.87212-.856q.02688-.29827.05747-.5891.4884.14641.98487.269a21.74316,21.74316,0,0,0,3.86209.59494C257.94894,165.31224,257.939,165.50557,257.92965,165.69708Z"/><path class="cls-62" d="M258.06393,170.06349a30.34375,30.34375,0,0,1-5.11656-.51443c-.00909-.1977-.0163-.39478-.02353-.59187a30.11105,30.11105,0,0,0,5.079.52226C258.02243,169.6766,258.04253,169.87189,258.06393,170.06349Z"/><path class="cls-62" d="M259.06968,174.31846a34.1486,34.1486,0,0,1-5.43625.24433c-.04652-.196-.09116-.39139-.13154-.58737.29214.01461.58493.02127.87832.02608a33.34874,33.34874,0,0,0,4.49272-.24733Q258.96763,174.03815,259.06968,174.31846Z"/><path class="cls-62" d="M261.18121,178.369a53.0482,53.0482,0,0,1-5.56256,1.3347c-.10183-.1778-.19937-.35619-.292-.537.30037-.05226.60018-.10882.89878-.16781q2.33782-.46158,4.62255-1.13574Q261.01094,178.11787,261.18121,178.369Z"/><path class="cls-62" d="M264.52616,182.38308a41.525,41.525,0,0,1-5.19,1.83336c-.17926-.14863-.35058-.30276-.51881-.45995.31712-.08347.63237-.17374.94828-.26584a40.63475,40.63475,0,0,0,4.33256-1.55736C264.2382,182.083,264.38249,182.23212,264.52616,182.38308Z"/><path class="cls-62" d="M268.55786,186.293q-1.77368,1.47568-3.68171,2.78513c-.14312-.13435-.28808-.26936-.43555-.40314q1.90927-1.30394,3.68725-2.78329C268.26974,186.02363,268.41286,186.158,268.55786,186.293Z"/><path class="cls-62" d="M273.637,191.10567a19.56926,19.56926,0,0,1-4.29048,2.42185c-.13757-.15094-.27755-.30064-.42061-.45343a19.16327,19.16327,0,0,0,4.291-2.38072Q273.42511,190.89584,273.637,191.10567Z"/><path class="cls-62" d="M276.24528,193.85481q-2.0628,1.47644-4.12187,2.95412c-.11607-.15393-.23459-.30662-.35736-.4587q2.05078-1.46822,4.0997-2.937Q276.061,193.63588,276.24528,193.85481Z"/><path class="cls-62" d="M278.99992,197.96671a18.03228,18.03228,0,0,1-4.84128,1.81384c-.10431-.1766-.21287-.35256-.32456-.52551a17.60536,17.60536,0,0,0,4.90075-1.802C278.82871,197.62411,278.91646,197.7951,278.99992,197.96671Z"/><path class="cls-62" d="M280.3638,203.44282a21.42538,21.42538,0,0,1-4.19564.739c-.05878-.18991-.11946-.38044-.18686-.56914a20.52825,20.52825,0,0,0,4.37-.7641C280.361,203.05056,280.36576,203.24885,280.3638,203.44282Z"/><path class="cls-62" d="M279.43831,207.53141c-.09779.21693-.20174.42156-.30992.62066a12.29259,12.29259,0,0,1-2.31857-.00215c-.00172-.19521-.009-.39231-.0211-.587A11.91258,11.91258,0,0,0,279.43831,207.53141Z"/><path class="cls-63" d="M268.76315,135.69211s5.21039.71432,5.8903,1.9886c1.25128,2.34513-3.06624,21.0455-4.47677,21.6346s-33.24966-6.3904-34.29731-6.67679a3.08833,3.08833,0,0,1-2.01229-3.14826c.18251-1.46463,4.44483-15.82078,4.77121-16.78761S268.76315,135.69211,268.76315,135.69211Z"/><path class="cls-61" d="M245.37679,132.61693h13.56715A10.10408,10.10408,0,0,1,269.048,142.721v1.56149a10.10408,10.10408,0,0,1-10.10408,10.10408H245.37686a10.10415,10.10415,0,0,1-10.10415-10.10415V142.721a10.10408,10.10408,0,0,1,10.10408-10.10408Z" transform="translate(32.66363 -46.23171) rotate(11.19647)"/><path class="cls-63" d="M263.2075,142.587a1.48833,1.48833,0,0,1-1.03634.187,2.329,2.329,0,0,1,.87582-4.427,1.42272,1.42272,0,0,1,.55831.24586,2.30966,2.30966,0,0,1,.72285,2.30728A2.493,2.493,0,0,1,263.2075,142.587Z"/><path class="cls-62" d="M263.2075,142.587a2.30255,2.30255,0,0,1-.72044-2.3085,2.49011,2.49011,0,0,1,1.11823-1.68571,2.30966,2.30966,0,0,1,.72285,2.30728A2.493,2.493,0,0,1,263.2075,142.587Z"/><path class="cls-63" d="M250.9008,149.21752a.95565.95565,0,0,1-1.14215.71875l-10.27909-2.3188-1.28679-.291a.95543.95543,0,0,1-.72243-1.14337l.2117-.93656a.95489.95489,0,0,1,1.13234-.72618l1.22672.26254,10.37278,2.2234a.9568.9568,0,0,1,.73223,1.15077Z"/><path class="cls-62" d="M250.9008,149.21752a.95565.95565,0,0,1-1.14215.71875l-10.27909-2.3188a1.09309,1.09309,0,0,1-.28161-1.00478l.24361-1.07947a1.09228,1.09228,0,0,1,.59954-.75032l10.37278,2.2234a.9568.9568,0,0,1,.73223,1.15077Z"/><path class="cls-64" d="M255.037,93.00608a2.262,2.262,0,0,0-.89137-1.59911l-4.83031-3.49668-3.76214,5.197,4.8303,3.49668a2.26085,2.26085,0,0,0,1.80015.34694,3.77395,3.77395,0,0,0,2.85337-3.94484Z"/><path class="cls-65" d="M249.501,92.00375a3.58757,3.58757,0,0,1-2.14764,1.4505,2.26094,2.26094,0,0,1-1.8002-.347c-1.14162-.82642-1.22389-2.6594-.18459-4.09506,1.03814-1.43408,2.80513-1.92836,3.94673-1.102a2.26193,2.26193,0,0,1,.89141,1.59912A3.589,3.589,0,0,1,249.501,92.00375Z"/><path class="cls-61" d="M249.501,92.00375a3.58757,3.58757,0,0,1-2.14764,1.4505,1.739,1.739,0,0,1-.50636-.25391,2.56655,2.56655,0,0,1,2.96077-4.09,1.78173,1.78173,0,0,1,.39894.39906A3.589,3.589,0,0,1,249.501,92.00375Z"/><path class="cls-61" d="M288.59452,118.23935l-.00114.00158c-.212.16045-.44029.32351-.68216.48872-.41041.27567-.86152.55783-1.363.84666a15.21963,15.21963,0,0,1-1.79381.88227c-.202.08381-.405.16219-.60944.23943a18.25278,18.25278,0,0,1-2.87871.79187c-.19.03739-.38318.0725-.57721.1022a23.16225,23.16225,0,0,1-4.35089.27976c-.19069-.00145-.38111-.00989-.5715-.01829a30.24643,30.24643,0,0,1-4.326-.5194c-.185-.03571-.37168-.07256-.556-.11252a35.32162,35.32162,0,0,1-4.49613-1.26091c-.17968-.063-.35822-.12749-.53837-.19322a35.90606,35.90606,0,0,1-4.281-1.9056l-.00156-.00114c-.17748-.09252-.35539-.18777-.52943-.285a31.01329,31.01329,0,0,1-3.93266-2.54251c-.166-.12494-.32965-.253-.48951-.38313q-.2745-.21669-.53748-.43943a13.74677,13.74677,0,0,1-2.39528-2.51761c-.16108-.22443-.30072-.44535-.42393-.65916-2.53987-4.45321,2.48328-6.72431,2.48328-6.72431.20383.20507.40837.40586.61089.60279.14174.13856.283.27441.42437.41024q1.29945,1.23907,2.55032,2.27039.22863.1907.456.37322a37.01587,37.01587,0,0,0,3.43567,2.47754c.1625.10326.32614.20495.48664.30436a27.96512,27.96512,0,0,0,3.53675,1.84133c.18387.08037.36573.15689.54828.22914a21.638,21.638,0,0,0,4.02127,1.19513c.19093.03757.37938.06853.56781.09951a18.63231,18.63231,0,0,0,3.49442.23139c.19522-.00488.38687-.01471.577-.0257a19.01524,19.01524,0,0,0,3.5332-.55056c.19255-.04752.382-.09731.56669-.15054a26.3434,26.3434,0,0,0,2.596-.88148l.00114-.00158c.19094-.07506.37533-.14767.55274-.22057a10.90742,10.90742,0,0,1,2.85571-.97866,5.0773,5.0773,0,0,1,.9993.10268,6.73847,6.73847,0,0,1,.67775.16951C290.67532,112.56094,293.11437,114.83942,288.59452,118.23935Z"/><path class="cls-62" d="M253.68327,111.69308c-.16108-.22443-.30072-.44535-.42393-.65916a16.697,16.697,0,0,1,3.09417-6.12152c.14174.13856.283.27441.42437.41024A15.90822,15.90822,0,0,0,253.68327,111.69308Z"/><path class="cls-62" d="M257.10554,115.03325c-.166-.12494-.32965-.253-.48951-.38313a33.30073,33.30073,0,0,1,2.71217-7.05709q.22863.1907.456.37322A32.56843,32.56843,0,0,0,257.10554,115.03325Z"/><path class="cls-62" d="M261.56763,117.86076c-.17748-.09252-.35539-.18777-.52943-.285a30.47652,30.47652,0,0,1,2.18165-7.132c.1625.10326.32614.20495.48664.30436-.04534.099-.08862.20184-.13351.30355A29.91824,29.91824,0,0,0,261.56763,117.86076Z"/><path class="cls-62" d="M266.38859,119.96072c-.17968-.063-.35822-.12749-.53837-.19322a47.21857,47.21857,0,0,0,1.393-7.178c.18387.08037.36573.15689.54828.22914A48.11692,48.11692,0,0,1,266.38859,119.96072Z"/><path class="cls-62" d="M271.44073,121.33415c-.185-.03571-.37168-.07256-.556-.11252a28.77467,28.77467,0,0,0,.92807-7.20788c.19093.03757.37938.06853.56781.09951-.00171.2408-.00574.48472-.0125.72907A29.1516,29.1516,0,0,1,271.44073,121.33415Z"/><path class="cls-62" d="M276.33818,121.87184c-.19069-.00145-.38111-.00989-.5715-.01829a23.38817,23.38817,0,0,0,.10834-7.5089c.19522-.00488.38687-.01471.577-.0257A24.29784,24.29784,0,0,1,276.33818,121.87184Z"/><path class="cls-62" d="M281.26628,121.48988c-.19.03739-.38318.0725-.57721.1022.02138-.205.04119-.41114.05557-.61642a20.20668,20.20668,0,0,0-.75947-7.20727c.19255-.04752.382-.09731.56669-.15054.05986.20868.11652.41506.17094.62462A20.93509,20.93509,0,0,1,281.26628,121.48988Z"/><path class="cls-62" d="M284.75443,120.45858c-.202.08381-.405.16219-.60944.23943a13.78627,13.78627,0,0,0-.99709-7.96164l.00114-.00158c.19094-.07506.37533-.14767.55274-.22057.03869.08554.07626.17266.11231.25866A14.50578,14.50578,0,0,1,284.75443,120.45858Z"/><path class="cls-62" d="M288.59452,118.23935l-.00114.00158c-.212.16045-.44029.32351-.68216.48872a.15638.15638,0,0,1,.00566-.03425,12.50366,12.50366,0,0,0-.36009-7.05716,6.73847,6.73847,0,0,1,.67775.16951A13.29757,13.29757,0,0,1,288.59452,118.23935Z"/><circle class="cls-55" cx="277.3868" cy="90.3984" r="26.7486" transform="translate(-14.20734 99.78801) rotate(-19.89477)"/><path class="cls-66" d="M302.65352,96.292a.5822.5822,0,0,1-.14651-.78849l8.584-13.22119a.58237.58237,0,0,1,.97694.6342l-8.584,13.22119a.58243.58243,0,0,1-.80556.17137Z"/><path class="cls-65" d="M300.01675,105.35228a18.66613,18.66613,0,0,0,2.51349-6.23989l1.69209-4.20064-2.69115-1.084c-1.64277-.66174-4.29478,2.07936-5.92334,6.12245s-1.61706,7.857.02572,8.51877l2.69113,1.084Z"/><ellipse class="cls-55" cx="301.27349" cy="102.23236" rx="7.8922" ry="3.20679" transform="translate(93.87837 343.48831) rotate(-68.0599)"/><path class="cls-65" d="M299.52956,106.85147a.91543.91543,0,0,1-.35939-.265c-.70727-.814-.594-3.023.344-5.35159.81421-2.02519,2.02044-3.55567,3.02668-3.98236a1.13861,1.13861,0,0,1,.87821-.05446c1.08337.43678,1.08975,2.95054.01536,5.61657C302.36162,105.4818,300.613,107.28825,299.52956,106.85147Z"/><path class="cls-64" d="M299.17017,106.5865c-.70727-.814-.594-3.023.344-5.35159.81421-2.02519,2.02044-3.55567,3.02668-3.98236.7111.81195.59982,3.02483-.33815,5.35344C301.38464,104.63316,300.17845,106.16371,299.17017,106.5865Z"/><ellipse class="cls-56" cx="273.42229" cy="90.25094" rx="24.54329" ry="23.45075" transform="translate(39.98541 258.81013) rotate(-54.09912)"/><path class="cls-67" d="M289.49677,103.07557c-7.637,10.54966-21.80427,13.326-31.64476,6.20241s-11.62739-21.44934-3.99041-31.999a24.73047,24.73047,0,0,1,10.09559-8.19232,21.68592,21.68592,0,0,1,21.5503,1.98829,20.56137,20.56137,0,0,1,4.17642,4.02989C295.68108,82.787,295.885,94.2509,289.49677,103.07557Z"/><path class="cls-68" d="M289.49677,103.07557c-7.637,10.54966-21.80427,13.326-31.64476,6.20241s-11.62739-21.44934-3.99041-31.999a24.73047,24.73047,0,0,1,10.09559-8.19232,3.08326,3.08326,0,0,1-.26357,1.49634,4.75283,4.75283,0,0,1-1.0498,1.59581l-6.48931,6.61381a5.33426,5.33426,0,0,0-1.43544,2.23451,1.07957,1.07957,0,0,0,.475,1.29047,2.03643,2.03643,0,0,1,.95531,2.163c-.00863.04167-.01837.085-.027.12666-.13554.69034-.225,1.39-.38508,2.0746-.39164,1.68643-.72427,3.46348.04608,5.11394a3.159,3.159,0,0,0,1.92432,1.73813c2.30919.68668,4.09782-1.76424,4.51279-3.99935.39184-2.11044.16967-4.40895,1.23042-6.27483a5.07259,5.07259,0,0,1,9.41735,1.68637c.32823,2.00625-.5547,3.984-1.27941,5.8823s-1.29663,4.08206-.39833,5.9066c1.06394,2.15539,3.78211,2.93922,6.18584,2.87953a14.35961,14.35961,0,0,0,12.71041-20.319,6.39252,6.39252,0,0,1-.91147-2.92212,1.99409,1.99409,0,0,1,.5086-1.26864C295.68108,82.787,295.885,94.2509,289.49677,103.07557Z"/><path class="cls-64" d="M294.47231,115.87277a2.26192,2.26192,0,0,0-.89137-1.59907l-4.83031-3.49669-3.76215,5.197,4.8303,3.49669a2.26088,2.26088,0,0,0,1.80017.34693,3.774,3.774,0,0,0,2.85336-3.94486Z"/><path class="cls-65" d="M288.93634,114.87046a3.58754,3.58754,0,0,1-2.14766,1.4505,2.26087,2.26087,0,0,1-1.8002-.34695c-1.1416-.82643-1.22387-2.6594-.18459-4.09506,1.03815-1.4341,2.80514-1.92838,3.94674-1.10194a2.262,2.262,0,0,1,.89142,1.59911A3.58907,3.58907,0,0,1,288.93634,114.87046Z"/><path class="cls-61" d="M288.93634,114.87046a3.58754,3.58754,0,0,1-2.14766,1.4505,1.73892,1.73892,0,0,1-.50635-.2539,2.56655,2.56655,0,0,1,2.96077-4.09,1.78152,1.78152,0,0,1,.39895.39905A3.58907,3.58907,0,0,1,288.93634,114.87046Z"/><polygon class="cls-69" points="243.395 138.529 206.422 128.549 191.768 133.479 227.074 142.844 243.395 138.529"/><path class="cls-70" d="M226.42084,141.881,192.722,133.02594a1.55762,1.55762,0,0,1-1.16171-1.51888l.20869-26.2358a1.55763,1.55763,0,0,1,1.95344-1.4941l33.69886,8.85508a1.55765,1.55765,0,0,1,1.16173,1.51887l-.20871,26.23581A1.55763,1.55763,0,0,1,226.42084,141.881Z"/><path class="cls-71" d="M225.46682,142.33414,191.768,133.47906a1.55763,1.55763,0,0,1-1.16172-1.51887l.2087-26.23581a1.55763,1.55763,0,0,1,1.95345-1.49409l33.69885,8.85506a1.55764,1.55764,0,0,1,1.16173,1.51889L227.42025,140.84A1.55763,1.55763,0,0,1,225.46682,142.33414Z"/><path class="cls-18" d="M203.61937,120.77406a5.66812,5.66812,0,0,1,.8571-4.08868,3.916,3.916,0,0,1,4.14414-1.40115,3.80845,3.80845,0,0,1,2.30874,2.22989,6.92254,6.92254,0,0,1,.34722,3.0449,10.64634,10.64634,0,0,1-.95519,4.04254c-.43825.89286-1.92657,3.29335-3.38512,2.80327-.73508-.247-1.25-1.26043-1.60586-1.83a12.10539,12.10539,0,0,1-1.07605-2.17726A11.105,11.105,0,0,1,203.61937,120.77406Z"/><path class="cls-72" d="M207.85262,120.07181c-.12894.23132-.23358.53973-.0627.74208a.5742.5742,0,0,0,.48426.15276,1.83484,1.83484,0,0,0,1.17589-.59838,3.81164,3.81164,0,0,0,.70265-1.14482,1.405,1.405,0,0,0,.14793-.58092c-.01993-.73565-.69114-.48038-1.04259-.18827A5.74592,5.74592,0,0,0,207.85262,120.07181Z"/><path class="cls-72" d="M205.80752,120.26665c-.00142.26484-.06192.58486-.3102.67705a.57422.57422,0,0,1-.49682-.105,1.83482,1.83482,0,0,1-.72981-1.09916,3.81129,3.81129,0,0,1-.0491-1.34234,1.40455,1.40455,0,0,1,.15675-.5786c.379-.63084.838-.07858,1.00048.34858A5.7467,5.7467,0,0,1,205.80752,120.26665Z"/><path class="cls-66" d="M211.14964,118.2379a25.4758,25.4758,0,0,1,4.53961-1.21475,9.83193,9.83193,0,0,1,1.192-.11343,4.85021,4.85021,0,0,1,.61649.01668,2.36365,2.36365,0,0,1,.64905.14317,1.06823,1.06823,0,0,1,.33851.21114.74331.74331,0,0,1,.22754.41532.96123.96123,0,0,1,.01009.23358,1.51843,1.51843,0,0,1-.04422.20393,1.7091,1.7091,0,0,1-.1542.33461,4.32554,4.32554,0,0,1-.84861.94284,14.02734,14.02734,0,0,1-1.95333,1.38888c-.677.4117-1.37.78964-2.07173,1.14819-1.40687.71059-2.855,1.32689-4.321,1.89348-1.47213.55018-2.96577,1.04532-4.48792,1.45131-.7619.19964-1.53092.37624-2.30812.52354a16.07828,16.07828,0,0,1-2.37077.29152,6.26356,6.26356,0,0,1-1.23545-.05679,2.08357,2.08357,0,0,1-.65686-.21151.95644.95644,0,0,1-.32183-.27669.77505.77505,0,0,1-.13759-.45369,1.27124,1.27124,0,0,1,.27844-.69021,3.47135,3.47135,0,0,1,.42662-.46915,8.02332,8.02332,0,0,1,.95075-.74067,23.59736,23.59736,0,0,1,4.19178-2.12838,30.92228,30.92228,0,0,0-3.93342,2.48357,7.93706,7.93706,0,0,0-.848.75074,2.949,2.949,0,0,0-.33489.416,1.27992,1.27992,0,0,0-.1106.20977.51286.51286,0,0,0-.03439.1722.171.171,0,0,0,.03913.09294.4284.4284,0,0,0,.12793.08828,1.50646,1.50646,0,0,0,.4587.11829,5.64929,5.64929,0,0,0,1.09848-.00147,25.23009,25.23009,0,0,0,4.49545-.93494q2.2267-.63322,4.39564-1.47056c1.4486-.54142,2.87419-1.14528,4.26392-1.81486.69595-.33225,1.38247-.68322,2.04839-1.06411a15.89844,15.89844,0,0,0,1.90373-1.24839,3.74471,3.74471,0,0,0,.75039-.75179.57083.57083,0,0,0,.12478-.32731.14293.14293,0,0,0-.04191-.09074.47574.47574,0,0,0-.1494-.10426,1.82418,1.82418,0,0,0-.48269-.13453,4.3295,4.3295,0,0,0-.55025-.04859,10.12893,10.12893,0,0,0-1.14058.03611A34.18357,34.18357,0,0,0,211.14964,118.2379Z"/><polygon class="cls-70" points="191.768 133.479 191.631 134.641 227.044 144.117 243.277 139.537 243.395 138.529 227.074 142.844 191.768 133.479"/><path class="cls-55" d="M289.27063,154.849a38.30053,38.30053,0,0,1-13.86949,13.66807,33.52156,33.52156,0,0,1-25.07411,3.09843,34.22846,34.22846,0,0,1-14.1782-7.77056,30.6846,30.6846,0,0,1-3.8316-4.24253,64.47,64.47,0,0,1,6.48428-13.39637l.11195-.26246a.282.282,0,0,1,.41136-.12814c1.6739,1.06873,3.37935,2.14476,5.12068,3.14578,4.67038,2.6857,9.60061,4.84716,14.91747,4.97708q.25332.00546.50731.0056a21.03874,21.03874,0,0,0,19.29391-13.73268c.932-2.68615,1.29226-5.535,2.033-8.27969s1.94164-5.49648,4.1452-7.29271c2.20516-1.79425,5.60344-2.35294,7.895-.66935,2.51688,1.8506,2.81678,5.458,2.63379,8.57634A48.88754,48.88754,0,0,1,289.27063,154.849Z"/><path class="cls-53" d="M238.61645,147.27413q-.33578.74139-.66423,1.48187c-1.23166,2.768-2.40255,5.52513-3.62312,8.29087q-.4902,1.11231-.99522,2.22835-4.39419-3.69444-8.78768-7.3942c-.20988-.176-.42133-.354-.63276-.532-.32464-.27238-.64753-.54452-.97217-.81688-.48341-.40812-1.019-.93947-.913-1.5647a2.40647,2.40647,0,0,1-.12679-2.16938,2.26356,2.26356,0,0,1-1.36347-1.22677,2.2251,2.2251,0,0,1,.13037-1.81309,4.65048,4.65048,0,0,1-1.09867-1.51808,1.45869,1.45869,0,0,1,.42124-1.63656,2.01,2.01,0,0,1,1.454-.17126,18.36155,18.36155,0,0,1,2.75743.66295c.26245.0813.52228.16951.78348.26147,1.05054.36494,2.08487.791,3.1123,1.21448q1.83226.75591,3.663,1.50983a27.98625,27.98625,0,0,1-.89984-3.65277c-.05342-.29631-.105-.59241-.15136-.88788-.07477-.48256-.14085-.96229-.19865-1.43565a3.57252,3.57252,0,0,1-.00079-1.20342,1.31141,1.31141,0,0,1,.6904-.9384,1.40307,1.40307,0,0,1,1.67379.7787,5.70145,5.70145,0,0,1,.41784,1.97663c.00868.06407.01737.12814.02779.19242a8.01146,8.01146,0,0,0,.16782.85558,9.68643,9.68643,0,0,0,4.50456,6.02579c.33583.19263.72536.41858.78453.80382A1.23781,1.23781,0,0,1,238.61645,147.27413Z"/><path class="cls-56" d="M237.95222,148.756c-1.23166,2.768-2.40255,5.52513-3.62312,8.29087q-.87845-.41141-1.73807-.86015-1.777-.92771-3.46975-2.00406a1.92466,1.92466,0,0,1-.74808-.70049,1.85921,1.85921,0,0,1-.09787-1.00587,19.62859,19.62859,0,0,1,1.396-5.60567,1.6153,1.6153,0,0,1,.79168-.98772,1.591,1.591,0,0,1,.85611-.0038A16.6526,16.6526,0,0,1,237.95222,148.756Z"/><path class="cls-56" d="M233.48819,139.76628a6.67288,6.67288,0,0,0-2.62684.662c-.05342-.29631-.105-.59241-.15136-.88788a7.36852,7.36852,0,0,1,2.61038-.62972A8.01146,8.01146,0,0,0,233.48819,139.76628Z"/><path class="cls-56" d="M224.5462,151.881c-.20988-.176-.42133-.354-.63276-.532a3.38006,3.38006,0,0,1,.15786-1.174,2.54566,2.54566,0,0,1-.24487-2.72729,2.12625,2.12625,0,0,1-.59873-1.37283,2.20439,2.20439,0,0,1,.46408-1.44955,3.20806,3.20806,0,0,1-.156-2.41062,3.1747,3.1747,0,0,1,.66668-1.11952c.26245.0813.52228.16951.78348.26147a3.08346,3.08346,0,0,0-.67,3.46094,2.02072,2.02072,0,0,0-.24525,1.33481,6.25689,6.25689,0,0,0,.3876,1.3606,2.93,2.93,0,0,0,.22714,2.97017A2.89077,2.89077,0,0,0,224.5462,151.881Z"/><path class="cls-56" d="M244.4455,148.96123a12.99186,12.99186,0,0,1-.72322,1.15611q-1.97481,2.89135-3.70031,5.94535-1.52223,2.696-2.843,5.50216-.533,1.13164-1.03014,2.2801a30.6846,30.6846,0,0,1-3.8316-4.24253,64.47,64.47,0,0,1,6.48428-13.39637l.11195-.26246a.282.282,0,0,1,.41136-.12814C240.99872,146.88418,242.70417,147.96021,244.4455,148.96123Z"/><path class="cls-56" d="M275.40114,168.51708a32.89945,32.89945,0,0,1-13.9576,4.1698,26.70182,26.70182,0,0,0-1.57326-18.743,20.48552,20.48552,0,0,0,11.10732-3.44577,11.39491,11.39491,0,0,1,.607,1.19545,46.47622,46.47622,0,0,1,3.60211,12.73435A21.5227,21.5227,0,0,1,275.40114,168.51708Z"/></g></g></g></svg>