<svg xmlns="http://www.w3.org/2000/svg" xmlns:xlink="http://www.w3.org/1999/xlink" viewBox="0 0 636.40132 601.42121"><defs><style>.cls-1{mask:url(#mask);filter:url(#luminosity-noclip-13);}.cls-10,.cls-12,.cls-14,.cls-16,.cls-18,.cls-2,.cls-20,.cls-22,.cls-24,.cls-35,.cls-37,.cls-39,.cls-4,.cls-49,.cls-51,.cls-56,.cls-58,.cls-6,.cls-60,.cls-62,.cls-66,.cls-69,.cls-71,.cls-8{mix-blend-mode:multiply;}.cls-2{fill:url(#linear-gradient);}.cls-3{mask:url(#mask-2);filter:url(#luminosity-noclip-18);}.cls-4{fill:url(#linear-gradient-2);}.cls-5{mask:url(#mask-3);filter:url(#luminosity-noclip-19);}.cls-6{fill:url(#linear-gradient-3);}.cls-7{mask:url(#mask-4);filter:url(#luminosity-noclip-20);}.cls-8{fill:url(#linear-gradient-4);}.cls-9{mask:url(#mask-5);filter:url(#luminosity-noclip-21);}.cls-10{fill:url(#linear-gradient-5);}.cls-11{mask:url(#mask-6);filter:url(#luminosity-noclip-22);}.cls-12{fill:url(#linear-gradient-6);}.cls-13{mask:url(#mask-7);filter:url(#luminosity-noclip-14);}.cls-14{fill:url(#linear-gradient-7);}.cls-15{mask:url(#mask-8);filter:url(#luminosity-noclip-23);}.cls-16{fill:url(#linear-gradient-8);}.cls-17{mask:url(#mask-9);filter:url(#luminosity-noclip-24);}.cls-18{fill:url(#linear-gradient-9);}.cls-19{mask:url(#mask-10);filter:url(#luminosity-noclip-15);}.cls-20{fill:url(#linear-gradient-10);}.cls-21{mask:url(#mask-11);filter:url(#luminosity-noclip-16);}.cls-22{fill:url(#linear-gradient-11);}.cls-23{mask:url(#mask-12);filter:url(#luminosity-noclip-17);}.cls-24{fill:url(#linear-gradient-12);}.cls-25{isolation:isolate;}.cls-26{fill:#d6ddfd;}.cls-27,.cls-47{fill:#fff;}.cls-28{fill:url(#linear-gradient-13);}.cls-29{fill:#8284e4;}.cls-30{fill:#e5e5e5;}.cls-31{fill:#052b71;}.cls-32{fill:#3d84f8;}.cls-33{fill:#a9d0fc;}.cls-34{mask:url(#mask-13);}.cls-35{fill:url(#linear-gradient-14);}.cls-36{mask:url(#mask-14);}.cls-37{fill:url(#linear-gradient-15);}.cls-38{mask:url(#mask-15);}.cls-39{fill:url(#linear-gradient-16);}.cls-40{fill:#fddf85;}.cls-41{fill:#dd641d;}.cls-42{fill:#fac52f;}.cls-43{fill:#094ea1;}.cls-44{fill:#1864d4;}.cls-45{fill:#5dfdf4;}.cls-46{fill:#010b25;}.cls-47{opacity:0.13;}.cls-48{mask:url(#mask-16);}.cls-49{fill:url(#linear-gradient-17);}.cls-50{mask:url(#mask-17);}.cls-51{fill:url(#linear-gradient-18);}.cls-52{fill:#dd503f;}.cls-53{fill:#f49529;}.cls-54{fill:#fddb82;}.cls-55{mask:url(#mask-18);}.cls-56{fill:url(#linear-gradient-19);}.cls-57{mask:url(#mask-19);}.cls-58{fill:url(#linear-gradient-20);}.cls-59{mask:url(#mask-20);}.cls-60{fill:url(#linear-gradient-21);}.cls-61{mask:url(#mask-21);}.cls-62{fill:url(#linear-gradient-22);}.cls-63{fill:#93cdf7;}.cls-64{fill:#fad56e;}.cls-65{mask:url(#mask-22);}.cls-66{fill:url(#linear-gradient-23);}.cls-67{opacity:0.1;}.cls-68{mask:url(#mask-23);}.cls-69{fill:#ce684c;}.cls-70{mask:url(#mask-24);}.cls-71{fill:url(#linear-gradient-24);}.cls-72{filter:url(#luminosity-noclip-12);}.cls-73{filter:url(#luminosity-noclip-11);}.cls-74{filter:url(#luminosity-noclip-10);}.cls-75{filter:url(#luminosity-noclip-9);}.cls-76{filter:url(#luminosity-noclip-8);}.cls-77{filter:url(#luminosity-noclip-7);}.cls-78{filter:url(#luminosity-noclip-6);}.cls-79{filter:url(#luminosity-noclip-5);}.cls-80{filter:url(#luminosity-noclip-4);}.cls-81{filter:url(#luminosity-noclip-3);}.cls-82{filter:url(#luminosity-noclip-2);}.cls-83{filter:url(#luminosity-noclip);}</style><filter id="luminosity-noclip" x="427.13609" y="-2260.42121" width="87.14064" height="32766" filterUnits="userSpaceOnUse" color-interpolation-filters="sRGB"><feFlood flood-color="#fff" result="bg"/><feBlend in="SourceGraphic" in2="bg"/></filter><mask id="mask" x="427.13609" y="-2260.42121" width="87.14064" height="32766" maskUnits="userSpaceOnUse"><g class="cls-83"/></mask><linearGradient id="linear-gradient" x1="6415.903" y1="-4181.60233" x2="6455.47146" y2="-4039.23384" gradientTransform="matrix(0.75115, 0.66012, -0.7722, 0.87867, -7539.83716, -350.06481)" gradientUnits="userSpaceOnUse"><stop offset="0"/><stop offset="1" stop-color="#fff"/></linearGradient><filter id="luminosity-noclip-2" x="22.60512" y="-2260.42121" width="107.4295" height="32766" filterUnits="userSpaceOnUse" color-interpolation-filters="sRGB"><feFlood flood-color="#fff" result="bg"/><feBlend in="SourceGraphic" in2="bg"/></filter><mask id="mask-2" x="22.60512" y="-2260.42121" width="107.4295" height="32766" maskUnits="userSpaceOnUse"><g class="cls-82"/></mask><linearGradient id="linear-gradient-2" x1="-930.67455" y1="190.64699" x2="-899.65137" y2="297.84555" gradientTransform="matrix(0.974, -0.22654, 0.22654, 0.974, 916.6991, -141.24929)" gradientUnits="userSpaceOnUse"><stop offset="0"/><stop offset="0.99441" stop-color="#fff"/></linearGradient><filter id="luminosity-noclip-3" x="13.95506" y="-2260.42121" width="33.0989" height="32766" filterUnits="userSpaceOnUse" color-interpolation-filters="sRGB"><feFlood flood-color="#fff" result="bg"/><feBlend in="SourceGraphic" in2="bg"/></filter><mask id="mask-3" x="13.95506" y="-2260.42121" width="33.0989" height="32766" maskUnits="userSpaceOnUse"><g class="cls-81"/></mask><linearGradient id="linear-gradient-3" x1="-686.26535" y1="-1514.91354" x2="-668.7183" y2="-1514.91354" gradientTransform="translate(371.35351 2123.95149) rotate(12.31444)" xlink:href="#linear-gradient-2"/><filter id="luminosity-noclip-4" x="77.40038" y="-2260.42121" width="47.62133" height="32766" filterUnits="userSpaceOnUse" color-interpolation-filters="sRGB"><feFlood flood-color="#fff" result="bg"/><feBlend in="SourceGraphic" in2="bg"/></filter><mask id="mask-4" x="77.40038" y="-2260.42121" width="47.62133" height="32766" maskUnits="userSpaceOnUse"><g class="cls-80"/></mask><linearGradient id="linear-gradient-4" x1="-603.09508" y1="-642.01247" x2="-565.58927" y2="-642.01247" gradientTransform="translate(721.72154 1105.37562) rotate(-3.26812)" xlink:href="#linear-gradient-2"/><filter id="luminosity-noclip-5" x="45.04862" y="-2260.42121" width="78.39301" height="32766" filterUnits="userSpaceOnUse" color-interpolation-filters="sRGB"><feFlood flood-color="#fff" result="bg"/><feBlend in="SourceGraphic" in2="bg"/></filter><mask id="mask-5" x="45.04862" y="-2260.42121" width="78.39301" height="32766" maskUnits="userSpaceOnUse"><g class="cls-79"/></mask><linearGradient id="linear-gradient-5" x1="-709.79589" y1="301.52135" x2="-968.64699" y2="256.89186" xlink:href="#linear-gradient-2"/><filter id="luminosity-noclip-6" x="128.75335" y="-2260.42121" width="74.24271" height="32766" filterUnits="userSpaceOnUse" color-interpolation-filters="sRGB"><feFlood flood-color="#fff" result="bg"/><feBlend in="SourceGraphic" in2="bg"/></filter><mask id="mask-6" x="128.75335" y="-2260.42121" width="74.24271" height="32766" maskUnits="userSpaceOnUse"><g class="cls-78"/></mask><linearGradient id="linear-gradient-6" x1="4458.30468" y1="-2588.93921" x2="4493.56408" y2="-2462.07485" gradientTransform="matrix(-0.45864, 0.88862, 1.03948, 0.5365, 4847.57196, -2367.8954)" xlink:href="#linear-gradient"/><filter id="luminosity-noclip-7" x="579.36388" y="-2260.42121" width="55.6615" height="32766" filterUnits="userSpaceOnUse" color-interpolation-filters="sRGB"><feFlood flood-color="#fff" result="bg"/><feBlend in="SourceGraphic" in2="bg"/></filter><mask id="mask-7" x="579.36388" y="-2260.42121" width="55.6615" height="32766" maskUnits="userSpaceOnUse"><g class="cls-77"/></mask><linearGradient id="linear-gradient-7" x1="1073.70609" y1="283.04786" x2="1128.14154" y2="283.04786" gradientTransform="translate(-466.91806 202.36746) rotate(4.43342)" xlink:href="#linear-gradient"/><filter id="luminosity-noclip-8" x="128.26036" y="-2260.42121" width="74.71569" height="32766" filterUnits="userSpaceOnUse" color-interpolation-filters="sRGB"><feFlood flood-color="#fff" result="bg"/><feBlend in="SourceGraphic" in2="bg"/></filter><mask id="mask-8" x="128.26036" y="-2260.42121" width="74.71569" height="32766" maskUnits="userSpaceOnUse"><g class="cls-76"/></mask><linearGradient id="linear-gradient-8" x1="4370.77508" y1="-2588.98041" x2="4406.04501" y2="-2462.07812" gradientTransform="matrix(-0.46658, 0.90402, 1.03948, 0.5365, 4842.04995, -2357.19618)" xlink:href="#linear-gradient"/><filter id="luminosity-noclip-9" x="104.10218" y="-2260.42121" width="107.4295" height="32766" filterUnits="userSpaceOnUse" color-interpolation-filters="sRGB"><feFlood flood-color="#fff" result="bg"/><feBlend in="SourceGraphic" in2="bg"/></filter><mask id="mask-9" x="104.10218" y="-2260.42121" width="107.4295" height="32766" maskUnits="userSpaceOnUse"><g class="cls-75"/></mask><linearGradient id="linear-gradient-9" x1="-845.29805" y1="183.31991" x2="-814.27488" y2="290.51847" xlink:href="#linear-gradient-2"/><filter id="luminosity-noclip-10" x="485.72208" y="-2260.42121" width="62.0621" height="32766" filterUnits="userSpaceOnUse" color-interpolation-filters="sRGB"><feFlood flood-color="#fff" result="bg"/><feBlend in="SourceGraphic" in2="bg"/></filter><mask id="mask-10" x="485.72208" y="-2260.42121" width="62.0621" height="32766" maskUnits="userSpaceOnUse"><g class="cls-74"/></mask><linearGradient id="linear-gradient-10" x1="979.67974" y1="288.59022" x2="1041.62985" y2="288.59022" gradientTransform="translate(-466.91806 202.36746) rotate(4.43342)" xlink:href="#linear-gradient"/><filter id="luminosity-noclip-11" x="574.00138" y="-2260.42121" width="21.60355" height="32766" filterUnits="userSpaceOnUse" color-interpolation-filters="sRGB"><feFlood flood-color="#fff" result="bg"/><feBlend in="SourceGraphic" in2="bg"/></filter><mask id="mask-11" x="574.00138" y="-2260.42121" width="21.60355" height="32766" maskUnits="userSpaceOnUse"><g class="cls-73"/></mask><linearGradient id="linear-gradient-11" x1="1051.27742" y1="104.33951" x2="1073.72359" y2="104.33951" gradientTransform="translate(-466.91806 202.36746) rotate(4.43342)" xlink:href="#linear-gradient"/><filter id="luminosity-noclip-12" x="583.50391" y="-2260.42121" width="30.91328" height="32766" filterUnits="userSpaceOnUse" color-interpolation-filters="sRGB"><feFlood flood-color="#fff" result="bg"/><feBlend in="SourceGraphic" in2="bg"/></filter><mask id="mask-12" x="583.50391" y="-2260.42121" width="30.91328" height="32766" maskUnits="userSpaceOnUse"><g class="cls-72"/></mask><linearGradient id="linear-gradient-12" x1="1286.3848" y1="-7.29748" x2="937.25326" y2="38.27359" gradientTransform="translate(-466.91806 202.36746) rotate(4.43342)" xlink:href="#linear-gradient"/><linearGradient id="linear-gradient-13" x1="262.72143" y1="-263.78433" x2="398.2434" y2="267.50209" gradientUnits="userSpaceOnUse"><stop offset="0" stop-color="#f6a1c9"/><stop offset="1" stop-color="#9173f3"/></linearGradient><filter id="luminosity-noclip-13" x="427.13609" y="267.45511" width="87.14064" height="50.9661" filterUnits="userSpaceOnUse" color-interpolation-filters="sRGB"><feFlood flood-color="#fff" result="bg"/><feBlend in="SourceGraphic" in2="bg"/></filter><mask id="mask-13" x="427.13609" y="267.45511" width="87.14064" height="50.9661" maskUnits="userSpaceOnUse"><g class="cls-1"><path class="cls-2" d="M513.4698,286.41407q-7.86867,8.95814-16.01961,17.31584c-5.48173,5.61387-11.23358,11.14112-17.464,13.44444a19.9263,19.9263,0,0,1-3.13442.88007,22.95183,22.95183,0,0,1-11.9407-1.08062,42.84076,42.84076,0,0,1-7.9145-3.75188c-11.96157-7.08428-21.7899-19.65245-29.86044-33.79262q3.35992-5.98682,6.7235-11.97419c-.47342,5.252-1.2113,9.46815.36936,14.53812,2.32294,7.46979,7.13935,12.26487,11.99992,16.31514,4.76722,3.97511,9.81548,7.53747,15.45713,8.92723,8.724,2.1572,18.35011-1.05532,27.22593-6.70013s17.1537-13.62837,25.3648-21.55873C514.03026,281.43114,513.77535,283.92355,513.4698,286.41407Z"/></g></mask><linearGradient id="linear-gradient-14" x1="6415.903" y1="-4181.60233" x2="6455.47146" y2="-4039.23384" gradientTransform="matrix(0.75115, 0.66012, -0.7722, 0.87867, -7539.83716, -350.06481)" gradientUnits="userSpaceOnUse"><stop offset="0" stop-color="#fff"/><stop offset="1" stop-color="#0b46d4"/></linearGradient><filter id="luminosity-noclip-14" x="579.36388" y="538.55938" width="55.6615" height="61.39824" filterUnits="userSpaceOnUse" color-interpolation-filters="sRGB"><feFlood flood-color="#fff" result="bg"/><feBlend in="SourceGraphic" in2="bg"/></filter><mask id="mask-14" x="579.36388" y="538.55938" width="55.6615" height="61.39824" maskUnits="userSpaceOnUse"><g class="cls-13"><path class="cls-14" d="M635.02538,583.81906s-50.57725,22.13771-55.41265,14.55741a1.84892,1.84892,0,0,1-.16609-.30687c-.39285-.89705.6454-3.15,2.42374-6.0222.61444-.46072,1.20853-.85559,1.73531-1.173,3.43356-2.0641,7.31878-3.23886,10.91022-5.009,3.59166-1.77317,7.05689-4.36464,8.48614-8.10606,1.449-3.79809.67232-8.43331,3.13693-11.66573,2.06624-2.71522,5.7622-3.54326,8.4624-5.6275,3.66443-2.83012,5.11473-7.63255,6.07541-12.16363a47.57514,47.57514,0,0,1,2.6571-9.74309c4.20416,17.10386,8.24387,32.41889,10.29555,40.08042C634.513,581.93589,635.02538,583.81906,635.02538,583.81906Z"/></g></mask><linearGradient id="linear-gradient-15" x1="1073.70609" y1="283.04786" x2="1128.14154" y2="283.04786" gradientTransform="translate(-466.91806 202.36746) rotate(4.43342)" xlink:href="#linear-gradient-14"/><filter id="luminosity-noclip-15" x="485.72208" y="543.60735" width="62.0621" height="49.64012" filterUnits="userSpaceOnUse" color-interpolation-filters="sRGB"><feFlood flood-color="#fff" result="bg"/><feBlend in="SourceGraphic" in2="bg"/></filter><mask id="mask-15" x="485.72208" y="543.60735" width="62.0621" height="49.64012" maskUnits="userSpaceOnUse"><g class="cls-19"><path class="cls-20" d="M547.78418,589.88819s-12.79257,1.20677-33.12312,2.714-27.86105.32927-28.86565-3.065a1.97319,1.97319,0,0,1-.026-.96662,6.54988,6.54988,0,0,1,1.87571-2.90456c.38378-.01307.76641-.011,1.14478.00614,5.29491.23295,10.65944.31817,15.86267-.834,6.00394-1.3289,11.8547-4.5132,15.05438-9.76177,1.62767-2.66653,2.61191-5.88207,5.09558-7.781,1.8524-1.41812,4.26356-1.86806,6.2773-3.03789,2.97565-1.726,4.83836-4.85818,6.23351-8.002s2.47386-6.47155,4.46709-9.272a12.97619,12.97619,0,0,1,3.49552-3.37609c.675,17.67543,1.62138,33.115,2.13836,40.90247C547.64114,587.94179,547.78418,589.88819,547.78418,589.88819Z"/></g></mask><linearGradient id="linear-gradient-16" x1="979.67974" y1="288.59022" x2="1041.62985" y2="288.59022" gradientTransform="translate(-466.91806 202.36746) rotate(4.43342)" xlink:href="#linear-gradient-14"/><filter id="luminosity-noclip-16" x="574.00138" y="373.65996" width="21.60355" height="28.93783" filterUnits="userSpaceOnUse" color-interpolation-filters="sRGB"><feFlood flood-color="#fff" result="bg"/><feBlend in="SourceGraphic" in2="bg"/></filter><mask id="mask-16" x="574.00138" y="373.65996" width="21.60355" height="28.93783" maskUnits="userSpaceOnUse"><g class="cls-21"><path class="cls-22" d="M595.60493,388.28338a42.13525,42.13525,0,0,1-5.10709,8.12615,21.13459,21.13459,0,0,1-9.32654,6.18826c.00632-.00255.00984-.00843.01609-.011a24.04711,24.04711,0,0,0,6.362-6.30173,7.89633,7.89633,0,0,0,1.72918-4.88491c-.13813-1.8909-1.39154-3.49774-2.677-4.88969a43.665,43.665,0,0,0-10.645-8.40133,5.11668,5.11668,0,0,1-1.95521-1.56022c1.13551-.901,2.19874-1.8965,3.26171-2.88894a19.70873,19.70873,0,0,1,7.60168,4.64382c2.19491,2.02284,4.15646,4.29091,6.36483,6.29947A38.36767,38.36767,0,0,0,595.60493,388.28338Z"/></g></mask><linearGradient id="linear-gradient-17" x1="1051.27742" y1="104.33951" x2="1073.72359" y2="104.33951" gradientTransform="translate(-466.91806 202.36746) rotate(4.43342)" xlink:href="#linear-gradient-14"/><filter id="luminosity-noclip-17" x="583.50391" y="240.78695" width="30.91328" height="130.848" filterUnits="userSpaceOnUse" color-interpolation-filters="sRGB"><feFlood flood-color="#fff" result="bg"/><feBlend in="SourceGraphic" in2="bg"/></filter><mask id="mask-17" x="583.50391" y="240.78695" width="30.91328" height="130.848" maskUnits="userSpaceOnUse"><g class="cls-23"><path class="cls-24" d="M592.25111,366.7287a13.2348,13.2348,0,0,0-.11092,4.90625c-2.86086-2.39906-5.7276-4.80165-8.63628-7.21667,10.96111-10.91817,22.69371-26.45562,25.51576-41.6428a32.06715,32.06715,0,0,0-.4369-14.66512,27.51951,27.51951,0,0,0-1.66631-4.41632q-7.57254-15.8416-13.5855-32.36457-2.193-6.01733-4.169-12.10665c-1.09991-3.38942-2.16126-6.91979-1.7369-10.45741.42738-3.53739,2.74913-7.09941,6.23874-7.83323a7.05678,7.05678,0,0,1,2.80269-.00931c-4.44707,5.57753-3.70362,13.64285-.9542,20.32346q5.6735,13.79265,11.34392,27.58517c3.8649,9.39446,7.7954,19.12778,7.55011,29.28146-.34551,14.36867-8.89725,27.07215-17.11777,38.86122C595.18318,359.99565,593.02653,363.12641,592.25111,366.7287Z"/></g></mask><linearGradient id="linear-gradient-18" x1="1286.3848" y1="-7.29748" x2="937.25326" y2="38.27359" gradientTransform="translate(-466.91806 202.36746) rotate(4.43342)" xlink:href="#linear-gradient-14"/><filter id="luminosity-noclip-18" x="22.60512" y="252.55023" width="107.4295" height="87.22198" filterUnits="userSpaceOnUse" color-interpolation-filters="sRGB"><feFlood flood-color="#fff" result="bg"/><feBlend in="SourceGraphic" in2="bg"/></filter><mask id="mask-18" x="22.60512" y="252.55023" width="107.4295" height="87.22198" maskUnits="userSpaceOnUse"><g class="cls-3"><path class="cls-4" d="M130.03462,260.93145a112.314,112.314,0,0,1-22.73921,37.59971,136.12816,136.12816,0,0,1-12.89251,12.548A156.45216,156.45216,0,0,1,55.625,335.22246a70.65543,70.65543,0,0,1-8.17942,3.10851,36.16769,36.16769,0,0,1-5.33885,1.183c-4.72613.65214-9.78.12805-13.82513-2.24679a15.83215,15.83215,0,0,1-5.67646-5.77358,26.868,26.868,0,0,0,5.09785,2.0801,43.06548,43.06548,0,0,0,19.32738.16464c9.95357-2.118,18.94232-7.1243,27.1259-12.83293a146.20141,146.20141,0,0,0,41.70929-44.412c2.69726-4.49361,5.17778-9.2691,5.64783-14.40525a15.93074,15.93074,0,0,0-2.05882-9.53788A18.64,18.64,0,0,1,130.03462,260.93145Z"/></g></mask><linearGradient id="linear-gradient-19" x1="-930.67455" y1="190.64699" x2="-899.65137" y2="297.84555" gradientTransform="matrix(0.974, -0.22654, 0.22654, 0.974, 916.6991, -141.24929)" gradientUnits="userSpaceOnUse"><stop offset="0" stop-color="#fff"/><stop offset="0.99441" stop-color="#f2b52a"/></linearGradient><filter id="luminosity-noclip-19" x="13.95506" y="405.83994" width="33.0989" height="186.13346" filterUnits="userSpaceOnUse" color-interpolation-filters="sRGB"><feFlood flood-color="#fff" result="bg"/><feBlend in="SourceGraphic" in2="bg"/></filter><mask id="mask-19" x="13.95506" y="405.83994" width="33.0989" height="186.13346" maskUnits="userSpaceOnUse"><g class="cls-5"><path class="cls-6" d="M16.76226,591.97339l-2.8072-.573A502.65466,502.65466,0,0,0,43.989,405.83994c.95332.24922,1.9143.47819,2.87614.69091A505.24349,505.24349,0,0,1,16.76226,591.97339Z"/></g></mask><linearGradient id="linear-gradient-20" x1="-686.26535" y1="-1514.91354" x2="-668.7183" y2="-1514.91354" gradientTransform="translate(371.35351 2123.95149) rotate(12.31444)" xlink:href="#linear-gradient-19"/><filter id="luminosity-noclip-20" x="77.40038" y="399.90629" width="47.62133" height="195.68369" filterUnits="userSpaceOnUse" color-interpolation-filters="sRGB"><feFlood flood-color="#fff" result="bg"/><feBlend in="SourceGraphic" in2="bg"/></filter><mask id="mask-20" x="77.40038" y="399.90629" width="47.62133" height="195.68369" maskUnits="userSpaceOnUse"><g class="cls-7"><path class="cls-8" d="M124.96225,595.4353l-2.89715.15468A421.60056,421.60056,0,0,0,77.40038,400.59931c.93946-.216,1.87827-.44267,2.80992-.693A421.98731,421.98731,0,0,1,117.68884,510.7684,416.52152,416.52152,0,0,1,124.96225,595.4353Z"/></g></mask><linearGradient id="linear-gradient-21" x1="-603.09508" y1="-642.01247" x2="-565.58927" y2="-642.01247" gradientTransform="translate(721.72154 1105.37562) rotate(-3.26812)" xlink:href="#linear-gradient-19"/><filter id="luminosity-noclip-21" x="45.04862" y="270.34856" width="78.39301" height="107.7892" filterUnits="userSpaceOnUse" color-interpolation-filters="sRGB"><feFlood flood-color="#fff" result="bg"/><feBlend in="SourceGraphic" in2="bg"/></filter><mask id="mask-21" x="45.04862" y="270.34856" width="78.39301" height="107.7892" maskUnits="userSpaceOnUse"><g class="cls-9"><path class="cls-10" d="M123.44163,326.25964c-3.14667,20.61711-3.03,32.014-2.197,51.87812a39.49677,39.49677,0,0,0-10.22584-6.34433,54.07141,54.07141,0,0,0-20.57049-4.08924,67.17074,67.17074,0,0,0-20.99083,3.06227c-6.50553,2.04531-13.28949,4.24448-19.76385,6.368a4.72243,4.72243,0,0,1-2.98286.29226c-.955-.33794-2.20423-1.3165-1.40939-1.9171q3.43462-20.7798,6.86647-41.559c1.83818-11.10643,3.6944-22.29356,7.7452-32.87492,4.05145-10.57876,10.48677-20.63953,20.01374-27.49026a37.29143,37.29143,0,0,1,5.35287-3.23686,61.01835,61.01835,0,0,1,16.64581,3.41281,45.05512,45.05512,0,0,0-19.95782,23.094c-1.81,4.90112-2.50314,10.508-3.61449,15.589A72.99716,72.99716,0,0,1,123.44163,326.25964Z"/></g></mask><linearGradient id="linear-gradient-22" x1="-709.79589" y1="301.52135" x2="-968.64699" y2="256.89186" xlink:href="#linear-gradient-19"/><filter id="luminosity-noclip-22" x="128.75335" y="229.34909" width="74.24271" height="53.12642" filterUnits="userSpaceOnUse" color-interpolation-filters="sRGB"><feFlood flood-color="#fff" result="bg"/><feBlend in="SourceGraphic" in2="bg"/></filter><mask id="mask-22" x="128.75335" y="229.34909" width="74.24271" height="53.12642" maskUnits="userSpaceOnUse"><g class="cls-11"><path class="cls-12" d="M131.86825,268.91966q9.61608,4.53233,19.27609,8.50872c6.49436,2.66884,13.19011,5.18605,19.24,5.04117a19.71867,19.71867,0,0,0,2.95257-.29011,21.9559,21.9559,0,0,0,9.80018-4.56091,38.1225,38.1225,0,0,0,5.5044-5.38929c7.85734-9.24721,12.11-22.10473,14.35458-35.6402q-4.812-3.62031-9.62728-7.24c2.11768,3.94648,4.12192,7.00313,4.43358,11.44737.46419,6.54605-2.06525,11.7837-4.87547,16.45453-2.7554,4.58317-5.88454,8.93213-10.22774,11.77236-6.71349,4.39835-15.94757,4.892-25.338,3.256s-19.03619-5.28119-28.6078-8.90574C129.76445,265.21,130.79513,267.07347,131.86825,268.91966Z"/></g></mask><linearGradient id="linear-gradient-23" x1="4460.57785" y1="-2549.39184" x2="4480.41379" y2="-2478.02151" gradientTransform="matrix(-0.45864, 0.88862, 1.03948, 0.5365, 4847.57196, -2367.8954)" xlink:href="#linear-gradient-19"/><filter id="luminosity-noclip-23" x="128.26036" y="229.34898" width="74.71569" height="54.00904" filterUnits="userSpaceOnUse" color-interpolation-filters="sRGB"><feFlood flood-color="#fff" result="bg"/><feBlend in="SourceGraphic" in2="bg"/></filter><mask id="mask-23" x="128.26036" y="229.34898" width="74.71569" height="54.00904" maskUnits="userSpaceOnUse"><g class="cls-15"><path class="cls-16" d="M131.34472,269.86724q9.61687,4.53084,19.28207,8.49786c6.49788,2.66248,13.199,5.16991,19.27205,4.9831a19.684,19.684,0,0,0,2.96553-.31358,22.29171,22.29171,0,0,0,9.87036-4.68805,39.2581,39.2581,0,0,0,5.56518-5.49939c7.95584-9.42566,12.32108-22.48722,14.67614-36.22275q-4.80219-3.63808-9.60769-7.27545c2.09559,3.9865,4.084,7.07174,4.36327,11.57475.41643,6.63256-2.16179,11.9586-5.01754,16.71191-2.80007,4.6641-5.97348,9.09324-10.354,12.001-6.77119,4.50288-16.04266,5.06424-25.455,3.46789s-19.0657-5.22775-28.64481-8.83869C129.26127,266.12074,130.28162,268.00287,131.34472,269.86724Z"/></g></mask><filter id="luminosity-noclip-24" x="104.10218" y="226.07268" width="107.4295" height="87.22198" filterUnits="userSpaceOnUse" color-interpolation-filters="sRGB"><feFlood flood-color="#fff" result="bg"/><feBlend in="SourceGraphic" in2="bg"/></filter><mask id="mask-24" x="104.10218" y="226.07268" width="107.4295" height="87.22198" maskUnits="userSpaceOnUse"><g class="cls-17"><path class="cls-18" d="M211.53168,234.4539a112.314,112.314,0,0,1-22.73921,37.59971A136.12826,136.12826,0,0,1,175.9,284.60161,156.452,156.452,0,0,1,137.122,308.74492a70.65635,70.65635,0,0,1-8.17941,3.1085,36.16769,36.16769,0,0,1-5.33885,1.18295c-4.72613.65215-9.78.12805-13.82513-2.24678a15.83218,15.83218,0,0,1-5.67646-5.77359A26.86665,26.86665,0,0,0,109.2,307.0961a43.06534,43.06534,0,0,0,19.32738.16464c9.95357-2.118,18.94232-7.1243,27.1259-12.83293a146.20141,146.20141,0,0,0,41.70929-44.412c2.69726-4.49361,5.17778-9.2691,5.64783-14.40525a15.93076,15.93076,0,0,0-2.05882-9.53788A18.64,18.64,0,0,1,211.53168,234.4539Z"/></g></mask><linearGradient id="linear-gradient-24" x1="-853.34976" y1="224.21502" x2="-838.37349" y2="275.96458" xlink:href="#linear-gradient-19"/></defs><title>guide-5</title><g class="cls-25"><g id="Layer_2" data-name="Layer 2"><g id="Layer_1-2" data-name="Layer 1"><path class="cls-26" d="M596.98044,8.65964V383.50852a8.65735,8.65735,0,0,1-8.65964,8.65566H79.65964A8.65736,8.65736,0,0,1,71,383.50852V8.65964A8.65821,8.65821,0,0,1,79.65964,0H588.3208A8.6582,8.6582,0,0,1,596.98044,8.65964Z"/><path class="cls-27" d="M129.75894,39.01018H536.67455a13.56956,13.56956,0,0,1,13.56956,13.56956v0a13.56952,13.56952,0,0,1-13.56952,13.56952H129.7589a13.56952,13.56952,0,0,1-13.56952-13.56952v0a13.56956,13.56956,0,0,1,13.56956-13.56956Z"/><rect class="cls-27" x="85.89286" y="93.44507" width="495.09811" height="105.44322"/><rect class="cls-27" x="85.89286" y="213.77427" width="495.09811" height="105.44322"/><path class="cls-28" d="M596.98044,8.65964V23.65773H71V8.65964A8.65821,8.65821,0,0,1,79.65964,0H588.3208A8.6582,8.6582,0,0,1,596.98044,8.65964Z"/><circle class="cls-27" cx="92.31266" cy="11.82887" r="6.4198"/><circle class="cls-27" cx="116.18937" cy="11.82887" r="6.4198"/><circle class="cls-27" cx="140.0661" cy="11.82887" r="6.41979"/><path class="cls-29" d="M408.37509,286.32945l.01825.014c.4245.31556,1.003.05386,1.29211-.58441l40.91147-90.31662a1.48776,1.48776,0,0,0-.24519-1.72681c-.42449-.31555-1.003-.05385-1.2921.58442l-40.91147,90.31662A1.49329,1.49329,0,0,0,408.37509,286.32945Z"/><path class="cls-30" d="M449.05963,194.3s-10.05164-16.00367-13.6873-18.11557-.27376,13.91527-6.97372,7.59709-18.3417-21.06281-18.3417-21.06281l-10.40267,27.99015s18.8172,22.90516,21.62092,24.10439,2.469-3.074,4.08312-7.36817S435.4856,224.2662,435.4856,224.2662Z"/><path class="cls-31" d="M430.94505,245.04556a52.00975,52.00975,0,0,0-4.931-4.49193c-1.18882-.94725-2.45973-1.83588-3.81044-1.601a3.28044,3.28044,0,0,0-2.334,3.00842,14.025,14.025,0,0,1-.22488,2.40066c-.25089.79962-.80438,1.14638-1.15649,1.82536a11.55811,11.55811,0,0,0-.67282,3.38347c-.32632,2.21825-1.23591,4.14381-1.56053,6.36259a14.17451,14.17451,0,0,0,.9907,7.3759,25.72437,25.72437,0,0,0,4.07914,6.0066,24.17853,24.17853,0,0,0,3.1425,3.34291,3.68242,3.68242,0,0,0,2.63723,1.21579,2.96028,2.96028,0,0,0,2.16991-2.44041c.37552-1.50665.129-3.435.8053-4.59766a2.28319,2.28319,0,0,1,1.5481-1.00718,2.00952,2.00952,0,0,0,1.42306-1.39706c.42048-1.38217-.31279-2.82749-.31576-4.33849-.00384-1.93994,1.14586-3.379,1.634-5.19355C435.63653,250.18862,432.73,246.88776,430.94505,245.04556Z"/><path class="cls-32" d="M524.56691,273.3087q-5.47391,6.70413-11.09711,13.10537-7.86867,8.95814-16.01961,17.31584c-5.48173,5.61387-11.23358,11.14112-17.464,13.44444a19.9263,19.9263,0,0,1-3.13442.88007,22.95183,22.95183,0,0,1-11.9407-1.08062,42.84076,42.84076,0,0,1-7.9145-3.75188c-11.96157-7.08428-21.7899-19.65245-29.86044-33.79262q3.35992-5.98682,6.7235-11.97419,2.46477-4.3996,4.93287-8.78927c8.69518,11.83982,19.06625,21.12917,30.52519,27.33035a28.436,28.436,0,0,0,3.0669,1.463c2.56478,1.007,5.2722,1.41133,7.98911.08425.09366-.04469.18746-.09461.28132-.14447,2.74854-1.4654,5.11611-4.49374,7.44951-7.30517,11.25517-13.57267,24.10251-24.14319,37.46813-30.82449,2.82459-1.41326,5.96514-1.20807,6.9624,2.4064.99923,3.61159.13342,8.25867-1.54135,11.99163A43.24155,43.24155,0,0,1,524.56691,273.3087Z"/><path class="cls-33" d="M476.85173,318.05442a22.95183,22.95183,0,0,1-11.9407-1.08062,131.70794,131.70794,0,0,0,7.47352-29.51465c2.56478,1.007,5.2722,1.41133,7.98911.08425.09366-.04469.18746-.09461.28132-.14447C480.99641,297.3126,479.04065,307.82245,476.85173,318.05442Z"/><g class="cls-34"><path class="cls-35" d="M513.4698,286.41407q-7.86867,8.95814-16.01961,17.31584c-5.48173,5.61387-11.23358,11.14112-17.464,13.44444a19.9263,19.9263,0,0,1-3.13442.88007,22.95183,22.95183,0,0,1-11.9407-1.08062,42.84076,42.84076,0,0,1-7.9145-3.75188c-11.96157-7.08428-21.7899-19.65245-29.86044-33.79262q3.35992-5.98682,6.7235-11.97419c-.47342,5.252-1.2113,9.46815.36936,14.53812,2.32294,7.46979,7.13935,12.26487,11.99992,16.31514,4.76722,3.97511,9.81548,7.53747,15.45713,8.92723,8.724,2.1572,18.35011-1.05532,27.22593-6.70013s17.1537-13.62837,25.3648-21.55873C514.03026,281.43114,513.77535,283.92355,513.4698,286.41407Z"/></g><path class="cls-33" d="M438.9608,258.54719c.49613-.42729,1.637-2.16393-3.09592-7.36342-.42437-.46618-1.07058-.37653-1.543.21954-2.33658,2.94815-9.115,11.99584-12.34571,21.57267a2.303,2.303,0,0,0,.09447,1.82044c1.10378,1.89865,4.00536,6.52329,5.06618,4.63328L438.58516,259.033A1.80856,1.80856,0,0,1,438.9608,258.54719Z"/><path class="cls-32" d="M635.34229,583.84364s-1.69274.74145-4.48994,1.90561c-.84487.351-1.79393.74286-2.825,1.16507-14.19539,5.79236-44.41448,17.25982-48.09776,11.48673a1.84892,1.84892,0,0,1-.16609-.30687c-.39285-.89706.6454-3.15,2.42374-6.02223,5.315-8.5969,17.24075-22.75362,17.24075-22.75362-3.72885-8.66121-7.1478-17.40867-10.28561-26.14964a574.4068,574.4068,0,0,1-19.28483-66.87363q-1.83825-8.10274-3.3863-15.84308c-4.19344-20.83588-6.91229-39.40164-8.65663-53.87109-2.367-19.62861-2.93583-31.72258-2.93583-31.72258a23.08029,23.08029,0,0,1,1.79249-11.5464c4.28036-9.82549,15.14782-16.33827,25.85709-20.533q1.53-.59791,3.04919-1.13544a125.08233,125.08233,0,0,1,23.22807-5.70136c-.9998,12.894-2.24863,72.55939.02608,116.08757.27823,5.29779.60548,10.35742.99692,15.06379.60572,7.35339,1.35484,13.8452,2.27465,19.04268,2.34027,13.22034,6.10982,29.96591,9.94054,45.84355.53513,2.22173,1.07445,4.42857,1.60694,6.6042,4.20418,17.10388,8.24387,32.41892,10.29554,40.08041C634.82989,581.96047,635.34229,583.84364,635.34229,583.84364Z"/><path class="cls-33" d="M630.85235,585.74925c-.84487.351-1.79393.74286-2.825,1.16507-9.29645-20.06788-16.62174-37.79349-22.6531-54.75117-9.70418-27.28963-15.9897-52.46152-19.207-76.96068-3.39241-25.79579-3.46826-52.18572-3.541-77.70879l-.09791-34.71474q1.53-.59791,3.04919-1.13544l.10246,35.842c.07409,25.4252.14832,51.717,3.51272,77.32079,3.19149,24.27971,9.42515,49.25165,19.05968,76.33373C614.26371,548.041,621.57129,565.71931,630.85235,585.74925Z"/><path class="cls-33" d="M609.82868,467.0935a194.06,194.06,0,0,1-39.97108,9.20156q-1.83825-8.10274-3.3863-15.84308a200.75574,200.75574,0,0,0,42.36046-8.42227C609.11,457.3275,609.43724,462.38713,609.82868,467.0935Z"/><path class="cls-31" d="M635.34229,583.84364s-50.57725,22.13771-55.41265,14.55741a1.84892,1.84892,0,0,1-.16609-.30687c-.39285-.89706.6454-3.15,2.42374-6.02223,5.315-8.5969,17.24075-22.75362,17.24075-22.75362-3.72885-8.66121-7.1478-17.40867-10.28561-26.14964a177.6238,177.6238,0,0,0,32.90144-11.189c.53513,2.22173,1.07445,4.42857,1.60694,6.6042,4.20418,17.10388,8.24387,32.41892,10.29554,40.08041C634.82989,581.96047,635.34229,583.84364,635.34229,583.84364Z"/><g class="cls-36"><path class="cls-37" d="M635.02538,583.81906s-50.57725,22.13771-55.41265,14.55741a1.84892,1.84892,0,0,1-.16609-.30687c-.39285-.89705.6454-3.15,2.42374-6.0222.61444-.46072,1.20853-.85559,1.73531-1.173,3.43356-2.0641,7.31878-3.23886,10.91022-5.009,3.59166-1.77317,7.05689-4.36464,8.48614-8.10606,1.449-3.79809.67232-8.43331,3.13693-11.66573,2.06624-2.71522,5.7622-3.54326,8.4624-5.6275,3.66443-2.83012,5.11473-7.63255,6.07541-12.16363a47.57514,47.57514,0,0,1,2.6571-9.74309c4.20416,17.10386,8.24387,32.41889,10.29555,40.08042C634.513,581.93589,635.02538,583.81906,635.02538,583.81906Z"/></g><path class="cls-33" d="M635.34229,583.84364s-50.57725,22.13771-55.41265,14.55741a252.63318,252.63318,0,0,0,31.32885-11.68148c-3.1027-2.87411-5.05265-7.26647-4.12637-11.39293.92932-4.12625,5.282-7.46034,9.39-6.45281a9.23931,9.23931,0,0,1,5.92265,5.60377,27.41983,27.41983,0,0,1,1.61574,8.26775,103.20057,103.20057,0,0,1,9.88587-4.081C634.82989,581.96047,635.34229,583.84364,635.34229,583.84364Z"/><path class="cls-32" d="M547.41427,584.50982c.22687,3.432.36991,5.37837.36991,5.37837s-4.41432.41713-12.1815,1.06737c-.96762.07806-1.98793.16433-3.05715.24981-4.95568.40886-10.98839.88429-17.88447,1.3968-20.33056,1.50727-27.86105.32927-28.86565-3.065a1.97319,1.97319,0,0,1-.026-.96662,6.54988,6.54988,0,0,1,1.87571-2.90456c6.42748-6.59368,26.7457-15.84012,26.7457-15.84012q-2.80869-13.00551-4.62417-25.66775a412.34619,412.34619,0,0,1-4.02818-70.47688q.23646-8.67682.7887-16.88512c3.77836-57.29815,17.58956-96.0085,17.58956-96.0085l43.56752,3.3782s-4.733,19.01989-9.86954,42.41506c-3.919,17.84281-8.07234,38.23356-10.54086,54.66692-.41308,2.76073-.78094,5.41164-1.09154,7.91695-.32737,2.6418-.59955,5.52064-.82223,8.59006-1.28539,17.6428-.96166,41.58686-.19793,62.81823q.05591,1.52931.1138,3.0343C545.9509,561.28278,546.89729,576.72232,547.41427,584.50982Z"/><path class="cls-33" d="M535.60268,590.95556c-.96762.07806-1.98793.16433-3.05715.24981a487.72068,487.72068,0,0,1,12.37018-228.805l3.117.24168a484.61446,484.61446,0,0,0-12.43,228.3135Z"/><path class="cls-33" d="M547.27381,461.24781c-.41308,2.76073-.78094,5.41164-1.09154,7.91695-.32737,2.6418-.59955,5.52064-.82223,8.59006a198.64508,198.64508,0,0,1-39.62161-4.07357q.23646-8.67682.7887-16.88512A198.51553,198.51553,0,0,0,547.27381,461.24781Z"/><path class="cls-31" d="M547.78418,589.88819s-12.79257,1.20677-33.12312,2.714-27.86105.32927-28.86565-3.065a1.97319,1.97319,0,0,1-.026-.96662,6.54988,6.54988,0,0,1,1.87571-2.90456c6.42748-6.59368,26.7457-15.84012,26.7457-15.84012q-2.80869-13.00551-4.62417-25.66775a122.30226,122.30226,0,0,0,35.3955-3.58508q.05591,1.52931.1138,3.0343c.675,17.67543,1.62138,33.115,2.13836,40.90247C547.64114,587.94179,547.78418,589.88819,547.78418,589.88819Z"/><g class="cls-38"><path class="cls-39" d="M547.78418,589.88819s-12.79257,1.20677-33.12312,2.714-27.86105.32927-28.86565-3.065a1.97319,1.97319,0,0,1-.026-.96662,6.54988,6.54988,0,0,1,1.87571-2.90456c.38378-.01307.76641-.011,1.14478.00614,5.29491.23295,10.65944.31817,15.86267-.834,6.00394-1.3289,11.8547-4.5132,15.05438-9.76177,1.62767-2.66653,2.61191-5.88207,5.09558-7.781,1.8524-1.41812,4.26356-1.86806,6.2773-3.03789,2.97565-1.726,4.83836-4.85818,6.23351-8.002s2.47386-6.47155,4.46709-9.272a12.97619,12.97619,0,0,1,3.49552-3.37609c.675,17.67543,1.62138,33.115,2.13836,40.90247C547.64114,587.94179,547.78418,589.88819,547.78418,589.88819Z"/></g><path class="cls-33" d="M547.78418,589.88819s-12.79257,1.20677-33.12312,2.714-27.86105.32927-28.86565-3.065a1.97319,1.97319,0,0,1-.026-.96662,82.682,82.682,0,0,0,10.632.67127,165.4,165.4,0,0,0,17.12641-1.2167q5.50173-.57936,11.001-1.165a18.27681,18.27681,0,0,1-1.269-6.38208c.0826-3.56387-.31116-3.307,1.85845-6.39373a6.85531,6.85531,0,0,1,5.71465-3.04781c3.00491.14724,5.43263,2.76076,6.33688,5.63282s.61236,5.9637.30963,8.95953c2.70855-.41464,5.47959-.45087,8.19119-.86531.57961-.0898,1.162-.17631,1.74372-.25372C547.64114,587.94179,547.78418,589.88819,547.78418,589.88819Z"/><path class="cls-32" d="M602.3289,353.04462c-3.97854,3.01095-8.59786,5.00454-13.259,6.82649-.79257.30907-1.591.61462-2.38641.92043-10.86279,4.16137-20.9447,9.90213-31.80467,14.06677-9.05647-6.33976-20.187-10.84988-30.76215-14.07068-2.46952-37.77711-4.81214-76.6376,6.90539-112.63484q3.1083.25477,6.22852.238a78.50851,78.50851,0,0,0,35.67833-8.971c.39561-.20512.78867-.41655,1.17867-.62822,3.1172-1.6967,6.39535-3.4544,9.94019-3.28058,1.64722.08181,4.69785,1.17881,7.85032,2.7002,4.17338,2.02008,8.52466,4.7858,10.02476,6.9232,7.67019,10.94807,1.563,22.53355,5.99313,35.14429.89288,2.54349,1.78817,5.09637,2.64876,7.66185,2.67389,7.97007,5.01634,16.06752,5.94232,24.346.22336,1.97714.36355,3.9601.4078,5.957C617.20988,331.30229,612.74534,345.16171,602.3289,353.04462Z"/><path class="cls-33" d="M616.50708,312.28654c-6.2615-.20683-25.54171-3.51769-27.41613-1.57766-1.71447,1.77173-.02355,36.04349-.021,49.16223-.79257.30907-1.591.61462-2.38641.92043-10.86279,4.16137-20.9447,9.90213-31.80467,14.06677-9.05647-6.33976-20.187-10.84988-30.76215-14.07068-2.46952-37.77711-4.81214-76.6376,6.90539-112.63484q3.1083.25477,6.22852.238c-6.33391,21.97329-4.20272,63.1661-4.20272,63.1661l42.06839-1.93157s1.41941-21.30707.19152-33.94513c-.94289-9.7191-1.9609-28.22336-2.37886-36.26041.39561-.20512.78867-.41655,1.17867-.62822,3.1172-1.6967,6.39535-3.4544,9.94019-3.28058,1.64722.08181,4.69785,1.17881,7.85032,2.7002-17.39425,5.89649-4.631,43.4551-4.631,43.4551l23.2977,6.27424c.54713,1.63172,1.0817,3.26861,1.59134,4.90963l-20.70168-2.31561-1.00591,12.97318,25.13524,2.71756C615.96679,308.23622,616.27885,310.25392,616.50708,312.28654Z"/><path class="cls-40" d="M542.49538,318.49958c-.035.2943-.0708.59776-.11056.91315a64.30011,64.30011,0,0,1-1.32238,6.98345q-.108.44634-.22606.90113c-.34431,1.32066-.746,2.7104-1.21684,4.16211-.23322.71687-.48582,1.40772-.76465,2.08122-.1142.28816-.23733.57259-.36016.854a34.25946,34.25946,0,0,1-3.17822,5.60242c-.17578.25278-.35148.50556-.53319.75481a68.8767,68.8767,0,0,1-4.57786,5.56739c-.20764.22888-.41214.458-.61979.68686-1.56708,1.72807-3.16979,3.44113-4.72334,5.23148-.20834.238-.41355.47625-.61605.71781-.97367,1.14325-1.9222,2.31907-2.82663,3.5565a15.34923,15.34923,0,0,0-1.04535,1.6338c-.14929.26708-.28975.53792-.41772.80667a13.63409,13.63409,0,0,0-1.16419,7.945q.06924.46929.1596.90349a15.74087,15.74087,0,0,0,1.27948,3.71875c.22009.43966.37285.68116.37285.68116l-.05142.18893-2.30518,8.68028a30.246,30.246,0,0,1-3.73226-6.04946c-.12847-.27944-.25069-.55838-.36389-.83662a21.47331,21.47331,0,0,1-1.52383-5.82c-.03445-.30587-.063-.60816-.08258-.90977a22.71746,22.71746,0,0,1,2.18094-11.02636c.12563-.27809.25718-.55269.395-.82984a39.1709,39.1709,0,0,1,3.89653-6.25715c.18444-.246.37171-.4887.56194-.73117a67.001,67.001,0,0,1,5.12858-5.79717c.213-.21931.42879-.43529.64454-.6513q.98069-.9758,1.98965-1.925a24.94919,24.94919,0,0,0,2.69959-2.98456c.18774-.24881.37242-.49783.5482-.75063a25.83514,25.83514,0,0,0,2.50648-4.40508c.12595-.28115.24582-.56276.36252-.84464a30.32846,30.32846,0,0,0,1.67659-5.74637c.05738-.30484.11158-.60992.15933-.90939a35.47421,35.47421,0,0,0,.445-5.897c-.00282-.31867-.00688-.62213-.01774-.917a28.13066,28.13066,0,0,0-.3908-4.12141c2.04992-3.57083,7.45392-.28252,7.45392-.28252A36.97472,36.97472,0,0,1,542.49538,318.49958Z"/><path class="cls-40" d="M610.627,380.89278l-.00023.00306c-.06528.3685-.14469.72062-.23269,1.066a17.11077,17.11077,0,0,1-2.83186,6.03348c-.00111-.37981-.01474-.75751-.03791-1.12986a21.03359,21.03359,0,0,0-.6658-4.01109c-.078-.29694-.16527-.59462-.259-.88668a22.40147,22.40147,0,0,0-2.25244-4.91495c-.163-.26682-.3291-.53384-.50476-.79548a32.50245,32.50245,0,0,0-4.25931-5.138c-.22726-.22894-.46074-.45525-.69784-.67576q-1.62951-1.55485-3.55307-3.06825c-.23642-.18981-.4761-.37681-.722-.56123q-2.21109-1.69642-4.77922-3.3685c-.26805-.177-.5393-.3511-.81642-.52876q-3.54054-2.26341-7.71793-4.52726c-.27011-.14953-.54326-.29936-.81977-.44633-2.90115-1.56315-6.019-3.137-9.34842-4.74557-.05312-.02555-.10624-.05109-.15616-.07946-.33072-.15734-.65145-.32613-.96865-.50077a26.04345,26.04345,0,0,1-6.44236-4.94282c-.22394-.23172-.44157-.466-.65265-.70591a31.57825,31.57825,0,0,1-4.36014-6.36451c-.14666-.28086-.29019-.56147-.42748-.84464a42.68592,42.68592,0,0,1-2.55558-6.5339c-.09024-.29788-.17737-.59556-.26455-.89323a57.42072,57.42072,0,0,1-1.38652-6.32687q-.07426-.4651-.14-.92031c-.33811-2.3137-.51871-4.44678-.611-6.25757-.01785-.32293-.03028-.63623-.04346-.94042-.10771-3.0338.03233-4.95827.03233-4.95827,3.40087-4.09078,7.11953-.35438,7.11953-.35438q.111,2.95295.35253,5.56381c.02836.30537.0572.60463.0861.90392.20576,1.96658.46553,3.79038.78714,5.48729.056.30443.11555.603.17531.89858a43.29764,43.29764,0,0,0,1.573,5.73806c.106.293.212.583.31871.86681a29.808,29.808,0,0,0,2.6593,5.314q.25407.39634.518.78426a28.4033,28.4033,0,0,0,4.08058,4.71682q.34689.32549.70348.64249a47.22731,47.22731,0,0,0,5.82413,4.30694c.27134.17413.54893.34572.82629.52035,2.1005,1.30506,4.383,2.59364,6.84651,3.95746.26729.1463.53739.29586.8106.44565,2.71948,1.497,5.65467,3.09647,8.803,4.90843q.39568.22821.79983.46624.72539.41912,1.4646.85767c1.0072.59562,1.94957,1.19843,2.82471,1.79913q.38372.264.74923.52661a33.42,33.42,0,0,1,5.18567,4.52383c.2092.22444.409.45123.60258.68061a19.36583,19.36583,0,0,1,3.94668,6.91734l-.00023.00306c.09282.30422.17666.60469.2486.90116A15.49063,15.49063,0,0,1,610.627,380.89278Z"/><path class="cls-41" d="M542.49538,318.49958c-.035.2943-.0708.59776-.11056.91315a17.50766,17.50766,0,0,0-6.64477-.71429c-.00282-.31867-.00688-.62213-.01774-.917A18.36872,18.36872,0,0,1,542.49538,318.49958Z"/><path class="cls-41" d="M541.06244,326.39618q-.108.44634-.22606.90113a16.78937,16.78937,0,0,0-5.70067-1.79246c.05738-.30484.11158-.60992.15933-.90939A17.53733,17.53733,0,0,1,541.06244,326.39618Z"/><path class="cls-41" d="M538.85489,333.54064c-.1142.28816-.23733.57259-.36016.854a32.10464,32.10464,0,0,0-5.39813-2.29875c.12595-.28115.24582-.56276.36252-.84464A32.92226,32.92226,0,0,1,538.85489,333.54064Z"/><path class="cls-41" d="M535.31651,339.997c-.17578.25278-.35148.50556-.53319.75481a21.00112,21.00112,0,0,1-4.7414-3.50027c.18774-.24881.37242-.49783.5482-.75063A20.01857,20.01857,0,0,0,535.31651,339.997Z"/><path class="cls-41" d="M530.20546,346.31923c-.20764.22888-.41214.458-.61979.68686a30.9031,30.9031,0,0,1-4.87753-4.1937c.213-.21931.42879-.43529.64454-.6513A30.502,30.502,0,0,0,530.20546,346.31923Z"/><path class="cls-41" d="M524.86233,352.23757c-.20834.238-.41355.47625-.61605.71781a23.11575,23.11575,0,0,1-5.22866-3.61465c.18444-.246.37171-.4887.56194-.73117A22.15992,22.15992,0,0,0,524.86233,352.23757Z"/><path class="cls-41" d="M520.3743,358.14568c-.14929.26708-.28975.53792-.41772.80667a30.06888,30.06888,0,0,1-5.23048-2.52463c.12563-.27809.25718-.55269.395-.82984A29.76541,29.76541,0,0,0,520.3743,358.14568Z"/><path class="cls-41" d="M518.952,367.8008a22.4799,22.4799,0,0,1-6.32425.56305c-.03445-.30587-.063-.60816-.08258-.90977a21.30355,21.30355,0,0,0,6.24723-.55677Q518.86163,367.3666,518.952,367.8008Z"/><path class="cls-41" d="M520.60432,372.20071l-.05142.18893a29.99528,29.99528,0,0,1-6.03744,2.63082c-.12847-.27944-.25069-.55838-.36389-.83662.28546-.08812.57124-.17927.85435-.27674a29.014,29.014,0,0,0,5.22555-2.38755C520.45156,371.95921,520.60432,372.20071,520.60432,372.20071Z"/><path class="cls-41" d="M560.71028,319.04228a22.12334,22.12334,0,0,1-7.547-.21466c-.01785-.32293-.03028-.63623-.04346-.94042a21.22339,21.22339,0,0,0,7.50439.25116C560.65254,318.44373,560.68138,318.743,560.71028,319.04228Z"/><path class="cls-41" d="M561.67273,325.42815a35.58582,35.58582,0,0,1-7.75846.57735q-.07426-.4651-.14-.92031c.5341.023,1.06914.03389,1.60538.02954a34.1978,34.1978,0,0,0,6.11776-.58516C561.55345,324.834,561.613,325.13258,561.67273,325.42815Z"/><path class="cls-41" d="M563.56448,332.033a47.72311,47.72311,0,0,1-7.99914,1.19258c-.09024-.29788-.17737-.59556-.26455-.89323a47.35691,47.35691,0,0,0,7.945-1.16616C563.35173,331.45922,563.45782,331.74917,563.56448,332.033Z"/><path class="cls-41" d="M566.74176,338.13127a53.70747,53.70747,0,0,1-8.19336,2.47287c-.14666-.28086-.29019-.56147-.42748-.84464.451-.09059.9-.19358,1.34911-.29959a52.45091,52.45091,0,0,0,6.75375-2.1129Q566.47785,337.74336,566.74176,338.13127Z"/><path class="cls-41" d="M571.52582,343.49058a83.433,83.433,0,0,1-7.96463,4.184c-.22394-.23172-.44157-.466-.65265-.70591q.65658-.29358,1.30538-.60308,3.38577-1.607,6.60842-3.51748Q571.16923,343.17358,571.52582,343.49058Z"/><path class="cls-41" d="M578.17624,348.31787a65.31078,65.31078,0,0,1-7.204,4.80028c-.33072-.15734-.65145-.32613-.96865-.50077.4512-.24978.89694-.5092,1.343-.77166a63.91033,63.91033,0,0,0,6.00343-4.0482C577.62129,347.97165,577.89888,348.14324,578.17624,348.31787Z"/><path class="cls-41" d="M585.83335,352.721q-2.13385,2.935-4.5368,5.66853c-.27011-.14953-.54326-.29936-.81977-.44633q2.407-2.72556,4.546-5.66785C585.29,352.42163,585.56014,352.57119,585.83335,352.721Z"/><path class="cls-41" d="M595.43617,358.09565a30.778,30.778,0,0,1-5.60527,5.34988c-.26805-.177-.5393-.3511-.81642-.52876a30.139,30.139,0,0,0,5.62186-5.28736Q595.032,357.85762,595.43617,358.09565Z"/><path class="cls-41" d="M600.47471,361.27906q-2.57434,3.04786-5.14256,6.0962c-.23642-.18981-.4761-.37681-.722-.56123q2.55924-3.03069,5.11536-6.06158Q600.1092,361.01648,600.47471,361.27906Z"/><path class="cls-41" d="M606.263,366.4835a28.36015,28.36015,0,0,1-6.6799,4.63577c-.22726-.22894-.46074-.45525-.69784-.67576a27.68853,27.68853,0,0,0,6.77516-4.64062C605.86958,366.02733,606.06941,366.25412,606.263,366.4835Z"/><path class="cls-41" d="M610.458,374.30506a33.69517,33.69517,0,0,1-6.11088,2.74764c-.163-.26682-.3291-.53384-.50476-.79548a32.28616,32.28616,0,0,0,6.367-2.85332C610.30223,373.70812,610.38607,374.00859,610.458,374.30506Z"/><path class="cls-41" d="M610.62678,380.89584c-.06528.3685-.14469.72062-.23269,1.066a19.33285,19.33285,0,0,1-3.53557.89253c-.078-.29694-.16527-.59462-.259-.88668A18.736,18.736,0,0,0,610.62678,380.89584Z"/><path class="cls-42" d="M566.5959,275.49883s8.21941-.9241,9.74829.7559c2.8137,3.09177,3.45666,33.26928,1.53387,34.71236s-53.15929,3.10413-54.86713,3.0723a4.85712,4.85712,0,0,1-4.28417-4.02216c-.28764-2.30339.66368-25.83666.78772-27.43672S566.5959,275.49883,566.5959,275.49883Z"/><path class="cls-40" d="M528.64892,276.70074H559.9546a10.90691,10.90691,0,0,1,10.90691,10.90691v12.424a10.90691,10.90691,0,0,1-10.90691,10.90691H528.649a10.907,10.907,0,0,1-10.907-10.907V287.60766A10.90692,10.90692,0,0,1,528.64892,276.70074Z" transform="translate(-14.74544 29.12999) rotate(-3.02468)"/><path class="cls-42" d="M560.79006,288.15683a2.34061,2.34061,0,0,1-1.50771.68541c-1.51877.0782-2.834-1.4416-2.93941-3.40039-.10255-1.95551,1.0454-3.6089,2.56418-3.68713a2.23749,2.23749,0,0,1,.94616.15911,3.63247,3.63247,0,0,1,1.99347,3.23824A3.92087,3.92087,0,0,1,560.79006,288.15683Z"/><path class="cls-41" d="M560.79006,288.15683a3.6213,3.6213,0,0,1-1.99027-3.241,3.91627,3.91627,0,0,1,1.05349-3.002,3.63247,3.63247,0,0,1,1.99347,3.23824A3.92087,3.92087,0,0,1,560.79006,288.15683Z"/><path class="cls-42" d="M544.58987,303.02019a1.503,1.503,0,0,1-1.46354,1.537l-16.56673.4364-2.0742.05354a1.50265,1.50265,0,0,1-1.54312-1.464l-.03912-1.50961a1.50181,1.50181,0,0,1,1.44572-1.5446l1.97162-.0737,16.67271-.618a1.50478,1.50478,0,0,1,1.56092,1.47147Z"/><path class="cls-41" d="M544.58987,303.02019a1.503,1.503,0,0,1-1.46354,1.537l-16.56673.4364a1.7191,1.7191,0,0,1-.81754-1.423l-.04569-1.73982a1.71794,1.71794,0,0,1,.62413-1.37553l16.67271-.618a1.50478,1.50478,0,0,1,1.56092,1.47147Z"/><path class="cls-43" d="M519.45405,223.97524a3.55743,3.55743,0,0,0-2.50857-1.4133l-9.3503-.725-.78,10.06015,9.3503.725a3.55573,3.55573,0,0,0,2.69962-1.01249,5.93544,5.93544,0,0,0,.589-7.63436Z"/><path class="cls-44" d="M511.205,227.17563a5.64226,5.64226,0,0,1-1.69009,3.70894,3.55587,3.55587,0,0,1-2.69971,1.01252c-2.2099-.17135-3.82511-2.56263-3.6096-5.34174.21525-2.776,2.17977-4.88976,4.38963-4.71841a3.55746,3.55746,0,0,1,2.50863,1.4133A5.64446,5.64446,0,0,1,511.205,227.17563Z"/><path class="cls-40" d="M511.205,227.17563a5.64226,5.64226,0,0,1-1.69009,3.70894,2.73479,2.73479,0,0,1-.88772.07512c-1.8233-.14137-3.162-2.03047-2.99257-4.216s1.78315-3.84262,3.60645-3.70125a2.80193,2.80193,0,0,1,.86279.20779A5.64446,5.64446,0,0,1,511.205,227.17563Z"/><path class="cls-40" d="M585.1857,230.274l-.00023.00305c-.15267.3893-.325.79545-.51384,1.21564-.32422.70674-.69772,1.45558-1.13327,2.25474a23.93579,23.93579,0,0,1-1.682,2.65619c-.20221.27829-.41009.55-.621.82152a28.7062,28.7062,0,0,1-3.21152,3.42562c-.22421.20618-.45449.41185-.69038.611a36.42772,36.42772,0,0,1-5.6068,3.9473c-.257.15461-.51936.29962-.78165.44465a47.56812,47.56812,0,0,1-6.22943,2.85479c-.27753.104-.55815.20782-.83824.30555a55.55055,55.55055,0,0,1-7.06649,1.99981c-.29271.06305-.58519.12307-.88081.1828a56.47153,56.47153,0,0,1-7.30723.9584l-.003-.00023c-.314.02158-.63088.03987-.94418.05233a48.77687,48.77687,0,0,1-7.36279-.182c-.3252-.03136-.64995-.06878-.97121-.11206q-.5461-.06533-1.08176-.14821a21.6202,21.6202,0,0,1-5.28-1.41074c-.40033-.16882-.769-.35054-1.10983-.53619-7.06312-3.88853-2.18937-11.059-2.18937-11.059.44177.10774.881.20917,1.31434.30707.3039.06951.605.13573.90607.20192q2.76041.5953,5.28507.95182.46325.0681.91808.1263a58.21611,58.21611,0,0,0,6.64278.50285c.30275.00511.60574.00717.90266.00876a43.98059,43.98059,0,0,0,6.25606-.43358c.31263-.04314.61941-.0898.92361-.14275a34.03068,34.03068,0,0,0,6.37549-1.6982c.287-.10636.56517-.21954.84337-.33268a29.30406,29.30406,0,0,0,4.87754-2.55846c.25786-.16683.50688-.33735.75284-.50814a29.90708,29.90708,0,0,0,4.28759-3.63926c.21927-.22183.43255-.44415.63658-.66718a41.42716,41.42716,0,0,0,2.75876-3.31377l.00024-.00306c.19451-.25744.38225-.50623.56038-.74967,1.3178-1.79026,2.24237-3.17005,3.02731-3.65731a7.98562,7.98562,0,0,1,1.42481-.68266,10.59839,10.59839,0,0,1,1.04831-.329C583.31509,220.94843,588.45754,222.00247,585.1857,230.274Z"/><path class="cls-41" d="M532.97987,250.15416c-.40033-.16882-.769-.35054-1.10983-.53619a26.25991,26.25991,0,0,1-.875-10.75194c.3039.06951.605.13573.90607.20192A25.01963,25.01963,0,0,0,532.97987,250.15416Z"/><path class="cls-41" d="M540.31289,251.82517c-.3252-.03136-.64995-.06878-.97121-.11206a52.374,52.374,0,0,1-2.15553-11.69334q.46325.0681.91808.1263A51.2208,51.2208,0,0,0,540.31289,251.82517Z"/><path class="cls-41" d="M548.61986,251.95482c-.314.02158-.63088.03987-.94418.05233a47.93094,47.93094,0,0,1-2.92867-11.35823c.30275.00511.60574.00717.90266.00876.02044.17.04684.34351.07012.5168A47.0534,47.0534,0,0,0,548.61986,251.95482Z"/><path class="cls-41" d="M556.81093,250.81385c-.29271.06305-.58519.12307-.88081.1828a74.2625,74.2625,0,0,0-4.02439-10.77255c.31263-.04314.61941-.0898.92361-.14275A75.67406,75.67406,0,0,1,556.81093,250.81385Z"/><path class="cls-41" d="M564.71566,248.50849c-.27753.104-.55815.20782-.83824.30555a45.25456,45.25456,0,0,0-4.67259-10.43089c.287-.10636.56517-.21954.84337-.33268.1954.32443.39024.65493.58179.98826A45.84847,45.84847,0,0,1,564.71566,248.50849Z"/><path class="cls-41" d="M571.72674,245.20905c-.257.15461-.51936.29962-.78165.44465a36.78347,36.78347,0,0,0-6.01935-10.16169c.25786-.16683.50688-.33735.75284-.50814A38.21359,38.21359,0,0,1,571.72674,245.20905Z"/><path class="cls-41" d="M578.02392,240.65077c-.22421.20618-.45449.41185-.69038.611-.13964-.29257-.28229-.58534-.43153-.8725a31.77965,31.77965,0,0,0-6.93584-9.04464c.21927-.22183.43255-.44415.63658-.66718.25163.23078.49707.46112.74212.69754A32.92574,32.92574,0,0,1,578.02392,240.65077Z"/><path class="cls-41" d="M581.8564,236.40363c-.20221.27829-.41009.55-.621.82152a21.68235,21.68235,0,0,0-7.87393-9.86149l.00024-.00306c.19451-.25744.38225-.50623.56038-.74967.12213.083.24405.169.363.25478A22.81368,22.81368,0,0,1,581.8564,236.40363Z"/><path class="cls-41" d="M585.1857,230.274l-.00023.00305c-.15267.3893-.325.79545-.51384,1.21564a.24521.24521,0,0,1-.02053-.0506,19.66491,19.66491,0,0,0-6.27685-9.17114,10.59839,10.59839,0,0,1,1.04831-.329A20.91333,20.91333,0,0,1,585.1857,230.274Z"/><circle class="cls-32" cx="547.2942" cy="202.12833" r="42.06836" transform="translate(17.37244 446.19746) rotate(-45)"/><path class="cls-45" d="M586.02661,189.29066a.91566.91566,0,0,1-.84388-.93743l.66055-24.7828a.91591.91591,0,0,1,1.83117.04869l-.66055,24.7828a.916.916,0,0,1-.93992.89124Z"/><path class="cls-44" d="M589.92789,203.60927a29.35722,29.35722,0,0,0-1.75115-10.434l-1.17881-7.02409-4.5.75525c-2.74695.461-4.05407,6.3153-2.91939,13.0759s4.28133,11.86735,7.02829,11.40632l4.5-.75522Z"/><ellipse class="cls-32" cx="589.05233" cy="198.3923" rx="5.04342" ry="12.41231" transform="translate(-24.71234 100.23386) rotate(-9.5272)"/><path class="cls-44" d="M590.50516,206.02031a1.43981,1.43981,0,0,1-.69963-.06037c-1.617-.51122-3.27859-3.56755-3.93212-7.46128-.57042-3.38513-.20885-6.42847.79066-7.827a1.79078,1.79078,0,0,1,1.13336-.794c1.81188-.30353,3.88419,3.06331,4.63172,7.52168C593.17973,201.85791,592.31706,205.71679,590.50516,206.02031Z"/><path class="cls-43" d="M589.80553,205.95994c-1.617-.51122-3.27859-3.56755-3.93212-7.46128-.57042-3.38513-.20885-6.42847.79066-7.827,1.6205.50538,3.288,3.56519,3.94149,7.459C591.17246,201.52159,590.811,204.565,589.80553,205.95994Z"/><ellipse class="cls-33" cx="541.85497" cy="205.18532" rx="38.6" ry="36.88173" transform="matrix(0.0773, -0.99701, 0.99701, 0.0773, 295.39642, 729.55733)"/><path class="cls-46" d="M573.94679,209.19193c-1.58347,20.42162-18.30871,35.77709-37.35755,34.3s-33.20706-19.22716-31.62359-39.64878a38.89444,38.89444,0,0,1,6.81689-19.27784c6.91165-9.91541,18.24041-15.979,30.54085-15.02528a32.33787,32.33787,0,0,1,8.9109,1.97708C565.58605,176.89869,575.27135,192.10948,573.94679,209.19193Z"/><path class="cls-47" d="M573.94679,209.19193c-1.58347,20.42162-18.30871,35.77709-37.35755,34.3s-33.20706-19.22716-31.62359-39.64878a38.89444,38.89444,0,0,1,6.81689-19.27784,4.84926,4.84926,0,0,1,.87491,2.22364,7.47494,7.47494,0,0,1-.09811,3.00256l-3.27521,14.19967a8.38941,8.38941,0,0,0-.09106,4.17594,1.69789,1.69789,0,0,0,1.69662,1.34115,3.20273,3.20273,0,0,1,3.05729,2.11725c.02264.063.0451.12906.0678.192.385,1.03733.83929,2.04938,1.18666,3.0991.85917,2.58378,1.8719,5.24067,4.26027,6.82224a4.96826,4.96826,0,0,0,4.00835.75175c3.6614-.97467,4.04858-5.73086,2.77025-9.06983-1.207-3.15273-3.39209-6.05365-3.501-9.42747a7.97782,7.97782,0,0,1,14.01732-5.46934c2.08741,2.42179,2.52674,5.79979,3.113,8.94115s1.61195,6.54035,4.31489,8.25039c3.19675,2.01785,7.48654.83774,10.662-1.21576a22.58381,22.58381,0,0,0,.36874-37.69177c-1.33862-.903-2.80281-1.68719-3.62169-3.17156a3.13613,3.13613,0,0,1-.35929-2.11936C565.58605,176.89869,575.27135,192.10948,573.94679,209.19193Z"/><path class="cls-43" d="M591.1275,222.27381a3.55735,3.55735,0,0,0-2.50854-1.41327l-9.3503-.725-.78006,10.06015,9.35029.725a3.55579,3.55579,0,0,0,2.69966-1.01252,5.93549,5.93549,0,0,0,.589-7.63436Z"/><path class="cls-44" d="M582.87843,225.4742a5.64225,5.64225,0,0,1-1.69013,3.709,3.55575,3.55575,0,0,1-2.6997,1.01252c-2.20987-.17138-3.82508-2.56266-3.6096-5.34175.21525-2.77606,2.17976-4.88978,4.38966-4.7184a3.55748,3.55748,0,0,1,2.50863,1.41327A5.64459,5.64459,0,0,1,582.87843,225.4742Z"/><path class="cls-40" d="M582.87843,225.4742a5.64225,5.64225,0,0,1-1.69013,3.709,2.73535,2.73535,0,0,1-.88768.07512c-1.8233-.1414-3.162-2.03048-2.99257-4.216s1.78315-3.84261,3.60645-3.70124a2.80161,2.80161,0,0,1,.86279.20776A5.64459,5.64459,0,0,1,582.87843,225.4742Z"/><path class="cls-32" d="M635.17464,322.807a85.81061,85.81061,0,0,1-7.91932,22.35868c-6.52285,12.79957-15.50015,24.1594-24.418,35.42283-3.60493-2.99263-7.14655-5.97119-10.69718-8.95352-2.86086-2.39906-5.7276-4.80165-8.63628-7.21667,10.96111-10.91817,22.69371-26.45562,25.51576-41.6428a32.06715,32.06715,0,0,0-.4369-14.66512,27.51951,27.51951,0,0,0-1.66631-4.41632q-7.57254-15.8416-13.5855-32.36457-2.193-6.01733-4.169-12.10665c-1.09991-3.38942-2.16126-6.91979-1.7369-10.45741.42738-3.53739,2.74913-7.09941,6.23874-7.83323a7.05678,7.05678,0,0,1,2.80269-.00931,15.025,15.025,0,0,1,6.49032,3.49505,62.76428,62.76428,0,0,1,10.05045,10.93668c2.14967,2.88286,4.13653,5.89091,6.07682,8.90761,7.78187,12.11424,15.11949,25.06066,16.89616,39.34893.12051.974.21633,1.949.28161,2.92482A62.03288,62.03288,0,0,1,635.17464,322.807Z"/><path class="cls-33" d="M613.00722,255.3546q-.96183.1413-1.903.373a25.91648,25.91648,0,0,0-13.77608,9.19023,34.011,34.011,0,0,0-3.99722,6.41161q-2.193-6.01733-4.169-12.10665c-1.09991-3.38942-2.16126-6.91979-1.7369-10.45741.42738-3.53739,2.74913-7.09941,6.23874-7.83323,3.35288-.7077,6.65822,1.291,9.293,3.48574A62.76428,62.76428,0,0,1,613.00722,255.3546Z"/><path class="cls-33" d="M635.17464,322.807c-1.95476-.34143-3.90184-.62407-5.80328-.8634a62.22123,62.22123,0,0,0-20.35169.83192,32.06715,32.06715,0,0,0-.4369-14.66512A63.67815,63.67815,0,0,1,627.769,305.366a40.05083,40.05083,0,0,1,8.49277,1.16991A62.03288,62.03288,0,0,1,635.17464,322.807Z"/><path class="cls-31" d="M595.60493,388.28338a42.13525,42.13525,0,0,1-5.10709,8.12615,21.13459,21.13459,0,0,1-9.32654,6.18826c-.31735.104-.63729.20171-.95954.29a2.28445,2.28445,0,0,1-1.61219.01892c-.49228-.24638-.70448-1.26113-.26552-1.59146a11.26744,11.26744,0,0,1-3.89885,1.66666,3.28309,3.28309,0,0,1-1.83111-.00114,1.68739,1.68739,0,0,1-.85785-1.69254,11.87907,11.87907,0,0,1-7.46492,1.45144,1.21194,1.21194,0,0,1-.69033-.25867.973.973,0,0,1,.07274-1.01716q-1.8501.28367-3.70339.56722a7.442,7.442,0,0,1-1.95077.12122,2.4627,2.4627,0,0,1-1.696-.87559,2.57676,2.57676,0,0,1,.52179-3.21469,9.41411,9.41411,0,0,1,3.07885-1.71494,25.01154,25.01154,0,0,0,10.46339-8.44884,3.49286,3.49286,0,0,0,.57618-1.073,1.311,1.311,0,0,0-.18541-1.16272c-.4556-.562-1.38147-.54808-2.10359-.5153a48.0467,48.0467,0,0,1-7.321-.24612,5.75232,5.75232,0,0,1-1.829-.42353,2.07514,2.07514,0,0,1-1.19194-1.37243,2.44724,2.44724,0,0,1,1.60153-2.4481c2.096-1.00727,4.57428-.466,6.88228-.73105a13.08739,13.08739,0,0,0,5.71023-2.27955c.51045-.3432,1.00453-.71214,1.48453-1.09751,1.13551-.901,2.19874-1.8965,3.26171-2.88894a19.70873,19.70873,0,0,1,7.60168,4.64382c2.19491,2.02284,4.15646,4.29091,6.36483,6.29947A38.36767,38.36767,0,0,0,595.60493,388.28338Z"/><g class="cls-48"><path class="cls-49" d="M595.60493,388.28338a42.13525,42.13525,0,0,1-5.10709,8.12615,21.13459,21.13459,0,0,1-9.32654,6.18826c.00632-.00255.00984-.00843.01609-.011a24.04711,24.04711,0,0,0,6.362-6.30173,7.89633,7.89633,0,0,0,1.72918-4.88491c-.13813-1.8909-1.39154-3.49774-2.677-4.88969a43.665,43.665,0,0,0-10.645-8.40133,5.11668,5.11668,0,0,1-1.95521-1.56022c1.13551-.901,2.19874-1.8965,3.26171-2.88894a19.70873,19.70873,0,0,1,7.60168,4.64382c2.19491,2.02284,4.15646,4.29091,6.36483,6.29947A38.36767,38.36767,0,0,0,595.60493,388.28338Z"/></g><g class="cls-50"><path class="cls-51" d="M592.25111,366.7287a13.2348,13.2348,0,0,0-.11092,4.90625c-2.86086-2.39906-5.7276-4.80165-8.63628-7.21667,10.96111-10.91817,22.69371-26.45562,25.51576-41.6428a32.06715,32.06715,0,0,0-.4369-14.66512,27.51951,27.51951,0,0,0-1.66631-4.41632q-7.57254-15.8416-13.5855-32.36457-2.193-6.01733-4.169-12.10665c-1.09991-3.38942-2.16126-6.91979-1.7369-10.45741.42738-3.53739,2.74913-7.09941,6.23874-7.83323a7.05678,7.05678,0,0,1,2.80269-.00931c-4.44707,5.57753-3.70362,13.64285-.9542,20.32346q5.6735,13.79265,11.34392,27.58517c3.8649,9.39446,7.7954,19.12778,7.55011,29.28146-.34551,14.36867-8.89725,27.07215-17.11777,38.86122C595.18318,359.99565,593.02653,363.12641,592.25111,366.7287Z"/></g><path class="cls-33" d="M583.50391,364.41828s-.93684-.67622-3.54813,2.65123-4.95964,5.79283-3.67822,6.97079,16.94325,15.4335,19.43206,16.21482,8.45762-8.56048,7.12775-9.66665S583.50391,364.41828,583.50391,364.41828Z"/><path class="cls-29" d="M229.15293,228.46271l-.0086.01774c-.204.40592-.77992.45137-1.2862.10156L156.2147,179.08607a1.18774,1.18774,0,0,1-.54717-1.36817c.204-.40591.77991-.45135,1.28619-.10155l71.64343,49.49594A1.19292,1.19292,0,0,1,229.15293,228.46271Z"/><path class="cls-52" d="M156.95372,177.61635s1.15772-15.874,3.15944-18.91692,6.21049,10.1016,8.85471,2.713,5.61718-22.99127,5.61718-22.99127l20.38056,16.27395s-5.20468,24.53883-6.93324,26.57025-3.3004-1.24266-6.44169-3.73186-.86635,16.50509-.86635,16.50509Z"/><path class="cls-41" d="M136.42021,256.59377a45.7562,45.7562,0,0,1,6.43264.14441c.50916.04545,1.01683.09389,1.52007.1512.82132.0951,1.6325.20387,2.42812.32394a5.42368,5.42368,0,0,1,1.92835.55714,1.99859,1.99859,0,0,1,1.05743,1.62541,2.87127,2.87127,0,0,1-2.32828,2.52334,9.22037,9.22037,0,0,1-3.43629-.19723c-.10824-.01478-.2165-.02953-.32619-.0414a12.87563,12.87563,0,0,0-1.479-.10784,17.031,17.031,0,0,0-6.57791,1.20742"/><path class="cls-53" d="M142.21708,261.57274a12.69938,12.69938,0,0,0,.63577-4.83456c.50916.04545,1.01683.09389,1.52007.1512a14.07187,14.07187,0,0,1-.67686,4.7912A12.87563,12.87563,0,0,0,142.21708,261.57274Z"/><path class="cls-42" d="M130.03462,260.93145a112.314,112.314,0,0,1-22.73921,37.59971,136.12816,136.12816,0,0,1-12.89251,12.548A156.45216,156.45216,0,0,1,55.625,335.22246a70.65543,70.65543,0,0,1-8.17942,3.10851,36.16769,36.16769,0,0,1-5.33885,1.183c-4.72613.65214-9.78.12805-13.82513-2.24679a15.83215,15.83215,0,0,1-5.67646-5.77358,18.59534,18.59534,0,0,1-2.33641-11.36112c.76208-6.53217,5.41474-12.65465,10.31146-17.37159.95408-.043,1.90705-.10215,2.85746-.17174a97.53588,97.53588,0,0,0,41.31164-12.34254q1.82237-1.03788,3.59772-2.15876a96.37533,96.37533,0,0,0,8.6129-6.12826,89.05271,89.05271,0,0,0,24.45574-29.99165,16.91754,16.91754,0,0,1,8.03892.58234A18.64,18.64,0,0,1,130.03462,260.93145Z"/><path class="cls-54" d="M63.35849,308.33109a36.16782,36.16782,0,0,1-5.33886,1.183c-4.72612.65215-9.78.128-13.82512-2.24678-5.95356-3.49248-8.77152-10.60055-8.01287-17.13471.76208-6.53216,5.41473-12.65465,10.31146-17.37158.95407-.043,1.907-.10215,2.85746-.17175a10.14947,10.14947,0,0,0-.97135,1.2586,25.05154,25.05154,0,0,0-3.75043,9.773,21.35073,21.35073,0,0,0,18.72971,24.71025Z"/><path class="cls-54" d="M107.29541,298.53116a136.12816,136.12816,0,0,1-12.89251,12.548,29.13512,29.13512,0,0,1-11.29571-6.17747,26.45377,26.45377,0,0,1-8.35792-14.65512q1.82237-1.03788,3.59772-2.15876a96.37533,96.37533,0,0,0,8.6129-6.12826,23.14494,23.14494,0,0,1,8.981,4.01582A37.48,37.48,0,0,1,107.29541,298.53116Z"/><g class="cls-55"><path class="cls-56" d="M130.03462,260.93145a112.314,112.314,0,0,1-22.73921,37.59971,136.12816,136.12816,0,0,1-12.89251,12.548A156.45216,156.45216,0,0,1,55.625,335.22246a70.65543,70.65543,0,0,1-8.17942,3.10851,36.16769,36.16769,0,0,1-5.33885,1.183c-4.72613.65214-9.78.12805-13.82513-2.24679a15.83215,15.83215,0,0,1-5.67646-5.77358,26.868,26.868,0,0,0,5.09785,2.0801,43.06548,43.06548,0,0,0,19.32738.16464c9.95357-2.118,18.94232-7.1243,27.1259-12.83293a146.20141,146.20141,0,0,0,41.70929-44.412c2.69726-4.49361,5.17778-9.2691,5.64783-14.40525a15.93074,15.93074,0,0,0-2.05882-9.53788A18.64,18.64,0,0,1,130.03462,260.93145Z"/></g><path class="cls-42" d="M63.05033,601.42121,0,588.55206q.30022-1.84936.61781-3.69793c5.15833-29.83183,14.20728-58.998,19.4719-88.82184q.53487-3.02334,1.01177-6.124c.64019-4.14438,1.19915-8.37913,1.66061-12.67205,2.84148-26.46974,1.912-55.14426-7.29014-78.9635,1.32233-2.75871,1.33641-1.71712,2.65935-4.47846A76.95669,76.95669,0,0,0,43.989,405.83994c.95332.24922,1.9143.47819,2.87614.69091a80.47749,80.47749,0,0,0,15.87216,1.86205l.00279.00057a77.79418,77.79418,0,0,0,8.16634-.29308,155.77737,155.77737,0,0,1,1.026,30.8782c-.967,15.83675-3.99277,31.63871-7.96149,47.14706q-1.07709,4.20011-2.23764,8.36946-.46312,1.66437-.94277,3.31177c-7.79837,26.82745-18.93477,50.79779-28.229,80.52623,5.619,2.12812,16.56654,5.374,21.30017,8.915,3.8872,2.90906,7.48144,6.77242,8.72782,11.20072A12.256,12.256,0,0,1,63.05033,601.42121Z"/><g class="cls-57"><path class="cls-58" d="M16.76226,591.97339l-2.8072-.573A502.65466,502.65466,0,0,0,43.989,405.83994c.95332.24922,1.9143.47819,2.87614.69091A505.24349,505.24349,0,0,1,16.76226,591.97339Z"/></g><path class="cls-54" d="M63.971,486.12565q-1.07709,4.20011-2.23764,8.36946-.46312,1.66437-.94277,3.31177c-13.29754-2.27134-26.51272-5.02059-39.68907-7.89863.64019-4.14438,1.19915-8.37913,1.66061-12.67205A332.82463,332.82463,0,0,0,63.971,486.12565Z"/><path class="cls-54" d="M63.05033,601.42121,0,588.55206q.30022-1.84936.61781-3.69793c3.32109.32526,6.74763.52441,10.00981.91417a7.82642,7.82642,0,0,1,5.18614-7.47514,8.76138,8.76138,0,0,1,9.22357,2.24072c2.16317,2.4424,2.82874,6.26558,1.0337,8.95787q8.57323,2.10249,17.14366,4.20443,9.68913,2.37529,19.37485,4.7527A12.256,12.256,0,0,1,63.05033,601.42121Z"/><path class="cls-42" d="M163.05862,593.40135l-54.7008,2.92046q-.13995-2.29158-.29432-4.58505c-2.05987-30.91841-5.74991-61.8755-14.62089-91.70806Q92.411,496.557,91.2778,493.10939q-1.98867-6.07275-4.29532-12.059a212.493,212.493,0,0,0-23.65607-45.06293,178.29,178.29,0,0,0-17.68449-21.62363c-1.60688-1.67162-1.80574-3.80357-.10918-5.39472.04873-.04539.09745-.09079.14919-.13365l.00285-.00015c1.69134-1.48928,4.08256-2.05833,6.35175-2.56463q11.55756-2.57907,23.115-5.16077c.74783-.16835,1.49852-.33682,2.24889-.51062.93946-.216,1.87827-.44267,2.80992-.693a36.1031,36.1031,0,0,0,7.718-2.86494c3.92663-2.082,7.32139-5.42494,8.26518-9.55182a267.541,267.541,0,0,1,34.62229,83.53309q1.52107,6.70758,2.67722,13.4828a247.43622,247.43622,0,0,1-1.47869,92.66391c6.62093.10926,13.418.24656,19.559,2.56948a18.36537,18.36537,0,0,1,10.203,9.01522A13.94465,13.94465,0,0,1,163.05862,593.40135Z"/><g class="cls-59"><path class="cls-60" d="M124.96225,595.4353l-2.89715.15468A421.60056,421.60056,0,0,0,77.40038,400.59931c.93946-.216,1.87827-.44267,2.80992-.693A421.98731,421.98731,0,0,1,117.68884,510.7684,416.52152,416.52152,0,0,1,124.96225,595.4353Z"/></g><path class="cls-54" d="M133.493,484.50542a293.46418,293.46418,0,0,1-39.75248,8.2692c-.81986.11332-1.64273.22412-2.46275.33477q-1.98867-6.07275-4.29532-12.059a335.49075,335.49075,0,0,0,43.83333-10.02779Q132.33689,477.7302,133.493,484.50542Z"/><path class="cls-54" d="M163.05862,593.40135l-54.7008,2.92046q-.13995-2.29158-.29432-4.58505,4.30173-.24973,8.60615-.50228a6.625,6.625,0,0,1,.39171-8.99774,7.84547,7.84547,0,0,1,9.61176-.572,6.65633,6.65633,0,0,1,1.60924,8.87754l33.494-1.78823A13.94465,13.94465,0,0,1,163.05862,593.40135Z"/><path class="cls-42" d="M123.75134,324.2511c-.10686.67853-.21223,1.35125-.30971,2.00854-3.14667,20.61711-3.03,32.014-2.197,51.87812.06993,1.6957.14637,3.453.22638,5.28355,1.51544,34.73792-84.30982,46.92862-94.96949,39.60654-10.65621-7.32-12.63039-31.22957-12.63039-31.22957-3.01861-28.06107,5.34949-55.97994,13.63558-83.09683,2.45416-8.04072,5.06346-16.35371,10.88672-22.69786a42.88863,42.88863,0,0,1,13.7797-9.50013,68.77989,68.77989,0,0,1,33.10652-6.1549,61.01835,61.01835,0,0,1,16.64581,3.41281c.37317.13271.74486.27122,1.1144.41294,7.69859,2.95123,15.46674,1.12484,19.47105,7.94476C128.73506,292.71151,125.64255,312.29689,123.75134,324.2511Z"/><g class="cls-61"><path class="cls-62" d="M123.44163,326.25964c-3.14667,20.61711-3.03,32.014-2.197,51.87812a39.49677,39.49677,0,0,0-10.22584-6.34433,54.07141,54.07141,0,0,0-20.57049-4.08924,67.17074,67.17074,0,0,0-20.99083,3.06227c-6.50553,2.04531-13.28949,4.24448-19.76385,6.368a4.72243,4.72243,0,0,1-2.98286.29226c-.955-.33794-2.20423-1.3165-1.40939-1.9171q3.43462-20.7798,6.86647-41.559c1.83818-11.10643,3.6944-22.29356,7.7452-32.87492,4.05145-10.57876,10.48677-20.63953,20.01374-27.49026a37.29143,37.29143,0,0,1,5.35287-3.23686,61.01835,61.01835,0,0,1,16.64581,3.41281,45.05512,45.05512,0,0,0-19.95782,23.094c-1.81,4.90112-2.50314,10.508-3.61449,15.589A72.99716,72.99716,0,0,1,123.44163,326.25964Z"/></g><path class="cls-32" d="M54.99974,276.34939a2.46294,2.46294,0,0,1-.66266.5307,2.52726,2.52726,0,0,1-.30032.13659q-1.92282.72249-3.7522,1.60835c-.25924.12492-.51782.25244-.773.382a44.08718,44.08718,0,0,0-4.23617,2.45662c-.2397.15631-.47532.31722-.70815.47753a42.534,42.534,0,0,0-4.03541,3.13405c-.20967.18269-.4187.368-.6243.55526a40.96445,40.96445,0,0,0-3.58135,3.70979c-.18244.20967-.358.42333-.53295.63958a38.64624,38.64624,0,0,0-2.35861,3.20261c-.15371.23084-.30613.46688-.453.70171a37.29829,37.29829,0,0,0-3.56981,7.30451c-1.34137,3.74361-7.62257,1.94-6.27608-1.81839a43.57634,43.57634,0,0,1,2.51161-5.67608c.16555-.31292.33666-.627.51463-.93719a44.96473,44.96473,0,0,1,2.83908-4.4422c.18961-.26332.38053-.52144.57765-.77816a47.17313,47.17313,0,0,1,4.23578-4.8748c.21647-.21433.43294-.42865.65562-.64158a48.64473,48.64473,0,0,1,3.883-3.3696c.26059-.202.52461-.402.78928-.59936a47.696,47.696,0,0,1,4.69976-3.09209l.00279-.0006c.28912-.16981.5774-.3312.87124-.49381a47.72324,47.72324,0,0,1,5.149-2.44128c.30911-.1248.61609-.24639.92993-.364l.00278-.00061.10462-.0392a3.49218,3.49218,0,0,1,4.456,1.23264A3.16732,3.16732,0,0,1,54.99974,276.34939Z"/><path class="cls-63" d="M33.43464,293.18243c-.15371.23084-.30613.46688-.453.70171a15.005,15.005,0,0,0-7.33428-.19c.16555-.31292.33666-.627.51463-.93719A15.887,15.887,0,0,1,33.43464,293.18243Z"/><path class="cls-63" d="M36.3262,289.34024c-.18244.20967-.358.42333-.53295.63958a16.74171,16.74171,0,0,0-6.79216-1.665c.18961-.26332.38053-.52144.57765-.77816A17.64078,17.64078,0,0,1,36.3262,289.34024Z"/><path class="cls-63" d="M40.53185,285.07519c-.20967.18269-.4187.368-.6243.55526a20.48766,20.48766,0,0,0-6.093-2.96862c.21647-.21433.43294-.42865.65562-.64158A21.47476,21.47476,0,0,1,40.53185,285.07519Z"/><path class="cls-63" d="M45.27541,281.46361c-.2397.15631-.47532.31722-.70815.47753a18.09208,18.09208,0,0,0-6.21415-3.29049c.26059-.202.52461-.402.78928-.59936A18.91436,18.91436,0,0,1,45.27541,281.46361Z"/><path class="cls-63" d="M50.28456,278.625c-.25924.12492-.51782.25244-.773.382a17.19616,17.19616,0,0,0-5.66664-4.04839c.28912-.16981.5774-.3312.87124-.49381A17.84821,17.84821,0,0,1,50.28456,278.625Z"/><path class="cls-63" d="M54.99974,276.34939a2.46294,2.46294,0,0,1-.66266.5307,13.8632,13.8632,0,0,0-4.47186-4.85658c.30911-.1248.61609-.24639.92993-.364l.00278-.00061A14.72081,14.72081,0,0,1,54.99974,276.34939Z"/><path class="cls-32" d="M111.765,276.31282a48.80857,48.80857,0,0,1-6.97836-1.51761c-.28809-.0854-.56719-.17-.83452-.25446-.86066-.26524-1.61127-.52424-2.22052-.74544a12.60242,12.60242,0,0,0-1.35786-.79046c-.25264-.1315-.50826-.25139-.7675-.36226a13.824,13.824,0,0,0-1.59659-.5713,15.51529,15.51529,0,0,0-2.64162-.51677c-.29035-.03556-.58091-.06012-.87294-.07886a21.383,21.383,0,0,0-5.70224.45314c-.28783.05711-.57372.122-.85832.19214-.89274.21882-1.76548.48264-2.61183.78184q-1.18479.418-2.3236.93851c-.2646.11512-.52448.23743-.78242.36756a29.69949,29.69949,0,0,0-4.49689,2.70524c-.23582.17192-.471.34644-.70207.52556a29.92289,29.92289,0,0,0-3.9082,3.62185c-.18651.20507-.3696.41213-.548.62639a27.16681,27.16681,0,0,0-1.99186,2.63756c-.15436.22824-.30186.46046-.44658.69208a25.93221,25.93221,0,0,0-1.88793,3.6212,3.39976,3.39976,0,0,1-4.10873,2.02587c-1.6026-.46581-2.81874-2.30155-2.16736-3.84426q.66792-1.57646,1.47642-3.07108c.1453-.26465.29125-.5267.4434-.78736a34.53688,34.53688,0,0,1,2.2375-3.40658c.18088-.23949.36176-.479.54951-.71447a35.60051,35.60051,0,0,1,2.80759-3.1659c.4464-.44529.90372-.882,1.37606-1.30548l.00278-.00061c.228-.20313.45674-.40366.68951-.5996a35.81252,35.81252,0,0,1,5.86065-4.06014c.25962-.14694.5261-.28989.7911-.427a35.932,35.932,0,0,1,5.84652-2.43119c.294-.09135.59138-.1807.8873-.26424a32.962,32.962,0,0,1,7.01484-1.22389c.25665-.01743.51181-.029.76826-.03546.31125-.01011.621-.01441.93337-.00831a22.72769,22.72769,0,0,1,7.35042,1.28042c.28576.09962.56726.20565.84791.32009a19.70757,19.70757,0,0,1,4.70717,2.66681q.34761.26576.68243.55075A16.19382,16.19382,0,0,1,111.765,276.31282Z"/><path class="cls-63" d="M70.56965,284.32545c-.15436.22824-.30186.46046-.44658.69208a21.54994,21.54994,0,0,0-6.6876-1.26827c.1453-.26465.29125-.5267.4434-.78736A22.50033,22.50033,0,0,1,70.56965,284.32545Z"/><path class="cls-63" d="M73.10947,281.0615c-.18651.20507-.3696.41213-.548.62639a22.77887,22.77887,0,0,0-6.44514-2.13257c.18088-.23949.36176-.479.54951-.71447A23.75362,23.75362,0,0,1,73.10947,281.0615Z"/><path class="cls-63" d="M77.71974,276.91409c-.23582.17192-.471.34644-.70207.52556a36.2306,36.2306,0,0,0-6.16536-3.07079c.228-.20313.45674-.40366.68951-.5996.46511.184.92316.375,1.37824.57766A36.53882,36.53882,0,0,1,77.71974,276.91409Z"/><path class="cls-63" d="M82.99905,273.84129c-.2646.11512-.52448.23743-.78242.36756a33.84487,33.84487,0,0,0-4.81416-4.49973c.25962-.14694.5261-.28989.7911-.427q.63254.49169,1.24031,1.01344A33.90047,33.90047,0,0,1,82.99905,273.84129Z"/><path class="cls-63" d="M88.7928,271.9288c-.28783.05711-.57372.122-.85832.19214a31.03566,31.03566,0,0,0-3.89439-5.27c.294-.09135.59138-.1807.8873-.26424.05169.05456.1006.10973.14952.16489A31.53474,31.53474,0,0,1,88.7928,271.9288Z"/><path class="cls-63" d="M95.368,271.55452c-.29035-.03556-.58091-.06012-.87294-.07886a18.98019,18.98019,0,0,0-1.78455-6.14835c.31125-.01011.621-.01441.93337-.00831A19.75575,19.75575,0,0,1,95.368,271.55452Z"/><path class="cls-63" d="M101.84219,266.91951a14.7032,14.7032,0,0,1-1.4685,6.08534c-.25264-.1315-.50826-.25139-.7675-.36226a13.93911,13.93911,0,0,0,1.38809-6.04317C101.28,266.699,101.56154,266.80507,101.84219,266.91951Z"/><path class="cls-63" d="M107.23179,270.13707a35.47017,35.47017,0,0,1-2.4452,4.65814c-.28809-.0854-.56719-.17-.83452-.25446a35.49293,35.49293,0,0,0,2.59729-4.95443Q106.897,269.85208,107.23179,270.13707Z"/><path class="cls-42" d="M175.9,284.60161A156.452,156.452,0,0,1,137.122,308.74492a70.65635,70.65635,0,0,1-8.17941,3.1085,36.16769,36.16769,0,0,1-5.33885,1.18295c-4.72613.65215-9.78.12805-13.82513-2.24678a15.83218,15.83218,0,0,1-5.67646-5.77359,18.59532,18.59532,0,0,1-2.33641-11.36112c.76208-6.53216,5.41474-12.65465,10.31146-17.37158.95408-.043,1.907-.10215,2.85746-.17175A97.53588,97.53588,0,0,0,156.24633,263.769"/><path class="cls-54" d="M128.94262,311.85342a36.16769,36.16769,0,0,1-5.33885,1.18295c-4.72613.65215-9.78.12805-13.82513-2.24678-5.95356-3.49248-8.77152-10.60055-8.01287-17.13471.76208-6.53216,5.41474-12.65465,10.31146-17.37158.95408-.043,1.907-.10215,2.85746-.17175a10.14936,10.14936,0,0,0-.97134,1.2586,25.0514,25.0514,0,0,0-3.75044,9.773,21.35073,21.35073,0,0,0,18.72971,24.71025Z"/><path class="cls-54" d="M86.63086,309.37748q-1.35667,26.35712-4.763,52.57321-.29283,2.28864-.60641,4.57632-.86315,6.29092-1.84106,12.5684c-.77415,4.97471-2.13164,10.65756-6.90907,12.96594a18.17279,18.17279,0,0,1-6.11142,1.34273q-22.13056,2.25864-44.25835,4.5167a40.08594,40.08594,0,0,1-9.676.20413c-2.893-.4073-6.97648-1.30964-8.03115-3.6987a2.97175,2.97175,0,0,1-.2282-.8113,178.17651,178.17651,0,0,1-1.556-21.29709q-.03675-2.5172.00271-5.03452a179.43419,179.43419,0,0,1,4.35691-36.747,99.54992,99.54992,0,0,1,8.165-23.8196A24.08166,24.08166,0,0,1,29.07553,295.027c5.1891-1.72616,10.44238-3.47725,15.47317-5.1443,6.94306-2.30225,14.06889-4.636,21.43428-4.52138a26.78367,26.78367,0,0,1,9.95653,2.04345,17.33069,17.33069,0,0,1,8.59921,7.24368C87.02743,299.089,86.886,304.36757,86.63086,309.37748Z"/><path class="cls-53" d="M86.63086,309.37748a678.41307,678.41307,0,0,1-7.21045,69.71793c-.77415,4.97471-2.13164,10.65756-6.90907,12.96594a18.17279,18.17279,0,0,1-6.11142,1.34273q-22.13056,2.25864-44.25835,4.5167a40.08594,40.08594,0,0,1-9.676.20413c-2.893-.4073-6.97648-1.30964-8.03115-3.6987,1.49005-1.13015,3.82492-1.5282,5.85385-1.70621q26.9-2.3417,53.79657-4.68539l.03149-.56891q4.72493-47.08546,9.45132-94.17675c.20264-2.02638.49721-4.23726,2.0711-5.64334a2.88945,2.88945,0,0,1,.30077-.24088,17.33069,17.33069,0,0,1,8.59921,7.24368C87.02743,299.089,86.886,304.36757,86.63086,309.37748Z"/><path class="cls-41" d="M81.86788,361.95069q-.29283,2.28864-.60641,4.57632a67.34132,67.34132,0,0,0-7.136-1.774c-12.9926-2.50735-26.45926-1.34453-39.50557.10525-10.75829,1.19348-22.36254,2.42836-31.96971,7.45953q-.03675-2.5172.00271-5.03452a64.8832,64.8832,0,0,1,13.301-4.26889,194.24991,194.24991,0,0,1,20.24961-2.87092,199.196,199.196,0,0,1,21.6469-1.368A87.1769,87.1769,0,0,1,81.86788,361.95069Z"/><path class="cls-53" d="M57.93416,291.12834l-.314,3.39408-1.89428,20.512L42.9332,318.0933,38.43245,319.168c-.15271-11.082,3.74451-23.44778,3.74451-23.44778Z"/><path class="cls-41" d="M57.62015,294.52242l-1.89428,20.512L42.9332,318.0933a92.3499,92.3499,0,0,1,3.693-20.36578Z"/><path class="cls-32" d="M35.64352,398.01973q.19287,2.03085.34487,4.06237c.02149.275.043.55.061.823q.171,2.38518.28175,4.77525c.01165.28261.02395.56785.03625.853q.13526,3.17844.16029,6.36174c.0035.27341.00634.54421.00706.81823q.01064,1.93476-.02176,3.87342c-.01518.941-.0376,1.9-.09063,2.86566-.01384.27445-.03046.5495-.05328.82319a23.38062,23.38062,0,0,1-1.31335,6.63836c-.11037.28719-.22759.57041-.35724.85085a12.46111,12.46111,0,0,1-3.22349,4.35854,11.94984,11.94984,0,0,1-2.04954,1.42727c-.25749.14373-.51821.27445-.78152.39478a10.52464,10.52464,0,0,1-10.92771-1.06727c-.22082-.16861-.42837-.34281-.63424-.53384l-.00064-.0026a10.03291,10.03291,0,0,1-.75607-.776,17.51511,17.51511,0,0,1-2.69249-4.19888l-.00065-.0026c-.11348-.244-.2214-.48924-.32784-.74027a27.15463,27.15463,0,0,1-1.49092-4.92083c-.05357-.26252-.105-.52826-.15581-.79139a46.13387,46.13387,0,0,1-.6091-4.79454c-.03942-.47673-.06706-.95327-.08357-1.43223-.01164-.28259-.01987-.56323-.02253-.84506a36.43785,36.43785,0,0,1,.35212-5.59854c.03823-.28249.08267-.56359.12776-.84209a37.49939,37.49939,0,0,1,1.24144-5.22987c.083-.26756.16943-.53311.26207-.79728.2574-.76884.54308-1.53012.85147-2.28263a2.719,2.719,0,0,1,1.45426-1.498c.23494,1.09771.74629,3.37735,1.37986,5.64141.09266.32532.18595.65321.28074.97532.19494.654.39778,1.29262.607,1.886a33.39266,33.39266,0,0,0-.61129,3.4368c-.03525.27087-.0643.54312-.09056.81478a31.71961,31.71961,0,0,0-.12267,4.76449c.0112.269.02583.54.04881.80918.01437.24641.03709.491.06044.73811.09844,1.0205.23148,2.12119.42987,3.24879.04523.26434.09389.53068.15089.7952a21.88787,21.88787,0,0,0,1.00929,3.55048c.0953.25345.19895.50509.30965.74972a11.04776,11.04776,0,0,0,2.31434,3.44489c.01566.01581.03067.029.04567.04213a4.775,4.775,0,0,0,.649.52241c1.83863,1.226,3.98141.68055,5.62039-.60534a7.46331,7.46331,0,0,0,.72154-.64766,7.26494,7.26494,0,0,0,1.36762-1.9288,11.21939,11.21939,0,0,0,.72972-2.01763c.0742-.27934.13875-.5621.195-.843a25.54376,25.54376,0,0,0,.40316-3.81374c.00076-.04407.005-.08608.00575-.13012q.01853-.403.0287-.8041c.07493-2.09183.07857-4.18735.05994-6.278-.00343-.23779-.00409-.47618-.00752-.714-.00155-.02982-.00033-.06025-.00189-.0901q-.03121-3.00776-.16221-6.01582c-.01055-.2664-.02453-.5348-.04065-.8q-.11216-2.48435-.29578-4.96135c-.01677-.26779-.03567-.53241-.058-.799q-.14252-1.88141-.32183-3.75755c-.14011-1.44736,1.58408-2.61469,2.96948-2.5623A2.84312,2.84312,0,0,1,35.64352,398.01973Z"/><path class="cls-63" d="M16.89211,407.20821a23.955,23.955,0,0,1-4.2284-2.03886c.083-.26756.16943-.53311.26207-.79728a22.84634,22.84634,0,0,0,3.68559,1.86082C16.704,406.55821,16.79732,406.8861,16.89211,407.20821Z"/><path class="cls-63" d="M16.88778,412.531c-.03525.27087-.0643.54312-.09056.81478a40.23679,40.23679,0,0,1-5.50271-2.10444c.03823-.28249.08267-.56359.12776-.84209A39.29748,39.29748,0,0,0,16.88778,412.531Z"/><path class="cls-63" d="M16.67455,418.11024c.0112.269.02583.54.04881.80918a28.2081,28.2081,0,0,1-5.75844-1.23451c-.01164-.28259-.01987-.56323-.02253-.84506A27.396,27.396,0,0,0,16.67455,418.11024Z"/><path class="cls-63" d="M17.21367,422.90632c.04523.26434.09389.53068.15089.7952a25.80071,25.80071,0,0,1-5.55116,1.00155c-.05357-.26252-.105-.52826-.15581-.79139A24.432,24.432,0,0,0,17.21367,422.90632Z"/><path class="cls-63" d="M18.6835,428.00172q-2.52534,1.18253-5.05134,2.36245c-.11348-.244-.2214-.48924-.32784-.74027q2.53273-1.18825,5.06953-2.3719C18.46915,427.50545,18.5728,427.75709,18.6835,428.00172Z"/><path class="cls-63" d="M21.6925,432.01115a27.05392,27.05392,0,0,1-3.97625,3.867c-.22082-.16861-.42837-.34281-.63424-.53384l-.00064-.0026a26.17556,26.17556,0,0,0,3.96214-3.853A4.775,4.775,0,0,0,21.6925,432.01115Z"/><path class="cls-63" d="M28.03443,430.75815q.69412,2.89652,1.391,5.79247c-.25749.14373-.51821.27445-.78152.39478q-.67142-2.76988-1.33107-5.53959A7.46331,7.46331,0,0,0,28.03443,430.75815Z"/><path class="cls-63" d="M35.05575,429.914c-.11037.28719-.22759.57041-.35724.85085a19.95837,19.95837,0,0,0-4.56674-3.95309c.0742-.27934.13875-.5621.195-.843A20.84239,20.84239,0,0,1,35.05575,429.914Z"/><path class="cls-63" d="M36.42238,422.45241c-.01384.27445-.03046.5495-.05328.82319a29.01866,29.01866,0,0,0-5.63345-1.25076q.01853-.403.0287-.8041A29.9743,29.9743,0,0,1,36.42238,422.45241Z"/><path class="cls-63" d="M36.52771,414.8951c.0035.27341.00634.54421.00706.81823a35.49583,35.49583,0,0,0-5.71048-.77062c-.00343-.23779-.00409-.47618-.00752-.714-.00155-.02982-.00033-.06025-.00189-.0901A35.61318,35.61318,0,0,1,36.52771,414.8951Z"/><path class="cls-63" d="M36.33117,407.68032c.01165.28261.02395.56785.03625.853a11.60929,11.60929,0,0,0-5.71475-.41054c-.01055-.2664-.02453-.5348-.04065-.8A12.54762,12.54762,0,0,1,36.33117,407.68032Z"/><path class="cls-63" d="M35.98839,402.0821c.02149.275.043.55.061.823a36.39407,36.39407,0,0,0-5.73318-.54359c-.01677-.26779-.03567-.53241-.058-.799A37.15683,37.15683,0,0,1,35.98839,402.0821Z"/><path class="cls-32" d="M126.73582,385.38285c.05079.26313.0988.52687.14681.79061a46.50441,46.50441,0,0,1,.65248,5.912c.01463.271.023.54061.02869.81082a43.332,43.332,0,0,1-.10017,4.54847l.00065.00261c-.01791.26984-.04268.53573-.06958.80482a41.89537,41.89537,0,0,1-.942,5.809c-.06093.27372-.12809.546-.19866.81639a41.37389,41.37389,0,0,1-1.30778,4.19693q-.67423,1.81633-1.51,3.56094c-.11516.24436-.23374.48677-.35788.73037a44.09007,44.09007,0,0,1-3.60161,5.96244c-.16186.22167-.32586.44652-.49051.66876a45.567,45.567,0,0,1-5.0499,5.70439c-.203.19771-.40731.39017-.61783.58127a46.70987,46.70987,0,0,1-5.90327,4.63148c-.09749.06781-.19564.133-.29656.19884-.14646.09494-.29294.18983-.44006.28214a43.65016,43.65016,0,0,1-8.91,4.30923c-.26633.09636-.53677.188-.80784.27715a46.68308,46.68308,0,0,1-8.19313,1.92155c-.28272.04229-.56674.07938-.8514.11387a46.10867,46.10867,0,0,1-6.87517.33536c-.28946-.00837-.57891-.01671-.8703-.03285-.98163-.04424-1.96269-.12155-2.93695-.23047a44.70223,44.70223,0,0,1-5.675-1.0169l-.00278.00061c-.27393-.06384-.54915-.13283-.82352-.21025a43.02773,43.02773,0,0,1-7.08429-2.54468c-.27425-.12406-.54424-.25456-.81486-.38761a39.46112,39.46112,0,0,1-6.1846-3.74933q-.33956-.251-.67272-.51171a34.96355,34.96355,0,0,1-5.09416-4.84737c-.17851-.21068-.35766-.424-.53124-.63846-.08947-.11213-.17831-.2217-.26779-.33385a36.93885,36.93885,0,0,1-3.4606-5.23551c-.137-.24438-.26637-.49317-.3957-.742A36.09067,36.09067,0,0,1,43.79,411.89556c-.07777-.26549-.15619-.53358-.23119-.79971a33.54493,33.54493,0,0,1-1.08225-5.74172c-.02854-.268-.05151-.53716-.06827-.805a31.42862,31.42862,0,0,1,.08841-5.80989c.02691-.26906.05938-.53933.1002-.81142.047-.38859.10582-.777.17361-1.16463a2.857,2.857,0,0,1,2.97291-2.56028c1.409.05278,2.98441,1.35251,2.73763,2.77707-.10189.59242-.18513,1.18907-.24827,1.784-.03311.2677-.05788.53355-.07922.80141a29.71987,29.71987,0,0,0,.01682,5.06591q.0367.39507.08173.78829a29.77335,29.77335,0,0,0,1.06187,5.1293c.07861.25709.16065.51617.24483.772a29.86062,29.86062,0,0,0,2.18213,5.01178c.12953.23779.26462.47437.40249.71031a29.90414,29.90414,0,0,0,3.153,4.41136c.18063.20745.36.40975.54552.6134.2216.24246.44533.4817.6774.71912a31.2822,31.2822,0,0,0,3.71577,3.25525c.22294.16538.44525.32818.66969.48775a33.01371,33.01371,0,0,0,5.8215,3.27992c.26118.11865.5232.22894.78736.336a35.37677,35.37677,0,0,0,4.81479,1.59058c.27309.07222.54766.13863.82436.20181a39.44353,39.44353,0,0,0,7.28649.9763c.288.01415.5802.02188.86836.025a41.28927,41.28927,0,0,0,5.96646-.31045c.28188-.03388.5659-.07094.84861-.11326a41.41347,41.41347,0,0,0,7.39317-1.77775c.27042-.09173.53742-.18541.80656-.28233A38.5002,38.5002,0,0,0,103.969,426.679c.23757-.15308.47234-.30561.70518-.46589.65555-.44144,1.29973-.905,1.92351-1.39163a40.41241,40.41241,0,0,0,3.16441-2.73353c.19661-.18807.39257-.37874.58445-.574a38.82419,38.82419,0,0,0,3.898-4.53541c.16465-.22222.32309-.44583.48087-.67209a38.71671,38.71671,0,0,0,3.09687-5.23306c.12136-.243.23651-.48741.351-.73437a39.25048,39.25048,0,0,0,2.37508-6.57859c.06845-.26711.13688-.53426.2019-.80338a39.4372,39.4372,0,0,0,.89377-5.23649c.02968-.2697.0538-.53818.0745-.80864a38.45109,38.45109,0,0,0,.12955-3.93522c-.00286-.27082-.00914-.54363-.01821-.81584-.0508-1.32415-.16393-2.65127-.34577-3.97169q-.05763-.44388-.132-.88428c-.02471-.1701-.05286-.34217-.0838-.51371.0595-1.05754.07959-2.356.076-3.72614-.001-.3343-.00338-.67377-.0085-1.01264-.01252-1.33525-.04671-2.69871-.08518-3.93786-.01126-.30463-.02059-.60145-.0301-.88727-.048-1.32481-.09828-2.44624-.1289-3.147a2.6905,2.6905,0,0,1,2.61965,1.37153c.12966.309.25654.61869.38127.93152.10152.25487.203.50972.29964.76837q.53435,1.40546.98572,2.84274c.08074.25388.15593.509.23111.764Q126.28463,383.05038,126.73582,385.38285Z"/><path class="cls-63" d="M48.23274,398.76406c-.03311.2677-.05788.53355-.07922.80141a23.77416,23.77416,0,0,1-5.65686-.82618c.02691-.26906.05938-.53933.1002-.81142A22.62012,22.62012,0,0,0,48.23274,398.76406Z"/><path class="cls-63" d="M48.17034,404.63138q.0367.39507.08173.78829a48.27135,48.27135,0,0,1-5.77555-.06554c-.02854-.268-.05151-.53716-.06827-.805A48.05347,48.05347,0,0,0,48.17034,404.63138Z"/><path class="cls-63" d="M49.55877,411.321a33.89382,33.89382,0,0,1-5.76881.57455c-.07777-.26549-.15619-.53358-.23119-.79971a32.91872,32.91872,0,0,0,5.75517-.54688C49.39255,410.80606,49.47459,411.06514,49.55877,411.321Z"/><path class="cls-63" d="M52.14339,417.0431a35.852,35.852,0,0,1-5.521,1.57079c-.137-.24438-.26637-.49317-.3957-.742a35.366,35.366,0,0,0,5.5142-1.53913C51.87043,416.57058,52.00552,416.80716,52.14339,417.0431Z"/><path class="cls-63" d="M55.84187,422.06786a37.44655,37.44655,0,0,1-4.95984,2.75385c-.17851-.21068-.35766-.424-.53124-.63846a36.37475,36.37475,0,0,0,4.94556-2.72879C55.477,421.66191,55.65633,421.86421,55.84187,422.06786Z"/><path class="cls-63" d="M60.90473,426.53a41.50515,41.50515,0,0,1-4.25582,3.65081q-.33956-.251-.67272-.51171a40.59519,40.59519,0,0,0,4.25885-3.62685C60.458,426.20761,60.68029,426.37041,60.90473,426.53Z"/><path class="cls-63" d="M67.51359,430.14588a20.891,20.891,0,0,1-3.86522,4.17185c-.27425-.12406-.54424-.25456-.81486-.38761a20.063,20.063,0,0,0,3.89272-4.12022C66.98741,429.92855,67.24943,430.03884,67.51359,430.14588Z"/><path class="cls-63" d="M73.15274,431.93827a24.41913,24.41913,0,0,1-1.59378,5.13378l-.00278.00061c-.27393-.06384-.54915-.13283-.82352-.21025a23.24785,23.24785,0,0,0,1.59572-5.12595C72.60147,431.80868,72.876,431.87509,73.15274,431.93827Z"/><path class="cls-63" d="M81.30759,432.93959a17.43716,17.43716,0,0,1-.2664,5.41268c-.28946-.00837-.57891-.01671-.8703-.03285a16.722,16.722,0,0,0,.26834-5.40485C80.7272,432.92872,81.01943,432.93645,81.30759,432.93959Z"/><path class="cls-63" d="M88.12266,432.51588a40.694,40.694,0,0,1,.6451,5.38716c-.28272.04229-.56674.07938-.8514.11387a40.22717,40.22717,0,0,0-.64231-5.38777C87.55593,432.59526,87.84,432.5582,88.12266,432.51588Z"/><path class="cls-63" d="M97.76873,435.70434c-.26633.09636-.53677.188-.80784.27715q-.72286-2.623-1.44506-5.24336c.27042-.09173.53742-.18541.80656-.28233Q97.04524,433.07879,97.76873,435.70434Z"/><path class="cls-63" d="M107.41532,430.91413c-.09749.06781-.19564.133-.29656.19884-.14646.09494-.29294.18983-.44006.28214A13.99652,13.99652,0,0,0,103.969,426.679c.23757-.15308.47234-.30561.70518-.46589A14.8221,14.8221,0,0,1,107.41532,430.91413Z"/><path class="cls-63" d="M113.93642,425.70138c-.203.19771-.40731.39017-.61783.58127a21.3071,21.3071,0,0,0-3.55652-4.19471c.19661-.18807.39257-.37874.58445-.574A22.30925,22.30925,0,0,1,113.93642,425.70138Z"/><path class="cls-63" d="M119.47683,419.32823c-.16186.22167-.32586.44652-.49051.66876a22.38186,22.38186,0,0,0-4.74185-3.01846c.16465-.22222.32309-.44583.48087-.67209A23.3985,23.3985,0,0,1,119.47683,419.32823Z"/><path class="cls-63" d="M123.43632,412.63542c-.11516.24436-.23374.48677-.35788.73037a18.1317,18.1317,0,0,0-5.25623-2.29241c.12136-.243.23651-.48741.351-.73437A18.96173,18.96173,0,0,1,123.43632,412.63542Z"/><path class="cls-63" d="M126.45274,404.06116c-.06093.27372-.12809.546-.19866.81639a10.16472,10.16472,0,0,0-5.70577-1.11713c.06845-.26711.13688-.53426.2019-.80338A11.10947,11.10947,0,0,1,126.45274,404.06116Z"/><path class="cls-63" d="M127.46363,397.4447l.00065.00261c-.01791.26984-.04268.53573-.06958.80482a17.47585,17.47585,0,0,0-5.75072-.53158c.02968-.2697.0538-.53818.0745-.80864A18.40514,18.40514,0,0,1,127.46363,397.4447Z"/><path class="cls-63" d="M127.53511,392.08541c.01463.271.023.54061.02869.81082a13.70736,13.70736,0,0,0-5.71577.08046c-.00286-.27082-.00914-.54363-.01821-.81584A14.62831,14.62831,0,0,1,127.53511,392.08541Z"/><path class="cls-63" d="M126.73582,385.38285c.05079.26313.0988.52687.14681.79061a13.43527,13.43527,0,0,0-5.39858,2.0157q-.05763-.44388-.132-.88428A14.35636,14.35636,0,0,1,126.73582,385.38285Z"/><path class="cls-63" d="M125.609,380.75848a15.80334,15.80334,0,0,0-4.26471,2.30655c-.001-.3343-.00338-.67377-.0085-1.01264a16.55884,16.55884,0,0,1,4.0421-2.058C125.45858,380.24831,125.53377,380.50339,125.609,380.75848Z"/><path class="cls-63" d="M124.39212,377.15169a9.95063,9.95063,0,0,0-3.14156.96284c-.01126-.30463-.02059-.60145-.0301-.88727a10.7144,10.7144,0,0,1,2.872-.84394C124.194,376.63819,124.29552,376.893,124.39212,377.15169Z"/><path class="cls-41" d="M135.63917,262.78016a18.99564,18.99564,0,0,0-5.98395,3.75949c-.52544.48938-1.13894,1.05586-1.79428.97906a1.81321,1.81321,0,0,1-.98266-.592q-.97083-.9228-1.945-1.83254c-3.6389-3.40737-7.29957-6.705-10.942-10.09219q-1.4653-1.36105-2.927-2.74942,8.75586-5.85869,17.5198-11.71368c.4175-.28.83914-.56186,1.2608-.84366.646-.4331,1.29043-.86329,1.93638-1.2964.96595-.64374,2.163-1.32018,3.09615-.84737a3.74034,3.74034,0,0,1,3.55711.78831,4.499,4.499,0,0,1,2.8457-1.78056,3.35131,3.35131,0,0,1,2.82029,1.06614,8.73841,8.73841,0,0,1,3.14137-1.189,2.17573,2.17573,0,0,1,2.34968,1.48554,3.95658,3.95658,0,0,1-.6646,2.5855,38.61209,38.61209,0,0,1-2.84263,4.44468c-.29972.41459-.6088.82148-.92479,1.229-1.263,1.64122-2.61348,3.22612-3.95532,4.80034q-2.39409,2.807-4.784,5.61235"/><path class="cls-53" d="M124.93332,265.09421c-3.6389-3.40737-7.29957-6.705-10.942-10.09219q1.2263-1.323,2.50028-2.59631,2.63363-2.632,5.451-5.04995a3.82328,3.82328,0,0,1,1.60522-.9642,2.90544,2.90544,0,0,1,1.67457.29816,28.60649,28.60649,0,0,1,8.07853,5.00763,2.48044,2.48044,0,0,1,1.07107,1.82286,3.226,3.226,0,0,1-.54675,1.47724A34.96752,34.96752,0,0,1,124.93332,265.09421Z"/><path class="cls-53" d="M128.5841,240.53892c.4175-.28.83914-.56186,1.2608-.84366a4.99235,4.99235,0,0,1,1.77868.81691,4.00534,4.00534,0,0,1,4.52711.84371,3.70031,3.70031,0,0,1,2.58586-.39476,3.22631,3.22631,0,0,1,2.02243,1.47258,4.98068,4.98068,0,0,1,3.96246.84985,4.70142,4.70142,0,0,1,1.36291,1.66857c-.29972.41459-.6088.82148-.92479,1.229a4.61918,4.61918,0,0,0-5.11161-2.761,2.9812,2.9812,0,0,0-1.97994-1.04217,10.36412,10.36412,0,0,0-2.42991.03657,4.58959,4.58959,0,0,0-4.90475-.987A4.30289,4.30289,0,0,0,128.5841,240.53892Z"/><path class="cls-42" d="M144.16265,221.11966a40.20148,40.20148,0,0,1,1.33295,17.13262,42.25,42.25,0,0,1-13.44066,25.24812,45.33061,45.33061,0,0,1-7.91667,5.82551,47.37992,47.37992,0,0,1-9.49721,4.20075c-.80461.25483-1.62362.49125-2.45154.70781-24.51574,6.41272-49.94815-6.97006-56.80669-29.89221s7.45387-46.704,31.96961-53.11666a49.05234,49.05234,0,0,1,16.54558-1.43008,48.187,48.187,0,0,1,5.37518.757q1.65411.32436,3.27421.763a48.42854,48.42854,0,0,1,6.54747,2.28607C130.92529,198.71524,140.376,208.464,144.16265,221.11966Z"/><path class="cls-54" d="M144.16265,221.11966a40.20148,40.20148,0,0,1,1.33295,17.13262,42.25,42.25,0,0,1-13.44066,25.24812,45.33061,45.33061,0,0,1-7.91667,5.82551c-20.34926,1.90092-39.82775-10.06932-45.52665-29.11582-6.383-21.33279,6.93767-43.46311,29.75631-49.43191.30259-.07915.60315-.155.90527-.2257q1.65411.32436,3.27421.763a48.42854,48.42854,0,0,1,6.54747,2.28607C130.92529,198.71524,140.376,208.464,144.16265,221.11966Z"/><path class="cls-46" d="M144.16265,221.11966a40.20148,40.20148,0,0,1,1.33295,17.13262,42.25,42.25,0,0,1-13.44066,25.24812q-1.19518.39166-2.43393.71707c-20.46142,5.3522-41.68814-5.81966-47.41166-24.94845-5.59887-18.71217,5.71028-38.109,25.35657-43.9551q.65738-.19691,1.32712-.3721a41.09994,41.09994,0,0,1,10.20184-1.34026C130.92529,198.71524,140.376,208.464,144.16265,221.11966Z"/><path class="cls-47" d="M145.4956,238.25228a42.25,42.25,0,0,1-13.44066,25.24812q-1.19518.39166-2.43393.71707c-20.46142,5.3522-41.68814-5.81966-47.41166-24.94845-5.59887-18.71217,5.71028-38.109,25.35657-43.9551a42.71854,42.71854,0,0,0-15.6216,17.92928,37.45911,37.45911,0,0,0-3.37267,13.07252,19.219,19.219,0,0,0,1.74173,10.351,11.02553,11.02553,0,0,0,8.75032,5.961c3.77217.2168,7.71521-2.46457,7.94081-5.99266.2469-3.81374-3.481-7.08416-3.336-10.90173.14038-3.71378,4.31285-6.57995,8.277-6.31631a11.46788,11.46788,0,0,1,9.09107,6.39592c1.70761,3.358,1.94895,7.2076,1.70031,10.91642a28.359,28.359,0,0,0-.11584,6.00622,7.104,7.104,0,0,0,3.02025,5.10825c1.78562,1.11079,4.50193,1.01034,5.81933-.57381,1.04234-1.25431.99072-3.01279.703-4.57917-.2843-1.5645-.75541-3.16888-.37667-4.71825.37945-1.54679,2.00827-2.98224,3.646-2.55376,1.60844.4195,2.22138,2.339,1.89685,3.87138-.32719,1.53312-1.285,2.88178-1.76852,4.37814-.48005,1.49823-.30685,3.40515,1.10927,4.23269a3.61452,3.61452,0,0,0,3.96136-.59806,9.3362,9.3362,0,0,0,2.23985-3.39775Z"/><path class="cls-54" d="M61.29687,232.67129a1.47177,1.47177,0,0,1-1.62381-.62421L43.79748,206.05854a1.28947,1.28947,0,0,1,.53179-1.82162,1.48278,1.48278,0,0,1,1.94827.49725L62.15315,230.7227a1.28947,1.28947,0,0,1-.53181,1.82162A1.4833,1.4833,0,0,1,61.29687,232.67129Z"/><ellipse class="cls-64" cx="66.05796" cy="242.52677" rx="13.4867" ry="14.90133" transform="translate(-99.39466 53.29591) rotate(-25.92831)"/><path class="cls-53" d="M72.59439,240.81626a7.87738,7.87738,0,0,1-3.44758,9.343,6.90392,6.90392,0,0,1-1.52341.59815c-4.07083,1.06483-8.4422-1.66013-9.76651-6.08614-1.32354-4.42343.90094-8.8737,4.97176-9.93853a7.07512,7.07512,0,0,1,1.63423-.22781A8.58461,8.58461,0,0,1,72.59439,240.81626Z"/><path class="cls-41" d="M72.59439,240.81626a7.87738,7.87738,0,0,1-3.44758,9.343,8.588,8.588,0,0,1-8.135-6.31323,7.87858,7.87858,0,0,1,3.4511-9.3411A8.58461,8.58461,0,0,1,72.59439,240.81626Z"/><path class="cls-53" d="M52.4304,271.35079a24.66338,24.66338,0,0,1,6.09374-3.80189,45.97219,45.97219,0,0,1,22.458-4.06463,45.30118,45.30118,0,0,1,21.52125,7.24822c.93674.61765,1.9464,1.46744,1.83587,2.53418-.09743.94051-1.03626,1.59068-1.93552,2.02189-5.39756,2.58836-11.83971,1.70432-17.89689,1.39723a85.57381,85.57381,0,0,0-21.39,1.62264,84.61844,84.61844,0,0,0-10.3305,2.795c-1.043.35473-3.49562,1.8045-4.57481,1.48658-1.28558-.37871-.90615-2.05876-.70327-2.95757A15.8615,15.8615,0,0,1,52.4304,271.35079Z"/><path class="cls-41" d="M189.75341,210.7197a54.27846,54.27846,0,0,1,3.49914-5.88435c.89071-1.29972,1.886-2.58048,3.353-2.908a3.29376,3.29376,0,0,1,3.43812,1.71507,11.43543,11.43543,0,0,0,1.06377,2.01531c.53485.60176,1.22293.6871,1.81973,1.14315a9.618,9.618,0,0,1,1.86432,2.69981c1.10453,1.81537,2.70578,3.14386,3.80875,4.96036a11.59458,11.59458,0,0,1,1.54344,6.856c-.22818,2.623-1.264,4.71934-2.09973,6.87551a24.355,24.355,0,0,1-2.06335,4.171,4.32871,4.32871,0,0,1-2.28324,2.10709,3.05449,3.05449,0,0,1-3.0727-1.282c-.908-1.17223-1.32437-2.95971-2.42157-3.71169a2.61,2.61,0,0,0-1.93749-.2714,2.12631,2.12631,0,0,1-1.94454-.6625c-.911-1.04538-.66038-2.60174-1.1817-3.92726-.66928-1.70181-2.348-2.50909-3.4784-3.90671C186.7259,217.08017,188.56179,213.03924,189.75341,210.7197Z"/><path class="cls-42" d="M173.3369,282.17944a21.9559,21.9559,0,0,0,9.80018-4.56091,38.1225,38.1225,0,0,0,5.5044-5.38929c7.85734-9.24721,12.11-22.10473,14.35458-35.6402q-4.812-3.62031-9.62728-7.24-3.53253-2.66187-7.06464-5.315A77.77875,77.77875,0,0,1,169.274,254.84406a25.28905,25.28905,0,0,1-2.13,2.09545c-1.852,1.58367-3.4564,4.89613-6.2,4.70779"/><g class="cls-65"><path class="cls-66" d="M173.3369,282.17944a21.9559,21.9559,0,0,0,9.80018-4.56091,38.1225,38.1225,0,0,0,5.5044-5.38929c7.85734-9.24721,12.11-22.10473,14.35458-35.6402q-4.812-3.62031-9.62728-7.24c2.11768,3.94648,4.12192,7.00313,4.43358,11.44737.46419,6.54605-2.06525,11.7837-4.87547,16.45453-2.7554,4.58317-5.88454,8.93213-10.22774,11.77236-4.37961,2.86931-9.83192,4.07687-15.70055,4.1155"/></g><path class="cls-54" d="M186.22148,224.042c-.58022-.18765-2.177-1.21479.12873-6.75166.20675-.49643.79993-.62083,1.41832-.2927,3.0584,1.62294,12.10322,6.7222,18.24706,13.31109a1.854,1.854,0,0,1,.55164,1.46653c-.29887,1.83319-1.21211,6.36275-2.79267,5.19027l-17.05725-12.65323A1.77477,1.77477,0,0,0,186.22148,224.042Z"/><g class="cls-67"><g class="cls-68"><path class="cls-69" d="M172.86437,283.03462a22.29171,22.29171,0,0,0,9.87036-4.68805,39.2581,39.2581,0,0,0,5.56518-5.49939c7.95584-9.42566,12.32108-22.48722,14.67614-36.22275q-4.80219-3.63808-9.60769-7.27545c2.09559,3.9865,4.084,7.07174,4.36327,11.57475.41643,6.63256-2.16179,11.9586-5.01754,16.71191-2.80007,4.6641-5.97348,9.09324-10.354,12.001-4.372,2.9074-9.78638,4.1716-15.608,4.27274"/></g></g><path class="cls-54" d="M188.79247,272.05361A136.12826,136.12826,0,0,1,175.9,284.60161a29.13527,29.13527,0,0,1-11.29571-6.17748,26.45373,26.45373,0,0,1-8.35792-14.65512q1.82236-1.03788,3.59772-2.15875a96.37746,96.37746,0,0,0,8.6129-6.12827,23.14481,23.14481,0,0,1,8.981,4.01583A37.48,37.48,0,0,1,188.79247,272.05361Z"/><g class="cls-70"><path class="cls-71" d="M188.79247,272.05361A136.12826,136.12826,0,0,1,175.9,284.60161,156.452,156.452,0,0,1,137.122,308.74492a70.65635,70.65635,0,0,1-8.17941,3.1085,36.16769,36.16769,0,0,1-5.33885,1.18295c-4.72613.65215-9.78.12805-13.82513-2.24678a15.83218,15.83218,0,0,1-5.67646-5.77359A26.86665,26.86665,0,0,0,109.2,307.0961a43.06534,43.06534,0,0,0,19.32738.16464c9.95357-2.118,18.94232-7.1243,27.1259-12.83293a148.20482,148.20482,0,0,0,29.74486-27.45613"/></g><path class="cls-27" d="M448.97094,196.04568s-9.62665-15.34613-13.11075-17.3699-.27063,13.34884-6.68987,7.29186-17.571-20.19439-17.571-20.19439l-9.98906,26.85659S419.636,214.59129,422.32312,215.74s2.36869-2.95032,3.91865-7.07056,9.69871,16.13025,9.69871,16.13025Z"/><path class="cls-32" d="M133.20674,56.4191a5.37873,5.37873,0,0,0,3.12709-1.00745l3.316,3.316a.79333.79333,0,0,0,.56672.23091.8017.8017,0,0,0,.55964-1.35719l-3.295-3.302a5.37634,5.37634,0,1,0-4.27439,2.11973Zm0-1.16131a4.21846,4.21846,0,1,1,4.21843-4.21848A4.24129,4.24129,0,0,1,133.20674,55.25779Z"/><path class="cls-33" d="M153.76758,56.013V47.19458h5.35365v.98924h-4.25359v3.03129h3.90483V52.193h-3.90483V56.013Z"/><path class="cls-33" d="M171.60656,53.48858h-3.50717l-.88657,2.52444h-1.15548l3.25131-8.81844h1.08865l3.25131,8.81844h-1.15548Zm-3.18367-.93465h2.86017l-1.38119-3.93579h-.09779Z"/><path class="cls-33" d="M180.68251,51.60625c0-2.84714,1.558-4.62028,4.0515-4.62028,2.48207,0,4.03357,1.77885,4.03357,4.62028a4.577,4.577,0,0,1-1.56454,3.851l1.11881,1.5515h-1.23452l-.77575-1.05688a4.50694,4.50694,0,0,1-1.57757.26891C182.2226,56.22082,180.68251,54.46641,180.68251,51.60625Zm4.99918,3.46561-1.1677-1.58328h1.24674l.801,1.06421a3.68772,3.68772,0,0,0,1.07562-2.94654c0-2.21154-1.1188-3.605-2.90335-3.605-1.796,0-2.92047,1.3869-2.92047,3.605,0,2.22457,1.118,3.60006,2.927,3.60006A3.22939,3.22939,0,0,0,185.68169,55.07186Z"/></g></g></g></svg>