<svg xmlns="http://www.w3.org/2000/svg" xmlns:xlink="http://www.w3.org/1999/xlink" viewBox="0 0 398.98651 375.66656"><defs><style>.cls-1{mask:url(#mask);filter:url(#luminosity-noclip-6);}.cls-10,.cls-14,.cls-2,.cls-22,.cls-24,.cls-26,.cls-30,.cls-4,.cls-6,.cls-8{mix-blend-mode:multiply;}.cls-2{fill:url(#linear-gradient);}.cls-3{mask:url(#mask-2);filter:url(#luminosity-noclip-7);}.cls-4{fill:url(#linear-gradient-2);}.cls-5{mask:url(#mask-3);filter:url(#luminosity-noclip-8);}.cls-6{fill:url(#linear-gradient-3);}.cls-7{mask:url(#mask-4);filter:url(#luminosity-noclip-9);}.cls-8{fill:url(#linear-gradient-4);}.cls-9{mask:url(#mask-5);filter:url(#luminosity-noclip-10);}.cls-10{fill:url(#linear-gradient-5);}.cls-11{isolation:isolate;}.cls-12{fill:#fac52f;}.cls-13{mask:url(#mask-6);}.cls-14{fill:url(#linear-gradient-6);}.cls-15{fill:#dd641d;}.cls-16{fill:#f49529;}.cls-17{fill:#fddb82;}.cls-18{fill:#010b25;}.cls-19,.cls-31{fill:#fff;}.cls-19{opacity:0.13;}.cls-20{fill:#fad56e;}.cls-21{mask:url(#mask-7);}.cls-22{fill:url(#linear-gradient-7);}.cls-23{mask:url(#mask-8);}.cls-24{fill:url(#linear-gradient-8);}.cls-25{mask:url(#mask-9);}.cls-26{fill:url(#linear-gradient-9);}.cls-27{fill:#3d84f8;}.cls-28{fill:#93cdf7;}.cls-29{mask:url(#mask-10);}.cls-30{fill:url(#linear-gradient-10);}.cls-32{fill:#011224;}.cls-33{fill:#edf1fd;}.cls-34{fill:#b8d2ea;}.cls-35{fill:#cadcf8;}.cls-36{fill:#22c8c1;}.cls-37{fill:#39eceb;}.cls-38{fill:#2ae0d5;}.cls-39{fill:#8284e4;}.cls-40{fill:#fddf85;}.cls-41{fill:#f5fdd3;opacity:0.11;}.cls-42{fill:#78a0da;}.cls-43{fill:#398fdc;}.cls-44{fill:#174fbd;}.cls-45{fill:#052b71;}.cls-46{fill:#a9d0fc;}.cls-47{fill:#21aea9;}.cls-48{fill:#1b9d98;}.cls-49{fill:#4eacf3;}.cls-50{filter:url(#luminosity-noclip-5);}.cls-51{filter:url(#luminosity-noclip-4);}.cls-52{filter:url(#luminosity-noclip-3);}.cls-53{filter:url(#luminosity-noclip-2);}.cls-54{filter:url(#luminosity-noclip);}</style><filter id="luminosity-noclip" x="32.41647" y="-2612.66922" width="23.45965" height="32766" filterUnits="userSpaceOnUse" color-interpolation-filters="sRGB"><feFlood flood-color="#fff" result="bg"/><feBlend in="SourceGraphic" in2="bg"/></filter><mask id="mask" x="32.41647" y="-2612.66922" width="23.45965" height="32766" maskUnits="userSpaceOnUse"><g class="cls-54"/></mask><linearGradient id="linear-gradient" x1="-922.44437" y1="1778.79289" x2="-900.99326" y2="1852.91579" gradientTransform="matrix(-0.55382, -0.83263, -0.83263, 0.55382, 1049.23568, -1614.3837)" gradientUnits="userSpaceOnUse"><stop offset="0"/><stop offset="0.99441" stop-color="#fff"/></linearGradient><filter id="luminosity-noclip-2" x="8.34712" y="-2612.66922" width="36.82574" height="32766" filterUnits="userSpaceOnUse" color-interpolation-filters="sRGB"><feFlood flood-color="#fff" result="bg"/><feBlend in="SourceGraphic" in2="bg"/></filter><mask id="mask-2" x="8.34712" y="-2612.66922" width="36.82574" height="32766" maskUnits="userSpaceOnUse"><g class="cls-53"/></mask><linearGradient id="linear-gradient-2" x1="722.61518" y1="457.94769" x2="734.68379" y2="457.94769" gradientTransform="matrix(0.93944, 0.34272, -0.34272, 0.93944, -499.79196, -374.20966)" xlink:href="#linear-gradient"/><filter id="luminosity-noclip-3" x="80.021" y="-2612.66922" width="12.32423" height="32766" filterUnits="userSpaceOnUse" color-interpolation-filters="sRGB"><feFlood flood-color="#fff" result="bg"/><feBlend in="SourceGraphic" in2="bg"/></filter><mask id="mask-3" x="80.021" y="-2612.66922" width="12.32423" height="32766" maskUnits="userSpaceOnUse"><g class="cls-52"/></mask><linearGradient id="linear-gradient-3" x1="286.85821" y1="381.01947" x2="309.78579" y2="381.01947" gradientTransform="translate(-169.51706 -109.51607) rotate(6.45755)" xlink:href="#linear-gradient"/><filter id="luminosity-noclip-4" x="46.69061" y="-2612.66922" width="53.0589" height="32766" filterUnits="userSpaceOnUse" color-interpolation-filters="sRGB"><feFlood flood-color="#fff" result="bg"/><feBlend in="SourceGraphic" in2="bg"/></filter><mask id="mask-4" x="46.69061" y="-2612.66922" width="53.0589" height="32766" maskUnits="userSpaceOnUse"><g class="cls-51"/></mask><linearGradient id="linear-gradient-4" x1="47.68769" y1="140.63724" x2="-113.72803" y2="112.80696" gradientTransform="matrix(0.99659, -0.08247, 0.08247, 0.99659, 146.83327, 64.04944)" xlink:href="#linear-gradient"/><filter id="luminosity-noclip-5" x="89.9028" y="-2612.66922" width="72.9441" height="32766" filterUnits="userSpaceOnUse" color-interpolation-filters="sRGB"><feFlood flood-color="#fff" result="bg"/><feBlend in="SourceGraphic" in2="bg"/></filter><mask id="mask-5" x="89.9028" y="-2612.66922" width="72.9441" height="32766" maskUnits="userSpaceOnUse"><g class="cls-50"/></mask><linearGradient id="linear-gradient-5" x1="-37.35363" y1="61.19493" x2="-15.90252" y2="135.31783" gradientTransform="matrix(0.99659, -0.08247, 0.08247, 0.99659, 146.83327, 64.04944)" xlink:href="#linear-gradient"/><filter id="luminosity-noclip-6" x="32.41647" y="108.09798" width="23.45965" height="81.15441" filterUnits="userSpaceOnUse" color-interpolation-filters="sRGB"><feFlood flood-color="#fff" result="bg"/><feBlend in="SourceGraphic" in2="bg"/></filter><mask id="mask-6" x="32.41647" y="108.09798" width="23.45965" height="81.15441" maskUnits="userSpaceOnUse"><g class="cls-1"><path class="cls-2" d="M39.40491,108.70727a75.86924,75.86924,0,0,0-6.85026,27.909,87.63125,87.63125,0,0,0,.11592,11.57569,96.5678,96.5678,0,0,0,6.55065,28.23057,42.22409,42.22409,0,0,0,2.28661,4.99365,21.25265,21.25265,0,0,0,1.87837,2.84966,12.73436,12.73436,0,0,0,7.28592,4.80723,10.23658,10.23658,0,0,0,5.204-.37592,16.11484,16.11484,0,0,1-3.25743-1.16635,25.09393,25.09393,0,0,1-8.82818-8.16212c-3.54187-5.27042-5.32944-11.52846-6.43207-17.78332a94.95967,94.95967,0,0,1,1.36595-39.29817c.8279-3.32677,1.88252-6.69766,4.01214-9.38591a11.209,11.209,0,0,1,5.28246-3.74192A11.76818,11.76818,0,0,0,39.40491,108.70727Z"/></g></mask><linearGradient id="linear-gradient-6" x1="-922.44437" y1="1778.79289" x2="-900.99326" y2="1852.91579" gradientTransform="matrix(-0.55382, -0.83263, -0.83263, 0.55382, 1049.23568, -1614.3837)" gradientUnits="userSpaceOnUse"><stop offset="0" stop-color="#fff"/><stop offset="0.99441" stop-color="#f2b52a"/></linearGradient><filter id="luminosity-noclip-7" x="8.34712" y="245.13355" width="36.82574" height="120.43238" filterUnits="userSpaceOnUse" color-interpolation-filters="sRGB"><feFlood flood-color="#fff" result="bg"/><feBlend in="SourceGraphic" in2="bg"/></filter><mask id="mask-7" x="8.34712" y="245.13355" width="36.82574" height="120.43238" maskUnits="userSpaceOnUse"><g class="cls-3"><path class="cls-4" d="M10.02623,365.56593l-1.67911-.61256a355.56931,355.56931,0,0,0,35.1147-119.81982c.56533.244,1.1372.47539,1.71105.69608A357.39515,357.39515,0,0,1,10.02623,365.56593Z"/></g></mask><linearGradient id="linear-gradient-7" x1="722.61518" y1="457.94769" x2="734.68379" y2="457.94769" gradientTransform="matrix(0.93944, 0.34272, -0.34272, 0.93944, -499.79196, -374.20966)" xlink:href="#linear-gradient-6"/><filter id="luminosity-noclip-8" x="80.021" y="236.23379" width="12.32423" height="132.91877" filterUnits="userSpaceOnUse" color-interpolation-filters="sRGB"><feFlood flood-color="#fff" result="bg"/><feBlend in="SourceGraphic" in2="bg"/></filter><mask id="mask-8" x="80.021" y="236.23379" width="12.32423" height="132.91877" maskUnits="userSpaceOnUse"><g class="cls-5"><path class="cls-6" d="M87.28426,369.15256l-1.79367-.203A296.68956,296.68956,0,0,0,80.021,236.393c.60027-.04292,1.20134-.09289,1.80068-.15916a294.32562,294.32562,0,0,1,10.51885,76.635A295.873,295.873,0,0,1,87.28426,369.15256Z"/></g></mask><linearGradient id="linear-gradient-8" x1="286.85821" y1="381.01947" x2="309.78579" y2="381.01947" gradientTransform="translate(-169.51706 -109.51607) rotate(6.45755)" xlink:href="#linear-gradient-6"/><filter id="luminosity-noclip-9" x="46.69061" y="152.70359" width="53.0589" height="74.20356" filterUnits="userSpaceOnUse" color-interpolation-filters="sRGB"><feFlood flood-color="#fff" result="bg"/><feBlend in="SourceGraphic" in2="bg"/></filter><mask id="mask-9" x="46.69061" y="152.70359" width="53.0589" height="74.20356" maskUnits="userSpaceOnUse"><g class="cls-7"><path class="cls-8" d="M99.74951,192.95835c-3.93152,13.28605-4.96249,20.79836-6.37192,33.9488a24.37242,24.37242,0,0,0-5.67951-5.10115,31.74727,31.74727,0,0,0-12.26422-4.5527,39.27757,39.27757,0,0,0-13.21491.1166c-4.20167.75771-8.58959,1.59151-12.77964,2.40351a2.76211,2.76211,0,0,1-1.86406-.07749c-.555-.30884-1.22918-1.066-.68189-1.3894q4.12449-13.36709,8.2472-26.734c2.206-7.14425,4.43084-14.34,7.94773-20.93844,3.517-6.59668,8.45109-12.63674,14.97725-16.28415a22.95738,22.95738,0,0,1,3.60757-1.64631,35.822,35.822,0,0,1,9.91428,3.75238,29.49122,29.49122,0,0,0-14.51745,13.39546c-1.58819,3.06229-2.5573,6.69019-3.73291,9.93406A43.38161,43.38161,0,0,1,99.74951,192.95835Z"/></g></mask><linearGradient id="linear-gradient-9" x1="47.68769" y1="140.63724" x2="-113.72803" y2="112.80696" gradientTransform="matrix(0.99659, -0.08247, 0.08247, 0.99659, 146.83327, 64.04944)" xlink:href="#linear-gradient-6"/><filter id="luminosity-noclip-10" x="89.9028" y="134.02504" width="72.9441" height="50.24407" filterUnits="userSpaceOnUse" color-interpolation-filters="sRGB"><feFlood flood-color="#fff" result="bg"/><feBlend in="SourceGraphic" in2="bg"/></filter><mask id="mask-10" x="89.9028" y="134.02504" width="72.9441" height="50.24407" maskUnits="userSpaceOnUse"><g class="cls-9"><path class="cls-10" d="M162.8469,140.499a75.86935,75.86935,0,0,1-17.63281,22.69189,87.63169,87.63169,0,0,1-9.14873,7.093,96.56747,96.56747,0,0,1-26.20163,12.38348,42.22385,42.22385,0,0,1-5.33472,1.3061,21.25374,21.25374,0,0,1-3.40021.29563,12.73446,12.73446,0,0,1-8.29114-2.72967,10.23677,10.23677,0,0,1-2.93486-4.31389,16.11493,16.11493,0,0,0,2.93615,1.83039,25.094,25.094,0,0,0,11.87892,1.85694c6.33076-.49357,12.34721-2.97566,17.9361-5.99285a94.96005,94.96005,0,0,0,29.96693-25.45967c2.0948-2.71379,4.0835-5.63273,4.86976-8.971a11.20892,11.20892,0,0,0-.34418-6.46435A11.76813,11.76813,0,0,1,162.8469,140.499Z"/></g></mask><linearGradient id="linear-gradient-10" x1="-37.35363" y1="61.19493" x2="-15.90252" y2="135.31783" gradientTransform="matrix(0.99659, -0.08247, 0.08247, 0.99659, 146.83327, 64.04944)" xlink:href="#linear-gradient-6"/></defs><title>guide-4</title><g class="cls-11"><g id="Layer_2" data-name="Layer 2"><g id="Layer_1-2" data-name="Layer 1"><path class="cls-12" d="M39.40491,108.70727a75.86924,75.86924,0,0,0-6.85026,27.909,87.63125,87.63125,0,0,0,.11592,11.57569,96.5678,96.5678,0,0,0,6.55065,28.23057,42.22409,42.22409,0,0,0,2.28661,4.99365,21.25265,21.25265,0,0,0,1.87837,2.84966,12.73436,12.73436,0,0,0,7.28592,4.80723,10.23658,10.23658,0,0,0,5.204-.37592,13.092,13.092,0,0,0,6.23972-4.50667c2.63407-3.489,3.3193-8.43858,3.253-12.81145q-.61874-.6415-1.21577-1.30171a57.82044,57.82044,0,0,1-13.08025-23.59508q-.352-1.27983-.64479-2.57983a60.17515,60.17515,0,0,1-1.10567-6.64119,58.63334,58.63334,0,0,1,2.603-24.95586,9.87078,9.87078,0,0,0-3.9063-3.146A11.76818,11.76818,0,0,0,39.40491,108.70727Z"/><g class="cls-13"><path class="cls-14" d="M39.40491,108.70727a75.86924,75.86924,0,0,0-6.85026,27.909,87.63125,87.63125,0,0,0,.11592,11.57569,96.5678,96.5678,0,0,0,6.55065,28.23057,42.22409,42.22409,0,0,0,2.28661,4.99365,21.25265,21.25265,0,0,0,1.87837,2.84966,12.73436,12.73436,0,0,0,7.28592,4.80723,10.23658,10.23658,0,0,0,5.204-.37592,16.11484,16.11484,0,0,1-3.25743-1.16635,25.09393,25.09393,0,0,1-8.82818-8.16212c-3.54187-5.27042-5.32944-11.52846-6.43207-17.78332a94.95967,94.95967,0,0,1,1.36595-39.29817c.8279-3.32677,1.88252-6.69766,4.01214-9.38591a11.209,11.209,0,0,1,5.28246-3.74192A11.76818,11.76818,0,0,0,39.40491,108.70727Z"/></g><path class="cls-15" d="M29.006,96.04367a1.8806,1.8806,0,0,0-.2037,1.40482,10.63752,10.63752,0,0,0,.42985,1.82878,13.76131,13.76131,0,0,0,.64739,1.612,43.81979,43.81979,0,0,0,3.45833,5.54109c1.89274,2.80706,3.63579,6.077,3.07636,9.41775.04993-.29282.65634-.60139,1.40734-.87682a27.5701,27.5701,0,0,1,2.971-.83862,16.21826,16.21826,0,0,1,4.8383-.35995c.47524.03652.95008.09445,1.4203.17278.32938.05551.65835.12034.98316.19629.54855.1276,1.39247.58991,1.953.40592,1.26437-.41328,2.267-3.01625,2.68775-4.13564a15.03472,15.03472,0,0,0,.91487-5.9293,19.04533,19.04533,0,0,0-.89158-4.8917c-.23109-.73423-.50236-1.45767-.80567-2.16855a28.77431,28.77431,0,0,0-1.73228-3.39892,3.64841,3.64841,0,0,0-.86868-1.09381,1.33015,1.33015,0,0,0-1.31918-.22578,1.345,1.345,0,0,0-.69572,1.20484,3.93439,3.93439,0,0,0,.31507,1.42362q.48571,1.3668.97118,2.731.29833.84456.59876,1.68356c.30008.84839.60106,1.69268.90231,2.53961a2.15542,2.15542,0,0,1,.1306,1.63831.81523.81523,0,0,1-.776.49912c-.40129-.02948-.588-.37-.74281-.68446a33.99759,33.99759,0,0,1-3.11272-10.09736q-.11688-.80919-.19425-1.62247c-.0475-.50261-.08357-1.01042-.10881-1.51667a3.60987,3.60987,0,0,0-.52481-2.11872,1.32069,1.32069,0,0,0-.86005-.52859c-.77674-.10557-1.27031.56308-1.55063,1.2072a7.96986,7.96986,0,0,0-.61424,2.80558,16.90375,16.90375,0,0,0,.035,2.03171c.0913,1.30669.26726,2.634.29384,3.946a.37.37,0,0,1-.72785.09855,17.66151,17.66151,0,0,1-.58685-5.41444q.02728-.57224.09054-1.14415a17.25032,17.25032,0,0,1,.44708-2.42215,2.90868,2.90868,0,0,0,.13686-1.56314,1.01281,1.01281,0,0,0-.55977-.66593c-.7259-.29856-1.379.477-1.701,1.16936a14.36979,14.36979,0,0,0-1.02612,3.15411q-.13134.62888-.21918,1.26658a42.27886,42.27886,0,0,0-.19583,6.96652,1.75075,1.75075,0,0,1-1.204-1.23392,5.18375,5.18375,0,0,1-.129-1.79167c.03855-.88442.07977-1.7691.11834-2.65351l.06349-1.36916q.06284-1.39506.12449-2.78866A.85107.85107,0,0,0,35.204,88.831a6.52046,6.52046,0,0,0-1.53593,2.8454,8.91236,8.91236,0,0,0-.23148,1.30247,11.996,11.996,0,0,0-.05637,1.4257,21.40859,21.40859,0,0,0,.20212,2.41421c.12842.9672.29113,1.9309.40636,2.89944a.56814.56814,0,0,1-1.04334.37332l-.85481-1.34832-.81322-1.28063-.62606-.98812c-.25905-.409-.59641-.86732-1.12752-.77292A.8297.8297,0,0,0,29.006,96.04367Z"/><path class="cls-16" d="M48.56317,98.06345q.29833.84456.59876,1.68356a6.56951,6.56951,0,0,1,.94508-.27933,5.29986,5.29986,0,0,1,2.59144.12338c-.23109-.73423-.50236-1.45767-.80567-2.16855a8.00718,8.00718,0,0,0-2.57367.3357A3.84031,3.84031,0,0,0,48.56317,98.06345Z"/><path class="cls-16" d="M41.71048,91.86856a16.90375,16.90375,0,0,0,.035,2.03171,5.62942,5.62942,0,0,1,3.81775-.258q-.11688-.80919-.19425-1.62247a8.1678,8.1678,0,0,0-2.77375-.3298A2.55043,2.55043,0,0,0,41.71048,91.86856Z"/><path class="cls-16" d="M38.11225,91.05845q-.13134.62888-.21918,1.26658a3.81356,3.81356,0,0,1,2.83159.20532q.02728-.57224.09054-1.14415a3.23132,3.23132,0,0,0-2.70295-.32775Z"/><path class="cls-16" d="M33.43657,92.97888a11.996,11.996,0,0,0-.05637,1.4257,4.3037,4.3037,0,0,1,2.06533-.851,10.31579,10.31579,0,0,1,1.037.05889l.06349-1.36916a1.67492,1.67492,0,0,0-1.13219-.1557,4.7292,4.7292,0,0,0-1.22332.47569A7.32161,7.32161,0,0,0,33.43657,92.97888Z"/><path class="cls-16" d="M29.27921,99.2165c-.01657.02035-.03195.03924-.04706.06077a13.76131,13.76131,0,0,0,.64739,1.612c.34356-.44282.82587-.98773.90174-1.06611.37-.38024.94092-.68385,1.30925-1.07992l-.81322-1.28063a4.1022,4.1022,0,0,0-.71743.42117A7.3916,7.3916,0,0,0,29.27921,99.2165Z"/><path class="cls-16" d="M36.38006,105.62308a5.95135,5.95135,0,0,0,.11023,2.96042q.66286,3.19284,1.33128,6.38778a27.5701,27.5701,0,0,1,2.971-.83862,16.21826,16.21826,0,0,1,4.8383-.35995c.47524.03652.95008.09445,1.4203.17278-.03139-.05938-.05963-.11378-.08347-.1646a26.97486,26.97486,0,0,1-1.90889-5.78512,26.57816,26.57816,0,0,1-.47619-3.35983,2.74047,2.74047,0,0,0-.56147-1.80061,2.62641,2.62641,0,0,0-2.29783-.33864,11.85685,11.85685,0,0,0-3.15182.82917A3.99721,3.99721,0,0,0,36.38006,105.62308Z"/><path class="cls-12" d="M108.55834,116.11086A28.64653,28.64653,0,0,1,92.14286,151.936q-.73561.29528-1.49673.5542a28.67317,28.67317,0,1,1-8.24455-55.8079,28.14905,28.14905,0,0,1,3.36632.31865q1.03928.15879,2.0616.39466a28.71168,28.71168,0,0,1,20.72884,18.71529Z"/><path class="cls-17" d="M108.55834,116.11086A28.69056,28.69056,0,0,1,97.88772,148.82,26.68688,26.68688,0,0,1,85.2139,97.18186c.185-.06294.36894-.12363.554-.18095q1.03928.15879,2.0616.39466a28.71168,28.71168,0,0,1,20.72884,18.71529Z"/><path class="cls-18" d="M108.55834,116.11086a28.64763,28.64763,0,0,1-5.967,28.568q-.728.30114-1.48546.55975A23.92914,23.92914,0,0,1,84.882,100.2224q.40108-.15333.81065-.29266A24.00446,24.00446,0,0,1,91.98,98.68983,28.61139,28.61139,0,0,1,108.55834,116.11086Z"/><path class="cls-19" d="M110.01414,127.44623a28.757,28.757,0,0,1-7.4228,17.23265q-.728.30114-1.48546.55975A23.92914,23.92914,0,0,1,84.882,100.2224,27.94539,27.94539,0,0,0,75.83635,112.668a26.31672,26.31672,0,0,0-1.61569,8.79953,13.57312,13.57312,0,0,0,1.46115,6.81637,6.87517,6.87517,0,0,0,5.65338,3.66c2.35087.01475,4.70167-1.90157,4.71249-4.253.01358-2.54189-2.4217-4.58666-2.4716-7.1276-.04891-2.47184,2.43761-4.51879,4.90943-4.47949a7.17033,7.17033,0,0,1,5.881,3.93723,14.73705,14.73705,0,0,1,1.45616,7.19341,20.16963,20.16963,0,0,0,.14817,3.99384,4.79479,4.79479,0,0,0,2.06312,3.28987,2.77448,2.77448,0,0,0,3.59341-.58058,3.87889,3.87889,0,0,0,.26881-3.066,8.12126,8.12126,0,0,1-.40687-3.12139c.179-1.04051,1.13806-2.04988,2.171-1.82137a2.16866,2.16866,0,0,1,1.32,2.50672c-.147,1.02965-.69251,1.95838-.938,2.969a2.47024,2.47024,0,0,0,.8441,2.77373,2.13618,2.13618,0,0,0,2.43853-.533,6.26277,6.26277,0,0,0,1.26666-2.33385Z"/><path class="cls-17" d="M57.51294,126.624a.8886.8886,0,0,1-1.03144-.359L45.66857,109.54509a.88831.88831,0,1,1,1.49185-.96476l10.813,16.71994a.889.889,0,0,1-.46043,1.32377Z"/><ellipse class="cls-20" cx="60.8313" cy="133.0078" rx="8.45728" ry="9.83437" transform="translate(-39.59497 26.67772) rotate(-18.78734)"/><path class="cls-16" d="M64.82845,131.64754a5.412,5.412,0,0,1-1.79891,6.32458,4.13378,4.13378,0,0,1-.92429.44954c-2.4894.84685-5.30437-.81352-6.28912-3.7083-.98418-2.89309.23436-5.92559,2.72377-6.77244a4.134,4.134,0,0,1,1.00668-.20733A5.41128,5.41128,0,0,1,64.82845,131.64754Z"/><path class="cls-15" d="M64.82845,131.64754a5.412,5.412,0,0,1-1.79891,6.32458,5.77811,5.77811,0,0,1-3.483-10.23853A5.41128,5.41128,0,0,1,64.82845,131.64754Z"/><path class="cls-16" d="M63.58363,156.47744a15.22587,15.22587,0,0,1,3.521-2.893,26.82164,26.82164,0,0,1,27.43262-.60671c.6206.35108,1.30166.85134,1.30366,1.56436a1.92808,1.92808,0,0,1-1.0646,1.458c-3.17016,2.04666-7.2161,1.859-10.98568,2.02955a50.02966,50.02966,0,0,0-19.34289,4.88231c-.6222.29921-2.04463,1.41035-2.73361,1.26649-.82075-.17137-.69679-1.307-.63054-1.91456A10.71922,10.71922,0,0,1,63.58363,156.47744Z"/><path class="cls-12" d="M37.71311,375.66656,0,361.9082q.35052-1.19411.71166-2.38621c5.8486-19.23537,14.03584-37.70645,19.94924-56.92764q.60018-1.94843,1.17156-3.95269c.7654-2.67865,1.48882-5.42369,2.15734-8.21523,4.11969-17.21269,6.11218-36.19435,2.571-52.66715,1.06191-1.70808.97739-1.02023,2.03991-2.73a46.52915,46.52915,0,0,0,14.86111,10.10427c.56533.244,1.1372.47539,1.71105.69608a46.95956,46.95956,0,0,0,9.61707,2.55531l.00167.00061a45.26339,45.26339,0,0,0,5.06.48991A110.78687,110.78687,0,0,1,57.72143,269.318a179.29629,179.29629,0,0,1-9.12563,30.41608q-1.03969,2.67885-2.12808,5.33045-.43438,1.0585-.87743,2.10444c-7.20713,17.03386-16.21622,31.90492-24.605,50.72615,3.27315,1.873,9.73088,4.92868,12.3319,7.65911,2.13582,2.243,4.00568,5.09061,4.37776,8.11427A8.67791,8.67791,0,0,1,37.71311,375.66656Z"/><g class="cls-21"><path class="cls-22" d="M10.02623,365.56593l-1.67911-.61256a355.56931,355.56931,0,0,0,35.1147-119.81982c.56533.244,1.1372.47539,1.71105.69608A357.39515,357.39515,0,0,1,10.02623,365.56593Z"/></g><path class="cls-17" d="M48.5958,299.73407q-1.03969,2.67885-2.12808,5.33045-.43438,1.0585-.87743,2.10444c-7.99344-2.60976-15.89337-5.5277-23.75783-8.5273.7654-2.67865,1.48882-5.42369,2.15734-8.21523A195.463,195.463,0,0,0,48.5958,299.73407Z"/><path class="cls-17" d="M37.71311,375.66656,0,361.9082q.35052-1.19411.71166-2.38621c2.018.49224,4.11235.91017,6.0883,1.44a5.20834,5.20834,0,0,1,3.86554-4.49421,5.20926,5.20926,0,0,1,5.485,2.24878,5.31893,5.31893,0,0,1-.16426,5.992q5.09646,2.10324,10.19126,4.20589,5.75991,2.37646,11.51752,4.754A8.67791,8.67791,0,0,1,37.71311,375.66656Z"/><path class="cls-17" d="M32.12191,140.20356a86.34594,86.34594,0,0,0,.64351,11.645,18.10392,18.10392,0,0,0,8.22254,1.02877,19.67519,19.67519,0,0,0,10.58178-4.62642q-.41913-1.25292-.7785-2.53218a57.90742,57.90742,0,0,1-1.43544-6.575,13.98907,13.98907,0,0,0-6.138-1.29652A26.22454,26.22454,0,0,0,32.12191,140.20356Z"/><path class="cls-12" d="M110.87028,371.82214,77.00421,367.989q.17175-1.51738.33486-3.03753c2.212-20.49087,3.42883-41.17842,1.34279-61.673q-.24234-2.385-.54962-4.76475-.53676-4.19112-1.27821-8.35892a145.03939,145.03939,0,0,0-9.43926-32.03541,117.38647,117.38647,0,0,0-8.41233-16.03782,2.47623,2.47623,0,0,1,.53937-3.549c.035-.02465.06995-.0493.10649-.072l.00177.0002a8.44925,8.44925,0,0,1,4.18258-1.01426q7.376-.47667,14.75213-.9551c.47743-.0318.95662-.06339,1.43622-.09851.60027-.04292,1.20134-.09289,1.80068-.15916a21.55732,21.55732,0,0,0,5.054-1.06761,10.12144,10.12144,0,0,0,6.141-5.395,185.00831,185.00831,0,0,1,11.83915,58.41417q.17873,4.55828.12611,9.12254a175.86012,175.86012,0,0,1-11.32109,60.608c4.0471.7674,8.19908,1.57171,11.70314,3.74026a11.71736,11.71736,0,0,1,5.24238,6.98381A9.78169,9.78169,0,0,1,110.87028,371.82214Z"/><g class="cls-23"><path class="cls-24" d="M87.28426,369.15256l-1.79367-.203A296.68956,296.68956,0,0,0,80.021,236.393c.60027-.04292,1.20134-.09289,1.80068-.15916a294.32562,294.32562,0,0,1,10.51885,76.635A295.873,295.873,0,0,1,87.28426,369.15256Z"/></g><path class="cls-17" d="M104.982,297.30793A172.24023,172.24023,0,0,1,79.67981,298.553c-.5154-.01184-1.03237-.02566-1.54757-.03927q-.53676-4.19112-1.27821-8.35892a197.25338,197.25338,0,0,0,28.00186-1.96943Q105.03462,292.74367,104.982,297.30793Z"/><path class="cls-17" d="M110.87028,371.82214,77.00421,367.989q.17175-1.51738.33486-3.03753,2.66553.2883,5.333.575a4.47563,4.47563,0,1,1,7.19772.7664L110.60643,368.64A9.78169,9.78169,0,0,1,110.87028,371.82214Z"/><path class="cls-12" d="M100.13447,191.66429c-.13142.437-.26136.87023-.385,1.29406-3.93152,13.28605-4.96249,20.79836-6.37192,33.9488-.121,1.12248-.244,2.28609-.37192,3.49826-2.42863,23.00253-56.42852,23.262-62.28041,17.47805-5.85-5.78231-4.75144-21.69883-4.75144-21.69883.85745-18.74365,8.709-36.36353,16.43243-53.46294,2.28842-5.07059,4.69867-10.30635,8.8964-13.95541a26.71273,26.71273,0,0,1,9.39983-5.00657,40.37415,40.37415,0,0,1,20.97063-1.05612,35.822,35.822,0,0,1,9.91428,3.75238c.21682.12111.43217.24591.64589.37263,4.45246,2.63908,9.41,2.13969,11.21452,6.991C106.25346,171.355,102.4551,183.96681,100.13447,191.66429Z"/><g class="cls-25"><path class="cls-26" d="M99.74951,192.95835c-3.93152,13.28605-4.96249,20.79836-6.37192,33.9488a24.37242,24.37242,0,0,0-5.67951-5.10115,31.74727,31.74727,0,0,0-12.26422-4.5527,39.27757,39.27757,0,0,0-13.21491.1166c-4.20167.75771-8.58959,1.59151-12.77964,2.40351a2.76211,2.76211,0,0,1-1.86406-.07749c-.555-.30884-1.22918-1.066-.68189-1.3894q4.12449-13.36709,8.2472-26.734c2.206-7.14425,4.43084-14.34,7.94773-20.93844,3.517-6.59668,8.45109-12.63674,14.97725-16.28415a22.95738,22.95738,0,0,1,3.60757-1.64631,35.822,35.822,0,0,1,9.91428,3.75238,29.49122,29.49122,0,0,0-14.51745,13.39546c-1.58819,3.06229-2.5573,6.69019-3.73291,9.93406A43.38161,43.38161,0,0,1,99.74951,192.95835Z"/></g><path class="cls-27" d="M62.457,153.914a1.55543,1.55543,0,0,1-.45918.28937,1.52569,1.52569,0,0,1-.19805.06274q-1.25328.30159-2.46488.71919c-.17163.05877-.34311.11931-.51268.18148a27.04957,27.04957,0,0,0-2.84482,1.23376c-.16264.08121-.32322.1658-.482.25026a26.77446,26.77446,0,0,0-2.7868,1.69783c-.14672.10128-.29329.20433-.438.309a26.53519,26.53519,0,0,0-2.56307,2.11788c-.13257.1215-.2613.24625-.38989.37277a25.69,25.69,0,0,0-1.76147,1.89466c-.11693.138-.23358.27961-.34668.42089a25.574,25.574,0,0,0-2.90379,4.48506c-1.18778,2.3428-4.879.58737-3.68661-1.76472a30.05074,30.05074,0,0,1,2.095-3.50891c.13217-.191.26787-.38229.40741-.57033a30.26026,30.26026,0,0,1,2.17712-2.66712c.14217-.15617.28464-.3088.4308-.45995a30.87758,30.87758,0,0,1,3.07857-2.8255c.154-.12149.30792-.243.46557-.363a30.95644,30.95644,0,0,1,2.71578-1.86667c.17992-.10937.36176-.21712.54375-.3231a29.56858,29.56858,0,0,1,3.19162-1.6101l.00177-.00015c.19437-.08561.3874-.16577.584-.24621a28.86449,28.86449,0,0,1,3.40514-1.14108c.20232-.05418.403-.10644.60754-.15546l.00177-.00014.06818-.01634a2.09393,2.09393,0,0,1,2.62311,1.21449A2.22608,2.22608,0,0,1,62.457,153.914Z"/><path class="cls-28" d="M47.55619,163.043c-.11693.138-.23358.27961-.34668.42089a8.74751,8.74751,0,0,0-4.49543-.78857c.13217-.191.26787-.38229.40741-.57033A9.26458,9.26458,0,0,1,47.55619,163.043Z"/><path class="cls-28" d="M49.70755,160.77554c-.13257.1215-.2613.24625-.38989.37277a9.87034,9.87034,0,0,0-4.019-1.71047c.14217-.15617.28464-.3088.4308-.45995A10.421,10.421,0,0,1,49.70755,160.77554Z"/><path class="cls-28" d="M52.70857,158.34866c-.14672.10128-.29329.20433-.438.309a12.42007,12.42007,0,0,0-3.46264-2.50527c.154-.12149.30792-.243.46557-.363A13.04667,13.04667,0,0,1,52.70857,158.34866Z"/><path class="cls-28" d="M55.9774,156.40057c-.16264.08121-.32322.1658-.482.25026a11.03205,11.03205,0,0,0-3.506-2.7281c.17992-.10937.36176-.21712.54375-.3231A11.5742,11.5742,0,0,1,55.9774,156.40057Z"/><path class="cls-28" d="M59.3349,154.98533c-.17163.05877-.34311.11931-.51268.18148a10.7449,10.7449,0,0,0-3.09575-3.17743c.19437-.08561.3874-.16577.584-.24621A11.19777,11.19777,0,0,1,59.3349,154.98533Z"/><path class="cls-28" d="M62.457,153.914a1.55543,1.55543,0,0,1-.45918.28937,9.02117,9.02117,0,0,0-2.28224-3.60131c.20232-.05418.403-.10644.60754-.15546l.00177-.00014A9.60578,9.60578,0,0,1,62.457,153.914Z"/><path class="cls-27" d="M97.39613,159.0256a28.67332,28.67332,0,0,1-4.14791-1.63028c-.169-.08228-.33263-.16323-.489-.243-.504-.25244-.94091-.49084-1.29447-.69156a7.73542,7.73542,0,0,0-.75919-.64315c-.14276-.10941-.28848-.21145-.4373-.30788a8.23955,8.23955,0,0,0-.92732-.52049,9.09816,9.09816,0,0,0-1.57576-.57915c-.17525-.04967-.3517-.09212-.52961-.13088a12.46181,12.46181,0,0,0-3.55324-.21762c-.18267.01155-.3649.02841-.54683.04882a16.25087,16.25087,0,0,0-1.68308.27833q-.76962.168-1.52084.40753c-.174.05184-.34577.10884-.51711.17115a18.27608,18.27608,0,0,0-3.02933,1.37383c-.16176.09182-.32338.18542-.48293.28241a19.16911,19.16911,0,0,0-2.75572,2.03042c-.13463.11811-.26734.23784-.39784.36274a18.02,18.02,0,0,0-1.48109,1.5559c-.11708.13627-.23033.27578-.34181.41515a17.711,17.711,0,0,0-1.5123,2.21276,2.0436,2.0436,0,1,1-3.6866-1.76472q.56359-.97723,1.2058-1.88789c.115-.16106.23021-.32034.34908-.47815A23.1881,23.1881,0,0,1,68.98841,157.03c.1345-.14127.269-.28255.40733-.42057A23.257,23.257,0,0,1,71.43,154.77955c.31782-.25271.64153-.49877.9732-.7348l.00177-.00015c.16-.11308.32016-.22438.48238-.33229A22.30677,22.30677,0,0,1,76.88707,151.57c.174-.07323.35183-.14321.52819-.2095a21.57146,21.57146,0,0,1,3.83343-1.07134c.18976-.03353.38144-.06543.57165-.09365a19.30114,19.30114,0,0,1,4.43564-.171c.15963.01174.31779.02718.47625.04616.19253.0215.38359.0467.57524.079a13.31568,13.31568,0,0,1,4.39984,1.50781c.16623.09143.32922.18669.49087.28741a12.07266,12.07266,0,0,1,2.63893,2.18123q.18823.20637.36671.42426A10.76193,10.76193,0,0,1,97.39613,159.0256Z"/><path class="cls-28" d="M71.26758,160.57272c-.11708.13627-.23033.27578-.34181.41515a12.63805,12.63805,0,0,0-3.9931-1.43985c.115-.16106.23021-.32034.34908-.47815A13.20932,13.20932,0,0,1,71.26758,160.57272Z"/><path class="cls-28" d="M73.14651,158.65408c-.13463.11811-.26734.23784-.39784.36274A13.5404,13.5404,0,0,0,68.98841,157.03c.1345-.14127.269-.28255.40733-.42057A14.1415,14.1415,0,0,1,73.14651,158.65408Z"/><path class="cls-28" d="M76.38516,156.34125c-.16176.09182-.32338.18542-.48293.28241A21.98707,21.98707,0,0,0,72.405,154.0446c.16-.11308.32016-.22438.48238-.33229.26844.16319.53186.33037.79232.50492A22.2816,22.2816,0,0,1,76.38516,156.34125Z"/><path class="cls-28" d="M79.9316,154.79627c-.174.05184-.34577.10884-.51711.17115A21.69885,21.69885,0,0,0,76.88707,151.57c.174-.07323.35183-.14321.52819-.2095q.34171.38087.66528.77928A21.87183,21.87183,0,0,1,79.9316,154.79627Z"/><path class="cls-28" d="M83.68235,154.06159c-.18267.01155-.3649.02841-.54683.04882a20.62711,20.62711,0,0,0-1.88683-3.82122c.18976-.03353.38144-.06543.57165-.09365.02653.04059.0513.08133.07606.12206A21.01153,21.01153,0,0,1,83.68235,154.06159Z"/><path class="cls-28" d="M87.7652,154.41009c-.17525-.04967-.3517-.09212-.52961-.13088a13.298,13.298,0,0,0-.50336-4.20846c.19253.0215.38359.0467.57524.079A13.85957,13.85957,0,0,1,87.7652,154.41009Z"/><path class="cls-28" d="M92.19818,151.94494a10.34024,10.34024,0,0,1-1.4926,3.87267c-.14276-.10941-.28848-.21145-.4373-.30788a9.81083,9.81083,0,0,0,1.439-3.8522C91.87354,151.749,92.03653,151.84422,92.19818,151.94494Z"/><path class="cls-28" d="M95.20382,154.55043a24.21573,24.21573,0,0,1-1.9556,2.84489c-.169-.08228-.33263-.16323-.489-.243a24.23085,24.23085,0,0,0,2.07787-3.02615Q95.02534,154.33254,95.20382,154.55043Z"/><path class="cls-12" d="M162.8469,140.499a75.86935,75.86935,0,0,1-17.63281,22.69189,87.63169,87.63169,0,0,1-9.14873,7.093,96.56747,96.56747,0,0,1-26.20163,12.38348,42.22385,42.22385,0,0,1-5.33472,1.3061,21.25374,21.25374,0,0,1-3.40021.29563,12.73446,12.73446,0,0,1-8.29114-2.72967,10.23677,10.23677,0,0,1-2.93486-4.31389,13.09216,13.09216,0,0,1-.3386-7.68958c1.10107-4.23069,4.55692-7.83975,8.027-10.50154.59133.058,1.18356.10529,1.77521.14547a57.8204,57.8204,0,0,0,26.61913-4.38667q1.222-.51828,2.42306-1.09546a60.17156,60.17156,0,0,0,5.8937-3.25456,58.63342,58.63342,0,0,0,17.95308-17.52876,9.87064,9.87064,0,0,1,4.89112,1.1106A11.76813,11.76813,0,0,1,162.8469,140.499Z"/><path class="cls-17" d="M104.529,183.97347a21.25374,21.25374,0,0,1-3.40021.29563,12.73446,12.73446,0,0,1-8.29114-2.72967C89.51154,178.702,88.465,173.76829,89.5642,169.536c1.10107-4.23069,4.55692-7.83975,8.027-10.50154.59133.058,1.18356.10529,1.77521.14547a6.71884,6.71884,0,0,0-.71958.74056A17.37718,17.37718,0,0,0,95.393,166.014a15.20688,15.20688,0,0,0,2.33942,13.40535A13.249,13.249,0,0,0,104.529,183.97347Z"/><path class="cls-17" d="M145.21409,163.19087a87.63169,87.63169,0,0,1-9.14873,7.093,17.63135,17.63135,0,0,1-10.07984-15.49067q1.222-.51828,2.42306-1.09546a60.17156,60.17156,0,0,0,5.8937-3.25456A13.96244,13.96244,0,0,1,139.441,153.899,24.43357,24.43357,0,0,1,145.21409,163.19087Z"/><g class="cls-29"><path class="cls-30" d="M162.8469,140.499a75.86935,75.86935,0,0,1-17.63281,22.69189,87.63169,87.63169,0,0,1-9.14873,7.093,96.56747,96.56747,0,0,1-26.20163,12.38348,42.22385,42.22385,0,0,1-5.33472,1.3061,21.25374,21.25374,0,0,1-3.40021.29563,12.73446,12.73446,0,0,1-8.29114-2.72967,10.23677,10.23677,0,0,1-2.93486-4.31389,16.11493,16.11493,0,0,0,2.93615,1.83039,25.094,25.094,0,0,0,11.87892,1.85694c6.33076-.49357,12.34721-2.97566,17.9361-5.99285a94.96005,94.96005,0,0,0,29.96693-25.45967c2.0948-2.71379,4.0835-5.63273,4.86976-8.971a11.20892,11.20892,0,0,0-.34418-6.46435A11.76813,11.76813,0,0,1,162.8469,140.499Z"/></g><path class="cls-15" d="M178.52246,129.853a1.78306,1.78306,0,0,1-.59352,1.20792,10.08547,10.08547,0,0,1-1.31624,1.2,13.04384,13.04384,0,0,1-1.3702.91385,41.54788,41.54788,0,0,1-5.67429,2.48052c-2.98466,1.18115-6.1003,2.80457-7.453,5.71724.11787-.25577-.19106-.82209-.63083-1.44a26.14055,26.14055,0,0,0-1.87431-2.24807,15.37654,15.37654,0,0,0-3.59126-2.87436c-.39128-.22612-.7937-.43527-1.20345-.626-.28736-.13311-.5794-.25869-.87415-.37336-.49741-.19416-1.40521-.28484-1.745-.72915-.76742-1.00081-.15668-3.574.11412-4.67494a14.25445,14.25445,0,0,1,2.462-5.12773,18.057,18.057,0,0,1,3.31878-3.34813c.57421-.45042,1.17407-.87087,1.79225-1.26432a27.281,27.281,0,0,1,3.17633-1.73006,3.45908,3.45908,0,0,1,1.26558-.39,1.26112,1.26112,0,0,1,1.15277.53035,1.27523,1.27523,0,0,1-.10153,1.31517,3.73022,3.73022,0,0,1-1.00934.9446q-1.11236.80873-2.22311,1.61553-.68594.50067-1.37053.99588-1.034.75411-2.06668,1.50275a2.04353,2.04353,0,0,0-.98011,1.21138.77288.77288,0,0,0,.33948.80624.923.923,0,0,0,.94777-.13726,32.2335,32.2335,0,0,0,7.84568-6.2293q.52506-.57025,1.0214-1.16488c.3065-.36765.60685-.74549.89788-1.12791a3.4225,3.4225,0,0,1,1.54589-1.37586,1.25214,1.25214,0,0,1,.95594.04747,1.52,1.52,0,0,1,.56585,1.77516,7.55626,7.55626,0,0,1-1.02309,2.52348,16.02532,16.02532,0,0,1-1.11619,1.57028c-.77166.97307-1.62058,1.91688-2.34445,2.92878a.35082.35082,0,0,0,.51645.46713,16.74482,16.74482,0,0,0,3.36057-3.92028q.28533-.46218.54234-.9434a16.3554,16.3554,0,0,0,.94835-2.134,2.75757,2.75757,0,0,1,.73064-1.29591.96026.96026,0,0,1,.79468-.22087c.72774.1555.82293,1.1121.70374,1.82615a13.62488,13.62488,0,0,1-.88772,3.01681q-.23428.56225-.50734,1.10808a40.085,40.085,0,0,1-3.58017,5.55364,1.65989,1.65989,0,0,0,1.603-.31984,4.915,4.915,0,0,0,1.06106-1.33217q.6657-1.0686,1.32945-2.13881l.68407-1.10487q.69847-1.12479,1.39707-2.2478a.80691.80691,0,0,1,1.48121.29816,6.18216,6.18216,0,0,1-.32356,3.04857,8.45073,8.45073,0,0,1-.51694,1.14274,11.37436,11.37436,0,0,1-.71994,1.14528,20.2977,20.2977,0,0,1-1.45185,1.7799c-.61876.68765-1.26247,1.35419-1.87163,2.05a.53866.53866,0,0,0,.616.85111l1.39113-.59647,1.32233-.56581,1.01919-.43733c.42181-.18109.93126-.35874,1.29606-.00028A.7866.7866,0,0,1,178.52246,129.853Z"/><path class="cls-16" d="M162.14391,120.95207q-.68594.50067-1.37053.99588a6.22935,6.22935,0,0,0-.58947-.72494,5.025,5.025,0,0,0-2.093-1.29224c.57421-.45042,1.17407-.87087,1.79225-1.26432a7.59144,7.59144,0,0,1,1.833,1.64178A3.64158,3.64158,0,0,1,162.14391,120.95207Z"/><path class="cls-16" d="M170.82339,119.77922a16.02532,16.02532,0,0,1-1.11619,1.57028,5.33735,5.33735,0,0,0-2.84768-2.24774q.52506-.57025,1.0214-1.16488a7.74416,7.74416,0,0,1,2.34617,1.2285A2.41825,2.41825,0,0,1,170.82339,119.77922Z"/><path class="cls-16" d="M174.0718,121.0739q-.23428.56225-.50734,1.10808a3.61563,3.61563,0,0,0-2.32469-1.35685q.28533-.46218.54234-.9434a3.06371,3.06371,0,0,1,2.28969,1.19217Z"/><path class="cls-16" d="M176.69961,125.0816a11.37436,11.37436,0,0,1-.71994,1.14528,4.08025,4.08025,0,0,0-1.15929-1.7724,9.77794,9.77794,0,0,0-.84262-.50968l.68407-1.10487a1.588,1.588,0,0,1,.96895.48495,4.484,4.484,0,0,1,.70188,1.02763A6.94509,6.94509,0,0,1,176.69961,125.0816Z"/><path class="cls-16" d="M176.60847,132.18812c.002.02479.00395.04781.00423.07274a13.04384,13.04384,0,0,1-1.3702.91385c-.0314-.53045-.11661-1.21511-.13395-1.31708-.08558-.49566-.36944-1.03908-.44527-1.54625l1.32233-.56581a3.88954,3.88954,0,0,1,.33542.71387A7.00879,7.00879,0,0,1,176.60847,132.18812Z"/><path class="cls-16" d="M167.62144,133.39355a5.6427,5.6427,0,0,1-1.67269,2.25634q-2.22948,2.142-4.46442,4.28261a26.14055,26.14055,0,0,0-1.87431-2.24807,15.37654,15.37654,0,0,0-3.59126-2.87436c-.39128-.22612-.7937-.43527-1.20345-.626.05638-.02963.10761-.057.15349-.084a25.57432,25.57432,0,0,0,4.59323-3.50172,25.19823,25.19823,0,0,0,2.173-2.37262,2.59819,2.59819,0,0,1,1.40408-1.1074,2.49008,2.49008,0,0,1,1.97866.96653,11.24149,11.24149,0,0,1,2.02077,2.33757A3.78978,3.78978,0,0,1,167.62144,133.39355Z"/><path class="cls-17" d="M78.72823,178.51572q-3.3853,17.22623-8.01838,34.17419-.40167,1.48-.816,2.95739-1.13992,4.06278-2.3492,8.1063c-.9578,3.20445-2.34314,6.82224-5.50672,7.90946a10.68558,10.68558,0,0,1-3.89113.33091q-13.83859-.51549-27.67541-1.03111a23.32916,23.32916,0,0,1-5.97476-.741c-1.741-.52983-4.16688-1.49321-4.5848-3.16117a2.08461,2.08461,0,0,1-.06194-.55467A126.63943,126.63943,0,0,1,20.953,212.34689q.221-1.66021.48882-3.31361a127.30151,127.30151,0,0,1,6.2371-23.79371,69.40618,69.40618,0,0,1,7.32988-14.94,15.28987,15.28987,0,0,1,9.68615-6.43687c3.36061-.66674,6.76313-1.34407,10.02058-1.98623,4.49581-.88726,9.10715-1.77872,13.629-1.0369a15.73277,15.73277,0,0,1,5.92992,2.24583,11.004,11.004,0,0,1,4.59139,5.546C79.96782,171.77947,79.37,175.24115,78.72823,178.51572Z"/><path class="cls-16" d="M78.72823,178.51572q-4.49317,22.87211-11.1836,45.23788c-.9578,3.20445-2.34314,6.82224-5.50672,7.90946a10.68558,10.68558,0,0,1-3.89113.33091q-13.83859-.51549-27.67541-1.03111a23.32916,23.32916,0,0,1-5.97476-.741c-1.741-.52983-4.16688-1.49321-4.5848-3.16117a7.011,7.011,0,0,1,3.76779-.59347q16.78193.89232,33.56193,1.783l.07443-.37162q7.464-30.56546,14.92939-61.1346a5.75678,5.75678,0,0,1,1.82069-3.52722,1.82516,1.82516,0,0,1,.20841-.13135,11.004,11.004,0,0,1,4.59139,5.546C79.96782,171.77947,79.37,175.24115,78.72823,178.51572Z"/><path class="cls-15" d="M70.70985,212.68991q-.40167,1.48-.816,2.95739a39.66305,39.66305,0,0,0-4.22011-1.81327c-7.75355-2.82586-16.154-3.27881-24.3235-3.50485-6.73656-.18774-13.99777-.42476-20.39723,2.01771q.221-1.66021.48882-3.31361a38.51362,38.51362,0,0,1,8.599-1.60653,113.471,113.471,0,0,1,12.74022-.05771,115.96863,115.96863,0,0,1,13.45473,1.058A50.9265,50.9265,0,0,1,70.70985,212.68991Z"/><path class="cls-16" d="M62.83294,163.90741l-.52167,2.20567-3.15059,13.33017-8.1691.85607-2.87393.30022A61.99737,61.99737,0,0,1,52.691,165.50435Z"/><path class="cls-15" d="M62.31127,166.11308l-3.15059,13.33017-8.1691.85607A65.23028,65.23028,0,0,1,55.235,167.22813Z"/><path class="cls-27" d="M38.77143,232.24954q-.07779,1.3542-.18083,2.70515c-.01338.183-.02677.3659-.04207.54723q-.12552,1.58545-.28866,3.16869c-.02017.18707-.0402.37594-.06023.56477q-.22431,2.10437-.51692,4.202c-.0243.18029-.04875.35879-.07483.53922q-.18066,1.27447-.38818,2.54763c-.1004.618-.207,1.24723-.33307,1.87805-.03507.1794-.07192.35894-.11244.537A16.50762,16.50762,0,0,1,35.32357,253.19c-.09571.179-.19526.35487-.30218.52773a8.27975,8.27975,0,0,1-2.40561,2.57728,7.44689,7.44689,0,0,1-1.39947.754c-.17238.07131-.34548.13377-.51918.18915a6.19725,6.19725,0,0,1-6.62208-1.69115c-.11959-.131-.23046-.26441-.33868-.40877l-.00015-.00177a6.4934,6.4934,0,0,1-.39022-.57922,11.78053,11.78053,0,0,1-1.25078-3.0074l-.00015-.00177c-.04623-.17089-.08892-.34207-.13013-.51693a19.012,19.012,0,0,1-.44143-3.37391c-.00757-.17765-.01351-.35721-.01931-.535-.0277-1.08876.01291-2.17071.08905-3.211.02188-.31736.051-.63354.08716-.9503.02018-.18706.04227-.37253.0679-.55827a25.90272,25.90272,0,0,1,.75843-3.65326c.05087-.18248.10541-.36349.16011-.54273a26.41278,26.41278,0,0,1,1.27008-3.33012c.077-.1686.15586-.33558.23843-.50108q.34923-.72419.7449-1.42546a1.75766,1.75766,0,0,1,1.04-.85443c.03838.7438.1325,2.29059.30335,3.83817.02555.22252.05124.44678.07841.66738.05669.44813.11973.88682.19106,1.29631q-.41007,1.08755-.70876,2.20688c-.04791.17511-.09213.35168-.13458.52812a22.56357,22.56357,0,0,0-.53651,3.125c-.01913.17808-.03635.35778-.04826.537-.015.16349-.02468.32652-.03422.49131-.03816.68063-.06279,1.41716-.0498,2.17733.00226.17809.00643.3578.01592.53708a15.35175,15.35175,0,0,0,.27761,2.42833c.03413.17545.07357.35046.118.5215a7.39965,7.39965,0,0,0,1.091,2.4769c.00811.01182.01607.02184.024.03186a3.01592,3.01592,0,0,0,.34886.40258,2.77919,2.77919,0,0,0,3.51759.11,4.76613,4.76613,0,0,0,.50674-.361,4.84558,4.84558,0,0,0,1.02832-1.14586,7.80848,7.80848,0,0,0,.64433-1.262c.07269-.17716.13978-.35744.20156-.53726a18.13471,18.13471,0,0,0,.61714-2.47383c.00474-.02894.01139-.05621.01613-.08513q.0504-.26356.09547-.52668c.24853-1.37012.45353-2.74912.64436-4.127.0209-.15683.04356-.3138.06446-.47063.00193-.01977.00563-.03969.00755-.05948q.27183-1.98261.48227-3.97445c.01928-.17631.03665-.35424.05239-.53025q.17136-1.64541.298-3.29246c.01559-.17778.02956-.35367.04162-.53116q.09434-1.25128.16552-2.50244a1.78773,1.78773,0,0,1,2.07546-1.41792A1.83671,1.83671,0,0,1,38.77143,232.24954Z"/><path class="cls-28" d="M26.342,236.60117a14.50742,14.50742,0,0,1-2.405-1.72458c.077-.1686.15586-.33558.23843-.50108a13.87774,13.87774,0,0,0,2.08821,1.55828C26.28912,236.15631,26.31481,236.38057,26.342,236.60117Z"/><path class="cls-28" d="M25.82428,240.10436c-.04791.17511-.09213.35168-.13458.52812a24.05355,24.05355,0,0,1-3.183-1.883c.05087-.18248.10541-.36349.16011-.54273A23.51277,23.51277,0,0,0,25.82428,240.10436Z"/><path class="cls-28" d="M25.15319,243.7575c-.01913.17808-.03635.35778-.04826.537a16.568,16.568,0,0,1-3.42452-1.33357c.02018-.18706.04227-.37253.0679-.55827A16.10149,16.10149,0,0,0,25.15319,243.7575Z"/><path class="cls-28" d="M25.02091,246.96318c.00226.17809.00643.3578.01592.53708a15.11472,15.11472,0,0,1-3.51332.157c-.00757-.17765-.01351-.35721-.01931-.535A14.3137,14.3137,0,0,0,25.02091,246.96318Z"/><path class="cls-28" d="M25.43247,250.45009q-1.66863.5499-3.3374,1.098c-.04623-.17089-.08892-.34207-.13013-.51693q1.67372-.553,3.3495-1.1026C25.34857,250.104,25.388,250.27905,25.43247,250.45009Z"/><path class="cls-28" d="M26.89636,253.36143a17.41492,17.41492,0,0,1-2.82131,2.18562c-.11959-.131-.23046-.26441-.33868-.40877l-.00015-.00177a16.8488,16.8488,0,0,0,2.81128-2.17766A3.01592,3.01592,0,0,0,26.89636,253.36143Z"/><path class="cls-28" d="M30.92069,253.11044q.14693,1.96935.29562,3.93861c-.17238.07131-.34548.13377-.51918.18915q-.1452-1.884-.28318-3.76673A4.76613,4.76613,0,0,0,30.92069,253.11044Z"/><path class="cls-28" d="M35.32357,253.19c-.09571.179-.19526.35487-.30218.52773a12.69966,12.69966,0,0,0-2.428-3.01519c.07269-.17716.13978-.35744.20156-.53726A13.21333,13.21333,0,0,1,35.32357,253.19Z"/><path class="cls-28" d="M36.88664,248.40225c-.03507.1794-.07192.35894-.11244.537a17.0547,17.0547,0,0,0-3.346-1.33295q.0504-.26356.09547-.52668A17.60863,17.60863,0,0,1,36.88664,248.40225Z"/><path class="cls-28" d="M37.68272,243.43735c-.0243.18029-.04875.35879-.07483.53922a20.72974,20.72974,0,0,0-3.43989-1.02388c.0209-.15683.04356-.3138.06446-.47063.00193-.01977.00563-.03969.00755-.05948A20.79459,20.79459,0,0,1,37.68272,243.43735Z"/><path class="cls-28" d="M38.25987,238.67061c-.02017.18707-.0402.37594-.06023.56477a6.77459,6.77459,0,0,0-3.47736-.78725c.01928-.17631.03665-.35424.05239-.53025A7.31777,7.31777,0,0,1,38.25987,238.67061Z"/><path class="cls-28" d="M38.5906,234.95469c-.01338.183-.02677.3659-.04207.54723a21.21346,21.21346,0,0,0-3.47583-.8765c.01559-.17778.02956-.35367.04162-.53116A21.65514,21.65514,0,0,1,38.5906,234.95469Z"/><path class="cls-27" d="M96.05605,232.17286c.0058.1778.00983.35574.01386.53368a33.01074,33.01074,0,0,1-.17049,3.95044c-.01722.1797-.03812.35793-.0608.5363q-.17771,1.50423-.50176,2.98487l.00015.00177c-.03714.176-.07811.34877-.1207.52346a29.66291,29.66291,0,0,1-1.14181,3.73844c-.064.17466-.13167.34782-.20126.51939a28.94685,28.94685,0,0,1-1.211,2.64422q-.5907,1.13455-1.27387,2.2073c-.09451.15042-.19095.29926-.29092.44837a29.80048,29.80048,0,0,1-2.79351,3.59879c-.12106.13127-.24375.26443-.36659.39582a29.77146,29.77146,0,0,1-3.65987,3.29791c-.14407.11178-.28843.22-.43648.32671a29.43461,29.43461,0,0,1-4.08126,2.51449c-.06656.03582-.13328.06984-.20176.10405-.09932.04924-.19865.09845-.29812.1459a26.4409,26.4409,0,0,1-5.90052,2.03035c-.17324.03933-.34855.0752-.524.10935a27.46618,27.46618,0,0,1-5.22832.52357c-.17808.00226-.35647.001-.535-.00208a26.836,26.836,0,0,1-4.26371-.40127c-.17733-.03169-.35466-.06337-.53243-.10036-.59986-.11792-1.19616-.25757-1.78522-.4174a26.17923,26.17923,0,0,1-3.39421-1.18278l-.00177.00015c-.16241-.06681-.32512-.13711-.48649-.2129a25.65111,25.65111,0,0,1-4.11373-2.3159c-.15678-.10647-.31031-.2168-.464-.32886a24.29886,24.29886,0,0,1-3.44346-3.02744q-.18468-.19594-.3645-.39769A22.45573,22.45573,0,0,1,45.55643,251.27c-.08947-.15483-.17909-.31142-.26516-.46832-.04422-.08189-.08829-.162-.13251-.244a24.78832,24.78832,0,0,1-1.6232-3.75924c-.06069-.17325-.11621-.34872-.17173-.52418a24.98845,24.98845,0,0,1-.92139-4.15426c-.02217-.18179-.0445-.36535-.0649-.5473a23.70859,23.70859,0,0,1-.11049-3.87727c.00837-.179.02028-.35823.03587-.536a22.35581,22.35581,0,0,1,.61659-3.81622c.0426-.17467.08873-.34964.14018-.525.06654-.25153.14031-.50187.21954-.75088a1.82122,1.82122,0,0,1,2.07738-1.41628,1.78752,1.78752,0,0,1,1.41614,2.07561c-.12.38073-.229.76593-.32542,1.15184-.04628.17321-.08725.346-.12631.52034a21.14356,21.14356,0,0,0-.47983,3.336q-.01563.26337-.026.52627a21.01662,21.01662,0,0,0,.15719,3.47231c.02351.17634.04893.35429.076.53033a20.60769,20.60769,0,0,0,.858,3.49631c.05671.16824.117.33618.179.504a19.93516,19.93516,0,0,0,1.51361,3.18893c.09109.15289.1819.30228.27639.45311.11292.17964.22746.35735.34731.53463a19.926,19.926,0,0,0,1.97185,2.47886c.12121.129.24227.2563.365.38164a20.21189,20.21189,0,0,0,3.26542,2.68561c.14925.10173.29985.198.45206.29238a21.01752,21.01752,0,0,0,2.80931,1.48257c.16108.07224.32364.1408.48781.20742a23.03525,23.03525,0,0,0,4.38994,1.30184c.17585.03537.355.0669.532.095a24.03284,24.03284,0,0,0,3.702.33544c.17676.0032.35515.0045.53324.00223a24.378,24.378,0,0,0,4.72206-.50129c.17531-.03592.3487-.07343.52371-.11287a23.35267,23.35267,0,0,0,5.07147-1.7942c.161-.07927.32026-.15843.47907-.24286.44617-.23126.88748-.47813,1.31846-.742a25.70842,25.70842,0,0,0,2.212-1.513c.13919-.106.27825-.21378.41523-.325a25.441,25.441,0,0,0,2.83781-2.63267c.12283-.13138.242-.26423.361-.39889a26.20936,26.20936,0,0,0,2.41229-3.16436c.09821-.149.19272-.29943.28709-.45162a27.31847,27.31847,0,0,0,2.09828-4.11533c.068-.16962.13593-.33928.202-.51054a27.90889,27.90889,0,0,0,1.05675-3.36594c.04436-.17484.08519-.34938.12409-.52553.19349-.85032.34876-1.71.46051-2.57855.02445-.17851.047-.35865.06774-.53865.09686-.87618.15565-1.76.1715-2.64555q.00749-.2974.00433-.594c.00125-.1142.00058-.23-.00187-.34572.13895-.69072.277-1.5436.40732-2.44578.0317-.22013.06311-.4438.09275-.66731.12149-.88.23238-1.78059.32861-2.59971.02254-.20153.04553-.39776.06732-.58675.09863-.87637.17622-1.61907.22518-2.0831a1.64955,1.64955,0,0,1,1.47953,1.13979c.04989.21515.098.43045.14451.64764.03782.17695.07564.35388.11006.53287q.19287.97346.33159,1.96035c.02513.17441.04671.34912.0683.52383Q96.00408,230.59674,96.05605,232.17286Z"/><path class="cls-28" d="M46.44733,233.87844c-.04628.17321-.08725.346-.12631.52034a13.89672,13.89672,0,0,1-3.40151-1.05559c.0426-.17467.08873-.34964.14018-.525A13.22471,13.22471,0,0,0,46.44733,233.87844Z"/><path class="cls-28" d="M45.84119,237.73482q-.01563.26337-.026.52627a28.07966,28.07966,0,0,1-3.54817-.56566c.00837-.179.02028-.35823.03587-.536A27.95393,27.95393,0,0,0,45.84119,237.73482Z"/><path class="cls-28" d="M46.04839,242.26373a19.76,19.76,0,0,1-3.60595-.14373c-.02217-.18179-.0445-.36535-.0649-.5473a19.18866,19.18866,0,0,0,3.59487.1607C45.99592,241.90974,46.02134,242.08769,46.04839,242.26373Z"/><path class="cls-28" d="M47.08539,246.264a21.19372,21.19372,0,0,1-3.54983.53444c-.06069-.17325-.11621-.34872-.17173-.52418a20.89663,20.89663,0,0,0,3.54259-.51422C46.96313,245.92828,47.02337,246.09622,47.08539,246.264Z"/><path class="cls-28" d="M48.87539,249.906a22.90071,22.90071,0,0,1-3.319,1.36393c-.08947-.15483-.17909-.31142-.26516-.46832a22.233,22.233,0,0,0,3.30773-1.34872C48.69009,249.60582,48.7809,249.75521,48.87539,249.906Z"/><path class="cls-28" d="M51.55951,253.30117a26.38244,26.38244,0,0,1-2.97246,2.018q-.18468-.19594-.3645-.39769a25.78468,25.78468,0,0,0,2.972-2.002C51.31576,253.04856,51.43682,253.17583,51.55951,253.30117Z"/><path class="cls-28" d="M55.277,256.27916a13.5881,13.5881,0,0,1-2.78249,2.39634c-.15678-.10647-.31031-.2168-.464-.32886a13.02407,13.02407,0,0,0,2.79442-2.35986C54.97418,256.08851,55.12478,256.18481,55.277,256.27916Z"/><path class="cls-28" d="M58.57411,257.96915a17.083,17.083,0,0,1-1.47762,3.235l-.00177.00015c-.16241-.06681-.32512-.13711-.48649-.2129a16.26167,16.26167,0,0,0,1.47807-3.22967C58.24738,257.834,58.40994,257.90253,58.57411,257.96915Z"/><path class="cls-28" d="M63.49605,259.366a12.39219,12.39219,0,0,1-.6877,3.53866c-.17733-.03169-.35466-.06337-.53243-.10036a11.88334,11.88334,0,0,0,.68813-3.53334C63.1399,259.30636,63.319,259.33789,63.49605,259.366Z"/><path class="cls-28" d="M67.73132,259.7037a28.875,28.875,0,0,1-.12426,3.60434c-.17808.00226-.35647.001-.535-.00208a28.54208,28.54208,0,0,0,.126-3.60449C67.37484,259.70467,67.55323,259.706,67.73132,259.7037Z"/><path class="cls-28" d="M73.35938,262.67512c-.17324.03933-.34855.0752-.524.10935q-.19107-1.79192-.382-3.58206c.17531-.03592.3487-.07343.52371-.11287Q73.16816,260.88146,73.35938,262.67512Z"/><path class="cls-28" d="M79.75978,260.39482c-.06656.03582-.13328.06984-.20176.10405-.09932.04924-.19865.09845-.29812.1459a9.4909,9.4909,0,0,0-1.21134-3.34943c.161-.07927.32026-.15843.47907-.24286A10.04027,10.04027,0,0,1,79.75978,260.39482Z"/><path class="cls-28" d="M84.27752,257.55362c-.14407.11178-.28843.22-.43648.32671a13.97972,13.97972,0,0,0-1.78294-3.08283c.13919-.106.27825-.21378.41523-.325A14.62156,14.62156,0,0,1,84.27752,257.55362Z"/><path class="cls-28" d="M88.304,253.85989c-.12106.13127-.24375.26443-.36659.39582a13.839,13.839,0,0,0-2.62625-2.41583c.12283-.13138.242-.26423.361-.39889A14.46676,14.46676,0,0,1,88.304,253.85989Z"/><path class="cls-28" d="M91.38841,249.81273c-.09451.15042-.19095.29926-.29092.44837a10.91808,10.91808,0,0,0-3.01308-1.98447c.09821-.149.19272-.29943.28709-.45162A11.41721,11.41721,0,0,1,91.38841,249.81273Z"/><path class="cls-28" d="M94.0745,244.44182c-.064.17466-.13167.34782-.20126.51939a5.97566,5.97566,0,0,0-3.40346-1.25153c.068-.16962.13593-.33928.202-.51054A6.52687,6.52687,0,0,1,94.0745,244.44182Z"/><path class="cls-28" d="M95.33686,240.17815l.00015.00177c-.03714.176-.07811.34877-.1207.52346a10.19275,10.19275,0,0,0-3.48779-.87018c.04436-.17484.08519-.34938.12409-.52553A10.7338,10.7338,0,0,1,95.33686,240.17815Z"/><path class="cls-28" d="M95.89942,236.657c-.01722.1797-.03812.35793-.0608.5363a7.98546,7.98546,0,0,0-3.5255-.46416c.02445-.17851.047-.35865.06774-.53865A8.52032,8.52032,0,0,1,95.89942,236.657Z"/><path class="cls-28" d="M96.05605,232.17286c.0058.1778.00983.35574.01386.53368a8.0314,8.0314,0,0,0-3.51755.83838q.00749-.2974.00433-.594A8.56389,8.56389,0,0,1,96.05605,232.17286Z"/><path class="cls-28" d="M95.81,229.027a9.64862,9.64862,0,0,0-2.84785,1.13239c.0317-.22013.06311-.4438.09275-.66731a10.06582,10.06582,0,0,1,2.6868-.98891C95.76682,228.67761,95.7884,228.85232,95.81,229.027Z"/><path class="cls-28" d="M95.4101,226.54285a5.89986,5.89986,0,0,0-2.0266.34955c.02254-.20153.04553-.39776.06732-.58675A6.34264,6.34264,0,0,1,95.3,226.01C95.33786,226.18693,95.37568,226.36386,95.4101,226.54285Z"/><circle class="cls-31" cx="242.53713" cy="33.8406" r="2.2655"/><circle class="cls-31" cx="239.97397" cy="8.41357" r="2.2655"/><path class="cls-31" d="M190.3216,27.74057a1.21439,1.21439,0,0,0-1.8867,1.52717A1.21439,1.21439,0,0,0,190.3216,27.74057Z"/><path class="cls-31" d="M223.04462,62.89528a1.21439,1.21439,0,0,0-1.88671,1.52717A1.21439,1.21439,0,0,0,223.04462,62.89528Z"/><path class="cls-31" d="M219.49932,36.8407a1.21439,1.21439,0,0,0-1.8867,1.52717A1.21439,1.21439,0,0,0,219.49932,36.8407Z"/><path class="cls-31" d="M333.00283,106.18415a1.21439,1.21439,0,0,0-1.88671,1.52716A1.21439,1.21439,0,0,0,333.00283,106.18415Z"/><path class="cls-31" d="M263.39273,102.78386A1.21439,1.21439,0,0,0,261.506,104.311,1.21439,1.21439,0,0,0,263.39273,102.78386Z"/><path class="cls-31" d="M273.9117,70.08681A1.21439,1.21439,0,0,0,272.025,71.614,1.21439,1.21439,0,0,0,273.9117,70.08681Z"/><path class="cls-31" d="M253.21744,84.9408a1.21438,1.21438,0,0,0-1.8867,1.52716A1.21438,1.21438,0,0,0,253.21744,84.9408Z"/><path class="cls-31" d="M398.97666,82.81087a1.34992,1.34992,0,0,0-.26362-.89068,1.22635,1.22635,0,0,0-.81623-.44339,1.26106,1.26106,0,0,0-.89071.26362l-.28647.23188a1.25216,1.25216,0,0,0-.4434.81625,1.35035,1.35035,0,0,0,.26363.89069,1.22639,1.22639,0,0,0,.81622.44339,1.26109,1.26109,0,0,0,.89071-.26362l.28648-.23189A1.25189,1.25189,0,0,0,398.97666,82.81087Z"/><path class="cls-31" d="M351.0486,131.4074a1.21439,1.21439,0,0,0-1.88671,1.52717A1.21439,1.21439,0,0,0,351.0486,131.4074Z"/><path class="cls-31" d="M343.05542,122.704a1.21439,1.21439,0,0,0-1.8867,1.52717A1.21439,1.21439,0,0,0,343.05542,122.704Z"/><path class="cls-31" d="M290.46946,116.90376a1.21439,1.21439,0,0,0-1.88671,1.52716A1.21439,1.21439,0,0,0,290.46946,116.90376Z"/><path class="cls-31" d="M307.74008,97.23429a1.21438,1.21438,0,0,0-1.8867,1.52716A1.21438,1.21438,0,0,0,307.74008,97.23429Z"/><path class="cls-31" d="M372.24928,84.37418a1.21439,1.21439,0,0,0-1.8867,1.52717A1.21439,1.21439,0,0,0,372.24928,84.37418Z"/><path class="cls-32" d="M100.96276,79.57949c1.81258-.2059,136.78315-29.33608,136.78315-29.33608l-5.27137-21.62293Z"/><polygon class="cls-31" points="100.963 79.579 208.847 19.265 237.433 30.551 100.963 79.579"/><path class="cls-33" d="M118.78594,73.92194l.09074-.02789c-.0261.02292-.05086.04525-.07657.06721Z"/><path class="cls-33" d="M121.50882,73.13855c-.032-.01193-.06406-.02386-.09571-.03675l.18726-.059C121.56941,73.07492,121.5394,73.1074,121.50882,73.13855Z"/><polygon class="cls-34" points="246.214 34.129 235.61 77.377 101.336 79.371 246.214 34.129"/><polygon class="cls-31" points="101.336 79.371 246.214 34.129 288.943 51.538 101.336 79.371"/><path class="cls-35" d="M233.43529,44.6709l-4.408,1.37691-25.813,8.06072-2.21085.69014a14.58928,14.58928,0,0,1,.42148-5.72126c.59285-2.44836,1.54353-4.875,2.23326-6.90268q1.00373-2.945,2.17257-5.83176c.52978-1.30576,1.09534-2.617,1.74288-3.87705a19.07938,19.07938,0,0,1,4.108-5.61,13.9571,13.9571,0,0,1,4.61529-2.728,18.63335,18.63335,0,0,1,10.4354-.44722,15.72941,15.72941,0,0,1,5.47157,2.30756q.37983.26544.73949.564a10.10853,10.10853,0,0,1,1.86979,2.043,8.73971,8.73971,0,0,1,1.51912,3.96847c.261,2.33674-.48016,4.70457-1.21184,6.97786C234.57075,41.253,234.01857,42.9677,233.43529,44.6709Z"/><path class="cls-33" d="M229.02727,46.04781l-25.813,8.06072-2.21085.69014a14.58928,14.58928,0,0,1,.42148-5.72126c.59285-2.44836,1.54353-4.875,2.23326-6.90268q1.00373-2.945,2.17257-5.83176c.52978-1.30576,1.09534-2.617,1.74288-3.87705a19.07938,19.07938,0,0,1,4.108-5.61,13.9571,13.9571,0,0,1,4.61529-2.728c-.11975.11556-.23446.22422-.32451.32728a24.55727,24.55727,0,0,0-1.55657,2.01211,28.75333,28.75333,0,0,0-4.267,9.09824c-.52237,1.95162-.77153,4.237.49738,5.80942a4.65793,4.65793,0,0,0,5.2438,1.09117,9.072,9.072,0,0,0,4.14161-3.821c1.01416-1.61932,1.76053-3.39358,2.76-5.02338a18.93457,18.93457,0,0,1,7.30208-6.83087,7.83717,7.83717,0,0,1,2.11026-.80267q.37983.26544.73949.564a10.10853,10.10853,0,0,1,1.86979,2.043,12.81852,12.81852,0,0,0-7.45284,5.93319c-1.86284,3.0355-2.79848,6.53376-3.71143,9.97641A22.06695,22.06695,0,0,0,229.02727,46.04781Z"/><path class="cls-36" d="M205.51786,42.07135a4.31494,4.31494,0,0,0,1.26249,1.59764c.76063.49,13.6381,5.04647,14.60941,4.06186s3.24349-8.83619,3.27231-9.53715-.96922-1.72556-.96922-1.72556Z"/><path class="cls-37" d="M209.53392,32.21438s13.2925,3.5505,14.15893,4.25376-1.73874,9.40573-2.67515,10.19171-14.67851-3.7378-15.49984-4.5885S208.36938,31.90048,209.53392,32.21438Z"/><polygon class="cls-38" points="220.218 45.817 218.437 45.286 220.575 38.085 221.21 38.248 222.486 38.576 220.354 45.382 220.218 45.817"/><polygon class="cls-36" points="220.354 45.382 219.193 45.036 221.21 38.248 222.486 38.576 220.354 45.382"/><path class="cls-35" d="M237.76209,55.825a4.58074,4.58074,0,0,1-4.99989-1.742,7.67566,7.67566,0,0,1-.88011-1.42628,17.4943,17.4943,0,0,1-1.175-3.80592,64.79034,64.79034,0,0,1-1.17518-6.67029c-.2817-2.49164-.30331-5.15793.94207-7.33373a6.89831,6.89831,0,0,1,3.38112-2.967c1.307-.51058,2.66953.70306,3.31957,1.78852a11.14823,11.14823,0,0,1,1.159,3.6395q.31533,1.60926.62968,3.21813.56417,2.87952,1.127,5.75961c.44127,2.25368.87459,4.63939.10092,6.80167A4.47963,4.47963,0,0,1,237.76209,55.825Z"/><path class="cls-33" d="M237.76209,55.825a4.58074,4.58074,0,0,1-4.99989-1.742,7.67566,7.67566,0,0,1-.88011-1.42628c.153-.71022.34127-1.41386.56161-2.10557a22.59223,22.59223,0,0,1,5.00061-8.53886,7.31574,7.31574,0,0,1,1.519-1.48632q.56417,2.87952,1.127,5.75961c.44127,2.25368.87459,4.63939.10092,6.80167A4.47963,4.47963,0,0,1,237.76209,55.825Z"/><path class="cls-33" d="M233.77149,36.71718a2.34238,2.34238,0,0,1,.50464-1.0774,1.2029,1.2029,0,0,1,1.07576-.41092,1.62022,1.62022,0,0,1,1.07307,1.29168,4.79352,4.79352,0,0,1-.023,2.52877,1.97959,1.97959,0,0,1-.79933,1.21249C233.78729,41.329,233.56053,37.65252,233.77149,36.71718Z"/><path class="cls-35" d="M251.00687,40.15711a12.58679,12.58679,0,0,1-1.03209,1.688q-3.33067,4.816-6.66242,9.62935a13.82952,13.82952,0,0,1-3.80723,4.14725,4.70935,4.70935,0,0,1-5.31419.02275c-2.60122-2.12751-.44688-5.13481.855-7.2518q2.69776-4.38631,5.57895-8.65764,1.46015-2.16375,2.96529-4.298c.103-.14585.2074-.29227.31043-.43812a3.30207,3.30207,0,0,1,1.23554-1.21049,3.17335,3.17335,0,0,1,2.53774.32962,9.10676,9.10676,0,0,1,2.45908,1.505,3.902,3.902,0,0,1,1.3243,2.4983A3.9824,3.9824,0,0,1,251.00687,40.15711Z"/><path class="cls-33" d="M251.00687,40.15711a5.73988,5.73988,0,0,0-2.30577-2.688,12.13633,12.13633,0,0,0-2.10236-1.154,12.29037,12.29037,0,0,0-2.04277-.66907c-.288-.067-.64708-.10488-.96577-.209.103-.14585.2074-.29227.31043-.43812a3.30207,3.30207,0,0,1,1.23554-1.21049,3.17335,3.17335,0,0,1,2.53774.32962,9.10676,9.10676,0,0,1,2.45908,1.505,3.902,3.902,0,0,1,1.3243,2.4983A3.9824,3.9824,0,0,1,251.00687,40.15711Z"/><path class="cls-39" d="M241.93833,46.40788l-.01141-.00482a.51762.51762,0,0,1-.26819-.68121L257.79825,8.62192a.51767.51767,0,0,1,.9494.413L242.60812,46.13488A.51764.51764,0,0,1,241.93833,46.40788Z"/><path class="cls-40" d="M258.74765,9.03494s9.13481.85487,11.17781,1.95922-4.67353,3.12706-.07641,4.63747S283.72588,18.952,283.72588,18.952l-5.82741,10.5203s-14.6812-3.12606-16.10942-4.07057.15889-1.725,1.0463-3.34678-9.44264-.71056-9.44264-.71056Z"/><path class="cls-37" d="M248.4302,27.10819q1.54873.05872,3.08676.26868a4.32412,4.32412,0,0,1,2.04807.66964,1.24135,1.24135,0,0,1,.53515,1.39568c-.09978.22554-.30309.41069-.32908.65594-.02836.26768.16467.50807.20481.77424a2.10384,2.10384,0,0,1-.29948,1.024c-.24935.63924-.17661,1.36922-.42683,2.00811a2.84275,2.84275,0,0,1-1.78752,1.54527,10.8959,10.8959,0,0,1-2.96659.34365,13.19693,13.19693,0,0,1-2.05378-.05259,3.028,3.028,0,0,1-1.43691-.43685,1.24555,1.24555,0,0,1-.56181-1.20948c.09831-.47719.55986-.88467.45727-1.361a1.40693,1.40693,0,0,0-.53317-.68158.93224.93224,0,0,1-.40513-.743c.0551-.459.6543-.61109.92815-.98355.3516-.47819.08027-1.1551.1821-1.73983C245.33661,27.06733,247.27385,27.06434,248.4302,27.10819Z"/><path class="cls-36" d="M231.92754,26.489a9.903,9.903,0,0,1-2.6754,2.34892,14.32981,14.32981,0,0,1-5.73888,2.03651,14.087,14.087,0,0,1-3.381.03339,9.4392,9.4392,0,0,1-1.97883-.41718,5.643,5.643,0,0,1-1.5885-.81267,3.70486,3.70486,0,0,1-1.57885-3.284,4.32119,4.32119,0,0,1,.39361-1.27066,3.4671,3.4671,0,0,1,.96587-1.28125c.5892-.43633,1.649-.17556,2.2743.03223.53989.17861,1.05319.428,1.57742.65052.11851.0494.23645.09745.35516.14358a9.25256,9.25256,0,0,0,4.48.53737c.27863-.03629.55637-.08412.83075-.14562A9.24052,9.24052,0,0,0,230.497,22.4348a5.32875,5.32875,0,0,1,.80665-.767,1.297,1.297,0,0,1,1.0532-.2361,1.04988,1.04988,0,0,1,.50814.33337,1.363,1.363,0,0,1,.23364.387,2.408,2.408,0,0,1,.12572,1.05519A6.14708,6.14708,0,0,1,231.92754,26.489Z"/><path class="cls-37" d="M232.47587,22.5803a12.0525,12.0525,0,0,1-6.04158,4.69477,11.84168,11.84168,0,0,1-2.70015.59589,12.02192,12.02192,0,0,1-4.95173-.52385c-.07-.023-.13871-.04646-.20835-.07036a8.49345,8.49345,0,0,1-1.30121-.57934,7.104,7.104,0,0,1-1.89318-1.57407,3.4671,3.4671,0,0,1,.96587-1.28125c.5892-.43633,1.649-.17556,2.2743.03223.53989.17861,1.05319.428,1.57742.65052.11851.0494.23645.09745.35516.14358a9.25256,9.25256,0,0,0,4.48.53737c.27863-.03629.55637-.08412.83075-.14562A9.24052,9.24052,0,0,0,230.497,22.4348a5.32875,5.32875,0,0,1,.80665-.767,1.297,1.297,0,0,1,1.0532-.2361,1.04988,1.04988,0,0,1,.50814.33337A2.37133,2.37133,0,0,1,232.47587,22.5803Z"/><path class="cls-33" d="M223.51326,30.87446a14.087,14.087,0,0,1-3.381.03339,9.4392,9.4392,0,0,1-1.97883-.41718,8.06425,8.06425,0,0,1,.24787-2.65265c.05043-.18963.10757-.37653.17278-.56127a8.10934,8.10934,0,0,1,1.6232-2.75191c.11851.0494.23645.09745.35516.14358a9.25256,9.25256,0,0,0,4.48.53737,7.80621,7.80621,0,0,0-1.2983,2.66517c-.04372.16218-.08169.3267-.11447.49223A8.30073,8.30073,0,0,0,223.51326,30.87446Z"/><path class="cls-35" d="M233.67134,19.24828A11.65384,11.65384,0,0,1,218.48241,25.644a11.84065,11.84065,0,0,1-1.32525-.63833,11.65479,11.65479,0,1,1,16.51418-5.7574Z"/><path class="cls-33" d="M217.15716,25.00568a11.65509,11.65509,0,0,1,1.02962-20.82139,13.64185,13.64185,0,0,1,3.87552.38835,13.81635,13.81635,0,0,1,1.91657.62211,12.59486,12.59486,0,0,1,6.08881,5.12262,9.75382,9.75382,0,0,1,1.18319,7.34213C229.8737,23.24852,223.56836,26.52442,217.15716,25.00568Z"/><path class="cls-18" d="M229.61345,19.17582c-.00994.02166-.02046.042-.03136.06325-2.04306,3.97723-7.14546,6.08972-12.32175,4.81363-5.919-1.45906-9.69348-6.79587-8.42965-11.92014a8.99226,8.99226,0,0,1,5.08384-5.947q.43909-.20513.902-.37261a12.12622,12.12622,0,0,1,7.01819-.3168c5.919,1.45907,9.69348,6.79589,8.43061,11.92055A8.26748,8.26748,0,0,1,229.61345,19.17582Z"/><path class="cls-41" d="M229.61345,19.17582c-.00994.02166-.02046.042-.03136.06325-2.04306,3.97723-7.14546,6.08972-12.32175,4.81363-5.919-1.45906-9.69348-6.79587-8.42965-11.92014a8.99226,8.99226,0,0,1,5.08384-5.947,17.104,17.104,0,0,0-3.10739,6.52641,6.61227,6.61227,0,0,0,.02818,3.863,3.03458,3.03458,0,0,0,3.00393,2.05012,4.28428,4.28428,0,0,0,2.33975-1.45378,6.35226,6.35226,0,0,1,2.189-1.71754,1.88016,1.88016,0,0,1,2.395.82263,2.47069,2.47069,0,0,1-.46345,2.08966,3.82766,3.82766,0,0,0-.81606,2.02761,2.1939,2.1939,0,0,0,1.63365,1.8708,4.99029,4.99029,0,0,0,2.61788-.08939A14.72845,14.72845,0,0,0,229.61345,19.17582Z"/><ellipse class="cls-33" cx="233.90478" cy="19.66519" rx="3.4882" ry="2.39437" transform="translate(127.43699 228.86074) rotate(-67.83243)"/><path class="cls-35" d="M235.75743,20.42021c-.40786,1.001-1.29544,1.58522-1.98292,1.30512a.96386.96386,0,0,1-.37355-.27407,2.05178,2.05178,0,0,1-.1317-2.04482,2.05173,2.05173,0,0,1,1.52323-1.37053.96377.96377,0,0,1,.45872.065C235.93869,18.381,236.16528,19.41918,235.75743,20.42021Z"/><path class="cls-42" d="M234.92516,20.08111a2.05008,2.05008,0,0,1-1.5242,1.37015,2.05178,2.05178,0,0,1-.1317-2.04482,2.05173,2.05173,0,0,1,1.52323-1.37053A2.05006,2.05006,0,0,1,234.92516,20.08111Z"/><path class="cls-33" d="M234.12187,17.70811l-.01866-.00821a.36235.36235,0,0,1-.17239-.4826L238.087,8.44148a.36238.36238,0,0,1,.655.31021l-4.15619,8.77583A.36242.36242,0,0,1,234.12187,17.70811Z"/><path class="cls-43" d="M179.88906,44.018a29.444,29.444,0,0,1-2.13672,2.11578q-.18744.1673-.37729.33a24.39794,24.39794,0,0,1-11.764,5.66187,19.81953,19.81953,0,0,1-3.68318.26459,7.79544,7.79544,0,0,1-2.78767-.47537,3.57687,3.57687,0,0,1-2.018-1.89567,3.81735,3.81735,0,0,1,1.36008-4.11462,9.626,9.626,0,0,1,3.35-1.6468l.00094.00044c.27689-.08886.55525-.1736.83225-.25784,3.07819-.937,6.26687-2.013,8.76856-3.956a12.29061,12.29061,0,0,0,1.78649-1.69049c.03884-.04575.07769-.09152.1156-.13773,1.89921-2.28432,2.83158-5.205,3.8444-8.00288a31.63293,31.63293,0,0,1,1.52719-3.64487,13.97758,13.97758,0,0,1,1.90925-2.89358,4.94346,4.94346,0,0,1,1.652-1.54679,4.63084,4.63084,0,0,1,5.038,1.50505,5.88441,5.88441,0,0,1,1.03632,4.013,14.33789,14.33789,0,0,1-1.08292,4.08085A39.249,39.249,0,0,1,179.88906,44.018Z"/><path class="cls-37" d="M165.61109,52.12568a19.81953,19.81953,0,0,1-3.68318.26459,7.79544,7.79544,0,0,1-2.78767-.47537,3.57687,3.57687,0,0,1-2.018-1.89567,3.81735,3.81735,0,0,1,1.36008-4.11462,9.626,9.626,0,0,1,3.35-1.6468l.00094.00044a5.6492,5.6492,0,0,1,1.44714.59452,5.9356,5.9356,0,0,1,2.86668,5.112A4.63735,4.63735,0,0,1,165.61109,52.12568Z"/><path class="cls-37" d="M179.88906,44.018a29.444,29.444,0,0,1-2.13672,2.11578q-.18744.1673-.37729.33a10.53472,10.53472,0,0,0-4.91432-5.977,6.17975,6.17975,0,0,0-1.02657-.44241,12.29061,12.29061,0,0,0,1.78649-1.69049c.03884-.04575.07769-.09152.1156-.13773a26.45918,26.45918,0,0,1,4.44446,3.3639A13.087,13.087,0,0,1,179.88906,44.018Z"/><path class="cls-44" d="M163.99941,51.12864a2.63446,2.63446,0,0,1-1.3581,1.13151,9.72068,9.72068,0,0,1-2.55766.48348,4.97072,4.97072,0,0,0-2.45354.80313c-.06745.05054-.13249.10567-.19566.16168-.12546.11015-.2447.229-.36351.34684-.1247.1231-.24892.24759-.38073.36389a1.86586,1.86586,0,0,1-1.14081.53216.90814.90814,0,0,1-.93858-.70088.96017.96017,0,0,1-1.73063-.4893.75335.75335,0,0,1-1.28908-.48078c.01152.191-.73375.12234-.82678.1035a.668.668,0,0,1-.57693-.53083,1.41657,1.41657,0,0,1,.04734-.74852,3.2167,3.2167,0,0,1,.68648-1.19857,4.28343,4.28343,0,0,1,.38166-.3852q.06-.05409.12275-.10686a10.861,10.861,0,0,1,1.76483-1.12684q1.86541-1.02594,3.7285-2.05188a7.78981,7.78981,0,0,1,2.76879-1.08918,3.83322,3.83322,0,0,1,.74672-.01422,4.09444,4.09444,0,0,1,1.88467.63094,4.33778,4.33778,0,0,1,1.62551,1.931c.02537.06014.05075.12025.07337.18137A2.76346,2.76346,0,0,1,163.99941,51.12864Z"/><path class="cls-37" d="M163.94465,48.69371q-1.00555.50172-2.01434,1.003A3.7359,3.7359,0,0,1,157.554,49.584a2.11155,2.11155,0,0,1-.576-.38266.71778.71778,0,0,1-.21551-.63124.999.999,0,0,1,.36808-.49932,9.62967,9.62967,0,0,1,1.61994-1.10148,12.50224,12.50224,0,0,1,1.684-.83749,4.09444,4.09444,0,0,1,1.88467.63094A4.33778,4.33778,0,0,1,163.94465,48.69371Z"/><path class="cls-37" d="M157.43445,53.70844c-.12546.11015-.2447.229-.36351.34684a1.96414,1.96414,0,0,0-.44913-.40391,1.9931,1.9931,0,0,0-1.29548-.30509,1.779,1.779,0,0,0-.75342-.77018.80946.80946,0,0,0-.7253-.065,1.27574,1.27574,0,0,0-.54162-.59087,1.37666,1.37666,0,0,0-.81834-.14909c-.018.00177-.01458-.01034-.03181-.01506a1.58936,1.58936,0,0,0-1.53462-.85016,4.28343,4.28343,0,0,1,.38166-.3852,1.9076,1.9076,0,0,1,1.28571.7976,1.68858,1.68858,0,0,1,1.65612.66367,2.07106,2.07106,0,0,1,.77311.13573.75759.75759,0,0,1,.47047.62018,1.96226,1.96226,0,0,1,1.494.42772A1.8312,1.8312,0,0,1,157.43445,53.70844Z"/><path class="cls-44" d="M186.01882,53.13458l-7.38217,2.305-33.67722,10.517-2.239.6988-4.21172,1.31491c-.031.0321-.061.06458-.09155.09574-.032-.01194-.06407-.02387-.09571-.03676a4.19038,4.19038,0,0,1-1.12634-.65456,3.12257,3.12257,0,0,1-.27159-.25264,1.6435,1.6435,0,0,1,.57369-2.85417c.02508-.01215.0515-.02486.07849-.03623a5.42512,5.42512,0,0,1,1.433-.38884c.23285-.03368.50946-.08421.82712-.15044.59431-.12232,1.33066-.29969,2.18034-.51921.4622-.11914.95814-.25248,1.4826-.39544,9.72146-2.66554,29.32966-9.187,29.32966-9.187A95.21784,95.21784,0,0,1,186.01882,53.13458Z"/><path class="cls-45" d="M138.50873,67.97031c-.031.0321-.061.06458-.09155.09574-.032-.01194-.06407-.02387-.09571-.03676l-1.13971.35513-1.39672.43713c-.02611.02291-.05086.04525-.07658.0672l-.01416-.03932-1.93691.605c-3.75693-1.1953-.47173-11.83506-.47173-11.83506l.01058-.00128c.1586-.02706,2.11472-.29777,4.36457,1.78386a5.9442,5.9442,0,0,1,.80928.92785l.02553.03612a8.92116,8.92116,0,0,1,1.34017,3.3265,10.08629,10.08629,0,0,1,.20231,1.7069A7.25161,7.25161,0,0,1,138.50873,67.97031Z"/><path class="cls-46" d="M136.92354,67.12209a4.75272,4.75272,0,0,1-1.1385,1.69946c-.02611.02291-.05086.04525-.07658.0672l-.01416-.03932-1.93691.605-.18456.05783c-1.80265-.33644-3.33632-2.68862-3.56179-5.64481-.25139-3.29319,1.21406-6.09148,3.27462-6.24808l.01058-.00128c1.53748-.11034,2.96943,1.28139,3.7,3.36561a9.15981,9.15981,0,0,1,.47606,2.3137,9.62124,9.62124,0,0,1,.02494.97053c-.00632.23779-.02128.47206-.046.70013l-.00043.00653c-.02323.23538-.05719.46416-.099.68749l-.00021.00326A7.26226,7.26226,0,0,1,136.92354,67.12209Z"/><path class="cls-45" d="M142.72045,66.6554l-4.21172,1.31491c-.031.0321-.061.06458-.09155.09574-.032-.01194-.06407-.02387-.09571-.03676l-1.13971.35513c-.00809-.32863-.00343-.6666.01337-1.00969.02629-.56394.08131-1.14077.15647-1.7094l.00021-.00326q.04578-.347.099-.68749l.00043-.00653c.03889-.24912.08123-.49573.12449-.73636a37.50658,37.50658,0,0,1,.9199-3.86578l.01179-.03991.01058-.00128c.15861-.02706,2.11471-.29776,4.36457,1.78386a5.7636,5.7636,0,0,1,.61617.66918,8.32393,8.32393,0,0,1,1.4607,3.17884Z"/><path class="cls-46" d="M137.18176,68.38442l-1.39672.43713c-.02611.02291-.05086.04525-.07658.0672l-.01416-.03932a9.18783,9.18783,0,0,1-.4619-2.27438c-.18379-2.40815.5509-4.55164,1.76383-5.59136a2.62423,2.62423,0,0,1,1.47386-.6539.33968.33968,0,0,1,.03732-.00379l.01058-.00128c1.40631-.10119,2.725,1.05546,3.49814,2.84848a8.92973,8.92973,0,0,1,.67752,2.8318q.02531.32892.0268.6504l-4.21172,1.31491c-.031.0321-.061.06458-.09155.09574-.032-.01194-.06407-.02387-.09571-.03676Z"/><path class="cls-43" d="M202.087,47.9088l-2.21085.69014-16.77831,5.23948-8.01888,2.504a7.4388,7.4388,0,0,1-.751-.59333c-4.62987-4.16485-1.28832-11.71049.43384-16.76877q1.00369-2.94505,2.17258-5.83177a41.79226,41.79226,0,0,1,2.3151-4.93854,17.80194,17.80194,0,0,1,3.53581-4.54852,13.9569,13.9569,0,0,1,4.61529-2.728,18.63324,18.63324,0,0,1,10.4354-.44722,15.72952,15.72952,0,0,1,5.47154,2.30754q.37989.26547.73952.564a10.10909,10.10909,0,0,1,1.86979,2.043,9.20649,9.20649,0,0,1,.52955.86532,8.50646,8.50646,0,0,1,.98956,3.10315c.261,2.33674-.48016,4.70456-1.21185,6.97785-.72621,2.25986-1.45572,4.52509-2.25658,6.76237C203.38707,44.729,202.76886,46.33407,202.087,47.9088Z"/><path class="cls-44" d="M202.087,47.9088l-2.21085.69014-16.77831,5.23948-8.01888,2.504a7.4388,7.4388,0,0,1-.751-.59333c-4.62987-4.16485-1.28832-11.71049.43384-16.76877q1.00369-2.94505,2.17258-5.83177a41.79226,41.79226,0,0,1,2.3151-4.93854,17.80194,17.80194,0,0,1,3.53581-4.54852,13.9569,13.9569,0,0,1,4.61529-2.728c-.11975.11556-.23446.22422-.32453.32728a24.55765,24.55765,0,0,0-1.55656,2.01211,28.89,28.89,0,0,0-3.411,6.43737q-.49287,1.30848-.85605,2.66087c-.52237,1.95163-.77154,4.237.49736,5.80942a4.447,4.447,0,0,0,4.22935,1.37212,5.10663,5.10663,0,0,0,1.01446-.28095,9.072,9.072,0,0,0,4.14159-3.821c1.01419-1.6193,1.76056-3.39358,2.76-5.02337a18.93464,18.93464,0,0,1,7.30208-6.83087,7.83722,7.83722,0,0,1,2.11024-.80269q.37989.26547.73952.564a10.10909,10.10909,0,0,1,1.86979,2.043,12.81857,12.81857,0,0,0-7.45284,5.93318c-1.86285,3.0355-2.79847,6.53377-3.71144,9.97641a22.27472,22.27472,0,0,0,9.215,1.7991C203.38707,44.729,202.76886,46.33407,202.087,47.9088Z"/><path class="cls-47" d="M176.62107,38.877a4.31478,4.31478,0,0,0,1.26248,1.59764c.76064.49,13.6381,5.04649,14.60942,4.06186s3.24348-8.83619,3.2723-9.53715-.9692-1.72555-.9692-1.72555Z"/><path class="cls-37" d="M180.63713,29.02s13.2925,3.55051,14.15894,4.25377-1.73875,9.40574-2.67516,10.1917-14.67851-3.73778-15.49984-4.5885S179.47259,28.7061,180.63713,29.02Z"/><polygon class="cls-47" points="191.321 42.622 189.54 42.091 191.679 34.891 192.313 35.054 193.589 35.382 191.457 42.188 191.321 42.622"/><polygon class="cls-48" points="191.457 42.188 190.297 41.842 192.313 35.054 193.589 35.382 191.457 42.188"/><path class="cls-43" d="M205.22508,14.51374l-.01866-.00821a.36237.36237,0,0,1-.1724-.48261l4.15619-8.77583a.36237.36237,0,0,1,.655.31022L205.689,14.33313A.36244.36244,0,0,1,205.22508,14.51374Z"/><path class="cls-37" d="M203.03075,23.29464a9.90291,9.90291,0,0,1-2.6754,2.34893,14.32974,14.32974,0,0,1-5.73889,2.0365,14.0855,14.0855,0,0,1-3.381.03339,9.439,9.439,0,0,1-1.97882-.41717,5.64312,5.64312,0,0,1-1.58851-.81268,3.70482,3.70482,0,0,1-1.57884-3.284,4.32116,4.32116,0,0,1,.39361-1.27066,3.46733,3.46733,0,0,1,.96586-1.28125c.5892-.43632,1.649-.17555,2.27431.03223.53989.17861,1.05318.428,1.57741.65053.11851.0494.23644.09745.35517.14359a9.25251,9.25251,0,0,0,4.48.53735c.27864-.03627.55639-.08411.83074-.1456a9.24082,9.24082,0,0,0,4.63387-2.62538,5.32875,5.32875,0,0,1,.80664-.767,1.297,1.297,0,0,1,1.0532-.2361,1.05,1.05,0,0,1,.50814.33337,1.36284,1.36284,0,0,1,.23363.387,2.40761,2.40761,0,0,1,.12573,1.05518A6.147,6.147,0,0,1,203.03075,23.29464Z"/><path class="cls-44" d="M203.57907,19.38592a12.05257,12.05257,0,0,1-6.04159,4.69478,11.842,11.842,0,0,1-2.70013.59588,12.02164,12.02164,0,0,1-4.95174-.52386c-.07-.02295-.13871-.04645-.20834-.07035a8.49161,8.49161,0,0,1-1.30121-.57934,7.10324,7.10324,0,0,1-1.89318-1.57408,3.46733,3.46733,0,0,1,.96586-1.28125c.5892-.43632,1.649-.17555,2.27431.03223.53989.17861,1.05318.428,1.57741.65053.11851.0494.23644.09745.35517.14359a9.25251,9.25251,0,0,0,4.48.53735c.27864-.03627.55639-.08411.83074-.1456a9.24082,9.24082,0,0,0,4.63387-2.62538,5.32875,5.32875,0,0,1,.80664-.767,1.297,1.297,0,0,1,1.0532-.2361,1.05,1.05,0,0,1,.50814.33337A2.37111,2.37111,0,0,1,203.57907,19.38592Z"/><path class="cls-44" d="M194.61646,27.68007a14.0855,14.0855,0,0,1-3.381.03339,9.439,9.439,0,0,1-1.97882-.41717,8.0638,8.0638,0,0,1,.24787-2.65266c.05043-.18962.10756-.37653.17278-.56126a8.10922,8.10922,0,0,1,1.62319-2.75191c.11851.0494.23644.09745.35517.14359a9.25251,9.25251,0,0,0,4.48.53735,7.8065,7.8065,0,0,0-1.29829,2.66518c-.04372.16218-.0817.32671-.11448.49223A8.30066,8.30066,0,0,0,194.61646,27.68007Z"/><path class="cls-43" d="M204.77453,16.0539a11.65384,11.65384,0,0,1-15.18893,6.39574,11.84588,11.84588,0,0,1-1.32525-.63834,11.65479,11.65479,0,1,1,16.51418-5.7574Z"/><path class="cls-37" d="M188.26035,21.8113A11.65509,11.65509,0,0,1,189.29.98992a13.641,13.641,0,0,1,3.87551.38834,13.81462,13.81462,0,0,1,1.91657.62212A12.59469,12.59469,0,0,1,201.17088,7.123a9.75365,9.75365,0,0,1,1.18318,7.34212C200.97691,20.05414,194.67156,23.33005,188.26035,21.8113Z"/><path class="cls-18" d="M200.71665,15.98144c-.00995.02166-.02045.042-.03136.06324-2.04305,3.97723-7.14545,6.08973-12.32174,4.81364-5.919-1.45906-9.69349-6.79588-8.42966-11.92014a8.99222,8.99222,0,0,1,5.08383-5.947q.43913-.20511.902-.37261a12.12614,12.12614,0,0,1,7.01819-.31679c5.919,1.45906,9.69349,6.79588,8.43062,11.92054A8.268,8.268,0,0,1,200.71665,15.98144Z"/><path class="cls-41" d="M200.71665,15.98144c-.00995.02166-.02045.042-.03136.06324-2.04305,3.97723-7.14545,6.08973-12.32174,4.81364-5.919-1.45906-9.69349-6.79588-8.42966-11.92014a8.99222,8.99222,0,0,1,5.08383-5.947,17.104,17.104,0,0,0-3.10738,6.52641,6.61244,6.61244,0,0,0,.02817,3.863,3.0346,3.0346,0,0,0,3.00393,2.05011A4.28426,4.28426,0,0,0,187.2822,13.977a6.35214,6.35214,0,0,1,2.189-1.71756,1.88016,1.88016,0,0,1,2.395.82263,2.47068,2.47068,0,0,1-.46345,2.08966,3.82756,3.82756,0,0,0-.81606,2.02761,2.19388,2.19388,0,0,0,1.63365,1.8708,4.99032,4.99032,0,0,0,2.61789-.08937A14.72869,14.72869,0,0,0,200.71665,15.98144Z"/><ellipse class="cls-49" cx="205.00799" cy="16.47081" rx="3.48821" ry="2.39438" transform="translate(112.40153 200.11069) rotate(-67.83238)"/><path class="cls-43" d="M206.86063,17.22583c-.40785,1.001-1.29543,1.58522-1.98292,1.30511a.96388.96388,0,0,1-.37354-.27405,2.05173,2.05173,0,0,1-.1317-2.04482,2.05173,2.05173,0,0,1,1.52323-1.37054.96385.96385,0,0,1,.45871.065C207.04189,15.18666,207.26848,16.22481,206.86063,17.22583Z"/><path class="cls-44" d="M206.02836,16.88674a2.05012,2.05012,0,0,1-1.52419,1.37015,2.05173,2.05173,0,0,1-.1317-2.04482,2.05173,2.05173,0,0,1,1.52323-1.37054A2.05013,2.05013,0,0,1,206.02836,16.88674Z"/><path class="cls-43" d="M208.2049,60.0643a6.31962,6.31962,0,0,1-4.34034-2.53756,9.936,9.936,0,0,1-.59623-.83883,20.68638,20.68638,0,0,1-1.75934-3.74659,63.12694,63.12694,0,0,1-2.10656-6.32979c-.282-1.06407-.52237-2.1369-.706-3.22015-.14978-.87269-.261-1.75206-.32827-2.63806a22.67055,22.67055,0,0,1,.21459-5.41649c.48478-2.92954,1.5909-6.30019,4.02959-8.1642,2.29921-1.7576,4.73333.40133,4.86161,2.921a18.12492,18.12492,0,0,1-.54829,4.02389,21.72221,21.72221,0,0,0,.06006,7.53855c.14984.86154.343,1.71836.574,2.56715a39.62522,39.62522,0,0,0,3.418,8.322,13.45367,13.45367,0,0,1,1.23832,2.78076,3.98157,3.98157,0,0,1,.03583,2.18131A3.93709,3.93709,0,0,1,208.2049,60.0643Z"/><path class="cls-37" d="M207.55977,44.22324a15.26561,15.26561,0,0,0-8.15734,2.38829c-.282-1.06407-.52237-2.1369-.706-3.22015.1776-.08193.34149-.1549.479-.22074a15.90568,15.90568,0,0,1,6.1427-1.53213,15.36588,15.36588,0,0,1,1.66759.01758C207.13557,42.51763,207.32871,43.37445,207.55977,44.22324Z"/><path class="cls-37" d="M203.02647,31.90145a2.43969,2.43969,0,0,1,.90545-1.59935,1.00547,1.00547,0,0,1,.95275-.17828,1.15753,1.15753,0,0,1,.566.85705,3.57674,3.57674,0,0,1-.6033,2.86984,1.72185,1.72185,0,0,1-.61673.55449C202.78833,35.09409,202.90456,32.62138,203.02647,31.90145Z"/><path class="cls-37" d="M208.2049,60.0643a6.31962,6.31962,0,0,1-4.34034-2.53756,9.936,9.936,0,0,1-.59623-.83883c.0864-.16269.17312-.31518.253-.4481a5.44216,5.44216,0,0,1,1.843-1.8507,5.59811,5.59811,0,0,1,4.49123-.52463,5.69963,5.69963,0,0,1,2.36053,1.46149,3.98157,3.98157,0,0,1,.03583,2.18131A3.93709,3.93709,0,0,1,208.2049,60.0643Z"/><path class="cls-44" d="M213.56161,65.38951a1.42516,1.42516,0,0,1-.47688.58048.55932.55932,0,0,1-.69242-.04844,1.09365,1.09365,0,0,1-1.51469.00222.97223.97223,0,0,1-1.39506-.63435,1.83893,1.83893,0,0,1-.65884.20113.61109.61109,0,0,1-.58047-.29577.99314.99314,0,0,1,.106-.79531,6.61986,6.61986,0,0,0,.24666-.68768,4.7203,4.7203,0,0,0,.16-.75766,3.57449,3.57449,0,0,0,.0238-.62645,2.47547,2.47547,0,0,0-.89472-1.84589.9206.9206,0,0,0-.645-.22254.85266.85266,0,0,0-.61971.99966,1.19079,1.19079,0,0,0,.03572.15654,1.72271,1.72271,0,0,0,.2485.49591,4.56133,4.56133,0,0,0,.37145.45209,1.4223,1.4223,0,0,1,.3119.44459.48475.48475,0,0,1-.08921.51259c-.452.41509-1.00061-.1729-1.40952-.81019-.11651-.18051-.22224-.36556-.31075-.53245-.12235-.23207-.21262-.42761-.25732-.53191a6.99834,6.99834,0,0,1-.61759-2.1008,2.86084,2.86084,0,0,1,.55973-2.08173,3.4278,3.4278,0,0,1,1.71542-.99709,4.78863,4.78863,0,0,1,3.87275.31007,6.0291,6.0291,0,0,1,1.42506,1.3867,9.94754,9.94754,0,0,1,1.17908,1.75715,6.25738,6.25738,0,0,1,.54134,3.77245c-.02625.166-.06094.33069-.1014.49309A6.07036,6.07036,0,0,1,213.56161,65.38951Z"/><path class="cls-37" d="M206.90452,61.91136c-.01485.00626-.02834.01192-.04221.01858a2.48138,2.48138,0,0,0-.77317.5805c-.11651-.18051-.22224-.36556-.31075-.53245a1.78537,1.78537,0,0,1,.87763-.56254A1.72271,1.72271,0,0,0,206.90452,61.91136Z"/><path class="cls-37" d="M214.09546,63.98592c-.01055-.0043-.02109-.00859-.032-.01193a.88412.88412,0,0,0-.78155.12094.53129.53129,0,0,0-.59242-.23354,1.556,1.556,0,0,0-.59431.33362.77372.77372,0,0,0-1.2257-.29815.81057.81057,0,0,0-1.31745-.20473.7155.7155,0,0,0-.82116-.06178,1.377,1.377,0,0,0-.13491.08144,4.7203,4.7203,0,0,0,.16-.75766,1.10082,1.10082,0,0,1,1.15664.09447.70182.70182,0,0,1,.60323-.07283.773.773,0,0,1,.47078.43329.63751.63751,0,0,1,.26077-.15984.72029.72029,0,0,1,.30719-.0213.77394.77394,0,0,1,.55335.35961.69137.69137,0,0,1,.51167-.24879.80692.80692,0,0,1,.57731.21845.87025.87025,0,0,1,.57194-.17169,1.35264,1.35264,0,0,1,.42807.10733C214.17061,63.65878,214.13592,63.82352,214.09546,63.98592Z"/></g></g></g></svg>