<svg xmlns="http://www.w3.org/2000/svg" viewBox="0 0 223.14 328.46"><defs><style>.cls-1{isolation:isolate;}.cls-2{fill:#ddd;}.cls-3{fill:#ccc;}.cls-4{fill:#f2f2f2;}.cls-5{fill:#bfbfbf;}.cls-6{fill:#a5a5a5;}.cls-7{fill:#fb3755;}.cls-16,.cls-8{fill:#d33144;}.cls-9{fill:#fb495e;}.cls-10{fill:#c6122c;}.cls-11{fill:#fdcc7c;}.cls-12{fill:#b40a13;}.cls-13{fill:#011341;}.cls-14{fill:#0b2358;}.cls-15{fill:#f0f1f1;}.cls-16{opacity:0.15;mix-blend-mode:multiply;}.cls-17{fill:#c3c2be;}</style></defs><title>invalid-unsub</title><g class="cls-1"><g id="Layer_2" data-name="Layer 2"><g id="Layer_1-2" data-name="Layer 1"><path class="cls-2" d="M223.14,216.89A111.59,111.59,0,1,1,191,138.51,111.57,111.57,0,0,1,223.14,216.89Z"/><path class="cls-3" d="M223.14,216.89a111.57,111.57,0,0,1-200,68C30.69,291,39,296.37,48.3,299.55c13,4.44,27.12,4.42,40.63,2.17,40.55-6.75,77.09-34.22,94.84-71.3,13.58-28.36,15.88-61.75,7.19-91.91A111.19,111.19,0,0,1,223.14,216.89Z"/><path class="cls-4" d="M51.23,150.33a2.83,2.83,0,0,0-1.71-.5h0L46.07,149l-2.8,3.72a38.38,38.38,0,0,0-7,7.32,38.87,38.87,0,0,0-5,8.66l-2.78,3.7,2,4h0a2.43,2.43,0,0,0,.7.82c1.12.85,2.93.61,5-.49,3-1.56,6.69-4.85,9.95-9.21,4-5.33,6.28-10.81,6.23-14.21A3.58,3.58,0,0,0,51.23,150.33Z"/><path class="cls-5" d="M48,152c0,3-2,7.88-5.54,12.62-2.89,3.87-6.14,6.79-8.82,8.17-1.88,1-3.48,1.19-4.48.44-2.43-1.82-.42-8.62,4.5-15.2s10.88-10.43,13.31-8.61A3.13,3.13,0,0,1,48,152Z"/><path class="cls-6" d="M48,152c0,3-2,7.88-5.54,12.62-2.89,3.87-6.14,6.79-8.82,8.17,0-3,2-7.88,5.53-12.61C42,156.26,45.28,153.33,48,152Z"/><path class="cls-4" d="M17.58,226.5a2.81,2.81,0,0,0-1.41,1.08h0l-2.72,2.29,1.36,4.46a38.14,38.14,0,0,0,1.76,10,38.75,38.75,0,0,0,4.05,9.12L22,257.88l4.36.72h0a2.4,2.4,0,0,0,1.07-.08c1.35-.41,2.21-2,2.58-4.36.52-3.36,0-8.26-1.57-13.46-1.95-6.37-5-11.45-7.8-13.42A3.53,3.53,0,0,0,17.58,226.5Z"/><path class="cls-5" d="M17,230.09c2.47,1.75,5.19,6.26,6.93,11.91,1.41,4.62,1.86,9,1.39,11.95C25,256,24.19,257.46,23,257.83c-2.9.89-7.21-4.75-9.61-12.6s-2-14.94.89-15.83A3.1,3.1,0,0,1,17,230.09Z"/><path class="cls-6" d="M17,230.09c2.47,1.75,5.19,6.26,6.93,11.91,1.41,4.62,1.86,9,1.39,11.95-2.47-1.74-5.19-6.25-6.92-11.91A28.73,28.73,0,0,1,17,230.09Z"/><path class="cls-4" d="M69.63,294.09a4.32,4.32,0,0,0,.33,2.77h0l.92,5.53L78,304.13a60.51,60.51,0,0,0,15,5.66,61.31,61.31,0,0,0,15.62,1.84l7.09,1.73,4.48-5.32h0a3.92,3.92,0,0,0,.76-1.51c.52-2.15-.94-4.61-3.84-7-4.13-3.41-11.17-6.67-19.5-8.69-10.2-2.48-19.55-2.41-24.44-.22C71.22,291.46,70,292.62,69.63,294.09Z"/><path class="cls-5" d="M74,297.81c4.35-1.94,12.65-2,21.7.19,7.39,1.79,13.65,4.69,17.31,7.72,2.58,2.12,3.88,4.3,3.41,6.22-1.13,4.64-12.23,5.94-24.8,2.89s-21.84-9.29-20.72-13.93A4.9,4.9,0,0,1,74,297.81Z"/><path class="cls-6" d="M74,297.81c4.35-1.94,12.65-2,21.7.19,7.39,1.79,13.65,4.69,17.31,7.72-4.35,1.94-12.65,2-21.7-.2C83.91,303.73,77.65,300.84,74,297.81Z"/><path class="cls-4" d="M180.12,272.35a4.42,4.42,0,0,0,2.79.29h0l5.6.31,3.27-6.56a65.09,65.09,0,0,0,14-28.18l3.26-6.53-4.21-5.54h0a4,4,0,0,0-1.31-1.07c-2-1-4.71-.1-7.68,2.2-4.23,3.28-9,9.43-12.77,17.1-4.66,9.41-6.65,18.54-5.6,23.8C177.91,270.22,178.77,271.68,180.12,272.35Z"/><path class="cls-5" d="M184.72,268.91c-.94-4.67.83-12.77,5-21.12,3.38-6.82,7.59-12.28,11.35-15.18,2.63-2.05,5.05-2.84,6.81-2,4.29,2.12,3.11,13.24-2.64,24.83S191.33,274.74,187,272.61C185.84,272,185.08,270.73,184.72,268.91Z"/><path class="cls-6" d="M184.72,268.91c-.94-4.67.83-12.77,5-21.12,3.38-6.82,7.59-12.28,11.35-15.18.93,4.67-.83,12.77-5,21.12C192.68,260.55,188.48,266,184.72,268.91Z"/><path class="cls-4" d="M198,188.06a2.81,2.81,0,0,0,1-1.49h0L201,183.5l-2.69-3.93a42.42,42.42,0,0,0-11.58-16.87L184,158.78l-4.47.65h0a2.69,2.69,0,0,0-1,.4c-1.19.82-1.55,2.65-1.17,5.06.52,3.44,2.52,8.07,5.68,12.66,3.87,5.61,8.42,9.62,11.75,10.69A3.57,3.57,0,0,0,198,188.06Z"/><path class="cls-5" d="M197.49,184.37c-3-.94-7-4.51-10.43-9.49-2.81-4.07-4.58-8.18-5-11.24-.33-2.14,0-3.76,1-4.49,2.56-1.76,8.51,2.42,13.28,9.34s6.56,14,4,15.72A3.2,3.2,0,0,1,197.49,184.37Z"/><path class="cls-6" d="M197.49,184.37c-3-.94-7-4.51-10.43-9.49-2.81-4.07-4.58-8.18-5-11.24,2.94.94,7,4.51,10.43,9.5C195.25,177.21,197,181.32,197.49,184.37Z"/><path class="cls-4" d="M126.71,124.91a2.82,2.82,0,0,0-.7-1.68h0L124.44,120l-4.76.19a42.15,42.15,0,0,0-20.44.81l-4.74.18-1.84,4.14h0a2.53,2.53,0,0,0-.2,1.08c.06,1.43,1.41,2.71,3.65,3.68,3.19,1.39,8.18,2.16,13.74,1.93,6.82-.29,12.64-2,15.31-4.25A3.61,3.61,0,0,0,126.71,124.91Z"/><path class="cls-5" d="M123.32,123.37c-2.37,2-7.54,3.52-13.59,3.77-4.94.21-9.36-.48-12.2-1.71-2-.86-3.19-2-3.24-3.27-.13-3.11,6.57-5.91,15-6.26s15.31,1.88,15.44,5A3.2,3.2,0,0,1,123.32,123.37Z"/><path class="cls-6" d="M123.32,123.37c-2.37,2-7.54,3.52-13.59,3.77-4.94.21-9.36-.48-12.2-1.71,2.37-2,7.54-3.52,13.6-3.78C116.06,121.45,120.49,122.13,123.32,123.37Z"/><path class="cls-4" d="M160.89,245.34a15.19,15.19,0,1,1-13.13-15A15.17,15.17,0,0,1,160.89,245.34Z"/><path class="cls-6" d="M155.64,243.61a15.21,15.21,0,0,1-17.2,15,15.17,15.17,0,0,1,9.32-28.34A15.16,15.16,0,0,1,155.64,243.61Z"/><path class="cls-4" d="M53.44,219.74a15.16,15.16,0,1,1,21.36-2,14.14,14.14,0,0,1-1.41,1.48A15.15,15.15,0,0,1,53.44,219.74Z"/><path class="cls-6" d="M58.12,216.81a15.16,15.16,0,0,1-2-21.36,16.4,16.4,0,0,1,1.4-1.48,15.17,15.17,0,0,1,17.25,23.8,14.14,14.14,0,0,1-1.41,1.48A15.15,15.15,0,0,1,58.12,216.81Z"/><path class="cls-7" d="M135.38,137.38l13,1.76L163.11,30.69,149.4,28.83c-4.34,15.86-14.79,55.26-17.54,74.23C130.39,113.17,132.47,126,135.38,137.38Z"/><path class="cls-8" d="M130.56,136.73l4.82.65c-2.91-11.43-5-24.21-3.52-34.32,2.75-19,13.2-58.37,17.54-74.23l-7.33-1L128.63,78.23A101.45,101.45,0,0,0,130.56,136.73Z"/><path class="cls-9" d="M166.49,141.6A101.51,101.51,0,0,0,184,85.74l.48-52.15-21-2.86-15,108.41Z"/><polygon class="cls-9" points="148.38 139.15 163.39 30.73 163.11 30.7 148.38 139.15 148.38 139.15"/><path class="cls-10" d="M147.59,145l.79-5.87-17.82-2.41c.71,2.11,1.47,4.21,2.32,6.28Z"/><path class="cls-8" d="M147.59,145l15,2q2.05-2.67,3.91-5.45l-18.11-2.46Z"/><polygon class="cls-10" points="148.38 139.15 148.38 139.15 147.59 145.01 147.59 145.01 148.38 139.15"/><path class="cls-11" d="M165.29,16.79l-7-.95A14.18,14.18,0,0,0,142.09,27.7l0,.14,21.32,2.89Z"/><path class="cls-9" d="M139.79,65.94l-18-17.7a18.35,18.35,0,0,1-5.4-11L113,8.4c-.37-3.17.88-7.82,4.15-7.42l1.63,2A5.16,5.16,0,0,1,123,6.32l7.13,19.9,19.26,2.61Z"/><path class="cls-10" d="M140.8,61.69l-18.62-16.4a18.35,18.35,0,0,1-5.4-10.95L113.4,5.45A5,5,0,0,1,119.08,0h.1a5.16,5.16,0,0,1,4.23,3.32l7.13,19.9,18.86,5.56Z"/><path class="cls-11" d="M165,16.75l7,1a14.19,14.19,0,0,1,12.42,15.74l0,.14-21.32-2.9Z"/><path class="cls-8" d="M149.68,124l.14,0a13.82,13.82,0,1,0,3.72-27.37h-.15A13.8,13.8,0,1,0,149.68,124Z"/><path class="cls-12" d="M153.8,101.4a10.08,10.08,0,1,1-2.71,20l-.14,0-.5,3.71.14,0a13.82,13.82,0,1,0,3.71-27.37h-.14l-.5,3.71Z"/><path class="cls-10" d="M138.28,109.46A14.05,14.05,0,0,0,150.45,125l.5-3.71a10.06,10.06,0,1,1,2.71-19.94l.5-3.71A14,14,0,0,0,138.28,109.46Z"/><path class="cls-13" d="M162.78,112.78a10.26,10.26,0,0,0-9-11.38h-.14L151,121.33l.14,0A10.26,10.26,0,0,0,162.78,112.78Z"/><path class="cls-14" d="M142.11,110A10.25,10.25,0,0,0,151,121.33l2.71-19.94A10.25,10.25,0,0,0,142.11,110Z"/><path class="cls-15" d="M155.28,115.48a1.33,1.33,0,1,1,1.14,1.5A1.33,1.33,0,0,1,155.28,115.48Z"/><path class="cls-7" d="M176.47,70.92l22.08-12.26a18.37,18.37,0,0,0,8.12-9.11l11-26.94c1.2-3,2.12-7.66-1.14-8.14l-3,1.39a5.14,5.14,0,0,0-5,2.08L196.36,35.21l-19-2.54Z"/><path class="cls-8" d="M176.56,67.21,199,55a18.32,18.32,0,0,0,8.13-9.1l11-26.95a5,5,0,0,0-4-6.73H214a5.13,5.13,0,0,0-5,2.07L196.85,31.56,177.4,32.67Z"/><polygon class="cls-16" points="176.56 67.21 148.63 30.5 149.4 28.83 177.4 32.67 176.56 67.21"/><path class="cls-17" d="M173.51,151.43c-.25-.17-.67-.28-.94-.43a2.67,2.67,0,0,1-.32-.24c-.32-.22-.68-.44-1.05-.66-.69-.42-1.41-.84-2.15-1.25l-.18-.11L125.69,140l-1.29.47a5,5,0,0,1-1.9.35c-.77,0-1.67-.12-2.45-.12a.72.72,0,0,0-.28,0l2.6.51.41.07c.11,0,.22,0,.32,0a3.94,3.94,0,0,1,1.4.33s0,.15.17.19h.18a4.15,4.15,0,0,0,.62,0c.1,0,.09-.08.15-.11a.93.93,0,0,1,.8.11,2.09,2.09,0,0,0,.56.28c.2.05.44.06.64.13a1.69,1.69,0,0,1,.33.17,2.77,2.77,0,0,0,.54.21.68.68,0,0,1,.39,0,.63.63,0,0,1,.37.18l.56.06c.26,0,.51,0,.76,0-.09,0-.14-.08-.13-.12s.21-.09.42,0,.37.13.37.2h0a13.57,13.57,0,0,0,1.52.09,18.25,18.25,0,0,1,2.28-.14l-.81.27c-.21.07-.5.08-.52.22s0,.1,0,.13a.34.34,0,0,1-.16.05,22.18,22.18,0,0,1-3.8,0,27.14,27.14,0,0,0-2.86,0c1.48.09,3,.18,4.55.4a6.19,6.19,0,0,0,.82.07,4.44,4.44,0,0,0,.68-.1,6.58,6.58,0,0,0,.83-.06,1,1,0,0,1,.62-.1,1.67,1.67,0,0,1,.43.16A4.44,4.44,0,0,0,137,144c.39,0,.83,0,1.27,0-.15,0,.33.47.4.53a2.87,2.87,0,0,0,.93.32c.36.09.74.14,1.09.24a7.64,7.64,0,0,1,.81.29h0c0-.07.21-.09.42,0s.39.14.37.2,0,.05-.11.06c.62.15,1.25.18,1.86.36a5.71,5.71,0,0,1,1.45.6.34.34,0,0,1,.12.13l.22,0c.21,0,.38.14.37.2s-.21.09-.42.05h0c.08.11.15.22.23.32a.25.25,0,0,0,.1.11,1.44,1.44,0,0,0,.39.15l.1,0s0,0,0,0a1.71,1.71,0,0,1,.64-.46,3.28,3.28,0,0,1,1.19,0l.65,0a.08.08,0,0,1,0,0c0-.07.21-.09.42,0a.73.73,0,0,1,.34.14.89.89,0,0,0,.6-.11.76.76,0,0,1,.63-.24c-.07.46,1.53,1.1,2.61,1.48a4.73,4.73,0,0,1,1,.45c.11.09.16.17.27.25a5,5,0,0,0,1.22.48c1.36.4,2.78.76,4.21,1.06a39.4,39.4,0,0,1-3.92-1.44.69.69,0,0,1-.33-.21s0-.05,0-.09a1.79,1.79,0,0,0-.4-.22,1.5,1.5,0,0,1-.33-.25,1.91,1.91,0,0,1-.32-.43c-.29-.39-.83-.8-.92-1.16a4.78,4.78,0,0,0,1.13.77,25.56,25.56,0,0,0,3.61,1.66c.32.12.65.23,1,.33a.57.57,0,0,1,.41,0c.21,0,.38.14.37.21s0,0,0,0c.95.26,1.91.51,2.87.8a16.71,16.71,0,0,0,2.16.58,4.57,4.57,0,0,0-1.14-.46l-2.42-.78c-.32-.1-.73-.33-.22-.29a7.07,7.07,0,0,1,1.44.38,3,3,0,0,0,.45.14c.47.09.6-.1.9-.16a5.38,5.38,0,0,1,1.9.26c.75.21,1.43.48,2.21.63l.2,0c.05,0,.09,0,.07-.05l-.08,0-1-.39a2.7,2.7,0,0,1-1.28-.92,17.53,17.53,0,0,1,2.17.85.79.79,0,0,1,.38,0c.21,0,.38.14.36.21s-.05.05-.13.06l.49.2a.71.71,0,0,1,.36,0c.21,0,.38.14.37.21s0,0,0,0a6.49,6.49,0,0,0,.7.18c.36.08.74.13,1.1.19l.95.14a.48.48,0,0,0,.17,0S173.56,151.46,173.51,151.43Z"/></g></g></g></svg>