<svg xmlns="http://www.w3.org/2000/svg" xmlns:xlink="http://www.w3.org/1999/xlink" viewBox="0 0 377 709"><defs><style>.cls-1{fill:url(#linear-gradient);}.cls-2{fill:#c6e6f3;}.cls-3{fill:#68cdf3;}.cls-4{fill:#ffe779;}.cls-5{fill:#dd503f;}.cls-6{fill:#fff;}.cls-7{fill:#010b25;}</style><linearGradient id="linear-gradient" x1="5275" y1="2661.71" x2="5984" y2="2661.71" gradientTransform="translate(-5440.79 -2307.21)" gradientUnits="userSpaceOnUse"><stop offset="0" stop-color="#021433"/><stop offset="1" stop-color="#010b25"/></linearGradient></defs><title>banner-mobile-dark</title><g id="Layer_2" data-name="Layer 2"><g id="Layer_1-2" data-name="Layer 1"><rect class="cls-1" x="-165.79" y="166.21" width="709" height="376.58" transform="translate(-165.79 543.21) rotate(-90)"/><path class="cls-2" d="M257.49,588.71a1.11,1.11,0,1,1-1.11-1.11A1.11,1.11,0,0,1,257.49,588.71Z"/><path class="cls-2" d="M275.88,642.33a.63.63,0,1,1-.63-.62A.63.63,0,0,1,275.88,642.33Z"/><path class="cls-3" d="M289.92,632.87a.63.63,0,1,1-.62-.62A.63.63,0,0,1,289.92,632.87Z"/><path class="cls-2" d="M192.18,599.73a.63.63,0,1,1-.62-.62A.63.63,0,0,1,192.18,599.73Z"/><path class="cls-2" d="M193.24,637.07a.43.43,0,0,1-.86,0,.43.43,0,1,1,.86,0Z"/><path class="cls-2" d="M198.69,679.48a.65.65,0,1,1-.65-.64A.65.65,0,0,1,198.69,679.48Z"/><path class="cls-2" d="M200.54,691a.65.65,0,1,1-.65-.65A.65.65,0,0,1,200.54,691Z"/><path class="cls-2" d="M299.17,699.34a.65.65,0,1,1-.65-.65A.65.65,0,0,1,299.17,699.34Z"/><path class="cls-2" d="M201.52,577.66a.64.64,0,0,1-.64.64.64.64,0,0,1-.64-.64.64.64,0,0,1,1.28,0Z"/><path class="cls-2" d="M248.13,572.55a.64.64,0,1,1-.64-.64A.63.63,0,0,1,248.13,572.55Z"/><path class="cls-2" d="M326.26,596.48a.65.65,0,1,1-.65-.65A.65.65,0,0,1,326.26,596.48Z"/><path class="cls-2" d="M194.75,533a.65.65,0,1,1-.64-.64A.64.64,0,0,1,194.75,533Z"/><path class="cls-2" d="M210.3,545a.64.64,0,1,1-1.28,0,.64.64,0,0,1,.64-.64A.64.64,0,0,1,210.3,545Z"/><path class="cls-2" d="M237.17,562a.65.65,0,1,1-.65-.64A.65.65,0,0,1,237.17,562Z"/><path class="cls-3" d="M277.3,538.12a.64.64,0,1,1-1.28,0,.64.64,0,0,1,.64-.64A.64.64,0,0,1,277.3,538.12Z"/><path class="cls-2" d="M300.15,594.75a.64.64,0,0,1-.64.64.65.65,0,1,1,.64-.64Z"/><path class="cls-2" d="M289.19,584.23a.65.65,0,1,1-.65-.64A.64.64,0,0,1,289.19,584.23Z"/><path class="cls-2" d="M335.8,579.12a.65.65,0,1,1-.65-.64A.65.65,0,0,1,335.8,579.12Z"/><path class="cls-2" d="M360.47,605.75a.64.64,0,1,1-.64-.64A.64.64,0,0,1,360.47,605.75Z"/><path class="cls-2" d="M207.17,560.49a.43.43,0,1,1-.43-.42A.43.43,0,0,1,207.17,560.49Z"/><path class="cls-2" d="M192.89,566.23a.43.43,0,0,1-.43.42.43.43,0,1,1,0-.85A.43.43,0,0,1,192.89,566.23Z"/><path class="cls-2" d="M220,561.72a.43.43,0,1,1-.43-.43A.42.42,0,0,1,220,561.72Z"/><path class="cls-2" d="M223.77,579.05a.43.43,0,1,1-.43-.43A.43.43,0,0,1,223.77,579.05Z"/><path class="cls-2" d="M209.49,584.78a.43.43,0,1,1-.43-.43A.43.43,0,0,1,209.49,584.78Z"/><path class="cls-2" d="M236.55,580.27a.43.43,0,1,1-.43-.43A.43.43,0,0,1,236.55,580.27Z"/><path class="cls-2" d="M197.55,617.47a.43.43,0,0,1-.43.43.43.43,0,0,1-.43-.43.44.44,0,0,1,.43-.43A.43.43,0,0,1,197.55,617.47Z"/><path class="cls-2" d="M271.55,654.26a.43.43,0,1,1-.43-.43A.42.42,0,0,1,271.55,654.26Z"/><path class="cls-2" d="M230.48,651.67a.43.43,0,0,1-.43.43.43.43,0,0,1-.43-.43.44.44,0,0,1,.43-.43A.43.43,0,0,1,230.48,651.67Z"/><path class="cls-2" d="M298,678.17a.44.44,0,0,1-.43.43.43.43,0,0,1-.43-.43.43.43,0,0,1,.43-.43A.43.43,0,0,1,298,678.17Z"/><path class="cls-2" d="M283.7,683.9a.43.43,0,1,1-.42-.43A.42.42,0,0,1,283.7,683.9Z"/><path class="cls-2" d="M310.77,679.39a.43.43,0,0,1-.86,0,.43.43,0,0,1,.86,0Z"/><path class="cls-2" d="M341.29,685.34a.43.43,0,1,1-.85,0,.43.43,0,1,1,.85,0Z"/><path class="cls-2" d="M327,691.07a.43.43,0,0,1-.43.43.43.43,0,0,1-.43-.43.44.44,0,0,1,.43-.43A.43.43,0,0,1,327,691.07Z"/><path class="cls-2" d="M354.07,686.56a.43.43,0,1,1-.85,0,.43.43,0,1,1,.85,0Z"/><path class="cls-2" d="M234.59,634.85a.43.43,0,0,1-.43.43.43.43,0,0,1,0-.86A.43.43,0,0,1,234.59,634.85Z"/><path class="cls-2" d="M309.23,659.37a.43.43,0,1,1-.43-.42A.43.43,0,0,1,309.23,659.37Z"/><path class="cls-2" d="M185,680.39a.43.43,0,1,1-.43-.43A.43.43,0,0,1,185,680.39Z"/><path class="cls-2" d="M294.23,545.61a.44.44,0,0,1-.43.43.43.43,0,0,1-.43-.43.43.43,0,0,1,.43-.43A.43.43,0,0,1,294.23,545.61Z"/><path class="cls-2" d="M346.85,604.21a.43.43,0,0,1-.86,0,.43.43,0,1,1,.86,0Z"/><path class="cls-2" d="M184.37,530.88a.25.25,0,0,1-.25.25.25.25,0,1,1,0-.5A.25.25,0,0,1,184.37,530.88Z"/><path class="cls-2" d="M260.86,571.59a.25.25,0,1,1-.25-.25A.25.25,0,0,1,260.86,571.59Z"/><path class="cls-2" d="M267.37,546.45a.25.25,0,1,1-.25-.25A.25.25,0,0,1,267.37,546.45Z"/><path class="cls-2" d="M303.67,556.76a.25.25,0,1,1-.25-.25A.26.26,0,0,1,303.67,556.76Z"/><path class="cls-2" d="M272.42,571.41a.25.25,0,1,1-.25-.25A.25.25,0,0,1,272.42,571.41Z"/><path class="cls-2" d="M218.38,639a.25.25,0,1,1-.25-.25A.26.26,0,0,1,218.38,639Z"/><path class="cls-2" d="M224.89,613.83a.25.25,0,1,1-.25-.25A.25.25,0,0,1,224.89,613.83Z"/><path class="cls-2" d="M261.19,624.15a.25.25,0,1,1-.25-.26A.25.25,0,0,1,261.19,624.15Z"/><path class="cls-2" d="M229.94,638.79a.25.25,0,1,1-.5,0,.25.25,0,0,1,.5,0Z"/><path class="cls-2" d="M349.72,590.31a.25.25,0,1,1-.25-.25A.25.25,0,0,1,349.72,590.31Z"/><path class="cls-2" d="M356.23,565.17a.25.25,0,1,1-.25-.25A.25.25,0,0,1,356.23,565.17Z"/><path class="cls-2" d="M361.28,590.13a.25.25,0,1,1-.25-.25A.25.25,0,0,1,361.28,590.13Z"/><path class="cls-2" d="M332.41,631.37a.25.25,0,1,1-.25-.25A.25.25,0,0,1,332.41,631.37Z"/><path class="cls-2" d="M242.07,553.12a.43.43,0,0,1-.43.43.43.43,0,1,1,0-.85A.42.42,0,0,1,242.07,553.12Z"/><path class="cls-2" d="M273.18,586.17a.43.43,0,0,1-.43.43.43.43,0,0,1,0-.86A.43.43,0,0,1,273.18,586.17Z"/><path class="cls-2" d="M302.75,572.64a.43.43,0,0,1-.43.43.43.43,0,0,1,0-.86A.43.43,0,0,1,302.75,572.64Z"/><path class="cls-2" d="M308.76,610.23a.43.43,0,0,1-.86,0,.43.43,0,1,1,.86,0Z"/><path class="cls-2" d="M231.61,590.71a.43.43,0,0,1-.43.43.43.43,0,0,1-.43-.43.44.44,0,0,1,.43-.43A.43.43,0,0,1,231.61,590.71Z"/><path class="cls-2" d="M193.49,551.59a.43.43,0,1,1-.43-.43A.43.43,0,0,1,193.49,551.59Z"/><path class="cls-2" d="M199.5,589.18a.43.43,0,1,1-.85,0,.43.43,0,1,1,.85,0Z"/><path class="cls-2" d="M222.53,704a.43.43,0,0,1-.43.43.43.43,0,1,1,0-.86A.43.43,0,0,1,222.53,704Z"/><path class="cls-2" d="M353.83,705.2a.43.43,0,0,1-.43.43.43.43,0,0,1,0-.86A.43.43,0,0,1,353.83,705.2Z"/><path class="cls-2" d="M346.82,547.61a.43.43,0,1,1-.43-.43A.43.43,0,0,1,346.82,547.61Z"/><path class="cls-2" d="M336.36,585.2a.43.43,0,0,1-.43.43.43.43,0,0,1,0-.86A.43.43,0,0,1,336.36,585.2Z"/><path class="cls-4" d="M287.24,706.46a.43.43,0,0,1-.43.43.44.44,0,0,1-.43-.43.43.43,0,0,1,.43-.43A.43.43,0,0,1,287.24,706.46Z"/><path class="cls-2" d="M217.58,683.9a.43.43,0,1,1-.43-.43A.43.43,0,0,1,217.58,683.9Z"/><path class="cls-2" d="M360.65,666a.43.43,0,0,1-.86,0,.43.43,0,1,1,.86,0Z"/><path class="cls-2" d="M267.08,611.61a.43.43,0,0,1-.43.43.43.43,0,0,1-.43-.43.43.43,0,0,1,.43-.43A.44.44,0,0,1,267.08,611.61Z"/><path class="cls-2" d="M321.76,645.79a.43.43,0,0,1-.43.43.43.43,0,0,1,0-.86A.43.43,0,0,1,321.76,645.79Z"/><path class="cls-5" d="M343.62,565.55a.49.49,0,1,1-.49-.48A.49.49,0,0,1,343.62,565.55Z"/><path class="cls-5" d="M282.42,665.21a.49.49,0,0,1-.49.49.48.48,0,0,1-.48-.49.47.47,0,0,1,.48-.48A.48.48,0,0,1,282.42,665.21Z"/><path class="cls-2" d="M268.67,278a1.11,1.11,0,1,1-1.11-1.11A1.11,1.11,0,0,1,268.67,278Z"/><path class="cls-2" d="M287.06,331.59a.63.63,0,1,1-.62-.62A.63.63,0,0,1,287.06,331.59Z"/><path class="cls-3" d="M301.1,322.13a.63.63,0,0,1-.62.63.63.63,0,1,1,.62-.63Z"/><path class="cls-3" d="M305.56,458.58a.63.63,0,1,1-.63-.62A.63.63,0,0,1,305.56,458.58Z"/><path class="cls-2" d="M203.36,289a.62.62,0,0,1-.62.63.63.63,0,0,1,0-1.25A.62.62,0,0,1,203.36,289Z"/><path class="cls-2" d="M204.42,326.33a.43.43,0,1,1-.43-.43A.43.43,0,0,1,204.42,326.33Z"/><path class="cls-2" d="M209.87,368.74a.65.65,0,1,1-.64-.64A.65.65,0,0,1,209.87,368.74Z"/><path class="cls-2" d="M211.72,380.3a.65.65,0,1,1-.65-.65A.65.65,0,0,1,211.72,380.3Z"/><path class="cls-2" d="M310.35,388.6a.65.65,0,1,1-.64-.65A.64.64,0,0,1,310.35,388.6Z"/><path class="cls-4" d="M339.17,411.82a.65.65,0,1,1-.65-.64A.64.64,0,0,1,339.17,411.82Z"/><path class="cls-2" d="M356.91,431.24a.65.65,0,1,1-.64-.64A.64.64,0,0,1,356.91,431.24Z"/><path class="cls-4" d="M360.74,446.38a.64.64,0,0,1-.64.64.65.65,0,1,1,.64-.64Z"/><path class="cls-6" d="M367,478.42a.65.65,0,1,1-.64-.65A.64.64,0,0,1,367,478.42Z"/><path class="cls-2" d="M282.28,438.61a.65.65,0,1,1-.65-.65A.65.65,0,0,1,282.28,438.61Z"/><path class="cls-2" d="M232.56,468.41a.64.64,0,0,1-.64.64.65.65,0,1,1,.64-.64Z"/><path class="cls-2" d="M212.71,266.92a.65.65,0,1,1-.65-.65A.65.65,0,0,1,212.71,266.92Z"/><path class="cls-2" d="M259.32,261.81a.65.65,0,1,1-.65-.64A.64.64,0,0,1,259.32,261.81Z"/><path class="cls-2" d="M337.44,285.74a.65.65,0,1,1-.64-.65A.64.64,0,0,1,337.44,285.74Z"/><path class="cls-2" d="M205.93,222.26a.64.64,0,0,1-.64.64.65.65,0,1,1,.64-.64Z"/><path class="cls-2" d="M221.48,234.3a.64.64,0,1,1-.64-.64A.64.64,0,0,1,221.48,234.3Z"/><path class="cls-2" d="M248.35,251.29a.65.65,0,1,1-.64-.64A.65.65,0,0,1,248.35,251.29Z"/><path class="cls-3" d="M288.48,227.38a.64.64,0,0,1-1.28,0,.64.64,0,0,1,.64-.64A.64.64,0,0,1,288.48,227.38Z"/><path class="cls-2" d="M311.34,284a.65.65,0,1,1-.65-.65A.65.65,0,0,1,311.34,284Z"/><path class="cls-2" d="M300.37,273.49a.65.65,0,1,1-.64-.64A.64.64,0,0,1,300.37,273.49Z"/><path class="cls-2" d="M347,268.38a.65.65,0,0,1-1.29,0,.65.65,0,0,1,1.29,0Z"/><path class="cls-2" d="M371.66,295a.65.65,0,1,1-.65-.64A.65.65,0,0,1,371.66,295Z"/><path class="cls-2" d="M218.35,249.75a.43.43,0,0,1-.86,0,.43.43,0,0,1,.86,0Z"/><path class="cls-2" d="M204.07,255.48a.43.43,0,1,1-.43-.42A.43.43,0,0,1,204.07,255.48Z"/><path class="cls-2" d="M231.13,251a.43.43,0,0,1-.43.43.43.43,0,0,1-.43-.43.44.44,0,0,1,.43-.43A.43.43,0,0,1,231.13,251Z"/><path class="cls-2" d="M235,268.31a.43.43,0,0,1-.43.43.44.44,0,0,1-.43-.43.43.43,0,0,1,.43-.43A.43.43,0,0,1,235,268.31Z"/><path class="cls-2" d="M220.67,274a.43.43,0,1,1-.43-.43A.43.43,0,0,1,220.67,274Z"/><path class="cls-2" d="M247.73,269.53a.43.43,0,1,1-.85,0,.43.43,0,1,1,.85,0Z"/><path class="cls-2" d="M208.73,306.73a.43.43,0,1,1-.42-.43A.42.42,0,0,1,208.73,306.73Z"/><path class="cls-2" d="M282.73,343.51a.43.43,0,1,1-.85,0,.43.43,0,0,1,.85,0Z"/><path class="cls-2" d="M241.67,340.93a.43.43,0,0,1-.43.43.43.43,0,1,1,0-.86A.43.43,0,0,1,241.67,340.93Z"/><path class="cls-2" d="M309.17,367.43a.43.43,0,1,1-.43-.43A.42.42,0,0,1,309.17,367.43Z"/><path class="cls-2" d="M294.89,373.16a.44.44,0,0,1-.43.43.43.43,0,0,1-.43-.43.43.43,0,0,1,.43-.43A.43.43,0,0,1,294.89,373.16Z"/><path class="cls-2" d="M322,368.65a.43.43,0,1,1-.43-.43A.42.42,0,0,1,322,368.65Z"/><path class="cls-2" d="M339,486.15a.43.43,0,0,1-.43.43.43.43,0,1,1,0-.85A.42.42,0,0,1,339,486.15Z"/><path class="cls-2" d="M324.67,491.89a.43.43,0,1,1-.43-.43A.42.42,0,0,1,324.67,491.89Z"/><path class="cls-2" d="M351.73,487.38a.43.43,0,0,1-.85,0,.43.43,0,1,1,.85,0Z"/><path class="cls-2" d="M236.78,490.91a.43.43,0,0,1-.43.43.43.43,0,0,1,0-.86A.43.43,0,0,1,236.78,490.91Z"/><path class="cls-2" d="M273.13,495.85a.43.43,0,1,1-.43-.42A.43.43,0,0,1,273.13,495.85Z"/><path class="cls-2" d="M352.48,374.6a.43.43,0,0,1-.43.43.43.43,0,0,1,0-.86A.43.43,0,0,1,352.48,374.6Z"/><path class="cls-2" d="M338.19,380.33a.43.43,0,1,1-.42-.43A.42.42,0,0,1,338.19,380.33Z"/><path class="cls-2" d="M365.26,375.82a.43.43,0,1,1-.43-.43A.43.43,0,0,1,365.26,375.82Z"/><path class="cls-2" d="M245.77,324.11a.43.43,0,0,1-.86,0,.43.43,0,0,1,.86,0Z"/><path class="cls-2" d="M320.41,348.63a.43.43,0,0,1-.43.43.43.43,0,0,1-.43-.43.44.44,0,0,1,.43-.43A.43.43,0,0,1,320.41,348.63Z"/><path class="cls-2" d="M196.15,369.65a.43.43,0,0,1-.43.43.43.43,0,1,1,0-.86A.43.43,0,0,1,196.15,369.65Z"/><path class="cls-2" d="M258.05,400.37a.43.43,0,0,1-.86,0,.43.43,0,0,1,.86,0Z"/><path class="cls-2" d="M305.41,234.87a.43.43,0,1,1-.43-.43A.42.42,0,0,1,305.41,234.87Z"/><path class="cls-2" d="M358,293.47a.43.43,0,0,1-.43.43.43.43,0,0,1,0-.86A.43.43,0,0,1,358,293.47Z"/><path class="cls-2" d="M195.55,220.14a.25.25,0,1,1-.25-.25A.25.25,0,0,1,195.55,220.14Z"/><path class="cls-2" d="M272.05,260.85a.26.26,0,1,1-.26-.25A.26.26,0,0,1,272.05,260.85Z"/><path class="cls-2" d="M278.56,235.71a.26.26,0,1,1-.26-.25A.26.26,0,0,1,278.56,235.71Z"/><path class="cls-2" d="M314.85,246a.25.25,0,1,1-.25-.25A.25.25,0,0,1,314.85,246Z"/><path class="cls-2" d="M283.6,260.67a.25.25,0,1,1-.25-.25A.25.25,0,0,1,283.6,260.67Z"/><path class="cls-2" d="M229.56,328.23a.25.25,0,1,1-.25-.25A.25.25,0,0,1,229.56,328.23Z"/><path class="cls-2" d="M236.07,303.09a.25.25,0,1,1-.25-.25A.25.25,0,0,1,236.07,303.09Z"/><path class="cls-2" d="M272.37,313.4a.25.25,0,1,1-.5,0,.25.25,0,0,1,.5,0Z"/><path class="cls-2" d="M241.12,328.05a.25.25,0,1,1-.25-.25A.25.25,0,0,1,241.12,328.05Z"/><path class="cls-2" d="M290.59,468.53a.25.25,0,1,1-.25-.25A.25.25,0,0,1,290.59,468.53Z"/><path class="cls-2" d="M297.1,443.39a.25.25,0,1,1-.25-.26A.25.25,0,0,1,297.1,443.39Z"/><path class="cls-2" d="M333.4,453.7a.25.25,0,1,1-.25-.25A.25.25,0,0,1,333.4,453.7Z"/><path class="cls-2" d="M302.15,468.35a.25.25,0,1,1-.25-.25A.25.25,0,0,1,302.15,468.35Z"/><path class="cls-2" d="M195.87,478.29a.25.25,0,1,1-.25-.25A.25.25,0,0,1,195.87,478.29Z"/><path class="cls-2" d="M202.38,453.15a.25.25,0,1,1-.25-.25A.25.25,0,0,1,202.38,453.15Z"/><path class="cls-2" d="M238.68,463.47a.26.26,0,0,1-.51,0,.26.26,0,1,1,.51,0Z"/><path class="cls-2" d="M220.22,485.44a.25.25,0,1,1-.25-.25A.25.25,0,0,1,220.22,485.44Z"/><path class="cls-2" d="M360.91,279.57a.26.26,0,1,1-.26-.25A.26.26,0,0,1,360.91,279.57Z"/><path class="cls-2" d="M367.42,254.43a.26.26,0,1,1-.25-.25A.25.25,0,0,1,367.42,254.43Z"/><path class="cls-2" d="M372.47,279.39a.26.26,0,1,1-.26-.25A.26.26,0,0,1,372.47,279.39Z"/><path class="cls-2" d="M226.41,407.64a.26.26,0,1,1-.26-.25A.26.26,0,0,1,226.41,407.64Z"/><path class="cls-2" d="M343.59,320.63a.25.25,0,1,1-.25-.26A.25.25,0,0,1,343.59,320.63Z"/><path class="cls-2" d="M291.9,397.55a.25.25,0,1,1-.25-.25A.25.25,0,0,1,291.9,397.55Z"/><path class="cls-2" d="M253.25,242.38a.43.43,0,1,1-.85,0,.43.43,0,1,1,.85,0Z"/><path class="cls-2" d="M284.36,275.43a.43.43,0,1,1-.43-.43A.43.43,0,0,1,284.36,275.43Z"/><path class="cls-2" d="M313.93,261.9a.43.43,0,0,1-.86,0,.43.43,0,0,1,.86,0Z"/><path class="cls-2" d="M319.94,299.49a.42.42,0,0,1-.43.42.43.43,0,1,1,0-.85A.43.43,0,0,1,319.94,299.49Z"/><path class="cls-2" d="M242.79,280a.43.43,0,1,1-.43-.43A.43.43,0,0,1,242.79,280Z"/><path class="cls-2" d="M204.67,240.85a.43.43,0,0,1-.43.43.44.44,0,0,1-.43-.43.43.43,0,0,1,.43-.43A.43.43,0,0,1,204.67,240.85Z"/><path class="cls-2" d="M210.69,278.44a.43.43,0,0,1-.43.42.43.43,0,1,1,0-.85A.43.43,0,0,1,210.69,278.44Z"/><path class="cls-2" d="M233.71,393.24a.43.43,0,0,1-.86,0,.43.43,0,0,1,.86,0Z"/><path class="cls-6" d="M282.06,417.57a.43.43,0,0,1-.43.43.43.43,0,0,1-.43-.43.44.44,0,0,1,.43-.43A.43.43,0,0,1,282.06,417.57Z"/><path class="cls-3" d="M300.4,480.2a.43.43,0,0,1-.43.43.43.43,0,0,1-.43-.43.43.43,0,0,1,.43-.43A.44.44,0,0,1,300.4,480.2Z"/><path class="cls-2" d="M223.25,430.83a.43.43,0,1,1-.43-.43A.42.42,0,0,1,223.25,430.83Z"/><path class="cls-2" d="M216.2,442.82a.43.43,0,1,1-.43-.43A.43.43,0,0,1,216.2,442.82Z"/><path class="cls-2" d="M222.21,510.27a.43.43,0,1,1-.85,0,.43.43,0,1,1,.85,0Z"/><path class="cls-2" d="M365,394.46a.43.43,0,0,1-.86,0,.43.43,0,0,1,.86,0Z"/><path class="cls-2" d="M358,236.87a.43.43,0,1,1-.43-.43A.43.43,0,0,1,358,236.87Z"/><path class="cls-2" d="M347.54,274.46a.43.43,0,0,1-.86,0,.43.43,0,0,1,.86,0Z"/><path class="cls-2" d="M305.41,498.28a.43.43,0,0,1-.86,0,.43.43,0,0,1,.86,0Z"/><path class="cls-4" d="M298.42,397.72a.43.43,0,1,1-.43-.43A.42.42,0,0,1,298.42,397.72Z"/><path class="cls-2" d="M228.76,373.16a.43.43,0,0,1-.43.43.44.44,0,0,1-.43-.43.43.43,0,0,1,.43-.43A.43.43,0,0,1,228.76,373.16Z"/><path class="cls-2" d="M371.83,355.25a.43.43,0,0,1-.43.43.44.44,0,0,1-.43-.43.43.43,0,0,1,.43-.43A.43.43,0,0,1,371.83,355.25Z"/><path class="cls-2" d="M278.26,300.87a.43.43,0,1,1-.43-.43A.43.43,0,0,1,278.26,300.87Z"/><path class="cls-2" d="M332.94,335.05a.43.43,0,1,1-.42-.43A.42.42,0,0,1,332.94,335.05Z"/><path class="cls-2" d="M244.81,411.38a1.11,1.11,0,1,1-1.11-1.11A1.1,1.1,0,0,1,244.81,411.38Z"/><path class="cls-5" d="M354.8,254.81a.49.49,0,0,1-.49.49.48.48,0,0,1-.48-.49.47.47,0,0,1,.48-.48A.48.48,0,0,1,354.8,254.81Z"/><path class="cls-5" d="M293.6,354.47a.49.49,0,0,1-1,0,.49.49,0,1,1,1,0Z"/><path class="cls-2" d="M376.4,515a1.11,1.11,0,1,1-1.11-1.11A1.11,1.11,0,0,1,376.4,515Z"/><path class="cls-2" d="M229.84,521.56a.63.63,0,0,1-1.25,0,.63.63,0,0,1,1.25,0Z"/><path class="cls-2" d="M312.25,518.1a.43.43,0,0,1-.43.43.43.43,0,0,1-.43-.43.43.43,0,0,1,.43-.43A.44.44,0,0,1,312.25,518.1Z"/><path class="cls-2" d="M251.09,518.34a.43.43,0,0,1-.43.43.43.43,0,1,1,0-.85A.42.42,0,0,1,251.09,518.34Z"/><path class="cls-2" d="M202.7,518.26a.25.25,0,1,1-.25-.25A.25.25,0,0,1,202.7,518.26Z"/><path class="cls-2" d="M222.13,517.24a.43.43,0,0,1-.43.43.43.43,0,1,1,0-.86A.43.43,0,0,1,222.13,517.24Z"/><path class="cls-5" d="M355.91,523a1.29,1.29,0,1,1-1.29-1.29A1.29,1.29,0,0,1,355.91,523Z"/><path class="cls-5" d="M348,467.37a.49.49,0,1,1-1,0,.49.49,0,0,1,1,0Z"/><path class="cls-2" d="M119.57,269.79a1.11,1.11,0,1,0,1.11-1.11A1.11,1.11,0,0,0,119.57,269.79Z"/><path class="cls-2" d="M101.18,323.41a.63.63,0,1,0,.62-.62A.63.63,0,0,0,101.18,323.41Z"/><path class="cls-3" d="M87.14,314a.62.62,0,0,0,.62.63.63.63,0,0,0,0-1.25A.62.62,0,0,0,87.14,314Z"/><path class="cls-3" d="M82.68,450.4a.63.63,0,1,0,.63-.62A.63.63,0,0,0,82.68,450.4Z"/><path class="cls-2" d="M184.87,280.81a.63.63,0,1,0,.63-.62A.63.63,0,0,0,184.87,280.81Z"/><path class="cls-2" d="M183.82,318.15a.43.43,0,0,0,.43.43.43.43,0,1,0,0-.86A.43.43,0,0,0,183.82,318.15Z"/><path class="cls-2" d="M178.37,360.56a.65.65,0,1,0,.64-.64A.65.65,0,0,0,178.37,360.56Z"/><path class="cls-2" d="M176.52,372.12a.65.65,0,1,0,.64-.65A.64.64,0,0,0,176.52,372.12Z"/><path class="cls-2" d="M77.89,380.42a.65.65,0,1,0,.64-.65A.64.64,0,0,0,77.89,380.42Z"/><path class="cls-4" d="M49.07,403.64a.65.65,0,1,0,.64-.64A.65.65,0,0,0,49.07,403.64Z"/><path class="cls-2" d="M31.33,423.06a.65.65,0,1,0,.64-.64A.64.64,0,0,0,31.33,423.06Z"/><path class="cls-4" d="M27.49,438.2a.65.65,0,1,0,.65-.65A.65.65,0,0,0,27.49,438.2Z"/><path class="cls-6" d="M21.24,470.24a.65.65,0,1,0,.64-.65A.64.64,0,0,0,21.24,470.24Z"/><path class="cls-2" d="M106,430.43a.65.65,0,0,0,1.29,0,.65.65,0,0,0-1.29,0Z"/><path class="cls-2" d="M155.68,460.23a.64.64,0,0,0,.64.64.65.65,0,1,0-.64-.64Z"/><path class="cls-2" d="M175.53,258.74a.65.65,0,1,0,.65-.65A.65.65,0,0,0,175.53,258.74Z"/><path class="cls-2" d="M128.92,253.63a.65.65,0,1,0,.65-.64A.64.64,0,0,0,128.92,253.63Z"/><path class="cls-2" d="M50.8,277.56a.65.65,0,1,0,.64-.65A.64.64,0,0,0,50.8,277.56Z"/><path class="cls-2" d="M182.31,214.08a.64.64,0,0,0,.64.64.64.64,0,0,0,.64-.64.64.64,0,0,0-1.28,0Z"/><path class="cls-2" d="M166.76,226.12a.64.64,0,1,0,.64-.64A.64.64,0,0,0,166.76,226.12Z"/><path class="cls-2" d="M139.89,243.11a.65.65,0,1,0,.64-.64A.65.65,0,0,0,139.89,243.11Z"/><path class="cls-3" d="M99.76,219.2a.64.64,0,0,0,1.28,0,.64.64,0,0,0-.64-.64A.64.64,0,0,0,99.76,219.2Z"/><path class="cls-2" d="M76.9,275.83a.65.65,0,1,0,.65-.65A.65.65,0,0,0,76.9,275.83Z"/><path class="cls-2" d="M87.87,265.31a.64.64,0,0,0,.64.64.64.64,0,1,0-.64-.64Z"/><path class="cls-2" d="M41.26,260.2a.64.64,0,1,0,1.28,0,.64.64,0,0,0-.64-.64A.64.64,0,0,0,41.26,260.2Z"/><path class="cls-2" d="M16.58,286.83a.65.65,0,1,0,.65-.64A.65.65,0,0,0,16.58,286.83Z"/><path class="cls-2" d="M169.89,241.57a.43.43,0,0,0,.43.43.43.43,0,0,0,.43-.43.44.44,0,0,0-.43-.43A.43.43,0,0,0,169.89,241.57Z"/><path class="cls-2" d="M184.17,247.3a.43.43,0,1,0,.43-.42A.43.43,0,0,0,184.17,247.3Z"/><path class="cls-2" d="M157.11,242.79a.43.43,0,1,0,.85,0,.43.43,0,0,0-.85,0Z"/><path class="cls-2" d="M153.29,260.13a.43.43,0,0,0,.43.43.44.44,0,0,0,.43-.43.43.43,0,0,0-.43-.43A.43.43,0,0,0,153.29,260.13Z"/><path class="cls-2" d="M167.57,265.86a.43.43,0,1,0,.43-.43A.43.43,0,0,0,167.57,265.86Z"/><path class="cls-2" d="M140.51,261.35a.43.43,0,1,0,.43-.43A.43.43,0,0,0,140.51,261.35Z"/><path class="cls-2" d="M179.5,298.55a.43.43,0,0,0,.43.43.43.43,0,0,0,0-.86A.43.43,0,0,0,179.5,298.55Z"/><path class="cls-2" d="M105.51,335.33a.43.43,0,1,0,.42-.42A.42.42,0,0,0,105.51,335.33Z"/><path class="cls-2" d="M146.57,332.75a.43.43,0,0,0,.43.43.43.43,0,0,0,.43-.43.43.43,0,0,0-.43-.43A.44.44,0,0,0,146.57,332.75Z"/><path class="cls-2" d="M79.07,359.25a.43.43,0,0,0,.86,0,.43.43,0,0,0-.86,0Z"/><path class="cls-2" d="M93.35,365a.43.43,0,0,0,.86,0,.43.43,0,0,0-.86,0Z"/><path class="cls-2" d="M66.29,360.47a.43.43,0,0,0,.43.43.44.44,0,0,0,.43-.43.43.43,0,0,0-.43-.43A.43.43,0,0,0,66.29,360.47Z"/><path class="cls-2" d="M49.29,478a.43.43,0,0,0,.85,0,.43.43,0,1,0-.85,0Z"/><path class="cls-2" d="M63.57,483.71a.43.43,0,0,0,.43.43.44.44,0,0,0,.43-.43.43.43,0,0,0-.43-.43A.43.43,0,0,0,63.57,483.71Z"/><path class="cls-2" d="M36.5,479.2a.43.43,0,0,0,.43.42.43.43,0,1,0,0-.85A.43.43,0,0,0,36.5,479.2Z"/><path class="cls-2" d="M151.46,482.73a.43.43,0,1,0,.43-.43A.43.43,0,0,0,151.46,482.73Z"/><path class="cls-2" d="M115.11,487.68a.42.42,0,0,0,.43.42.43.43,0,1,0,0-.85A.43.43,0,0,0,115.11,487.68Z"/><path class="cls-2" d="M35.76,366.42a.43.43,0,0,0,.43.43.43.43,0,0,0,0-.86A.43.43,0,0,0,35.76,366.42Z"/><path class="cls-2" d="M50.05,372.15a.43.43,0,1,0,.85,0,.43.43,0,1,0-.85,0Z"/><path class="cls-2" d="M23,367.64a.43.43,0,1,0,.43-.43A.43.43,0,0,0,23,367.64Z"/><path class="cls-2" d="M142.47,315.93a.43.43,0,0,0,.86,0,.43.43,0,0,0-.86,0Z"/><path class="cls-2" d="M67.83,340.45a.43.43,0,1,0,.85,0,.43.43,0,1,0-.85,0Z"/><path class="cls-2" d="M192.09,361.47a.43.43,0,1,0,.43-.43A.43.43,0,0,0,192.09,361.47Z"/><path class="cls-2" d="M130.19,392.19a.43.43,0,0,0,.86,0,.43.43,0,0,0-.86,0Z"/><path class="cls-2" d="M82.83,226.69a.43.43,0,1,0,.43-.43A.42.42,0,0,0,82.83,226.69Z"/><path class="cls-2" d="M30.21,285.29a.43.43,0,1,0,.85,0,.43.43,0,1,0-.85,0Z"/><path class="cls-2" d="M192.69,212a.25.25,0,1,0,.25-.25A.25.25,0,0,0,192.69,212Z"/><path class="cls-2" d="M116.19,252.67a.26.26,0,1,0,.26-.25A.26.26,0,0,0,116.19,252.67Z"/><path class="cls-2" d="M109.68,227.53a.26.26,0,1,0,.25-.25A.25.25,0,0,0,109.68,227.53Z"/><path class="cls-2" d="M73.39,237.84a.25.25,0,1,0,.25-.25A.25.25,0,0,0,73.39,237.84Z"/><path class="cls-2" d="M104.63,252.49a.26.26,0,1,0,.26-.25A.26.26,0,0,0,104.63,252.49Z"/><path class="cls-2" d="M158.68,320.05a.25.25,0,1,0,.25-.25A.25.25,0,0,0,158.68,320.05Z"/><path class="cls-2" d="M152.17,294.91a.25.25,0,1,0,.25-.25A.25.25,0,0,0,152.17,294.91Z"/><path class="cls-2" d="M115.87,305.23a.25.25,0,1,0,.25-.26A.25.25,0,0,0,115.87,305.23Z"/><path class="cls-2" d="M147.12,319.87a.25.25,0,1,0,.25-.25A.25.25,0,0,0,147.12,319.87Z"/><path class="cls-2" d="M97.65,460.35a.25.25,0,1,0,.25-.25A.25.25,0,0,0,97.65,460.35Z"/><path class="cls-2" d="M91.14,435.21a.25.25,0,1,0,.5,0,.25.25,0,0,0-.5,0Z"/><path class="cls-2" d="M54.84,445.52a.25.25,0,1,0,.25-.25A.25.25,0,0,0,54.84,445.52Z"/><path class="cls-2" d="M86.09,460.17a.25.25,0,1,0,.25-.25A.25.25,0,0,0,86.09,460.17Z"/><path class="cls-2" d="M192.37,470.11a.25.25,0,1,0,.25-.25A.26.26,0,0,0,192.37,470.11Z"/><path class="cls-2" d="M185.86,445a.25.25,0,1,0,.25-.25A.25.25,0,0,0,185.86,445Z"/><path class="cls-2" d="M149.56,455.29a.25.25,0,1,0,.25-.26A.25.25,0,0,0,149.56,455.29Z"/><path class="cls-2" d="M168,477.26a.25.25,0,1,0,.25-.25A.25.25,0,0,0,168,477.26Z"/><path class="cls-2" d="M27.33,271.39a.25.25,0,0,0,.25.25.25.25,0,1,0,0-.5A.25.25,0,0,0,27.33,271.39Z"/><path class="cls-2" d="M20.82,246.25a.25.25,0,0,0,.25.25.25.25,0,1,0,0-.5A.25.25,0,0,0,20.82,246.25Z"/><path class="cls-2" d="M15.77,271.21A.26.26,0,1,0,16,271,.25.25,0,0,0,15.77,271.21Z"/><path class="cls-2" d="M161.83,399.46a.26.26,0,1,0,.26-.25A.26.26,0,0,0,161.83,399.46Z"/><path class="cls-2" d="M44.64,312.45a.26.26,0,1,0,.26-.25A.26.26,0,0,0,44.64,312.45Z"/><path class="cls-2" d="M96.34,389.37a.25.25,0,1,0,.25-.25A.25.25,0,0,0,96.34,389.37Z"/><path class="cls-2" d="M135,234.2a.43.43,0,0,0,.43.43.43.43,0,1,0,0-.85A.43.43,0,0,0,135,234.2Z"/><path class="cls-2" d="M103.88,267.25a.43.43,0,1,0,.43-.43A.43.43,0,0,0,103.88,267.25Z"/><path class="cls-2" d="M74.31,253.72a.43.43,0,1,0,.86,0,.43.43,0,0,0-.86,0Z"/><path class="cls-2" d="M68.3,291.31a.43.43,0,1,0,.85,0,.43.43,0,1,0-.85,0Z"/><path class="cls-2" d="M145.45,271.79a.43.43,0,1,0,.42-.43A.42.42,0,0,0,145.45,271.79Z"/><path class="cls-2" d="M183.57,232.67a.43.43,0,1,0,.43-.43A.43.43,0,0,0,183.57,232.67Z"/><path class="cls-2" d="M177.55,270.26a.43.43,0,0,0,.86,0,.43.43,0,1,0-.86,0Z"/><path class="cls-2" d="M154.53,385.06a.43.43,0,1,0,.86,0,.43.43,0,0,0-.86,0Z"/><path class="cls-6" d="M106.18,409.39a.43.43,0,0,0,.43.43.43.43,0,0,0,.43-.43.44.44,0,0,0-.43-.43A.43.43,0,0,0,106.18,409.39Z"/><path class="cls-3" d="M87.84,472a.43.43,0,0,0,.86,0,.43.43,0,1,0-.86,0Z"/><path class="cls-2" d="M165,422.65a.43.43,0,1,0,.43-.43A.42.42,0,0,0,165,422.65Z"/><path class="cls-2" d="M172,434.64a.43.43,0,0,0,.86,0,.43.43,0,1,0-.86,0Z"/><path class="cls-2" d="M166,502.09a.43.43,0,1,0,.42-.42A.42.42,0,0,0,166,502.09Z"/><path class="cls-2" d="M23.23,386.28a.43.43,0,1,0,.43-.43A.43.43,0,0,0,23.23,386.28Z"/><path class="cls-2" d="M30.24,228.69a.43.43,0,0,0,.43.43.43.43,0,0,0,0-.86A.43.43,0,0,0,30.24,228.69Z"/><path class="cls-2" d="M40.7,266.28a.43.43,0,1,0,.43-.43A.43.43,0,0,0,40.7,266.28Z"/><path class="cls-2" d="M82.83,490.1a.43.43,0,1,0,.86,0,.43.43,0,1,0-.86,0Z"/><path class="cls-4" d="M89.82,389.54a.43.43,0,1,0,.85,0,.43.43,0,1,0-.85,0Z"/><path class="cls-2" d="M159.48,365a.43.43,0,0,0,.43.43.43.43,0,0,0,0-.86A.43.43,0,0,0,159.48,365Z"/><path class="cls-2" d="M16.41,347.07a.43.43,0,0,0,.43.43.44.44,0,0,0,.43-.43.43.43,0,0,0-.43-.43A.43.43,0,0,0,16.41,347.07Z"/><path class="cls-2" d="M110,292.69a.43.43,0,1,0,.43-.43A.43.43,0,0,0,110,292.69Z"/><path class="cls-2" d="M55.29,326.87a.43.43,0,0,0,.43.43.43.43,0,0,0,0-.86A.43.43,0,0,0,55.29,326.87Z"/><path class="cls-2" d="M143.42,403.2a1.11,1.11,0,1,0,1.11-1.11A1.11,1.11,0,0,0,143.42,403.2Z"/><path class="cls-5" d="M33.44,246.63a.49.49,0,1,0,1,0,.49.49,0,0,0-1,0Z"/><path class="cls-5" d="M94.64,346.29a.49.49,0,1,0,1,0,.49.49,0,0,0-1,0Z"/><path class="cls-2" d="M11.84,506.79A1.11,1.11,0,1,0,13,505.68,1.11,1.11,0,0,0,11.84,506.79Z"/><path class="cls-2" d="M158.4,513.38a.63.63,0,1,0,.62-.62A.62.62,0,0,0,158.4,513.38Z"/><path class="cls-2" d="M76,509.92a.43.43,0,0,0,.86,0,.43.43,0,1,0-.86,0Z"/><path class="cls-2" d="M137.15,510.17a.42.42,0,0,0,.43.42.43.43,0,1,0,0-.85A.43.43,0,0,0,137.15,510.17Z"/><path class="cls-2" d="M185.54,510.08a.25.25,0,1,0,.25-.25A.25.25,0,0,0,185.54,510.08Z"/><path class="cls-2" d="M166.11,509.06a.43.43,0,0,0,.43.43.43.43,0,1,0,0-.86A.43.43,0,0,0,166.11,509.06Z"/><path class="cls-5" d="M32.32,514.79a1.29,1.29,0,1,0,1.29-1.29A1.29,1.29,0,0,0,32.32,514.79Z"/><path class="cls-5" d="M40.24,459.19a.48.48,0,0,0,.48.49.49.49,0,0,0,.49-.49.48.48,0,0,0-.49-.48A.47.47,0,0,0,40.24,459.19Z"/><path class="cls-2" d="M85.46,567.51a1.11,1.11,0,1,1-1.11-1.11A1.11,1.11,0,0,1,85.46,567.51Z"/><path class="cls-2" d="M103.85,621.13a.63.63,0,0,1-1.25,0,.63.63,0,0,1,1.25,0Z"/><path class="cls-3" d="M117.89,611.67a.63.63,0,1,1-.62-.62A.63.63,0,0,1,117.89,611.67Z"/><path class="cls-2" d="M20.15,578.53a.63.63,0,0,1-.62.63.63.63,0,1,1,.62-.63Z"/><path class="cls-2" d="M21.21,615.87a.43.43,0,1,1-.43-.43A.43.43,0,0,1,21.21,615.87Z"/><path class="cls-2" d="M26.66,658.28a.65.65,0,1,1-.65-.64A.64.64,0,0,1,26.66,658.28Z"/><path class="cls-2" d="M28.51,669.83a.65.65,0,1,1-.65-.64A.65.65,0,0,1,28.51,669.83Z"/><path class="cls-2" d="M127.14,678.14a.65.65,0,1,1-.65-.65A.65.65,0,0,1,127.14,678.14Z"/><path class="cls-4" d="M156,701.36a.65.65,0,1,1-.65-.64A.64.64,0,0,1,156,701.36Z"/><path class="cls-2" d="M29.49,556.46a.64.64,0,0,1-.64.64.65.65,0,1,1,.64-.64Z"/><path class="cls-2" d="M76.1,551.35a.64.64,0,0,1-.64.64.64.64,0,0,1-.64-.64.64.64,0,0,1,1.28,0Z"/><path class="cls-2" d="M154.23,575.27a.65.65,0,1,1-.65-.64A.65.65,0,0,1,154.23,575.27Z"/><path class="cls-2" d="M22.72,511.8a.64.64,0,0,1-.64.64.65.65,0,0,1,0-1.29A.65.65,0,0,1,22.72,511.8Z"/><path class="cls-2" d="M38.27,523.84a.64.64,0,1,1-1.28,0,.64.64,0,0,1,.64-.64A.64.64,0,0,1,38.27,523.84Z"/><path class="cls-2" d="M65.14,540.83a.65.65,0,0,1-1.29,0,.65.65,0,0,1,1.29,0Z"/><path class="cls-3" d="M105.27,516.92a.64.64,0,1,1-.64-.64A.63.63,0,0,1,105.27,516.92Z"/><path class="cls-2" d="M128.12,573.55a.64.64,0,0,1-.64.64.65.65,0,1,1,.64-.64Z"/><path class="cls-2" d="M117.16,563a.65.65,0,1,1-.64-.65A.64.64,0,0,1,117.16,563Z"/><path class="cls-2" d="M163.77,557.92a.65.65,0,0,1-1.29,0,.65.65,0,0,1,1.29,0Z"/><path class="cls-2" d="M188.45,584.55a.65.65,0,1,1-.65-.64A.65.65,0,0,1,188.45,584.55Z"/><path class="cls-2" d="M35.14,539.29a.43.43,0,1,1-.43-.43A.43.43,0,0,1,35.14,539.29Z"/><path class="cls-2" d="M20.86,545a.43.43,0,1,1-.86,0,.43.43,0,0,1,.86,0Z"/><path class="cls-2" d="M47.92,540.51a.43.43,0,0,1-.86,0,.43.43,0,0,1,.86,0Z"/><path class="cls-2" d="M51.74,557.85a.43.43,0,1,1-.43-.43A.42.42,0,0,1,51.74,557.85Z"/><path class="cls-2" d="M37.46,563.58a.43.43,0,0,1-.86,0,.43.43,0,1,1,.86,0Z"/><path class="cls-2" d="M64.52,559.07a.43.43,0,0,1-.43.43.44.44,0,0,1-.43-.43.43.43,0,0,1,.43-.43A.43.43,0,0,1,64.52,559.07Z"/><path class="cls-2" d="M25.52,596.27a.43.43,0,1,1-.43-.43A.43.43,0,0,1,25.52,596.27Z"/><path class="cls-2" d="M99.52,633.05a.43.43,0,0,1-.43.43.43.43,0,0,1-.43-.43.44.44,0,0,1,.43-.43A.43.43,0,0,1,99.52,633.05Z"/><path class="cls-2" d="M58.45,630.47A.43.43,0,1,1,58,630,.42.42,0,0,1,58.45,630.47Z"/><path class="cls-2" d="M126,657a.43.43,0,1,1-.43-.43A.42.42,0,0,1,126,657Z"/><path class="cls-2" d="M111.68,662.7a.44.44,0,0,1-.43.43.43.43,0,0,1-.43-.43.43.43,0,0,1,.43-.43A.43.43,0,0,1,111.68,662.7Z"/><path class="cls-2" d="M138.74,658.19a.43.43,0,1,1-.43-.43A.42.42,0,0,1,138.74,658.19Z"/><path class="cls-2" d="M169.26,664.14a.43.43,0,1,1-.42-.43A.42.42,0,0,1,169.26,664.14Z"/><path class="cls-2" d="M155,669.87a.43.43,0,0,1-.43.43.43.43,0,0,1,0-.86A.43.43,0,0,1,155,669.87Z"/><path class="cls-2" d="M182.05,665.36a.43.43,0,0,1-.43.43.43.43,0,0,1,0-.86A.43.43,0,0,1,182.05,665.36Z"/><path class="cls-2" d="M62.56,613.65a.43.43,0,1,1-.43-.43A.42.42,0,0,1,62.56,613.65Z"/><path class="cls-2" d="M137.2,638.17a.43.43,0,0,1-.43.43.43.43,0,0,1,0-.86A.43.43,0,0,1,137.2,638.17Z"/><path class="cls-2" d="M12.94,659.19a.43.43,0,1,1-.43-.43A.43.43,0,0,1,12.94,659.19Z"/><path class="cls-2" d="M74.84,689.91a.43.43,0,0,1-.86,0,.43.43,0,0,1,.86,0Z"/><path class="cls-2" d="M122.2,524.4a.43.43,0,0,1-.43.43.43.43,0,1,1,0-.85A.43.43,0,0,1,122.2,524.4Z"/><path class="cls-2" d="M174.82,583a.43.43,0,0,1-.43.43.43.43,0,0,1,0-.86A.43.43,0,0,1,174.82,583Z"/><path class="cls-2" d="M12.34,509.68a.25.25,0,1,1-.25-.25A.25.25,0,0,1,12.34,509.68Z"/><path class="cls-2" d="M88.83,550.39a.25.25,0,1,1-.25-.25A.25.25,0,0,1,88.83,550.39Z"/><path class="cls-2" d="M95.34,525.25a.25.25,0,1,1-.25-.25A.25.25,0,0,1,95.34,525.25Z"/><path class="cls-2" d="M131.64,535.56a.25.25,0,1,1-.25-.25A.25.25,0,0,1,131.64,535.56Z"/><path class="cls-2" d="M100.39,550.21a.25.25,0,1,1-.25-.25A.25.25,0,0,1,100.39,550.21Z"/><path class="cls-2" d="M46.35,617.77a.25.25,0,1,1-.25-.25A.25.25,0,0,1,46.35,617.77Z"/><path class="cls-2" d="M52.86,592.63a.25.25,0,1,1-.25-.25A.25.25,0,0,1,52.86,592.63Z"/><path class="cls-2" d="M89.16,602.94a.25.25,0,1,1-.25-.25A.25.25,0,0,1,89.16,602.94Z"/><path class="cls-2" d="M57.91,617.59a.25.25,0,1,1-.25-.25A.25.25,0,0,1,57.91,617.59Z"/><path class="cls-2" d="M177.7,569.11a.26.26,0,1,1-.26-.25A.26.26,0,0,1,177.7,569.11Z"/><path class="cls-2" d="M184.21,544a.26.26,0,1,1-.26-.25A.26.26,0,0,1,184.21,544Z"/><path class="cls-2" d="M189.25,568.93a.25.25,0,1,1-.25-.25A.25.25,0,0,1,189.25,568.93Z"/><path class="cls-2" d="M43.19,697.18a.25.25,0,1,1-.25-.25A.25.25,0,0,1,43.19,697.18Z"/><path class="cls-2" d="M160.38,610.16a.25.25,0,1,1-.25-.25A.26.26,0,0,1,160.38,610.16Z"/><path class="cls-2" d="M108.69,687.09a.25.25,0,1,1-.25-.25A.25.25,0,0,1,108.69,687.09Z"/><path class="cls-2" d="M70,531.92a.43.43,0,1,1-.85,0,.43.43,0,1,1,.85,0Z"/><path class="cls-2" d="M101.15,565a.43.43,0,0,1-.86,0,.43.43,0,1,1,.86,0Z"/><path class="cls-2" d="M130.72,551.44a.44.44,0,0,1-.43.43.43.43,0,0,1-.43-.43.43.43,0,0,1,.43-.43A.43.43,0,0,1,130.72,551.44Z"/><path class="cls-2" d="M136.73,589a.43.43,0,0,1-.43.43.43.43,0,1,1,0-.85A.42.42,0,0,1,136.73,589Z"/><path class="cls-2" d="M59.58,569.51a.43.43,0,0,1-.43.43.43.43,0,1,1,0-.86A.43.43,0,0,1,59.58,569.51Z"/><path class="cls-2" d="M21.46,530.39a.43.43,0,0,1-.43.43.44.44,0,0,1-.43-.43A.43.43,0,0,1,21,530,.43.43,0,0,1,21.46,530.39Z"/><path class="cls-2" d="M27.48,568a.43.43,0,0,1-.43.42.43.43,0,1,1,0-.85A.43.43,0,0,1,27.48,568Z"/><path class="cls-2" d="M50.5,682.78a.43.43,0,1,1-.86,0,.43.43,0,0,1,.86,0Z"/><path class="cls-6" d="M98.85,707.11a.43.43,0,1,1-.43-.43A.43.43,0,0,1,98.85,707.11Z"/><path class="cls-2" d="M181.8,684a.44.44,0,0,1-.43.43.43.43,0,0,1-.43-.43.43.43,0,0,1,.43-.43A.43.43,0,0,1,181.8,684Z"/><path class="cls-2" d="M174.79,526.41a.43.43,0,1,1-.43-.43A.43.43,0,0,1,174.79,526.41Z"/><path class="cls-2" d="M164.33,564a.43.43,0,0,1-.86,0,.43.43,0,0,1,.86,0Z"/><path class="cls-4" d="M115.21,687.26a.42.42,0,0,1-.43.42.43.43,0,1,1,0-.85A.43.43,0,0,1,115.21,687.26Z"/><path class="cls-2" d="M45.55,662.7a.43.43,0,0,1-.86,0,.43.43,0,1,1,.86,0Z"/><path class="cls-2" d="M188.62,644.79a.43.43,0,1,1-.86,0,.43.43,0,0,1,.86,0Z"/><path class="cls-2" d="M95.05,590.41a.43.43,0,1,1-.43-.43A.43.43,0,0,1,95.05,590.41Z"/><path class="cls-2" d="M149.73,624.59a.43.43,0,1,1-.85,0,.43.43,0,1,1,.85,0Z"/><path class="cls-2" d="M61.6,700.92a1.11,1.11,0,1,1-1.11-1.11A1.11,1.11,0,0,1,61.6,700.92Z"/><path class="cls-5" d="M171.59,544.35a.49.49,0,0,1-.49.49.48.48,0,0,1-.48-.49.47.47,0,0,1,.48-.48A.48.48,0,0,1,171.59,544.35Z"/><path class="cls-5" d="M110.39,644a.49.49,0,0,1-1,0,.49.49,0,1,1,1,0Z"/><path class="cls-2" d="M304.59,98.19a1.11,1.11,0,1,1,1.1-1.1A1.1,1.1,0,0,1,304.59,98.19Z"/><path class="cls-2" d="M251,116.59a.63.63,0,1,1,.62-.63A.63.63,0,0,1,251,116.59Z"/><path class="cls-3" d="M260.42,130.63A.63.63,0,1,1,261,130,.63.63,0,0,1,260.42,130.63Z"/><path class="cls-3" d="M124,135.08a.62.62,0,0,1-.62-.62.63.63,0,0,1,1.25,0A.63.63,0,0,1,124,135.08Z"/><path class="cls-2" d="M293.56,32.89a.63.63,0,0,1,0-1.25.63.63,0,0,1,0,1.25Z"/><path class="cls-2" d="M256.22,34a.43.43,0,0,1-.43-.43.43.43,0,0,1,.86,0A.43.43,0,0,1,256.22,34Z"/><path class="cls-2" d="M213.81,39.39a.64.64,0,1,1,.64-.64A.63.63,0,0,1,213.81,39.39Z"/><path class="cls-2" d="M202.26,41.24a.64.64,0,1,1,.64-.64A.64.64,0,0,1,202.26,41.24Z"/><path class="cls-2" d="M194,139.87a.64.64,0,1,1,.64-.64A.64.64,0,0,1,194,139.87Z"/><path class="cls-4" d="M170.73,168.69a.64.64,0,1,1,.64-.64A.63.63,0,0,1,170.73,168.69Z"/><path class="cls-2" d="M151.31,186.43a.64.64,0,0,1-.64-.64.65.65,0,1,1,.64.64Z"/><path class="cls-4" d="M136.18,190.27a.64.64,0,1,1,0-1.28.64.64,0,0,1,.64.64A.64.64,0,0,1,136.18,190.27Z"/><path class="cls-6" d="M104.14,196.52a.64.64,0,1,1,.64-.64A.64.64,0,0,1,104.14,196.52Z"/><path class="cls-2" d="M143.94,111.8a.64.64,0,0,1-.64-.64.65.65,0,0,1,1.29,0A.65.65,0,0,1,143.94,111.8Z"/><path class="cls-2" d="M114.14,62.09a.65.65,0,1,1,.65-.64A.64.64,0,0,1,114.14,62.09Z"/><path class="cls-2" d="M315.64,42.23a.64.64,0,1,1,0-1.28.64.64,0,0,1,.64.64A.64.64,0,0,1,315.64,42.23Z"/><path class="cls-2" d="M320.74,88.84a.64.64,0,0,1-.64-.64.64.64,0,1,1,.64.64Z"/><path class="cls-2" d="M296.82,167a.64.64,0,1,1,.64-.64A.64.64,0,0,1,296.82,167Z"/><path class="cls-2" d="M360.29,35.46a.65.65,0,1,1,.65-.64A.64.64,0,0,1,360.29,35.46Z"/><path class="cls-2" d="M348.25,51a.65.65,0,0,1,0-1.29.65.65,0,0,1,0,1.29Z"/><path class="cls-2" d="M331.26,77.88a.65.65,0,1,1,.64-.65A.64.64,0,0,1,331.26,77.88Z"/><path class="cls-3" d="M355.17,118a.65.65,0,1,1,.64-.64A.64.64,0,0,1,355.17,118Z"/><path class="cls-2" d="M298.55,140.86a.64.64,0,1,1,0-1.28.64.64,0,0,1,.64.64A.64.64,0,0,1,298.55,140.86Z"/><path class="cls-2" d="M309.06,129.9a.65.65,0,1,1,.65-.65A.65.65,0,0,1,309.06,129.9Z"/><path class="cls-2" d="M314.17,176.51a.65.65,0,1,1,.64-.65A.64.64,0,0,1,314.17,176.51Z"/><path class="cls-2" d="M287.54,201.18a.64.64,0,1,1,.64-.64A.64.64,0,0,1,287.54,201.18Z"/><path class="cls-2" d="M332.8,47.88a.43.43,0,0,1-.43-.43.43.43,0,1,1,.86,0A.43.43,0,0,1,332.8,47.88Z"/><path class="cls-2" d="M327.07,33.59a.43.43,0,1,1,0-.85.43.43,0,1,1,0,.85Z"/><path class="cls-2" d="M331.58,60.66a.43.43,0,1,1,.43-.43A.43.43,0,0,1,331.58,60.66Z"/><path class="cls-2" d="M314.24,64.48a.43.43,0,1,1,.43-.43A.42.42,0,0,1,314.24,64.48Z"/><path class="cls-2" d="M308.51,50.2a.44.44,0,0,1-.43-.43.43.43,0,0,1,.43-.43.43.43,0,0,1,.43.43A.43.43,0,0,1,308.51,50.2Z"/><path class="cls-2" d="M313,77.26a.43.43,0,1,1,.43-.43A.42.42,0,0,1,313,77.26Z"/><path class="cls-2" d="M275.82,38.26a.43.43,0,1,1,.43-.43A.43.43,0,0,1,275.82,38.26Z"/><path class="cls-2" d="M239,112.26a.43.43,0,1,1,0-.86.43.43,0,0,1,0,.86Z"/><path class="cls-2" d="M241.62,71.19a.43.43,0,1,1,.43-.43A.43.43,0,0,1,241.62,71.19Z"/><path class="cls-2" d="M215.13,138.69a.43.43,0,1,1,.42-.42A.42.42,0,0,1,215.13,138.69Z"/><path class="cls-2" d="M209.39,124.41A.42.42,0,0,1,209,124a.43.43,0,1,1,.85,0A.43.43,0,0,1,209.39,124.41Z"/><path class="cls-2" d="M213.91,151.48a.43.43,0,0,1-.43-.43.43.43,0,1,1,.85,0A.43.43,0,0,1,213.91,151.48Z"/><path class="cls-2" d="M96.4,168.48a.43.43,0,0,1,0-.86.43.43,0,1,1,0,.86Z"/><path class="cls-2" d="M90.67,154.2a.43.43,0,0,1-.43-.43.43.43,0,1,1,.85,0A.43.43,0,0,1,90.67,154.2Z"/><path class="cls-2" d="M95.18,181.26a.43.43,0,0,1,0-.86.43.43,0,1,1,0,.86Z"/><path class="cls-2" d="M91.64,66.31a.43.43,0,0,1,0-.86.43.43,0,0,1,0,.86Z"/><path class="cls-2" d="M86.7,102.66a.43.43,0,0,1-.43-.43.43.43,0,0,1,.43-.43.43.43,0,0,1,.43.43A.44.44,0,0,1,86.7,102.66Z"/><path class="cls-2" d="M208,182a.43.43,0,0,1-.43-.43.43.43,0,1,1,.86,0A.43.43,0,0,1,208,182Z"/><path class="cls-2" d="M202.22,167.72a.43.43,0,1,1,.43-.43A.43.43,0,0,1,202.22,167.72Z"/><path class="cls-2" d="M206.73,194.78a.43.43,0,1,1,.43-.43A.43.43,0,0,1,206.73,194.78Z"/><path class="cls-2" d="M258.44,75.29a.43.43,0,0,1,0-.85.43.43,0,1,1,0,.85Z"/><path class="cls-2" d="M233.92,149.94a.43.43,0,1,1,.43-.43A.43.43,0,0,1,233.92,149.94Z"/><path class="cls-2" d="M212.9,25.68a.43.43,0,1,1,0-.86.43.43,0,0,1,0,.86Z"/><path class="cls-2" d="M182.18,87.58a.43.43,0,0,1-.42-.43.43.43,0,1,1,.85,0A.43.43,0,0,1,182.18,87.58Z"/><path class="cls-2" d="M347.69,134.93a.43.43,0,1,1,0-.85.43.43,0,1,1,0,.85Z"/><path class="cls-2" d="M289.08,187.56a.43.43,0,1,1,.43-.43A.43.43,0,0,1,289.08,187.56Z"/><path class="cls-2" d="M362.41,25.08a.26.26,0,1,1,.25-.26A.26.26,0,0,1,362.41,25.08Z"/><path class="cls-2" d="M321.7,101.57a.25.25,0,1,1,.25-.25A.25.25,0,0,1,321.7,101.57Z"/><path class="cls-2" d="M346.84,108.08a.25.25,0,1,1,.25-.25A.25.25,0,0,1,346.84,108.08Z"/><path class="cls-2" d="M336.53,144.38a.25.25,0,1,1,.25-.25A.25.25,0,0,1,336.53,144.38Z"/><path class="cls-2" d="M321.88,113.13a.25.25,0,1,1,.25-.25A.25.25,0,0,1,321.88,113.13Z"/><path class="cls-2" d="M254.32,59.09a.25.25,0,1,1,.25-.25A.25.25,0,0,1,254.32,59.09Z"/><path class="cls-2" d="M279.46,65.6a.25.25,0,0,1-.25-.25.25.25,0,1,1,.5,0A.25.25,0,0,1,279.46,65.6Z"/><path class="cls-2" d="M269.15,101.9a.26.26,0,1,1,.25-.25A.25.25,0,0,1,269.15,101.9Z"/><path class="cls-2" d="M254.5,70.65a.26.26,0,1,1,.25-.25A.25.25,0,0,1,254.5,70.65Z"/><path class="cls-2" d="M114,120.12a.25.25,0,1,1,.25-.25A.25.25,0,0,1,114,120.12Z"/><path class="cls-2" d="M139.17,126.63a.25.25,0,1,1,.25-.25A.25.25,0,0,1,139.17,126.63Z"/><path class="cls-2" d="M128.85,162.93a.26.26,0,1,1,.25-.25A.25.25,0,0,1,128.85,162.93Z"/><path class="cls-2" d="M114.2,131.68a.25.25,0,1,1,.26-.25A.25.25,0,0,1,114.2,131.68Z"/><path class="cls-2" d="M104.26,25.39a.25.25,0,1,1,.25-.25A.25.25,0,0,1,104.26,25.39Z"/><path class="cls-2" d="M129.4,31.9a.25.25,0,1,1,.25-.25A.25.25,0,0,1,129.4,31.9Z"/><path class="cls-2" d="M119.09,68.2a.25.25,0,1,1,.25-.25A.25.25,0,0,1,119.09,68.2Z"/><path class="cls-2" d="M97.11,49.75a.26.26,0,1,1,.26-.26A.26.26,0,0,1,97.11,49.75Z"/><path class="cls-2" d="M303,190.43a.25.25,0,1,1,.25-.25A.25.25,0,0,1,303,190.43Z"/><path class="cls-2" d="M328.12,196.94a.25.25,0,1,1,.25-.25A.25.25,0,0,1,328.12,196.94Z"/><path class="cls-2" d="M303.16,202a.25.25,0,1,1,.25-.25A.25.25,0,0,1,303.16,202Z"/><path class="cls-2" d="M174.91,55.93a.25.25,0,1,1,.25-.25A.25.25,0,0,1,174.91,55.93Z"/><path class="cls-2" d="M261.93,173.12a.25.25,0,1,1,0-.5.25.25,0,0,1,0,.5Z"/><path class="cls-2" d="M185,121.43a.26.26,0,1,1,.25-.25A.25.25,0,0,1,185,121.43Z"/><path class="cls-2" d="M340.17,82.78a.43.43,0,1,1,.43-.43A.43.43,0,0,1,340.17,82.78Z"/><path class="cls-2" d="M307.12,113.88a.43.43,0,1,1,0-.85.43.43,0,1,1,0,.85Z"/><path class="cls-2" d="M320.65,143.45a.43.43,0,0,1,0-.85.43.43,0,1,1,0,.85Z"/><path class="cls-2" d="M283.07,149.47a.43.43,0,0,1,0-.86.43.43,0,1,1,0,.86Z"/><path class="cls-2" d="M302.58,72.32a.43.43,0,1,1,.43-.43A.43.43,0,0,1,302.58,72.32Z"/><path class="cls-2" d="M341.7,34.2a.43.43,0,1,1,.43-.43A.42.42,0,0,1,341.7,34.2Z"/><path class="cls-2" d="M304.12,40.21a.43.43,0,0,1-.43-.43.43.43,0,1,1,.85,0A.42.42,0,0,1,304.12,40.21Z"/><path class="cls-2" d="M189.31,63.23a.43.43,0,0,1,0-.85.43.43,0,1,1,0,.85Z"/><path class="cls-6" d="M165,111.59a.43.43,0,1,1,.43-.43A.43.43,0,0,1,165,111.59Z"/><path class="cls-3" d="M102.35,129.92a.43.43,0,0,1-.43-.43.43.43,0,0,1,.86,0A.43.43,0,0,1,102.35,129.92Z"/><path class="cls-2" d="M151.73,52.77a.43.43,0,1,1,0-.85.43.43,0,1,1,0,.85Z"/><path class="cls-2" d="M139.73,45.73a.43.43,0,0,1-.43-.43.43.43,0,1,1,.86,0A.43.43,0,0,1,139.73,45.73Z"/><path class="cls-2" d="M72.28,51.74a.43.43,0,0,1,0-.86.43.43,0,0,1,0,.86Z"/><path class="cls-2" d="M188.09,194.53a.43.43,0,1,1,.43-.43A.42.42,0,0,1,188.09,194.53Z"/><path class="cls-2" d="M345.68,187.53a.43.43,0,0,1-.43-.43.43.43,0,1,1,.86,0A.43.43,0,0,1,345.68,187.53Z"/><path class="cls-2" d="M308.09,177.07a.43.43,0,0,1-.42-.43.43.43,0,1,1,.85,0A.43.43,0,0,1,308.09,177.07Z"/><path class="cls-2" d="M84.27,134.93a.43.43,0,0,1,0-.85.43.43,0,1,1,0,.85Z"/><path class="cls-4" d="M184.84,128a.43.43,0,1,1,0-.86.43.43,0,0,1,0,.86Z"/><path class="cls-2" d="M209.39,58.29a.44.44,0,0,1-.43-.43.43.43,0,0,1,.43-.43.43.43,0,0,1,.43.43A.43.43,0,0,1,209.39,58.29Z"/><path class="cls-2" d="M227.3,201.36a.43.43,0,0,1-.42-.43.43.43,0,1,1,.85,0A.43.43,0,0,1,227.3,201.36Z"/><path class="cls-2" d="M281.68,107.78a.43.43,0,1,1,0-.85.43.43,0,1,1,0,.85Z"/><path class="cls-2" d="M247.5,162.47a.43.43,0,1,1,0-.86.43.43,0,1,1,0,.86Z"/><path class="cls-2" d="M171.17,74.34a1.11,1.11,0,1,1,1.11-1.11A1.11,1.11,0,0,1,171.17,74.34Z"/><path class="cls-5" d="M327.74,184.32a.48.48,0,0,1-.49-.48.49.49,0,0,1,1,0A.48.48,0,0,1,327.74,184.32Z"/><path class="cls-5" d="M228.08,123.13a.48.48,0,0,1-.48-.49.47.47,0,0,1,.48-.48.48.48,0,0,1,.49.48A.49.49,0,0,1,228.08,123.13Z"/><path class="cls-2" d="M67.58,205.93a1.11,1.11,0,1,1,1.11-1.11A1.11,1.11,0,0,1,67.58,205.93Z"/><path class="cls-2" d="M61,59.36a.62.62,0,0,1-.62-.62.63.63,0,1,1,.62.62Z"/><path class="cls-2" d="M64.45,141.77a.43.43,0,1,1,.43-.43A.43.43,0,0,1,64.45,141.77Z"/><path class="cls-2" d="M64.21,80.62a.43.43,0,1,1,0-.86.43.43,0,1,1,0,.86Z"/><path class="cls-2" d="M64.29,32.22a.25.25,0,1,1,.25-.25A.25.25,0,0,1,64.29,32.22Z"/><path class="cls-2" d="M65.31,51.65a.43.43,0,0,1-.43-.43.43.43,0,1,1,.86,0A.43.43,0,0,1,65.31,51.65Z"/><path class="cls-5" d="M59.58,185.44a1.29,1.29,0,1,1,1.29-1.29A1.29,1.29,0,0,1,59.58,185.44Z"/><path class="cls-5" d="M115.18,177.53a.49.49,0,0,1-.49-.49.49.49,0,0,1,1,0A.49.49,0,0,1,115.18,177.53Z"/><path class="cls-7" d="M0,139.19C31.13,93.39,124.35,43.79,293.82,0H1.39"/><path class="cls-7" d="M1.32,709c151.1-152,214-236.24,76.92-337.41C44,346.32,19.09,315.87,4.68,281.88"/><path class="cls-7" d="M376.9,527.12c-30,44.46-59.32,83.78-81.12,110.48-73.11,89.55-60.24-48.91.12-187.36S190,376.87,128,303.5-1.5-79.42,128,148.75C199.18,274,296.84,256.88,375.88,229.43"/></g></g></svg>