<svg xmlns="http://www.w3.org/2000/svg" viewBox="0 0 374.1 709.38"><defs><style>.cls-1{fill:#fed0b0;}.cls-2{opacity:0.9;}.cls-3{fill:#fff;}.cls-4{opacity:0.5;}.cls-5{fill:#f9cbac;}</style></defs><title>section-4-light-bg-mobile</title><g id="Layer_2" data-name="Layer 2"><g id="Layer_1-2" data-name="Layer 1"><rect class="cls-1" x="-167.38" y="167.76" width="708.86" height="374.1" transform="translate(-167.76 541.87) rotate(-90)"/><g class="cls-2"><circle class="cls-3" cx="328.03" cy="506.28" r="2.8"/><path class="cls-3" d="M59.54,96.46a1.79,1.79,0,0,0-3.58,0A1.79,1.79,0,0,0,59.54,96.46Z"/><path class="cls-3" d="M313.47,394.87a1.79,1.79,0,0,0-3.58,0A1.79,1.79,0,0,0,313.47,394.87Z"/><path class="cls-3" d="M264,360.61a1.79,1.79,0,0,0-3.58,0A1.79,1.79,0,0,0,264,360.61Z"/><path class="cls-3" d="M106,456.61a1.79,1.79,0,0,0-3.58,0A1.79,1.79,0,0,0,106,456.61Z"/><path class="cls-3" d="M62.34,155a1.79,1.79,0,0,0-3.58,0A1.79,1.79,0,0,0,62.34,155Z"/><path class="cls-3" d="M183.21,601.35a1.79,1.79,0,0,0-3.57,0A1.79,1.79,0,0,0,183.21,601.35Z"/><path class="cls-3" d="M222.55,512.1a1.79,1.79,0,0,0-3.58,0A1.79,1.79,0,0,0,222.55,512.1Z"/><path class="cls-3" d="M39.9,318.86a1.79,1.79,0,0,0-3.57,0A1.79,1.79,0,0,0,39.9,318.86Z"/><path class="cls-3" d="M25.54,54.63a1.79,1.79,0,0,0-3.58,0A1.79,1.79,0,0,0,25.54,54.63Z"/><path class="cls-3" d="M158.08,274.07a1.79,1.79,0,0,0-3.58,0A1.79,1.79,0,0,0,158.08,274.07Z"/><path class="cls-3" d="M41.47,578.48a1.79,1.79,0,0,0-3.58,0A1.79,1.79,0,0,0,41.47,578.48Z"/><path class="cls-3" d="M56.12,309.32a1.79,1.79,0,0,0-3.58,0A1.79,1.79,0,0,0,56.12,309.32Z"/><path class="cls-3" d="M345.44,309.25a1.2,1.2,0,0,0,2.39,0A1.2,1.2,0,0,0,345.44,309.25Z"/><path class="cls-3" d="M72,526.66a1.2,1.2,0,0,0-2.39,0A1.2,1.2,0,0,0,72,526.66Z"/><path class="cls-3" d="M326.68,605.64a1.19,1.19,0,0,0-2.38,0A1.19,1.19,0,0,0,326.68,605.64Z"/><path class="cls-3" d="M230.48,461a1.2,1.2,0,0,0-2.39,0A1.2,1.2,0,0,0,230.48,461Z"/><path class="cls-3" d="M199.65,556.51a1.19,1.19,0,0,0-2.38,0A1.19,1.19,0,0,0,199.65,556.51Z"/><path class="cls-3" d="M280.68,696.5a1.2,1.2,0,0,0-2.39,0A1.2,1.2,0,0,0,280.68,696.5Z"/><path class="cls-3" d="M141.79,406.56a1.2,1.2,0,0,0-2.39,0A1.2,1.2,0,0,0,141.79,406.56Z"/><path class="cls-3" d="M15.81,146.68a1.2,1.2,0,0,0-2.39,0A1.2,1.2,0,0,0,15.81,146.68Z"/><path class="cls-3" d="M360.12,106.79a1.19,1.19,0,0,0-2.38,0A1.19,1.19,0,0,0,360.12,106.79Z"/><path class="cls-3" d="M262.68,286.16a1.2,1.2,0,0,0-2.39,0A1.2,1.2,0,0,0,262.68,286.16Z"/><path class="cls-3" d="M170.48,643.43a1.2,1.2,0,0,0-2.39,0A1.2,1.2,0,0,0,170.48,643.43Z"/><path class="cls-3" d="M278.17,250.67a1.2,1.2,0,0,0-2.39,0A1.2,1.2,0,0,0,278.17,250.67Z"/><path class="cls-3" d="M17.51,533a1.19,1.19,0,0,0-2.38,0A1.19,1.19,0,0,0,17.51,533Z"/><path class="cls-3" d="M26.32,404.87a1.2,1.2,0,0,0-2.39,0A1.2,1.2,0,0,0,26.32,404.87Z"/><path class="cls-3" d="M111.43,330.11a1.2,1.2,0,0,0-2.39,0A1.2,1.2,0,0,0,111.43,330.11Z"/><path class="cls-3" d="M5.62,214a1.2,1.2,0,0,0-2.39,0A1.2,1.2,0,0,0,5.62,214Z"/><path class="cls-3" d="M16,251.9a1.2,1.2,0,0,0-2.39,0A1.2,1.2,0,0,0,16,251.9Z"/><path class="cls-3" d="M189.64,102.38a1.2,1.2,0,0,0-2.39,0A1.2,1.2,0,0,0,189.64,102.38Z"/><path class="cls-3" d="M118.33,118.49a1.19,1.19,0,0,0-2.38,0A1.19,1.19,0,0,0,118.33,118.49Z"/><path class="cls-3" d="M204.75,212.06a1.19,1.19,0,0,0-2.38,0A1.19,1.19,0,0,0,204.75,212.06Z"/><path class="cls-3" d="M346.22,205.16a1.2,1.2,0,0,0-2.39,0A1.2,1.2,0,0,0,346.22,205.16Z"/><path class="cls-3" d="M249.71,421.08a1.2,1.2,0,0,0-2.39,0A1.2,1.2,0,0,0,249.71,421.08Z"/><g class="cls-4"><circle class="cls-3" cx="185.72" cy="632.1" r="2.8"/><circle class="cls-3" cx="209.64" cy="262.84" r="2.8"/><path class="cls-3" d="M366.53,289.46a1.79,1.79,0,0,0,3.57,0A1.79,1.79,0,0,0,366.53,289.46Z"/><path class="cls-3" d="M360.39,269a1.2,1.2,0,0,0,2.39,0A1.2,1.2,0,0,0,360.39,269Z"/><path class="cls-3" d="M342.79,649.35a1.2,1.2,0,0,0-2.39,0A1.2,1.2,0,0,0,342.79,649.35Z"/><path class="cls-3" d="M82,253.6a1.2,1.2,0,0,0-2.39,0A1.2,1.2,0,0,0,82,253.6Z"/><path class="cls-3" d="M106.07,626.18a1.19,1.19,0,0,0-2.38,0A1.19,1.19,0,0,0,106.07,626.18Z"/><path class="cls-3" d="M41.66,466.31a1.19,1.19,0,0,0-2.38,0A1.19,1.19,0,0,0,41.66,466.31Z"/><path class="cls-3" d="M236.79,150.69a1.19,1.19,0,0,0-2.38,0A1.19,1.19,0,0,0,236.79,150.69Z"/><path class="cls-3" d="M171.66,477.86a1.19,1.19,0,0,0-2.38,0A1.19,1.19,0,0,0,171.66,477.86Z"/></g></g><path class="cls-5" d="M.9,709.38C152,557.39,214.89,473.14,77.82,372c-34.23-25.26-59.16-55.72-73.57-89.71"/><path class="cls-5" d="M373.66,569.81C361.1,615.61,323.5,665.21,255.13,709h118"/><path class="cls-5" d="M373.13,0c-61,152-86.33,236.24-31,337.41,13.81,25.27,23.86,55.72,29.68,89.71"/></g></g></svg>