<svg xmlns="http://www.w3.org/2000/svg" xmlns:xlink="http://www.w3.org/1999/xlink" viewBox="0 0 377 709"><defs><style>.cls-1{fill:url(#linear-gradient);}.cls-2{fill:#c6e6f3;}.cls-3{fill:#68cdf3;}.cls-4{fill:#ffe779;}.cls-5{fill:#fff;}.cls-6{fill:#dd503f;}.cls-7{fill:#010b25;}</style><linearGradient id="linear-gradient" x1="5275.14" y1="2661.71" x2="5984" y2="2661.71" gradientTransform="translate(-5440.86 -2307.28)" gradientUnits="userSpaceOnUse"><stop offset="0" stop-color="#021433"/><stop offset="1" stop-color="#010b25"/></linearGradient></defs><title>section-4-dark-bg-mobile</title><g id="Layer_2" data-name="Layer 2"><g id="Layer_1-2" data-name="Layer 1"><rect class="cls-1" x="-165.72" y="166.14" width="708.86" height="376.58" transform="translate(-165.72 543.14) rotate(-90)"/><path class="cls-2" d="M152.4,174a2.27,2.27,0,1,1-2.27-2.27A2.27,2.27,0,0,1,152.4,174Z"/><path class="cls-2" d="M190,283.72a1.28,1.28,0,1,1-1.28-1.27A1.28,1.28,0,0,1,190,283.72Z"/><path class="cls-3" d="M218.77,264.37a1.28,1.28,0,1,1-1.28-1.28A1.27,1.27,0,0,1,218.77,264.37Z"/><path class="cls-3" d="M227.89,543.59a1.28,1.28,0,1,1-1.28-1.27A1.28,1.28,0,0,1,227.89,543.59Z"/><path class="cls-2" d="M18.76,196.55a1.28,1.28,0,1,1-1.28-1.28A1.27,1.27,0,0,1,18.76,196.55Z"/><path class="cls-2" d="M20.92,273a.88.88,0,1,1-.88-.88A.88.88,0,0,1,20.92,273Z"/><path class="cls-2" d="M32.07,359.75a1.32,1.32,0,1,1-1.32-1.32A1.32,1.32,0,0,1,32.07,359.75Z"/><path class="cls-2" d="M35.85,383.39a1.32,1.32,0,1,1-1.31-1.31A1.32,1.32,0,0,1,35.85,383.39Z"/><path class="cls-2" d="M237.69,400.38a1.32,1.32,0,1,1-1.32-1.32A1.31,1.31,0,0,1,237.69,400.38Z"/><path class="cls-4" d="M296.67,447.91a1.32,1.32,0,1,1-1.32-1.32A1.32,1.32,0,0,1,296.67,447.91Z"/><path class="cls-2" d="M333,487.64a1.32,1.32,0,1,1-1.31-1.31A1.32,1.32,0,0,1,333,487.64Z"/><path class="cls-4" d="M340.82,518.62a1.32,1.32,0,1,1-1.31-1.32A1.32,1.32,0,0,1,340.82,518.62Z"/><path class="cls-5" d="M353.62,584.19a1.32,1.32,0,1,1-1.32-1.32A1.31,1.31,0,0,1,353.62,584.19Z"/><path class="cls-2" d="M180.24,502.72a1.32,1.32,0,1,1-1.31-1.31A1.31,1.31,0,0,1,180.24,502.72Z"/><path class="cls-2" d="M78.51,563.71a1.32,1.32,0,1,1-1.32-1.32A1.32,1.32,0,0,1,78.51,563.71Z"/><path class="cls-2" d="M37.87,151.37a1.32,1.32,0,1,1-1.31-1.31A1.32,1.32,0,0,1,37.87,151.37Z"/><path class="cls-2" d="M133.26,140.92a1.32,1.32,0,1,1-1.32-1.31A1.32,1.32,0,0,1,133.26,140.92Z"/><path class="cls-2" d="M293.13,189.88a1.32,1.32,0,1,1-1.32-1.31A1.32,1.32,0,0,1,293.13,189.88Z"/><path class="cls-2" d="M24,60a1.32,1.32,0,1,1-1.31-1.32A1.32,1.32,0,0,1,24,60Z"/><path class="cls-2" d="M55.84,84.63a1.32,1.32,0,1,1-1.32-1.32A1.32,1.32,0,0,1,55.84,84.63Z"/><path class="cls-2" d="M110.82,119.4a1.32,1.32,0,1,1-1.32-1.32A1.31,1.31,0,0,1,110.82,119.4Z"/><path class="cls-3" d="M193,70.47a1.32,1.32,0,1,1-1.32-1.32A1.32,1.32,0,0,1,193,70.47Z"/><path class="cls-2" d="M239.71,186.34A1.32,1.32,0,1,1,238.4,185,1.32,1.32,0,0,1,239.71,186.34Z"/><path class="cls-2" d="M217.27,164.82A1.32,1.32,0,1,1,216,163.5,1.32,1.32,0,0,1,217.27,164.82Z"/><path class="cls-2" d="M312.65,154.37a1.32,1.32,0,1,1-1.31-1.32A1.31,1.31,0,0,1,312.65,154.37Z"/><path class="cls-2" d="M363.15,208.87a1.32,1.32,0,1,1-1.31-1.32A1.32,1.32,0,0,1,363.15,208.87Z"/><path class="cls-2" d="M49.42,116.25a.88.88,0,1,1-.87-.88A.87.87,0,0,1,49.42,116.25Z"/><path class="cls-2" d="M20.2,128a.88.88,0,1,1-.88-.88A.88.88,0,0,1,20.2,128Z"/><path class="cls-2" d="M75.58,118.75a.88.88,0,1,1-.88-.88A.87.87,0,0,1,75.58,118.75Z"/><path class="cls-2" d="M83.4,154.22a.88.88,0,1,1-.88-.88A.88.88,0,0,1,83.4,154.22Z"/><path class="cls-2" d="M54.17,166a.88.88,0,1,1-.88-.88A.87.87,0,0,1,54.17,166Z"/><path class="cls-2" d="M109.55,156.72a.88.88,0,1,1-.87-.88A.87.87,0,0,1,109.55,156.72Z"/><path class="cls-2" d="M29.75,232.85a.88.88,0,1,1-.88-.88A.88.88,0,0,1,29.75,232.85Z"/><path class="cls-2" d="M181.18,308.12a.88.88,0,0,1-1.76,0,.88.88,0,1,1,1.76,0Z"/><path class="cls-2" d="M97.14,302.84a.88.88,0,1,1-.88-.88A.88.88,0,0,1,97.14,302.84Z"/><path class="cls-2" d="M235.28,357.06a.88.88,0,1,1-.88-.88A.88.88,0,0,1,235.28,357.06Z"/><path class="cls-2" d="M206.05,368.78a.88.88,0,1,1-.88-.87A.87.87,0,0,1,206.05,368.78Z"/><path class="cls-2" d="M261.43,359.55a.88.88,0,1,1-.88-.87A.87.87,0,0,1,261.43,359.55Z"/><path class="cls-2" d="M296.23,600a.88.88,0,1,1-.88-.87A.88.88,0,0,1,296.23,600Z"/><path class="cls-2" d="M267,611.75a.88.88,0,1,1-.88-.87A.87.87,0,0,1,267,611.75Z"/><path class="cls-2" d="M322.38,602.52a.88.88,0,1,1-.87-.88A.87.87,0,0,1,322.38,602.52Z"/><path class="cls-2" d="M87.14,609.75a.88.88,0,1,1-.87-.87A.87.87,0,0,1,87.14,609.75Z"/><path class="cls-2" d="M161.53,619.87a.88.88,0,1,1-.88-.87A.87.87,0,0,1,161.53,619.87Z"/><path class="cls-2" d="M323.9,371.74a.88.88,0,1,1-.88-.88A.87.87,0,0,1,323.9,371.74Z"/><path class="cls-2" d="M294.67,383.46a.88.88,0,1,1-.87-.87A.87.87,0,0,1,294.67,383.46Z"/><path class="cls-2" d="M350.06,374.24a.88.88,0,1,1-.88-.88A.88.88,0,0,1,350.06,374.24Z"/><path class="cls-2" d="M105.53,268.41a.88.88,0,1,1-.87-.88A.87.87,0,0,1,105.53,268.41Z"/><path class="cls-2" d="M258.29,318.6a.88.88,0,1,1-.88-.88A.88.88,0,0,1,258.29,318.6Z"/><path class="cls-2" d="M4,361.61a.88.88,0,0,1-1.76,0,.88.88,0,0,1,1.76,0Z"/><path class="cls-2" d="M130.67,424.47a.88.88,0,0,1-1.76,0,.88.88,0,0,1,1.76,0Z"/><path class="cls-2" d="M227.58,85.78a.88.88,0,1,1-.88-.88A.87.87,0,0,1,227.58,85.78Z"/><path class="cls-2" d="M335.27,205.71a.88.88,0,1,1-.88-.87A.87.87,0,0,1,335.27,205.71Z"/><path class="cls-2" d="M2.77,55.65a.52.52,0,1,1-.52-.51A.51.51,0,0,1,2.77,55.65Z"/><path class="cls-2" d="M159.31,139a.52.52,0,1,1-.52-.52A.51.51,0,0,1,159.31,139Z"/><path class="cls-2" d="M172.63,87.51a.52.52,0,1,1-.52-.52A.51.51,0,0,1,172.63,87.51Z"/><path class="cls-2" d="M246.91,108.61a.52.52,0,1,1-.51-.51A.51.51,0,0,1,246.91,108.61Z"/><path class="cls-2" d="M183,138.59a.52.52,0,1,1-.51-.52A.51.51,0,0,1,183,138.59Z"/><path class="cls-2" d="M72.37,276.85a.52.52,0,1,1-.52-.52A.51.51,0,0,1,72.37,276.85Z"/><path class="cls-2" d="M85.69,225.4a.52.52,0,1,1-.51-.52A.51.51,0,0,1,85.69,225.4Z"/><path class="cls-2" d="M160,246.51a.52.52,0,1,1-.51-.52A.51.51,0,0,1,160,246.51Z"/><path class="cls-2" d="M96,276.48a.52.52,0,1,1-.51-.51A.51.51,0,0,1,96,276.48Z"/><path class="cls-2" d="M197.26,564a.52.52,0,1,1-.51-.51A.51.51,0,0,1,197.26,564Z"/><path class="cls-2" d="M210.59,512.5a.52.52,0,0,1-.52.51.51.51,0,1,1,0-1A.52.52,0,0,1,210.59,512.5Z"/><path class="cls-2" d="M284.87,533.61a.52.52,0,1,1-.52-.52A.51.51,0,0,1,284.87,533.61Z"/><path class="cls-2" d="M220.92,563.58a.52.52,0,1,1-.52-.51A.52.52,0,0,1,220.92,563.58Z"/><path class="cls-2" d="M3.42,583.94a.52.52,0,1,1-.52-.52A.51.51,0,0,1,3.42,583.94Z"/><path class="cls-2" d="M16.74,532.48a.52.52,0,1,1-.52-.51A.52.52,0,0,1,16.74,532.48Z"/><path class="cls-2" d="M91,553.59a.52.52,0,1,1-.51-.51A.51.51,0,0,1,91,553.59Z"/><path class="cls-2" d="M53.25,598.56a.52.52,0,1,1-.51-.52A.51.51,0,0,1,53.25,598.56Z"/><path class="cls-2" d="M341.15,177.27a.51.51,0,0,1-.51.51.52.52,0,1,1,0-1A.51.51,0,0,1,341.15,177.27Z"/><path class="cls-2" d="M354.48,125.82a.52.52,0,1,1-.52-.52A.51.51,0,0,1,354.48,125.82Z"/><path class="cls-2" d="M364.81,176.9a.52.52,0,0,1-1,0,.52.52,0,0,1,1,0Z"/><path class="cls-2" d="M65.91,439.35a.52.52,0,1,1-.52-.51A.52.52,0,0,1,65.91,439.35Z"/><path class="cls-2" d="M305.73,261.28a.52.52,0,1,1-.52-.51A.52.52,0,0,1,305.73,261.28Z"/><path class="cls-2" d="M199.94,418.71a.52.52,0,1,1-.51-.52A.51.51,0,0,1,199.94,418.71Z"/><path class="cls-2" d="M120.85,101.17a.88.88,0,1,1-.88-.88A.87.87,0,0,1,120.85,101.17Z"/><path class="cls-2" d="M184.51,168.79a.88.88,0,1,1-.88-.88A.88.88,0,0,1,184.51,168.79Z"/><path class="cls-2" d="M245,141.1a.88.88,0,0,1-1.76,0,.88.88,0,1,1,1.76,0Z"/><path class="cls-2" d="M257.32,218a.88.88,0,1,1-.87-.88A.87.87,0,0,1,257.32,218Z"/><path class="cls-2" d="M99.44,178.09a.88.88,0,1,1-.87-.88A.87.87,0,0,1,99.44,178.09Z"/><path class="cls-2" d="M21.43,98a.88.88,0,1,1-.87-.87A.87.87,0,0,1,21.43,98Z"/><path class="cls-2" d="M33.74,175a.88.88,0,1,1-.88-.88A.87.87,0,0,1,33.74,175Z"/><path class="cls-2" d="M80.85,409.88A.88.88,0,1,1,80,409,.87.87,0,0,1,80.85,409.88Z"/><path class="cls-5" d="M179.8,459.68a.88.88,0,1,1-.87-.88A.87.87,0,0,1,179.8,459.68Z"/><path class="cls-3" d="M217.33,587.85a.88.88,0,1,1-.88-.88A.88.88,0,0,1,217.33,587.85Z"/><path class="cls-2" d="M59.45,486.8a.88.88,0,1,1-.88-.88A.88.88,0,0,1,59.45,486.8Z"/><path class="cls-2" d="M45,511.35a.88.88,0,1,1-.88-.88A.88.88,0,0,1,45,511.35Z"/><path class="cls-2" d="M57.33,649.38a.88.88,0,1,1-1.76,0,.88.88,0,1,1,1.76,0Z"/><path class="cls-2" d="M349.55,412.37a.88.88,0,1,1-.88-.87A.88.88,0,0,1,349.55,412.37Z"/><path class="cls-2" d="M335.21,89.88a.88.88,0,1,1-.88-.87A.88.88,0,0,1,335.21,89.88Z"/><path class="cls-2" d="M313.8,166.8a.88.88,0,1,1-.88-.87A.88.88,0,0,1,313.8,166.8Z"/><path class="cls-2" d="M227.58,624.83a.88.88,0,1,1-.88-.88A.88.88,0,0,1,227.58,624.83Z"/><path class="cls-4" d="M213.29,419a.88.88,0,1,1-.88-.88A.89.89,0,0,1,213.29,419Z"/><path class="cls-2" d="M70.73,368.79a.88.88,0,1,1-.88-.88A.88.88,0,0,1,70.73,368.79Z"/><path class="cls-2" d="M363.51,332.13a.88.88,0,1,1-.88-.88A.88.88,0,0,1,363.51,332.13Z"/><path class="cls-2" d="M172,220.86a.88.88,0,1,1-.88-.88A.87.87,0,0,1,172,220.86Z"/><path class="cls-2" d="M283.93,290.8a.88.88,0,1,1-.88-.88A.88.88,0,0,1,283.93,290.8Z"/><path class="cls-2" d="M103.58,447a2.27,2.27,0,1,1-2.27-2.27A2.27,2.27,0,0,1,103.58,447Z"/><path class="cls-6" d="M328.65,126.6a1,1,0,1,1-1-1A1,1,0,0,1,328.65,126.6Z"/><path class="cls-6" d="M203.42,330.54a1,1,0,1,1-1-1A1,1,0,0,1,203.42,330.54Z"/><path class="cls-2" d="M372.87,659a2.28,2.28,0,1,1-2.27-2.27A2.27,2.27,0,0,1,372.87,659Z"/><path class="cls-2" d="M72.93,672.48a1.28,1.28,0,1,1-1.27-1.28A1.27,1.27,0,0,1,72.93,672.48Z"/><path class="cls-2" d="M241.57,665.4a.88.88,0,1,1-.87-.88A.87.87,0,0,1,241.57,665.4Z"/><path class="cls-2" d="M116.43,665.9a.88.88,0,0,1-1.76,0,.88.88,0,0,1,1.76,0Z"/><path class="cls-2" d="M17.39,665.73a.52.52,0,1,1-.51-.52A.51.51,0,0,1,17.39,665.73Z"/><path class="cls-2" d="M57.15,663.64a.88.88,0,1,1-.88-.88A.87.87,0,0,1,57.15,663.64Z"/><path class="cls-6" d="M330.94,675.36a2.64,2.64,0,1,1-2.64-2.64A2.64,2.64,0,0,1,330.94,675.36Z"/><path class="cls-6" d="M314.74,561.59a1,1,0,1,1-1-1A1,1,0,0,1,314.74,561.59Z"/><path class="cls-7" d="M0,139.19C31.13,93.39,124.35,43.79,293.82,0H1.39"/><path class="cls-7" d="M1.32,709c151.1-152,214-236.24,76.92-337.41C44,346.32,19.09,315.87,4.68,281.88"/><path class="cls-7" d="M376.9,527.12c-30,44.46-59.32,83.78-81.12,110.48-73.11,89.55-60.24-48.91.12-187.36S190,376.87,128,303.5-1.5-79.42,128,148.75C199.18,274,296.84,256.88,375.88,229.43"/></g></g></svg>