<svg xmlns="http://www.w3.org/2000/svg" xmlns:xlink="http://www.w3.org/1999/xlink" viewBox="0 0 309.96 252.48"><defs><style>.cls-1{mask:url(#mask);filter:url(#luminosity-noclip-5);}.cls-10,.cls-12,.cls-18,.cls-2,.cls-25,.cls-28,.cls-30,.cls-4,.cls-6,.cls-8{mix-blend-mode:multiply;}.cls-2{fill:url(#linear-gradient);}.cls-3{mask:url(#mask-2);filter:url(#luminosity-noclip-6);}.cls-4{fill:url(#linear-gradient-2);}.cls-5{mask:url(#mask-3);filter:url(#luminosity-noclip-7);}.cls-6{fill:url(#linear-gradient-3);}.cls-7{mask:url(#mask-4);filter:url(#luminosity-noclip-8);}.cls-8{fill:url(#linear-gradient-4);}.cls-9{isolation:isolate;}.cls-10{fill:#e5e5e5;}.cls-11{fill:#a7d7fc;}.cls-12{fill:#c7e4fd;}.cls-13{fill:#c3c3c3;}.cls-13,.cls-14{mix-blend-mode:screen;}.cls-14{fill:#474747;}.cls-15{fill:#fac52f;}.cls-16{fill:#fddf85;}.cls-17{mask:url(#mask-5);}.cls-18{fill:url(#linear-gradient-5);}.cls-19{fill:#ed5733;}.cls-20{fill:#fc826a;}.cls-21{fill:#ac2310;}.cls-22{fill:#052b71;}.cls-23{fill:#86cfd7;}.cls-24{mask:url(#mask-6);}.cls-25{fill:url(#linear-gradient-6);}.cls-26{fill:#fddb82;}.cls-27{mask:url(#mask-7);}.cls-28{fill:url(#linear-gradient-7);}.cls-29{mask:url(#mask-8);}.cls-30{fill:url(#linear-gradient-8);}.cls-31{fill:#010b25;}.cls-32{fill:#f5fdd3;opacity:0.11;}.cls-33{filter:url(#luminosity-noclip-4);}.cls-34{filter:url(#luminosity-noclip-3);}.cls-35{filter:url(#luminosity-noclip-2);}.cls-36{filter:url(#luminosity-noclip);}</style><filter id="luminosity-noclip" x="22.47" y="-4188.48" width="119.08" height="32766" filterUnits="userSpaceOnUse" color-interpolation-filters="sRGB"><feFlood flood-color="#fff" result="bg"/><feBlend in="SourceGraphic" in2="bg"/></filter><mask id="mask" x="22.47" y="-4188.48" width="119.08" height="32766" maskUnits="userSpaceOnUse"><g class="cls-36"/></mask><linearGradient id="linear-gradient" x1="-9432.07" y1="-473.05" x2="-9399.05" y2="-458.99" gradientTransform="matrix(-0.76, 0.65, 0.65, 0.76, -6764.73, 6644.83)" gradientUnits="userSpaceOnUse"><stop offset="0"/><stop offset="1" stop-color="#fff"/></linearGradient><filter id="luminosity-noclip-2" x="147.9" y="-4188.48" width="151.1" height="32766" filterUnits="userSpaceOnUse" color-interpolation-filters="sRGB"><feFlood flood-color="#fff" result="bg"/><feBlend in="SourceGraphic" in2="bg"/></filter><mask id="mask-2" x="147.9" y="-4188.48" width="151.1" height="32766" maskUnits="userSpaceOnUse"><g class="cls-35"/></mask><linearGradient id="linear-gradient-2" x1="1784.77" y1="4146.06" x2="1810.92" y2="4146.06" gradientTransform="matrix(0.25, -0.97, 0.97, 0.25, -4240.9, 871.93)" gradientUnits="userSpaceOnUse"><stop offset="0"/><stop offset="0.99" stop-color="#fff"/></linearGradient><filter id="luminosity-noclip-3" x="147.97" y="-4188.48" width="153.89" height="32766" filterUnits="userSpaceOnUse" color-interpolation-filters="sRGB"><feFlood flood-color="#fff" result="bg"/><feBlend in="SourceGraphic" in2="bg"/></filter><mask id="mask-3" x="147.97" y="-4188.48" width="153.89" height="32766" maskUnits="userSpaceOnUse"><g class="cls-34"/></mask><linearGradient id="linear-gradient-3" x1="1436.6" y1="4529.72" x2="1466.17" y2="4529.72" gradientTransform="matrix(0.26, -1.02, 0.87, 0.22, -4079.53, 668.98)" xlink:href="#linear-gradient-2"/><filter id="luminosity-noclip-4" x="32.99" y="-4188.48" width="64.65" height="32766" filterUnits="userSpaceOnUse" color-interpolation-filters="sRGB"><feFlood flood-color="#fff" result="bg"/><feBlend in="SourceGraphic" in2="bg"/></filter><mask id="mask-4" x="32.99" y="-4188.48" width="64.65" height="32766" maskUnits="userSpaceOnUse"><g class="cls-33"/></mask><linearGradient id="linear-gradient-4" x1="-9470.99" y1="-585.05" x2="-9452.46" y2="-486.32" xlink:href="#linear-gradient"/><filter id="luminosity-noclip-5" x="22.47" y="78.02" width="119.08" height="112.4" filterUnits="userSpaceOnUse" color-interpolation-filters="sRGB"><feFlood flood-color="#fff" result="bg"/><feBlend in="SourceGraphic" in2="bg"/></filter><mask id="mask-5" x="22.47" y="78.02" width="119.08" height="112.4" maskUnits="userSpaceOnUse"><g class="cls-1"><path class="cls-2" d="M41.45,190.42l30.77-.62,22.9-.46h0l28.32-.57q9.12-6.44,18-13.18c.9-.77-6.71-18.25-7.43-20.23L126.2,134c-4.63-12.59-8-26.43-15.58-37.74A41.08,41.08,0,0,0,81.62,78a118.41,118.41,0,0,1,31.89,45.52c2.38,6.1,4.18,13.29.91,19-3.79,6.56-14.38,6.77-21.53,4.28S80.12,138.72,75.14,133c-7.52-8.64-14.19-18-20.89-27.28-4.16-5.77-8.7-11.81-15.33-14.4a14.5,14.5,0,0,0-4.77-.94A73.73,73.73,0,0,0,25,96.92c-.88.73-1.73,1.49-2.56,2.28a141.73,141.73,0,0,1,27,29.29c3,4.39,5.89,9.28,5.8,14.6-.12,7.21-5.84,13.38-12.48,16.2-6.12,2.59-12.9,2.9-19.57,2.91A193.87,193.87,0,0,0,41.45,190.42Z"/></g></mask><linearGradient id="linear-gradient-5" x1="-9432.07" y1="-473.05" x2="-9399.05" y2="-458.99" gradientTransform="matrix(-0.76, 0.65, 0.65, 0.76, -6764.73, 6644.83)" gradientUnits="userSpaceOnUse"><stop offset="0" stop-color="#fff"/><stop offset="1" stop-color="#fcb444"/></linearGradient><filter id="luminosity-noclip-6" x="147.9" y="159.4" width="151.1" height="19.79" filterUnits="userSpaceOnUse" color-interpolation-filters="sRGB"><feFlood flood-color="#fff" result="bg"/><feBlend in="SourceGraphic" in2="bg"/></filter><mask id="mask-6" x="147.9" y="159.4" width="151.1" height="19.79" maskUnits="userSpaceOnUse"><g class="cls-3"><path class="cls-4" d="M299,177.2l-.52,2a338.25,338.25,0,0,0-150.58-15c0-.69.09-1.37.11-2.06A338.36,338.36,0,0,1,299,177.2Z"/></g></mask><linearGradient id="linear-gradient-6" x1="1784.77" y1="4146.06" x2="1810.92" y2="4146.06" gradientTransform="matrix(0.25, -0.97, 0.97, 0.25, -4240.9, 871.93)" gradientUnits="userSpaceOnUse"><stop offset="0" stop-color="#fff"/><stop offset="0.99" stop-color="#f2b52a"/></linearGradient><filter id="luminosity-noclip-7" x="147.97" y="188.02" width="153.89" height="18.89" filterUnits="userSpaceOnUse" color-interpolation-filters="sRGB"><feFlood flood-color="#fff" result="bg"/><feBlend in="SourceGraphic" in2="bg"/></filter><mask id="mask-7" x="147.97" y="188.02" width="153.89" height="18.89" maskUnits="userSpaceOnUse"><g class="cls-5"><path class="cls-6" d="M301.86,204.53l-.61,2.38a295.06,295.06,0,0,0-153.28-11c.08-.81.15-1.62.2-2.44a298,298,0,0,1,90.19-3.49A289,289,0,0,1,301.86,204.53Z"/></g></mask><linearGradient id="linear-gradient-7" x1="1436.6" y1="4529.72" x2="1466.17" y2="4529.72" gradientTransform="matrix(0.26, -1.02, 0.87, 0.22, -4079.53, 668.98)" xlink:href="#linear-gradient-6"/><filter id="luminosity-noclip-8" x="32.99" y="69.02" width="64.65" height="23.84" filterUnits="userSpaceOnUse" color-interpolation-filters="sRGB"><feFlood flood-color="#fff" result="bg"/><feBlend in="SourceGraphic" in2="bg"/></filter><mask id="mask-8" x="32.99" y="69.02" width="64.65" height="23.84" maskUnits="userSpaceOnUse"><g class="cls-7"><path class="cls-8" d="M35.29,83.58a44.2,44.2,0,0,0,26.45,9.28,43.2,43.2,0,0,0,10.07-1.07,44,44,0,0,0,16.6-7.57l.64-.49a31.25,31.25,0,0,0,3.84-3.52,26.07,26.07,0,0,0,4.75-7.67,12.75,12.75,0,0,0-4.84-3.33c-2.56-.83-5.94,1.31-7.87,2.75-1.66,1.25-3.16,2.72-4.72,4.1-.35.31-.71.61-1.07.91A33.83,33.83,0,0,1,64.2,84c-1,.2-2,.36-3.05.46A33.83,33.83,0,0,1,42,80.77,19.47,19.47,0,0,0,38.3,79a4.77,4.77,0,0,0-3.93.41A3.79,3.79,0,0,0,33,81.2,9,9,0,0,0,35.29,83.58Z"/></g></mask><linearGradient id="linear-gradient-8" x1="-9470.99" y1="-585.05" x2="-9452.46" y2="-486.32" xlink:href="#linear-gradient-5"/></defs><title>no-result</title><g class="cls-9"><g id="Layer_2" data-name="Layer 2"><g id="Layer_1-2" data-name="Layer 1"><path class="cls-10" d="M.06,225.65c-.35,20.41,36.64,11.27,59.27,17.85,19.82,5.76,54.87,16.31,74.88,1.18,24.25-18.35,58.13-8.32,63.51-27.49C112.89,209.23.06,225.65.06,225.65Z"/><path class="cls-11" d="M111.49,189.51c-56.56,1.83-58,12.54-83.31,17.5s-45.7,27.7-5.27,30,52.37,12.54,84.36,12.83,21.79-14.58,45.35-15.17,58.7-16.33,40.77-26A160.64,160.64,0,0,0,111.49,189.51Z"/><path class="cls-12" d="M152.62,233c-23.56.59-13.36,15.46-45.35,15.17s-43.94-10.5-84.36-12.83C7.28,234.4.75,230.45.06,225.65c-.75,5.56,5.36,10.39,22.85,11.4,40.42,2.33,52.37,12.54,84.36,12.83s21.79-14.58,45.35-15.17c19.66-.48,47.4-11.54,45.6-20.77C196.58,222.76,171.05,232.51,152.62,233Z"/><path class="cls-12" d="M197.72,217.19h0c-31.36,26.52-50,8.19-62.19,21.58s-28.26,11.11-43.73,7.46-49-10.2-62.58-10.49c-10.13-.21-19.92.38-27.23-4.66,3,3,9.55,5.31,20.92,6,40.42,2.33,52.37,12.54,84.36,12.83s21.79-14.58,45.35-15.17C170,234.28,193.71,225.59,197.72,217.19Z"/><path class="cls-13" d="M18.78,211.31c-5.27.92-15.91,9.12-15.56,11.47s1.55-3.48,8.17-5.73S22.29,210.71,18.78,211.31Z"/><path class="cls-13" d="M2.43,226.21c-.08-1.07.38-2,.78-2s.49,2,.49,2.34A.66.66,0,0,1,2.43,226.21Z"/><path class="cls-13" d="M86.62,242.82c6.8,3.8,24.34,4.45,29.53,3.84s8.17-3.41,6-3.84-6.5,1.41-14.32,1.59S84.25,241.5,86.62,242.82Z"/><path class="cls-14" d="M174.64,219.29c-34.5,3.78-85.65-20.7-67.06-24.87s79.48,10.55,81.33,18.76S180.66,218.63,174.64,219.29Z"/><path class="cls-15" d="M88.94,141.7l1.7.31c17.47,3.17,27.26,3.59,44.38,3.88l4.56.08c29.95.46,33.8,62.29,26.69,69.57s-27.8,7.63-27.8,7.63c-24.33.9-47.66-6.32-70.3-13.45-6.72-2.11-13.66-4.34-18.66-8.78a28.9,28.9,0,0,1-7.09-10.27,41,41,0,0,1-2.73-23.91A39.12,39.12,0,0,1,43.9,155c.14-.26.29-.52.44-.78,3.13-5.36,2.16-11,8.33-13.55C62.24,136.73,78.82,139.81,88.94,141.7Z"/><path class="cls-15" d="M41.45,190.42l30.77-.62,22.9-.46h0l28.32-.57q9.12-6.44,18-13.18c.9-.77-6.71-18.25-7.43-20.23L126.2,134c-4.63-12.59-8-26.43-15.58-37.74A41.08,41.08,0,0,0,81.62,78C70,76.3,57.37,78.8,46,84.08a119.7,119.7,0,0,0-11.87,6.31A73.73,73.73,0,0,0,25,96.92c-.88.73-1.73,1.49-2.56,2.28-1,1-2,2-2.94,3s-1.85,2.14-2.69,3.26a32.4,32.4,0,0,0-6.62,15.67c-.91,7.71,1.57,15.39,4.45,22.6l.17.42a192.5,192.5,0,0,0,26.61,46.28Z"/><path class="cls-16" d="M41.45,190.42l30.77-.62,22.9-.46h0l28.32-.57q9.12-6.44,18-13.18c.9-.77-6.71-18.25-7.43-20.23L126.2,134c-4.63-12.59-8-26.43-15.58-37.74A41.08,41.08,0,0,0,81.62,78a118.41,118.41,0,0,1,31.89,45.52c2.38,6.1,4.18,13.29.91,19-3.79,6.56-14.38,6.77-21.53,4.28S80.12,138.72,75.14,133c-7.52-8.64-14.19-18-20.89-27.28-4.16-5.77-8.7-11.81-15.33-14.4a14.5,14.5,0,0,0-4.77-.94A73.73,73.73,0,0,0,25,96.92c-.88.73-1.73,1.49-2.56,2.28a141.73,141.73,0,0,1,27,29.29c3,4.39,5.89,9.28,5.8,14.6-.12,7.21-5.84,13.38-12.48,16.2-6.12,2.59-12.9,2.9-19.57,2.91A193.87,193.87,0,0,0,41.45,190.42Z"/><g class="cls-17"><path class="cls-18" d="M41.45,190.42l30.77-.62,22.9-.46h0l28.32-.57q9.12-6.44,18-13.18c.9-.77-6.71-18.25-7.43-20.23L126.2,134c-4.63-12.59-8-26.43-15.58-37.74A41.08,41.08,0,0,0,81.62,78a118.41,118.41,0,0,1,31.89,45.52c2.38,6.1,4.18,13.29.91,19-3.79,6.56-14.38,6.77-21.53,4.28S80.12,138.72,75.14,133c-7.52-8.64-14.19-18-20.89-27.28-4.16-5.77-8.7-11.81-15.33-14.4a14.5,14.5,0,0,0-4.77-.94A73.73,73.73,0,0,0,25,96.92c-.88.73-1.73,1.49-2.56,2.28a141.73,141.73,0,0,1,27,29.29c3,4.39,5.89,9.28,5.8,14.6-.12,7.21-5.84,13.38-12.48,16.2-6.12,2.59-12.9,2.9-19.57,2.91A193.87,193.87,0,0,0,41.45,190.42Z"/></g><path class="cls-19" d="M15.14,38.72h.07a1.33,1.33,0,0,0,1.2-1.45L13.13,1.85a1.33,1.33,0,1,0-2.64.25l3.28,35.42A1.33,1.33,0,0,0,15.14,38.72Z"/><path class="cls-15" d="M14.76,44.59A42.69,42.69,0,0,0,59,85.67a44.83,44.83,0,0,0,5.36-.53,42.7,42.7,0,1,0-49.6-40.55Z"/><path class="cls-16" d="M89.38,71.14A42.7,42.7,0,0,0,61.6,0a50,50,0,0,0-13,5.85,51.35,51.35,0,0,0-5.93,4.39,46.14,46.14,0,0,0-15.2,24.88A35.71,35.71,0,0,0,31.88,62C43.16,79.82,68.87,83.87,89.38,71.14Z"/><ellipse class="cls-20" cx="13.43" cy="45.73" rx="8.77" ry="12.78" transform="translate(-1.68 0.53) rotate(-2.12)"/><path class="cls-21" d="M6.11,46c.14,4,2.46,7.08,5.18,7a3.46,3.46,0,0,0,1.63-.47c1.87-1,3.14-3.76,3-6.87S14.36,39.92,12.42,39a3.43,3.43,0,0,0-1.66-.35C8,38.76,6,42,6.11,46Z"/><path class="cls-19" d="M9.4,45.88C9.51,49,11,51.6,12.92,52.51c1.87-1,3.14-3.76,3-6.87S14.36,39.92,12.42,39C10.55,40.06,9.28,42.76,9.4,45.88Z"/><path class="cls-15" d="M13.07,187.26a49.28,49.28,0,0,0,3.56,3.66C28.37,201.8,45,206.65,61.1,208.14a67.74,67.74,0,0,0,10.07.29,33.17,33.17,0,0,0,10.76-2.23c6.53-2.64,12.14-8.56,12.58-15.59.23-3.62-1.13-7.53-4.18-9.49s-6.9-1.57-10.59-1.24l-1.86.16A37.11,37.11,0,0,1,44.7,163.93a36.91,36.91,0,0,1-4.54-9.05c-.16-.47-.32-.94-.45-1.42-2.57-8.68-1.89-18-3.19-26.91-1.1-7.53-8.75-28.2-19.57-20a20,20,0,0,0-4.51,5.45C5.32,123.44.65,136.56.33,150a56.26,56.26,0,0,0,8.91,32.25A47.53,47.53,0,0,0,13.07,187.26Z"/><path class="cls-16" d="M71.17,208.43a33.17,33.17,0,0,0,10.76-2.23c6.53-2.64,12.14-8.56,12.58-15.59.23-3.62-1.13-7.53-4.18-9.49s-6.9-1.57-10.59-1.24a25.08,25.08,0,0,0-3.61,2.26,20.6,20.6,0,0,0-7.95,14A19,19,0,0,0,71.17,208.43Z"/><path class="cls-16" d="M13.07,187.26a49.28,49.28,0,0,0,3.56,3.66,15.8,15.8,0,0,1,.48-2.37,25.72,25.72,0,0,1,5.07-9A49.1,49.1,0,0,1,44.7,163.93a36.91,36.91,0,0,1-4.54-9.05,56.54,56.54,0,0,0-19.52,11,38.26,38.26,0,0,0-10.3,13.33,29.12,29.12,0,0,0-1.1,3.05A47.53,47.53,0,0,0,13.07,187.26Z"/><path class="cls-16" d="M18.43,121.52c-.75-5.72-7.71-7-9.73-1.22-1.7,4.14.11,10.58,4.89,11.57C17.53,132,19.12,124.59,18.43,121.52Z"/><path class="cls-22" d="M79.06,205.41a9.63,9.63,0,0,0,5.9,2.68c3.17.39,6.35-.29,9.5-.77s6.48-.72,9.45.46l.84.38c.55.27,1.09.58,1.63.88s1.11.63,1.69.91a6.82,6.82,0,0,0,4.55.78,3.34,3.34,0,0,0,2.64-3.39,3.51,3.51,0,0,0,5.64-3.4A2.75,2.75,0,0,0,125,201c.15.69,2.71-.28,3-.44a2.45,2.45,0,0,0,1.52-2.43,5.23,5.23,0,0,0-.89-2.6,11.76,11.76,0,0,0-3.59-3.57,18.26,18.26,0,0,0-1.72-1l-.54-.26a40.17,40.17,0,0,0-7.33-2.27L100.3,184.8c-3.55-.86-7.22-1.72-10.83-1.17a14.64,14.64,0,0,0-8.7,4.73,15.85,15.85,0,0,0-3.87,8.4c0,.23-.07.47-.09.71C76.54,200.29,77.11,203.35,79.06,205.41Z"/><path class="cls-23" d="M76.9,196.76,85,198.35c2.46.48,5,1,7.46.42,3.09-.69,5.57-2.92,7.9-5.06A7.74,7.74,0,0,0,102,191.8a2.61,2.61,0,0,0,.15-2.44,3.68,3.68,0,0,0-1.78-1.41,36.52,36.52,0,0,0-6.79-2.32,47.1,47.1,0,0,0-6.77-1.33,15.06,15.06,0,0,0-6,4.06A15.85,15.85,0,0,0,76.9,196.76Z"/><path class="cls-23" d="M104.75,208.16c.55.27,1.09.58,1.63.88a7.11,7.11,0,0,1,1.19-1.86,7.33,7.33,0,0,1,4.28-2.34,6.53,6.53,0,0,1,1.92-3.45,3,3,0,0,1,2.5-.93,4.6,4.6,0,0,1,1.34-2.61,5,5,0,0,1,2.74-1.32c.07,0,.05-.05.1-.09a5.93,5.93,0,0,1,2.44-3.6,5.86,5.86,0,0,1,2.16-.89,18.26,18.26,0,0,0-1.72-1,7,7,0,0,0-3.77,4.07,6.19,6.19,0,0,0-5.21,3.94,7.79,7.79,0,0,0-2.6,1.23,2.79,2.79,0,0,0-1.06,2.65,7.16,7.16,0,0,0-4.86,3A6.88,6.88,0,0,0,104.75,208.16Z"/><path class="cls-15" d="M305.78,151,296,188.62l-3.37-.86c-22.79-5.78-46-10.46-69.44-11.37-1.83-.08-3.65-.12-5.47-.14-3.22-.05-6.43,0-9.65.1a165.55,165.55,0,0,0-37.69,5.55A133.57,133.57,0,0,0,151,188.83a2.84,2.84,0,0,1-3.93-1.17l-.06-.13h0a9.67,9.67,0,0,1-.48-4.88q.65-8.41,1.28-16.82l.12-1.63c0-.69.09-1.37.11-2.06a25.13,25.13,0,0,0-.4-5.88,11.53,11.53,0,0,0-5.11-7.8,211.19,211.19,0,0,1,67.86-4c3.45.35,6.9.79,10.33,1.32a200.69,200.69,0,0,1,66.64,22.47c1.51-4.45,3.08-9,6.09-12.62a13.35,13.35,0,0,1,8.73-4.81A11.41,11.41,0,0,1,305.78,151Z"/><g class="cls-24"><path class="cls-25" d="M299,177.2l-.52,2a338.25,338.25,0,0,0-150.58-15c0-.69.09-1.37.11-2.06A338.36,338.36,0,0,1,299,177.2Z"/></g><path class="cls-26" d="M220.69,145.73a197.12,197.12,0,0,1-2.64,28.77c-.1.58-.2,1.17-.29,1.75-3.22-.05-6.43,0-9.65.1a224.43,224.43,0,0,0,2.25-31.94C213.81,144.76,217.26,145.2,220.69,145.73Z"/><path class="cls-26" d="M305.78,151,296,188.62l-3.37-.86,1.5-5.93a5.11,5.11,0,1,1,2-8l6-23A11.41,11.41,0,0,1,305.78,151Z"/><path class="cls-15" d="M310,173.23l-11.63,44.94-3.41-.87c-23-5.81-46.52-10.32-70.48-10.36-1.86,0-3.72,0-5.59.08q-4.92.14-9.86.55a154.84,154.84,0,0,0-38.78,8.23,137.53,137.53,0,0,0-20.2,9.07c-1.62.9-3.22.54-4-1.21l-.06-.16h0a12.9,12.9,0,0,1-.27-5.76q1-10,2.06-19.94c.06-.64.13-1.29.19-1.94.08-.81.15-1.62.2-2.44a33.35,33.35,0,0,0-.14-6.93c-.53-3.68-2.11-7.24-4.88-9a191.11,191.11,0,0,1,69.56-7.79q5.26.39,10.49,1.1a172.54,172.54,0,0,1,67.13,23.61c1.75-5.33,3.56-10.8,6.79-15.2a14.74,14.74,0,0,1,9.14-6.07A9.8,9.8,0,0,1,310,173.23Z"/><g class="cls-27"><path class="cls-28" d="M301.86,204.53l-.61,2.38a295.06,295.06,0,0,0-153.28-11c.08-.81.15-1.62.2-2.44a298,298,0,0,1,90.19-3.49A289,289,0,0,1,301.86,204.53Z"/></g><path class="cls-26" d="M223.2,170.8a275.38,275.38,0,0,1-4,34.14c-.13.69-.25,1.39-.38,2.08q-4.92.14-9.86.55a314,314,0,0,0,3.72-37.87Q218,170.09,223.2,170.8Z"/><path class="cls-26" d="M310,173.23l-11.63,44.94-3.41-.87,1.8-7.08a4.76,4.76,0,0,1-6.46-2.5,7.22,7.22,0,0,1,2-7.91,4.76,4.76,0,0,1,6.87.85l7.13-27.52A9.8,9.8,0,0,1,310,173.23Z"/><path class="cls-15" d="M124.5,150.92a107.35,107.35,0,0,0,9.6,5.4l1.65.8c14.59,6.91,31.09,10.28,47.05,8.61a72.58,72.58,0,0,0,13.26-2.64,28.43,28.43,0,0,0,9.39-4.38,13.05,13.05,0,0,0,5.29-8.65c.62-5.62-3.66-10.85-8.79-13.22-4.17-1.92-8.8-2.38-13.43-2.57h0c-1.07-.05-2.13-.08-3.19-.1-11.78-.33-24.09-1-34.81-5.48a45,45,0,0,1-8-4.24c-.18-.13-.37-.25-.54-.38-8.93-6.23-15-15.64-21.34-24.55a115.66,115.66,0,0,0-8.93-11.39,50.82,50.82,0,0,0-9.55-8.38c-2.2-1.44-4.64-3.6-7.33-3.86-6.72-.64-13.86,4-16.34,10.2-2,4.79-1.52,10.3.22,15.18s4.7,9.21,7.78,13.37C97,128.76,109.66,141.56,124.5,150.92Z"/><path class="cls-16" d="M182.8,165.73a72.58,72.58,0,0,0,13.26-2.64,28.43,28.43,0,0,0,9.39-4.38,13.05,13.05,0,0,0,5.29-8.65c.62-5.62-3.66-10.85-8.79-13.22-4.17-1.92-8.8-2.38-13.43-2.57h0a20.92,20.92,0,0,0-4.54,3.5,21.74,21.74,0,0,0-5.17,20.84A16.94,16.94,0,0,0,182.8,165.73Z"/><path class="cls-16" d="M124.5,150.92a107.35,107.35,0,0,0,9.6,5.4l1.65.8a38.57,38.57,0,0,1,11.57-25.88,23,23,0,0,1,3.2-2.55,45,45,0,0,1-8-4.24c-.18-.13-.37-.25-.54-.38a96.69,96.69,0,0,0-12.45,16.19A48.25,48.25,0,0,0,124.5,150.92Z"/><path class="cls-22" d="M187.52,160.64a9.63,9.63,0,0,0,5.9,2.68c3.17.39,6.35-.29,9.5-.77s6.49-.72,9.45.46l.85.38c.55.27,1.08.58,1.62.88s1.12.63,1.69.91a6.83,6.83,0,0,0,4.55.78,3.34,3.34,0,0,0,2.64-3.39,3.52,3.52,0,0,0,5.64-3.4,2.76,2.76,0,0,0,4.09-2.95c.14.69,2.71-.28,3-.44a2.45,2.45,0,0,0,1.52-2.43,5.23,5.23,0,0,0-.89-2.6,11.76,11.76,0,0,0-3.59-3.57,16.3,16.3,0,0,0-1.72-1l-.54-.26a40.07,40.07,0,0,0-7.32-2.27L208.76,140c-3.55-.86-7.22-1.72-10.83-1.17a14.1,14.1,0,0,0-2.65.67,15,15,0,0,0-6.05,4.06,15.85,15.85,0,0,0-3.87,8.4c0,.23-.07.47-.09.71C185,155.52,185.57,158.58,187.52,160.64Z"/><path class="cls-23" d="M185.36,152l8.09,1.59c2.46.48,5,1,7.45.42,3.09-.69,5.57-2.92,7.9-5.06a7.74,7.74,0,0,0,1.66-1.91,2.62,2.62,0,0,0,.15-2.44,3.68,3.68,0,0,0-1.78-1.41,35.33,35.33,0,0,0-6.79-2.32,45.9,45.9,0,0,0-6.76-1.33,15,15,0,0,0-6.05,4.06A15.85,15.85,0,0,0,185.36,152Z"/><path class="cls-23" d="M213.22,163.39c.55.27,1.08.58,1.62.88a7.12,7.12,0,0,1,5.47-4.2,6.53,6.53,0,0,1,1.92-3.45,3,3,0,0,1,2.5-.93,4.67,4.67,0,0,1,1.34-2.61,5,5,0,0,1,2.75-1.32c.06,0,0,0,.09-.09a5.93,5.93,0,0,1,2.44-3.6,5.86,5.86,0,0,1,2.16-.89,16.3,16.3,0,0,0-1.72-1,7,7,0,0,0-3.77,4.06,6.21,6.21,0,0,0-5.21,3.95,7.88,7.88,0,0,0-2.6,1.23,2.8,2.8,0,0,0-1.06,2.65,7.18,7.18,0,0,0-4.86,3A6.6,6.6,0,0,0,213.22,163.39Z"/><path class="cls-22" d="M41.74,96.52a36.4,36.4,0,0,0,12,5,52.57,52.57,0,0,0,22.3.4,51.55,51.55,0,0,0,11.79-3.81,35.31,35.31,0,0,0,6.39-3.75,20.87,20.87,0,0,0,4.57-4.67c2.66-3.83,3.67-9,1.67-13.25a15.85,15.85,0,0,0-2.85-3.95,12.75,12.75,0,0,0-4.84-3.33c-2.56-.83-5.94,1.31-7.87,2.75-1.66,1.25-3.16,2.72-4.72,4.1-.35.31-.71.61-1.07.91A33.83,33.83,0,0,1,64.2,84c-1,.2-2,.36-3.05.46A33.83,33.83,0,0,1,42,80.77,19.47,19.47,0,0,0,38.3,79a4.77,4.77,0,0,0-3.93.41A3.79,3.79,0,0,0,33,81.2a5,5,0,0,0-.36,1.61,8.83,8.83,0,0,0,.79,3.81A22.5,22.5,0,0,0,41.74,96.52Z"/><g class="cls-29"><path class="cls-30" d="M35.29,83.58a44.2,44.2,0,0,0,26.45,9.28,43.2,43.2,0,0,0,10.07-1.07,44,44,0,0,0,16.6-7.57l.64-.49a31.25,31.25,0,0,0,3.84-3.52,26.07,26.07,0,0,0,4.75-7.67,12.75,12.75,0,0,0-4.84-3.33c-2.56-.83-5.94,1.31-7.87,2.75-1.66,1.25-3.16,2.72-4.72,4.1-.35.31-.71.61-1.07.91A33.83,33.83,0,0,1,64.2,84c-1,.2-2,.36-3.05.46A33.83,33.83,0,0,1,42,80.77,19.47,19.47,0,0,0,38.3,79a4.77,4.77,0,0,0-3.93.41A3.79,3.79,0,0,0,33,81.2,9,9,0,0,0,35.29,83.58Z"/></g><path class="cls-23" d="M76.07,102a51.55,51.55,0,0,0,11.79-3.81,35.31,35.31,0,0,0,6.39-3.75,29.54,29.54,0,0,0-4-8.93c-.4-.6-.81-1.18-1.25-1.75a29.71,29.71,0,0,0-8.84-7.67c-.35.31-.71.61-1.07.91A33.83,33.83,0,0,1,64.2,84a28.78,28.78,0,0,1,7.61,7.75c.34.52.67,1,1,1.58A30.39,30.39,0,0,1,76.07,102Z"/><path class="cls-31" d="M28.81,49.43l0,.26c2,16.25,17,29.93,36.36,32,22.2,2.41,41.89-11.22,44-30.44,1.09-10-2.85-19.64-10-26.85-.84-.84-1.72-1.64-2.64-2.41a44.4,44.4,0,0,0-23.75-9.91c-22.2-2.41-41.89,11.22-44,30.44A30.33,30.33,0,0,0,28.81,49.43Z"/><path class="cls-32" d="M28.81,49.43l0,.26c2,16.25,17,29.93,36.36,32,22.2,2.41,41.89-11.22,44-30.44,1.09-10-2.85-19.64-10-26.85a63.28,63.28,0,0,1,2.51,11.63,62.57,62.57,0,0,1,0,14.73c-.57,4.76-1.8,9.65-5,13.26S88,69.56,83.79,67.34c-3-1.58-4.81-4.82-6.23-7.94S74.81,53,72.19,50.74s-7-2.76-9.28-.17c-1.78,2-1.57,5.11-1,7.77s1.29,5.49.27,8c-1.22,3-4.74,4.58-8,4.39S48,68.94,45.28,67.14A54,54,0,0,1,28.81,49.43Z"/><path class="cls-19" d="M131.31,134.68a16.7,16.7,0,0,1-6.85,8c-5.24,3.22-34.86,18.9-38.38,18.72S64.1,129.17,65,125.86c.36-1.37,3-2.61,3-2.61S115,117.44,131.31,134.68Z"/><path class="cls-20" d="M117,103.2s15.64,25.93,14.29,31.48c-.88,3.63-40.17,22.27-43,22.86-4.06.84-22.66-33.19-20.28-34.29S114.79,98.2,117,103.2Z"/><path class="cls-19" d="M83.41,127.5a4.4,4.4,0,0,0,2.38.25,1.93,1.93,0,0,0,1.33-.75c.69-1,.34-3.06-.23-4a3.25,3.25,0,0,0-3.2-1.6,3.08,3.08,0,0,0-2.43,2.91A3.53,3.53,0,0,0,83.41,127.5Z"/><path class="cls-21" d="M83.41,127.5a4.4,4.4,0,0,0,2.38.25,5.17,5.17,0,0,0-.51-3.4,3.24,3.24,0,0,0-3.2-1.6,2.17,2.17,0,0,0-.42.11,3,3,0,0,0-.4,1.42A3.53,3.53,0,0,0,83.41,127.5Z"/><path class="cls-19" d="M97.93,133.79l18.44-8.59,2.8-1.3-3.24-6.25L112.8,119c-5.39,2.35-16,7-17.19,7.93C94,128.17,97.93,133.79,97.93,133.79Z"/><path class="cls-21" d="M97.93,133.79l18.44-8.59L112.8,119c-5.39,2.35-16,7-17.19,7.93C94,128.17,97.93,133.79,97.93,133.79Z"/><path class="cls-19" d="M90.7,141.46a1.63,1.63,0,0,0,.64-.22,2.65,2.65,0,0,0-2.63-4.47,1.8,1.8,0,0,0-.5.45,2.8,2.8,0,0,0,2.49,4.24Z"/><path class="cls-21" d="M90.7,141.46a2.79,2.79,0,0,0-2.49-4.24,2.8,2.8,0,0,0,2.49,4.24Z"/><path class="cls-11" d="M26.72,80.44a4.88,4.88,0,0,1-.55.47,4.34,4.34,0,0,1-6.44-5.48,4,4,0,0,1,.5-.77l.12-.13a4.43,4.43,0,0,1,.64-.59,4.31,4.31,0,0,1,1.56-.74,18.93,18.93,0,0,0,8.6-4.64.72.72,0,0,1,1,0,.7.7,0,0,1,.21.48.53.53,0,0,1,0,.22.76.76,0,0,1-.16.29h0l-.18.21h0l-.15.18h0a19.54,19.54,0,0,0-1.68,2.37l-.33.58-.16.29v0l-.15.31a18.66,18.66,0,0,0-1.63,4.73,4.39,4.39,0,0,1-.3.93,5.41,5.41,0,0,1-.42.74l0,0a.44.44,0,0,1-.08.11C26.92,80.22,26.82,80.33,26.72,80.44Z"/><path class="cls-12" d="M26.72,80.44a4.88,4.88,0,0,1-.55.47,4.34,4.34,0,0,1-6.44-5.48,3.79,3.79,0,0,0,.89,3.87.6.6,0,0,1,.08.08,4.15,4.15,0,0,0,5.83-.16l.16-.18a3.3,3.3,0,0,0,.68-1.28c.09-.3.18-.6.28-.89a19.47,19.47,0,0,1,4.4-7.3h0a3.42,3.42,0,0,1,.28-.3.76.76,0,0,1-.16.29h0l-.18.21h0l-.15.18h0l-.2.24-.06.07c-.06.08-.12.15-.17.23l-.07.09-.13.16a.44.44,0,0,1-.08.11,2.43,2.43,0,0,1-.14.2l-.07.1-.15.22h0l-.09.14-.08.13-.09.14a1.3,1.3,0,0,0-.1.15l-.07.12-.17.27-.33.58-.16.29v0l-.15.31a18.66,18.66,0,0,0-1.63,4.73,4.39,4.39,0,0,1-.3.93,5.41,5.41,0,0,1-.42.74l0,0a.44.44,0,0,1-.08.11C26.92,80.22,26.82,80.33,26.72,80.44Z"/><path class="cls-12" d="M26.17,80.91a4.34,4.34,0,0,1-5.94-6.25,4.52,4.52,0,0,0,5.94,6.25Z"/><path class="cls-13" d="M23.45,73.6c0-.13-.3-.16-.69-.09a4.19,4.19,0,0,0-2.05,1.17,2.58,2.58,0,0,0-.43.57l-.06.13,0,.12a1,1,0,0,0-.05.21q0,.2.06.24c.12.07.32-.07.61-.27l.49-.36.61-.42C22.76,74.31,23.53,73.84,23.45,73.6Z"/><path class="cls-13" d="M24.05,73.31c-.2-.2-.5.12-.3.31S24.25,73.5,24.05,73.31Z"/><path class="cls-11" d="M30.39,65.52a5.43,5.43,0,0,1-.95.28,5.93,5.93,0,0,1-4.83-10.49,5.84,5.84,0,0,1,1.07-.67l.22-.1A5.93,5.93,0,0,1,27,54.18a5.74,5.74,0,0,1,2.37,0,25.92,25.92,0,0,0,13.31-.81,1,1,0,0,1,1.21,1.3.82.82,0,0,1-.16.25.9.9,0,0,1-.36.27h0l-.33.15h0l-.29.14h0a23.9,23.9,0,0,0-3.44,2l-.75.53-.36.27,0,0-.37.28A25.82,25.82,0,0,0,33,63.51a6.38,6.38,0,0,1-.9,1,5.75,5.75,0,0,1-1,.66l-.07,0-.17.09A5.38,5.38,0,0,1,30.39,65.52Z"/><path class="cls-12" d="M30.39,65.52a5.43,5.43,0,0,1-.95.28,5.93,5.93,0,0,1-4.83-10.49,5.14,5.14,0,0,0-1.11,5.3,1.21,1.21,0,0,0,.05.14,5.67,5.67,0,0,0,7.3,3.16l.32-.13a4.84,4.84,0,0,0,1.57-1.2c.28-.32.56-.63.85-.94a26.87,26.87,0,0,1,9.65-6.52h0l.52-.21a.9.9,0,0,1-.36.27h0l-.33.15h0l-.29.14h0l-.38.18-.12.06-.34.18-.14.07-.25.13-.16.09-.29.16-.16.09-.31.18h0l-.19.12-.19.11L40,57l-.21.13-.16.1-.36.25-.75.53-.36.27,0,0-.37.28A25.82,25.82,0,0,0,33,63.51a6.38,6.38,0,0,1-.9,1,5.75,5.75,0,0,1-1,.66l-.07,0-.17.09A5.38,5.38,0,0,1,30.39,65.52Z"/><path class="cls-12" d="M29.44,65.8a5.93,5.93,0,0,1-3.76-11.16A6.17,6.17,0,0,0,29.44,65.8Z"/><path class="cls-13" d="M30.28,55.17c0-.17-.29-.37-.81-.5a5.64,5.64,0,0,0-2.08,0,4.67,4.67,0,0,0-1.13.31,3.73,3.73,0,0,0-.85.46l-.16.13-.13.12a1.12,1.12,0,0,0-.18.23c-.09.14-.11.26-.06.33s.43.1.9,0l.82-.16,1-.17C29,55.66,30.23,55.52,30.28,55.17Z"/><path class="cls-13" d="M31.19,55.16a.3.3,0,0,0-.56.21A.3.3,0,0,0,31.19,55.16Z"/><path class="cls-11" d="M39.87,73.75a3.91,3.91,0,0,1-.26.44A3.09,3.09,0,0,1,34,72a3.55,3.55,0,0,1,.17-.64l.05-.12a2.86,2.86,0,0,1,.3-.54,3.13,3.13,0,0,1,.89-.85,13.55,13.55,0,0,0,4.76-5.07.5.5,0,0,1,.66-.21.55.55,0,0,1,.26.28l0,.14a.67.67,0,0,1,0,.24h0l-.08.18h0l-.06.15h0a14.08,14.08,0,0,0-.6,2l-.09.47a1.57,1.57,0,0,0,0,.23h0l0,.25a13.26,13.26,0,0,0,0,3.56,3.18,3.18,0,0,1,0,.69,3.87,3.87,0,0,1-.13.59v0l0,.1Z"/><path class="cls-12" d="M39.87,73.75a3.91,3.91,0,0,1-.26.44A3.09,3.09,0,0,1,34,72a2.68,2.68,0,0,0,1.48,2.4l.07,0A3,3,0,0,0,39.47,73l.07-.16a2.52,2.52,0,0,0,.17-1c0-.22,0-.44,0-.66A14.12,14.12,0,0,1,41,65.21h0s.06-.13.13-.27a.67.67,0,0,1,0,.24h0l-.08.18h0l-.06.15h0a1.8,1.8,0,0,0-.08.21l0,.06c0,.07-.05.13-.07.19l0,.08a1.21,1.21,0,0,1,0,.14l0,.09-.06.16,0,.09-.06.18h0l0,.12,0,.11,0,.11,0,.12,0,.1c0,.07,0,.14,0,.22l-.09.47a1.57,1.57,0,0,0,0,.23h0l0,.25a13.26,13.26,0,0,0,0,3.56,3.18,3.18,0,0,1,0,.69,3.87,3.87,0,0,1-.13.59v0l0,.1Z"/><path class="cls-12" d="M39.61,74.19a3.09,3.09,0,0,1-5.42-2.88,3.22,3.22,0,0,0,5.42,2.88Z"/><path class="cls-13" d="M36.12,69.87c0-.08-.24,0-.48.1a2.77,2.77,0,0,0-.81.73,2.55,2.55,0,0,0-.31.52,2.08,2.08,0,0,0-.16.48.34.34,0,0,0,0,.1.28.28,0,0,0,0,.09.81.81,0,0,0,0,.16c0,.08,0,.13.1.14s.2-.12.35-.32l.25-.35.31-.42C35.82,70.5,36.23,70,36.12,69.87Z"/><path class="cls-13" d="M36.46,69.54c-.18-.09-.31.19-.13.28A.15.15,0,0,0,36.46,69.54Z"/><path class="cls-11" d="M115.07,69.25a4.54,4.54,0,0,0,.68.43,4.82,4.82,0,0,0,6.14-7.1,4.94,4.94,0,0,0-.69-.76l-.15-.13a4.62,4.62,0,0,0-.8-.53,4.89,4.89,0,0,0-1.84-.55A21,21,0,0,1,108.19,57a.79.79,0,0,0-1.07.17.81.81,0,0,0-.16.57A.62.62,0,0,0,107,58a.68.68,0,0,0,.22.29h0a2.11,2.11,0,0,1,.23.19h0l.19.17h0A22.19,22.19,0,0,1,110,61l.46.59.22.29,0,0c.07.1.15.2.22.31a21.34,21.34,0,0,1,2.59,4.91,4.38,4.38,0,0,0,.48,1,4.6,4.6,0,0,0,.59.73l0,0,.12.11Z"/><path class="cls-12" d="M115.07,69.25a4.54,4.54,0,0,0,.68.43,4.82,4.82,0,0,0,6.14-7.1,4.19,4.19,0,0,1-.33,4.39l-.07.1a4.62,4.62,0,0,1-6.42.82l-.21-.17a3.86,3.86,0,0,1-1-1.3c-.14-.31-.29-.62-.45-.92a21.88,21.88,0,0,0-6.06-7.26h0L107,58a.68.68,0,0,0,.22.29h0a2.11,2.11,0,0,1,.23.19h0l.19.17h0l.25.23.08.07.23.22.09.08.17.17.1.1.19.19.1.11.2.21h0l.12.14.12.13.12.13.13.15.1.11L110,61l.46.59.22.29,0,0c.07.1.15.2.22.31a21.34,21.34,0,0,1,2.59,4.91,4.38,4.38,0,0,0,.48,1,4.6,4.6,0,0,0,.59.73l0,0,.12.11Z"/><path class="cls-12" d="M115.75,69.68a4.82,4.82,0,0,0,5.45-7.86,5,5,0,0,1-5.45,7.86Z"/><path class="cls-13" d="M117.49,61.2c0-.14.31-.23.75-.21a4.39,4.39,0,0,1,1.63.44,4,4,0,0,1,.81.49,2.69,2.69,0,0,1,.56.56,1.13,1.13,0,0,1,.1.13l.07.12a1.78,1.78,0,0,1,.09.23q.06.2,0,.27c-.11.09-.36,0-.71-.2l-.6-.3-.73-.37C118.37,61.86,117.45,61.48,117.49,61.2Z"/><path class="cls-13" d="M116.79,61c.18-.24.57.05.38.3A.24.24,0,0,1,116.79,61Z"/><path class="cls-11" d="M115.42,53a2.22,2.22,0,0,0,.44,0,2.69,2.69,0,0,0,1-5.13,2.53,2.53,0,0,0-.55-.18l-.1,0a2.46,2.46,0,0,0-.54,0,2.6,2.6,0,0,0-1,.24,11.76,11.76,0,0,1-6,1,.44.44,0,0,0-.48.38.47.47,0,0,0,.08.31.47.47,0,0,0,.1.1.37.37,0,0,0,.18.08h0l.16,0h0l.14,0h0a11,11,0,0,1,1.72.5l.39.16.19.08h0l.19.09a11.52,11.52,0,0,1,2.6,1.67,2.76,2.76,0,0,0,.5.34A2.92,2.92,0,0,0,115,53h0l.09,0A1.28,1.28,0,0,0,115.42,53Z"/><path class="cls-12" d="M115.42,53a2.22,2.22,0,0,0,.44,0,2.69,2.69,0,0,0,1-5.13,2.34,2.34,0,0,1,1,2.22v.07A2.56,2.56,0,0,1,115,52.37l-.15,0a2.17,2.17,0,0,1-.82-.37l-.47-.32a12.13,12.13,0,0,0-4.93-1.86h0l-.25,0a.37.37,0,0,0,.18.08h0l.16,0h0l.14,0h0l.19,0h.06l.17,0,.06,0,.13,0,.08,0,.14,0,.08,0,.16,0h0l.1,0,.09,0,.09,0,.11,0,.08,0,.18.06.39.16.19.08h0l.19.09a11.52,11.52,0,0,1,2.6,1.67,2.76,2.76,0,0,0,.5.34A2.92,2.92,0,0,0,115,53h0l.09,0A1.28,1.28,0,0,0,115.42,53Z"/><path class="cls-12" d="M115.86,53.06a2.69,2.69,0,0,0,.49-5.31,2.79,2.79,0,0,1-.49,5.31Z"/><path class="cls-13" d="M114.38,48.46c0-.07.09-.19.31-.3a2.55,2.55,0,0,1,.91-.24,3,3,0,0,1,.53,0,1.49,1.49,0,0,1,.42.12l.09,0,.07,0a.39.39,0,0,1,.1.08c0,.05.08.1.06.14s-.18.09-.4.1h-.37l-.46,0C115,48.55,114.44,48.61,114.38,48.46Z"/><path class="cls-13" d="M114,48.55a.14.14,0,0,1,.27,0C114.23,48.76,114,48.72,114,48.55Z"/></g></g></g></svg>