<svg xmlns="http://www.w3.org/2000/svg" xmlns:xlink="http://www.w3.org/1999/xlink" viewBox="0 0 280.06 338.31"><defs><style>.cls-1{mask:url(#mask);filter:url(#luminosity-noclip-3);}.cls-2,.cls-33,.cls-35,.cls-4{mix-blend-mode:multiply;}.cls-2{fill:url(#linear-gradient);}.cls-3{mask:url(#mask-2);filter:url(#luminosity-noclip-4);}.cls-4{fill:url(#linear-gradient-2);}.cls-5{isolation:isolate;}.cls-6{fill:#ddd;}.cls-7{fill:#ccc;}.cls-8{fill:#f2f2f2;}.cls-9{fill:#bfbfbf;}.cls-10{fill:#a5a5a5;}.cls-11{fill:#011224;}.cls-12{fill:#fff;}.cls-13{fill:#edf1fd;}.cls-14{fill:#b8d2ea;}.cls-15{fill:#cadcf8;}.cls-16{fill:#22c8c1;}.cls-17{fill:#39eceb;}.cls-18{fill:#2ae0d5;}.cls-19{fill:#8284e4;}.cls-20{fill:#fddf85;}.cls-21{fill:#010b25;}.cls-22{fill:#f5fdd3;opacity:0.11;}.cls-23{fill:#78a0da;}.cls-24{fill:#398fdc;}.cls-25{fill:#174fbd;}.cls-26{fill:#21aea9;}.cls-27{fill:#1b9d98;}.cls-28{fill:#4eacf3;}.cls-29{fill:#fac52f;}.cls-30{fill:#052b71;}.cls-31{fill:#86cfd7;}.cls-32{mask:url(#mask-3);}.cls-33{fill:url(#linear-gradient-3);}.cls-34{mask:url(#mask-4);}.cls-35{fill:url(#linear-gradient-4);}.cls-36{fill:#ed5733;}.cls-37{fill:#fc826a;}.cls-38{fill:#ac2310;}.cls-39{fill:#dd503f;}.cls-40{filter:url(#luminosity-noclip-2);}.cls-41{filter:url(#luminosity-noclip);}</style><filter id="luminosity-noclip" x="164.68" y="-2826.03" width="25.98" height="32766" filterUnits="userSpaceOnUse" color-interpolation-filters="sRGB"><feFlood flood-color="#fff" result="bg"/><feBlend in="SourceGraphic" in2="bg"/></filter><mask id="mask" x="164.68" y="-2826.03" width="25.98" height="32766" maskUnits="userSpaceOnUse"><g class="cls-41"/></mask><linearGradient id="linear-gradient" x1="5101.51" y1="-70.81" x2="5109.37" y2="-67.46" gradientTransform="translate(-4862.1 -752.88) rotate(9.87)" gradientUnits="userSpaceOnUse"><stop offset="0"/><stop offset="1" stop-color="#fff"/></linearGradient><filter id="luminosity-noclip-2" x="164.49" y="-2826.03" width="14.27" height="32766" filterUnits="userSpaceOnUse" color-interpolation-filters="sRGB"><feFlood flood-color="#fff" result="bg"/><feBlend in="SourceGraphic" in2="bg"/></filter><mask id="mask-2" x="164.49" y="-2826.03" width="14.27" height="32766" maskUnits="userSpaceOnUse"><g class="cls-40"/></mask><linearGradient id="linear-gradient-2" x1="5092.13" y1="-98.32" x2="5096.54" y2="-74.82" xlink:href="#linear-gradient"/><filter id="luminosity-noclip-3" x="164.68" y="36.52" width="25.98" height="30.99" filterUnits="userSpaceOnUse" color-interpolation-filters="sRGB"><feFlood flood-color="#fff" result="bg"/><feBlend in="SourceGraphic" in2="bg"/></filter><mask id="mask-3" x="164.68" y="36.52" width="25.98" height="30.99" maskUnits="userSpaceOnUse"><g class="cls-1"><path class="cls-2" d="M190.31,57.87,184,61.49l-4.74,2.69h0l-5.86,3.33c-1.77-.14-3.53-.3-5.29-.5-.28,0-.86-4.55-.95-5-.33-1.77-.67-3.55-1-5.32-.59-3.14-1.58-6.38-1.41-9.62a9.8,9.8,0,0,1,3.7-7.26,28.22,28.22,0,0,0-1,13.19c.26,1.54.77,3.23,2.13,4,1.57.88,3.76-.37,4.92-1.75a10.45,10.45,0,0,0,2-5c.49-2.68.71-5.4.95-8.12a8.83,8.83,0,0,1,1.38-4.81,3.38,3.38,0,0,1,.86-.78,18.25,18.25,0,0,1,2.66.23c.27,0,.53.09.8.15a33.9,33.9,0,0,0-2,9.28,6.17,6.17,0,0,0,.59,3.69,4.57,4.57,0,0,0,4.53,1.79,11.64,11.64,0,0,0,4.35-1.79A45.5,45.5,0,0,1,190.31,57.87Z"/></g></mask><linearGradient id="linear-gradient-3" x1="5101.51" y1="-70.81" x2="5109.37" y2="-67.46" gradientTransform="translate(-4862.1 -752.88) rotate(9.87)" gradientUnits="userSpaceOnUse"><stop offset="0" stop-color="#fff"/><stop offset="1" stop-color="#fcb444"/></linearGradient><filter id="luminosity-noclip-4" x="164.49" y="33.45" width="14.27" height="7.61" filterUnits="userSpaceOnUse" color-interpolation-filters="sRGB"><feFlood flood-color="#fff" result="bg"/><feBlend in="SourceGraphic" in2="bg"/></filter><mask id="mask-4" x="164.49" y="33.45" width="14.27" height="7.61" maskUnits="userSpaceOnUse"><g class="cls-3"><path class="cls-4" d="M178.58,34.41a10.52,10.52,0,0,1-4.28,5.12,10.28,10.28,0,0,1-2.18,1,10.55,10.55,0,0,1-4.32.47l-.19,0a7.34,7.34,0,0,1-1.22-.25,6.32,6.32,0,0,1-1.9-1,3,3,0,0,1,.58-1.27c.42-.48,1.37-.46,2-.4s1,.17,1.46.26l.33.06a8.16,8.16,0,0,0,3.92-.37l.68-.28a8.1,8.1,0,0,0,3.46-3.1,4.49,4.49,0,0,1,.54-.8,1.12,1.12,0,0,1,.86-.4.88.88,0,0,1,.49.19A2.11,2.11,0,0,1,178.58,34.41Z"/></g></mask><linearGradient id="linear-gradient-4" x1="5092.13" y1="-98.32" x2="5096.54" y2="-74.82" xlink:href="#linear-gradient-3"/></defs><title>plan-update</title><g class="cls-5"><g id="Layer_2" data-name="Layer 2"><g id="Layer_1-2" data-name="Layer 1"><path class="cls-6" d="M223.14,226.74A111.59,111.59,0,1,1,191,148.36,111.57,111.57,0,0,1,223.14,226.74Z"/><path class="cls-7" d="M223.14,226.74a111.57,111.57,0,0,1-200,68c7.6,6.15,15.92,11.51,25.21,14.69,13,4.45,27.12,4.42,40.63,2.17,40.55-6.75,77.09-34.22,94.84-71.3,13.58-28.36,15.88-61.75,7.19-91.91A111.19,111.19,0,0,1,223.14,226.74Z"/><path class="cls-8" d="M51.23,160.19a2.77,2.77,0,0,0-1.71-.51h0l-3.46-.84-2.8,3.72a38.17,38.17,0,0,0-7,7.33,38.82,38.82,0,0,0-5,8.65l-2.78,3.71,2,3.94h0a2.56,2.56,0,0,0,.7.83c1.12.84,2.93.6,5-.5,3-1.56,6.69-4.85,9.95-9.21,4-5.33,6.28-10.81,6.23-14.21A3.55,3.55,0,0,0,51.23,160.19Z"/><path class="cls-9" d="M48,161.8c0,3-2,7.88-5.54,12.62-2.89,3.87-6.14,6.79-8.82,8.17-1.88,1-3.48,1.19-4.48.44-2.43-1.81-.42-8.62,4.5-15.19s10.88-10.44,13.31-8.62A3.13,3.13,0,0,1,48,161.8Z"/><path class="cls-10" d="M48,161.8c0,3-2,7.88-5.54,12.62-2.89,3.87-6.14,6.79-8.82,8.17,0-3,2-7.88,5.53-12.61C42,166.11,45.28,163.18,48,161.8Z"/><path class="cls-8" d="M17.58,236.36a2.74,2.74,0,0,0-1.41,1.07h0l-2.72,2.29,1.36,4.46a38.14,38.14,0,0,0,1.76,10,38.75,38.75,0,0,0,4.05,9.12L22,267.74l4.36.71h0a2.56,2.56,0,0,0,1.07-.07c1.35-.42,2.21-2,2.58-4.37.52-3.36,0-8.26-1.57-13.46-1.95-6.37-5-11.45-7.8-13.42A3.48,3.48,0,0,0,17.58,236.36Z"/><path class="cls-9" d="M17,239.94c2.47,1.75,5.19,6.26,6.93,11.91,1.41,4.62,1.86,9,1.39,12-.32,2.1-1.09,3.51-2.29,3.88-2.9.89-7.21-4.75-9.61-12.6s-2-14.94.89-15.83A3.14,3.14,0,0,1,17,239.94Z"/><path class="cls-10" d="M17,239.94c2.47,1.75,5.19,6.26,6.93,11.91,1.41,4.62,1.86,9,1.39,12-2.47-1.74-5.19-6.25-6.92-11.91A28.73,28.73,0,0,1,17,239.94Z"/><path class="cls-8" d="M69.63,303.94a4.35,4.35,0,0,0,.33,2.78h0l.92,5.53L78,314a60.51,60.51,0,0,0,15,5.66,61.31,61.31,0,0,0,15.62,1.84l7.09,1.73,4.48-5.32h0a4,4,0,0,0,.76-1.52c.52-2.15-.94-4.61-3.84-7-4.13-3.41-11.17-6.67-19.5-8.69-10.2-2.48-19.55-2.41-24.44-.22C71.22,301.31,70,302.47,69.63,303.94Z"/><path class="cls-9" d="M74,307.66c4.35-1.94,12.65-2,21.7.19,7.39,1.8,13.65,4.69,17.31,7.72,2.58,2.12,3.88,4.31,3.41,6.22-1.13,4.65-12.23,5.94-24.8,2.89s-21.84-9.29-20.72-13.93A4.92,4.92,0,0,1,74,307.66Z"/><path class="cls-10" d="M74,307.66c4.35-1.94,12.65-2,21.7.19,7.39,1.8,13.65,4.69,17.31,7.72-4.35,1.95-12.65,2-21.7-.19C83.91,313.58,77.65,310.69,74,307.66Z"/><path class="cls-8" d="M180.12,282.2a4.35,4.35,0,0,0,2.79.29h0l5.6.31,3.27-6.56a65.09,65.09,0,0,0,14-28.18l3.26-6.53L204.86,236h0a4,4,0,0,0-1.31-1.07c-2-1-4.71-.1-7.68,2.2-4.23,3.28-9,9.43-12.77,17.11-4.66,9.4-6.65,18.53-5.6,23.79C177.91,280.07,178.77,281.53,180.12,282.2Z"/><path class="cls-9" d="M184.72,278.77c-.94-4.67.83-12.78,5-21.13,3.38-6.82,7.59-12.28,11.35-15.18,2.63-2.05,5.05-2.84,6.81-2,4.29,2.12,3.11,13.24-2.64,24.83S191.33,284.59,187,282.46A4.87,4.87,0,0,1,184.72,278.77Z"/><path class="cls-10" d="M184.72,278.77c-.94-4.67.83-12.78,5-21.13,3.38-6.82,7.59-12.28,11.35-15.18.93,4.67-.83,12.77-5,21.12C192.68,270.4,188.48,275.86,184.72,278.77Z"/><path class="cls-8" d="M198,197.91a2.82,2.82,0,0,0,1-1.48h0l1.94-3.08-2.69-3.93a42.42,42.42,0,0,0-11.58-16.87L184,168.63l-4.47.65h0a2.69,2.69,0,0,0-1,.4c-1.19.82-1.55,2.65-1.17,5.06.52,3.44,2.52,8.07,5.68,12.66,3.87,5.61,8.42,9.63,11.75,10.69A3.57,3.57,0,0,0,198,197.91Z"/><path class="cls-9" d="M197.49,194.22c-3-.94-7-4.51-10.43-9.49-2.81-4.07-4.58-8.18-5-11.24-.33-2.14,0-3.76,1-4.49,2.56-1.76,8.51,2.42,13.28,9.34s6.56,14,4,15.73A3.2,3.2,0,0,1,197.49,194.22Z"/><path class="cls-10" d="M197.49,194.22c-3-.94-7-4.51-10.43-9.49-2.81-4.07-4.58-8.18-5-11.24,2.94.95,7,4.51,10.43,9.5C195.25,187.06,197,191.17,197.49,194.22Z"/><path class="cls-8" d="M126.71,134.76a2.82,2.82,0,0,0-.7-1.68h0l-1.57-3.28-4.76.19a42.15,42.15,0,0,0-20.44.81L94.5,131l-1.84,4.13h0a2.53,2.53,0,0,0-.2,1.08c.06,1.44,1.41,2.71,3.65,3.68,3.19,1.39,8.18,2.16,13.74,1.93,6.82-.29,12.64-2,15.31-4.25A3.61,3.61,0,0,0,126.71,134.76Z"/><path class="cls-9" d="M123.32,133.22c-2.37,2-7.54,3.52-13.59,3.77-4.94.21-9.36-.48-12.2-1.71-2-.86-3.19-2-3.24-3.27-.13-3.11,6.57-5.91,15-6.26s15.31,1.88,15.44,5A3.2,3.2,0,0,1,123.32,133.22Z"/><path class="cls-10" d="M123.32,133.22c-2.37,2-7.54,3.52-13.59,3.77-4.94.21-9.36-.48-12.2-1.71,2.37-2,7.54-3.52,13.6-3.77C116.06,131.3,120.49,132,123.32,133.22Z"/><path class="cls-8" d="M160.89,255.19a15.11,15.11,0,1,1-13.13-15A15.17,15.17,0,0,1,160.89,255.19Z"/><path class="cls-10" d="M155.64,253.47a15.21,15.21,0,0,1-17.2,15,15.18,15.18,0,0,1,9.32-28.34A15.16,15.16,0,0,1,155.64,253.47Z"/><path class="cls-8" d="M53.44,229.6a15.17,15.17,0,1,1,21.36-2,14.14,14.14,0,0,1-1.41,1.48A15.16,15.16,0,0,1,53.44,229.6Z"/><path class="cls-10" d="M58.12,226.66a15.16,15.16,0,0,1-.57-22.83A15.17,15.17,0,0,1,74.8,227.62a14.14,14.14,0,0,1-1.41,1.48A15.15,15.15,0,0,1,58.12,226.66Z"/><path class="cls-11" d="M125.12,95c1.5-.51,111.08-50.38,111.08-50.38l-8.5-17.44Z"/><polygon class="cls-12" points="125.12 95.04 205.83 23.63 232.28 27.94 125.12 95.04"/><path class="cls-13" d="M139.25,86.92l.07,0,0,.07Z"/><path class="cls-13" d="M141.43,85.74h-.09l.15-.09Z"/><polygon class="cls-14" points="240.43 29.36 239.42 68.17 125.4 94.8 240.43 29.36"/><polygon class="cls-12" points="125.4 94.8 240.43 29.36 280.06 36.26 125.4 94.8"/><path class="cls-15" d="M229.38,35.64l-3.5,2L205.39,49.29l-1.76,1a12.87,12.87,0,0,1-.7-4.95c0-2.2.41-4.44.62-6.3s.46-3.59.77-5.37c.21-1.21.45-2.43.77-3.63a16.55,16.55,0,0,1,2.45-5.54A12.33,12.33,0,0,1,211,21.32,16.3,16.3,0,0,1,219.78,19a13.81,13.81,0,0,1,5.09.95c.25.11.49.22.73.35a8.37,8.37,0,0,1,2,1.39,7.39,7.39,0,0,1,2,3.1,14.85,14.85,0,0,1,.27,6.17C229.72,32.52,229.57,34.08,229.38,35.64Z"/><path class="cls-13" d="M225.88,37.63,205.39,49.29l-1.76,1a12.87,12.87,0,0,1-.7-4.95c0-2.2.41-4.44.62-6.3s.46-3.59.77-5.37c.21-1.21.45-2.43.77-3.63a16.55,16.55,0,0,1,2.45-5.54A12.33,12.33,0,0,1,211,21.32c-.08.12-.16.23-.22.34-.35.65-.66,1.32-.95,2a24.93,24.93,0,0,0-1.94,8.55c-.09,1.76.12,3.75,1.5,4.85A4.06,4.06,0,0,0,214,37a8,8,0,0,0,2.82-4c.56-1.56.87-3.21,1.42-4.79A16.41,16.41,0,0,1,223.22,21,6.91,6.91,0,0,1,224.87,20c.25.11.49.22.73.35a8.37,8.37,0,0,1,2,1.39,11.13,11.13,0,0,0-5.24,6.44A31.5,31.5,0,0,0,221,37.31,18.89,18.89,0,0,0,225.88,37.63Z"/><path class="cls-16" d="M205.12,38.61a3.68,3.68,0,0,0,1.37,1.12c.74.28,12.56,1.77,13.2.75s1.12-8.13,1-8.73-1.15-1.29-1.15-1.29Z"/><path class="cls-17" d="M206.71,29.46s12,.56,12.85,1,.27,8.34-.39,9.18-13.19-.46-14-1S205.66,29.41,206.71,29.46Z"/><polygon class="cls-18" points="218.34 39.07 216.72 38.95 217.21 32.42 217.78 32.44 218.93 32.48 218.37 38.67 218.34 39.07"/><polygon class="cls-16" points="218.37 38.67 217.32 38.59 217.78 32.44 218.93 32.48 218.37 38.67"/><path class="cls-15" d="M235.14,44.34a4,4,0,0,1-4.58-.56,6.34,6.34,0,0,1-1-1.05,15.14,15.14,0,0,1-1.7-3,54.11,54.11,0,0,1-2.24-5.47c-.71-2.07-1.22-4.34-.56-6.42a6,6,0,0,1,2.33-3.16c1-.67,2.4.11,3.16.91a9.76,9.76,0,0,1,1.66,2.89c.38.87.76,1.75,1.13,2.62.68,1.57,1.36,3.13,2,4.7.8,1.84,1.61,3.79,1.35,5.78A3.93,3.93,0,0,1,235.14,44.34Z"/><path class="cls-13" d="M235.14,44.34a4,4,0,0,1-4.58-.56,6.34,6.34,0,0,1-1-1.05c0-.63,0-1.27.09-1.9a19.75,19.75,0,0,1,2.68-8.2,6.54,6.54,0,0,1,1-1.55c.68,1.57,1.36,3.13,2,4.7.8,1.84,1.61,3.79,1.35,5.78A3.93,3.93,0,0,1,235.14,44.34Z"/><path class="cls-13" d="M228.19,28.8a2.17,2.17,0,0,1,.23-1,1.06,1.06,0,0,1,.84-.55,1.42,1.42,0,0,1,1.16.9,4.15,4.15,0,0,1,.45,2.16,1.73,1.73,0,0,1-.46,1.18C229.06,32.73,228.19,29.64,228.19,28.8Z"/><path class="cls-15" d="M243.52,28.53a11.22,11.22,0,0,1-.57,1.63q-1.95,4.73-3.89,9.44a12.08,12.08,0,0,1-2.47,4.24,4.09,4.09,0,0,1-4.52,1c-2.62-1.33-1.34-4.29-.62-6.34,1-2.82,2-5.63,3.14-8.41.56-1.41,1.14-2.81,1.73-4.21l.18-.43a2.87,2.87,0,0,1,.83-1.26,2.77,2.77,0,0,1,2.23-.19,7.94,7.94,0,0,1,2.37.82,3.41,3.41,0,0,1,1.59,1.88A3.51,3.51,0,0,1,243.52,28.53Z"/><path class="cls-13" d="M243.52,28.53a5.07,5.07,0,0,0-2.47-1.86,10.7,10.7,0,0,0-3.87-.78c-.25,0-.57,0-.86,0l.18-.43a2.87,2.87,0,0,1,.83-1.26,2.77,2.77,0,0,1,2.23-.19,7.94,7.94,0,0,1,2.37.82,3.41,3.41,0,0,1,1.59,1.88A3.51,3.51,0,0,1,243.52,28.53Z"/><path class="cls-19" d="M237,35.54h0a.45.45,0,0,1-.35-.53L243.45.41a.45.45,0,1,1,.88.17l-6.86,34.6A.46.46,0,0,1,237,35.54Z"/><path class="cls-20" d="M244.33.58s7.94-1,9.89-.4-3.4,3.53.8,4,12.43.25,12.43.25l-3,10.05S251.35,14.5,250,14s-.18-1.5.27-3.05-8.17,1.15-8.17,1.15Z"/><path class="cls-17" d="M238.9,17.89c.89-.15,1.78-.27,2.68-.34a3.82,3.82,0,0,1,1.87.19,1.08,1.08,0,0,1,.71,1.09c0,.21-.18.41-.16.62s.24.4.32.62a1.86,1.86,0,0,1-.06.93c-.1.59.1,1.2,0,1.79A2.52,2.52,0,0,1,243,24.44a9.3,9.3,0,0,1-2.46.84,11.88,11.88,0,0,1-1.76.34,2.76,2.76,0,0,1-1.31-.11,1.07,1.07,0,0,1-.7-.92c0-.43.31-.86.14-1.25a1.23,1.23,0,0,0-.59-.48.83.83,0,0,1-.48-.56c0-.4.45-.64.61-1s-.15-1-.17-1.51C236.26,18.43,237.91,18.07,238.9,17.89Z"/><path class="cls-16" d="M224.72,20.43a8.48,8.48,0,0,1-1.84,2.5,12.59,12.59,0,0,1-4.51,2.8,12.31,12.31,0,0,1-2.87.65,8.73,8.73,0,0,1-1.77,0,4.9,4.9,0,0,1-1.5-.4,3.25,3.25,0,0,1-2-2.51,3.92,3.92,0,0,1,.1-1.15,3.12,3.12,0,0,1,.59-1.27c.42-.48,1.37-.46,1.94-.4s1,.17,1.47.26l.33.06a8.13,8.13,0,0,0,3.91-.37l.68-.28a8,8,0,0,0,3.46-3.1,4.53,4.53,0,0,1,.55-.8,1.11,1.11,0,0,1,.85-.4.94.94,0,0,1,.5.19,1.5,1.5,0,0,1,.27.29,2.26,2.26,0,0,1,.3.87A5.33,5.33,0,0,1,224.72,20.43Z"/><path class="cls-17" d="M224.47,17a10.52,10.52,0,0,1-4.28,5.12,10.35,10.35,0,0,1-2.19,1,10.49,10.49,0,0,1-4.31.47l-.2,0a7.22,7.22,0,0,1-1.21-.25,6.25,6.25,0,0,1-1.91-1,3.12,3.12,0,0,1,.59-1.27c.42-.48,1.37-.46,1.94-.4s1,.17,1.47.26l.33.06a8.13,8.13,0,0,0,3.91-.37l.68-.28a8,8,0,0,0,3.46-3.1,4.53,4.53,0,0,1,.55-.8,1.11,1.11,0,0,1,.85-.4.94.94,0,0,1,.5.19A2.33,2.33,0,0,1,224.47,17Z"/><path class="cls-13" d="M218.37,25.73a12.31,12.31,0,0,1-2.87.65,8.73,8.73,0,0,1-1.77,0,7.22,7.22,0,0,1-.28-2.31c0-.17,0-.34,0-.51a7.15,7.15,0,0,1,.88-2.65l.33.06a8.13,8.13,0,0,0,3.91-.37,6.76,6.76,0,0,0-.61,2.51c0,.14,0,.29,0,.44A7.66,7.66,0,0,0,218.37,25.73Z"/><path class="cls-15" d="M224.87,13.94a10.17,10.17,0,0,1-11.76,8.27,12.46,12.46,0,0,1-1.24-.3,10.16,10.16,0,1,1,13-8Z"/><path class="cls-13" d="M211.87,21.91a10.16,10.16,0,0,1-3-17.93,12,12,0,0,1,3.37-.39,12.65,12.65,0,0,1,1.75.17A11,11,0,0,1,220.14,7a8.48,8.48,0,0,1,2.37,6C222.37,18.05,217.61,22,211.87,21.91Z"/><path class="cls-21" d="M221.4,14.63s0,0,0,.06c-1,3.77-5,6.51-9.6,6.39-5.32-.15-9.52-4-9.4-8.59a7.84,7.84,0,0,1,3.23-6c.22-.17.46-.34.7-.49a10.58,10.58,0,0,1,5.92-1.57c5.31.14,9.52,4,9.39,8.59A7.19,7.19,0,0,1,221.4,14.63Z"/><path class="cls-22" d="M221.4,14.63s0,0,0,.06c-1,3.77-5,6.51-9.6,6.39-5.32-.15-9.52-4-9.4-8.59a7.84,7.84,0,0,1,3.23-6,14.58,14.58,0,0,0-1,2.66,15,15,0,0,0-.47,3.47,5.9,5.9,0,0,0,.74,3.29,2.66,2.66,0,0,0,2.94,1.19,3.77,3.77,0,0,0,1.73-1.67,5.43,5.43,0,0,1,1.54-1.87,1.65,1.65,0,0,1,2.2.25,2.19,2.19,0,0,1,0,1.87,3.36,3.36,0,0,0-.32,1.88,1.92,1.92,0,0,0,1.74,1.29,4.33,4.33,0,0,0,2.21-.56A12.93,12.93,0,0,0,221.4,14.63Z"/><ellipse class="cls-13" cx="225.14" cy="14.25" rx="3.04" ry="2.09" transform="translate(172.49 233.61) rotate(-80.13)"/><path class="cls-15" d="M226.86,14.55c-.16.93-.81,1.59-1.45,1.48a.78.78,0,0,1-.37-.17,1.8,1.8,0,0,1-.49-1.71,1.79,1.79,0,0,1,1-1.45.68.68,0,0,1,.4,0C226.64,12.78,227,13.62,226.86,14.55Z"/><path class="cls-23" d="M226.09,14.41A1.78,1.78,0,0,1,225,15.86a1.8,1.8,0,0,1-.49-1.71,1.79,1.79,0,0,1,1-1.45A1.78,1.78,0,0,1,226.09,14.41Z"/><path class="cls-13" d="M225,12.54h0a.32.32,0,0,1-.24-.38l1.91-8.25a.32.32,0,0,1,.62.14l-1.91,8.25A.32.32,0,0,1,225,12.54Z"/><path class="cls-24" d="M205.39,49.29l-1.76,1-13.32,7.58L184,61.49a6.53,6.53,0,0,1-.75-.37c-4.72-2.69-3.27-9.73-2.75-14.36q.31-2.7.77-5.38a36.52,36.52,0,0,1,1.06-4.63,15.16,15.16,0,0,1,2.17-4.53A12,12,0,0,1,187.87,29a16.22,16.22,0,0,1,8.81-2.32,13.57,13.57,0,0,1,5.09,1c.25.1.49.22.73.34a9,9,0,0,1,2,1.39c.22.21.42.42.62.64a7.83,7.83,0,0,1,1.42,2.46,15,15,0,0,1,.26,6.17c-.2,2.06-.4,4.13-.67,6.18C205.91,46.34,205.68,47.82,205.39,49.29Z"/><path class="cls-25" d="M205.39,49.29l-1.76,1-13.32,7.58L184,61.49a6.53,6.53,0,0,1-.75-.37c-4.72-2.69-3.27-9.73-2.75-14.36q.31-2.7.77-5.38a36.52,36.52,0,0,1,1.06-4.63,15.16,15.16,0,0,1,2.17-4.53A12,12,0,0,1,187.87,29l-.22.33c-.35.65-.66,1.33-1,2A25.42,25.42,0,0,0,185,37.5a21.77,21.77,0,0,0-.23,2.42c-.09,1.76.13,3.75,1.5,4.86a3.88,3.88,0,0,0,3.86.38,4.19,4.19,0,0,0,.81-.43,8,8,0,0,0,2.82-4c.56-1.57.87-3.22,1.42-4.79a16.39,16.39,0,0,1,5-7.18,6.58,6.58,0,0,1,1.65-1.07c.25.1.49.22.73.34a9,9,0,0,1,2,1.39,11.16,11.16,0,0,0-5.24,6.44A31.91,31.91,0,0,0,197.92,45a19.59,19.59,0,0,0,5,.31,19.9,19.9,0,0,0,3.17-.49C205.91,46.34,205.68,47.82,205.39,49.29Z"/><path class="cls-26" d="M182,46.32a3.77,3.77,0,0,0,1.37,1.13c.74.28,12.56,1.77,13.2.75s1.12-8.13,1-8.73-1.15-1.29-1.15-1.29Z"/><path class="cls-17" d="M183.61,37.18s12,.56,12.85,1,.27,8.33-.39,9.17-13.19-.45-14-1S182.56,37.13,183.61,37.18Z"/><polygon class="cls-26" points="195.24 46.78 193.62 46.66 194.11 40.13 194.68 40.15 195.82 40.2 195.27 46.39 195.24 46.78"/><polygon class="cls-27" points="195.27 46.39 194.22 46.31 194.68 40.15 195.82 40.2 195.27 46.39"/><path class="cls-24" d="M201.86,20.26h0a.32.32,0,0,1-.24-.38l1.91-8.24a.32.32,0,1,1,.62.14L202.23,20A.32.32,0,0,1,201.86,20.26Z"/><path class="cls-17" d="M201.62,28.15a8.31,8.31,0,0,1-1.84,2.49,12.45,12.45,0,0,1-4.51,2.8,11.84,11.84,0,0,1-2.87.66,8.06,8.06,0,0,1-1.77,0,4.9,4.9,0,0,1-1.5-.4,3.24,3.24,0,0,1-2-2.5,4,4,0,0,1,.1-1.16,3.18,3.18,0,0,1,.59-1.27c.42-.48,1.37-.45,1.94-.39s1,.17,1.47.26l.33.06a8,8,0,0,0,3.91-.38,5.72,5.72,0,0,0,.68-.28A8,8,0,0,0,199.65,25a5,5,0,0,1,.55-.81,1.13,1.13,0,0,1,.85-.39.94.94,0,0,1,.5.19,1.44,1.44,0,0,1,.27.28,2.25,2.25,0,0,1,.3.88A5.34,5.34,0,0,1,201.62,28.15Z"/><path class="cls-25" d="M201.37,24.71a10.52,10.52,0,0,1-4.28,5.12,9.88,9.88,0,0,1-2.19,1,10.49,10.49,0,0,1-4.31.48l-.2,0a8.41,8.41,0,0,1-1.21-.26,6,6,0,0,1-1.91-1,3.18,3.18,0,0,1,.59-1.27c.42-.48,1.37-.45,1.94-.39s1,.17,1.47.26l.33.06a8,8,0,0,0,3.91-.38,5.72,5.72,0,0,0,.68-.28A8,8,0,0,0,199.65,25a5,5,0,0,1,.55-.81,1.13,1.13,0,0,1,.85-.39.94.94,0,0,1,.5.19A2.22,2.22,0,0,1,201.37,24.71Z"/><path class="cls-25" d="M195.27,33.44a11.84,11.84,0,0,1-2.87.66,8.06,8.06,0,0,1-1.77,0,7.15,7.15,0,0,1-.28-2.3c0-.18,0-.35,0-.51a7.09,7.09,0,0,1,.88-2.65l.33.06a8,8,0,0,0,3.91-.38,6.85,6.85,0,0,0-.61,2.51c0,.15,0,.3,0,.44A7.54,7.54,0,0,0,195.27,33.44Z"/><path class="cls-24" d="M201.77,21.65A10.17,10.17,0,0,1,190,29.92a8.62,8.62,0,0,1-1.24-.3,10.16,10.16,0,1,1,13-8Z"/><path class="cls-17" d="M188.77,29.62a10.17,10.17,0,0,1-3-17.93,11.67,11.67,0,0,1,3.37-.38,11.28,11.28,0,0,1,1.75.17A11.05,11.05,0,0,1,197,14.71a8.52,8.52,0,0,1,2.37,6C199.27,25.77,194.51,29.73,188.77,29.62Z"/><path class="cls-21" d="M198.3,22.34s0,0,0,.06c-1,3.77-5,6.52-9.6,6.39-5.32-.14-9.52-4-9.4-8.59a7.85,7.85,0,0,1,3.23-6c.22-.17.46-.33.7-.48a10.58,10.58,0,0,1,5.92-1.58c5.31.15,9.52,4,9.39,8.6A7.18,7.18,0,0,1,198.3,22.34Z"/><path class="cls-22" d="M198.3,22.34s0,0,0,.06c-1,3.77-5,6.52-9.6,6.39-5.32-.14-9.52-4-9.4-8.59a7.85,7.85,0,0,1,3.23-6,14.34,14.34,0,0,0-1,2.66,14.67,14.67,0,0,0-.48,3.48,5.79,5.79,0,0,0,.75,3.28,2.61,2.61,0,0,0,2.93,1.19,3.73,3.73,0,0,0,1.73-1.67A5.62,5.62,0,0,1,188,21.26a1.66,1.66,0,0,1,2.2.26,2.16,2.16,0,0,1,0,1.86,3.38,3.38,0,0,0-.32,1.88,1.91,1.91,0,0,0,1.74,1.29,4.33,4.33,0,0,0,2.21-.56A12.82,12.82,0,0,0,198.3,22.34Z"/><ellipse class="cls-28" cx="202.04" cy="21.96" rx="3.04" ry="2.09" transform="translate(145.75 217.25) rotate(-80.13)"/><path class="cls-24" d="M203.76,22.26c-.16.93-.81,1.6-1.45,1.48a.87.87,0,0,1-.37-.16,1.83,1.83,0,0,1-.49-1.72,1.79,1.79,0,0,1,1.05-1.45.9.9,0,0,1,.4,0C203.54,20.49,203.92,21.34,203.76,22.26Z"/><path class="cls-25" d="M203,22.13a1.79,1.79,0,0,1-1.05,1.45,1.83,1.83,0,0,1-.49-1.72,1.79,1.79,0,0,1,1.05-1.45A1.81,1.81,0,0,1,203,22.13Z"/><path class="cls-24" d="M212.86,58.51a5.47,5.47,0,0,1-4.17-1.36q-.34-.28-.66-.6a17.61,17.61,0,0,1-2.2-2.87,55.76,55.76,0,0,1-3-5q-.66-1.27-1.2-2.61c-.29-.71-.54-1.44-.77-2.19a19.81,19.81,0,0,1-.82-4.65c-.13-2.59.19-5.66,1.92-7.7s4.11-.54,4.68,1.58a15.4,15.4,0,0,1,.28,3.53,19,19,0,0,0,1.45,6.41c.29.71.61,1.4,1,2.08a34.09,34.09,0,0,0,4.46,6.46,12.14,12.14,0,0,1,1.57,2.14,3.18,3.18,0,0,1-2.54,4.78Z"/><path class="cls-17" d="M209.37,45.13a13.38,13.38,0,0,0-6.51,3.55q-.66-1.27-1.2-2.61a4.43,4.43,0,0,0,.37-.28,14,14,0,0,1,6.37-2.74C208.69,43.76,209,44.45,209.37,45.13Z"/><path class="cls-17" d="M203.22,35.48a2.13,2.13,0,0,1,.47-1.53.87.87,0,0,1,.78-.33,1,1,0,0,1,.64.62,3.13,3.13,0,0,1,0,2.56,1.56,1.56,0,0,1-.42.59C203.61,38.24,203.25,36.11,203.22,35.48Z"/><path class="cls-17" d="M212.86,58.51a5.47,5.47,0,0,1-4.17-1.36q-.34-.28-.66-.6c0-.15.09-.3.13-.43a4.75,4.75,0,0,1,5-3.2,4.93,4.93,0,0,1,2.29.81,3.18,3.18,0,0,1-2.54,4.78Z"/><path class="cls-25" d="M218.41,62.05a1.28,1.28,0,0,1-.3.59.49.49,0,0,1-.6.08,1,1,0,0,1-1.29.29.84.84,0,0,1-1.3-.29,1.55,1.55,0,0,1-.53.3.54.54,0,0,1-.55-.15.86.86,0,0,1-.05-.69c0-.21.06-.42.08-.64a3,3,0,0,0,0-.67,2.54,2.54,0,0,0-.09-.54,2.13,2.13,0,0,0-1.11-1.4.76.76,0,0,0-.59-.07.73.73,0,0,0-.34,1l.06.13a1.52,1.52,0,0,0,.3.37c.13.12.27.22.4.32a1.2,1.2,0,0,1,.35.32.43.43,0,0,1,0,.46c-.31.43-.88,0-1.35-.43-.13-.14-.26-.27-.36-.4s-.26-.32-.32-.4a6.12,6.12,0,0,1-.92-1.68,2.54,2.54,0,0,1,.09-1.88,3,3,0,0,1,1.28-1.16,4.18,4.18,0,0,1,3.36-.46,5.26,5.26,0,0,1,1.47.92,8,8,0,0,1,1.33,1.28,5.45,5.45,0,0,1,1.16,3.11c0,.14,0,.29,0,.44A5.68,5.68,0,0,1,218.41,62.05Z"/><path class="cls-17" d="M212.09,60.32l0,0a2.13,2.13,0,0,0-.55.64c-.13-.14-.26-.27-.36-.4a1.52,1.52,0,0,1,.64-.64A1.52,1.52,0,0,0,212.09,60.32Z"/><path class="cls-17" d="M218.61,60.76h0a.79.79,0,0,0-.65.25.46.46,0,0,0-.55-.09,1.4,1.4,0,0,0-.44.4.7.7,0,0,0-.54-.3.68.68,0,0,0-.56.27.73.73,0,0,0-.6-.27.73.73,0,0,0-.56.34.63.63,0,0,0-.71.1l-.1.09a3,3,0,0,0,0-.67,1,1,0,0,1,1-.13.59.59,0,0,1,.5-.18.7.7,0,0,1,.48.28.54.54,0,0,1,.19-.18.72.72,0,0,1,.26-.08.69.69,0,0,1,.54.21.61.61,0,0,1,.39-.31.66.66,0,0,1,.53.08.73.73,0,0,1,.46-.25,1.22,1.22,0,0,1,.38,0C218.61,60.46,218.61,60.61,218.61,60.76Z"/><path class="cls-29" d="M168.52,59.91a24.21,24.21,0,0,1-1.3,2.27l-.24.37A21.29,21.29,0,0,1,158.41,70a18,18,0,0,1-3,1.08,7,7,0,0,1-2.45.25,3.15,3.15,0,0,1-2.14-1.13,3.33,3.33,0,0,1,.19-3.77,8.4,8.4,0,0,1,2.43-2.16h0l.64-.41a23.52,23.52,0,0,0,6.45-5.37,10.62,10.62,0,0,0,1.11-1.83l.07-.14c1.06-2.37,1.17-5,1.37-7.62a28,28,0,0,1,.43-3.42,12.61,12.61,0,0,1,.94-2.88,4.25,4.25,0,0,1,1-1.68,4.05,4.05,0,0,1,4.59.09,5.18,5.18,0,0,1,1.8,3.14,12.26,12.26,0,0,1,0,3.68A34.21,34.21,0,0,1,168.52,59.91Z"/><path class="cls-20" d="M158.41,70a18,18,0,0,1-3,1.08,7,7,0,0,1-2.45.25,3.15,3.15,0,0,1-2.14-1.13,3.33,3.33,0,0,1,.19-3.77,8.4,8.4,0,0,1,2.43-2.16h0a4.78,4.78,0,0,1,1.36.16,5.16,5.16,0,0,1,3.59,3.63A4,4,0,0,1,158.41,70Z"/><path class="cls-20" d="M168.52,59.91a24.21,24.21,0,0,1-1.3,2.27l-.24.37a9.52,9.52,0,0,0-2.74-2.7,9.36,9.36,0,0,0-2.78-1.18,5.28,5.28,0,0,0-1-.14,10.62,10.62,0,0,0,1.11-1.83l.07-.14a22.79,22.79,0,0,1,4.51,1.79A11.63,11.63,0,0,1,168.52,59.91Z"/><path class="cls-30" d="M156.82,69.58a2.29,2.29,0,0,1-.88,1.26,7.9,7.9,0,0,1-2,1A4.39,4.39,0,0,0,152,73.09l-.13.18c-.08.12-.15.25-.22.38s-.15.26-.24.39a1.6,1.6,0,0,1-.83.71.78.78,0,0,1-1-.37.87.87,0,0,1-.79.54.84.84,0,0,1-.78-.55.69.69,0,0,1-.63.34.66.66,0,0,1-.57-.44c.06.16-.59.27-.67.28a.59.59,0,0,1-.61-.31,1.19,1.19,0,0,1-.13-.64,2.82,2.82,0,0,1,.3-1.17A3.3,3.3,0,0,1,146,72l.08-.12a9.2,9.2,0,0,1,1.22-1.36L150,68A6.69,6.69,0,0,1,152,66.39a3.38,3.38,0,0,1,.62-.18,3.49,3.49,0,0,1,1.73.09,3.77,3.77,0,0,1,1.82,1.24l.1.14A2.4,2.4,0,0,1,156.82,69.58Z"/><path class="cls-31" d="M156.21,67.54l-1.46,1.31a3.25,3.25,0,0,1-3.71.93,2.39,2.39,0,0,1-.57-.19.64.64,0,0,1-.33-.48.9.9,0,0,1,.2-.51,9.11,9.11,0,0,1,1.1-1.3,10.45,10.45,0,0,1,1.22-1.09,3.49,3.49,0,0,1,1.73.09A3.77,3.77,0,0,1,156.21,67.54Z"/><path class="cls-31" d="M151.9,73.27c-.08.12-.15.25-.22.38a1.61,1.61,0,0,0-.47-.24,1.71,1.71,0,0,0-1.16,0,1.56,1.56,0,0,0-.82-.48.71.71,0,0,0-.62.12,1,1,0,0,0-.59-.37,1.18,1.18,0,0,0-.72.06h0a1.39,1.39,0,0,0-1.49-.36A3.3,3.3,0,0,1,146,72a1.6,1.6,0,0,1,1.26.37,1.48,1.48,0,0,1,1.55.17,1.75,1.75,0,0,1,.68-.06.63.63,0,0,1,.54.41,1.69,1.69,0,0,1,1.36,0A1.46,1.46,0,0,1,151.9,73.27Z"/><path class="cls-29" d="M190.31,57.87,184,61.49l-4.74,2.69h0l-5.86,3.33c-1.77-.14-3.53-.3-5.29-.5-.28,0-.86-4.55-.95-5-.33-1.77-.67-3.55-1-5.32-.59-3.14-1.58-6.38-1.41-9.62a9.8,9.8,0,0,1,3.7-7.26,15.19,15.19,0,0,1,8-3.1,30.75,30.75,0,0,1,3.2-.16,18.25,18.25,0,0,1,2.66.23c.27,0,.53.09.8.15s.65.16,1,.26a9.71,9.71,0,0,1,1,.34,7.75,7.75,0,0,1,3.27,2.39,11.29,11.29,0,0,1,1.84,5.16l0,.11a46.67,46.67,0,0,1,.48,4.71A45.5,45.5,0,0,1,190.31,57.87Z"/><path class="cls-20" d="M190.31,57.87,184,61.49l-4.74,2.69h0l-5.86,3.33c-1.77-.14-3.53-.3-5.29-.5-.28,0-.86-4.55-.95-5-.33-1.77-.67-3.55-1-5.32-.59-3.14-1.58-6.38-1.41-9.62a9.8,9.8,0,0,1,3.7-7.26,28.22,28.22,0,0,0-1,13.19c.26,1.54.77,3.23,2.13,4,1.57.88,3.76-.37,4.92-1.75a10.45,10.45,0,0,0,2-5c.49-2.68.71-5.4.95-8.12a8.83,8.83,0,0,1,1.38-4.81,3.38,3.38,0,0,1,.86-.78,18.25,18.25,0,0,1,2.66.23c.27,0,.53.09.8.15a33.9,33.9,0,0,0-2,9.28,6.17,6.17,0,0,0,.59,3.69,4.57,4.57,0,0,0,4.53,1.79,11.64,11.64,0,0,0,4.35-1.79A45.5,45.5,0,0,1,190.31,57.87Z"/><g class="cls-32"><path class="cls-33" d="M190.31,57.87,184,61.49l-4.74,2.69h0l-5.86,3.33c-1.77-.14-3.53-.3-5.29-.5-.28,0-.86-4.55-.95-5-.33-1.77-.67-3.55-1-5.32-.59-3.14-1.58-6.38-1.41-9.62a9.8,9.8,0,0,1,3.7-7.26,28.22,28.22,0,0,0-1,13.19c.26,1.54.77,3.23,2.13,4,1.57.88,3.76-.37,4.92-1.75a10.45,10.45,0,0,0,2-5c.49-2.68.71-5.4.95-8.12a8.83,8.83,0,0,1,1.38-4.81,3.38,3.38,0,0,1,.86-.78,18.25,18.25,0,0,1,2.66.23c.27,0,.53.09.8.15a33.9,33.9,0,0,0-2,9.28,6.17,6.17,0,0,0,.59,3.69,4.57,4.57,0,0,0,4.53,1.79,11.64,11.64,0,0,0,4.35-1.79A45.5,45.5,0,0,1,190.31,57.87Z"/></g><path class="cls-30" d="M178.84,37.84a8.84,8.84,0,0,1-1.84,2.5,12.63,12.63,0,0,1-4.52,2.8,12.19,12.19,0,0,1-2.87.65,8.63,8.63,0,0,1-1.76,0,5,5,0,0,1-1.51-.4,3.22,3.22,0,0,1-2-2.51,3.61,3.61,0,0,1,.1-1.15,3,3,0,0,1,.58-1.27c.42-.48,1.37-.46,2-.4s1,.17,1.46.26l.33.06a8.16,8.16,0,0,0,3.92-.37l.68-.28a8.1,8.1,0,0,0,3.46-3.1,4.49,4.49,0,0,1,.54-.8,1.12,1.12,0,0,1,.86-.4.88.88,0,0,1,.49.19,1.06,1.06,0,0,1,.27.29,2,2,0,0,1,.3.87A5.32,5.32,0,0,1,178.84,37.84Z"/><g class="cls-34"><path class="cls-35" d="M178.58,34.41a10.52,10.52,0,0,1-4.28,5.12,10.28,10.28,0,0,1-2.18,1,10.55,10.55,0,0,1-4.32.47l-.19,0a7.34,7.34,0,0,1-1.22-.25,6.32,6.32,0,0,1-1.9-1,3,3,0,0,1,.58-1.27c.42-.48,1.37-.46,2-.4s1,.17,1.46.26l.33.06a8.16,8.16,0,0,0,3.92-.37l.68-.28a8.1,8.1,0,0,0,3.46-3.1,4.49,4.49,0,0,1,.54-.8,1.12,1.12,0,0,1,.86-.4.88.88,0,0,1,.49.19A2.11,2.11,0,0,1,178.58,34.41Z"/></g><path class="cls-31" d="M172.48,43.14a12.19,12.19,0,0,1-2.87.65,8.63,8.63,0,0,1-1.76,0,7,7,0,0,1-.28-2.31,4.38,4.38,0,0,1,0-.51,7.14,7.14,0,0,1,.87-2.65l.33.06a8.16,8.16,0,0,0,3.92-.37,6.57,6.57,0,0,0-.61,2.51c0,.14,0,.29,0,.44A7.31,7.31,0,0,0,172.48,43.14Z"/><path class="cls-36" d="M179.08,30h0a.32.32,0,0,1-.24-.38l1.92-8.25a.31.31,0,0,1,.37-.24.32.32,0,0,1,.24.38l-1.91,8.25A.31.31,0,0,1,179.08,30Z"/><path class="cls-29" d="M179,31.35a10.16,10.16,0,0,1-11.75,8.27,12,12,0,0,1-1.25-.3,10.16,10.16,0,1,1,13-8Z"/><path class="cls-20" d="M166,39.32a10.16,10.16,0,0,1-3-17.93,12.09,12.09,0,0,1,3.38-.39,12.66,12.66,0,0,1,1.74.17,11,11,0,0,1,6.14,3.24,8.48,8.48,0,0,1,2.37,6C176.49,35.46,171.72,39.42,166,39.32Z"/><path class="cls-21" d="M175.51,32a.14.14,0,0,1,0,.06c-1,3.77-5,6.51-9.6,6.39-5.31-.15-9.52-4-9.39-8.59a7.83,7.83,0,0,1,3.22-6c.23-.17.46-.34.7-.49a10.6,10.6,0,0,1,5.92-1.57c5.32.14,9.52,4,9.4,8.59A7.19,7.19,0,0,1,175.51,32Z"/><path class="cls-22" d="M175.51,32a.14.14,0,0,1,0,.06c-1,3.77-5,6.51-9.6,6.39-5.31-.15-9.52-4-9.39-8.59a7.83,7.83,0,0,1,3.22-6,15.33,15.33,0,0,0-1,2.66,15,15,0,0,0-.47,3.47,5.73,5.73,0,0,0,.74,3.29A2.66,2.66,0,0,0,162,34.5a3.71,3.71,0,0,0,1.72-1.67A5.46,5.46,0,0,1,165.24,31a1.63,1.63,0,0,1,2.19.25,2.12,2.12,0,0,1,0,1.87,3.35,3.35,0,0,0-.31,1.88,1.92,1.92,0,0,0,1.73,1.29,4.37,4.37,0,0,0,2.22-.56A12.9,12.9,0,0,0,175.51,32Z"/><ellipse class="cls-37" cx="179.26" cy="31.66" rx="3.04" ry="2.09" transform="translate(117.32 202.83) rotate(-80.13)"/><path class="cls-38" d="M181,32c-.16.93-.8,1.59-1.44,1.48a.74.74,0,0,1-.37-.17,2,2,0,0,1,.55-3.16.69.69,0,0,1,.4,0C180.75,30.19,181.14,31,181,32Z"/><path class="cls-36" d="M180.2,31.82a1.75,1.75,0,0,1-1,1.45,2,2,0,0,1,.55-3.16A1.76,1.76,0,0,1,180.2,31.82Z"/><path class="cls-29" d="M179.21,64.19l-5.86,3.33L146.61,82.73l-1.78,1-3.34,1.9-.06.1h-.09a3.7,3.7,0,0,1-1.08-.35l-.28-.16a1.43,1.43,0,0,1,0-2.54l.06-.05a4.54,4.54,0,0,1,1.15-.59c.19-.08.42-.17.67-.29.49-.21,1.08-.5,1.76-.84l1.19-.62C152.56,76.22,168.06,67,168.06,67A83.38,83.38,0,0,1,179.21,64.19Z"/><path class="cls-36" d="M141.49,85.64l-.06.1h-.09l-.91.51-1.11.64,0,.07,0,0-1.54.87c-3.42-.32-2.59-10-2.59-10h0a4.83,4.83,0,0,1,4,.71,5.14,5.14,0,0,1,.87.64l0,0a7.71,7.71,0,0,1,1.76,2.58,8,8,0,0,1,.49,1.42A6.38,6.38,0,0,1,141.49,85.64Z"/><path class="cls-37" d="M140,85.22a4.19,4.19,0,0,1-.66,1.66l0,.07,0,0-1.54.87-.14.08c-1.6,0-3.34-1.67-4.08-4.14-.83-2.76-.1-5.42,1.63-5.93h0c1.29-.38,2.77.54,3.78,2.18a8.15,8.15,0,0,1,1,2.71q.06.3.09.6h0c0,.2,0,.4,0,.6h0A6.32,6.32,0,0,1,140,85.22Z"/><path class="cls-36" d="M144.83,83.74l-3.34,1.9-.06.1h-.09l-.91.51c-.06-.28-.12-.56-.17-.86-.08-.48-.14-1-.19-1.48h0c0-.2,0-.4,0-.6h0l0-.65a33.71,33.71,0,0,1,.06-3.46v0h0a4.78,4.78,0,0,1,4,.71,6.07,6.07,0,0,1,.64.45,7.31,7.31,0,0,1,1.84,2.44Z"/><path class="cls-37" d="M140.43,86.24l-1.11.64,0,.07,0,0a7.86,7.86,0,0,1-.81-1.86A5.93,5.93,0,0,1,138.9,80a2.28,2.28,0,0,1,1.14-.83h0c1.18-.35,2.51.39,3.5,1.78a7.68,7.68,0,0,1,1.11,2.28c.05.19.1.37.14.55l-3.34,1.9-.06.1h-.09Z"/><path class="cls-29" d="M195.73,53.76a11.27,11.27,0,0,1-.28,1.18c-1.08,3.66-3.88,6.68-7,8.94a16.56,16.56,0,0,1-2,1.29A8.07,8.07,0,0,1,184,66a4.57,4.57,0,0,1-4.47-1.66,2.47,2.47,0,0,1-.3-2.45,3.93,3.93,0,0,1,2-1.54l.4-.2a8.89,8.89,0,0,0,4.65-9.74c0-.11-.05-.23-.08-.34-.54-2.09-1.81-3.9-2.63-5.89-.69-1.68-1.65-6.83,1.57-6.47a4.76,4.76,0,0,1,1.58.57,18.05,18.05,0,0,1,7.11,6.28,13.42,13.42,0,0,1,2.1,7.68A10.62,10.62,0,0,1,195.73,53.76Z"/><path class="cls-20" d="M186.43,65.17A8.07,8.07,0,0,1,184,66a4.57,4.57,0,0,1-4.47-1.66,2.47,2.47,0,0,1-.3-2.45,3.93,3.93,0,0,1,2-1.54,4.75,4.75,0,0,1,1,0,4.86,4.86,0,0,1,3.33,1.88A4.51,4.51,0,0,1,186.43,65.17Z"/><path class="cls-20" d="M195.73,53.76a11.27,11.27,0,0,1-.28,1.18,3.88,3.88,0,0,0-.39-.42,6.22,6.22,0,0,0-2.13-1.23,11.75,11.75,0,0,0-6.51-.44,8.85,8.85,0,0,0-.17-2.41,13.47,13.47,0,0,1,5.33-.13,9,9,0,0,1,3.73,1.47,6.66,6.66,0,0,1,.59.49A10.62,10.62,0,0,1,195.73,53.76Z"/><path class="cls-20" d="M186.63,41a1.17,1.17,0,0,1,1.84-1.43c.85.64,1.26,2.18.4,3C188.08,43,186.86,41.69,186.63,41Z"/><path class="cls-30" d="M184.45,65.51a2.23,2.23,0,0,1-.88,1.27,8.72,8.72,0,0,1-2,1A4.27,4.27,0,0,0,179.66,69l-.13.18c-.08.12-.15.25-.22.37s-.15.27-.24.4a1.6,1.6,0,0,1-.83.71.79.79,0,0,1-1-.37.84.84,0,0,1-1.57,0,.68.68,0,0,1-.63.34.71.71,0,0,1-.57-.44c.06.15-.58.27-.67.27a.59.59,0,0,1-.61-.31,1.27,1.27,0,0,1-.13-.64,2.77,2.77,0,0,1,.3-1.16,3.42,3.42,0,0,1,.23-.42,1,1,0,0,1,.08-.11,8.3,8.3,0,0,1,1.22-1.36l2.66-2.59a6.69,6.69,0,0,1,2.07-1.56,3.41,3.41,0,0,1,.62-.19,3.49,3.49,0,0,1,1.73.1,3.77,3.77,0,0,1,1.82,1.24l.1.14A2.39,2.39,0,0,1,184.45,65.51Z"/><path class="cls-31" d="M183.84,63.48l-1.46,1.31a4.41,4.41,0,0,1-1.47,1,4.34,4.34,0,0,1-2.23-.08,2,2,0,0,1-.58-.18.65.65,0,0,1-.33-.48,1,1,0,0,1,.2-.51,9.11,9.11,0,0,1,1.1-1.3,11.54,11.54,0,0,1,1.22-1.1,3.49,3.49,0,0,1,1.73.1A3.77,3.77,0,0,1,183.84,63.48Z"/><path class="cls-31" d="M179.53,69.21c-.08.12-.15.25-.22.37a1.86,1.86,0,0,0-.47-.23,1.77,1.77,0,0,0-1.16,0,1.63,1.63,0,0,0-.81-.47.76.76,0,0,0-.63.11,1.15,1.15,0,0,0-.59-.37,1.18,1.18,0,0,0-.72.07h0a1.48,1.48,0,0,0-.94-.44,1.28,1.28,0,0,0-.55.09,3.42,3.42,0,0,1,.23-.42,1.68,1.68,0,0,1,1.27.38,1.46,1.46,0,0,1,1.54.17,1.76,1.76,0,0,1,.68-.07.67.67,0,0,1,.54.41,1.74,1.74,0,0,1,1.36,0A1.46,1.46,0,0,1,179.53,69.21Z"/><path class="cls-36" d="M165.15,57.42a4,4,0,0,0,2.38.8c1.46,0,9.43-.38,10.12-.85s.57-9.27,0-9.84c-.24-.23-.94-.16-.94-.16S166.38,51.91,165.15,57.42Z"/><path class="cls-37" d="M164.24,49.24s0,7.21.91,8.18c.62.63,10.93-.34,11.58-.57.93-.32.59-9.54,0-9.48S164.08,48,164.24,49.24Z"/><path class="cls-36" d="M174.07,50.11a1,1,0,0,1-.46.35.5.5,0,0,1-.36,0,1.08,1.08,0,0,1-.44-.86.74.74,0,0,1,.45-.71.7.7,0,0,1,.6.05.76.76,0,0,1,.21,1.16Z"/><path class="cls-38" d="M174.07,50.11a1,1,0,0,1-.46.35,1.23,1.23,0,0,1-.31-.76.78.78,0,0,1,.46-.72l.1,0a.76.76,0,0,1,.21,1.16Z"/><path class="cls-36" d="M171.87,53.17l-4.82.49-.73.08-.1-1.68.8-.1c1.39-.18,4.12-.52,4.48-.48S171.87,53.17,171.87,53.17Z"/><path class="cls-38" d="M171.87,53.17l-4.82.49,0-1.7c1.39-.18,4.12-.52,4.48-.48S171.87,53.17,171.87,53.17Z"/><path class="cls-36" d="M174.28,53.86a.41.41,0,0,1-.16,0,.63.63,0,0,1,0-1.23.41.41,0,0,1,.16,0,.62.62,0,0,1,.35.58A.62.62,0,0,1,174.28,53.86Z"/><path class="cls-38" d="M174.28,53.86a.67.67,0,0,1,0-1.17.62.62,0,0,1,.35.58A.62.62,0,0,1,174.28,53.86Z"/><path class="cls-19" d="M72,135.27h0a.91.91,0,0,1-.88-.91l1-69.74a.89.89,0,1,1,1.78,0l-1,69.75A.9.9,0,0,1,72,135.27Z"/><path class="cls-39" d="M73.83,64.64s15.1-4.71,19.08-4.32-5.35,8.09,3,7.43,24.28-3.94,24.28-3.94l-2.28,20.61s-25.43,4.79-28.33,4.23-.89-2.85-.56-6S73.5,87.78,73.5,87.78Z"/></g></g></g></svg>