<svg xmlns="http://www.w3.org/2000/svg" xmlns:xlink="http://www.w3.org/1999/xlink" viewBox="0 0 5442.52 1984.25">
  <defs>
    <style>.cls-1{filter:url(#filter-1)}.cls-2{filter:url(#filter-2)}.cls-3{filter:url(#filter-3)}.cls-4{filter:url(#filter-4)}.cls-5{mask:url(#mask-1);filter:url(#filter-5)}.cls-6{mask:url(#mask-2);filter:url(#filter-6)}.cls-7{mask:url(#mask-3);filter:url(#filter-7)}.cls-8{mask:url(#mask-4);filter:url(#filter-8)}.cls-9{fill:url(#linear-1)}.cls-10{fill:url(#linear-2)}.cls-11{fill:url(#linear-3)}.cls-12{fill:url(#linear-4)}.cls-13{fill:#2b4d8c}.cls-14{fill:#accdec}.cls-15{fill:#5179bc}.cls-16{fill:#60a9d8}.cls-17{mask:url(#mask-5)}.cls-18{fill:url(#linear-5)}.cls-19{mask:url(#mask-6)}.cls-20{fill:url(#linear-6)}.cls-21{fill:#508bbe}.cls-22{fill:#002840}.cls-23{fill:#fbc713}.cls-24{fill:#fee07f}.cls-25{fill:#df6626}.cls-26{fill:#81d0d8}.cls-27{fill:#3864af}.cls-28{fill:#024fa0}.cls-29{fill:#0d1426}.cls-30{mask:url(#mask-7)}.cls-31{fill:#fff;opacity:.13}.cls-32{mask:url(#mask-8)}.cls-33{opacity:.31;fill:url(#linear-7)}.cls-34{mix-blend-mode:multiply}</style>
    <mask id="mask-1" x="432.1" y="-9184" width="149.97" height="32766" maskUnits="userSpaceOnUse"><g class="cls-1"/></mask>
    <mask id="mask-2" x="366.07" y="-9184" width="318.54" height="32766" maskUnits="userSpaceOnUse"><g class="cls-2"/></mask>
    <mask id="mask-3" x="275.19" y="-9184" width="110.96" height="32766" maskUnits="userSpaceOnUse"><g class="cls-3"/></mask>
    <mask id="mask-4" x="296.37" y="-9184" width="89.78" height="32766" maskUnits="userSpaceOnUse"><g class="cls-4"/></mask>
    <mask id="mask-5" x="432.1" y="1248.38" width="149.97" height="201.69" maskUnits="userSpaceOnUse"><g class="cls-5"><path class="cls-34 cls-9" d="M474.26,1419.14l25.89,29.57a4,4,0,0,0,5.52,.47l4.6-3.72c-5-6.85-11-13.06-13.6-16.41s-5.41-7.13-5.51-11.46c-.13-5.53,4.06-10.08,8-14l57.44-57c7.2-7.14,14.48-14.41,19.53-23.23s7.66-19.58,4.78-29.34c-3-10-11.37-17.72-20.75-22.2s-19.8-6.21-30-7.89l-95.16-15.55-.63,1.08c-10.83,18.39,18,12.49,79,25.09,30.31,6.26,46.06,13.42,53.47,20.56,6.65,6.42,6.56,12.83,4.23,18.56a34.6,34.6,0,0,1-3,5.57c-7.21,11.24-77.09,77.64-93.46,93.13a4.89,4.89,0,0,0-.35,6.77z"/></g></mask>
    <mask id="mask-6" x="366.07" y="1279.89" width="318.54" height="250.16" maskUnits="userSpaceOnUse"><g class="cls-6"><path class="cls-34 cls-10" d="M366.07,1283.53s64.41,29.22,116.94,55.34c14.51,7.22,31.21,20.39,48.22,37,6.37,6.22,12.78,12.92,19.13,20,36.57,40.57,71.21,92.66,84.83,130.88a4.94,4.94,0,0,0,6.28,3l39.76-13.89a5.05,5.05,0,0,0,3-6.55c-1.25-3.33-3.14-8.25-5.62-14.43-10.61,7-22.55,14.4-35.48,9.06-10-4.11-15.58-14.54-20.79-24a425.93,425.93,0,0,0-134.61-147.84c-29.9-20.17-62.2-36.38-94.59-52.21a83.21,83.21,0,0,1-27.07,3.64z"/></g></mask>
    <mask id="mask-7" x="275.19" y="988.1" width="110.96" height="119.61" maskUnits="userSpaceOnUse"><g class="cls-7"><path class="cls-34 cls-11" d="M278.16,1069.79c12.75,32.27,51.93,46.76,87.52,32.34,.78-.31,1.55-.64,2.3-1a70.76,70.76,0,0,0,4.83-88.67c-.37-.51-.75-1-1.13-1.51l-.54-.7c-.43-.54-.86-1.07-1.3-1.6l-.52-.61c-.41-.48-.81-.94-1.23-1.41-.84-.92-1.7-1.83-2.58-2.7l-.66-.65c-.45-.43-.9-.86-1.36-1.28l-.56-.51c-1.66-1.48-3.38-2.89-5.16-4.2-.24-.18-.49-.37-.75-.55l-.75-.53q-1.89-1.32-3.87-2.52l-.8-.47q-1.39-.81-2.82-1.56l-1-.53q-2.64-1.32-5.38-2.42l-.74-.3-.88-.33a64.19,64.19,0,0,1,5.42,3.5,87.21,87.21,0,0,1,13.11,11.93c2,2.21,3.91,4.63,4.59,7.53s-.28,6.4-2.89,7.81c-3.22,1.73-7.15-.37-9.87-2.83-4-3.59-7.07-8.07-11.15-11.51s-9.69-5.79-14.73-4c-5.86,2-8.84,9.25-7.71,15.41s5.46,11.27,10.35,15.1,10.48,6.71,15.48,10.4,9.6,8.46,11.28,14.49c2.75,9.91-3.72,21-13.13,25s-20.66,1.59-28.93-4.41-13.86-15.16-17.48-24.78c-1.91-5.09-4.4-11.3-9.76-11.89-3.58-.39-7,2.25-8.55,5.53s-1.69,7.06-1.56,10.71c.07,1.85,.19,3.71,.38,5.57a57.45,57.45,0,0,0,2.53,8.15z"/></g></mask>
    <mask id="mask-8" x="296.37" y="1012.48" width="89.78" height="82.55" maskUnits="userSpaceOnUse"><g class="cls-8"><path class="cls-34 cls-12" d="M305.22,1095a109.43,109.43,0,0,0,80.26-31.4,70.86,70.86,0,0,0-12.67-51.08,139.15,139.15,0,0,1-76.44,40.63c2.89,14,5.96,27.77,8.85,41.85z"/></g></mask>
    <filter id="filter-1" x="432.1" y="-9184" width="149.97" height="32766" filterUnits="userSpaceOnUse" color-interpolation-filters="sRGB"><feFlood flood-color="#fff" result="bg"/><feBlend in="SourceGraphic" in2="bg"/></filter>
    <filter id="filter-2" x="366.07" y="-9184" width="318.54" height="32766" filterUnits="userSpaceOnUse" color-interpolation-filters="sRGB"><feFlood flood-color="#fff" result="bg"/><feBlend in="SourceGraphic" in2="bg"/></filter>
    <filter id="filter-3" x="275.19" y="-9184" width="110.96" height="32766" filterUnits="userSpaceOnUse" color-interpolation-filters="sRGB"><feFlood flood-color="#fff" result="bg"/><feBlend in="SourceGraphic" in2="bg"/></filter>
    <filter id="filter-4" x="296.37" y="-9184" width="89.78" height="32766" filterUnits="userSpaceOnUse" color-interpolation-filters="sRGB"><feFlood flood-color="#fff" result="bg"/><feBlend in="SourceGraphic" in2="bg"/></filter>
    <filter id="filter-5" x="432.1" y="1248.38" width="149.97" height="201.69" filterUnits="userSpaceOnUse" color-interpolation-filters="sRGB"><feFlood flood-color="#fff" result="bg"/><feBlend in="SourceGraphic" in2="bg"/></filter>
    <filter id="filter-6" x="366.07" y="1279.89" width="318.54" height="250.16" filterUnits="userSpaceOnUse" color-interpolation-filters="sRGB"><feFlood flood-color="#fff" result="bg"/><feBlend in="SourceGraphic" in2="bg"/></filter>
    <filter id="filter-7" x="275.19" y="988.1" width="110.96" height="119.61" filterUnits="userSpaceOnUse" color-interpolation-filters="sRGB"><feFlood flood-color="#fff" result="bg"/><feBlend in="SourceGraphic" in2="bg"/></filter>
    <filter id="filter-8" x="296.37" y="1012.48" width="89.78" height="82.55" filterUnits="userSpaceOnUse" color-interpolation-filters="sRGB"><feFlood flood-color="#fff" result="bg"/><feBlend in="SourceGraphic" in2="bg"/></filter>
    <linearGradient id="linear-1" x1="-3589.16" y1="2379.39" x2="-3224.22" y2="2474.54" gradientTransform="matrix(-0.97, 0.25, 0.25, 0.97, -3325.77, -210.23)" gradientUnits="userSpaceOnUse"><stop offset="0"/><stop offset="1" stop-color="#fff"/></linearGradient>
    <linearGradient id="linear-2" x1="-3649.38" y1="2363.06" x2="-3113.33" y2="2624.3" xlink:href="#linear-1"/>
    <linearGradient id="linear-3" x1="-3181.42" y1="2009.8" x2="-3297.58" y2="2338.99" xlink:href="#linear-1"/>
    <linearGradient id="linear-4" x1="-3273.48" y1="2307.76" x2="-3163.69" y2="1854.57" xlink:href="#linear-1"/>
    <linearGradient id="linear-5" x1="-3589.16" y1="2379.39" x2="-3224.22" y2="2474.54" gradientTransform="matrix(-0.97, 0.25, 0.25, 0.97, -3325.77, -210.23)" gradientUnits="userSpaceOnUse"><stop offset="0" stop-color="#fff"/><stop offset="1" stop-color="#49a8de"/></linearGradient>
    <linearGradient id="linear-6" x1="-3649.38" y1="2363.06" x2="-3113.33" y2="2624.3" xlink:href="#linear-5"/>
    <linearGradient id="linear-7" x1="-3273.48" y1="2307.76" x2="-3163.69" y2="1854.57" gradientTransform="matrix(-0.97, 0.25, 0.25, 0.97, -3325.77, -210.23)" gradientUnits="userSpaceOnUse"><stop offset="0" stop-color="#fff"/><stop offset="1" stop-color="#fff"/></linearGradient>
  </defs>
  <title>Scrap Astronaut</title>
  <g>
    <g transform="translate(377.91,1109.56)"><g><g id="left-hand" transform="translate(-377.91,-1109.56)"><path class="cls-13" d="M544.29,1039l21.19,14.19,11.75-16.7a76.28,76.28,0,0,1,7.59-9.64,37.9,37.9,0,0,1,10.72-7.69c.26-.13,.51-.25,.77-.36l1-.45a8.69,8.69,0,0,0,3.34-2.26c1.38-1.7,1.23-5-1.73-5a4.12,4.12,0,0,0-2.18,.63l-1.44,.86-1.54,.93-10.63,6.39q4-5.68,8-11.38c.17-.23,.33-.48,.5-.72,.44-.63,.89-1.27,1.28-1.94a8.37,8.37,0,0,0,1.4-4.28c0-2.3-2.1-4.71-4.29-4.07,1.52-.56,1.66-3,.45-4a4,4,0,0,0-4.54-.13,12,12,0,0,0-3.35,3.5l-.08,.11-1.94,2.67-8.28,11.34c1.58-5,3.68-8.24,6-13.28,.08-.18,.17-.35,.26-.54,.4-.82,.89-1.65,1.37-2.49s.84-1.49,1.17-2.21c1-2.11,.75-5.1-1.82-5.94a4.1,4.1,0,0,0-2.94,.22,7.31,7.31,0,0,0-2.85,2.43,23.22,23.22,0,0,0-1.48,2.31l-.05,.09q-8.52,14.57-17,29.15a2.48,2.48,0,0,1-.67-1.43c-.33-3-.8-5.91-1.4-8.83-.16-.77-.32-1.55-.5-2.32-.36-1.55-.75-3.1-1.18-4.63a6.81,6.81,0,0,0-1.65-3.29,2.71,2.71,0,0,0-1.49-.74c-1.75-.23-2.84,1.43-3.41,3a21.76,21.76,0,0,0-1.2,6.35c0,.72-.06,1.44-.07,2.17,0,1.35,.06,2.71,.1,4z"/><path class="cls-14" d="M595.54,1019.2c.26-.13,.51-.25,.77-.36l1-.45a16.88,16.88,0,0,0-2-5.81l-1.54,.93a10.89,10.89,0,0,1,1.77,5.69zm-13.08-22.2l-1.94,2.67a4.52,4.52,0,0,1,2.87,1.6,11.39,11.39,0,0,0,5,4.47,8.28,8.28,0,0,1,2.69,2.83c.17-.23,.33-.48,.5-.72,.44-.63,.89-1.27,1.28-1.94a8.83,8.83,0,0,0-.56-1.05,6.16,6.16,0,0,0-4.93-3.06,8.06,8.06,0,0,0-4.91-4.8zm-10.46-5.53a15.48,15.48,0,0,1,6.55,5.68c.4-.82,.89-1.65,1.37-2.49a18.76,18.76,0,0,0-6.44-5.5,23.22,23.22,0,0,0-1.48,2.31zm-28.71,19.53a18.83,18.83,0,0,1,4-.85,18,18,0,0,1,5.52,.35c-.16-.77-.32-1.55-.5-2.32-1-.14-1.86-.2-2.41-.23a17.42,17.42,0,0,0-6.52,.88c-.06,.67-.08,1.39-.09,2.17z"/></g><g id="left-arm" transform="translate(-377.91,-1109.56)"><path class="cls-15" d="M377.91,1109.56c3.48,5.77,9.77,9.13,15.94,11.71,31.79,13.31,68.25,13,101,2a156.47,156.47,0,0,0,16.06-6.39l.67-.31c23-10.81,43.48-28,54.32-50.71a84.47,84.47,0,0,0,4.17-10.53,80.74,80.74,0,0,0-27.94-21.41c-2.14,2.61-4.36,5.13-6.66,7.59a162.67,162.67,0,0,1-41.57,32.16,156.48,156.48,0,0,1-15.73,7.41,148.5,148.5,0,0,1-44.25,10.5c-12.95,1-25.95,.38-38.92-.24l-14-.67c-5.77,3.46-6.56,13.12-3.09,18.89z"/><path class="cls-14" d="M494.87,1123.27a156.47,156.47,0,0,0,16.06-6.39l.67-.31a209.57,209.57,0,0,0-17.68-42.9,156.48,156.48,0,0,1-15.73,7.41,126.78,126.78,0,0,1,16.68,42.19zm40.62-81.76a104.44,104.44,0,0,1,28.51,22.12c.66,.73,1.31,1.47,1.95,2.23a84.47,84.47,0,0,0,4.17-10.53,80.74,80.74,0,0,0-27.94-21.41c-2.18,2.61-4.39,5.13-6.69,7.59z"/></g><animateTransform id="animWave1" begin="0;animWave2.end" dur="1.5s" attributeName="transform" attributeType="XML" type="rotate" from="0" to="-45" fill="freeze"/><animateTransform id="animWave2" begin="animWave1.end" dur="1.5s" attributeName="transform" attributeType="XML" type="rotate" from="-45" to="0" fill="freeze"/></g></g>
    <g id="left-feet"><path class="cls-13" d="M433.94,1454.23c1.87,6.23,68.42,84.82,68.42,84.82a15.15,15.15,0,0,0,4.73-3.65,13.6,13.6,0,0,0,3.08-6c1.58-6.86-22.26-70-22.26-70l14.3-12.42-26.87-31.52s-26.68,20-37.23,31.68c-2.88,3.21-4.56,5.75-4.17,7.09z"/><path class="cls-16" d="M433.94,1454.23c1.87,6.23,68.42,84.82,68.42,84.82a15.15,15.15,0,0,0,4.73-3.65l-47.57-60.15s20.32-16,13-26.09-25.44,8.91-25.44,8.91l-9-10.91c-2.85,3.19-4.53,5.73-4.14,7.07z"/></g>
    <g id="left-leg"><path class="cls-15" d="M474.26,1419.14l25.89,29.57a4,4,0,0,0,5.52,.47l4.6-3.72c11.19-9,34.69-27.83,69.91-55.17,28.14-21.86,51.71-47,61.67-71.27,3.71-9.07,5.54-18,5-26.63-.64-10.17-4.59-19.87-12.62-28.75-33-36.53-141.73-56.38-141.73-56.38-29.32-6.49-46.63,22.65-57.51,41.12l-.63,1.08c-10.83,18.39,18,12.49,79,25.09,30.31,6.26,46.06,13.42,53.47,20.56,6.65,6.42,6.56,12.83,4.23,18.56a34.6,34.6,0,0,1-3,5.57c-7.21,11.24-77.09,77.64-93.46,93.13a4.89,4.89,0,0,0-.34,6.77z"/><path class="cls-14" d="M571,1313.67a118.57,118.57,0,0,1,70.85,5.35c3.71-9.07,5.54-18,5-26.63a167.52,167.52,0,0,0-80.06,2.72c6.63,6.42,6.54,12.83,4.21,18.56z"/><g class="cls-17"><path class="cls-34 cls-18" d="M474.26,1419.14l25.89,29.57a4,4,0,0,0,5.52,.47l4.6-3.72c-5-6.85-11-13.06-13.6-16.41s-5.41-7.13-5.51-11.46c-.13-5.53,4.06-10.08,8-14l57.44-57c7.2-7.14,14.48-14.41,19.53-23.23s7.66-19.58,4.78-29.34c-3-10-11.37-17.72-20.75-22.2s-19.8-6.21-30-7.89l-95.16-15.55-.63,1.08c-10.83,18.39,18,12.49,79,25.09,30.31,6.26,46.06,13.42,53.47,20.56,6.65,6.42,6.56,12.83,4.23,18.56a34.6,34.6,0,0,1-3,5.57c-7.21,11.24-77.09,77.64-93.46,93.13a4.89,4.89,0,0,0-.35,6.77z"/></g></g>
    <g id="right-feet"><path class="cls-13" d="M648.17,1576.19l95.06,23.86a23.85,23.85,0,0,0,5.36-7.25,12.78,12.78,0,0,0-.14-12c-5.52-9.93-58.39-41.59-58.39-41.59-2-11.54-8.11-27.36-8.11-27.36l-42.19,15.7,6.63,38.31z"/><path class="cls-16" d="M648.17,1576.19l95.06,23.86a23.85,23.85,0,0,0,5.36-7.25l-70.42-17.25s2.34-27-11.73-33.11-10.3,26-10.3,26l-9.75-2.57z"/></g>
    <g id="right-leg"><path class="cls-15" d="M366.07,1283.53s64.41,29.22,116.94,55.34c14.51,7.22,31.21,20.39,48.22,37,6.37,6.22,12.78,12.92,19.13,20,36.57,40.57,71.21,92.66,84.83,130.88a4.94,4.94,0,0,0,6.28,3l39.76-13.89a5.05,5.05,0,0,0,3-6.55c-1.25-3.33-3.14-8.25-5.62-14.43-12.14-30.16-38.58-90.32-74.72-141.5-6.65-9.41-13.63-18.53-20.91-27.09-6-7.11-12.28-13.83-18.71-20-73.15-70.64-105.38-82.88-105.38-82.88s-23.18,43.44-65.8,56.51a83.21,83.21,0,0,1-27.02,3.61z"/><path class="cls-14" d="M531.23,1375.87c6.37,6.22,12.78,12.92,19.13,20a127.21,127.21,0,0,1,9.11-11.07,130.39,130.39,0,0,1,44.47-31.37c-6.65-9.41-13.63-18.53-20.91-27.09-6,1.88-11.78,5.6-16.81,9.57a146.3,146.3,0,0,0-34.99,39.96z"/><g class="cls-19"><path class="cls-34 cls-20" d="M366.07,1283.53s64.41,29.22,116.94,55.34c14.51,7.22,31.21,20.39,48.22,37,6.37,6.22,12.78,12.92,19.13,20,36.57,40.57,71.21,92.66,84.83,130.88a4.94,4.94,0,0,0,6.28,3l39.76-13.89a5.05,5.05,0,0,0,3-6.55c-1.25-3.33-3.14-8.25-5.62-14.43-10.61,7-22.55,14.4-35.48,9.06-10-4.11-15.58-14.54-20.79-24a425.93,425.93,0,0,0-134.61-147.84c-29.9-20.17-62.2-36.38-94.59-52.21a83.21,83.21,0,0,1-27.07,3.64z"/></g></g>
    <g id="body-back"><path class="cls-13" d="M284.18,1241.52c6.11,10.53,14.72,21.54,24.5,32.2a353.21,353.21,0,0,0,36.47,34.19c21.91,17.89,42.11,30.1,48.77,29.28,13.64-1.67,78.83-57.89,82.84-78.89,2.09-10.92-23.32-25.46-50.67-44-12.87-8.72-26.16-18.33-37.24-28.87-10.67-10.15-19.28-21.16-23.47-33.08-17.76-50.6-55.55-53.27-104.66,24,0,.01-2.28,20.77,23.46,65.17z"/><path class="cls-21" d="M328.21,1122.6s-33.17,55.77-43.08,58.69-23.93-.52-24.41-4.94,26.11-39.59,38.32-50.86,35.83-13.77,29.17-2.89z"/><path class="cls-22" d="M308.68,1273.72a353.21,353.21,0,0,0,36.47,34.19,555.25,555.25,0,0,0,80.94-93.62c-12.87-8.72-26.16-18.33-37.24-28.87q-4.35,7-9,13.69a335.53,335.53,0,0,1-52.95,59.59q-8.39,7.44-17.25,14.28z"/><ellipse class="cls-21" cx="374.93" cy="1304.73" rx="11.09" ry="10.97" transform="translate(-957.61 1564.03) rotate(-84.98)"/></g>
    <g id="body"><path class="cls-15" d="M328.39,1240.81a157,157,0,0,0,22,22.15c11.5,9.33,23.86,16.11,35.87,18.27,15.19,2.73,30.95-2.38,45.71-11.21,26.68-16,50.13-44.07,61.2-59.9,17.2-24.59-56.75-104.3-87.91-117.7a41.21,41.21,0,0,0-21.68-2.75c-24.12,3-45.59,23.11-45.59,23.11a163.8,163.8,0,0,0-22.41,25.3,114.26,114.26,0,0,0-9.16,15.09c-3.6,7.25-6.26,15-7,22.7-1.42,16.69,10.8,42.8,28.97,64.94z"/><path class="cls-14" d="M328.39,1240.81a157,157,0,0,0,22,22.15c4.51-2.25,8.91-4.73,13.19-7.36a131.89,131.89,0,0,0,36.84-33,183.57,183.57,0,0,1,31.58,47.4c26.68-16,50.13-44.07,61.2-59.9,17.2-24.59-56.75-104.3-87.91-117.7a41.21,41.21,0,0,0-21.68-2.75,183.51,183.51,0,0,1,46.72,45c-13.32,12.69-27.09,25.58-40.6,38.07l-.16,.1a312.3,312.3,0,0,0-74-34.8,114.26,114.26,0,0,0-9.16,15.09,210.58,210.58,0,0,1,73.51,43.5c-10.23,14.34-24.75,24.86-39,35.1q-6.25,4.59-12.53,9.1z"/></g>
    <g id="body-front"><path class="cls-23" d="M468,1156.9s-3.67,11.28-6.49,14-40.41,37.17-45.57,38.32-38.19-29.39-39.64-32.78,.52-8.87,.52-8.87z"/><path class="cls-24" d="M465.88,1160.29a6.55,6.55,0,0,0,.89-9c-7-9.07-22.11-27.62-29.26-29.4-9.5-2.37-58.14,41.66-60.74,45.63s34.69,34.28,37.65,34.6c2.43,.3,38.44-30.59,51.46-41.83z"/><path class="cls-23" d="M399.52,1158.8l5,5.52c12.47-9.69,26.69-20.06,33.44-24.94l4-2.85-5.21-4.78c-.67,.58-2,1.59-3.67,2.88-9.87,7.37-33.56,24.17-33.56,24.17zm21.31,8.76l5.98,6.07,21.87-17.69,3.59-2.91-6.18-6.25-3.61,2.97-21.65,17.81zm-8.29,15.82c2.48,2.74,5.47,4.31,7.67,4.26a3.09,3.09,0,0,0,2.1-.76c2-1.84,.81-6.38-2.6-10.14s-7.79-5.33-9.77-3.5a3.18,3.18,0,0,0-.94,2.06c-.23,2.22,1.06,5.35,3.54,8.08z"/><path class="cls-25" d="M399.52,1158.8l5,5.52c12.47-9.69,26.69-20.06,33.44-24.94l-4.92-4.75c-9.83,7.37-33.52,24.17-33.52,24.17zm21.31,8.76l5.98,6.07,21.87-17.69-6.2-6.19-21.65,17.81zm-8.29,15.82c2.48,2.74,5.47,4.31,7.67,4.26,.23-2.22-1.06-5.35-3.54-8.09s-5.46-4.3-7.67-4.25c-.23,2.22,1.06,5.35,3.54,8.08z"/><path class="cls-14" d="M449.53,1218.45c.76,1,1.62,2,2.45,3q6.6,7.38,12.56,15.31,5.26,7,10,14.4c1.27,2,2.52,4,3.73,6a87.18,87.18,0,0,0,9.08-13.43,183.15,183.15,0,0,0-23.13-35.22l-.41-.69a.79,.79,0,0,0-1.2-.2c-4.26,3.64-8.61,7.38-13.08,10.83z"/></g>
    <g id="body-tube-left"><path class="cls-24" d="M476,1220.59c.51,.44,1,.87,1.57,1.29l.79,.63h0a71.92,71.92,0,0,0,8.21,5.53c.3,.18,.59,.35,.89,.51a64.66,64.66,0,0,0,6.19,3.06l.92,.4q2.55,1.07,5.19,1.92c1.45,.47,2.91,.88,4.4,1.26l.95,.23a69.83,69.83,0,0,0,8,1.4l1,.11a65.09,65.09,0,0,0,8.82,.27h.46,1a63.05,63.05,0,0,0,9.1-1c.34-.07,.68-.13,1-.21,4.54-1,8.86-2.77,12.1-5.93,.12-.1,.23-.21,.34-.32s.25-.26,.37-.4a15.46,15.46,0,0,0,4-8.72c.05-.35,.07-.7,.09-1a15.11,15.11,0,0,0-3.66-10.51c-.24-.28-.49-.55-.76-.81a15.89,15.89,0,0,0-2.93-2.35,16.32,16.32,0,0,0-3.23-1.58,9.16,9.16,0,0,0-1-.33,21.59,21.59,0,0,0-11.66,.17c-.35,.09-.69,.18-1,.29a53.3,53.3,0,0,0-7.71,3l-1,.49-1.34,.67a5.42,5.42,0,0,0-2.72,3.4c3.83,.88,7.39,1.79,10.25,2.54l1.38,.36,4.19,1.15c.5-.15,1-.27,1.52-.37,.33-.07,.66-.12,1-.16a11.86,11.86,0,0,1,1.79-.06c.25,0,.49,0,.73,.06s.66,.12,1,.2a7.63,7.63,0,0,1,1.47,.58,5.15,5.15,0,0,1,.84,.57,2.65,2.65,0,0,1,1.09,2s0,0,0,0a2.25,2.25,0,0,1-.29,1.09,6.31,6.31,0,0,1-.87,1.12,6.83,6.83,0,0,1-1.74,1.28,10.42,10.42,0,0,1-1.26,.6l-.55,.22a28.64,28.64,0,0,1-5.08,1.28l-1.23,.18c-1.44,.19-2.87,.31-4.29,.38-.54,0-1.08,.06-1.62,.07h-1.07a58.77,58.77,0,0,1-6.89-.34l-1-.13a56,56,0,0,1-6.93-1.3l-1-.25a58,58,0,0,1-7.12-2.44l-.95-.4q-2.42-1.07-4.71-2.34l-.91-.52a52.87,52.87,0,0,1-7-4.84l-.59-.48-.19-.16c-2.5-2-5.92-2.31-8.35,.13-2.09,2.05-2.47,6.4,0,8.51z"/><path class="cls-25" d="M518.48,1207.87a22.19,22.19,0,0,1,6.19,6.61l1.38,.36a23.32,23.32,0,0,0-6.54-7.46zm13.28,7.75c.33-.07,.66-.12,1-.16a25.46,25.46,0,0,0-4.5-11.37c-.35,.09-.69,.18-1,.29a24.4,24.4,0,0,1,4.5,11.24zm3.52-.16c.33,0,.66,.12,1,.2a25.76,25.76,0,0,1,4.66-11.41,9.16,9.16,0,0,0-1-.33,27.11,27.11,0,0,0-4.66,11.54zm4.11,4.42a18.78,18.78,0,0,1,12,.66c.05-.35,.07-.7,.09-1a19.71,19.71,0,0,0-11.84-.74s0,0,0,0a2.25,2.25,0,0,1-.25,1.08zm-1.65-3.64a5.15,5.15,0,0,1,.84,.57,16.68,16.68,0,0,1,9.27-7.82c-.24-.28-.49-.55-.76-.81a17.78,17.78,0,0,0-9.35,8.06zm-2.22,6.64a32.93,32.93,0,0,1,11.16,7.1c.12-.1,.23-.21,.34-.32s.25-.26,.37-.4a34,34,0,0,0-10.61-7,10.42,10.42,0,0,1-1.26,.62zm-1.95,13.24c.34-.07,.68-.13,1-.21a17,17,0,0,0-4.69-11.53l-1.23,.18a15.88,15.88,0,0,1,4.92,11.56zm-10.11,1.06h1a28.3,28.3,0,0,0-1.72-12.13h-1.07a27.24,27.24,0,0,1,1.79,12.13zm-10.29-.36l1,.11a29.22,29.22,0,0,0,.61-12.24l-1-.13a28.2,28.2,0,0,1-.61,12.26zm-8.98-1.63l.95,.23c1.16-3.84,1.12-8.15,1.68-12.16l-1-.25c-.5,3.99-.42,8.36-1.63,12.18zm-10.51-3.58l.92,.4a32.64,32.64,0,0,0,4.14-11.44l-.95-.4a31.56,31.56,0,0,1-4.11,11.44zm-7.08-3.61c.3,.18,.59,.35,.89,.51a23.52,23.52,0,0,0,5.59-10.72l-.91-.52a22.55,22.55,0,0,1-5.57,10.73zm-9-6.12l.79,.63,6.81-10-.59-.48-.19-.16z"/></g>
    <g id="body-tube-right"><path class="cls-24" d="M370.54,1308.62l2.93,3c.24,.26,.49,.51,.74,.76,2.55,2.6,5.16,5.16,7.87,7.61,.25,.24,.51,.47,.77,.7a89.33,89.33,0,0,0,9.36,7.36l.84,.55c1.14,.75,2.31,1.46,3.5,2.14a55.68,55.68,0,0,0,6.4,3.12l1,.4a48.91,48.91,0,0,0,10.88,2.87l1.09,.13a38.4,38.4,0,0,0,8.64,0,36.5,36.5,0,0,0,5-.9l1.05-.29a36.33,36.33,0,0,0,13.25-7l.82-.7a40.28,40.28,0,0,0,5.12-5.46,47,47,0,0,0,3.58-5.3c.18-.31,.35-.62,.52-.93a50.94,50.94,0,0,0,4.74-12.24c.09-.33,.18-.68,.25-1a67.91,67.91,0,0,0,1.52-9.88c0-.34,.06-.68,.08-1,.22-3.06,.27-6.15,.21-9.24v-1c-.08-2.76-.25-5.52-.49-8.27,0-.34-.05-.68-.08-1-.22-2.54-.49-5.06-.77-7.56l-.12-1c-.12-1-.24-2.06-.37-3.08-.4-3.3-4.51-5.12-7.35-4.38-3.45,.91-4.74,4.17-4.34,7.44,.08,.64,.15,1.27,.23,1.91l.12,1c.25,2.14,.49,4.29,.7,6.44,0,.34,.07,.68,.1,1,.21,2.36,.38,4.74,.48,7.11v1a79.64,79.64,0,0,1-.24,9.4c0,.34-.06,.68-.1,1-.07,.8-.17,1.6-.28,2.39a46.47,46.47,0,0,1-1.39,6.46l-.3,1a40.36,40.36,0,0,1-4.2,9.25c-.18,.28-.36,.57-.55,.84a29.14,29.14,0,0,1-7,7.48c-.28,.21-.56,.41-.84,.59a23,23,0,0,1-8.82,3.65c-.33,.07-.66,.12-1,.17a24.84,24.84,0,0,1-4.27,.24,32.47,32.47,0,0,1-5.44-.6l-1-.2a36.82,36.82,0,0,1-6.35-2.07l-.92-.41a47,47,0,0,1-5.66-3.07l-.91-.59a75.33,75.33,0,0,1-8.5-6.6l-.8-.71c-3-2.67-5.77-5.49-8.46-8.27l-.71-.73-2-2.07c-5.38-5.68-13.97,2.92-8.53,8.54z M447.5,1267.29a46.6,46.6,0,0,0,11.83-1.89l-.12-1a46.6,46.6,0,0,1-11.83,1.89zm.8,7.46a43.46,43.46,0,0,0,11.88-.77c0-.34-.05-.68-.08-1a42.08,42.08,0,0,1-11.9,.77c.03,.32,.07,.66,.1,1z"/><path class="cls-25" d="M448.81,1282.88a84.19,84.19,0,0,0,11.89,.39v-1a84.24,84.24,0,0,1-11.89-.39zm-.34,10.41a51.84,51.84,0,0,0,11.94,.25c0-.34,.06-.68,.08-1a50.57,50.57,0,0,1-11.92-.23c-.03,.31-.06,.69-.1,.98zm-1.97,9.82a44.35,44.35,0,0,0,12.14,1.33c.09-.33,.18-.68,.25-1a43.57,43.57,0,0,1-12.09-1.28zm-4.75,10.09a39.24,39.24,0,0,0,11.63,4.41c.18-.31,.35-.62,.52-.93a38.43,38.43,0,0,1-11.6-4.32c-.18,.28-.36,.57-.55,.84zm-7.81,8.07a47.61,47.61,0,0,0,9.92,7.8l.82-.7a46.16,46.16,0,0,1-9.9-7.69c-.28,.21-.56,.41-.84,.59zm-9.82,3.82a34.67,34.67,0,0,0,5.44,11.32l1.05-.29a33.9,33.9,0,0,1-5.49-11.2c-.33,.08-.66,.08-1,.17zm-9.32,12.05l1.09,.13a35.93,35.93,0,0,1-1.48-12.54l-1-.2a37.29,37.29,0,0,0,1.39,12.61zm-11.8-3.27l1,.4a39,39,0,0,1,3.16-11.81l-.92-.41a39.59,39.59,0,0,0-3.24,11.82zm-10.79-5.81l.84,.55c1.9-3.72,4.25-7.25,7.45-9.63l-.91-.59a28.83,28.83,0,0,0-7.38,9.67zm-10.13-8.06c.25,.24,.51,.47,.77,.7a22.87,22.87,0,0,1,8.24-8.91l-.8-.71a23.94,23.94,0,0,0-8.21,8.92zm-8.61-8.37c.24,.26,.49,.51,.74,.76a24.69,24.69,0,0,1,7.62-9.58l-.71-.73a25.79,25.79,0,0,0-7.65,9.55z"/></g>
    <g transform="translate(325.38 1164.75)"><g><g id="right-arm" transform="translate(-325.38 -1164.75)"><path class="cls-15" d="M264.72,1231.37a110.05,110.05,0,0,0-.69,55.34,94.79,94.79,0,0,0,42.58,57.41,95.38,95.38,0,0,0,43.39,13.68,85.59,85.59,0,0,0,16.07-.54,185.36,185.36,0,0,0,14.53-39.7l.31-.74a.8,.8,0,0,0-.54-1.1c-5.43-1.31-10.93-2.68-16.36-4.27-14.54-4.25-28.53-10.07-39.16-20.69-.33-.34-.67-.68-1-1a60.25,60.25,0,0,1-9.74-66.57c3.63-7.21,8.7-13.57,12.82-20.5s7.37-14.81,6.71-22.87-6.14-16.1-14-17.47c-8.66-1.5-16.56,5-22.52,11.54-14.99,16.33-26.66,35.99-32.4,57.48z"/><path class="cls-14" d="M264,1286.71a93.88,93.88,0,0,0,18.74,36.79,76.67,76.67,0,0,1,12.56-16.21,75.85,75.85,0,0,1,28.51-17.56,58.4,58.4,0,0,1-14.65-29.52,32.86,32.86,0,0,0-3.61,1.11,130.85,130.85,0,0,0-32.84,17.76,60.89,60.89,0,0,0-8.71,7.63z"/></g><g id="right-hand" transform="translate(-325.38 -1164.75)"><path class="cls-13" d="M378.78,1320.05c-.56,1.43-1.13,2.86-1.71,4.28-3.21,8-6.52,15.82-9.75,23.77-.87,2.14-1.72,4.28-2.58,6.44l32.12,3.38,2.31,.25,3.55,.38c1.77,.18,3.89,.23,4.95-1.22a6.82,6.82,0,0,0,4.65-4,5.84,5.84,0,0,0,8.57-3.47c1.69,0,3.69,0,5.22-.75a4.16,4.16,0,0,0,2.49-4.09,5.67,5.67,0,0,0-2.48-3.31,50.65,50.65,0,0,0-6.72-4.34c-.68-.37-1.36-.73-2.06-1.08-2.78-1.43-5.66-2.71-8.52-4l-10.2-4.52a79.5,79.5,0,0,0,9.16-5.36c.7-.48,1.4-1,2.09-1.45,1.13-.8,2.23-1.61,3.3-2.42a9.86,9.86,0,0,0,2.44-2.38,3.74,3.74,0,0,0,.56-3.26c-.65-1.81-3-2.43-4.84-1.89s-3.29,1.89-4.82,3l-.45,.32a21.36,21.36,0,0,1-2.06,1.34,27,27,0,0,1-21,2.68c-1-.31-2.26-.66-3.15,0a3.5,3.5,0,0,0-1.07,1.7z"/><path class="cls-14" d="M377.07,1324.33c-3.21,8-6.52,15.82-9.75,23.77q2.55,1,5.13,1.86c3.56,1.21,7.18,2.26,10.83,3.15a5.34,5.34,0,0,0,2.88,.14,5.25,5.25,0,0,0,2.23-1.78,55.73,55.73,0,0,0,8.64-13.92,4.62,4.62,0,0,0,.46-3.57,4.52,4.52,0,0,0-1.66-1.76,46.54,46.54,0,0,0-18.76-7.89zm26.93-8.61a19.13,19.13,0,0,1,3.78,6.69c.7-.48,1.4-1,2.09-1.45a20.86,20.86,0,0,0-3.81-6.58,21.36,21.36,0,0,1-2.06,1.34zm-7.14,42.2l2.31,.25a9.54,9.54,0,0,0,2.07-2.64,7.19,7.19,0,0,0,6-4.88,5.94,5.94,0,0,0,3.95-1.49,6.27,6.27,0,0,0,2-3.81,9.08,9.08,0,0,0,5.19-4.43,9.31,9.31,0,0,0,1-3.58c-.68-.37-1.36-.73-2.06-1.08,0,3.52-2.37,7.22-5.71,8.2a5.77,5.77,0,0,1-2.23,3.13,17.21,17.21,0,0,1-3.51,1.89,8.27,8.27,0,0,1-6.47,5.4,8.12,8.12,0,0,1-2.54,3.04z"/></g><animateTransform id="animWave3" begin="0;animWave4.end" dur="1.5s" attributeName="transform" attributeType="XML" type="rotate" from="0" to="25" fill="freeze"/><animateTransform id="animWave4" begin="animWave3.end" dur="1.5s" attributeName="transform" attributeType="XML" type="rotate" from="25" to="0" fill="freeze"/></g></g>
    <g id="head"><path class="cls-24" d="M274.28,1113.64c6.4,25.16,37.3,38.81,69,30.51a76,76,0,0,0,11.76-4.14,64.54,64.54,0,0,0,27.16-22.22c7.07-10.44,9.9-22.54,6.93-34.22a38,38,0,0,0-7.47-14.73c-.05-.06-.1-.13-.16-.19-3.63,7.16-9.88,13.25-15.87,18.82-3.3,3.07-6.63,6.16-10.1,9.06a77.31,77.31,0,0,1-15.12,10.23l-.21,.1a65.42,65.42,0,0,1-30.55,6.16,106.67,106.67,0,0,1-31-6q-2.82-.94-5.58-2a36.8,36.8,0,0,0,.51,5.53c.22,1.04,.42,2.07,.7,3.09z"/><path class="cls-13" d="M269,1103.42a39,39,0,0,0,4.63,7.15c12.49,15.32,36.78,22.24,61.56,15.76,30.43-8,50.56-33.25,46.49-57.49l-.06-.38-.1,.19c-3.63,7.16-9.88,13.25-15.87,18.82-7.79,7.24-15.72,14.58-25.22,19.29a65.34,65.34,0,0,1-30.76,6.26,106.67,106.67,0,0,1-31-6q-2.82-.94-5.58-2c-1.35-.5-2.72-1.02-4.09-1.6z"/><path class="cls-25" d="M340.22,1106.86a63.53,63.53,0,0,1,14.84,33.14,64.54,64.54,0,0,0,27.16-22.22,39.82,39.82,0,0,0-4.48-9.71c-4.56-7.08-12.26-12.51-20.63-12.53l-1.56,1c-5.24,3.31-10.2,6.86-15.5,10.13a1.63,1.63,0,0,1,.17,.19z"/><path class="cls-15" d="M249.58,1071.53a69.06,69.06,0,0,0,118.42,29.62,70.76,70.76,0,0,0,4.83-88.67,69.54,69.54,0,0,0-32.08-24.39,68.48,68.48,0,0,0-30.94-3.91,70.46,70.46,0,0,0-10.3,1.89c-37.13,9.71-59.51,47.98-49.93,85.46z"/><path class="cls-26" d="M255.51,1080.84a2,2,0,0,0,.94-.56,2.06,2.06,0,0,0-.05-2.88l-32.12-31.17a2,2,0,0,0-2.84,.06,2.06,2.06,0,0,0,.05,2.88l32.12,31.17a2,2,0,0,0,1.9,.5z"/><ellipse class="cls-15" cx="268.26" cy="1098.68" rx="12.92" ry="27.22" transform="translate(-553.77 321.94) rotate(-32.9)"/><path class="cls-27" d="M259.25,1103.9c4,6.18,9.66,9.62,12.57,7.68a4.5,4.5,0,0,0,1.7-3.67c.17-3-1.13-7.09-3.71-11.05-3.46-5.3-8.08-8.58-11.17-8.18a3.27,3.27,0,0,0-1.4,.5c-2.92,1.95-2.01,8.53,2.01,14.72z"/><path class="cls-28" d="M262.36,1099.73c3.45,5.3,8.07,8.58,11.16,8.18,.17-3-1.13-7.09-3.71-11.05-3.46-5.3-8.08-8.58-11.17-8.18-.16,2.97,1.14,7.08,3.72,11.05z"/><path class="cls-13" d="M273.48,1071.68a63.94,63.94,0,0,0,33.72,34.76,76.1,76.1,0,0,0,50.28,3.75l1-.26a69.06,69.06,0,0,0,9.53-8.78,70.76,70.76,0,0,0,4.83-88.67,69.24,69.24,0,0,0-50.18-28.43,68.1,68.1,0,0,0-12.84,.13c-32.93,17.56-49.11,55.14-36.34,87.5z"/><path class="cls-29" d="M278.16,1069.79c12.75,32.27,51.93,46.76,87.52,32.34,.78-.31,1.55-.64,2.3-1a70.76,70.76,0,0,0,4.83-88.67c-.37-.51-.75-1-1.13-1.51l-.54-.7c-.43-.54-.86-1.07-1.3-1.6l-.52-.61c-.41-.48-.81-.94-1.23-1.41-.84-.92-1.7-1.83-2.58-2.7l-.66-.65c-.45-.43-.9-.86-1.36-1.28l-.56-.51c-1.66-1.48-3.38-2.89-5.16-4.2-.24-.18-.49-.37-.75-.55l-.75-.53q-1.89-1.32-3.87-2.52l-.8-.47q-1.39-.81-2.82-1.56l-1-.53q-2.64-1.32-5.38-2.42l-.74-.3-.88-.33h0a68.33,68.33,0,0,0-18.1-4c-1,.36-2.08,.76-3.13,1.18-32.6,13.22-50.88,46.11-43.89,76.36a57.45,57.45,0,0,0,2.5,8.17z"/><g class="cls-30"><path class="cls-31" d="M278.16,1069.79c12.75,32.27,51.93,46.76,87.52,32.34,.78-.31,1.55-.64,2.3-1a70.76,70.76,0,0,0,4.83-88.67c-.37-.51-.75-1-1.13-1.51l-.54-.7c-.43-.54-.86-1.07-1.3-1.6l-.52-.61c-.41-.48-.81-.94-1.23-1.41-.84-.92-1.7-1.83-2.58-2.7l-.66-.65c-.45-.43-.9-.86-1.36-1.28l-.56-.51c-1.66-1.48-3.38-2.89-5.16-4.2-.24-.18-.49-.37-.75-.55l-.75-.53q-1.89-1.32-3.87-2.52l-.8-.47q-1.39-.81-2.82-1.56l-1-.53q-2.64-1.32-5.38-2.42l-.74-.3-.88-.33a64.19,64.19,0,0,1,5.42,3.5,87.21,87.21,0,0,1,13.11,11.93c2,2.21,3.91,4.63,4.59,7.53s-.28,6.4-2.89,7.81c-3.22,1.73-7.15-.37-9.87-2.83-4-3.59-7.07-8.07-11.15-11.51s-9.69-5.79-14.73-4c-5.86,2-8.84,9.25-7.71,15.41s5.46,11.27,10.35,15.1,10.48,6.71,15.48,10.4,9.6,8.46,11.28,14.49c2.75,9.91-3.72,21-13.13,25s-20.66,1.59-28.93-4.41-13.86-15.16-17.48-24.78c-1.91-5.09-4.4-11.3-9.76-11.89-3.58-.39-7,2.25-8.55,5.53s-1.69,7.06-1.56,10.71c.07,1.85,.19,3.71,.38,5.57a57.45,57.45,0,0,0,2.53,8.15z"/></g><g class="cls-32"><path class="cls-33" d="M305.22,1095a109.43,109.43,0,0,0,80.26-31.4,70.86,70.86,0,0,0-12.67-51.08,139.15,139.15,0,0,1-76.44,40.63c2.89,14,5.96,27.77,8.85,41.85z"/></g></g>
    <animateTransform id="animFlaot1" begin="0;animFlaot2.end" dur="2s" attributeName="transform" attributeType="XML" type="translate" from="0 -30" to="0 30" fill="freeze"/><animateTransform id="animFlaot2" begin="animFlaot1.end" dur="2s" attributeName="transform" attributeType="XML" type="translate" from="0 30" to="0 -30" fill="freeze"/>
  </g>
</svg>