<svg xmlns="http://www.w3.org/2000/svg" xmlns:xlink="http://www.w3.org/1999/xlink" viewBox="0 0 5442.52 1984.25">
  <defs>
    <style>.cls-1{fill:#0b92a0}.cls-2,.cls-7{fill:#1d1d1b}.cls-2{opacity:.15}.cls-3{fill:#e96b58}.cls-4,.cls-14{fill:#f89f26}.cls-5{fill:#d78a80}.cls-6{fill:#d95746}.cls-7{opacity:.2}.cls-8{fill:#a09580}.cls-9{fill:#ce6f40}.cls-10{fill:#efa735}.cls-11{fill:#f7c627}.cls-12{fill:#e89058}.cls-13{fill:#f6d866}.cls-14{opacity:.4}.cls-15{fill:#b1804b;opacity:.3}.cls-16{fill:#0bb8cb}.cls-17{fill:#25b696}.cls-18{fill:#119d83}.cls-19{fill:#1c8f7d}.cls-20{fill:#209d80}.cls-21{fill:#189b7e}.cls-22{fill:#148e82}.cls-23{fill:#1b9086}.cls-24{fill:#199584}.cls-25{fill:#20997c}</style>
  </defs>
  <title>Scrape Planet</title>
  <g id="small-green"><path class="cls-1" d="M5011.9,1288.76a28.88,28.88,0,1,0,8.31,40,28.9,28.9,0,0,0-8.31-40z"/><path class="cls-2" d="M5020.79,1314.13a28.89,28.89,0,0,1-52.37-9.65,28.89,28.89,0,1,0,55.85,2.23,28.47,28.47,0,0,1-3.48,7.42z"/><animateTransform id="anim11" begin="0;anim12.end" dur="1.5s" attributeName="transform" attributeType="XML" type="translate" from="0 30" to="0 -30" fill="freeze"/><animateTransform id="anim12" begin="anim11.end" dur="1.5s" attributeName="transform" attributeType="XML" type="translate" from="0 -30" to="0 30" fill="freeze"/></g>
  <g id="small-red"><path class="cls-3" d="M2638.48,504.64a22.87,22.87,0,1,0,6.59,31.67,22.9,22.9,0,0,0-6.59-31.67z"/><path class="cls-2" d="M2645.53,524.74a22.88,22.88,0,0,1-41.53-7.64,22.88,22.88,0,1,0,44.24,1.77,22.87,22.87,0,0,1-2.71,5.87z"/><animateTransform id="anim21" begin="0;anim22.end" dur="1.5s" attributeName="transform" attributeType="XML" type="translate" from="0 -30" to="0 30" fill="freeze"/><animateTransform id="anim22" begin="anim21.end" dur="1.5s" attributeName="transform" attributeType="XML" type="translate" from="0 30" to="0 -30" fill="freeze"/></g>
  <g id="small-yellow"><path class="cls-4" d="M4973.37,1167.43a14.39,14.39,0,1,0,4.14,19.93,14.41,14.41,0,0,0-4.14-19.93z"/><path class="cls-2" d="M4977.8,1180.08a14.4,14.4,0,0,1-26.1-4.81,14.4,14.4,0,1,0,27.83,1.11,14.3,14.3,0,0,1-1.73,3.7z"/><animateTransform id="anim31" begin="0;anim33.end" dur=".75s" attributeName="transform" attributeType="XML" type="translate" from="0 0" to="0 -30" fill="freeze"/><animateTransform id="anim32" begin="anim31.end" dur="1.5s" attributeName="transform" attributeType="XML" type="translate" from="0 -30" to="0 30" fill="freeze"/><animateTransform id="anim33" begin="anim32.end" dur=".75s" attributeName="transform" attributeType="XML" type="translate" from="0 30" to="0 0" fill="freeze"/></g>
  <g id="big-red"><ellipse class="cls-5" cx="4017.94" cy="697.95" rx="109.15" ry="109.07"/><path class="cls-6" d="M3932.44,753.82c4.71-3.16,9.67-6.41,15.32-7s12.12,2.3,13.5,7.8c-6.49,3.47-10.86,10.92-10,18.22s7.48,13.7,14.84,13.7,14.15-7.07,13.23-14.36c-.59-4.59-3.71-8.47-4.8-13s1.62-10.64,6.2-10c1.22,9.48,2.65,19.51,10.11,26.26,4.16,3.76,10.05,5.51,15.3,3.54,8.81-3.31,10-13.72,8.94-22.3a60.37,60.37,0,0,0-3.66-15,47.46,47.46,0,0,0-9.86-15.24c-4.21-4.35-10.48-7.82-16.2-7.77a4.82,4.82,0,0,1-4.64-6.23l.1-.33a1.8,1.8,0,0,0-1.11-2.15c-5.67-2.4-9.11-9.46-7.14-15.37l23.2-12.26,7-.38c4.38-3.63,8.87-7.4,11.45-12.46s2.76-11.81-1.13-16c-2.08-2.23-6.57-3-7-6.08-2.78-22.28-34.81-16.7-44.7-1.81-4.08,6.13-6.41,14.28-13.14,17.29,7.08-5.45,5.39-16.21,5.53-25.13a47.56,47.56,0,0,1,16.86-35.29,10.86,10.86,0,0,0-.54-2.64,109.07,109.07,0,0,0-61.05,106c.16,2.16,.4,4.3,.68,6.43,1.64-.13,3.26-.31,4.83-.51zm151.84-35.03c-2.76-3-4.68-7.45-3.53-11.11a4.55,4.55,0,0,1,2.5-2.63c7.86-3.77,12.39-13.65,9.8-22-2.28-7.41-9.82-12.65-17.5-12.86a4.63,4.63,0,0,1-4.31-4.34c-.87-10.38-10.59-19.87-21.22-19.31-1.64-7.61-12.91-10.85-18.36-5.28-4.07,1.77-5.52,6.94-5.08,11.36s2.26,8.63,2.61,13.06c.61,7.58-3,14.72-6.93,21.34a4.57,4.57,0,0,1-3,2.1,31.51,31.51,0,0,0-21.53,17.07,4.52,4.52,0,0,0,1.95,5.89l8.41,4.57a4.49,4.49,0,0,0,6.67-3.81,21.35,21.35,0,0,1,6.05-15.28,4.44,4.44,0,0,1,6.16,.18c2.46,2.2,7.4,2.42,10.4,.22,4.21-3.09,6.15-8.37,9.79-12.11a11.55,11.55,0,0,1,6-3.15c3.63-.7,6.33,3.37,4.54,6.6-2.34,4.2-3,9.31-.15,13,2.18,2.82,5.79,4,9.09,5.4s6.79,3.3,7.94,6.68a5,5,0,0,1,.19,2.38,4.53,4.53,0,0,0,3.94,5.35h.15a4.49,4.49,0,0,1,3.93,5.43,16.74,16.74,0,0,0,0,8.08c1.21,4.25,6,7.77,10.05,6,4.42-2,4.53-8.58,1.87-12.63s-7.13-6.65-10.43-10.2zm-52.56-87.71c7.08-1.36,8.8-5,12.75-4.16s8.14,.84,11.84,2.46,6.84,5.75,5.47,9.55c1.79,3.41,7.55,1,8.56-2.7s-.55-7.62-.63-11.47,4.5-4.12,6.47-7.63c.62-3.42-3.25-6.25-6.73-6.09s-6.52,2.22-9.54,3.94-6.61,3.2-9.9,2.07c3.4-2.54,1.94-8.41-1.64-10.68s-8.14-2-12.36-1.68c-9.21,.74-17.69-6-26.89-5.25-8.11,.64-16.93,8.75-25,9.39-4.11,.33-8.59,.82-11.49,3.75s-2.43,9.12,1.6,10,7-4,10.77-5.81c6.08-3,12.66,2.28,18.67,5.37,9.88,5.12,13.5,8.37,28.05,8.94zm70.72,41.72l6,4a16.41,16.41,0,0,0,3.29,1.85,8.31,8.31,0,1,0,4-16l1-7.7a13.32,13.32,0,0,0-5.55-9.74,3.48,3.48,0,0,0-5.41,1.68c-.7,2.59-2.68,5.05-4.62,7.05-2.92,3-6.24,6.56-5.65,10.71,.5,3.63,3.88,6.1,6.94,8.15zm22.72,28.2c0-2.33-1.74-4.93-4.06-4.69a22.54,22.54,0,0,0-15.46-8,9.79,9.79,0,0,0-1.35,16.35,14.54,14.54,0,0,0,.13,10.7c1.43,3.45,4.16,6.23,5.67,9.65,3.72,8.44-.76,18.05-5.15,26.16l7.44,.43c-2.6-7.71,1.87-17,9.37-20a106.09,106.09,0,0,0,3.39-13.18,14.84,14.84,0,0,1-1.63-10.64c.56-2.23,1.65-4.41,1.65-6.78z"/><path class="cls-7" d="M4071.06,774.93a109,109,0,0,1-91.34-179.14,109.08,109.08,0,1,0,121.58,172.52,109,109,0,0,1-30.24,6.62z"/><animateTransform id="anim41" begin="0;anim42.end" dur="1.5s" attributeName="transform" attributeType="XML" type="translate" from="0 30" to="0 -30" fill="freeze"/><animateTransform id="anim42" begin="anim41.end" dur="1.5s" attributeName="transform" attributeType="XML" type="translate" from="0 -30" to="0 30" fill="freeze"/></g>
  <g id="big-orange"><ellipse class="cls-8" cx="1521.72" cy="943.56" rx="128.14" ry="128.05"/><path class="cls-9" d="M1650,942.33q0,3.7-.16,7.45l-243.94,48.28q-1.59-3.36-3-6.82zm-66-110.85l-162.25,32.1a124.48,124.48,0,0,1,14.17-15l129.21-25.58a122.19,122.19,0,0,1,18.87,8.48zm42.25,37.81l-229.25,45.36q1.21-5.31,2.89-10.46l219.71-43.46c2.4,2.76,4.57,5.6,6.65,8.56zm18.03,112.13a127.21,127.21,0,0,1-11.82,26.82l-188.17,37.22a128.65,128.65,0,0,1-21.11-20.27z"/><path class="cls-10" d="M1616.16,856.84l-214.58,42.44a126.87,126.87,0,0,1,17.1-31.76l169.61-33.52a127.13,127.13,0,0,1,27.87,22.84zm28.09,48.73l-250,49.48a127.68,127.68,0,0,1,.17-24.48l240.39-47.57a125.82,125.82,0,0,1,9.44,22.57zm5.12,50.74c0,.2,0,.37-.06,.57a126.79,126.79,0,0,1-3.91,20.7l-224.72,44.48a126.94,126.94,0,0,1-11.83-18.17z"/><path class="cls-11" d="M1632.13,878.25l-237.08,46.9c.2-1.44,.43-2.86,.67-4.25l234.11-46.33c.8,1.21,1.56,2.43,2.3,3.68zm16.68,47.63l-251,49.67q-1.41-5.4-2.32-10.92l251.31-49.73c.84,3.6,1.5,7.26,2.01,10.98zm-23.34,93a129.33,129.33,0,0,1-9,10.94l-149.3,29.53a122.15,122.15,0,0,1-12.42-6.68z"/><path class="cls-12" d="M1614.37,1032.12a128.34,128.34,0,0,1-144.32,28.56zm-63.37-213.31l-103.61,20.51a128.2,128.2,0,0,1,103.61-20.51z"/><path class="cls-7" d="M1641.35,986c-.71,.78-1.45,1.54-2.19,2.31h.17a128.93,128.93,0,0,1-32,24.24l-.55,.3q-2.28,1.2-4.61,2.32l-1.39,.66c-1.42,.66-2.86,1.3-4.3,1.91-.63,.27-1.27,.52-1.91,.78-1.35,.54-2.71,1.08-4.09,1.58-.79,.29-1.6,.55-2.4,.82-1.26,.44-2.53,.88-3.81,1.27s-2.85,.82-4.28,1.2c-1.18,.32-2.36,.63-3.55,.91-1.71,.41-3.41,.79-5.14,1.13-.67,.13-1.35,.23-2,.35-1.66,.3-3.34,.58-5,.81l-1.89,.23c-1.8,.22-3.61,.41-5.44,.55l-1.5,.11c-2.09,.14-4.2,.23-6.31,.27h-.7a130.66,130.66,0,0,1-15-.65,128,128,0,0,1-108.46-167.43,128,128,0,0,0,83.47,211.27,130.93,130.93,0,0,0,15,.65h.69q3.18-.06,6.32-.27l1.5-.11c1.82-.15,3.64-.33,5.44-.55l1.89-.23c1.68-.24,3.35-.51,5-.81,.67-.12,1.35-.22,2-.35,1.72-.34,3.43-.73,5.13-1.13,1.2-.28,2.38-.59,3.56-.91,1.43-.38,2.86-.77,4.27-1.2s2.55-.83,3.82-1.27c.8-.27,1.61-.53,2.4-.82,1.38-.5,2.73-1,4.09-1.59l1.9-.77q2.18-.91,4.31-1.91l1.39-.67q2.33-1.11,4.61-2.31l.55-.3a128.91,128.91,0,0,0,32-24.25h-.17c.74-.77,1.48-1.53,2.19-2.32h.11a128.84,128.84,0,0,0,9-10.93h-.16q3.75-5.13,7-10.64h.17a127.89,127.89,0,0,0,11.08-24.64c-.7,.79-1.36,1.62-2.08,2.4z"/><animateTransform id="anim51" begin="0;anim52.end" dur="1.5s" attributeName="transform" attributeType="XML" type="translate" from="0 -30" to="0 30" fill="freeze"/><animateTransform id="anim52" begin="anim51.end" dur="1.5s" attributeName="transform" attributeType="XML" type="translate" from="0 30" to="0 -30" fill="freeze"/></g>
  <g id="big-yellow"><ellipse class="cls-13" cx="594.83" cy="523.65" rx="176.98" ry="176.86" transform="translate(-0.86 0.98) rotate(-0.09)"/><path class="cls-14" d="M513.44,500.27c-4.37-9.92-14.92-15.17-23.68-12a629.2,629.2,0,0,1-71.31,21.12,175.85,175.85,0,0,0,1.19,39.47,656.45,656.45,0,0,0,85.13-24.39c9.23-3.32,13.03-14.29,8.67-24.2zm147.65,5.59c5.56,9.3,17.26,12.26,25.94,6.33a700.69,700.69,0,0,0,71.41-55.92c-2.09-5.06-4.41-10.07-7-15a176.91,176.91,0,0,0-12.29-19.92,675.64,675.64,0,0,1-73,57.65c-8.3,5.66-10.64,17.56-5.06,26.86zm-106.78-58.93c4.93,9.66,15.76,14,24,9.53a626.68,626.68,0,0,0,114.4-80.15,177.35,177.35,0,0,0-37.78-19,599.49,599.49,0,0,1-95.26,64.56c-7.83,4.31-10.31,15.4-5.36,25.06zm123.4,232.98a176.08,176.08,0,0,0,61.83-54.46,597.25,597.25,0,0,1-54.76,33.84c-6.68,3.64-9.42,12.2-7.07,20.62zm-63.09-163.4c-6.54-11.93-20.55-16.73-31.51-11.18a659.49,659.49,0,0,1-161,56.78,176.61,176.61,0,0,0,16.15,43.94c.36,.7,.77,1.36,1.15,2.06a693.17,693.17,0,0,0,166.25-59c11.59-5.88,15.51-20.69,8.96-32.6zm-69.22-131.39c-6.55-11.92-20.55-16.73-31.52-11.18-11.66,5.92-23.55,11.39-35.56,16.6a176.21,176.21,0,0,0-49,70.48,688.54,688.54,0,0,0,107-43.29c11.68-5.89,15.62-20.73,9.08-32.61zm3.04,277.76c-3.15-7.78-12.27-11.8-20.45-9.19-13,4.17-26.24,7.86-39.55,11.32a176.73,176.73,0,0,0,36.56,21.11c4.63-1.38,9.32-2.63,13.92-4.1,8.43-2.7,12.66-11.36,9.52-19.14zm50.7-75.79a33.14,33.14,0,0,0-16.4,43.57c7.43,16.81,28,24.56,45.58,16.37a752.71,752.71,0,0,0,139.1-84.43,176,176,0,0,0-1.54-84.27,710,710,0,0,1-166.74,108.76z"/><path class="cls-2" d="M726.43,599.19c-86.49,45.51-193.52,12.33-239.06-74.09a176.14,176.14,0,0,1-13.69-130.37,176.8,176.8,0,0,0-35.46,211.32c45.54,86.43,152.57,119.6,239.06,74.1a176.33,176.33,0,0,0,87.84-108.52,177.21,177.21,0,0,1-38.69,27.56z"/><path class="cls-4" d="M877.5,380.5c-16.77-33.07-89.81-32.27-183.86-3.6a175.49,175.49,0,0,1,21.58,17.1q5.92,5.49,11.4,11.56a177,177,0,0,1,15.55,20.07c21.83-4.32,36.21-3.58,39.69,3.29s-4.43,18.91-20.86,33.95a175.06,175.06,0,0,1,7,24.4q1.68,8,2.61,16a175.2,175.2,0,0,1,1,27.54c78.81-58.81,122.67-117.24,105.89-150.31zm-403.07,272.79q-5.93-5.49-11.39-11.56a175.89,175.89,0,0,1-15.55-20.07c-21.83,4.32-36.21,3.58-39.69-3.29s4.43-18.91,20.85-34a176.39,176.39,0,0,1-7-24.4q-1.65-7.97-2.65-15.97a175.21,175.21,0,0,1-1-27.54c-78.78,58.85-122.63,117.26-105.86,150.33s89.86,32.29,183.86,3.62a176.34,176.34,0,0,1-21.57-17.12zm403.07-272.79c-16-31.58-83.35-32.27-171.29-7.3,.61,.31,1.22,.53,1.82,.91a237.36,237.36,0,0,1,23,15.77,119.06,119.06,0,0,1,12.68,11.54c6.17,6.55,11.2,13.83,14.15,21.89,13-1.14,21.44,.58,24,5.63,9.56,18.85-66.43,76.53-169.72,128.85s-194.78,79.43-204.34,60.58c-3-5.94,2.5-15.77,14.7-28.07a82.21,82.21,0,0,1-11.84-21.1,121.08,121.08,0,0,1-4.66-14.58,146.35,146.35,0,0,1-4.07-25.73c-68.54,54.53-105.34,107.18-89.75,137.92,24.69,48.68,171.26,24.05,327.38-55s262.63-182.63,237.94-231.31z"/><path class="cls-15" d="M827.56,405.79c7.38,14.56-14.69,45.18-59.54,81.5q1.68,8,2.61,16c51.08-40.06,82.32-79,69.68-104s-62.56-22.74-125.09-5.29q5.92,5.49,11.4,11.56c55.81-14.65,93.56-14.31,100.94,.23zm-478.21,242.21c12.64,24.92,62.56,22.78,125.08,5.31q-5.93-5.49-11.39-11.56c-55.81,14.67-93.56,14.34-100.94-.21s14.68-45.18,59.54-81.5q-1.64-8.04-2.64-16.04c-51,40.08-82.29,79.05-69.65,104zm490.96-248.66c-11.55-22.79-54.31-22.94-109.31-9.46a119.06,119.06,0,0,1,12.68,11.54c46.37-10.29,77.25-8.64,83.85,4.37,13.19,26-67.68,103.42-204.83,172.88s-247.4,88.87-260.6,62.85c-6.75-13.31,11.16-40.07,48.56-72.32a121.08,121.08,0,0,1-4.66-14.58c-43.17,36.25-68.14,70.64-56.62,93.36,22.32,44,160.84,3.7,279.84-56.57s233.41-148.07,211.09-192.07z"/><animateTransform id="anim61" begin="0;anim63.end" dur=".75s" attributeName="transform" attributeType="XML" type="translate" from="0 0" to="0 -30" fill="freeze"/><animateTransform id="anim62" begin="anim61.end" dur="1.5s" attributeName="transform" attributeType="XML" type="translate" from="0 -30" to="0 30" fill="freeze"/><animateTransform id="anim63" begin="anim62.end" dur=".75s" attributeName="transform" attributeType="XML" type="translate" from="0 30" to="0 0" fill="freeze"/></g>
  <g id="big-blue"><ellipse class="cls-1" cx="2378.81" cy="423.43" rx="132.33" ry="132.24" transform="translate(-0.58 3.26) rotate(-0.08)"/><path class="cls-16" d="M2382.86,327.4s-.55,.39-1.6,1.09a13.73,13.73,0,0,0-3.66,3.51c-1.34,1.64-2.21,4.3-5.24,7.17a22.8,22.8,0,0,1-2.6,1.94c-.76,.45-1.53,.87-2.33,1.31l-.27,.18-.73,.24-.78,.26c-.54,.19-1.08,.35-1.65,.55a15.68,15.68,0,0,1-3.68,.64,20.34,20.34,0,0,1-4-.13c-1.1-.17-2.51-.46-3.32-.52a12.43,12.43,0,0,0-1.33-.17h-1.07c-.74,.05-.84,.18-1.57,.26l-2.89,.84,.37-.07-.11,.06c-.63,.45-1.48,.7-1.95,1.13-1.09,.78-1.7,1.65-3.36,3.75-.5,.58-.87,1.11-1.48,1.72s-1.28,1.27-2,1.89a29.52,29.52,0,0,1-2.7,1.84l-1.44,.82-.9,.43-1.77,.74-.43,.2-.73,.24-.54,.16-1.33,.32c-.9,.2-1.77,.38-2.69,.52s-2,.12-3,.12a15.31,15.31,0,0,1-2.91-.24l-1.46-.24-1.13-.26c-1.7-.4-2.61-.7-3.46-.88a4.23,4.23,0,0,1-1-.14,.35,.35,0,0,1-.36,0c.12-.17-.77,.06-1.36,.2l-1.4,.28-.09,.06-.26,.11-.51,.18c-.36,.14-.8,.2-1,.42l-.77,.42c-.24,.2-.5,.44-.73,.64a44.46,44.46,0,0,1-6.8,6.24,32.12,32.12,0,0,1-3,1.68,18.27,18.27,0,0,1-1.91,.72l-.93,.3-.45,.17-.69,.23h-.07l-.18,.05-.32,.06-2.64,.44-1.32,.22h-1.46c-.93,0-1.91,0-2.83-.1s-1.79-.37-2.67-.54-1.46-.47-2.18-.69l-1.68-.56a8.08,8.08,0,0,0-1.24-.4c-.32-.07-.74-.25-1-.28a1.45,1.45,0,0,1-.54-.17c0-.15-.77,0-1.35,0l-1.75,.21h-.16l-.55,.16-1.15,.23a16.63,16.63,0,0,0-1.88,.81,13.48,13.48,0,0,0-2,1.43c-.61,.51-1.64,1.5-2.49,2.21a19.65,19.65,0,0,1-3.35,2.33,14.9,14.9,0,0,1-3.5,1.45,128.86,128.86,0,0,1,9.72-19.76l.37-.17,1.06-.44,.53-.25,1-.26,1.67-.48a8.82,8.82,0,0,1,2.18-.44c4.24-.64,7.56,.43,9.82,.83a7.74,7.74,0,0,0,4.4,0c.36-.11,.67-.2,1-.27l.2-.09,.91-.39c.52-.26,1.3-.52,1.64-.71,.09-.16,.15-.28,.27-.34,.69-.47,1.76-2,4.39-4.75,.7-.66,1.43-1.31,2.21-1.93s1.72-1.13,2.58-1.68a16.59,16.59,0,0,1,2.62-1.22l1.3-.51,.69-.24,.33-.12,.14-.08,.86-.22,1.94-.36a11.36,11.36,0,0,1,2.51-.34,32.9,32.9,0,0,1,3.58,0c1,.14,1.94,.29,2.91,.47,1.73,.35,3.31,.92,4.17,1.16l.73,.22,.49,.09a2.62,2.62,0,0,0,.93,.15,7.11,7.11,0,0,1,.91,.07l1.1-.19,.58-.07h.13,.09,.06l1.59-.53,.88-.29a.61,.61,0,0,1,.14-.17c.17-.12,.25-.07,.51-.21a4.82,4.82,0,0,1,.83-.64c.31-.19,.7-.67,1.07-1,1.6-1.56,4.26-4.41,7.48-5.81a32,32,0,0,1,4.55-1.63l.43-.12,.58-.14h.06,.46l.82-.11,1.74-.17a22.91,22.91,0,0,1,5.11,.22l2.17,.53a13.58,13.58,0,0,1,1.77,.63c1.26,.46,1.87,.75,2.77,1.11a11.9,11.9,0,0,0,2,.6,6.4,6.4,0,0,0,2.08,.22h1.11,.56,.2c-.54,.19-.28,.08-.27,.11l.37-.11,2.58-.55c.7-.2,1.05-.44,1.64-.58,2.24-.92,4.4-3.16,6.62-4.47a10.26,10.26,0,0,1,3.08-1.45,9.39,9.39,0,0,1,2.34-.56zm-86.39,73.01s-.85,.48-2.51,1.36a32.51,32.51,0,0,0-6.43,4.34c-2.54,2-5,5.49-9.57,8.5-1.12,.69-2.41,1.56-3.6,2.14s-2.35,1.11-3.57,1.7c-1.64,.71-2.88,1-4.42,1.49a33.62,33.62,0,0,1-4.76,1.09,37.11,37.11,0,0,1-5.15,.44l-4.85-.07c-1.56,0-2.85,.07-4.21,.14a7.77,7.77,0,0,1-1,.14,114.15,114.15,0,0,1,.66-11.41,39.53,39.53,0,0,1,5.46,.59l4.49,.8a25.91,25.91,0,0,0,3.81,.28,42.85,42.85,0,0,0,7.35-.73c1.34-.29,2.6-.59,3.87-.89s2-.72,3.06-1.06c3.88-1.52,7.32-4.21,10.66-5.78a28.45,28.45,0,0,1,7.86-2.59c1.88-.3,2.85-.48,2.85-.48zm122.12,8.13s-.88,.49-2.51,1.36a33.4,33.4,0,0,0-6.45,4.35c-2.55,2-5,5.48-9.54,8.49-1.15,.7-2.45,1.57-3.64,2.15s-2.32,1.1-3.53,1.69c-1.67,.72-2.92,1-4.45,1.49a32.31,32.31,0,0,1-4.74,1.09,37.94,37.94,0,0,1-5.18,.45l-4.84-.07c-1.54-.05-2.85,.07-4.22,.14s-2.27,.36-3.75,.73l-4.32,1.26a.4,.4,0,0,1,.19,0h-.09l-.27,.11c-1.33,.62-2.81,1.12-4.06,1.81a39.57,39.57,0,0,0-7.42,5.46,49.58,49.58,0,0,1-5.22,3.93c-1.05,.6-2.17,1.16-3.29,1.75l-1.67,.82-1.35,.49-2.63,1-.33,.13-.18,.05-.09,.06-1.3,.38-1.63,.41-3.3,.83-3.56,.45a23.85,23.85,0,0,1-3.59,.15,31.87,31.87,0,0,1-3.47-.11c-2.26-.17-3.93-.37-5.5-.41-.72,0-1.5-.06-2.18,0a16.81,16.81,0,0,1-1.89,.22,13.64,13.64,0,0,0-2.55,.52l-2.5,.59-.28,.09-.23,.1-.57,.19-1.14,.4a14.81,14.81,0,0,0-2.21,.81l-2,1c-.63,.35-1.23,.78-1.87,1.17-2.39,1.65-5.9,4.79-10.47,7.11l-3.56,1.63-2.74,.9-1.35,.46-.7,.2-.51,.18h-.1l-.21,.06-.41,.09-3.26,.68a47.83,47.83,0,0,1-6.78,.76,52.66,52.66,0,0,1-6.52-.51c-2.11-.31-3.89-.55-5.48-.65-.5-1.5-1-3-1.41-4.5-.85-2.92-1.58-5.78-2.2-8.7a50.89,50.89,0,0,1,10.43-.1,42.1,42.1,0,0,0,4.6,0,37,37,0,0,0,4.36-.8l2.29-.64,.42-.12,.42-.16,1.33-.52,2.68-1c.57-.33,1.1-.65,1.64-.94,2.33-1.21,4.61-3.45,8.56-6.32,1-.66,2-1.41,3-2l3.29-1.65a26.45,26.45,0,0,1,3.28-1.32l1.64-.58,.81-.3,.42-.12,.21-.09h.09l.55-.13,2.88-.67a23.54,23.54,0,0,1,3.19-.6c1.3-.18,2.65-.31,4-.43s2.45,0,3.67,0c2.34,.11,4.55,.42,6.15,.58a22.13,22.13,0,0,0,2.36,.17,9.51,9.51,0,0,0,2.2,0l2.2-.17,2.32-.52,1.17-.2,.5-.08h.09l.25-.07,4.08-1.29c.34-.17,.57-.3,.86-.42l1.73-.76c1.19-.78,2.45-1.44,3.86-2.51,2.83-2.05,6.73-4.87,10.73-6.33,2-.8,3.87-1.23,5.77-1.85l.51-.15,.47-.1h.06l.66-.12,1.26-.21,2.51-.43a51.78,51.78,0,0,1,6.14-.37,38.4,38.4,0,0,1,5.48,.58c1.5,.29,3,.54,4.46,.81a26.39,26.39,0,0,0,3.84,.27,42.27,42.27,0,0,0,7.35-.73c1.31-.28,2.6-.59,3.84-.88s2-.73,3.06-1.06c3.88-1.53,7.35-4.22,10.66-5.78a28.11,28.11,0,0,1,7.86-2.59c1.86-.35,2.86-.54,2.86-.54zm-5.59,74.22s-.88,.49-2.51,1.36a33.12,33.12,0,0,0-6.46,4.35c-2.54,2-5,5.48-9.54,8.49-1.12,.69-2.41,1.56-3.6,2.14s-2.35,1.11-3.57,1.7a46.49,46.49,0,0,1-4.45,1.49,31.88,31.88,0,0,1-4.73,1.09,36.38,36.38,0,0,1-5.15,.44c-1.6,0-3.22-.05-4.88-.06s-2.85,.07-4.18,.13c-1.33,.22-2.31,.37-3.75,.73l-4.32,1.26a.29,.29,0,0,1,.16,0h-.09l-.27,.11c-1.34,.62-2.81,1.12-4.06,1.81a39.57,39.57,0,0,0-7.39,5.45,52.93,52.93,0,0,1-5.22,3.94c-1.08,.61-2.21,1.16-3.32,1.75l-1.68,.82-1.31,.48-2.67,1-.32,.13-.19,.06h-.05l-1.34,.39-1.63,.41-3.26,.82-3.57,.45a22.86,22.86,0,0,1-3.61,.16,31.09,31.09,0,0,1-3.44-.12c-2.29-.16-3.94-.37-5.53-.4-.72,0-1.5-.06-2.19,0s-1.24,.16-1.85,.21a13.64,13.64,0,0,0-2.59,.52l-2.5,.6-.24,.07-.24,.1-.57,.2-1.13,.39c-.3,.12-.63,.22-.94,.31a128.85,128.85,0,0,1-12.31-11.42,11.81,11.81,0,0,1,1.26-.77l3.28-1.65a27.62,27.62,0,0,1,3.25-1.31l1.65-.58,.83-.3,.4-.12,.2-.09h.12l.53-.12,2.87-.67a24,24,0,0,1,3.2-.6c1.33-.19,2.65-.31,4-.43s2.47,0,3.7,0c2.31,.12,4.54,.42,6.11,.59a17.92,17.92,0,0,0,2.39,.16,9.93,9.93,0,0,0,2.18,0l2.19-.18,2.33-.51,1.16-.21,.54-.09h.06l.27-.08,4.08-1.29c.35-.16,.58-.3,.87-.41l1.73-.77c1.19-.78,2.45-1.44,3.85-2.51,2.81-2,6.74-4.87,10.71-6.32,1.94-.8,3.9-1.23,5.76-1.85l.55-.16,.44-.09h.09l.62-.11,1.27-.2,2.51-.44a53.9,53.9,0,0,1,6.16-.38,41.7,41.7,0,0,1,5.46,.59l4.46,.81a28.09,28.09,0,0,0,3.84,.27,41.42,41.42,0,0,0,7.35-.73c1.34-.29,2.6-.59,3.84-.88s2-.73,3.09-1.07c3.88-1.52,7.32-4.21,10.63-5.77a28.42,28.42,0,0,1,7.86-2.59c1.8-.32,2.8-.5,2.8-.5zm78.67,9.67a125.94,125.94,0,0,1-11.83,16.38h-.3c-2.29-.16-3.93-.37-5.53-.41-.72,0-1.5-.05-2.18,0a17.08,17.08,0,0,1-1.86,.21,14.49,14.49,0,0,0-2.59,.52l-2.5,.6-.24,.07-.23,.1-.57,.2-1.14,.4a13.7,13.7,0,0,0-2.24,.82l-2,1c-.66,.35-1.26,.79-1.87,1.17-2.42,1.66-5.9,4.79-10.5,7.12l-3.56,1.62-2.74,.9-1.35,.46-.7,.21-.48,.17h-.13l-.18,.06-.41,.08-3.26,.69a46.82,46.82,0,0,1-6.81,.76,50.89,50.89,0,0,1-6.52-.5,42.79,42.79,0,0,0-8.89-.68,13.11,13.11,0,0,0-2.41,.31l-2.57,.48h-.29l-1.58,.46-2.15,.56c-1.32,.45-2.56,1-3.82,1.51s-2.34,1.27-3.6,2.14a52.12,52.12,0,0,1-8.72,5.08,31.09,31.09,0,0,1-4.6,1.67c-.68,.16-1.36,.33-2,.52l-1,.26-.74,.18-.54,.06c-1.46,.19-2.86,.4-4.23,.57s-2.78,.08-4.08,.13c-5.38-.08-9.35-1.69-12.58-2a31.79,31.79,0,0,0-7.76-.21c-1.87,.15-2.85,.2-2.85,.2l2.63-1.06a18.59,18.59,0,0,1,3.26-1.15,22.68,22.68,0,0,1,4.76-.89c3.66-.48,7.94-.07,12.13-.86,1.08-.29,2.16-.44,3.27-.79s2.24-.82,3.41-1.23c1.86-.87,5.28-2.16,6.82-3.44a43.87,43.87,0,0,0,6.36-5.35,44.69,44.69,0,0,1,4.29-3.42,54.22,54.22,0,0,1,5.13-2.88c.89-.36,1.77-.75,2.68-1.12l1.36-.56,.68-.26,1-.28,2.54-.71a15.23,15.23,0,0,1,2.76-.71c4.63-1,9.22-.67,12.71-.47a45,45,0,0,0,4.6,0,39.92,39.92,0,0,0,4.39-.82l2.26-.62,.3-.09a.12,.12,0,0,0-.08,.06l.23-.11,.39-.14,1.36-.53,2.68-1c.53-.32,1.07-.64,1.64-.94,2.29-1.2,4.58-3.45,8.53-6.31,1-.67,2-1.41,3.08-2l3.28-1.65a27.27,27.27,0,0,1,3.25-1.31l1.65-.58,.84-.31,.39-.11,.21-.1h.12l.52-.12,2.88-.68a25.21,25.21,0,0,1,3.19-.6c1.33-.19,2.65-.31,4-.43s2.48,0,3.7,0c2.31,.12,4.55,.43,6.12,.6a21.9,21.9,0,0,0,2.39,.16,9.83,9.83,0,0,0,2.17,0l2.2-.18,2.32-.51,1.16-.21,.51-.08zm7.57-123.76c-.14,.08-.3,.12-.44,.2-1.19,.67-2.37,1.28-3.63,2.15a51.6,51.6,0,0,1-8.72,5.08,30.22,30.22,0,0,1-4.57,1.66c-.71,.17-1.38,.34-2.05,.53l-1,.25-.71,.18-.57,.07c-1.43,.18-2.85,.4-4.22,.57s-2.79,.08-4.06,.12c-5.41-.07-9.38-1.69-12.58-2a32.47,32.47,0,0,0-7.79-.2c-1.84,.14-2.85,.2-2.85,.2l2.66-1.07a18,18,0,0,1,3.24-1.14,22.44,22.44,0,0,1,4.76-.89c3.65-.48,8-.08,12.13-.87,1.07-.28,2.15-.43,3.26-.78s2.24-.82,3.41-1.23c1.86-.87,5.28-2.16,6.82-3.44a43.89,43.89,0,0,0,6.37-5.35,41.89,41.89,0,0,1,4.31-3.43c.36-.24,.73-.45,1.12-.69,1.87,3.25,3.57,6.61,5.11,10.08zm11.3,42.11a126.16,126.16,0,0,1,.59,14.25c-2,1.23-3.88,2.65-6.24,4.42a59.17,59.17,0,0,1-6.09,4.12l-3.67,1.79c-.61,.31-1.27,.64-1.83,.87l-1.55,.58-3.13,1.14-.42,.16-.18,.05-.57,.2-.88,.26-1.85,.47-3.65,.93-4,.59a23,23,0,0,1-4,.33c-1.37,.07-2.71,.13-3.91,.09-2.55,0-4.58-.22-6.55-.17-.91,0-1.91,0-2.77,.11l-2.51,.34a26.6,26.6,0,0,0-3.11,.67l-3.35,.85-.33,.12-.72,.25-1.41,.48a21.08,21.08,0,0,0-2.78,1l-2.56,1.18c-.85,.38-1.61,.93-2.44,1.37-3.12,2-7.26,5.22-12.38,7.6l-3.88,1.72-3.2,1-1.61,.5-1.58,.46-.46,.1-3.67,.8a57.9,57.9,0,0,1-7.55,1.05,60.17,60.17,0,0,1-7.35-.2,56.87,56.87,0,0,0-11-.19,18.09,18.09,0,0,0-2.88,.44c-1,.2-2,.42-3,.61l-.37,.08h-.19l-1.83,.53c-.89,.23-1.74,.48-2.6,.69-1.69,.56-3.22,1.21-4.75,1.85a49.55,49.55,0,0,0-4.47,2.43,67.63,67.63,0,0,1-10.2,5.44,39.6,39.6,0,0,1-5.22,1.82c-.8,.2-1.6,.4-2.36,.62l-1.08,.42-.77,.19-.64,.08c-1.64,.25-3.25,.52-4.8,.74s-3.17,.23-4.66,.34c-6.12,.17-10.89-1.25-14.72-1.45a45.42,45.42,0,0,0-9.15,.19c-2.18,.24-3.33,.34-3.33,.34s1.09-.42,3.1-1.23a37.85,37.85,0,0,1,9.27-2.41c4.2-.66,9.19-.43,14.24-1.44,1.29-.34,2.58-.55,3.91-1s2.69-.95,4.11-1.43c2.36-1,6.13-2.38,8.34-3.88a59.36,59.36,0,0,0,8-5.93,58.5,58.5,0,0,1,5.08-3.63c1.88-1,3.86-2.15,5.85-3,1-.39,2-.82,3.05-1.21l1.54-.62,.77-.29,4-1.16a24,24,0,0,1,3.17-.79,60.31,60.31,0,0,1,14.28-1.06,53.49,53.49,0,0,0,5.65-.2,38.49,38.49,0,0,0,5.46-1.09l2.85-.77,.24-.07s.13,0,.13,0l.24-.1,.54-.19,1.58-.6,3.16-1.15,2.24-1.15c3.1-1.49,6.08-4,10.63-7a39.4,39.4,0,0,1,3.5-2l3.68-1.74a28.14,28.14,0,0,1,3.69-1.4l1.83-.63,.92-.34,.46-.13,.23-.1,.61-.18,3.34-.77a33.48,33.48,0,0,1,3.61-.76l4.33-.57c1.38-.13,2.71-.09,4.08-.16,2.6,0,5.14,.21,7.12,.3a24.51,24.51,0,0,0,2.92,.07,20.13,20.13,0,0,0,2.8-.15l2.78-.32,2.84-.66,1.47-.3,.56-.1,.58-.17,3.21-1,1.56-.52a7.21,7.21,0,0,0,1.17-.5l2.3-1a52.55,52.55,0,0,0,4.87-2.87c3.47-2.27,8-5.12,12.38-6.71,.43-.24,.88-.41,1.34-.54zm-26.17-67.14l-1.58,.79-1.34,.49-2.67,1.05-.33,.12-.15,.05-.08,.05-1.31,.39-1.63,.41-3.29,.82-3.57,.45a21.57,21.57,0,0,1-3.59,.15,29.36,29.36,0,0,1-3.46-.11c-2.29-.16-3.94-.37-5.53-.4-.73,0-1.51-.06-2.19,0s-1.24,.16-1.85,.21a13.31,13.31,0,0,0-2.59,.52l-2.5,.6-.34,.09-.14,.08-.57,.2-1.14,.4a14.59,14.59,0,0,0-2.21,.8l-2,1c-.65,.36-1.25,.8-1.87,1.17-2.42,1.67-5.9,4.79-10.47,7.11l-3.55,1.63-2.78,.91-1.35,.46-.67,.19-.51,.18h-.1l-.21,.06-.4,.09-3.27,.69a48.09,48.09,0,0,1-6.81,.76,52.82,52.82,0,0,1-6.52-.51,42.61,42.61,0,0,0-8.88-.68,13.37,13.37,0,0,0-2.39,.3l-2.57,.49h-.29l-1.61,.47-2.12,.55c-1.35,.46-2.58,1-3.82,1.5-1.19,.68-2.36,1.29-3.63,2.15a51.6,51.6,0,0,1-8.72,5.08,30.22,30.22,0,0,1-4.57,1.66c-.7,.18-1.38,.34-2.05,.54l-1,.25-.74,.18-.55,.06c-1.43,.19-2.85,.41-4.22,.57s-2.78,.09-4.06,.13c-5.4-.07-9.37-1.69-12.58-2a32,32,0,0,0-7.79-.21l-2.84,.21,2.66-1.08a18.39,18.39,0,0,1,3.23-1.14,22.56,22.56,0,0,1,4.76-.89c3.66-.47,8-.08,12.13-.86,1.07-.28,2.15-.43,3.27-.79s2.24-.81,3.4-1.22c1.86-.87,5.28-2.17,6.83-3.44a45.08,45.08,0,0,0,6.35-5.37,44.49,44.49,0,0,1,4.31-3.44,56.1,56.1,0,0,1,5.11-2.87l2.68-1.11,1.35-.56,.68-.27,1-.28,2.53-.71a15.93,15.93,0,0,1,2.8-.71c4.59-1,9.18-.66,12.7-.47a39.89,39.89,0,0,0,4.61,0,36,36,0,0,0,4.35-.8l2.29-.64,.28-.08a.16,.16,0,0,0-.09,.06l.24-.1,.41-.16,1.34-.52,2.68-1c.53-.32,1.06-.64,1.64-.94,2.32-1.2,4.6-3.45,8.55-6.32,1-.65,2-1.41,3.06-2l3.28-1.65a26.05,26.05,0,0,1,3.28-1.31l1.62-.57,.83-.31,.43-.13,.17-.08h.12l.53-.12,2.87-.67a22.32,22.32,0,0,1,3.19-.6c1.34-.19,2.65-.31,4-.44s2.45,0,3.67,0c2.35,.11,4.55,.42,6.15,.58a15.86,15.86,0,0,0,2.36,.17,10.2,10.2,0,0,0,2.21,0l2.16-.17,2.33-.51,1.19-.22,.5-.08h.06l.67-.19a125.21,125.21,0,0,1,10.23,11.86zm-73.37-48.49l-.58,.16-2.15,.57c-1.35,.45-2.55,1-3.82,1.5s-2.33,1.28-3.6,2.14a52.12,52.12,0,0,1-8.72,5.08,31,31,0,0,1-4.59,1.67c-.68,.17-1.36,.33-2,.53l-1,.25-.74,.18-.55,.06c-1.46,.2-2.85,.4-4.22,.57s-2.78,.09-4.09,.14c-5.37-.09-9.34-1.7-12.58-2a31.3,31.3,0,0,0-7.75-.22c-1.88,.15-2.85,.21-2.85,.21l2.63-1.07a19.13,19.13,0,0,1,3.26-1.15,22.56,22.56,0,0,1,4.76-.89c3.66-.47,7.94-.07,12.13-.86,1.07-.28,2.15-.43,3.27-.79s2.24-.82,3.41-1.22c1.85-.87,5.24-2.16,6.82-3.44a39.09,39.09,0,0,0,5.51-4.54,126.87,126.87,0,0,1,17.45,3.12zm96.81,157.77a129.54,129.54,0,0,1-4,14,16.1,16.1,0,0,1-2.56,.84c-.67,.16-1.35,.33-2,.53l-1,.26-.7,.17-.55,.06c-1.46,.2-2.85,.4-4.22,.57s-2.78,.09-4.09,.14c-5.37-.09-9.37-1.69-12.58-2.05a31.94,31.94,0,0,0-7.79-.2c-1.84,.14-2.84,.2-2.84,.2l2.66-1.07a18.3,18.3,0,0,1,3.26-1.15,22.83,22.83,0,0,1,4.76-.89c3.66-.47,7.93-.07,12.13-.86,1.07-.28,2.15-.43,3.27-.79s2.23-.82,3.4-1.22c1.86-.88,5.25-2.16,6.83-3.44a41.78,41.78,0,0,0,6.02-5.1z"/><path class="cls-7" d="M2450,501.41A132.25,132.25,0,0,1,2329,476.64l-.06-.05q-2.94-2.41-5.76-5c-.7-.65-1.38-1.33-2.07-2-1-1-2.1-2-3.12-3.09-.43-.44-.88-.85-1.31-1.3l.06,0A131.38,131.38,0,0,1,2287.35,416c-.5-1.51-1-3-1.41-4.51-.59-2-1.11-4-1.59-6.05-.1-.41-.2-.83-.29-1.24s-.23-.93-.33-1.4a131.64,131.64,0,0,1-3.11-30.08c0-.13,0-.27,0-.4,0-.44,0-.87,0-1.3,0-1.65.1-3.3.21-4.95.06-.92.15-1.83.23-2.74.06-.68.09-1.35.17-2a131.8,131.8,0,0,1,8.47-35c.13-.32.26-.63.4-.95a132.64,132.64,0,0,0-24.8,30.15c-.31.51-.59,1-.89,1.55-.61,1-1.22,2.08-1.8,3.14-.93,1.7-1.83,3.43-2.68,5.17-.18.36-.34.72-.51,1.08-.68,1.43-1.35,2.87-2,4.32-.35.8-.67,1.62-1,2.43s-.59,1.37-.86,2.07a132.2,132.2,0,0,0-8.48,35c-.08.67-.11,1.34-.17,2-.08.91-.18,1.82-.23,2.74-.11,1.65-.18,3.3-.22,5,0,.43,0,.86,0,1.3,0,.13,0,.27,0,.4a132.22,132.22,0,0,0,3.12,30.08c.1.47.22.93.32,1.4s.19.83.29,1.24c.48,2,1,4,1.59,6.05.45,1.52.91,3,1.42,4.51a131.49,131.49,0,0,0,29.33,49.19l-.05,0c.42.45.88.86,1.3,1.29,1,1.06,2.07,2.08,3.13,3.1.69.66,1.36,1.34,2.07,2q2.8,2.58,5.76,5l0,.05a132.33,132.33,0,0,0,190.85-24.22l.89-1.24a133.06,133.06,0,0,0,14.94-27.43A131.64,131.64,0,0,1,2450,501.41Z"/><animateTransform id="anim71" begin="0;anim72.end" dur="1.5s" attributeName="transform" attributeType="XML" type="translate" from="0 30" to="0 -30" fill="freeze"/><animateTransform id="anim72" begin="anim71.end" dur="1.5s" attributeName="transform" attributeType="XML" type="translate" from="0 -30" to="0 30" fill="freeze"/></g>
  <g id="big-green"><path class="cls-17" d="M5325.7,1069.65c0,1.72,0,3.41-.12,5.09-.07,2.12-.22,4.21-.43,6.29-.16,1.78-.37,3.56-.62,5.31a119,119,0,0,1-3.5,16.33,116.47,116.47,0,0,1-6.45,17.09,118.4,118.4,0,0,1-19,28.75,111.8,111.8,0,0,1-11.73,11.41,117,117,0,0,1-22.48,15.1a118.86,118.86,0,0,1-104.68,1.87a119,119,0,0,1-58.28-60,118.8,118.8,0,0,1-4.91-13.43,122.85,122.85,0,0,1-3.38-14.86c-.46-2.94-.83-5.95-1.11-9-.24-3.28-.4-6.59-.4-9.94v-.24c0-3.6,.19-7.15,.5-10.68a118.11,118.11,0,0,1,7.27-31.33,120.07,120.07,0,0,1,7.4-15.77q3-5.21,6.36-10.07c1.5-2.15,3.07-4.2,4.73-6.23a119.88,119.88,0,0,1,32.06-27.74a113.34,113.34,0,0,1,16-7.88,118.83,118.83,0,0,1,89.55,.46h.06a118.19,118.19,0,0,1,13.08,6.41,116.43,116.43,0,0,1,12.56,8.22,119.59,119.59,0,0,1,29.29,31.76q3.09,4.89,5.71,10.1a113.9,113.9,0,0,1,6.82,16.75,117.64,117.64,0,0,1,5.65,33c.05,1.11,.05,2.16,.05,3.23z"/><path class="cls-18" d="M5265.64,966.58c-11.09-.34-13.85-1.35-29.48-1.35-19,0-19,3.84-37.95,3.84s-19-1.66-37.93-1.66c-5.92,0-10,.06-13.35,.18a113.34,113.34,0,0,1,16-7.88c16.37-.06,17.26-.52,35.32-.52,19,0,19,.21,37.95,.21a142.31,142.31,0,0,1,16.28,.77h.06a118.19,118.19,0,0,1,13.1,6.41z"/><path class="cls-19" d="M5295.85,991.07h-.76c-19.47,0-19.47,.46-38.94,.46s-19.5-.77-39-.77-19.47,0-39,0-19.47,5.43-38.94,5.43c-12.93,0-17.26-.49-24.44-.83a116.25,116.25,0,0,1,16.95-17.12c2.18-.06,4.64-.09,7.55-.09,19.47,0,19.47-4,38.94-4s19.5,4.45,39,4.45,19.47-2.76,39-2.76a215.85,215.85,0,0,0,22-1.05,117.93,117.93,0,0,1,17.64,16.28z"/><path class="cls-20" d="M5313.2,1016.66c-10.81,0-13.45,0-28.62,0-18.33,0-18.33,1.87-36.69,1.87s-18.36-6.69-36.73-6.69-18.36,.92-36.69,.92-18.36,7.4-36.72,7.4c-17.42,0-18.31-7.74-34-8.56q3-5.21,6.36-10.07c10,.16,13,.55,27.7,.55,18.36,0,18.36,1.11,36.72,1.11s18.36-3.1,36.73-3.1,18.33-1.29,36.69-1.29,18.36,8.5,36.73,8.5c12.06,0,16.21-.46,22.81-.77q3.09,4.92,5.71,10.13z"/><path class="cls-21" d="M5325.67,1066.46c-2.09,.15-4.45,.25-7.25,.25-18.91,0-18.91-8.23-37.8-8.23s-18.91,5.19-37.83,5.19-18.91,1-37.8,1-18.91-4.33-37.83-4.33-18.91,3.32-37.83,3.32-18.91-5-37.8-5c-.86,0-1.69,0-2.45,.06a118.11,118.11,0,0,1,7.27-31.33c14.28,.28,15.88,1.87,33,1.87,18.92,0,18.92-4.17,37.83-4.17s18.92,7.05,37.83,7.05,18.92-2.94,37.8-2.94,18.92,3.8,37.83,3.8,18.92,.43,37.8,.43c.53,0,1.05,0,1.54,0a117.64,117.64,0,0,1,5.69,33.03z"/><path class="cls-22" d="M5325.58,1074.74c-.07,2.12-.22,4.21-.43,6.29h-6.15c-18,0-18-5.06-35.92-5.06s-18-1-35.93-1-18,.4-35.92,.4-18,1.26-35.93,1.26-17.93,1.71-35.9,1.71-18,1.2-35.92,1.2c-6.7,0-10.9,0-14.47,.09-.24-3.28-.4-6.59-.4-9.94v-.24c3.66-.28,7.93-.53,14.9-.53,18,0,18,8,35.92,8s18-4.2,35.93-4.2,18,2,35.93,2,18-5.71,35.92-5.71,18-.55,35.93-.55,18,6.42,35.93,6.42c2.45-.1,4.63-.14,6.51-.14z"/><path class="cls-23" d="M5324.53,1086.34a119,119,0,0,1-3.5,16.33c-8.41-1-12.31-2.76-26.31-2.76-19.38,0-19.38,.3-38.79,.3s-19.37,3.32-38.75,3.32-19.37-1.2-38.75-1.2-19.37,1.5-38.75,1.5-19.41-.21-38.78-.21c-2.86,0-5.31-.06-7.43-.18a122.85,122.85,0,0,1-3.38-14.86c2.89,.22,6.32,.37,10.84,.37,19.4,0,19.4-1.9,38.78-1.9s19.38-3,38.78-3,19.38,.62,38.75,.62,19.38-2.52,38.76-2.52,19.37,3.22,38.75,3.22c15.81-.01,18.73,.7,29.78,.97z"/><path class="cls-24" d="M5314.58,1119.76a118.4,118.4,0,0,1-19,28.75,70.63,70.63,0,0,0-19.72-2.49c-19,0-19,6.26-38,6.26s-19-.39-38-.39-19-5.83-38-5.83-19,1.41-38,1.41c-2.28,0-4.3,0-6.08,.12a117.26,117.26,0,0,1-19.47-30.72c8.11-.64,11.94-1.71,25.58-1.71,19,0,19,1.53,38,1.53s19-3.93,38-3.93,19-1.13,38-1.13,19,5,38,5,19,3.16,38,3.16z"/><path class="cls-25" d="M5283.88,1159.92a117,117,0,0,1-22.48,15.1a86.16,86.16,0,0,0-11.18-.64c-17.84,0-17.84,5.86-35.68,5.86s-17.84-5.77-35.68-5.77c-11.7,0-15.72,1.44-22.14,2.42a117,117,0,0,1-23-14.33c2.55-.06,5.62-.09,9.52-.09,17.87,0,17.87,.83,35.71,.83s17.84-4.48,35.68-4.48,17.87,1.29,35.71,1.29c17.05,0,17.72-.19,33.54-.19z"/><path class="cls-7" d="M5306.45,1124.61a118.82,118.82,0,0,1-104.68,1.88a119.08,119.08,0,0,1-58.28-60,119.73,119.73,0,0,1-4.92-13.44,125,125,0,0,1-3.37-14.85c-.46-3-.83-6-1.11-9-.24-3.29-.4-6.6-.4-10v-.2c0-3.59,.19-7.15,.49-10.68a118.21,118.21,0,0,1,7.22-31.32q1.58-4.11,3.44-8.07a118.24,118.24,0,0,0-13.05,9.29,116.25,116.25,0,0,0-16.95,17.12c-1.66,2-3.23,4.08-4.73,6.23q-3.4,4.88-6.36,10.07a120.07,120.07,0,0,0-7.4,15.77,118.11,118.11,0,0,0-7.27,31.33c-.31,3.53-.5,7.08-.5,10.68v.24c0,3.35,.16,6.66,.4,9.94,.28,3,.65,6.05,1.11,9a122.85,122.85,0,0,0,3.38,14.86,118.8,118.8,0,0,0,4.91,13.43,119.68,119.68,0,0,0,58.28,60a118.86,118.86,0,0,0,104.68-1.87a117,117,0,0,0,22.48-15.1,111.8,111.8,0,0,0,11.73-11.41,118.17,118.17,0,0,0,18.83-28.48c-2.55,1.62-5.2,3.17-7.93,4.58z"/><animateTransform id="anim81" begin="0;anim82.end" dur="1.5s" attributeName="transform" attributeType="XML" type="translate" from="0 -30" to="0 30" fill="freeze"/><animateTransform id="anim82" begin="anim81.end" dur="1.5s" attributeName="transform" attributeType="XML" type="translate" from="0 30" to="0 -30" fill="freeze"/></g>
</svg>