<svg xmlns="http://www.w3.org/2000/svg" xmlns:xlink="http://www.w3.org/1999/xlink" viewBox="0 0 1920 1080"><defs><style>.cls-1{fill:url(#radial-gradient)}</style><radialGradient id="radial-gradient"><stop offset="25%" stop-color="#fff"/><stop offset="95%" stop-color="rgba(255,255,255,0.1)"/></radialGradient></defs><title>section-7-light-stars</title><circle class="cls-1" cx="274.59" cy="114.28" r="1.69"/><circle class="cls-1" cx="322.26" cy="98.37" r="3.39"/><circle class="cls-1" cx="384.5" cy="118.01" r="2.03"/><circle class="cls-1" cx="460.46" cy="177.2" r="2.31"/><circle class="cls-1" cx="238.35" cy="168.45" r="1.69"/><circle class="cls-1" cx="308.24" cy="209.68" r="4.2"/><circle class="cls-1" cx="525.17" cy="121.75" r="3.74"/><circle class="cls-1" cx="665" cy="78.73" r="2.03"/><circle class="cls-1" cx="730.79" cy="100.06" r="1.69"/><circle class="cls-1" cx="645.59" cy="176.04" r="1.15"/><circle class="cls-1" cx="694.81" cy="154.14" r="0.66"/><circle class="cls-1" cx="862.76" cy="200.26" r="2.13"/><circle class="cls-1" cx="692.31" cy="274.93" r="1.86"/><circle class="cls-1" cx="1108.58" cy="225.07" r="2.66"/><circle class="cls-1" cx="1158.75" cy="243.33" r="1.86"/><circle class="cls-1" cx="1052.7" cy="126.65" r="1.38"/><circle class="cls-1" cx="1129.34" cy="97.44" r="1.33"/><circle class="cls-1" cx="1233.07" cy="92.95" r="2.71"/><circle class="cls-1" cx="920.54" cy="98.32" r="2.66"/><circle class="cls-1" cx="1365.18" cy="227.58" r="2.92"/><circle class="cls-1" cx="1431.63" cy="202.59" r="2.65"/><circle class="cls-1" cx="1529.59" cy="152.3" r="2.92"/><circle class="cls-1" cx="1611.79" cy="228.28" r="1.35"/><circle class="cls-1" cx="1149.69" cy="319.12" r="2.26"/><circle class="cls-1" cx="1443.58" cy="106.51" r="0.92"/><circle class="cls-1" cx="1688.36" cy="102.24" r="2.52"/><circle class="cls-1" cx="1711.59" cy="200.39" r="4.06"/><circle class="cls-1" cx="1576.6" cy="285.12" r="2.12"/><circle class="cls-1" cx="1403.13" cy="373.77" r="0.93"/><circle class="cls-1" cx="1222.83" cy="358.62" r="0.68"/><circle class="cls-1" cx="967.03" cy="437.82" r="1.33"/><circle class="cls-1" cx="923.95" cy="339.03" r="1.86"/><circle class="cls-1" cx="609.19" cy="439.76" r="1.02"/><circle class="cls-1" cx="469.73" cy="340.22" r="3.05"/><circle class="cls-1" cx="241.89" cy="423.85" r="1.35"/><circle class="cls-1" cx="189.1" cy="318.89" r="2.03"/><circle class="cls-1" cx="1334.12" cy="321.97" r="1.27"/><circle class="cls-1" cx="1435.7" cy="299.81" r="1.46"/><circle class="cls-1" cx="1645.67" cy="426.61" r="1.86"/><circle class="cls-1" cx="1575.68" cy="82.58" r="3.85"/><circle class="cls-1" cx="1411.23" cy="78.24" r="2.89"/></svg>