<svg xmlns="http://www.w3.org/2000/svg" xmlns:xlink="http://www.w3.org/1999/xlink" viewBox="0 0 466.44 371.39"><defs><style>.cls-1{mask:url(#mask);filter:url(#luminosity-noclip-11);}.cls-10,.cls-12,.cls-14,.cls-16,.cls-18,.cls-2,.cls-20,.cls-4,.cls-6,.cls-75,.cls-77,.cls-8{mix-blend-mode:multiply;}.cls-2{fill:url(#linear-gradient);}.cls-3{mask:url(#mask-2);filter:url(#luminosity-noclip-16);}.cls-4{fill:url(#linear-gradient-2);}.cls-5{mask:url(#mask-3);filter:url(#luminosity-noclip-17);}.cls-6{fill:url(#linear-gradient-3);}.cls-7{mask:url(#mask-4);filter:url(#luminosity-noclip-18);}.cls-8{fill:url(#linear-gradient-4);}.cls-9{mask:url(#mask-5);filter:url(#luminosity-noclip-19);}.cls-10{fill:url(#linear-gradient-5);}.cls-11{mask:url(#mask-6);filter:url(#luminosity-noclip-20);}.cls-12{fill:url(#linear-gradient-6);}.cls-13{mask:url(#mask-7);filter:url(#luminosity-noclip-12);}.cls-14{fill:url(#linear-gradient-7);}.cls-15{mask:url(#mask-8);filter:url(#luminosity-noclip-13);}.cls-16{fill:url(#linear-gradient-8);}.cls-17{mask:url(#mask-9);filter:url(#luminosity-noclip-14);}.cls-18{fill:url(#linear-gradient-9);}.cls-19{mask:url(#mask-10);filter:url(#luminosity-noclip-15);}.cls-20{fill:url(#linear-gradient-10);}.cls-21{isolation:isolate;}.cls-22{fill:#fff;}.cls-23{fill:url(#linear-gradient-11);}.cls-24{mask:url(#mask-11);}.cls-25{fill:url(#linear-gradient-12);}.cls-26{fill:url(#linear-gradient-13);}.cls-27{fill:url(#linear-gradient-14);}.cls-28{fill:url(#linear-gradient-15);}.cls-29{fill:url(#linear-gradient-16);}.cls-30{fill:url(#linear-gradient-17);}.cls-31{fill:url(#linear-gradient-18);}.cls-32{fill:url(#linear-gradient-19);}.cls-33{fill:url(#linear-gradient-20);}.cls-34{fill:url(#linear-gradient-21);}.cls-35{fill:url(#linear-gradient-22);}.cls-36{fill:url(#linear-gradient-23);}.cls-37{fill:url(#linear-gradient-24);}.cls-38{fill:url(#linear-gradient-25);}.cls-39{fill:url(#linear-gradient-26);}.cls-40{mask:url(#mask-12);}.cls-41{fill:url(#linear-gradient-27);}.cls-42{fill:url(#linear-gradient-28);}.cls-43{fill:url(#linear-gradient-29);}.cls-44{mask:url(#mask-13);}.cls-45{fill:url(#linear-gradient-30);}.cls-46{fill:url(#linear-gradient-31);}.cls-47{fill:url(#linear-gradient-32);}.cls-48{fill:url(#linear-gradient-33);}.cls-49{mask:url(#mask-14);}.cls-50{fill:url(#linear-gradient-34);}.cls-51{mask:url(#mask-15);}.cls-52{fill:url(#linear-gradient-35);}.cls-53{fill:url(#linear-gradient-36);}.cls-54{fill:url(#Degradado_sin_nombre_8);}.cls-55{fill:url(#Degradado_sin_nombre_8-2);}.cls-56{fill:url(#linear-gradient-37);}.cls-57{fill:url(#linear-gradient-38);}.cls-58{fill:#3d84f8;}.cls-59{fill:#62aad6;}.cls-60{fill:url(#linear-gradient-39);}.cls-61{fill:url(#linear-gradient-40);}.cls-62{mask:url(#mask-16);}.cls-63{fill:url(#linear-gradient-41);}.cls-64{fill:#6e71ec;}.cls-65{fill:#fddf85;}.cls-66{fill:#fad56e;}.cls-67{fill:#ece7cf;}.cls-68{fill:#edb036;}.cls-69{fill:#e69626;}.cls-70{fill:#5dfdf4;}.cls-71{fill:#39c8f4;}.cls-72{fill:#2d4e89;}.cls-73{fill:#cff3fa;}.cls-74{mask:url(#mask-17);}.cls-75{fill:url(#linear-gradient-42);}.cls-76{mask:url(#mask-18);}.cls-77{fill:url(#linear-gradient-43);}.cls-78{fill:#518bbc;}.cls-79{fill:#04283f;}.cls-80{fill:#113266;}.cls-81{fill:#adaffb;}.cls-82{fill:#4c51db;}.cls-83{fill:#8082ed;}.cls-84{fill:#83d493;}.cls-85{fill:#1a6e98;}.cls-86{mask:url(#mask-19);}.cls-87{fill:url(#linear-gradient-44);}.cls-88{mask:url(#mask-20);}.cls-89{fill:url(#linear-gradient-45);}.cls-90{filter:url(#luminosity-noclip-10);}.cls-91{filter:url(#luminosity-noclip-9);}.cls-92{filter:url(#luminosity-noclip-8);}.cls-93{filter:url(#luminosity-noclip-7);}.cls-94{filter:url(#luminosity-noclip-6);}.cls-95{filter:url(#luminosity-noclip-5);}.cls-96{filter:url(#luminosity-noclip-4);}.cls-97{filter:url(#luminosity-noclip-3);}.cls-98{filter:url(#luminosity-noclip-2);}.cls-99{filter:url(#luminosity-noclip);}</style><filter id="luminosity-noclip" x="0" y="-4155.93" width="112.7" height="32766" filterUnits="userSpaceOnUse" color-interpolation-filters="sRGB"><feFlood flood-color="#fff" result="bg"/><feBlend in="SourceGraphic" in2="bg"/></filter><mask id="mask" x="0" y="-4155.93" width="112.7" height="32766" maskUnits="userSpaceOnUse"><g class="cls-99"/></mask><linearGradient id="linear-gradient" x1="302.15" y1="145.97" x2="-106.32" y2="158.03" gradientUnits="userSpaceOnUse"><stop offset="0"/><stop offset="1" stop-color="#fff"/></linearGradient><filter id="luminosity-noclip-2" x="369.88" y="-4155.93" width="36.41" height="32766" filterUnits="userSpaceOnUse" color-interpolation-filters="sRGB"><feFlood flood-color="#fff" result="bg"/><feBlend in="SourceGraphic" in2="bg"/></filter><mask id="mask-2" x="369.88" y="-4155.93" width="36.41" height="32766" maskUnits="userSpaceOnUse"><g class="cls-98"/></mask><linearGradient id="linear-gradient-2" x1="304.44" y1="103.17" x2="562.33" y2="305.34" xlink:href="#linear-gradient"/><filter id="luminosity-noclip-3" x="179.9" y="-4155.93" width="57.71" height="32766" filterUnits="userSpaceOnUse" color-interpolation-filters="sRGB"><feFlood flood-color="#fff" result="bg"/><feBlend in="SourceGraphic" in2="bg"/></filter><mask id="mask-3" x="179.9" y="-4155.93" width="57.71" height="32766" maskUnits="userSpaceOnUse"><g class="cls-97"/></mask><linearGradient id="linear-gradient-3" x1="102.23" y1="205.29" x2="257.65" y2="245.81" xlink:href="#linear-gradient"/><filter id="luminosity-noclip-4" x="159.75" y="-4155.93" width="108.08" height="32766" filterUnits="userSpaceOnUse" color-interpolation-filters="sRGB"><feFlood flood-color="#fff" result="bg"/><feBlend in="SourceGraphic" in2="bg"/></filter><mask id="mask-4" x="159.75" y="-4155.93" width="108.08" height="32766" maskUnits="userSpaceOnUse"><g class="cls-96"/></mask><linearGradient id="linear-gradient-4" x1="73.89" y1="197.03" x2="306.63" y2="310.46" xlink:href="#linear-gradient"/><filter id="luminosity-noclip-5" x="234.33" y="-4155.93" width="47.57" height="32766" filterUnits="userSpaceOnUse" color-interpolation-filters="sRGB"><feFlood flood-color="#fff" result="bg"/><feBlend in="SourceGraphic" in2="bg"/></filter><mask id="mask-5" x="234.33" y="-4155.93" width="47.57" height="32766" maskUnits="userSpaceOnUse"><g class="cls-95"/></mask><linearGradient id="linear-gradient-5" x1="276.49" y1="48.63" x2="227.17" y2="188.39" xlink:href="#linear-gradient"/><filter id="luminosity-noclip-6" x="234.33" y="-4155.93" width="38.81" height="32766" filterUnits="userSpaceOnUse" color-interpolation-filters="sRGB"><feFlood flood-color="#fff" result="bg"/><feBlend in="SourceGraphic" in2="bg"/></filter><mask id="mask-6" x="234.33" y="-4155.93" width="38.81" height="32766" maskUnits="userSpaceOnUse"><g class="cls-94"/></mask><linearGradient id="linear-gradient-6" x1="237.3" y1="175.38" x2="284.14" y2="-17.95" xlink:href="#linear-gradient"/><filter id="luminosity-noclip-7" x="9.79" y="-4155.93" width="30.55" height="32766" filterUnits="userSpaceOnUse" color-interpolation-filters="sRGB"><feFlood flood-color="#fff" result="bg"/><feBlend in="SourceGraphic" in2="bg"/></filter><mask id="mask-7" x="9.79" y="-4155.93" width="30.55" height="32766" maskUnits="userSpaceOnUse"><g class="cls-93"/></mask><linearGradient id="linear-gradient-7" x1="9.7" y1="142.5" x2="25.99" y2="175.88" xlink:href="#linear-gradient"/><filter id="luminosity-noclip-8" x="107.38" y="-4155.93" width="21.94" height="32766" filterUnits="userSpaceOnUse" color-interpolation-filters="sRGB"><feFlood flood-color="#fff" result="bg"/><feBlend in="SourceGraphic" in2="bg"/></filter><mask id="mask-8" x="107.38" y="-4155.93" width="21.94" height="32766" maskUnits="userSpaceOnUse"><g class="cls-92"/></mask><linearGradient id="linear-gradient-8" x1="99.44" y1="161.34" x2="116.5" y2="215.11" xlink:href="#linear-gradient"/><filter id="luminosity-noclip-9" x="43.78" y="-4155.93" width="135.94" height="32766" filterUnits="userSpaceOnUse" color-interpolation-filters="sRGB"><feFlood flood-color="#fff" result="bg"/><feBlend in="SourceGraphic" in2="bg"/></filter><mask id="mask-9" x="43.78" y="-4155.93" width="135.94" height="32766" maskUnits="userSpaceOnUse"><g class="cls-91"/></mask><linearGradient id="linear-gradient-9" x1="284.48" y1="56.04" x2="-123.99" y2="68.11" xlink:href="#linear-gradient"/><filter id="luminosity-noclip-10" x="27.16" y="-4155.93" width="15.72" height="32766" filterUnits="userSpaceOnUse" color-interpolation-filters="sRGB"><feFlood flood-color="#fff" result="bg"/><feBlend in="SourceGraphic" in2="bg"/></filter><mask id="mask-10" x="27.16" y="-4155.93" width="15.72" height="32766" maskUnits="userSpaceOnUse"><g class="cls-90"/></mask><linearGradient id="linear-gradient-10" x1="-67.72" y1="80.05" x2="49.28" y2="95.91" xlink:href="#linear-gradient"/><linearGradient id="linear-gradient-11" y1="191.62" x2="138.26" y2="191.62" gradientUnits="userSpaceOnUse"><stop offset="0" stop-color="#fc9eed"/><stop offset="1" stop-color="#fff3de"/></linearGradient><filter id="luminosity-noclip-11" x="0" y="150.09" width="112.7" height="6.22" filterUnits="userSpaceOnUse" color-interpolation-filters="sRGB"><feFlood flood-color="#fff" result="bg"/><feBlend in="SourceGraphic" in2="bg"/></filter><mask id="mask-11" x="0" y="150.09" width="112.7" height="6.22" maskUnits="userSpaceOnUse"><g class="cls-1"><path class="cls-2" d="M112.7,156.31H1.39L.1,152.54a1.85,1.85,0,0,1,1.75-2.45h107.4a1.84,1.84,0,0,1,1.75,1.25Z"/></g></mask><linearGradient id="linear-gradient-12" x1="302.15" y1="145.97" x2="-106.32" y2="158.03" gradientUnits="userSpaceOnUse"><stop offset="0" stop-color="#fff"/><stop offset="1" stop-color="#fff"/></linearGradient><linearGradient id="linear-gradient-13" x1="59.03" y1="116.83" x2="116.72" y2="325.82" gradientUnits="userSpaceOnUse"><stop offset="0" stop-color="#f6a1c9"/><stop offset="1" stop-color="#9173f3"/></linearGradient><linearGradient id="linear-gradient-14" x1="59.59" y1="141.07" x2="63.42" y2="165.73" xlink:href="#linear-gradient-11"/><linearGradient id="linear-gradient-15" x1="79.47" y1="137.98" x2="83.3" y2="162.64" xlink:href="#linear-gradient-11"/><linearGradient id="linear-gradient-16" x1="70.45" y1="139.38" x2="74.28" y2="164.04" xlink:href="#linear-gradient-11"/><linearGradient id="linear-gradient-17" x1="61.62" y1="140.75" x2="65.45" y2="165.42" xlink:href="#linear-gradient-11"/><linearGradient id="linear-gradient-18" x1="62.64" y1="140.6" x2="66.47" y2="165.26" xlink:href="#linear-gradient-11"/><linearGradient id="linear-gradient-19" x1="82.52" y1="137.51" x2="86.35" y2="162.17" xlink:href="#linear-gradient-11"/><linearGradient id="linear-gradient-20" x1="32.15" y1="124.24" x2="89.84" y2="333.24" xlink:href="#linear-gradient-13"/><linearGradient id="linear-gradient-21" x1="33.58" y1="145.11" x2="37.42" y2="169.77" xlink:href="#linear-gradient-11"/><linearGradient id="linear-gradient-22" x1="53.47" y1="142.02" x2="57.3" y2="166.68" xlink:href="#linear-gradient-11"/><linearGradient id="linear-gradient-23" x1="44.12" y1="143.47" x2="47.95" y2="168.13" xlink:href="#linear-gradient-11"/><linearGradient id="linear-gradient-24" x1="34.97" y1="144.89" x2="38.8" y2="169.56" xlink:href="#linear-gradient-11"/><linearGradient id="linear-gradient-25" x1="35.66" y1="144.79" x2="39.49" y2="169.45" xlink:href="#linear-gradient-11"/><linearGradient id="linear-gradient-26" x1="55.54" y1="141.7" x2="59.37" y2="166.36" xlink:href="#linear-gradient-11"/><filter id="luminosity-noclip-12" x="9.79" y="165.27" width="30.55" height="17.45" filterUnits="userSpaceOnUse" color-interpolation-filters="sRGB"><feFlood flood-color="#fff" result="bg"/><feBlend in="SourceGraphic" in2="bg"/></filter><mask id="mask-12" x="9.79" y="165.27" width="30.55" height="17.45" maskUnits="userSpaceOnUse"><g class="cls-13"><path class="cls-14" d="M39.05,182.72H16.57a1.29,1.29,0,0,1-1.21-.84l-.89-2.4-2.92-7.93L9.87,167a1.28,1.28,0,0,1,1.21-1.73H33.57a1.29,1.29,0,0,1,1.21.84l.58,1.59L40.26,181A1.29,1.29,0,0,1,39.05,182.72Z"/></g></mask><linearGradient id="linear-gradient-27" x1="9.7" y1="142.5" x2="25.99" y2="175.88" xlink:href="#linear-gradient-12"/><linearGradient id="linear-gradient-28" x1="14.47" y1="175.21" x2="40.34" y2="175.21" xlink:href="#linear-gradient-13"/><linearGradient id="linear-gradient-29" x1="9.79" y1="168.41" x2="24.22" y2="168.41" xlink:href="#linear-gradient-13"/><filter id="luminosity-noclip-13" x="107.38" y="214.6" width="21.94" height="12.7" filterUnits="userSpaceOnUse" color-interpolation-filters="sRGB"><feFlood flood-color="#fff" result="bg"/><feBlend in="SourceGraphic" in2="bg"/></filter><mask id="mask-13" x="107.38" y="214.6" width="21.94" height="12.7" maskUnits="userSpaceOnUse"><g class="cls-15"><path class="cls-16" d="M128,227.31H112.41a1.3,1.3,0,0,1-1.22-.84l-.11-.33L109,220.52l-1.54-4.18a1.29,1.29,0,0,1,1.21-1.74h15.62a1.29,1.29,0,0,1,1.21.85l3.74,10.12A1.3,1.3,0,0,1,128,227.31Z"/></g></mask><linearGradient id="linear-gradient-30" x1="99.44" y1="161.34" x2="116.5" y2="215.11" xlink:href="#linear-gradient-12"/><linearGradient id="linear-gradient-31" x1="119.45" y1="194.09" x2="120.25" y2="228.4" xlink:href="#linear-gradient-13"/><linearGradient id="linear-gradient-32" x1="109.89" y1="194.31" x2="110.69" y2="228.62" xlink:href="#linear-gradient-13"/><linearGradient id="linear-gradient-33" x1="20.86" y1="93.72" x2="179.72" y2="93.72" xlink:href="#linear-gradient-11"/><filter id="luminosity-noclip-14" x="43.78" y="58.76" width="135.94" height="4.67" filterUnits="userSpaceOnUse" color-interpolation-filters="sRGB"><feFlood flood-color="#fff" result="bg"/><feBlend in="SourceGraphic" in2="bg"/></filter><mask id="mask-14" x="43.78" y="58.76" width="135.94" height="4.67" maskUnits="userSpaceOnUse"><g class="cls-17"><path class="cls-18" d="M179.53,62.81l-.23.62H43.78l1-2.71a3,3,0,0,1,2.81-2H176.71A3,3,0,0,1,179.53,62.81Z"/></g></mask><linearGradient id="linear-gradient-34" x1="284.48" y1="56.04" x2="-123.99" y2="68.11" xlink:href="#linear-gradient-12"/><filter id="luminosity-noclip-15" x="27.16" y="79.23" width="15.72" height="28.96" filterUnits="userSpaceOnUse" color-interpolation-filters="sRGB"><feFlood flood-color="#fff" result="bg"/><feBlend in="SourceGraphic" in2="bg"/></filter><mask id="mask-15" x="27.16" y="79.23" width="15.72" height="28.96" maskUnits="userSpaceOnUse"><g class="cls-19"><path class="cls-20" d="M42.59,84.89,36.18,101.5a10.5,10.5,0,0,1-9,6.69l10.75-29h.8A4.15,4.15,0,0,1,42.59,84.89Z"/></g></mask><linearGradient id="linear-gradient-35" x1="-67.72" y1="80.05" x2="49.28" y2="95.91" xlink:href="#linear-gradient-12"/><linearGradient id="linear-gradient-36" x1="13.43" y1="97.91" x2="120.26" y2="95.42" xlink:href="#linear-gradient-13"/><linearGradient id="Degradado_sin_nombre_8" x1="8.29" y1="76.38" x2="90.63" y2="88.93" gradientUnits="userSpaceOnUse"><stop offset="0" stop-color="#ba5b9e"/><stop offset="1" stop-color="#fdc66c"/></linearGradient><linearGradient id="Degradado_sin_nombre_8-2" x1="7.17" y1="83.71" x2="89.51" y2="96.26" xlink:href="#Degradado_sin_nombre_8"/><linearGradient id="linear-gradient-37" x1="138.36" y1="67.96" x2="167.94" y2="67.96" xlink:href="#linear-gradient-13"/><linearGradient id="linear-gradient-38" x1="109.53" y1="123.16" x2="139.11" y2="123.16" xlink:href="#linear-gradient-13"/><linearGradient id="linear-gradient-39" x1="390.04" y1="208.05" x2="384.78" y2="-6.48" gradientUnits="userSpaceOnUse"><stop offset="0" stop-color="#6e19b9"/><stop offset="1" stop-color="#5fcafc"/></linearGradient><linearGradient id="linear-gradient-40" x1="390.49" y1="159.66" x2="386.21" y2="90.94" xlink:href="#linear-gradient-39"/><filter id="luminosity-noclip-16" x="369.88" y="134.23" width="36.41" height="69.02" filterUnits="userSpaceOnUse" color-interpolation-filters="sRGB"><feFlood flood-color="#fff" result="bg"/><feBlend in="SourceGraphic" in2="bg"/></filter><mask id="mask-16" x="369.88" y="134.23" width="36.41" height="69.02" maskUnits="userSpaceOnUse"><g class="cls-3"><path class="cls-4" d="M406.29,134.4v68.85H369.88v-8.44h13.53V153.73s18.4,3.27,22.88-19.5Z"/></g></mask><linearGradient id="linear-gradient-41" x1="304.44" y1="103.17" x2="562.33" y2="305.34" xlink:href="#linear-gradient-12"/><filter id="luminosity-noclip-17" x="179.9" y="193.99" width="57.71" height="90.13" filterUnits="userSpaceOnUse" color-interpolation-filters="sRGB"><feFlood flood-color="#fff" result="bg"/><feBlend in="SourceGraphic" in2="bg"/></filter><mask id="mask-17" x="179.9" y="193.99" width="57.71" height="90.13" maskUnits="userSpaceOnUse"><g class="cls-5"><path class="cls-6" d="M237.29,268.27l-7.61,14.92a1.72,1.72,0,0,1-2.24.78l-2.3-1c1.34-3.35,3.18-6.54,3.91-8.19s1.49-3.51,1.07-5.3c-.53-2.28-2.74-3.7-4.78-4.87l-29.81-17.2c-3.74-2.16-7.52-4.36-10.55-7.44s-5.24-7.21-5.07-11.52,2.84-8.49,6.26-11.34,7.55-4.67,11.62-6.46L235.56,194l.37.38c6.44,6.38-6.13,7-30.07,18.77-11.91,5.83-17.68,10.46-20,14.18-2.08,3.35-1.36,6,.21,8.07a14.69,14.69,0,0,0,1.81,2c4.18,3.83,40.15,23.57,48.57,28.17A2,2,0,0,1,237.29,268.27Z"/></g></mask><linearGradient id="linear-gradient-42" x1="102.23" y1="205.29" x2="257.65" y2="245.81" gradientUnits="userSpaceOnUse"><stop offset="0" stop-color="#fff"/><stop offset="1" stop-color="#23affb"/></linearGradient><filter id="luminosity-noclip-18" x="159.75" y="201.01" width="108.08" height="130.62" filterUnits="userSpaceOnUse" color-interpolation-filters="sRGB"><feFlood flood-color="#fff" result="bg"/><feBlend in="SourceGraphic" in2="bg"/></filter><mask id="mask-18" x="159.75" y="201.01" width="108.08" height="130.62" maskUnits="userSpaceOnUse"><g class="cls-7"><path class="cls-8" d="M267.83,201s-23.62,18.91-42.63,35.27c-5.26,4.52-10.79,11.72-16.09,20.36-2,3.24-3.93,6.67-5.82,10.25-10.87,20.57-19.74,45.66-21.35,62.81a2.11,2.11,0,0,1-2.28,1.92l-17.95-1.42a2.14,2.14,0,0,1-2-2.37c.17-1.49.43-3.72.81-6.52,5.13,1.74,10.86,3.49,15.66-.09,3.69-2.76,4.92-7.64,6.08-12.1A181.6,181.6,0,0,1,222.52,234c10.27-11.49,21.95-21.61,33.7-31.58A36,36,0,0,0,267.83,201Z"/></g></mask><linearGradient id="linear-gradient-43" x1="73.89" y1="197.03" x2="306.63" y2="310.46" xlink:href="#linear-gradient-42"/><filter id="luminosity-noclip-19" x="234.33" y="77.09" width="47.57" height="49.73" filterUnits="userSpaceOnUse" color-interpolation-filters="sRGB"><feFlood flood-color="#fff" result="bg"/><feBlend in="SourceGraphic" in2="bg"/></filter><mask id="mask-19" x="234.33" y="77.09" width="47.57" height="49.73" maskUnits="userSpaceOnUse"><g class="cls-9"><path class="cls-10" d="M281.71,103.88c-1.88,14.61-16.59,24.76-32.86,22.67l-1.06-.16a29.73,29.73,0,0,1-11.36-35.86c.1-.25.21-.49.31-.74l.15-.35c.12-.26.24-.53.37-.79l.15-.31.37-.71q.36-.7.78-1.38l.21-.34c.13-.23.28-.45.42-.67l.18-.27c.53-.79,1.1-1.55,1.7-2.28l.25-.3.25-.3c.43-.5.88-1,1.34-1.45l.28-.28,1-1,.37-.32c.63-.55,1.29-1.08,2-1.57a2.83,2.83,0,0,1,.28-.2l.33-.23a23.78,23.78,0,0,0-1.88,2,38.26,38.26,0,0,0-4.18,6.3A7.57,7.57,0,0,0,240,89a3,3,0,0,0,2,2.89c1.51.36,2.92-.92,3.79-2.22,1.26-1.9,2.08-4.07,3.41-5.92s3.4-3.42,5.67-3.24c2.65.21,4.64,2.85,4.82,5.5s-1.07,5.2-2.69,7.3-3.63,3.88-5.32,5.93a12.09,12.09,0,0,0-3.15,7.16c-.09,4.36,3.76,8.22,8.08,8.83s8.73-1.56,11.53-4.91a22.67,22.67,0,0,0,4.63-12c.25-2.29.63-5.11,2.79-5.92a3.87,3.87,0,0,1,4.13,1.35,9.45,9.45,0,0,1,1.77,4.22c.17.77.31,1.54.43,2.33A23.57,23.57,0,0,1,281.71,103.88Z"/></g></mask><linearGradient id="linear-gradient-44" x1="276.49" y1="48.63" x2="227.17" y2="188.39" xlink:href="#linear-gradient-12"/><filter id="luminosity-noclip-20" x="234.33" y="90.53" width="38.81" height="28.49" filterUnits="userSpaceOnUse" color-interpolation-filters="sRGB"><feFlood flood-color="#fff" result="bg"/><feBlend in="SourceGraphic" in2="bg"/></filter><mask id="mask-20" x="234.33" y="90.53" width="38.81" height="28.49" maskUnits="userSpaceOnUse"><g class="cls-11"><path class="cls-12" d="M273.15,117.11a47.08,47.08,0,0,1-36.58-4.26,29.79,29.79,0,0,1-.14-22.32,59.61,59.61,0,0,0,36,8.46C272.69,105.06,272.86,111,273.15,117.11Z"/></g></mask><linearGradient id="linear-gradient-45" x1="237.3" y1="175.38" x2="284.14" y2="-17.95" xlink:href="#linear-gradient-12"/></defs><title>section-3</title><g class="cls-21"><g id="Layer_2" data-name="Layer 2"><g id="Layer_1-2" data-name="Layer 1"><path class="cls-22" d="M252.07,36.63a1.62,1.62,0,0,0,0,3.23A1.62,1.62,0,0,0,252.07,36.63Z"/><path class="cls-22" d="M160.2,0a1.62,1.62,0,0,0,0,3.23A1.62,1.62,0,0,0,160.2,0Z"/><path class="cls-22" d="M132.87,150a1.62,1.62,0,0,0,0,3.23A1.62,1.62,0,0,0,132.87,150Z"/><path class="cls-22" d="M324.46,168.33a1.62,1.62,0,0,0,0,3.23A1.62,1.62,0,0,0,324.46,168.33Z"/><path class="cls-22" d="M78.8,264.56a1.62,1.62,0,0,0,0,3.23A1.62,1.62,0,0,0,78.8,264.56Z"/><path class="cls-22" d="M144.21,284.05c-3.19,0-3.19,5,0,5S147.4,284.05,144.21,284.05Z"/><path class="cls-22" d="M212.82,290.25a1.51,1.51,0,0,0,0,3A1.51,1.51,0,0,0,212.82,290.25Z"/><path class="cls-22" d="M313.33,132a1.19,1.19,0,0,0,0,2.37A1.19,1.19,0,0,0,313.33,132Z"/><path class="cls-22" d="M162.56,188.36a1.19,1.19,0,0,0,0,2.37A1.19,1.19,0,0,0,162.56,188.36Z"/><path class="cls-22" d="M206.55,106.78a1.19,1.19,0,0,0,0,2.37A1.19,1.19,0,0,0,206.55,106.78Z"/><path class="cls-22" d="M236.45,239.07c-3.33,0-3.33,5.17,0,5.17S239.78,239.07,236.45,239.07Z"/><path class="cls-22" d="M223.6,115.17a1.83,1.83,0,0,0-.51-.8,1.86,1.86,0,0,0-.79-.51,1.88,1.88,0,0,0-1-.22l-.66.09a2.47,2.47,0,0,0-1.09.64l-.39.5a2.5,2.5,0,0,0-.34,1.25v.41a2.58,2.58,0,0,0,2.48,2.48l.66-.09a2.47,2.47,0,0,0,1.09-.64l.39-.5a2.5,2.5,0,0,0,.34-1.25v-.41A1.82,1.82,0,0,0,223.6,115.17Z"/><path class="cls-22" d="M177.5,185.34c-3.19,0-3.19,5,0,5S180.69,185.34,177.5,185.34Z"/><path class="cls-22" d="M159.47,266.88c-3.19,0-3.19,5,0,5S162.67,266.88,159.47,266.88Z"/><path class="cls-23" d="M136.41,233.15H29a1.85,1.85,0,0,1-1.75-1.25L1.39,156.31.1,152.54a1.85,1.85,0,0,1,1.75-2.45h107.4a1.84,1.84,0,0,1,1.75,1.25l1.7,5,25.46,74.39A1.85,1.85,0,0,1,136.41,233.15Z"/><g class="cls-24"><path class="cls-25" d="M112.7,156.31H1.39L.1,152.54a1.85,1.85,0,0,1,1.75-2.45h107.4a1.84,1.84,0,0,1,1.75,1.25Z"/></g><path class="cls-22" d="M44.79,205.36a.2.2,0,0,1-.2-.14A14.13,14.13,0,0,1,50.22,188a.22.22,0,0,1,.3.07.22.22,0,0,1-.07.3A13.69,13.69,0,0,0,45,205.06a.22.22,0,0,1-.12.28Z"/><path class="cls-26" d="M105.76,193.61H55a1.29,1.29,0,0,1-1.22-.87L48.5,177.32a1.29,1.29,0,0,1,1.22-1.71h50.72a1.28,1.28,0,0,1,1.22.86L107,191.9A1.29,1.29,0,0,1,105.76,193.61Z"/><path class="cls-27" d="M74.9,180H56.23a.43.43,0,0,1-.43-.43.43.43,0,0,1,.43-.43H74.9a.43.43,0,0,1,.43.43A.43.43,0,0,1,74.9,180Z"/><path class="cls-28" d="M95.27,180H76.6a.43.43,0,0,1-.43-.43.43.43,0,0,1,.43-.43H95.27a.43.43,0,0,1,.43.43A.44.44,0,0,1,95.27,180Z"/><path class="cls-29" d="M96.59,183.15H57.76a.43.43,0,0,1,0-.86H96.59a.43.43,0,1,1,0,.86Z"/><path class="cls-30" d="M78,186.3H59.29a.43.43,0,0,1,0-.86H78a.43.43,0,0,1,0,.86Z"/><path class="cls-31" d="M79.49,189.46H60.83a.44.44,0,1,1,0-.87H79.49a.44.44,0,1,1,0,.87Z"/><path class="cls-32" d="M99.86,189.46H81.19a.44.44,0,0,1,0-.87H99.86a.44.44,0,0,1,0,.87Z"/><path class="cls-33" d="M85.53,225.09H34.8a1.29,1.29,0,0,1-1.22-.87L28.26,208.8a1.29,1.29,0,0,1,1.22-1.71H80.2a1.29,1.29,0,0,1,1.22.87l5.32,15.42A1.29,1.29,0,0,1,85.53,225.09Z"/><path class="cls-34" d="M53.17,211.84H34.5a.38.38,0,0,1-.38-.43.49.49,0,0,1,.48-.42H53.27a.37.37,0,0,1,.38.42A.49.49,0,0,1,53.17,211.84Z"/><path class="cls-35" d="M73.54,211.84H54.87a.38.38,0,0,1-.39-.43A.49.49,0,0,1,55,211H73.63a.37.37,0,0,1,.38.42A.48.48,0,0,1,73.54,211.84Z"/><path class="cls-36" d="M74.52,215H35.69a.38.38,0,0,1-.38-.43.49.49,0,0,1,.48-.43H74.62a.38.38,0,0,1,.38.43A.49.49,0,0,1,74.52,215Z"/><path class="cls-37" d="M55.56,218.07H36.89a.38.38,0,0,1-.39-.42.49.49,0,0,1,.48-.43H55.65a.37.37,0,0,1,.38.43A.48.48,0,0,1,55.56,218.07Z"/><path class="cls-38" d="M56.75,221.19H38.08a.38.38,0,0,1-.39-.43.49.49,0,0,1,.48-.42H56.84a.37.37,0,0,1,.38.42A.48.48,0,0,1,56.75,221.19Z"/><path class="cls-39" d="M77.11,221.19H58.44a.38.38,0,0,1-.38-.43.49.49,0,0,1,.48-.42H77.21a.37.37,0,0,1,.38.42A.49.49,0,0,1,77.11,221.19Z"/><g class="cls-40"><path class="cls-41" d="M39.05,182.72H16.57a1.29,1.29,0,0,1-1.21-.84l-.89-2.4-2.92-7.93L9.87,167a1.28,1.28,0,0,1,1.21-1.73H33.57a1.29,1.29,0,0,1,1.21.84l.58,1.59L40.26,181A1.29,1.29,0,0,1,39.05,182.72Z"/></g><path class="cls-42" d="M39.05,182.72H16.57a1.29,1.29,0,0,1-1.21-.84l-.89-2.4c.22-.39.45-.77.65-1.11a5.74,5.74,0,0,1,4.1-2.89,8.19,8.19,0,0,1,4.56,1.27,12,12,0,0,0,4.46,1.69c1.6.13,3.41-.71,3.8-2.27a7.73,7.73,0,0,0,0-2,7.82,7.82,0,0,1,3.29-6.43L40.26,181A1.29,1.29,0,0,1,39.05,182.72Z"/><path class="cls-43" d="M24.18,166.78a4.65,4.65,0,0,1-2.9,3.78,7.77,7.77,0,0,1-4,.05,9.86,9.86,0,0,0-4-.16,3.24,3.24,0,0,0-1.81,1.1L9.87,167a1.28,1.28,0,0,1,1.21-1.73H24.16A5.09,5.09,0,0,1,24.18,166.78Z"/><g class="cls-44"><path class="cls-45" d="M128,227.31H112.41a1.3,1.3,0,0,1-1.22-.84l-.11-.33L109,220.52l-1.54-4.18a1.29,1.29,0,0,1,1.21-1.74h15.62a1.29,1.29,0,0,1,1.21.85l3.74,10.12A1.3,1.3,0,0,1,128,227.31Z"/></g><path class="cls-46" d="M128,227.31H112.41a1.3,1.3,0,0,1-1.22-.84l-.11-.33h.3a32.25,32.25,0,0,0,3.8-.43,31.44,31.44,0,0,0,4.28-1.05,3.75,3.75,0,0,0,2.34-1.55c.56-1.1,0-2.44-.78-3.41a9.14,9.14,0,0,1-2-3.06,3.32,3.32,0,0,1,.16-2h5.14a1.29,1.29,0,0,1,1.21.85l3.74,10.12A1.3,1.3,0,0,1,128,227.31Z"/><path class="cls-47" d="M111.59,219.57a8.4,8.4,0,0,1-2.59,1l-1.54-4.18a1.29,1.29,0,0,1,1.21-1.74h3.89a3.57,3.57,0,0,1,.85,1.73A3.47,3.47,0,0,1,111.59,219.57Z"/><path class="cls-48" d="M179.53,62.81l-.23.62-23.51,63.3a3,3,0,0,1-2.81,2H23.87a3,3,0,0,1-2.82-4l6.11-16.45,10.75-29,5.87-15.8,1-2.71a3,3,0,0,1,2.81-2H176.71A3,3,0,0,1,179.53,62.81Z"/><g class="cls-49"><path class="cls-50" d="M179.53,62.81l-.23.62H43.78l1-2.71a3,3,0,0,1,2.81-2H176.71A3,3,0,0,1,179.53,62.81Z"/></g><g class="cls-51"><path class="cls-52" d="M42.59,84.89,36.18,101.5a10.5,10.5,0,0,1-9,6.69l10.75-29h.8A4.15,4.15,0,0,1,42.59,84.89Z"/></g><path class="cls-53" d="M122.14,95.91a25.85,25.85,0,0,1-6.74,14.19,26.42,26.42,0,0,1-16.52,8.5,21.85,21.85,0,0,1-2.43.13c-12.61,0-21.54-10.22-20-22.82A26.78,26.78,0,0,1,92.63,75.07a24.35,24.35,0,0,1,9.56-2,21.25,21.25,0,0,1,7.67,1.38C118.2,77.67,123.38,86.06,122.14,95.91Z"/><path class="cls-54" d="M122.14,95.91a25.85,25.85,0,0,1-6.74,14.19,2.1,2.1,0,0,1-1.3-1.81c0-1,.68-2.11,0-2.87s-2.06-.21-3-.74a2.2,2.2,0,0,1-.71-2.38,7.12,7.12,0,0,0,.34-2.61c-.34-1.76-2.6-2.45-4.34-2s-3.24,1.52-5,2-4,.14-4.63-1.53a3.16,3.16,0,0,1,1.75-3.72,7.23,7.23,0,0,1,4.42-.34,21.78,21.78,0,0,0,4.46.62,4.51,4.51,0,0,0,3.28-1.39,2.63,2.63,0,0,0,.13-3.36c-.71-.79-1.88-.91-2.88-1.29s-2-1.42-1.55-2.39,1.57-.94,2.52-.92,2.14-.14,2.43-1c.36-1.09-.93-1.93-1.75-2.73a5.14,5.14,0,0,1-.63-6,6.55,6.55,0,0,1,.78-1.14C118.2,77.67,123.38,86.06,122.14,95.91Z"/><path class="cls-55" d="M101.53,109.25c-1,.58-2.09.82-3.09,1.33a3.07,3.07,0,0,0-1.9,2.56c.07,1.62,2,2.56,2.4,4.14a2.37,2.37,0,0,1-.06,1.32,21.85,21.85,0,0,1-2.43.13c-12.61,0-21.54-10.22-20-22.82A26.78,26.78,0,0,1,92.63,75.07,10.73,10.73,0,0,1,93,79a7.75,7.75,0,0,1-2.73,4.13,30.07,30.07,0,0,0-3.71,3.41,5.12,5.12,0,0,0-1.13,4.7c.64,1.8,2.67,3,2.88,4.87.31,2.81-3.48,4.51-3.87,7.31-.27,2,1.34,3.8,3.23,4.37a9.17,9.17,0,0,0,5.78-.58,52.84,52.84,0,0,1,5.53-2.11c1.52-.38,3.59-.15,4,1.37A2.67,2.67,0,0,1,101.53,109.25Z"/><path class="cls-22" d="M82.88,86.66a.3.3,0,0,1-.23-.1L73.1,77H50.45a.32.32,0,0,1,0-.64H73.23a.32.32,0,0,1,.23.09l9.65,9.65a.33.33,0,0,1,0,.45A.32.32,0,0,1,82.88,86.66Z"/><path class="cls-22" d="M69.56,117.54H41.69a.33.33,0,0,1-.32-.33.32.32,0,0,1,.32-.32H69.43l12.1-12.1a.31.31,0,0,1,.45,0,.32.32,0,0,1,0,.46L69.79,117.44A.33.33,0,0,1,69.56,117.54Z"/><path class="cls-22" d="M115.63,84.69a.32.32,0,0,1-.23-.09.32.32,0,0,1,0-.46L128.24,71.3a.33.33,0,0,1,.23-.1h37.8a.33.33,0,0,1,.32.33.32.32,0,0,1-.32.32H128.6L115.85,84.6A.31.31,0,0,1,115.63,84.69Z"/><path class="cls-22" d="M143.24,117.84H122.32a.33.33,0,0,1-.31-.22l-5.08-15.73a.32.32,0,0,1,.62-.19l5,15.49h20.68a.32.32,0,0,1,.32.33A.32.32,0,0,1,143.24,117.84Z"/><path class="cls-22" d="M75.74,72.28H48.4a.78.78,0,0,1-.76-1.08A1.54,1.54,0,0,1,49,70.13H76.36a.78.78,0,0,1,.77,1.07A1.55,1.55,0,0,1,75.74,72.28Z"/><path class="cls-56" d="M166.5,69H139.17a.77.77,0,0,1-.76-1.07,1.54,1.54,0,0,1,1.39-1.08h27.33a.78.78,0,0,1,.76,1.08A1.54,1.54,0,0,1,166.5,69Z"/><path class="cls-57" d="M137.68,124.24H110.34a.78.78,0,0,1-.76-1.08,1.54,1.54,0,0,1,1.39-1.07H138.3a.78.78,0,0,1,.77,1.07A1.56,1.56,0,0,1,137.68,124.24Z"/><path class="cls-22" d="M66.52,114.14H39.18a.78.78,0,0,1-.76-1.08A1.56,1.56,0,0,1,39.81,112H67.14a.79.79,0,0,1,.77,1.08A1.55,1.55,0,0,1,66.52,114.14Z"/><path class="cls-58" d="M370.73,173c-.09,0-3.77,1.43-7.39,2.85A11.46,11.46,0,0,0,356.07,186L354.7,222.6s3.52.46,3.52,0,3.5-20.28,4.54-26.17a2.91,2.91,0,0,1,1.82-2.21l6.15-2.38Z"/><path class="cls-58" d="M405.31,173c.09,0,3.78,1.43,7.39,2.85A11.46,11.46,0,0,1,420,186l1.37,36.56s-3.52.46-3.52,0-3.5-20.28-4.54-26.17a2.91,2.91,0,0,0-1.82-2.21l-6.15-2.38Z"/><path class="cls-59" d="M406.29,134.4v68.85H369.88V134.4a33,33,0,0,1,15.9-28.23,4.49,4.49,0,0,1,4.61,0,33,33,0,0,1,15.9,28.06Z"/><ellipse class="cls-60" cx="388.08" cy="128.49" rx="9.58" ry="15.17"/><circle class="cls-61" cx="388.08" cy="120.97" r="5.88"/><g class="cls-62"><path class="cls-63" d="M406.29,134.4v68.85H369.88v-8.44h13.53V153.73s18.4,3.27,22.88-19.5Z"/></g><polygon class="cls-64" points="388.08 203.25 385.27 207.63 368.76 207.63 371.57 203.25 388.08 203.25"/><path class="cls-59" d="M373.05,203.25l-.23.39-2.4,4h-.25l2.63-4.38Z"/><path class="cls-59" d="M375.25,203.25c-.09.15-.18.31-.28.46l-2.33,3.92h-.25c.57-1,1.78-3,2.61-4.38Z"/><path class="cls-59" d="M377.45,203.25l-.32.53c-.29.48-1.33,2.24-2.27,3.85h-.25c.65-1.14,1.78-3,2.58-4.38Z"/><path class="cls-59" d="M379.64,203.25l-.36.6c-.41.69-1.33,2.26-2.2,3.78h-.25c.7-1.26,1.76-3,2.56-4.38Z"/><path class="cls-59" d="M381.84,203.25l-.4.67c-.53.88-1.35,2.29-2.15,3.71H379c.75-1.35,1.74-3,2.55-4.38Z"/><path class="cls-59" d="M384,203.25l-.45.74c-.62,1-1.37,2.33-2.09,3.64h-.25c.78-1.43,1.7-3,2.54-4.38Z"/><path class="cls-59" d="M386.24,203.25l-.5.82c-.7,1.17-1.38,2.36-2,3.56h-.25c.8-1.48,1.65-2.94,2.53-4.38Z"/><polygon class="cls-64" points="407.18 207.63 390.66 207.63 387.85 203.25 404.37 203.25 407.18 207.63"/><path class="cls-59" d="M406,207.63h-.26l-2.39-4-.24-.39h.25Z"/><path class="cls-59" d="M403.75,207.63h-.25l-2.33-3.92c-.09-.15-.18-.31-.28-.46h.25C402,204.63,403.18,206.65,403.75,207.63Z"/><path class="cls-59" d="M401.53,207.63h-.25L399,203.78c-.11-.17-.22-.35-.32-.53H399C399.76,204.59,400.88,206.49,401.53,207.63Z"/><path class="cls-59" d="M399.32,207.63h-.26c-.86-1.52-1.78-3.09-2.2-3.78l-.36-.6h.25C397.55,204.58,398.61,206.37,399.32,207.63Z"/><path class="cls-59" d="M397.1,207.63h-.25c-.79-1.42-1.62-2.83-2.14-3.71l-.41-.67h.25C395.36,204.59,396.35,206.28,397.1,207.63Z"/><path class="cls-59" d="M394.89,207.63h-.25c-.72-1.31-1.46-2.6-2.08-3.64l-.46-.74h.26C393.19,204.63,394.11,206.2,394.89,207.63Z"/><path class="cls-59" d="M392.68,207.63h-.24c-.66-1.2-1.33-2.39-2-3.56-.16-.28-.33-.55-.5-.82h.26Q391.48,205.41,392.68,207.63Z"/><path class="cls-65" d="M466.44,288.91a75.43,75.43,0,1,1-21.75-53A75.44,75.44,0,0,1,466.44,288.91Z"/><path class="cls-66" d="M466.44,288.91a75.44,75.44,0,0,1-135.27,46,56.71,56.71,0,0,0,17.05,9.94c8.76,3,18.33,3,27.47,1.46a86.79,86.79,0,0,0,69-110.36A75.19,75.19,0,0,1,466.44,288.91Z"/><path class="cls-67" d="M350.2,243.9a1.94,1.94,0,0,0-1.16-.34h0l-2.34-.57-1.89,2.52a27.85,27.85,0,0,0-8.12,10.81l-1.88,2.5,1.34,2.67h0a1.72,1.72,0,0,0,.47.56c.76.57,2,.41,3.41-.34a21.84,21.84,0,0,0,6.73-6.22c2.7-3.61,4.25-7.31,4.21-9.61A2.36,2.36,0,0,0,350.2,243.9Z"/><path class="cls-68" d="M348,245c0,2-1.34,5.33-3.74,8.53a19.5,19.5,0,0,1-6,5.53c-1.27.66-2.35.8-3,.29-1.64-1.23-.28-5.83,3.05-10.27s7.35-7.06,9-5.83A2.09,2.09,0,0,1,348,245Z"/><path class="cls-69" d="M348,245c0,2-1.34,5.33-3.74,8.53a19.5,19.5,0,0,1-6,5.53c0-2.05,1.35-5.33,3.74-8.54A19.43,19.43,0,0,1,348,245Z"/><path class="cls-67" d="M327.45,295.41a1.82,1.82,0,0,0-1,.73h0l-1.84,1.56.92,3a28,28,0,0,0,3.93,12.93l.91,3,2.95.48h0a1.58,1.58,0,0,0,.72-.05c.91-.28,1.5-1.36,1.75-2.95a21.87,21.87,0,0,0-1.06-9.1c-1.32-4.31-3.4-7.75-5.28-9.08A2.38,2.38,0,0,0,327.45,295.41Z"/><path class="cls-68" d="M327,297.83c1.67,1.18,3.51,4.23,4.68,8.06a19.24,19.24,0,0,1,.94,8.08c-.22,1.41-.74,2.37-1.55,2.62-2,.6-4.87-3.21-6.5-8.52s-1.35-10.1.61-10.7A2.13,2.13,0,0,1,327,297.83Z"/><path class="cls-69" d="M327,297.83c1.67,1.18,3.51,4.23,4.68,8.06a19.24,19.24,0,0,1,.94,8.08c-1.67-1.18-3.51-4.23-4.68-8.06A19.24,19.24,0,0,1,327,297.83Z"/><path class="cls-67" d="M362.64,341.11a3,3,0,0,0,.22,1.88h0l.62,3.73,4.82,1.18a40.46,40.46,0,0,0,10.12,3.82A40.93,40.93,0,0,0,389,353l4.79,1.17,3-3.6h0a2.6,2.6,0,0,0,.52-1c.35-1.46-.64-3.12-2.6-4.74-2.79-2.3-7.55-4.51-13.18-5.88-6.9-1.67-13.22-1.62-16.53-.14A3.72,3.72,0,0,0,362.64,341.11Z"/><path class="cls-68" d="M365.59,343.63c2.94-1.32,8.55-1.36,14.67.13,5,1.21,9.23,3.17,11.71,5.22,1.74,1.43,2.62,2.91,2.3,4.2-.76,3.14-8.27,4-16.77,2s-14.77-6.29-14-9.43A3.28,3.28,0,0,1,365.59,343.63Z"/><path class="cls-69" d="M365.59,343.63c2.94-1.32,8.55-1.36,14.67.13,5,1.21,9.23,3.17,11.71,5.22-2.94,1.31-8.55,1.35-14.68-.14C372.29,347.63,368.07,345.67,365.59,343.63Z"/><path class="cls-67" d="M437.36,326.41a3,3,0,0,0,1.88.2h0l3.78.21,2.21-4.43a44.06,44.06,0,0,0,9.5-19.06l2.2-4.42-2.85-3.74h0a2.67,2.67,0,0,0-.88-.73c-1.35-.66-3.19-.06-5.19,1.5-2.87,2.21-6.07,6.37-8.64,11.56-3.15,6.36-4.5,12.53-3.79,16.09A3.74,3.74,0,0,0,437.36,326.41Z"/><path class="cls-68" d="M440.46,324.09c-.63-3.16.56-8.64,3.36-14.29,2.28-4.61,5.13-8.3,7.67-10.26,1.78-1.39,3.42-1.92,4.61-1.33,2.9,1.44,2.1,9-1.79,16.79s-9.38,13-12.27,11.59A3.31,3.31,0,0,1,440.46,324.09Z"/><path class="cls-69" d="M440.46,324.09c-.63-3.16.56-8.64,3.36-14.29,2.28-4.61,5.13-8.3,7.67-10.26.63,3.15-.56,8.64-3.36,14.28C445.84,318.43,443,322.12,440.46,324.09Z"/><path class="cls-67" d="M449.44,269.41a1.85,1.85,0,0,0,.7-1h0l1.31-2.08-1.82-2.66a28.74,28.74,0,0,0-7.83-11.41L440,249.62l-3,.43h0a1.9,1.9,0,0,0-.69.28c-.8.55-1,1.78-.79,3.41a22.37,22.37,0,0,0,3.84,8.56c2.62,3.8,5.7,6.51,7.95,7.23A2.41,2.41,0,0,0,449.44,269.41Z"/><path class="cls-68" d="M449.1,266.92c-2-.64-4.73-3.05-7.05-6.42a19.7,19.7,0,0,1-3.41-7.6c-.23-1.45,0-2.54.7-3,1.73-1.2,5.75,1.63,9,6.31s4.44,9.44,2.71,10.63A2.17,2.17,0,0,1,449.1,266.92Z"/><path class="cls-69" d="M449.1,266.92c-2-.64-4.73-3.05-7.05-6.42a19.7,19.7,0,0,1-3.41-7.6c2,.64,4.73,3,7.05,6.42A19.85,19.85,0,0,1,449.1,266.92Z"/><path class="cls-67" d="M401.24,226.71a1.92,1.92,0,0,0-.48-1.13h0l-1.07-2.22-3.21.12a26.57,26.57,0,0,0-7-.57,26.9,26.9,0,0,0-6.82,1.12l-3.21.13L378.21,227h0a1.88,1.88,0,0,0-.13.73c0,1,.95,1.84,2.47,2.49a22.31,22.31,0,0,0,9.29,1.31c4.61-.2,8.54-1.36,10.35-2.88A2.42,2.42,0,0,0,401.24,226.71Z"/><path class="cls-68" d="M399,225.67c-1.61,1.35-5.1,2.38-9.19,2.55a19.74,19.74,0,0,1-8.25-1.16c-1.35-.58-2.16-1.35-2.2-2.21-.08-2.1,4.45-4,10.13-4.23s10.35,1.27,10.44,3.37A2.18,2.18,0,0,1,399,225.67Z"/><path class="cls-69" d="M399,225.67c-1.61,1.35-5.1,2.38-9.19,2.55a19.74,19.74,0,0,1-8.25-1.16c1.6-1.35,5.1-2.38,9.19-2.55A19.77,19.77,0,0,1,399,225.67Z"/><path class="cls-67" d="M424.35,308.15A10.25,10.25,0,0,1,414.1,318.4a10.12,10.12,0,0,1-4.93-1.26,10.26,10.26,0,0,1,4.93-19.25,10.39,10.39,0,0,1,1.37.09A10.26,10.26,0,0,1,424.35,308.15Z"/><path class="cls-69" d="M420.8,307a10.26,10.26,0,0,1-10.25,10.26,9,9,0,0,1-1.38-.1,10.26,10.26,0,0,1,4.93-19.25,10.39,10.39,0,0,1,1.37.09A10.25,10.25,0,0,1,420.8,307Z"/><path class="cls-67" d="M351.69,290.84a10.26,10.26,0,0,1-1.33-14.44,10.13,10.13,0,0,1,4.11-3,10.26,10.26,0,0,1,11.67,16.09,10.06,10.06,0,0,1-.95,1A10.27,10.27,0,0,1,351.69,290.84Z"/><path class="cls-69" d="M354.86,288.86a10.26,10.26,0,0,1-1.34-14.45,11.3,11.3,0,0,1,1-1,10.26,10.26,0,0,1,11.67,16.09,10.06,10.06,0,0,1-.95,1A10.27,10.27,0,0,1,354.86,288.86Z"/><path class="cls-70" d="M372.83,195.62c-.28.26-.54.52-.8.81a3,3,0,0,0-.28.33,10.36,10.36,0,0,0-1,1.37c-.09.14-.18.27-.26.41s-.09.15-.13.22l-.13.23-.15.25a4.52,4.52,0,0,1-.37.47,4,4,0,0,1-.93.76h0a2.35,2.35,0,0,1-.39.19,3.67,3.67,0,0,1-.73.24l-.31,0-.17,0h-.69a2.59,2.59,0,0,0-1.57.46l0,0a1.32,1.32,0,0,0-.3.28h0l-.13.16-.13.18a4.51,4.51,0,0,0-.44.81,5.37,5.37,0,0,0-.21.56c0,.14-.08.29-.13.44s-.14.58-.2.88c-.1.53-.19,1.06-.3,1.62h0c0,.14-.06.29-.1.44h0a8.52,8.52,0,0,1-.77,2.11c-.1.19-.22.38-.34.57l-.26.34-.07.08a4,4,0,0,1-1,.82,3.65,3.65,0,0,1-1.19.49,3.8,3.8,0,0,1-1.11.07h-.15a2.85,2.85,0,0,1-.29,0,8.68,8.68,0,0,1-1.93-.56l-.74-.3-.41-.17-.76-.29a5.22,5.22,0,0,0-1.37-.3h-.44a2.18,2.18,0,0,0-1.27.59,3.4,3.4,0,0,0-.59.78,4.13,4.13,0,0,0-.22.42c0,.09-.08.17-.11.25-.41.95-.69,2-1.14,3.16h0l-.18.43-.17.36a7.82,7.82,0,0,1-.62,1c-.18.23-.37.46-.57.67l-.26.24-.06.05a7.34,7.34,0,0,1-2,1.23l-.49.18a2.8,2.8,0,0,1-.41.13,13.1,13.1,0,0,1-3.43.53h-.43c-.71,0-1.41,0-2.1,0h-.43l-1.34,0a14.74,14.74,0,0,0-1.5.09l-.42.05a8.12,8.12,0,0,0-1.79.47,6.07,6.07,0,0,0-.9.41l-.39.21-.34.22a10.78,10.78,0,0,0-1.47,1.17h0c-.11.1-.21.2-.31.31a14.49,14.49,0,0,0-1,1.09q-.39.5-.75,1a3.75,3.75,0,0,0-.24.36c-.05.07-.1.14-.14.21a22,22,0,0,0-1.27,2.34c-.07.13-.13.27-.19.4l-.36.8c-.26.6-.51,1.21-.77,1.82-.05.14-.11.27-.16.41-.41,1-.81,2-1.26,3l-.18.4c-.31.7-.64,1.4-1,2.08-.26.49-.53,1-.83,1.43-.08.13-.15.25-.24.37a.75.75,0,0,1-.07.12,20.07,20.07,0,0,1-1.39,1.8,17.57,17.57,0,0,1-1.29,1.3l-.33.28,0,0a13.77,13.77,0,0,1-1.92,1.35l-.31.17a3,3,0,0,1-.4.2l-.35.18a12,12,0,0,1-1.14.42,10.07,10.07,0,0,1-1.2.31c-.31,0-.61.09-.93.12l-.3,0h-.13a9.92,9.92,0,0,1-2.32-.19l-.59-.12c-.19,0-.37-.1-.56-.15l-.12,0c-.14,0-.28-.08-.41-.12l-.56-.19c-.84-.3-1.62-.64-2.38-1l-.4-.17-1.15-.48a15.86,15.86,0,0,0-1.75-.61l-.05,0-.45-.11a6.35,6.35,0,0,0-1.27-.21,2.88,2.88,0,0,0-.41,0h-.41a7.53,7.53,0,0,0-.83.1,2.66,2.66,0,0,0-.39.07l-.43.11h0a8.39,8.39,0,0,0-.79.29,8,8,0,0,0-.79.36c-.25.15-.51.29-.75.46a8.48,8.48,0,0,0-1,.73l-.33.28-.1.1a11.08,11.08,0,0,0-1.23,1.33,14.84,14.84,0,0,0-1,1.51c-.09.16-.18.32-.26.48l-.21.38-.39.82c-.26.58-.5,1.18-.72,1.79-.09.26-.18.52-.26.78s-.09.27-.13.41h0c-.45,1.46-.83,3-1.2,4.56,0,.14-.06.28-.1.43l-.39,1.67-.71,3-.09.41-1,4.05-.1.42h0l-.06.28-1.05,4.41-.1.42-.8,3.38-.1.42-.86,3.64-.1.42-.84,3.55-.4,1.71-.1.41-.46,1.94c-.3,1.26-.6,2.55-1,3.87,0,.1-.05.19-.08.29a.56.56,0,0,1,0,.12,27,27,0,0,1-1.55,4.16,19.75,19.75,0,0,1-1.16,2.1l0,0c-.08.13-.17.25-.26.38a16.64,16.64,0,0,1-1.23,1.57A13.67,13.67,0,0,1,273,300.6a12.2,12.2,0,0,1-2.17,1.4l-.21.1-.42.2a11.78,11.78,0,0,1-1.9.64,10.23,10.23,0,0,1-2.77.27,10.72,10.72,0,0,1-3.83-.88l-.4-.18q-.51-.25-1-.54c-.38-.22-.74-.48-1.09-.73s-.69-.54-1-.84-.62-.59-.92-.9l-.11-.13-.29-.34c-.14-.16-.28-.33-.41-.51-.27-.33-.5-.69-.74-1s-.45-.72-.64-1.1-.38-.75-.55-1.12-.32-.75-.45-1.13-.27-.77-.39-1.15l-.12-.41c-.07-.25-.13-.49-.19-.73-.19-.77-.34-1.53-.46-2.28-.19-1.19-.31-2.37-.4-3.52,0-.15,0-.29,0-.43l0-.45c-.05-.72-.09-1.42-.12-2.13l-.11-2.11c0-.32,0-.65,0-1,0-.15,0-.29,0-.43q-.1-2.64-.15-5.28c0-.14,0-.29,0-.43,0-1.39,0-2.78,0-4.17v-.43c0-1.62,0-3.25.08-4.87,0-.14,0-.28,0-.43,0-1.77.12-3.55.21-5.33l0-.43c.09-1.68.2-3.37.33-5.05l0-.43c.13-1.61.28-3.21.44-4.82,0-.14,0-.29.05-.43.15-1.56.33-3.12.53-4.67,0-.15,0-.29,0-.44.2-1.56.41-3.13.64-4.7,0-.14,0-.28.07-.43q.39-2.61.84-5.21c0-.14,0-.29.08-.43q.42-2.42.9-4.83c0-.14.05-.28.08-.42q1.26-6.3,2.88-12.54a3.77,3.77,0,0,1,7.3,1.91s0,0,0,.07v0q-1.71,5.91-3.06,11.93c0,.14-.07.28-.1.43-.35,1.57-.69,3.15-1,4.73l-.09.44c-.34,1.73-.67,3.46-1,5.2,0,.14-.06.29-.08.43-.25,1.47-.49,2.95-.72,4.43l-.06.43c-.25,1.66-.48,3.32-.69,5,0,.14,0,.28-.05.43-.17,1.37-.33,2.75-.47,4.13,0,.14,0,.29,0,.44-.19,1.79-.35,3.58-.49,5.38l0,.43c-.11,1.47-.21,2.93-.29,4.4h0c0,.15,0,.29,0,.44-.08,1.47-.14,2.94-.19,4.41,0,.15,0,.3,0,.45h0c0,1.19-.07,2.37-.08,3.57,0,.14,0,.3,0,.44,0,1.47,0,2.94,0,4.41h0v.46c0,.85,0,1.7,0,2.56l.06,2.06c0,.27,0,.54,0,.82s0,.3,0,.45,0,.52,0,.77c.06,1.35.14,2.66.31,3.9.06.42.12.83.2,1.23l.09.45h0a12.34,12.34,0,0,0,2,4.81,5.58,5.58,0,0,0,.37.48l.13.16.15.17a5,5,0,0,0,.4.4c.19.19.39.35.59.52s.41.31.62.44a6.23,6.23,0,0,0,.95.51l.36.13,0,0a5,5,0,0,0,1.3.26,4.9,4.9,0,0,0,1.37-.1,6.37,6.37,0,0,0,1.39-.48c.22-.1.43-.21.64-.33l.37-.25a4,4,0,0,0,.34-.23,9.78,9.78,0,0,0,1.23-1.1,12,12,0,0,0,1.05-1.31c.11-.16.21-.33.31-.49s.15-.25.22-.37.25-.44.37-.67a23.36,23.36,0,0,0,1.37-3.43l0-.08c0-.11.08-.23.11-.34.35-1.14.67-2.34,1-3.56l.4-1.52.11-.43.55-2.09.72-2.74.12-.44,1.1-4.2.12-.44.79-3,.11-.43,1.15-4.34.11-.44,0-.09,1.08-4.14.12-.44L283,257c.07-.28.15-.56.22-.84l.12-.45h0c.24-.91.48-1.83.74-2.77q.3-1.11.66-2.22l.15-.44c.16-.49.34-1,.53-1.48.26-.69.56-1.38.88-2.06.15-.3.3-.6.46-.89l.21-.39c.14-.24.28-.49.43-.73a17.52,17.52,0,0,1,1.37-1.9c.32-.38.65-.75,1-1.1l.34-.32c.1-.1.2-.18.3-.27a14.09,14.09,0,0,1,1.9-1.43c.34-.22.7-.4,1.05-.6l.48-.22.46-.2.18-.07a11.28,11.28,0,0,1,1.16-.39c.41-.09.81-.19,1.23-.24a10.37,10.37,0,0,1,1.25-.11h.63a3.55,3.55,0,0,1,.46,0l.16,0a11.9,11.9,0,0,1,2.36.49c.75.24,1.45.51,2.12.8l.63.28.41.19c.95.43,1.84.85,2.72,1.19l.15.06.42.15a8.35,8.35,0,0,0,2.88.51h.06l.43,0,.35,0a7.68,7.68,0,0,0,.83-.19c.28-.07.55-.19.82-.28l.17-.08.39-.19.24-.12a9.31,9.31,0,0,0,1.51-1,4.23,4.23,0,0,0,.41-.33l.34-.32.62-.62a15.81,15.81,0,0,0,1.2-1.48c.15-.22.31-.45.46-.69l.25-.39c.11-.19.22-.37.32-.56.44-.77.84-1.57,1.22-2.39.06-.13.12-.27.19-.41.44-1,.87-2,1.31-3,.07-.14.13-.28.19-.42.19-.42.37-.83.57-1.25s.39-.84.61-1.26c.06-.13.13-.26.2-.38a21.66,21.66,0,0,1,1.83-3l.26-.36a17.12,17.12,0,0,1,2.08-2.27h0l.33-.28a11.38,11.38,0,0,1,1.49-1.09c.27-.17.55-.33.83-.47l.39-.19a6.77,6.77,0,0,1,.88-.36c.18-.07.37-.12.56-.18s.37-.11.56-.15l.57-.12.57-.08.22,0,.43,0c.54,0,1.07-.06,1.58,0l1.35,0,.43,0c.79.05,1.55.09,2.3.09h.43a10.72,10.72,0,0,0,2.85-.41l.41-.14.12,0a5.28,5.28,0,0,0,1.51-.89,2,2,0,0,0,.21-.2,2.42,2.42,0,0,0,.31-.33,4.94,4.94,0,0,0,.54-.83q.25-.5.48-1.05c.06-.16.12-.31.17-.47h0c0-.09.07-.19.11-.28.23-.65.47-1.33.78-2a7.22,7.22,0,0,1,.62-1.11c.09-.13.18-.25.28-.37a3.82,3.82,0,0,1,.48-.51,3.91,3.91,0,0,1,2.18-1l.23,0h.2a6.11,6.11,0,0,1,2.16.45l.33.12.42.18c.42.17.81.36,1.2.52a8.78,8.78,0,0,0,1.33.46,3.58,3.58,0,0,0,.43.08h0a2.48,2.48,0,0,0,1.55-.29,3.06,3.06,0,0,0,.77-.68l.25-.36a2.39,2.39,0,0,0,.13-.21,7.85,7.85,0,0,0,.69-1.77c0-.18.09-.36.13-.54s.06-.31.1-.47a19.12,19.12,0,0,1,.6-2.43c.05-.14.1-.28.16-.42h0c0-.09.07-.18.11-.27a5.43,5.43,0,0,1,.59-1l.18-.24.2-.22a2.23,2.23,0,0,1,.27-.26l.21-.16a.71.71,0,0,1,.14-.1,3.7,3.7,0,0,1,2-.56h.19l.27,0h.43l.21,0a2.16,2.16,0,0,0,.55-.16c.09,0,.17-.08.26-.12l.12-.08a2.8,2.8,0,0,0,.57-.46,3,3,0,0,0,.28-.34c.05-.06.08-.13.13-.19l.13-.22c.14-.23.28-.45.43-.67l.27-.38c.3-.41.62-.8,1-1.18.09-.11.19-.21.29-.32.26-.26.53-.52.8-.76a.46.46,0,0,1,.66,0A.47.47,0,0,1,372.83,195.62Z"/><path class="cls-71" d="M263.5,227.32c0,.14-.07.28-.1.43a24.13,24.13,0,0,1-7.08-1.4c0-.14.05-.28.08-.42A23.92,23.92,0,0,0,263.5,227.32Z"/><path class="cls-71" d="M262.39,232.48l-.09.44a14.76,14.76,0,0,1-7-1.31c0-.14,0-.29.08-.43A14.55,14.55,0,0,0,262.39,232.48Z"/><path class="cls-71" d="M261.34,238.12c0,.14-.06.29-.08.43a19.22,19.22,0,0,1-6.83-1.3c0-.14,0-.28.07-.43A19.06,19.06,0,0,0,261.34,238.12Z"/><path class="cls-71" d="M260.54,243l-.06.43a25.18,25.18,0,0,1-6.74-1c0-.15,0-.29,0-.44A24.54,24.54,0,0,0,260.54,243Z"/><path class="cls-71" d="M259.79,248.4c0,.14,0,.28-.05.43a22.8,22.8,0,0,1-6.58-1.34c0-.14,0-.29.05-.43l.62.22A22.5,22.5,0,0,0,259.79,248.4Z"/><path class="cls-71" d="M259.27,253c0,.14,0,.29,0,.44a17.61,17.61,0,0,1-6.54-.66l0-.43A17.5,17.5,0,0,0,259.27,253Z"/><path class="cls-71" d="M258.74,258.78l0,.43a46,46,0,0,1-6.38-1l0-.43A46,46,0,0,0,258.74,258.78Z"/><path class="cls-71" d="M258.42,263.61c0,.15,0,.29,0,.44a19.87,19.87,0,0,1-6.3-.07c0-.14,0-.28,0-.43A19.59,19.59,0,0,0,258.42,263.61Z"/><path class="cls-71" d="M258.21,268.46c0,.15,0,.3,0,.45h0a16.51,16.51,0,0,1-6.18.36v-.43A16.15,16.15,0,0,0,258.21,268.46Z"/><path class="cls-71" d="M258.12,272.49c0,.14,0,.3,0,.44a30.35,30.35,0,0,1-6.06.95c0-.14,0-.29,0-.43A31.3,31.3,0,0,0,258.12,272.49Z"/><path class="cls-71" d="M258.1,277.8a41.93,41.93,0,0,1-5.88,1.79c0-.15,0-.29,0-.43a42.32,42.32,0,0,0,5.9-1.82Z"/><path class="cls-71" d="M258.24,283.69a46.07,46.07,0,0,1-5.68,2c0-.15,0-.29,0-.43a47,47,0,0,0,5.7-2C258.22,283.39,258.23,283.54,258.24,283.69Z"/><path class="cls-71" d="M258.87,290h0a25.2,25.2,0,0,1-5.14,2.57l-.12-.41a24.87,24.87,0,0,0,5.17-2.62Z"/><path class="cls-71" d="M261.52,295.67A16,16,0,0,1,257.2,299l-.29-.34a15.47,15.47,0,0,0,4.33-3.33l.13.16Z"/><path class="cls-71" d="M264.48,297.69a29,29,0,0,1-2.77,4.64l-.4-.18a29.19,29.19,0,0,0,2.77-4.61l.36.13Z"/><path class="cls-71" d="M270.63,302.1l-.42.2a18.05,18.05,0,0,0-1-5.26l.37-.25v0A18.64,18.64,0,0,1,270.63,302.1Z"/><path class="cls-71" d="M276.34,296.93c-.08.13-.17.25-.26.38a13.44,13.44,0,0,0-3.6-3.65c.08-.12.15-.25.22-.37l.52.37A14.25,14.25,0,0,1,276.34,296.93Z"/><path class="cls-71" d="M279.19,290.23c0,.1-.05.19-.08.29a.56.56,0,0,1,0,.12,13.74,13.74,0,0,0-4.63-1.45l0-.08c0-.11.08-.23.11-.34A13.93,13.93,0,0,1,279.19,290.23Z"/><path class="cls-71" d="M280.73,284l-.1.41a16.8,16.8,0,0,0-4.67-.73l.11-.43A16.75,16.75,0,0,1,280.73,284Z"/><path class="cls-71" d="M282.07,278.33l-.1.42a14.7,14.7,0,0,0-4.63-.32l.12-.44A14.9,14.9,0,0,1,282.07,278.33Z"/><path class="cls-71" d="M283,274.27l-.1.42a11.89,11.89,0,0,0-4.37-.9l.12-.44A12.5,12.5,0,0,1,283,274.27Z"/><path class="cls-71" d="M283.93,270.47l-.1.42a17.32,17.32,0,0,0-4.36-.56l.11-.43A17.72,17.72,0,0,1,283.93,270.47Z"/><path class="cls-71" d="M285.14,265.36l-.1.42a16.82,16.82,0,0,0-4.31-.22l.11-.44A17.21,17.21,0,0,1,285.14,265.36Z"/><path class="cls-71" d="M286.19,260.9l-.09.41a14.16,14.16,0,0,0-4.15-.42l.12-.44h.11A14.24,14.24,0,0,1,286.19,260.9Z"/><path class="cls-71" d="M287.39,255.83c0,.14-.06.28-.1.43a11,11,0,0,0-4.08-.14l.12-.45h0A11.79,11.79,0,0,1,287.39,255.83Z"/><path class="cls-71" d="M288.73,250.86c-.05.14-.09.27-.13.41h0a11.5,11.5,0,0,0-3.86-.6l.15-.44A12.62,12.62,0,0,1,288.73,250.86Z"/><path class="cls-71" d="M290.31,247.09l-.21.38a15.42,15.42,0,0,0-3.35-1.67l.21-.39A16.16,16.16,0,0,1,290.31,247.09Z"/><path class="cls-71" d="M293.26,243.39l-.33.28a11.85,11.85,0,0,0-3.17-2l.34-.32A11.84,11.84,0,0,1,293.26,243.39Z"/><path class="cls-71" d="M297,241.43l-.43.11h0a11,11,0,0,0-2.73-2.71l.46-.2c.2.14.39.29.58.44A11.89,11.89,0,0,1,297,241.43Z"/><path class="cls-71" d="M300.81,241.62l-.05,0-.45-.11a25.28,25.28,0,0,0-1.61-3.65h0a3.55,3.55,0,0,1,.46,0A24.34,24.34,0,0,1,300.81,241.62Z"/><path class="cls-71" d="M304.88,239.65a14.34,14.34,0,0,1-.77,3.23l-.4-.17a13.73,13.73,0,0,0,.76-3.25Z"/><path class="cls-71" d="M308.17,241.05a14.32,14.32,0,0,1-.71,3.11c-.14,0-.28-.08-.41-.12a14.12,14.12,0,0,0,.7-3.14Z"/><path class="cls-71" d="M311.48,244.64l-.3,0h-.13a20.06,20.06,0,0,0,.06-3.1l.43,0A20.17,20.17,0,0,1,311.48,244.64Z"/><path class="cls-71" d="M315.5,243.41a3,3,0,0,1-.4.2,7.92,7.92,0,0,1-1.39-2.67l.39-.19A7.48,7.48,0,0,0,315.5,243.41Z"/><path class="cls-71" d="M318.08,241.58l-.33.28a11.25,11.25,0,0,1-1.49-2.58l.34-.32A10.92,10.92,0,0,0,318.08,241.58Z"/><path class="cls-71" d="M321.07,238c-.08.13-.15.25-.24.37a9.72,9.72,0,0,1-1.95-2.19l.25-.39A9.29,9.29,0,0,0,321.07,238Z"/><path class="cls-71" d="M323.09,234.08l-.18.4a13.33,13.33,0,0,1-2.24-1.65c.06-.13.12-.27.19-.41A12.92,12.92,0,0,0,323.09,234.08Z"/><path class="cls-71" d="M324.51,230.64c-.05.14-.11.27-.16.41a10.78,10.78,0,0,1-2.18-1.63c.07-.14.13-.28.19-.42A10,10,0,0,0,324.51,230.64Z"/><path class="cls-71" d="M325.83,227.62c-.07.13-.13.27-.19.4l-2.1-1.53c.06-.13.13-.26.2-.38Z"/><path class="cls-71" d="M327.48,224.71a3.75,3.75,0,0,0-.24.36,18,18,0,0,1-1.67-1.92l.26-.36A19,19,0,0,0,327.48,224.71Z"/><path class="cls-71" d="M329.51,222.29c-.11.1-.21.2-.31.31l-1.28-2.08.33-.28Z"/><path class="cls-71" d="M331.72,220.68l-.39.21c-.25-.73-.5-1.47-.76-2.21l.39-.19C331.21,219.22,331.46,220,331.72,220.68Z"/><path class="cls-71" d="M334.83,219.75l-.42.05-.09-2.23.43,0Z"/><path class="cls-71" d="M338.11,217.56c0,.71,0,1.42,0,2.13h-.43c0-.71,0-1.43,0-2.14Z"/><path class="cls-71" d="M340.84,217.65c-.07.69-.13,1.38-.21,2.07h-.43l.21-2.08h.43Z"/><path class="cls-71" d="M344.47,219.06a2.8,2.8,0,0,1-.41.13,11.57,11.57,0,0,1-.37-1.95l.41-.14A12.57,12.57,0,0,0,344.47,219.06Z"/><path class="cls-71" d="M347.26,217.36l-.26.24-.06.05c-.36-.54-.69-1.1-1-1.68a2.42,2.42,0,0,0,.31-.33A17.57,17.57,0,0,0,347.26,217.36Z"/><path class="cls-71" d="M348.8,214.87h0l-.18.43c-.47-.5-.92-1-1.35-1.54.06-.16.12-.31.17-.47C347.87,213.84,348.32,214.36,348.8,214.87Z"/><path class="cls-71" d="M350.27,211a4.13,4.13,0,0,0-.22.42c-.39-.51-.75-1-1.1-1.58.09-.13.18-.25.28-.37C349.56,210,349.91,210.54,350.27,211Z"/><path class="cls-71" d="M352.57,209.65h-.44a13,13,0,0,1-.24-1.64l.23,0h.2A12.87,12.87,0,0,0,352.57,209.65Z"/><path class="cls-71" d="M355.23,208.75l-.12,1.66-.41-.17c0-.56.07-1.11.11-1.67Z"/><path class="cls-71" d="M358.22,211.31h-.15a2.85,2.85,0,0,1-.29,0c0-.51,0-1,0-1.54a3.58,3.58,0,0,0,.43.08A12.52,12.52,0,0,0,358.22,211.31Z"/><path class="cls-71" d="M361.8,209.51l-.26.34a9.54,9.54,0,0,1-1-1l.25-.36A10.9,10.9,0,0,0,361.8,209.51Z"/><path class="cls-71" d="M363,206.37h0c0,.14-.06.29-.1.44h0q-.6-.41-1.17-.87c0-.15.06-.31.1-.47A12.77,12.77,0,0,0,363,206.37Z"/><path class="cls-71" d="M363.64,203.43c0,.14-.08.29-.13.44l-1.07-.81c.05-.14.1-.28.16-.42Z"/><path class="cls-71" d="M364.88,201.42l0,0a1.32,1.32,0,0,0-.3.28h0l-.6-1.08.21-.16a.71.71,0,0,1,.14-.1Z"/><path class="cls-71" d="M367.14,201h-.46c-.13-.38-.25-.77-.37-1.15h.19l.27,0C366.88,200.22,367,200.6,367.14,201Z"/><path class="cls-71" d="M368.74,200.48a2.35,2.35,0,0,1-.39.19l-.39-1c.09,0,.17-.08.26-.12l.12-.08C368.48,199.8,368.61,200.14,368.74,200.48Z"/><path class="cls-71" d="M370.73,198.13c-.09.14-.18.27-.26.41l-.59-1,.27-.38C370.35,197.5,370.54,197.82,370.73,198.13Z"/><path class="cls-71" d="M372,196.43a3,3,0,0,0-.28.33c-.2-.26-.42-.51-.64-.75.09-.11.19-.21.29-.32A7.26,7.26,0,0,1,372,196.43Z"/><path class="cls-72" d="M168.16,119.85l-7.28,8.1-6.64-5.59a31.72,31.72,0,0,0-4.16-3.14,16.28,16.28,0,0,0-5.25-2l-.36-.06-.46-.08a3.62,3.62,0,0,1-1.62-.57c-.76-.55-1-1.91.18-2.25a1.78,1.78,0,0,1,1,0l.69.2.73.22,5.09,1.48-4.5-3.82-.29-.24c-.25-.21-.5-.43-.74-.66a3.57,3.57,0,0,1-1-1.6c-.24-.95.38-2.16,1.35-2.13a1.05,1.05,0,0,1-.61-1.61,1.71,1.71,0,0,1,1.87-.54,5,5,0,0,1,1.76,1.07l0,0,1.09.89,4.61,3.77a50.64,50.64,0,0,0-3.87-4.81,1.54,1.54,0,0,0-.17-.19c-.25-.3-.54-.59-.83-.88s-.5-.52-.72-.78a1.75,1.75,0,0,1,.13-2.63,1.8,1.8,0,0,1,1.24-.23,3.12,3.12,0,0,1,1.44.69,9.26,9.26,0,0,1,.86.79l0,0,10.13,10.13a1,1,0,0,0,.13-.66c-.17-1.25-.29-2.51-.35-3.77,0-.33,0-.67,0-1,0-.67,0-1.35,0-2a2.88,2.88,0,0,1,.33-1.53,1.15,1.15,0,0,1,.54-.46c.7-.28,1.33.28,1.73.85a8.87,8.87,0,0,1,1.16,2.47c.1.29.18.59.26.88q.21.84.39,1.68Z"/><path class="cls-59" d="M144.83,117.21l-.36-.06-.46-.08a6.91,6.91,0,0,1,.22-2.6l.73.22A4.6,4.6,0,0,0,144.83,117.21Z"/><path class="cls-59" d="M147.9,106.68l1.09.89a2,2,0,0,0-1,1,9.6,9.6,0,0,1-.81,1.56,10.07,10.07,0,0,1-.79.81,3.59,3.59,0,0,0-.81,1.45l-.29-.24c-.25-.21-.5-.43-.74-.66a4.43,4.43,0,0,1,.13-.49,2.62,2.62,0,0,1,1.72-1.78A3.44,3.44,0,0,1,147.9,106.68Z"/><path class="cls-59" d="M151.68,103.3a6.63,6.63,0,0,0-2.12,3c-.25-.3-.54-.59-.83-.88a8.08,8.08,0,0,1,2.09-2.95A9.26,9.26,0,0,1,151.68,103.3Z"/><path class="cls-59" d="M165.61,108.21a8.47,8.47,0,0,0-1.74.09,7.71,7.71,0,0,0-2.25.73c0-.33,0-.67,0-1,.38-.16.75-.28,1-.35a7.76,7.76,0,0,1,2.79-.34C165.45,107.62,165.53,107.92,165.61,108.21Z"/><path class="cls-59" d="M244.56,130.91c-.83,2.74-3.08,4.79-5.37,6.52-11.77,8.87-26.91,12.67-41.66,11.67a69.19,69.19,0,0,1-7.33-.9l-.31-.06c-10.67-2-21-6.8-27.86-15a33.19,33.19,0,0,1-2.84-3.87,34.5,34.5,0,0,1,9.32-11.78c1.16.84,2.35,1.64,3.56,2.4A68.74,68.74,0,0,0,200,130a64.12,64.12,0,0,0,19.45-.45,134.63,134.63,0,0,0,16.11-4.28l5.75-1.78C244.05,124.29,245.39,128.17,244.56,130.91Z"/><path class="cls-73" d="M197.53,149.1a69.19,69.19,0,0,1-7.33-.9l-.31-.06a88.14,88.14,0,0,1,2.8-19.49A69.92,69.92,0,0,0,200,130,53.73,53.73,0,0,0,197.53,149.1Z"/><path class="cls-73" d="M172.07,119.92a44.63,44.63,0,0,0-9.47,12.13c-.2.37-.39.74-.57,1.12a33.19,33.19,0,0,1-2.84-3.87,34.5,34.5,0,0,1,9.32-11.78C169.67,118.36,170.86,119.16,172.07,119.92Z"/><path class="cls-72" d="M257.7,278.34c-.11,2.76-19.41,42.15-19.41,42.15a6.59,6.59,0,0,1-2.34-1,5.8,5.8,0,0,1-1.9-2.11c-1.38-2.64,1.83-31.13,1.83-31.13l-7.23-3.56,7.81-15.81s13.17,5.36,18.77,9C256.76,276.88,257.73,277.75,257.7,278.34Z"/><path class="cls-59" d="M257.7,278.34c-.11,2.76-19.41,42.15-19.41,42.15a6.59,6.59,0,0,1-2.34-1l13.37-29.79s-10.11-4.37-8.15-9.3,11.48.92,11.48.92l2.58-5.44C256.76,276.88,257.73,277.75,257.7,278.34Z"/><path class="cls-59" d="M237.29,268.27l-7.61,14.92a1.72,1.72,0,0,1-2.24.78l-2.3-1c-5.59-2.5-17.31-7.69-34.8-15.13-14-5.94-26.38-13.72-33.07-22.61a25.29,25.29,0,0,1-4.88-10.39,19.63,19.63,0,0,1,2.2-13.15c9.84-18.54,52.79-38.36,52.79-38.36,11.47-5.81,21.72,4.28,28.18,10.69l.37.38c6.44,6.38-6.13,7-30.07,18.77-11.91,5.83-17.68,10.46-20,14.18-2.08,3.35-1.36,6,.21,8.07a14.69,14.69,0,0,0,1.81,2c4.18,3.83,40.15,23.57,48.57,28.17A2,2,0,0,1,237.29,268.27Z"/><path class="cls-73" d="M186.07,235.39a51.32,51.32,0,0,0-28.8,9.81,25.29,25.29,0,0,1-4.88-10.39,72.54,72.54,0,0,1,33.47-7.49C183.78,230.67,184.5,233.29,186.07,235.39Z"/><g class="cls-74"><path class="cls-75" d="M237.29,268.27l-7.61,14.92a1.72,1.72,0,0,1-2.24.78l-2.3-1c1.34-3.35,3.18-6.54,3.91-8.19s1.49-3.51,1.07-5.3c-.53-2.28-2.74-3.7-4.78-4.87l-29.81-17.2c-3.74-2.16-7.52-4.36-10.55-7.44s-5.24-7.21-5.07-11.52,2.84-8.49,6.26-11.34,7.55-4.67,11.62-6.46L235.56,194l.37.38c6.44,6.38-6.13,7-30.07,18.77-11.91,5.83-17.68,10.46-20,14.18-2.08,3.35-1.36,6,.21,8.07a14.69,14.69,0,0,0,1.81,2c4.18,3.83,40.15,23.57,48.57,28.17A2,2,0,0,1,237.29,268.27Z"/></g><path class="cls-72" d="M181.78,351.39l-36.88,20a10.14,10.14,0,0,1-3-2.4,5.34,5.34,0,0,1-1.2-4.93c1.23-4.67,19.81-23.34,19.81-23.34a77.63,77.63,0,0,1,.47-12.1l19.15,1.91L181.43,347Z"/><path class="cls-59" d="M181.78,351.39l-36.88,20a10.14,10.14,0,0,1-3-2.4l27.37-14.64s-3.82-10.84,1.36-14.85,7,9.56,7,9.56l3.77-2.1Z"/><path class="cls-59" d="M267.83,201s-23.62,18.91-42.63,35.27c-5.26,4.52-10.79,11.72-16.09,20.36-2,3.24-3.93,6.67-5.82,10.25-10.87,20.57-19.74,45.66-21.35,62.81a2.11,2.11,0,0,1-2.28,1.92l-17.95-1.42a2.14,2.14,0,0,1-2-2.37c.17-1.49.43-3.72.81-6.52,1.85-13.68,6.46-41.2,16-66.08,1.76-4.57,3.69-9.06,5.8-13.36,1.75-3.56,3.63-7,5.64-10.23C210.92,194.79,223,186.31,223,186.31s14.19,15.33,33.23,16.12A36,36,0,0,0,267.83,201Z"/><path class="cls-73" d="M209.11,256.64c-2,3.24-3.93,6.67-5.82,10.25a54.67,54.67,0,0,0-26.68-11.66c1.76-4.57,3.69-9.06,5.8-13.36a23.39,23.39,0,0,1,8,2.12A62.05,62.05,0,0,1,209.11,256.64Z"/><g class="cls-76"><path class="cls-77" d="M267.83,201s-23.62,18.91-42.63,35.27c-5.26,4.52-10.79,11.72-16.09,20.36-2,3.24-3.93,6.67-5.82,10.25-10.87,20.57-19.74,45.66-21.35,62.81a2.11,2.11,0,0,1-2.28,1.92l-17.95-1.42a2.14,2.14,0,0,1-2-2.37c.17-1.49.43-3.72.81-6.52,5.13,1.74,10.86,3.49,15.66-.09,3.69-2.76,4.92-7.64,6.08-12.1A181.6,181.6,0,0,1,222.52,234c10.27-11.49,21.95-21.61,33.7-31.58A36,36,0,0,0,267.83,201Z"/></g><path class="cls-72" d="M297.33,175a81.92,81.92,0,0,1-6.75,15.84,153.29,153.29,0,0,1-11.51,18c-7.2,9.69-14.28,16.87-17.13,17.25-5.82.78-38.78-15.28-42.66-23.47-2-4.26,7-13,16.36-23.5A125.1,125.1,0,0,0,248,163.21c3.35-5.31,5.76-10.76,6.24-16.1,2-22.66,17.4-27.82,45.91-1.38C300.18,145.73,303.32,154,297.33,175Z"/><path class="cls-78" d="M266.54,130.92s19.63,19.32,24,19.45,9.86-2.78,9.59-4.65-15-13.44-21.25-16.75S262.63,127.17,266.54,130.92Z"/><path class="cls-79" d="M290.58,190.82a153.29,153.29,0,0,1-11.51,18,235.29,235.29,0,0,1-43.43-29.72A125.1,125.1,0,0,0,248,163.21q2.53,2.39,5.19,4.65a142.85,142.85,0,0,0,28.23,18.76q4.26,2.15,8.66,4Z"/><circle class="cls-78" cx="266.39" cy="210.66" r="4.7" transform="translate(0.16 421.52) rotate(-76.72)"/><path class="cls-59" d="M278.93,179.44a65.62,65.62,0,0,1-6.8,11.45c-3.77,5.07-8.18,9.18-12.93,11.35-6,2.76-13.08,2.35-20.13.31-12.75-3.68-25.43-12.69-31.69-18-9.72-8.24,12.52-48.89,24-57.73a17.87,17.87,0,0,1,8.7-3.46C250.41,122,261.43,128,261.43,128a69.66,69.66,0,0,1,12,8,48,48,0,0,1,5.39,5.21,27.17,27.17,0,0,1,5.28,8.56C286.46,156.37,284.13,168.4,278.93,179.44Z"/><path class="cls-73" d="M278.93,179.44a65.62,65.62,0,0,1-6.8,11.45c-2.1-.43-4.19-1-6.24-1.6a56.14,56.14,0,0,1-18.74-9.57,77.65,77.65,0,0,0-8.08,22.83c-12.75-3.68-25.43-12.69-31.69-18-9.72-8.24,12.52-48.89,24-57.73a17.87,17.87,0,0,1,8.7-3.46,78.47,78.47,0,0,0-14.62,23.5c6.87,3.77,13.93,7.59,20.85,11.26l.08,0a134.32,134.32,0,0,1,27-22.22,48,48,0,0,1,5.39,5.21,90.52,90.52,0,0,0-25.88,25.74c5.75,4.79,12.88,7.54,19.87,10.21Z"/><path class="cls-80" d="M212.24,160s2.71,4.24,4.16,5,20.68,10.92,22.93,10.83,12.73-16.16,13-17.71-1.15-3.58-1.15-3.58Z"/><path class="cls-70" d="M215.61,187c-.17.24-.34.47-.52.7l-.26.34h0a29.19,29.19,0,0,1-2.82,3.15c-.1.11-.2.21-.31.31a29.09,29.09,0,0,1-2.24,1.92l-.34.26q-.94.7-2,1.35c-.55.34-1.12.67-1.69,1l-.37.19a30.32,30.32,0,0,1-3.18,1.44l-.41.15a27.37,27.37,0,0,1-3.63,1.06l-.19,0-.42.09a26.65,26.65,0,0,1-3.88.56l-.44,0a10.67,10.67,0,0,1-5.64-1.13l-.18-.1-.19-.13a6.54,6.54,0,0,1-2.6-3.14c0-.14-.1-.28-.14-.42a6.32,6.32,0,0,1,.41-4.7,4.36,4.36,0,0,1,.23-.42,6.79,6.79,0,0,1,1-1.28,7.68,7.68,0,0,1,1.17-1l.39-.25a9.43,9.43,0,0,1,4.85-1.18h.46a22.72,22.72,0,0,1,3.51.4l.48.09.63.13a2.29,2.29,0,0,1,1.48,1.11c-1.49.77-2.87,1.52-4,2.14l-.53.3c-.69.39-1.25.7-1.61.92a5,5,0,0,0-.67,0l-.43,0a4.91,4.91,0,0,0-.76.17l-.29.1-.39.19a3.23,3.23,0,0,0-.55.4,2.15,2.15,0,0,0-.29.32,1.12,1.12,0,0,0-.24.92h0a1,1,0,0,0,.23.42,2.73,2.73,0,0,0,.48.36,2.92,2.92,0,0,0,.86.34,3.71,3.71,0,0,0,.58.11l.25,0a12.07,12.07,0,0,0,2.25,0,4.6,4.6,0,0,0,.52-.06c.62-.07,1.23-.18,1.82-.3l.68-.15.45-.1a25.39,25.39,0,0,0,2.81-.88l.42-.17a23.5,23.5,0,0,0,2.74-1.28l.37-.2a23.11,23.11,0,0,0,2.69-1.77l.36-.26c.59-.47,1.16-.95,1.7-1.47l.32-.31a22.16,22.16,0,0,0,2.38-2.74,2.48,2.48,0,0,0,.19-.26l.07-.08a2.58,2.58,0,0,1,4.4,2.69Z"/><path class="cls-71" d="M196.67,186.34a9.76,9.76,0,0,0-1.87,3.38l-.53.3a9.92,9.92,0,0,1,1.92-3.77Z"/><path class="cls-71" d="M192,191l-.43,0a10.65,10.65,0,0,1,.66-5.15h.46A10.2,10.2,0,0,0,192,191Z"/><path class="cls-71" d="M190.51,191.26l-.39.19a10.71,10.71,0,0,0-3.14-4.18l.39-.25A11.52,11.52,0,0,1,190.51,191.26Z"/><path class="cls-71" d="M189.27,193.52a8.12,8.12,0,0,0-4.92,1.56c0-.14-.1-.28-.14-.42a8.56,8.56,0,0,1,4.83-1.57h0A1,1,0,0,0,189.27,193.52Z"/><path class="cls-71" d="M189.57,191.85a2.15,2.15,0,0,0-.29.32,7.08,7.08,0,0,0-4.66-2.21,4.36,4.36,0,0,1,.23-.42A7.56,7.56,0,0,1,189.57,191.85Z"/><path class="cls-71" d="M191.19,194.33a14.08,14.08,0,0,0-3.87,4.12l-.18-.1-.19-.13a14.4,14.4,0,0,1,3.66-4A3.71,3.71,0,0,0,191.19,194.33Z"/><path class="cls-71" d="M193.4,199.55l-.44,0a7.17,7.17,0,0,1,.73-5.24,4.6,4.6,0,0,0,.52-.06A6.71,6.71,0,0,0,193.4,199.55Z"/><path class="cls-71" d="M197.7,198.9l-.42.09a11.73,11.73,0,0,1-.57-5.16l.45-.1A11.2,11.2,0,0,0,197.7,198.9Z"/><path class="cls-71" d="M201.93,197.65l-.41.15a12.36,12.36,0,0,1-1.55-5l.42-.17A11.93,11.93,0,0,0,201.93,197.65Z"/><path class="cls-71" d="M205.48,196l-.37.19a32.82,32.82,0,0,1-2-4.81l.37-.2A29.93,29.93,0,0,0,205.48,196Z"/><path class="cls-71" d="M209.46,193.42l-.34.26a13.58,13.58,0,0,1-2.93-4.25l.36-.26A13.19,13.19,0,0,0,209.46,193.42Z"/><path class="cls-71" d="M212,191.19c-.1.11-.2.21-.31.31a9.93,9.93,0,0,1-3.45-3.8l.32-.31A9.55,9.55,0,0,0,212,191.19Z"/><path class="cls-71" d="M215.09,187.7l-.26.34L211,184.65a2.48,2.48,0,0,0,.19-.26l.07-.08Z"/><path class="cls-70" d="M268.62,211.79l-.9,1.55-.22.39c-.79,1.34-1.6,2.67-2.46,4-.08.12-.17.24-.25.37a37.71,37.71,0,0,1-3.1,4l-.29.32c-.39.43-.8.85-1.23,1.25a23.18,23.18,0,0,1-2.32,2l-.36.26a20.69,20.69,0,0,1-4.21,2.35l-.43.17a17,17,0,0,1-3.58,1,16.13,16.13,0,0,1-2.18.17h-.47a15.39,15.39,0,0,1-6.23-1.47l-.42-.2a16.59,16.59,0,0,1-2.7-1.68,22.22,22.22,0,0,1-2-1.8l-.31-.32a21.65,21.65,0,0,1-3.26-4.51l-.21-.4a28.65,28.65,0,0,1-1.67-3.89c-.05-.13-.1-.27-.14-.41-.42-1.23-.76-2.49-1.06-3.77,0-.14-.07-.28-.1-.42-.26-1.14-.48-2.29-.67-3.45,0-.14-.05-.28-.07-.42-.18-1.07-.33-2.13-.48-3.19l-.06-.43c-.06-.43-.11-.87-.17-1.3-.18-1.39,1.33-2.58,2.58-2.58a2.67,2.67,0,0,1,2.59,2.58c0,.27.07.54.1.81l.06.43c.12.9.25,1.81.39,2.71,0,.15,0,.29.07.43.16,1,.34,2,.55,3l.09.42a35.83,35.83,0,0,0,1.09,3.84l.15.4c.12.32.24.64.37.95a20.17,20.17,0,0,0,1.26,2.5c.07.12.15.24.22.37a17.34,17.34,0,0,0,2.72,3.34l.32.29a12.3,12.3,0,0,0,3.68,2.32l.4.15a10.11,10.11,0,0,0,4.05.55l.43,0a10.82,10.82,0,0,0,1.8-.36,14.23,14.23,0,0,0,2.18-.83l.39-.19a15.37,15.37,0,0,0,2.41-1.53l.34-.26a19.88,19.88,0,0,0,2-1.87l.32-.34a32.63,32.63,0,0,0,2.83-3.63l.25-.37c.94-1.41,1.81-2.87,2.64-4.31.07-.12.14-.25.22-.37l.6-1.06C265.81,206.29,270.28,208.9,268.62,211.79Z"/><path class="cls-71" d="M232.36,203.1a19.89,19.89,0,0,1-5.1.49l-.06-.43a19.8,19.8,0,0,0,5.1-.49Z"/><path class="cls-71" d="M232.82,206.24a18.67,18.67,0,0,1-5,1c0-.14-.05-.28-.07-.42a18.3,18.3,0,0,0,5-1C232.77,206,232.79,206.1,232.82,206.24Z"/><path class="cls-71" d="M233.46,209.63a35.94,35.94,0,0,1-4.88,1.44c0-.14-.07-.28-.1-.42a36.08,36.08,0,0,0,4.89-1.44Z"/><path class="cls-71" d="M234.7,213.87a22.08,22.08,0,0,1-4.92,1.38c-.05-.13-.1-.27-.14-.41a22.67,22.67,0,0,0,4.91-1.37Z"/><path class="cls-71" d="M236.55,217.69a19.26,19.26,0,0,1-4.89,1.85l-.21-.4a18.89,18.89,0,0,0,4.88-1.82C236.4,217.44,236.48,217.56,236.55,217.69Z"/><path class="cls-71" d="M239.59,221.32a16.78,16.78,0,0,1-4.36,3.05l-.31-.32a16.55,16.55,0,0,0,4.35-3Z"/><path class="cls-71" d="M243.67,223.79a20,20,0,0,1-3.28,4.26l-.42-.2a19.72,19.72,0,0,0,3.3-4.21Z"/><path class="cls-71" d="M248.15,224.3a14.66,14.66,0,0,1-1.06,5.23h-.47a14.18,14.18,0,0,0,1.1-5.18Z"/><path class="cls-71" d="M253.28,228.24l-.43.17a14.91,14.91,0,0,0-.72-5.3l.39-.19A15.48,15.48,0,0,1,253.28,228.24Z"/><path class="cls-71" d="M257.85,225.63l-.36.26a16.47,16.47,0,0,0-2.56-4.5l.34-.26A16.14,16.14,0,0,1,257.85,225.63Z"/><path class="cls-71" d="M261.69,222.09l-.29.32a11.45,11.45,0,0,0-4.11-3.15l.32-.34A12.19,12.19,0,0,1,261.69,222.09Z"/><path class="cls-71" d="M265,217.7c-.08.12-.17.24-.25.37a9.76,9.76,0,0,0-4.35-2.78l.25-.37A10.14,10.14,0,0,1,265,217.7Z"/><path class="cls-71" d="M267.72,213.34l-.22.39a10.53,10.53,0,0,0-4.17-3.12c.07-.12.14-.25.22-.37A10.85,10.85,0,0,1,267.72,213.34Z"/><polygon class="cls-81" points="223.64 170.95 178.02 164.21 161.19 172.17 204.73 178.4 223.64 170.95"/><path class="cls-82" d="M203.81,177.34l-41.54-5.85a1.87,1.87,0,0,1-1.6-1.65l-3.44-31.4a1.86,1.86,0,0,1,2.12-2.06l41.55,5.85a1.86,1.86,0,0,1,1.6,1.65l3.44,31.4A1.87,1.87,0,0,1,203.81,177.34Z"/><path class="cls-83" d="M202.74,178l-41.55-5.85a1.87,1.87,0,0,1-1.6-1.65l-3.44-31.41a1.88,1.88,0,0,1,2.13-2.06l41.54,5.85a1.87,1.87,0,0,1,1.6,1.65L204.86,176A1.87,1.87,0,0,1,202.74,178Z"/><path class="cls-22" d="M173.58,155.31a6.83,6.83,0,0,1,.45-5,4.71,4.71,0,0,1,4.76-2.26,4.59,4.59,0,0,1,3.07,2.34,8.38,8.38,0,0,1,.85,3.6,13,13,0,0,1-.58,5c-.4,1.13-1.84,4.21-3.65,3.83-.92-.19-1.67-1.33-2.18-2a14.26,14.26,0,0,1-1.59-2.45A13.2,13.2,0,0,1,173.58,155.31Z"/><path class="cls-84" d="M178.54,153.87c-.12.3-.2.68,0,.9a.7.7,0,0,0,.6.11,2.11,2.11,0,0,0,1.32-.88,4.34,4.34,0,0,0,.68-1.46,1.8,1.8,0,0,0,.1-.72c-.13-.88-.9-.48-1.27-.08A7,7,0,0,0,178.54,153.87Z"/><path class="cls-84" d="M176.12,154.39c0,.32,0,.71-.27.86a.7.7,0,0,1-.61-.06,2.2,2.2,0,0,1-1-1.21,4.82,4.82,0,0,1-.25-1.6,1.71,1.71,0,0,1,.11-.71c.37-.81,1-.21,1.25.27A6.86,6.86,0,0,1,176.12,154.39Z"/><path class="cls-70" d="M182.23,151.22a30,30,0,0,1,5.26-2.09,10.91,10.91,0,0,1,1.4-.31,6.15,6.15,0,0,1,.74-.06,2.48,2.48,0,0,1,.8.08,1.31,1.31,0,0,1,.44.2,1,1,0,0,1,.33.47,1.26,1.26,0,0,1,0,.27c0,.09,0,.18,0,.25a2.41,2.41,0,0,1-.14.43,5.51,5.51,0,0,1-.88,1.24,17,17,0,0,1-2.14,1.94c-.76.59-1.53,1.13-2.32,1.66a56,56,0,0,1-4.9,2.87c-1.68.87-3.4,1.67-5.16,2.37-.89.35-1.78.67-2.69,1a18.62,18.62,0,0,1-2.79.68,7.32,7.32,0,0,1-1.49.11,2.43,2.43,0,0,1-.81-.16,1.06,1.06,0,0,1-.43-.29,1,1,0,0,1-.23-.52,1.48,1.48,0,0,1,.24-.86,3.71,3.71,0,0,1,.44-.63,9,9,0,0,1,1-1,28.18,28.18,0,0,1,4.71-3.14,37.27,37.27,0,0,0-4.36,3.52,9.52,9.52,0,0,0-.9,1,3,3,0,0,0-.35.55c0,.09-.07.18-.1.26a.86.86,0,0,0,0,.21.29.29,0,0,0,.06.11,1.22,1.22,0,0,0,.17.09,1.93,1.93,0,0,0,.57.07,7.52,7.52,0,0,0,1.31-.15,31.3,31.3,0,0,0,5.24-1.75q2.58-1.08,5.05-2.38t4.85-2.77c.78-.5,1.55-1,2.3-1.56a20,20,0,0,0,2.1-1.76,4.55,4.55,0,0,0,.79-1,.68.68,0,0,0,.1-.41s0-.06-.06-.1a.56.56,0,0,0-.19-.1,1.89,1.89,0,0,0-.6-.09,4.85,4.85,0,0,0-.66,0,12.4,12.4,0,0,0-1.36.21A39.81,39.81,0,0,0,182.23,151.22Z"/><polygon class="cls-82" points="161.19 172.17 161.19 173.58 204.88 179.93 223.64 172.17 223.64 170.95 204.73 178.4 161.19 172.17"/><path class="cls-59" d="M280.8,184a46.19,46.19,0,0,1-14.67,18.3,40.32,40.32,0,0,1-29.54,7.23,41.28,41.28,0,0,1-18.05-7.3,36.56,36.56,0,0,1-5.18-4.53,77.61,77.61,0,0,1,5.87-16.94l.1-.33a.33.33,0,0,1,.47-.21c2.15,1.05,4.34,2.09,6.57,3.05,6,2.55,12.16,4.44,18.53,3.85l.61-.07a25.32,25.32,0,0,0,21.14-19.13c.74-3.34.77-6.8,1.27-10.19s1.55-6.84,3.93-9.3,6.37-3.6,9.35-1.91c3.27,1.86,4.14,6.13,4.35,9.88A58.88,58.88,0,0,1,280.8,184Z"/><path class="cls-72" d="M219.16,182.08c-.2.62-.4,1.24-.59,1.86-1.08,3.49-2.09,6.95-3.17,10.43-.28.93-.57,1.87-.87,2.8L203,189.57l-.83-.55-1.28-.84c-.64-.42-1.35-1-1.31-1.74a2.89,2.89,0,0,1-.46-2.58,2.72,2.72,0,0,1-1.8-1.28,2.67,2.67,0,0,1-.1-2.18,5.75,5.75,0,0,1-1.53-1.66,1.76,1.76,0,0,1,.28-2,2.41,2.41,0,0,1,1.71-.41,21.5,21.5,0,0,1,3.39.41l1,.2c1.3.29,2.6.65,3.89,1l4.59,1.29a32.48,32.48,0,0,1-1.59-4.24c-.1-.35-.21-.69-.31-1-.15-.57-.3-1.13-.43-1.69a4.13,4.13,0,0,1-.17-1.44,1.56,1.56,0,0,1,.69-1.22,1.7,1.7,0,0,1,2.11.7,7,7,0,0,1,.78,2.3l.06.23a8.94,8.94,0,0,0,.32,1,11.66,11.66,0,0,0,6.23,6.57c.43.19.93.4,1.05.85A1.52,1.52,0,0,1,219.16,182.08Z"/><path class="cls-59" d="M218.57,183.94c-1.08,3.49-2.09,6.95-3.17,10.43-.73-.25-1.47-.51-2.19-.79q-2.27-.86-4.44-1.91a2.33,2.33,0,0,1-1-.73,2.29,2.29,0,0,1-.26-1.19,23.68,23.68,0,0,1,.88-6.9,2,2,0,0,1,.81-1.29,1.87,1.87,0,0,1,1-.12A20.06,20.06,0,0,1,218.57,183.94Z"/><path class="cls-59" d="M212,173.82a8.15,8.15,0,0,0-3.05,1.16c-.1-.35-.21-.69-.31-1a9.13,9.13,0,0,1,3-1.12A8.94,8.94,0,0,0,212,173.82Z"/><path class="cls-59" d="M203,189.57l-.83-.55a4,4,0,0,1,0-1.43,3.06,3.06,0,0,1-.67-3.22,2.56,2.56,0,0,1-.91-1.56,2.63,2.63,0,0,1,.35-1.8,3.85,3.85,0,0,1-.53-2.86,3.7,3.7,0,0,1,.64-1.43l1,.2a3.7,3.7,0,0,0-.32,4.23,2.4,2.4,0,0,0-.1,1.63,7.43,7.43,0,0,0,.65,1.57,3.52,3.52,0,0,0,.69,3.52A3.49,3.49,0,0,0,203,189.57Z"/><path class="cls-73" d="M226.37,183.28c-.21.51-.46,1-.71,1.48-1.3,2.49-2.5,5-3.59,7.63q-1.44,3.44-2.62,7c-.32.95-.62,1.91-.91,2.87a36.56,36.56,0,0,1-5.18-4.53,77.61,77.61,0,0,1,5.87-16.94l.1-.33a.33.33,0,0,1,.47-.21C222,181.28,224.14,182.32,226.37,183.28Z"/><path class="cls-70" d="M272.8,161.57c.12-3,1.36-6.29,4.63-6.91a4.25,4.25,0,0,1,4.06,1.42c2.92,3.74-.81,13.53-6.3,10.86-1.83-.89-2.36-2.86-2.39-4.73C272.79,162,272.8,161.78,272.8,161.57Z"/><path class="cls-73" d="M266.13,202.31a39.7,39.7,0,0,1-16.1,6.95,32.2,32.2,0,0,0-4.52-22.2,24.59,24.59,0,0,0,12.8-5.68,11.64,11.64,0,0,1,.89,1.35,55.32,55.32,0,0,1,6.1,14.72A25.21,25.21,0,0,1,266.13,202.31Z"/><path class="cls-72" d="M213.45,161.17a2.75,2.75,0,0,1-1.31-3.58c2-4.48,6.25-13.7,9-15.2,3.69-2,28.5,10.84,30,12.19s-10.76,17.79-12,18.24C238.22,173.19,220,164.39,213.45,161.17Z"/><path class="cls-59" d="M240.8,153.43l-1.48,2.8c-6.19-2.64-13.18-5.36-16.49-6.64l-1.94-.74,1.65-2.52c.34.16,1,.44,1.83.78C229.21,149.09,240.8,153.43,240.8,153.43Z"/><path class="cls-80" d="M240.8,153.43l-1.48,2.8c-6.19-2.64-13.18-5.36-16.49-6.64l1.54-2.48C229.21,149.09,240.8,153.43,240.8,153.43Z"/><polygon class="cls-59" points="232.89 159.32 231.05 162.45 220.12 157.54 218.33 156.73 220.23 153.5 222.04 154.33 232.89 159.32"/><polygon class="cls-80" points="232.89 159.32 231.05 162.45 220.12 157.54 222.04 154.33 232.89 159.32"/><path class="cls-59" d="M238,164.92a4.94,4.94,0,0,1-2.73,2.57,1.33,1.33,0,0,1-1-.09c-1-.54-1-2.53,0-4.44s2.66-3,3.68-2.48a1.25,1.25,0,0,1,.6.74A4.92,4.92,0,0,1,238,164.92Z"/><path class="cls-80" d="M238,164.92a4.94,4.94,0,0,1-2.73,2.57,5.85,5.85,0,0,1,3.34-6.27A4.92,4.92,0,0,1,238,164.92Z"/><path class="cls-70" d="M288,121.45c0,11-11.37,19.93-25.4,19.93a31.89,31.89,0,0,1-5.31-.44,27.57,27.57,0,0,1-13.6-6.19,17.7,17.7,0,0,1-6.48-13.3,16.18,16.18,0,0,1,1.54-6.84s0-.07.05-.1c2.26,2.55,5.49,4.38,8.56,6,1.69.9,3.4,1.81,5.14,2.63a32.9,32.9,0,0,0,7.35,2.57l.1,0a28.32,28.32,0,0,0,13.31-.75,46.2,46.2,0,0,0,12.21-5.79q1.06-.69,2.1-1.41a16.25,16.25,0,0,1,.37,2.32C287.93,120.56,288,121,288,121.45Z"/><path class="cls-72" d="M289.05,116.69a16.7,16.7,0,0,1-1.16,3.43C284.33,127.75,275,133.2,264,133.2c-13.45,0-24.46-8.21-25.34-18.59,0-.06,0-.11,0-.17l.06.07c2.26,2.55,5.49,4.38,8.56,6,4,2.13,8.06,4.29,12.49,5.2a28.22,28.22,0,0,0,13.41-.73,46.2,46.2,0,0,0,12.21-5.79q1.06-.69,2.1-1.41Q288.3,117.26,289.05,116.69Z"/><path class="cls-73" d="M259.9,125.75a26.87,26.87,0,0,0-2.66,15.19,27.57,27.57,0,0,1-13.6-6.19,17.46,17.46,0,0,1,.83-4.47c1.15-3.39,3.77-6.45,7.24-7.35l.74.23c2.53.79,5,1.72,7.5,2.49Z"/><path class="cls-59" d="M293.74,101.52a29.71,29.71,0,0,1-24.62,29.27,29.64,29.64,0,0,1-21.33-4.4,29.74,29.74,0,0,1,6.44-52.92,30.43,30.43,0,0,1,5.34-1.32,29.75,29.75,0,0,1,34.17,29.37Z"/><path class="cls-59" d="M292.26,106a.84.84,0,0,1-.45-.13.87.87,0,0,1-.28-1.19l10-16.24a.86.86,0,1,1,1.47.91l-10,16.24A.88.88,0,0,1,292.26,106Z"/><ellipse class="cls-78" cx="288.86" cy="114.67" rx="11.58" ry="5.51" transform="translate(86.8 350.8) rotate(-71.1)"/><path class="cls-85" d="M293.14,115.84c-1,3-3,5-4.39,4.5a1.87,1.87,0,0,1-1.09-1.32,8.35,8.35,0,0,1,.37-4.93c.87-2.55,2.44-4.39,3.76-4.56a1.39,1.39,0,0,1,.64.06C293.84,110.07,294.16,112.87,293.14,115.84Z"/><path class="cls-79" d="M291.42,114.46c-.87,2.55-2.44,4.39-3.76,4.56a8.35,8.35,0,0,1,.37-4.93c.87-2.55,2.44-4.39,3.76-4.56A8.43,8.43,0,0,1,291.42,114.46Z"/><path class="cls-72" d="M283.85,104.15A27.28,27.28,0,0,1,273.54,122,32.91,32.91,0,0,1,253.1,129h-.43a29.49,29.49,0,0,1-4.88-2.58,29.71,29.71,0,0,1,6.44-52.92,30.43,30.43,0,0,1,5.34-1.32C275.06,75.82,285.73,89.5,283.85,104.15Z"/><path class="cls-79" d="M281.71,103.88c-1.88,14.61-16.59,24.76-32.86,22.67l-1.06-.16a29.73,29.73,0,0,1-11.36-35.86c.1-.25.21-.49.31-.74l.15-.35c.12-.26.24-.53.37-.79l.15-.31.37-.71q.36-.7.78-1.38l.21-.34c.13-.23.28-.45.42-.67l.18-.27c.53-.79,1.1-1.55,1.7-2.28l.25-.3.25-.3c.43-.5.88-1,1.34-1.45l.28-.28,1-1,.37-.32c.63-.55,1.29-1.08,2-1.57a2.83,2.83,0,0,1,.28-.2l.33-.23h0a29.65,29.65,0,0,1,7.07-3.61c.47,0,1,.1,1.42.16,14.91,1.92,26,13.44,26.25,26.61A23.57,23.57,0,0,1,281.71,103.88Z"/><g class="cls-86"><path class="cls-87" d="M281.71,103.88c-1.88,14.61-16.59,24.76-32.86,22.67l-1.06-.16a29.73,29.73,0,0,1-11.36-35.86c.1-.25.21-.49.31-.74l.15-.35c.12-.26.24-.53.37-.79l.15-.31.37-.71q.36-.7.78-1.38l.21-.34c.13-.23.28-.45.42-.67l.18-.27c.53-.79,1.1-1.55,1.7-2.28l.25-.3.25-.3c.43-.5.88-1,1.34-1.45l.28-.28,1-1,.37-.32c.63-.55,1.29-1.08,2-1.57a2.83,2.83,0,0,1,.28-.2l.33-.23a23.78,23.78,0,0,0-1.88,2,38.26,38.26,0,0,0-4.18,6.3A7.57,7.57,0,0,0,240,89a3,3,0,0,0,2,2.89c1.51.36,2.92-.92,3.79-2.22,1.26-1.9,2.08-4.07,3.41-5.92s3.4-3.42,5.67-3.24c2.65.21,4.64,2.85,4.82,5.5s-1.07,5.2-2.69,7.3-3.63,3.88-5.32,5.93a12.09,12.09,0,0,0-3.15,7.16c-.09,4.36,3.76,8.22,8.08,8.83s8.73-1.56,11.53-4.91a22.67,22.67,0,0,0,4.63-12c.25-2.29.63-5.11,2.79-5.92a3.87,3.87,0,0,1,4.13,1.35,9.45,9.45,0,0,1,1.77,4.22c.17.77.31,1.54.43,2.33A23.57,23.57,0,0,1,281.71,103.88Z"/></g><g class="cls-88"><path class="cls-89" d="M273.15,117.11a47.08,47.08,0,0,1-36.58-4.26,29.79,29.79,0,0,1-.14-22.32,59.61,59.61,0,0,0,36,8.46C272.69,105.06,272.86,111,273.15,117.11Z"/></g></g></g></g></svg>