<svg xmlns="http://www.w3.org/2000/svg" xmlns:xlink="http://www.w3.org/1999/xlink" viewBox="0 0 700 272.56"><defs><style>.cls-1{mask:url(#mask);filter:url(#luminosity-noclip-3);}.cls-2,.cls-28,.cls-30,.cls-4{mix-blend-mode:multiply;}.cls-2{fill:url(#linear-gradient);}.cls-3{mask:url(#mask-2);filter:url(#luminosity-noclip-4);}.cls-4{fill:url(#linear-gradient-2);}.cls-5{isolation:isolate;}.cls-6{fill:#fff;}.cls-7{fill:#011224;}.cls-8{fill:#edf1fd;}.cls-9{fill:#b8d2ea;}.cls-10{fill:#cadcf8;}.cls-11{fill:#22c8c1;}.cls-12{fill:#39eceb;}.cls-13{fill:#2ae0d5;}.cls-14{fill:#8284e4;}.cls-15{fill:#fddf85;}.cls-16{fill:#010b25;}.cls-17{fill:#f5fdd3;opacity:0.11;}.cls-18{fill:#78a0da;}.cls-19{fill:#398fdc;}.cls-20{fill:#174fbd;}.cls-21{fill:#21aea9;}.cls-22{fill:#1b9d98;}.cls-23{fill:#4eacf3;}.cls-24{fill:#fac52f;}.cls-25{fill:#052b71;}.cls-26{fill:#86cfd7;}.cls-27{mask:url(#mask-3);}.cls-28{fill:url(#linear-gradient-3);}.cls-29{mask:url(#mask-4);}.cls-30{fill:url(#linear-gradient-4);}.cls-31{fill:#ed5733;}.cls-32{fill:#fc826a;}.cls-33{fill:#ac2310;}.cls-34{filter:url(#luminosity-noclip-2);}.cls-35{filter:url(#luminosity-noclip);}</style><filter id="luminosity-noclip" x="496.95" y="-5511.64" width="71.71" height="32766" filterUnits="userSpaceOnUse" color-interpolation-filters="sRGB"><feFlood flood-color="#fff" result="bg"/><feBlend in="SourceGraphic" in2="bg"/></filter><mask id="mask" x="496.95" y="-5511.64" width="71.71" height="32766" maskUnits="userSpaceOnUse"><g class="cls-35"/></mask><linearGradient id="linear-gradient" x1="298.96" y1="160.5" x2="319.32" y2="169.17" gradientTransform="matrix(-0.82, 0.57, 0.57, 0.82, 688.37, -214.99)" gradientUnits="userSpaceOnUse"><stop offset="0"/><stop offset="1" stop-color="#fff"/></linearGradient><filter id="luminosity-noclip-2" x="507.14" y="-5511.64" width="40.19" height="32766" filterUnits="userSpaceOnUse" color-interpolation-filters="sRGB"><feFlood flood-color="#fff" result="bg"/><feBlend in="SourceGraphic" in2="bg"/></filter><mask id="mask-2" x="507.14" y="-5511.64" width="40.19" height="32766" maskUnits="userSpaceOnUse"><g class="cls-34"/></mask><linearGradient id="linear-gradient-2" x1="274.66" y1="89.24" x2="286.08" y2="150.1" xlink:href="#linear-gradient"/><filter id="luminosity-noclip-3" x="496.95" y="49.63" width="71.71" height="70.59" filterUnits="userSpaceOnUse" color-interpolation-filters="sRGB"><feFlood flood-color="#fff" result="bg"/><feBlend in="SourceGraphic" in2="bg"/></filter><mask id="mask-3" x="496.95" y="49.63" width="71.71" height="70.59" maskUnits="userSpaceOnUse"><g class="cls-1"><path class="cls-2" d="M506.31,116l18.91,1.59,14.07,1.19h0l17.41,1.47q6-3.36,11.9-6.92c.6-.42-2.94-11.63-3.26-12.89q-1.73-6.8-3.44-13.59c-2-8-3.21-16.72-7.13-24.14a25.29,25.29,0,0,0-16.61-13,73,73,0,0,1,16.63,30c1.07,3.89,1.71,8.41-.66,11.68-2.75,3.78-9.25,3.22-13.48,1.24s-7.31-5.76-10-9.58C526.6,77.15,523.11,71,519.6,64.86c-2.18-3.81-4.58-7.8-8.48-9.81a8.75,8.75,0,0,0-2.86-.89,46.8,46.8,0,0,0-6,3.42c-.58.4-1.16.81-1.72,1.24a87,87,0,0,1,14.68,19.69c1.57,2.88,3,6.07,2.62,9.32-.54,4.42-4.45,7.83-8.7,9.13-3.91,1.2-8.09,1-12.18.53A120.92,120.92,0,0,0,506.31,116Z"/></g></mask><linearGradient id="linear-gradient-3" x1="298.96" y1="160.5" x2="319.32" y2="169.17" gradientTransform="matrix(-0.82, 0.57, 0.57, 0.82, 688.37, -214.99)" gradientUnits="userSpaceOnUse"><stop offset="0" stop-color="#fff"/><stop offset="1" stop-color="#fcb444"/></linearGradient><filter id="luminosity-noclip-4" x="507.14" y="42.73" width="40.19" height="12.9" filterUnits="userSpaceOnUse" color-interpolation-filters="sRGB"><feFlood flood-color="#fff" result="bg"/><feBlend in="SourceGraphic" in2="bg"/></filter><mask id="mask-4" x="507.14" y="42.73" width="40.19" height="12.9" maskUnits="userSpaceOnUse"><g class="cls-3"><path class="cls-4" d="M508.4,48.06A27.25,27.25,0,0,0,524,55.45a26.58,26.58,0,0,0,6.24,0,27,27,0,0,0,10.66-3.58l.43-.25a18.57,18.57,0,0,0,2.58-1.92,16.16,16.16,0,0,0,3.41-4.39,8,8,0,0,0-2.76-2.36c-1.51-.67-3.72.42-5,1.19-1.1.66-2.11,1.46-3.16,2.2l-.71.5a21,21,0,0,1-9.61,3.37c-.64.06-1.27.09-1.91.09a20.85,20.85,0,0,1-11.5-3.52,12.43,12.43,0,0,0-2.15-1.3,2.93,2.93,0,0,0-2.44,0,2.45,2.45,0,0,0-1,1A5.33,5.33,0,0,0,508.4,48.06Z"/></g></mask><linearGradient id="linear-gradient-4" x1="274.66" y1="89.24" x2="286.08" y2="150.1" xlink:href="#linear-gradient-3"/></defs><title>section-1</title><g class="cls-5"><g id="Layer_2" data-name="Layer 2"><g id="Layer_1-2" data-name="Layer 1"><circle class="cls-6" cx="236.85" cy="173.63" r="3.27"/><circle class="cls-6" cx="250.73" cy="139.41" r="3.27"/><path class="cls-6" d="M311.74,186.38a1.75,1.75,0,0,1,2,2.88A1.75,1.75,0,0,1,311.74,186.38Z"/><path class="cls-6" d="M252.08,221.84a1.75,1.75,0,0,1,2,2.88A1.75,1.75,0,0,1,252.08,221.84Z"/><path class="cls-6" d="M267.58,187.15a1.75,1.75,0,0,1,2,2.88A1.75,1.75,0,0,1,267.58,187.15Z"/><path class="cls-6" d="M82,237.21a1.76,1.76,0,0,1,2,2.89A1.76,1.76,0,0,1,82,237.21Z"/><path class="cls-6" d="M179.93,260.77a1.75,1.75,0,0,1,2,2.88A1.75,1.75,0,0,1,179.93,260.77Z"/><path class="cls-6" d="M178.62,211.15a1.76,1.76,0,0,1,2,2.89A1.76,1.76,0,0,1,178.62,211.15Z"/><path class="cls-6" d="M201.29,240.16a1.75,1.75,0,0,1,2,2.88A1.75,1.75,0,0,1,201.29,240.16Z"/><path class="cls-6" d="M0,178a1.36,1.36,0,0,1,.25-.62,1.35,1.35,0,0,1,.47-.51,1.77,1.77,0,0,1,1.32-.28,1.8,1.8,0,0,1,1.12.72l.31.44a1.84,1.84,0,0,1,.28,1.31,1.23,1.23,0,0,1-.26.62,1.28,1.28,0,0,1-.47.51,1.78,1.78,0,0,1-1.31.29,1.87,1.87,0,0,1-1.13-.73l-.3-.44A1.79,1.79,0,0,1,0,178Z"/><path class="cls-6" d="M46.75,264.86a1.76,1.76,0,0,1,2,2.89A1.76,1.76,0,0,1,46.75,264.86Z"/><path class="cls-6" d="M61.37,256a1.75,1.75,0,0,1,2,2.88A1.75,1.75,0,0,1,61.37,256Z"/><path class="cls-6" d="M136.65,269.35a1.75,1.75,0,0,1,2,2.88A1.75,1.75,0,0,1,136.65,269.35Z"/><path class="cls-6" d="M120.69,235.06a1.76,1.76,0,0,1,2,2.89A1.76,1.76,0,0,1,120.69,235.06Z"/><path class="cls-6" d="M36.45,191a1.75,1.75,0,0,1,2,2.88A1.75,1.75,0,0,1,36.45,191Z"/><path class="cls-7" d="M700,132.5c-4.1.43-315.93,2.3-315.93,2.3l1-50.25Z"/><polygon class="cls-6" points="700 132.5 432.62 52.35 375.12 91.23 700 132.5"/><path class="cls-8" d="M657.94,128.75h-.22l.2.11Z"/><path class="cls-8" d="M651.55,128.36l.19-.13-.44,0Z"/><polygon class="cls-9" points="357.51 103.42 402.07 193.57 699.07 132.22 357.51 103.42"/><polygon class="cls-6" points="699.07 132.22 357.51 103.42 271.83 162.72 699.07 132.22"/><path class="cls-10" d="M390.3,106.18l10.39.88,60.86,5.13,5.21.44A33.07,33.07,0,0,0,463,100.22c-2.51-5.1-5.79-10-8.31-14.12s-5-7.94-7.64-11.8c-1.81-2.61-3.7-5.23-5.74-7.69a43.15,43.15,0,0,0-11.81-10.36A31.48,31.48,0,0,0,418,52.5a42.05,42.05,0,0,0-23.22,4.12,35.47,35.47,0,0,0-10.93,7.77A21,21,0,0,0,382.51,66a22.69,22.69,0,0,0-3.12,5.41,19.77,19.77,0,0,0-1.41,9.5c.57,5.28,3.37,10.13,6.09,14.79C386.12,99.2,388.18,102.71,390.3,106.18Z"/><path class="cls-8" d="M400.69,107.06l60.86,5.13,5.21.44A33.07,33.07,0,0,0,463,100.22c-2.51-5.1-5.79-10-8.31-14.12s-5-7.94-7.64-11.8c-1.81-2.61-3.7-5.23-5.74-7.69a43.15,43.15,0,0,0-11.81-10.36A31.48,31.48,0,0,0,418,52.5c.32.2.63.38.88.56a57.45,57.45,0,0,1,4.42,3.68,64.74,64.74,0,0,1,13.86,18c2.11,4,3.77,9,1.75,13.05-1.92,3.86-6.77,5.64-11,5s-8-3.32-11-6.4-5.54-6.62-8.55-9.72a42.68,42.68,0,0,0-19.44-11.48,17.33,17.33,0,0,0-5-.74A21,21,0,0,0,382.51,66a22.69,22.69,0,0,0-3.12,5.41c7.28.2,14.22,4.15,19.34,9.44,5.59,5.78,9.36,13,13.06,20.17A49.35,49.35,0,0,1,400.69,107.06Z"/><path class="cls-11" d="M450.57,86.78a9.68,9.68,0,0,1-2,4.14c-1.43,1.45-27.59,17.8-30.22,16.11s-11.47-17.89-11.88-19.42,1.29-4.28,1.29-4.28Z"/><path class="cls-12" d="M436.89,67s-27.56,14.33-29.13,16.31,8.44,19.88,10.89,21.16,30.53-15.43,31.92-17.71S439.31,65.75,436.89,67Z"/><polygon class="cls-13" points="420 102.24 423.67 100.19 415.43 85.36 414.11 86.04 411.45 87.38 419.49 101.34 420 102.24"/><polygon class="cls-11" points="419.49 101.34 421.88 100.01 414.11 86.04 411.45 87.38 419.49 101.34"/><path class="cls-10" d="M386.22,132.89c4.22.66,8.31-2.44,10.17-6.29a17.56,17.56,0,0,0,1.24-3.57,39.49,39.49,0,0,0,.73-9,147,147,0,0,0-.68-15.28c-.59-5.63-1.85-11.52-5.66-15.71a15.59,15.59,0,0,0-8.91-4.88c-3.13-.49-5.54,2.85-6.44,5.57a25.25,25.25,0,0,0-.78,8.59c.07,2.47.13,4.93.19,7.4q.17,6.63.34,13.25c.13,5.18.34,10.66,3.1,15A10.1,10.1,0,0,0,386.22,132.89Z"/><path class="cls-8" d="M386.22,132.89c4.22.66,8.31-2.44,10.17-6.29a17.56,17.56,0,0,0,1.24-3.57,48.91,48.91,0,0,0-2.27-4.37,51,51,0,0,0-15.2-16.38c-1.06-.72-2.69-2.15-4.08-2.53q.17,6.63.34,13.25c.13,5.18.34,10.66,3.1,15A10.1,10.1,0,0,0,386.22,132.89Z"/><path class="cls-8" d="M385.66,88.81A5.23,5.23,0,0,0,384,86.68a2.74,2.74,0,0,0-2.57-.38c-1.23.53-1.68,2-1.73,3.38A10.87,10.87,0,0,0,381,95.24a4.45,4.45,0,0,0,2.36,2.28C387.89,99,386.59,90.77,385.66,88.81Z"/><path class="cls-10" d="M349.35,104.83a28.57,28.57,0,0,0,3.1,3.22l19.4,18c3.14,2.9,6.39,5.87,10.43,7.28s9.08.8,11.73-2.56c4.69-6-1.53-11.53-5.44-15.56q-8.1-8.36-16.54-16.36-4.27-4-8.64-8l-.9-.82a7.5,7.5,0,0,0-3.32-2.06c-1.95-.4-3.84.77-5.43,2a20.75,20.75,0,0,0-4.69,4.52,8.84,8.84,0,0,0-1.69,6.16A9,9,0,0,0,349.35,104.83Z"/><path class="cls-8" d="M349.35,104.83a12.9,12.9,0,0,1,3.77-7,28,28,0,0,1,8.24-6c.6-.29,1.38-.55,2-.93l-.9-.82a7.5,7.5,0,0,0-3.32-2.06c-1.95-.4-3.84.77-5.43,2a20.75,20.75,0,0,0-4.69,4.52,8.84,8.84,0,0,0-1.69,6.16A9,9,0,0,0,349.35,104.83Z"/><path class="cls-14" d="M372.4,114.17h0a1.16,1.16,0,0,0,.26-1.63l-53.75-73.9A1.17,1.17,0,0,0,317,40l53.75,73.89A1.16,1.16,0,0,0,372.4,114.17Z"/><path class="cls-15" d="M317,40s-19.72,6.36-23.68,9.79S305.19,54.41,295.8,60s-29,14.11-29,14.11l18,20.34s30.84-14.08,33.52-16.86-1.19-3.72-3.94-6.86,20.47-6.19,20.47-6.19Z"/><path class="cls-12" d="M348.64,74.8c-2.26.6-4.49,1.3-6.67,2.11a9.74,9.74,0,0,0-4.19,2.48,2.81,2.81,0,0,0-.5,3.34c.33.44.87.75,1.05,1.28s-.12,1.2-.07,1.81c.05.81.7,1.43,1.16,2.11.86,1.29,1.06,2.93,1.92,4.22a6.45,6.45,0,0,0,4.7,2.53,24.51,24.51,0,0,0,6.71-.7,29,29,0,0,0,4.5-1.12,6.8,6.8,0,0,0,2.95-1.66,2.82,2.82,0,0,0,.65-3c-.45-1-1.67-1.67-1.67-2.77a3.14,3.14,0,0,1,.84-1.77,2.09,2.09,0,0,0,.53-1.83c-.35-1-1.74-1-2.53-1.72-1-.88-.74-2.5-1.25-3.74C355.44,73.2,351.17,74.14,348.64,74.8Z"/><path class="cls-11" d="M384.72,65.36a22.47,22.47,0,0,0,7,3.87,32.6,32.6,0,0,0,13.65,1.68,31.89,31.89,0,0,0,7.47-1.59,21.64,21.64,0,0,0,4.16-1.88,12.8,12.8,0,0,0,3.1-2.57,8.37,8.37,0,0,0,1.87-8,9.73,9.73,0,0,0-1.49-2.61,7.92,7.92,0,0,0-2.75-2.35c-1.52-.67-3.72.42-5,1.19-1.1.66-2.11,1.46-3.16,2.2l-.71.49a20.87,20.87,0,0,1-9.62,3.38c-.63.06-1.27.09-1.9.09a20.82,20.82,0,0,1-11.5-3.52,12.51,12.51,0,0,0-2.16-1.3,2.9,2.9,0,0,0-2.43,0,2.33,2.33,0,0,0-1,1,3.27,3.27,0,0,0-.33,1,5.56,5.56,0,0,0,.24,2.39A13.93,13.93,0,0,0,384.72,65.36Z"/><path class="cls-12" d="M381.6,57a27.2,27.2,0,0,0,15.62,7.39,26.58,26.58,0,0,0,6.24,0,27,27,0,0,0,10.66-3.58l.43-.25a19.4,19.4,0,0,0,2.58-1.92,15.86,15.86,0,0,0,3.4-4.4,7.92,7.92,0,0,0-2.75-2.35c-1.52-.67-3.72.42-5,1.19-1.1.66-2.11,1.46-3.16,2.2l-.71.49a20.87,20.87,0,0,1-9.62,3.38c-.63.06-1.27.09-1.9.09a20.82,20.82,0,0,1-11.5-3.52,12.51,12.51,0,0,0-2.16-1.3,2.9,2.9,0,0,0-2.43,0,2.33,2.33,0,0,0-1,1A5.29,5.29,0,0,0,381.6,57Z"/><path class="cls-8" d="M405.42,70.91a31.89,31.89,0,0,0,7.47-1.59,21.64,21.64,0,0,0,4.16-1.88,18.32,18.32,0,0,0-1.85-5.73c-.2-.39-.42-.78-.65-1.15a18.53,18.53,0,0,0-4.93-5.28l-.71.49a20.87,20.87,0,0,1-9.62,3.38,17.66,17.66,0,0,1,4.17,5.24c.18.34.34.68.49,1A18.74,18.74,0,0,1,405.42,70.91Z"/><path class="cls-10" d="M377.33,50.25A26.32,26.32,0,0,0,414,56.91a29.47,29.47,0,0,0,2.61-2,26.32,26.32,0,1,0-39.23-4.61Z"/><path class="cls-8" d="M416.56,54.86a26.32,26.32,0,0,0-12.47-45.4,30.64,30.64,0,0,0-8.35,2.75,30.09,30.09,0,0,0-3.92,2.31A28.46,28.46,0,0,0,380.9,28.79a22.06,22.06,0,0,0,1,16.77C387.66,57.21,403.17,61.34,416.56,54.86Z"/><path class="cls-16" d="M386.24,48.1a1.47,1.47,0,0,1,.1.13c6.45,7.76,18.74,9.92,29.52,4.58,12.34-6.12,18.05-19.73,12.75-30.41a20.3,20.3,0,0,0-14.12-10.62c-.71-.16-1.44-.29-2.17-.38a27.36,27.36,0,0,0-15.63,2.73c-12.33,6.12-18,19.73-12.75,30.41A18.54,18.54,0,0,0,386.24,48.1Z"/><path class="cls-17" d="M386.24,48.1a1.47,1.47,0,0,1,.1.13c6.45,7.76,18.74,9.92,29.52,4.58,12.34-6.12,18.05-19.73,12.75-30.41a20.3,20.3,0,0,0-14.12-10.62,38.42,38.42,0,0,1,5.16,5.2,38.9,38.9,0,0,1,4.89,7.66c1.28,2.66,2.27,5.61,1.83,8.53s-2.68,5.74-5.62,6c-2.11.19-4.1-.9-5.87-2.06s-3.58-2.43-5.67-2.71-4.56.9-4.88,3c-.24,1.65.89,3.17,2.05,4.38s2.49,2.42,2.79,4.07a4.94,4.94,0,0,1-2.69,4.92,11.3,11.3,0,0,1-5.81,1.09A33.33,33.33,0,0,1,386.24,48.1Z"/><ellipse class="cls-8" cx="377.02" cy="51.28" rx="5.41" ry="7.88" transform="translate(37.83 223.69) rotate(-34.69)"/><path class="cls-10" d="M373.3,53.85c1.39,2,3.64,2.86,5,1.91A2,2,0,0,0,379,55a4.6,4.6,0,0,0-.71-4.57,4.63,4.63,0,0,0-4-2.28,2.34,2.34,0,0,0-1,.37C371.91,49.45,371.91,51.85,373.3,53.85Z"/><path class="cls-18" d="M375,52.7A4.62,4.62,0,0,0,379,55a4.6,4.6,0,0,0-.71-4.57,4.63,4.63,0,0,0-4-2.28A4.66,4.66,0,0,0,375,52.7Z"/><path class="cls-8" d="M375.58,47.07l0,0a.82.82,0,0,0,.14-1.15L362.3,28.59a.81.81,0,0,0-1.15-.15.82.82,0,0,0-.14,1.15L374.47,46.9A.81.81,0,0,0,375.58,47.07Z"/><path class="cls-19" d="M461.55,112.19l5.21.44L506.31,116l18.91,1.59a18.57,18.57,0,0,0,1.37-1.68c8.16-11.45-2.9-26.44-9.17-36.75q-3.66-6-7.65-11.8a94.72,94.72,0,0,0-7.52-9.75,40.18,40.18,0,0,0-10-8.3,31.54,31.54,0,0,0-11.51-3.75,42.08,42.08,0,0,0-23.23,4.12,35.43,35.43,0,0,0-10.93,7.77c-.47.51-.93,1-1.36,1.6a23.3,23.3,0,0,0-3.12,5.42c-.28.71-.53,1.43-.74,2.17a19.19,19.19,0,0,0-.66,7.33c.57,5.28,3.36,10.13,6.08,14.79s5.43,9.26,8.29,13.8C457.12,105.82,459.27,109.05,461.55,112.19Z"/><path class="cls-20" d="M461.55,112.19l5.21.44L506.31,116l18.91,1.59a18.57,18.57,0,0,0,1.37-1.68c8.16-11.45-2.9-26.44-9.17-36.75q-3.66-6-7.65-11.8a94.72,94.72,0,0,0-7.52-9.75,40.18,40.18,0,0,0-10-8.3,31.54,31.54,0,0,0-11.51-3.75c.32.19.62.38.87.56A55.48,55.48,0,0,1,486,49.76a65.49,65.49,0,0,1,10.67,12.53c1.15,1.76,2.22,3.58,3.19,5.44,2.11,4,3.78,9,1.75,13.06-1.57,3.16-5.09,4.92-8.65,5.09a11.8,11.8,0,0,1-2.38-.12c-4.26-.67-8-3.32-11-6.4s-5.54-6.62-8.54-9.72A42.82,42.82,0,0,0,451.6,58.15a17.66,17.66,0,0,0-5-.73c-.47.51-.93,1-1.36,1.6a23.3,23.3,0,0,0-3.12,5.42c7.28.19,14.22,4.15,19.34,9.43,5.59,5.79,9.37,13,13.07,20.18A49.72,49.72,0,0,1,463,100.22a50.23,50.23,0,0,1-8,2.31C457.12,105.82,459.27,109.05,461.55,112.19Z"/><path class="cls-21" d="M513.27,79.81a9.82,9.82,0,0,1-2,4.14c-1.44,1.45-27.6,17.8-30.22,16.11s-11.48-17.89-11.89-19.43,1.29-4.27,1.29-4.27Z"/><path class="cls-12" d="M499.59,60S472,74.38,470.45,76.36s8.44,19.88,10.89,21.15,30.53-15.42,31.93-17.7S502,58.78,499.59,60Z"/><polygon class="cls-21" points="482.69 95.27 486.36 93.22 478.12 78.39 476.8 79.06 474.15 80.41 482.18 94.37 482.69 95.27"/><polygon class="cls-22" points="482.18 94.37 484.57 93.04 476.8 79.06 474.15 80.41 482.18 94.37"/><path class="cls-19" d="M438.28,40.1l0,0a.81.81,0,0,0,.15-1.14L425,21.61a.82.82,0,0,0-1.15-.14.81.81,0,0,0-.14,1.15l13.46,17.31A.81.81,0,0,0,438.28,40.1Z"/><path class="cls-12" d="M447.41,58.39a22.47,22.47,0,0,0,7,3.87,32.62,32.62,0,0,0,13.65,1.68,31.79,31.79,0,0,0,7.47-1.59,21.08,21.08,0,0,0,4.16-1.89,12.76,12.76,0,0,0,3.1-2.56,8.38,8.38,0,0,0,1.88-8,9.86,9.86,0,0,0-1.49-2.61,8,8,0,0,0-2.76-2.35c-1.51-.67-3.72.42-5,1.19-1.1.65-2.11,1.46-3.16,2.2-.23.17-.47.33-.71.49A20.88,20.88,0,0,1,462,52.18c-.64.06-1.27.09-1.91.09a20.87,20.87,0,0,1-11.5-3.52,12.06,12.06,0,0,0-2.15-1.3,2.93,2.93,0,0,0-2.44,0,2.45,2.45,0,0,0-1,1,3,3,0,0,0-.32,1,5.42,5.42,0,0,0,.24,2.39A13.89,13.89,0,0,0,447.41,58.39Z"/><path class="cls-20" d="M444.29,50a27.25,27.25,0,0,0,15.62,7.39,26.58,26.58,0,0,0,6.24,0,27.06,27.06,0,0,0,10.66-3.58c.15-.08.29-.17.43-.26a18.5,18.5,0,0,0,2.58-1.91,15.84,15.84,0,0,0,3.41-4.4,8,8,0,0,0-2.76-2.35c-1.51-.67-3.72.42-5,1.19-1.1.65-2.11,1.46-3.16,2.2-.23.17-.47.33-.71.49A20.88,20.88,0,0,1,462,52.18c-.64.06-1.27.09-1.91.09a20.87,20.87,0,0,1-11.5-3.52,12.06,12.06,0,0,0-2.15-1.3,2.93,2.93,0,0,0-2.44,0,2.45,2.45,0,0,0-1,1A5.58,5.58,0,0,0,444.29,50Z"/><path class="cls-20" d="M468.11,63.94a31.79,31.79,0,0,0,7.47-1.59,21.08,21.08,0,0,0,4.16-1.89,18.33,18.33,0,0,0-1.84-5.72c-.21-.4-.43-.78-.66-1.16a18.35,18.35,0,0,0-4.93-5.27c-.23.17-.47.33-.71.49A20.88,20.88,0,0,1,462,52.18a17.63,17.63,0,0,1,4.16,5.24c.18.34.34.68.5,1A18.73,18.73,0,0,1,468.11,63.94Z"/><path class="cls-19" d="M440,43.28a26.32,26.32,0,0,0,36.62,6.66,25.44,25.44,0,0,0,2.61-2.06A26.32,26.32,0,1,0,440,43.28Z"/><path class="cls-12" d="M479.25,47.88a26.33,26.33,0,0,0-12.46-45.4,31.19,31.19,0,0,0-8.36,2.76,30.76,30.76,0,0,0-3.92,2.31A28.38,28.38,0,0,0,443.6,21.82a22,22,0,0,0,1,16.77C450.36,50.24,465.86,54.37,479.25,47.88Z"/><path class="cls-16" d="M448.93,41.13l.1.12c6.46,7.77,18.74,9.93,29.53,4.58,12.33-6.11,18-19.73,12.75-30.4A20.34,20.34,0,0,0,477.19,4.8c-.72-.15-1.44-.28-2.18-.38a27.4,27.4,0,0,0-15.62,2.74c-12.34,6.12-18.05,19.73-12.75,30.41A19,19,0,0,0,448.93,41.13Z"/><path class="cls-17" d="M448.93,41.13l.1.12c6.46,7.77,18.74,9.93,29.53,4.58,12.33-6.11,18-19.73,12.75-30.4A20.34,20.34,0,0,0,477.19,4.8,39.69,39.69,0,0,1,482.35,10a38.4,38.4,0,0,1,4.88,7.66c1.28,2.66,2.27,5.61,1.83,8.53s-2.68,5.73-5.62,6c-2.1.19-4.1-.91-5.87-2.06s-3.57-2.44-5.67-2.71-4.56.89-4.87,3c-.25,1.66.88,3.18,2,4.38s2.49,2.43,2.79,4.08a4.94,4.94,0,0,1-2.68,4.92,11.21,11.21,0,0,1-5.82,1.08A33.18,33.18,0,0,1,448.93,41.13Z"/><ellipse class="cls-23" cx="439.71" cy="44.31" rx="5.41" ry="7.88" transform="translate(52.94 258.13) rotate(-34.69)"/><path class="cls-19" d="M436,46.88c1.39,2,3.63,2.86,5,1.91a2.2,2.2,0,0,0,.69-.79,4.64,4.64,0,0,0-.71-4.57,4.65,4.65,0,0,0-4-2.28,2.25,2.25,0,0,0-1,.37C434.6,42.48,434.61,44.88,436,46.88Z"/><path class="cls-20" d="M437.67,45.73a4.63,4.63,0,0,0,4,2.27,4.64,4.64,0,0,0-.71-4.57,4.65,4.65,0,0,0-4-2.28A4.61,4.61,0,0,0,437.67,45.73Z"/><path class="cls-19" d="M454,142c3.74-1.11,6.62-4.22,8.33-7.72a21.23,21.23,0,0,0,.9-2.15,47.63,47.63,0,0,0,2.05-9.12,144.8,144.8,0,0,0,1.54-15c.1-2.49.11-5,0-7.45-.1-2-.28-4-.57-6a51.48,51.48,0,0,0-3.12-11.83c-2.51-6.22-6.6-13.11-12.88-16C444.31,64,440,69.93,441,75.55c.51,3,2,5.77,3.18,8.6a49.45,49.45,0,0,1,3.56,16.65c.09,2,.08,4,0,6a90.09,90.09,0,0,1-3.46,20,29.58,29.58,0,0,0-1.37,6.73,9,9,0,0,0,1,4.83C445.71,141.74,450.28,143.09,454,142Z"/><path class="cls-12" d="M447.68,106.75A34.35,34.35,0,0,1,466.83,108c.1-2.49.11-5,0-7.45l-1.16-.25a35.87,35.87,0,0,0-14.3-.37,35.3,35.3,0,0,0-3.66.85C447.78,102.78,447.77,104.76,447.68,106.75Z"/><path class="cls-12" d="M451.64,77.36a5.51,5.51,0,0,0-2.78-3.08,2.27,2.27,0,0,0-2.19.07,2.6,2.6,0,0,0-.83,2.17,8.11,8.11,0,0,0,2.74,6,3.84,3.84,0,0,0,1.63.92C453.73,84.28,452.26,78.89,451.64,77.36Z"/><path class="cls-12" d="M454,142c3.74-1.11,6.62-4.22,8.33-7.72a21.23,21.23,0,0,0,.9-2.15c-.27-.31-.54-.61-.78-.86a12.24,12.24,0,0,0-5-3.18,12.65,12.65,0,0,0-10.15,1,12.9,12.9,0,0,0-4.49,4.38,9,9,0,0,0,1,4.83C445.71,141.74,450.28,143.09,454,142Z"/><path class="cls-20" d="M444.81,156.35a3.21,3.21,0,0,0,1.33,1,1.27,1.27,0,0,0,1.51-.44,2.47,2.47,0,0,0,3.34-.74,2.2,2.2,0,0,0,2.76-2.08,4.08,4.08,0,0,0,1.55.12,1.38,1.38,0,0,0,1.14-.93,2.28,2.28,0,0,0-.62-1.71,14.27,14.27,0,0,1-.89-1.39,11.93,11.93,0,0,1-.72-1.59,8.38,8.38,0,0,1-.36-1.37,5.58,5.58,0,0,1,1.07-4.51,2.09,2.09,0,0,1,1.31-.81c1-.1,1.8.92,1.86,1.9a2.28,2.28,0,0,1,0,.37,4,4,0,0,1-.31,1.21,8.72,8.72,0,0,1-.6,1.18,3.39,3.39,0,0,0-.47,1.13,1.1,1.1,0,0,0,.45,1.09c1.2.69,2.12-.87,2.71-2.48.17-.45.31-.91.43-1.32.15-.58.26-1.05.3-1.3a15.81,15.81,0,0,0,.34-4.94,6.49,6.49,0,0,0-2.26-4.31,7.65,7.65,0,0,0-4.27-1.36c-3-.21-6.25.46-8.38,2.58a13.71,13.71,0,0,0-2.47,3.75,22.15,22.15,0,0,0-1.73,4.46,14.1,14.1,0,0,0,.65,8.58c.14.35.3.7.46,1A14,14,0,0,0,444.81,156.35Z"/><path class="cls-12" d="M457.78,145.42l.1,0a5.7,5.7,0,0,1,2,.9c.17-.45.31-.91.43-1.32a4,4,0,0,0-2.21-.81A4,4,0,0,1,457.78,145.42Z"/><path class="cls-12" d="M442.94,153.52l.07-.05a2,2,0,0,1,1.78-.11,1.2,1.2,0,0,1,1.19-.81,3.59,3.59,0,0,1,1.48.45,1.74,1.74,0,0,1,2.55-1.26,1.87,1.87,0,0,1,1.12-1.28,1.84,1.84,0,0,1,1.69.18,1.64,1.64,0,0,1,1.78-.54l.33.12a11.93,11.93,0,0,1-.72-1.59,2.47,2.47,0,0,0-2.5.77,1.58,1.58,0,0,0-1.37.14,1.7,1.7,0,0,0-.82,1.18,1.44,1.44,0,0,0-.66-.22,1.57,1.57,0,0,0-.69.1,1.76,1.76,0,0,0-1,1.06,1.56,1.56,0,0,0-1.25-.29,1.78,1.78,0,0,0-1.16.76,2,2,0,0,0-1.35-.1,3,3,0,0,0-.89.45C442.62,152.83,442.78,153.18,442.94,153.52Z"/><path class="cls-24" d="M559.77,97.08a65.88,65.88,0,0,0,5.54,3.93l1,.59a55,55,0,0,0,28.29,8.3,45.55,45.55,0,0,0,8.31-.76,17.52,17.52,0,0,0,6-2.09,8,8,0,0,0,3.8-5c.74-3.41-1.54-6.89-4.54-8.67A21.53,21.53,0,0,0,600.09,91h0l-2-.27c-7.2-.95-14.7-2.18-21-5.59a27.73,27.73,0,0,1-4.6-3.11l-.31-.27c-5.07-4.39-8.22-10.56-11.51-16.42A70.4,70.4,0,0,0,556,57.76,31.54,31.54,0,0,0,550.67,52c-1.25-1-2.61-2.51-4.24-2.84a10.47,10.47,0,0,0-10.68,5.21,13.24,13.24,0,0,0-.83,9.32,32.23,32.23,0,0,0,3.91,8.7C544.35,81.73,551.27,90.39,559.77,97.08Z"/><path class="cls-15" d="M594.56,109.9a45.55,45.55,0,0,0,8.31-.76,17.52,17.52,0,0,0,6-2.09,8,8,0,0,0,3.8-5c.74-3.41-1.54-6.89-4.54-8.67A21.53,21.53,0,0,0,600.09,91h0a12.8,12.8,0,0,0-3,1.86,13.4,13.4,0,0,0-4.51,12.44A10.51,10.51,0,0,0,594.56,109.9Z"/><path class="cls-15" d="M559.77,97.08a65.88,65.88,0,0,0,5.54,3.93l1,.59A23.79,23.79,0,0,1,575,86.48a13.7,13.7,0,0,1,2.13-1.36,27.73,27.73,0,0,1-4.6-3.11l-.31-.27a59.93,59.93,0,0,0-8.67,9.13A29.81,29.81,0,0,0,559.77,97.08Z"/><path class="cls-25" d="M597.79,107.09a5.92,5.92,0,0,0,3.44,2,21.81,21.81,0,0,0,5.88.14,11.17,11.17,0,0,1,5.76.89,4.76,4.76,0,0,1,.49.28c.32.2.63.42.94.64s.65.46,1,.67a4.15,4.15,0,0,0,2.74.77,2,2,0,0,0,1.83-1.9,2.17,2.17,0,0,0,3.68-1.73,1.71,1.71,0,0,0,2.7-1.55c0,.43,1.68,0,1.88-.07a1.52,1.52,0,0,0,1.09-1.39,3.18,3.18,0,0,0-.38-1.65,7.33,7.33,0,0,0-2-2.42,11.33,11.33,0,0,0-1-.72l-.32-.19A24.49,24.49,0,0,0,621.2,99l-9.07-3.2a17.65,17.65,0,0,0-6.57-1.41,9.07,9.07,0,0,0-5.63,2.34,9.81,9.81,0,0,0-2.92,4.9l-.09.43A6.22,6.22,0,0,0,597.79,107.09Z"/><path class="cls-26" d="M597,101.64l4.86,1.5a11.33,11.33,0,0,0,4.55.73c1.93-.22,3.6-1.43,5.16-2.59a4.65,4.65,0,0,0,1.14-1.07,1.59,1.59,0,0,0,.25-1.48,2.26,2.26,0,0,0-1-1,22.1,22.1,0,0,0-4-1.86,28.85,28.85,0,0,0-4.06-1.25,9.25,9.25,0,0,0-4,2.1A9.81,9.81,0,0,0,597,101.64Z"/><path class="cls-26" d="M613.36,110.42c.32.2.63.42.94.64a4.83,4.83,0,0,1,.85-1.06,4.51,4.51,0,0,1,2.78-1.16,4,4,0,0,1,1.39-2,1.86,1.86,0,0,1,1.6-.41,2.84,2.84,0,0,1,1-1.52,3.12,3.12,0,0,1,1.76-.63c.05,0,0,0,.07,0a3.56,3.56,0,0,1,3.11-2.46,11.33,11.33,0,0,0-1-.72,4.29,4.29,0,0,0-2.58,2.25,3.8,3.8,0,0,0-3.44,2.09,4.73,4.73,0,0,0-1.68.58,1.72,1.72,0,0,0-.82,1.56,4.42,4.42,0,0,0-3.17,1.5A4.14,4.14,0,0,0,613.36,110.42Z"/><path class="cls-24" d="M506.31,116l18.91,1.59,14.07,1.19h0l17.41,1.47q6-3.36,11.9-6.92c.6-.42-2.94-11.63-3.26-12.89q-1.73-6.8-3.44-13.59c-2-8-3.21-16.72-7.13-24.14a25.29,25.29,0,0,0-16.61-13c-7-1.8-14.92-1.08-22.21,1.43a72.25,72.25,0,0,0-7.69,3.1,46.8,46.8,0,0,0-6,3.42c-.58.4-1.16.81-1.72,1.24s-1.35,1.07-2,1.64-1.27,1.19-1.86,1.83a20.07,20.07,0,0,0-5.07,9.18c-1.05,4.67,0,9.54,1.28,14.14l.08.27a116.85,116.85,0,0,0,4,11.61A120.92,120.92,0,0,0,506.31,116Z"/><path class="cls-15" d="M506.31,116l18.91,1.59,14.07,1.19h0l17.41,1.47q6-3.36,11.9-6.92c.6-.42-2.94-11.63-3.26-12.89q-1.73-6.8-3.44-13.59c-2-8-3.21-16.72-7.13-24.14a25.29,25.29,0,0,0-16.61-13,73,73,0,0,1,16.63,30c1.07,3.89,1.71,8.41-.66,11.68-2.75,3.78-9.25,3.22-13.48,1.24s-7.31-5.76-10-9.58C526.6,77.15,523.11,71,519.6,64.86c-2.18-3.81-4.58-7.8-8.48-9.81a8.75,8.75,0,0,0-2.86-.89,46.8,46.8,0,0,0-6,3.42c-.58.4-1.16.81-1.72,1.24a87,87,0,0,1,14.68,19.69c1.57,2.88,3,6.07,2.62,9.32-.54,4.42-4.45,7.83-8.7,9.13-3.91,1.2-8.09,1-12.18.53A120.92,120.92,0,0,0,506.31,116Z"/><g class="cls-27"><path class="cls-28" d="M506.31,116l18.91,1.59,14.07,1.19h0l17.41,1.47q6-3.36,11.9-6.92c.6-.42-2.94-11.63-3.26-12.89q-1.73-6.8-3.44-13.59c-2-8-3.21-16.72-7.13-24.14a25.29,25.29,0,0,0-16.61-13,73,73,0,0,1,16.63,30c1.07,3.89,1.71,8.41-.66,11.68-2.75,3.78-9.25,3.22-13.48,1.24s-7.31-5.76-10-9.58C526.6,77.15,523.11,71,519.6,64.86c-2.18-3.81-4.58-7.8-8.48-9.81a8.75,8.75,0,0,0-2.86-.89,46.8,46.8,0,0,0-6,3.42c-.58.4-1.16.81-1.72,1.24a87,87,0,0,1,14.68,19.69c1.57,2.88,3,6.07,2.62,9.32-.54,4.42-4.45,7.83-8.7,9.13-3.91,1.2-8.09,1-12.18.53A120.92,120.92,0,0,0,506.31,116Z"/></g><path class="cls-25" d="M511.52,56.41a22.47,22.47,0,0,0,7.05,3.87,32.5,32.5,0,0,0,21.12.1,22.3,22.3,0,0,0,4.16-1.89,12.8,12.8,0,0,0,3.1-2.57,8.38,8.38,0,0,0,1.88-8,10.09,10.09,0,0,0-1.49-2.6,8,8,0,0,0-2.76-2.36c-1.51-.67-3.72.42-5,1.19-1.1.66-2.11,1.46-3.16,2.2l-.71.5a21,21,0,0,1-9.61,3.37c-.64.06-1.27.09-1.91.09a20.85,20.85,0,0,1-11.5-3.52,12.43,12.43,0,0,0-2.15-1.3,2.93,2.93,0,0,0-2.44,0,2.45,2.45,0,0,0-1,1,3,3,0,0,0-.32,1,5.27,5.27,0,0,0,.24,2.39A13.84,13.84,0,0,0,511.52,56.41Z"/><g class="cls-29"><path class="cls-30" d="M508.4,48.06A27.25,27.25,0,0,0,524,55.45a26.58,26.58,0,0,0,6.24,0,27,27,0,0,0,10.66-3.58l.43-.25a18.57,18.57,0,0,0,2.58-1.92,16.16,16.16,0,0,0,3.41-4.39,8,8,0,0,0-2.76-2.36c-1.51-.67-3.72.42-5,1.19-1.1.66-2.11,1.46-3.16,2.2l-.71.5a21,21,0,0,1-9.61,3.37c-.64.06-1.27.09-1.91.09a20.85,20.85,0,0,1-11.5-3.52,12.43,12.43,0,0,0-2.15-1.3,2.93,2.93,0,0,0-2.44,0,2.45,2.45,0,0,0-1,1A5.33,5.33,0,0,0,508.4,48.06Z"/></g><path class="cls-26" d="M532.22,62a32.28,32.28,0,0,0,7.47-1.58,22.3,22.3,0,0,0,4.16-1.89A18.07,18.07,0,0,0,542,52.76c-.2-.39-.42-.78-.65-1.15a18.39,18.39,0,0,0-4.93-5.28l-.71.5a21,21,0,0,1-9.61,3.37,17.79,17.79,0,0,1,4.16,5.24c.18.34.34.68.5,1A18.73,18.73,0,0,1,532.22,62Z"/><path class="cls-31" d="M502.38,38.12l0,0a.83.83,0,0,0,.15-1.15L489.11,19.64a.82.82,0,1,0-1.3,1L501.27,38A.81.81,0,0,0,502.38,38.12Z"/><path class="cls-24" d="M504.13,41.3A26.32,26.32,0,0,0,540.75,48a27.72,27.72,0,0,0,2.61-2.05,26.32,26.32,0,1,0-39.23-4.61Z"/><path class="cls-15" d="M543.36,45.91A26.32,26.32,0,0,0,530.89.51a31.2,31.2,0,0,0-12.27,5.06A28.46,28.46,0,0,0,507.7,19.84a22.06,22.06,0,0,0,1,16.77C514.46,48.26,530,52.39,543.36,45.91Z"/><path class="cls-16" d="M513,39.15a1.13,1.13,0,0,1,.1.13c6.45,7.76,18.74,9.92,29.53,4.58,12.33-6.12,18-19.73,12.74-30.41A20.28,20.28,0,0,0,541.29,2.83a21.84,21.84,0,0,0-2.17-.38,27.44,27.44,0,0,0-15.63,2.73c-12.33,6.12-18,19.73-12.75,30.41A19.55,19.55,0,0,0,513,39.15Z"/><path class="cls-17" d="M513,39.15a1.13,1.13,0,0,1,.1.13c6.45,7.76,18.74,9.92,29.53,4.58,12.33-6.12,18-19.73,12.74-30.41A20.28,20.28,0,0,0,541.29,2.83a38.82,38.82,0,0,1,10.05,12.86c1.28,2.66,2.27,5.61,1.83,8.53s-2.68,5.74-5.62,6c-2.11.19-4.1-.9-5.87-2.05s-3.57-2.44-5.67-2.72-4.56.9-4.87,3c-.25,1.65.88,3.17,2,4.38s2.49,2.42,2.79,4.07a5,5,0,0,1-2.68,4.92,11.32,11.32,0,0,1-5.82,1.09A33.33,33.33,0,0,1,513,39.15Z"/><ellipse class="cls-32" cx="503.82" cy="42.33" rx="5.41" ry="7.88" transform="translate(65.46 294.26) rotate(-34.69)"/><path class="cls-33" d="M500.11,44.9c1.39,2,3.63,2.86,5,1.91a2.2,2.2,0,0,0,.69-.79,4.65,4.65,0,0,0-.71-4.57,4.62,4.62,0,0,0-4-2.27,2.12,2.12,0,0,0-1,.36C498.71,40.5,498.72,42.9,500.11,44.9Z"/><path class="cls-31" d="M501.78,43.75a4.6,4.6,0,0,0,4,2.27,4.65,4.65,0,0,0-.71-4.57,4.62,4.62,0,0,0-4-2.27A4.6,4.6,0,0,0,501.78,43.75Z"/><path class="cls-24" d="M539.29,118.75l17.41,1.47,79.39,6.69,5.28.45,9.93.83.25.17.19-.13a9.29,9.29,0,0,0,2.16-2,7.18,7.18,0,0,0,.48-.69c1.52-2.53.84-5.21-2.66-6l-.19-.05a12.2,12.2,0,0,0-3.35-.15c-.53,0-1.17.06-1.9.07-1.37,0-3.08,0-5.06-.08-1.08,0-2.24-.08-3.46-.14-22.74-1.12-69.16-5.89-69.16-5.89S552.45,115.06,539.29,118.75Z"/><path class="cls-31" d="M651.3,128.19l.25.17.19-.13,2.69.23,3.29.28.2.11,0-.1,4.56.39c7.7-4.48-4.75-26.32-4.75-26.32h0c-.36,0-4.81.38-8.75,6.07a14.5,14.5,0,0,0-1.33,2.44l0,.09a20.18,20.18,0,0,0-1.33,8,22.61,22.61,0,0,0,.39,3.86A16.36,16.36,0,0,0,651.3,128.19Z"/><path class="cls-32" d="M654.38,125.55a10.91,10.91,0,0,0,3.34,3.19l.2.11,0-.1,4.56.39.44,0c3.81-1.63,6-7.57,5.09-14.19-1.06-7.39-5.66-12.84-10.28-12.17h0c-3.44.51-5.92,4.28-6.51,9.23a20.8,20.8,0,0,0,.09,5.33,18.75,18.75,0,0,0,.42,2.16c.13.52.28,1,.44,1.52h0c.16.51.35,1,.55,1.47h0A16.61,16.61,0,0,0,654.38,125.55Z"/><path class="cls-31" d="M641.37,127.36l9.93.83.25.17.19-.13,2.69.23c-.14-.73-.32-1.48-.53-2.22-.33-1.23-.73-2.48-1.18-3.7h0c-.18-.5-.36-1-.55-1.47h0c-.21-.53-.42-1.06-.63-1.57a86.59,86.59,0,0,0-3.92-8.07l-.05-.08h0c-.37,0-4.81.38-8.75,6.07a12.25,12.25,0,0,0-1,1.78,18.77,18.77,0,0,0-1.67,7.72Z"/><path class="cls-32" d="M654.43,128.46l3.29.28.2.11,0-.1a21.05,21.05,0,0,0-.1-5.24c-.77-5.4-3.44-9.76-6.63-11.46a5.88,5.88,0,0,0-3.57-.72h-.1c-3.15.47-5.49,3.66-6.32,8a20.29,20.29,0,0,0-.11,6.58c.07.49.16,1,.26,1.45l9.93.83.25.17.19-.13Z"/><path class="cls-24" d="M489.12,112.2a27.52,27.52,0,0,0,1.94,2.48c6.5,7.42,16.38,11.46,26.16,13.41a42.8,42.8,0,0,0,6.16.83,20.66,20.66,0,0,0,6.74-.68c4.17-1.2,8-4.47,8.71-8.75a6.44,6.44,0,0,0-2-6.09c-1.75-1.4-4.13-1.41-6.42-1.44l-1.15,0a23.14,23.14,0,0,1-14.14-5.57A22.86,22.86,0,0,1,510,99.93a22.54,22.54,0,0,1-2.21-5.84q-.1-.45-.18-.9c-1-5.49,0-11.13-.23-16.7-.19-4.69-3.55-17.85-10.72-13.49a12.34,12.34,0,0,0-3.11,3,46.8,46.8,0,0,0-9.87,22.48,34.74,34.74,0,0,0,3.4,20.35A27.55,27.55,0,0,0,489.12,112.2Z"/><path class="cls-15" d="M523.38,128.92a20.66,20.66,0,0,0,6.74-.68c4.17-1.2,8-4.47,8.71-8.75a6.44,6.44,0,0,0-2-6.09c-1.75-1.4-4.13-1.41-6.42-1.44a15.61,15.61,0,0,0-2.35,1.15,12.66,12.66,0,0,0-5.77,8A11.71,11.71,0,0,0,523.38,128.92Z"/><path class="cls-15" d="M489.12,112.2a27.52,27.52,0,0,0,1.94,2.48,9.9,9.9,0,0,1,.45-1.43,16,16,0,0,1,3.68-5.19A30.34,30.34,0,0,1,510,99.93a22.54,22.54,0,0,1-2.21-5.84,34.85,34.85,0,0,0-12.67,5.48,23.58,23.58,0,0,0-7.17,7.51,16.58,16.58,0,0,0-.87,1.8A27.55,27.55,0,0,0,489.12,112.2Z"/><path class="cls-15" d="M496.62,72.24c-.09-3.56-4.28-4.76-5.88-1.37-1.31,2.43-.61,6.49,2.25,7.4C495.4,78.59,496.85,74.17,496.62,72.24Z"/><path class="cls-25" d="M528.41,127.57a5.93,5.93,0,0,0,3.44,2,21.82,21.82,0,0,0,5.88.14,11.15,11.15,0,0,1,5.76.89l.5.29c.32.2.63.42.93.64s.65.46,1,.67a4.22,4.22,0,0,0,2.73.77,2.06,2.06,0,0,0,1.84-1.91,2.24,2.24,0,0,0,2.44.41,2.2,2.2,0,0,0,1.23-2.14,1.7,1.7,0,0,0,2.7-1.54c0,.43,1.68,0,1.88-.07a1.51,1.51,0,0,0,1.09-1.4,3.2,3.2,0,0,0-.38-1.65,7.3,7.3,0,0,0-2-2.42,10,10,0,0,0-1-.72l-.31-.19a25,25,0,0,0-4.35-1.86l-9.06-3.2a17.55,17.55,0,0,0-6.57-1.42,8.64,8.64,0,0,0-1.67.25,9.14,9.14,0,0,0-4,2.1,9.75,9.75,0,0,0-2.91,4.9c0,.14-.07.28-.1.43A6.28,6.28,0,0,0,528.41,127.57Z"/><path class="cls-26" d="M527.64,122.13l4.86,1.49a11.26,11.26,0,0,0,4.54.74c1.94-.23,3.6-1.43,5.17-2.6a4.79,4.79,0,0,0,1.14-1.06,1.64,1.64,0,0,0,.25-1.49,2.28,2.28,0,0,0-1-1,21.75,21.75,0,0,0-4-1.85,27.59,27.59,0,0,0-4.06-1.25,9.14,9.14,0,0,0-4,2.1A9.75,9.75,0,0,0,527.64,122.13Z"/><path class="cls-26" d="M544,130.91c.32.2.63.42.93.64a4.45,4.45,0,0,1,.86-1.07,4.5,4.5,0,0,1,2.77-1.15,4.05,4.05,0,0,1,1.4-2,1.84,1.84,0,0,1,1.59-.41,2.87,2.87,0,0,1,1-1.51,3.07,3.07,0,0,1,1.77-.63s0,0,.06,0a3.65,3.65,0,0,1,1.73-2,3.55,3.55,0,0,1,1.38-.41,10,10,0,0,0-1-.72,4.33,4.33,0,0,0-2.57,2.25,3.83,3.83,0,0,0-3.45,2.09,4.63,4.63,0,0,0-1.67.59A1.7,1.7,0,0,0,548,128a4.46,4.46,0,0,0-3.18,1.5A4.16,4.16,0,0,0,544,130.91Z"/><path class="cls-31" d="M565,87.56A10.29,10.29,0,0,1,560.27,92c-3.42,1.64-22.58,9.35-24.73,9s-11.41-21.18-10.66-23.15c.31-.81,2-1.4,2-1.4S556.1,75.94,565,87.56Z"/><path class="cls-32" d="M558.25,67.34s7.93,16.9,6.74,20.22c-.77,2.17-26.06,11.07-27.84,11.25-2.54.26-11.76-21.8-10.23-22.32S557.2,64.13,558.25,67.34Z"/><path class="cls-31" d="M536.08,80.08a2.74,2.74,0,0,0,1.44.31,1.21,1.21,0,0,0,.87-.38,2.77,2.77,0,0,0,.11-2.48,2,2,0,0,0-1.85-1.19,1.83,1.83,0,0,0-1.35.78A2,2,0,0,0,535,78,2.17,2.17,0,0,0,536.08,80.08Z"/><path class="cls-33" d="M536.08,80.08a2.74,2.74,0,0,0,1.44.31,3.12,3.12,0,0,0-.09-2.12,2,2,0,0,0-1.86-1.19l-.27,0A2,2,0,0,0,535,78,2.17,2.17,0,0,0,536.08,80.08Z"/><path class="cls-31" d="M544.58,84.87l11.85-4.08,1.81-.62-1.59-4-2,.63c-3.45,1.09-10.23,3.26-11,3.75C542.5,81.17,544.58,84.87,544.58,84.87Z"/><path class="cls-33" d="M544.58,84.87l11.85-4.08-1.79-4c-3.45,1.09-10.23,3.26-11,3.75C542.5,81.17,544.58,84.87,544.58,84.87Z"/><path class="cls-31" d="M539.66,89.11a1.18,1.18,0,0,0,.4-.1,1.62,1.62,0,0,0-1.32-2.9,1,1,0,0,0-.34.24,1.6,1.6,0,0,0-.19,1.75A1.58,1.58,0,0,0,539.66,89.11Z"/><path class="cls-33" d="M539.66,89.11a1.73,1.73,0,0,0-1.26-2.76,1.6,1.6,0,0,0-.19,1.75A1.58,1.58,0,0,0,539.66,89.11Z"/></g></g></g></svg>