<svg xmlns="http://www.w3.org/2000/svg" viewBox="0 0 1919 874"><defs><style>.cls-1{fill:#c6e6f3;}.cls-2{fill:#68cdf3;}.cls-3{fill:#ffe779;}.cls-4{fill:#fff;}.cls-5{fill:#dd503f;}.cls-6{fill:#51c3d4;}.cls-7{fill:#010b25;}</style></defs><title>section-2-dark-bg_1</title><g id="Layer_2" data-name="Layer 2"><g id="Layer_1-2" data-name="Layer 1"><path class="cls-1" d="M37.74,131.15a4.45,4.45,0,1,1,4.45,4.45A4.44,4.44,0,0,1,37.74,131.15Z"/><path class="cls-1" d="M1313.16,128.92a4.45,4.45,0,1,1,4.45,4.44A4.45,4.45,0,0,1,1313.16,128.92Z"/><path class="cls-1" d="M1862.84,135.63a4.45,4.45,0,1,1,4.45,4.44A4.45,4.45,0,0,1,1862.84,135.63Z"/><path class="cls-1" d="M428.58,605.35a2.5,2.5,0,1,1,2.5,2.5A2.5,2.5,0,0,1,428.58,605.35Z"/><path class="cls-2" d="M765.6,371.61a2.5,2.5,0,1,1,2.5,2.5A2.49,2.49,0,0,1,765.6,371.61Z"/><path class="cls-1" d="M30.57,256.76a2.5,2.5,0,1,1,2.5,2.5A2.5,2.5,0,0,1,30.57,256.76Z"/><path class="cls-1" d="M1148.94,731.51a2.58,2.58,0,1,1,2.57,2.58A2.57,2.57,0,0,1,1148.94,731.51Z"/><path class="cls-1" d="M1141.53,685.23a2.58,2.58,0,1,1,2.58,2.57A2.57,2.57,0,0,1,1141.53,685.23Z"/><path class="cls-1" d="M1345.1,602.19a2.58,2.58,0,1,1,2.58,2.57A2.57,2.57,0,0,1,1345.1,602.19Z"/><path class="cls-1" d="M254.73,457.43a2.58,2.58,0,1,1,2.58,2.58A2.58,2.58,0,0,1,254.73,457.43Z"/><path class="cls-1" d="M447.73,259.22a2.58,2.58,0,1,1,2.58,2.58A2.58,2.58,0,0,1,447.73,259.22Z"/><path class="cls-1" d="M746.41,652a2.58,2.58,0,1,1,2.57,2.58A2.57,2.57,0,0,1,746.41,652Z"/><path class="cls-3" d="M631,558.94a2.58,2.58,0,1,1,2.58,2.57A2.58,2.58,0,0,1,631,558.94Z"/><path class="cls-1" d="M559.88,481.14a2.58,2.58,0,1,1,2.58,2.58A2.58,2.58,0,0,1,559.88,481.14Z"/><path class="cls-3" d="M544.51,420.5a2.58,2.58,0,1,1,2.58,2.58A2.58,2.58,0,0,1,544.51,420.5Z"/><path class="cls-4" d="M519.46,292.15a2.58,2.58,0,1,1,2.58,2.57A2.57,2.57,0,0,1,519.46,292.15Z"/><path class="cls-3" d="M332.74,432.24a2.58,2.58,0,1,1,2.57,2.58A2.58,2.58,0,0,1,332.74,432.24Z"/><path class="cls-1" d="M858.87,451.63a2.58,2.58,0,1,1,2.57,2.57A2.57,2.57,0,0,1,858.87,451.63Z"/><path class="cls-1" d="M1058,332.24a2.58,2.58,0,1,1,2.58,2.58A2.57,2.57,0,0,1,1058,332.24Z"/><path class="cls-3" d="M1732.21,226.54a2.58,2.58,0,1,1,2.58,2.57A2.57,2.57,0,0,1,1732.21,226.54Z"/><path class="cls-1" d="M1828.06,170.87a2.58,2.58,0,1,1,2.58,2.58A2.58,2.58,0,0,1,1828.06,170.87Z"/><path class="cls-1" d="M1314.25,694.74a1.72,1.72,0,1,1,1.72,1.72A1.72,1.72,0,0,1,1314.25,694.74Z"/><path class="cls-1" d="M751.14,736.78a1.72,1.72,0,1,1,1.71,1.72A1.71,1.71,0,0,1,751.14,736.78Z"/><path class="cls-1" d="M808.35,713.83a1.72,1.72,0,1,1,1.72,1.71A1.72,1.72,0,0,1,808.35,713.83Z"/><path class="cls-1" d="M699.93,731.89a1.72,1.72,0,1,1,1.72,1.72A1.72,1.72,0,0,1,699.93,731.89Z"/><path class="cls-1" d="M631.82,261.15a1.72,1.72,0,1,1,1.71,1.71A1.71,1.71,0,0,1,631.82,261.15Z"/><path class="cls-1" d="M689,238.19a1.72,1.72,0,1,1,1.72,1.71A1.72,1.72,0,0,1,689,238.19Z"/><path class="cls-1" d="M580.61,256.26a1.72,1.72,0,1,1,1.72,1.71A1.72,1.72,0,0,1,580.61,256.26Z"/><path class="cls-1" d="M1041.12,242.1a1.72,1.72,0,1,1,1.72,1.71A1.72,1.72,0,0,1,1041.12,242.1Z"/><path class="cls-1" d="M895.5,222.29a1.72,1.72,0,1,1,1.72,1.72A1.72,1.72,0,0,1,895.5,222.29Z"/><path class="cls-1" d="M577.64,708a1.72,1.72,0,1,1,1.72,1.72A1.72,1.72,0,0,1,577.64,708Z"/><path class="cls-1" d="M634.86,685.09a1.72,1.72,0,1,1,1.71,1.71A1.71,1.71,0,0,1,634.86,685.09Z"/><path class="cls-1" d="M526.44,703.15a1.72,1.72,0,1,1,1.72,1.72A1.71,1.71,0,0,1,526.44,703.15Z"/><path class="cls-1" d="M1203.89,727.87a1.72,1.72,0,1,1,1.72,1.72A1.72,1.72,0,0,1,1203.89,727.87Z"/><path class="cls-1" d="M955.92,604.82a1.72,1.72,0,1,1,1.72,1.72A1.72,1.72,0,0,1,955.92,604.82Z"/><path class="cls-1" d="M129.71,492.88a1.72,1.72,0,1,1,1.72,1.72A1.71,1.71,0,0,1,129.71,492.88Z"/><path class="cls-1" d="M1738.94,182.9a1.72,1.72,0,1,1,1.72,1.72A1.72,1.72,0,0,1,1738.94,182.9Z"/><path class="cls-3" d="M1738.94,292.44a1.72,1.72,0,1,1,1.72,1.72A1.72,1.72,0,0,1,1738.94,292.44Z"/><path class="cls-1" d="M373.69,265.24a1,1,0,1,1,1,1A1,1,0,0,1,373.69,265.24Z"/><path class="cls-1" d="M347.61,366a1,1,0,1,1,1,1A1,1,0,0,1,347.61,366Z"/><path class="cls-1" d="M202.2,324.64a1,1,0,1,1,1,1A1,1,0,0,1,202.2,324.64Z"/><path class="cls-1" d="M327.38,266a1,1,0,1,1,1,1A1,1,0,0,1,327.38,266Z"/><path class="cls-1" d="M825.55,331.76a1,1,0,1,1,1,1A1,1,0,0,1,825.55,331.76Z"/><path class="cls-1" d="M799.47,432.48a1,1,0,1,1,1,1A1,1,0,0,1,799.47,432.48Z"/><path class="cls-1" d="M654.05,391.16a1,1,0,1,1,1,1A1,1,0,0,1,654.05,391.16Z"/><path class="cls-1" d="M779.24,332.48a1,1,0,1,1,1,1A1,1,0,0,1,779.24,332.48Z"/><path class="cls-1" d="M1178.94,393.36a1,1,0,1,1,1,1A1,1,0,0,1,1178.94,393.36Z"/><path class="cls-1" d="M1033.53,352a1,1,0,1,1,1,1A1,1,0,0,1,1033.53,352Z"/><path class="cls-1" d="M1107.47,264a1,1,0,1,1,2,0,1,1,0,0,1-2,0Z"/><path class="cls-1" d="M1472.34,414.87a1,1,0,1,1,1,1A1,1,0,0,1,1472.34,414.87Z"/><path class="cls-1" d="M1082.69,575.68a1,1,0,1,1,1,1A1,1,0,0,1,1082.69,575.68Z"/><path class="cls-1" d="M820.31,616.09a1,1,0,1,1,1,1A1,1,0,0,1,820.31,616.09Z"/><path class="cls-1" d="M1877.94,644.14a1.72,1.72,0,1,1,1.71,1.72A1.71,1.71,0,0,1,1877.94,644.14Z"/><path class="cls-1" d="M1878.55,521.57a1.72,1.72,0,1,1,1.72,1.72A1.72,1.72,0,0,1,1878.55,521.57Z"/><path class="cls-1" d="M1863.59,580.25a1.72,1.72,0,1,1,1.72,1.72A1.72,1.72,0,0,1,1863.59,580.25Z"/><path class="cls-1" d="M1902.62,457.67a1.72,1.72,0,1,1,1.72,1.72A1.72,1.72,0,0,1,1902.62,457.67Z"/><path class="cls-1" d="M1778.71,738a1.72,1.72,0,0,1,3.44,0"/><path class="cls-1" d="M1786.54,685.87a1.72,1.72,0,1,1,1.72,1.72A1.71,1.71,0,0,1,1786.54,685.87Z"/><path class="cls-1" d="M1831.47,671.53a1.72,1.72,0,1,1,1.72,1.72A1.72,1.72,0,0,1,1831.47,671.53Z"/><path class="cls-1" d="M1750.73,616.76a1.72,1.72,0,1,1,1.72,1.72A1.72,1.72,0,0,1,1750.73,616.76Z"/><path class="cls-1" d="M1910.9,180.58a1.72,1.72,0,1,1,1.71,1.72A1.72,1.72,0,0,1,1910.9,180.58Z"/><path class="cls-1" d="M1053.43,633.38a1.72,1.72,0,1,1,1.72,1.72A1.72,1.72,0,0,1,1053.43,633.38Z"/><path class="cls-4" d="M859.73,535.89a1.72,1.72,0,1,1,1.71,1.72A1.71,1.71,0,0,1,859.73,535.89Z"/><path class="cls-2" d="M786.27,285a1.72,1.72,0,1,1,1.72,1.72A1.72,1.72,0,0,1,786.27,285Z"/><path class="cls-1" d="M1242,260.89a1.72,1.72,0,0,1,3.43,0,1.72,1.72,0,1,1-3.43,0Z"/><path class="cls-1" d="M1123.58,434.74a1.72,1.72,0,1,1,1.72,1.72A1.71,1.71,0,0,1,1123.58,434.74Z"/><path class="cls-1" d="M1099.48,164.52a1.72,1.72,0,1,1,1.72,1.72A1.73,1.73,0,0,1,1099.48,164.52Z"/><path class="cls-1" d="M1408.55,242.7a1.72,1.72,0,1,1,1.72,1.72A1.72,1.72,0,0,1,1408.55,242.7Z"/><path class="cls-1" d="M1675.71,234.79a1.72,1.72,0,1,1,1.72,1.72A1.72,1.72,0,0,1,1675.71,234.79Z"/><path class="cls-1" d="M1557.25,289a1.72,1.72,0,1,1,1.72,1.72A1.72,1.72,0,0,1,1557.25,289Z"/><path class="cls-1" d="M1530.94,168.89a1.72,1.72,0,1,1,1.72,1.72A1.72,1.72,0,0,1,1530.94,168.89Z"/><path class="cls-1" d="M1842.23,216.6a1.72,1.72,0,1,1,1.72,1.72A1.72,1.72,0,0,1,1842.23,216.6Z"/><path class="cls-1" d="M527.43,628.49a1.72,1.72,0,1,1,1.72,1.72A1.73,1.73,0,0,1,527.43,628.49Z"/><path class="cls-1" d="M366.65,491a1.72,1.72,0,1,1,1.72,1.72A1.72,1.72,0,0,1,366.65,491Z"/><path class="cls-1" d="M248.2,545.17a1.72,1.72,0,1,1,1.71,1.72A1.71,1.71,0,0,1,248.2,545.17Z"/><path class="cls-4" d="M224.1,275a1.72,1.72,0,1,1,1.72,1.72A1.72,1.72,0,0,1,224.1,275Z"/><path class="cls-1" d="M449.9,472a1.72,1.72,0,1,1,1.72,1.72A1.72,1.72,0,0,1,449.9,472Z"/><path class="cls-1" d="M1738.34,686.53a1.72,1.72,0,1,1,1.72,1.72A1.72,1.72,0,0,1,1738.34,686.53Z"/><path class="cls-1" d="M1831.47,608.94a1.72,1.72,0,1,1,1.72,1.71A1.72,1.72,0,0,1,1831.47,608.94Z"/><path class="cls-1" d="M1390.61,655.59a1.72,1.72,0,1,1,1.72,1.72A1.72,1.72,0,0,1,1390.61,655.59Z"/><path class="cls-1" d="M166.22,416a1.72,1.72,0,1,1,1.71,1.72A1.72,1.72,0,0,1,166.22,416Z"/><path class="cls-1" d="M64.5,332.49a1.72,1.72,0,1,1,1.72,1.73A1.72,1.72,0,0,1,64.5,332.49Z"/><path class="cls-1" d="M766.2,212.58a1.72,1.72,0,1,1,1.72,1.73A1.72,1.72,0,0,1,766.2,212.58Z"/><path class="cls-3" d="M794.18,615.44a1.72,1.72,0,1,1,1.72,1.72A1.72,1.72,0,0,1,794.18,615.44Z"/><path class="cls-1" d="M1073.26,713.82a1.72,1.72,0,1,1,1.71,1.72A1.71,1.71,0,0,1,1073.26,713.82Z"/><path class="cls-1" d="M131.87,288.88a1.72,1.72,0,1,1,1.72,1.72A1.72,1.72,0,0,1,131.87,288.88Z"/><path class="cls-1" d="M149.94,164.4a1.72,1.72,0,1,1,1.72,1.72A1.72,1.72,0,0,1,149.94,164.4Z"/><path class="cls-1" d="M111.67,557a1.72,1.72,0,1,1,1.72,1.72A1.71,1.71,0,0,1,111.67,557Z"/><path class="cls-1" d="M346.23,691.8a1.72,1.72,0,1,1,1.72,1.72A1.72,1.72,0,0,1,346.23,691.8Z"/><path class="cls-1" d="M1576.59,633.11a1.72,1.72,0,1,1,1.72,1.73A1.72,1.72,0,0,1,1576.59,633.11Z"/><path class="cls-1" d="M1864.72,424.42a1.72,1.72,0,1,1,1.72,1.72A1.73,1.73,0,0,1,1864.72,424.42Z"/><path class="cls-1" d="M1265.58,517.71a1.72,1.72,0,1,1,1.71,1.72A1.72,1.72,0,0,1,1265.58,517.71Z"/><path class="cls-1" d="M232.83,392.48a1.72,1.72,0,1,1,1.71,1.72A1.72,1.72,0,0,1,232.83,392.48Z"/><path class="cls-1" d="M315.68,523a2.5,2.5,0,1,1,2.5,2.5A2.5,2.5,0,0,1,315.68,523Z"/><path class="cls-2" d="M18.45,182.47A2.5,2.5,0,1,1,21,185,2.5,2.5,0,0,1,18.45,182.47Z"/><path class="cls-4" d="M1458.09,244.71a2.5,2.5,0,1,1,2.5,2.5A2.5,2.5,0,0,1,1458.09,244.71Z"/><path class="cls-4" d="M1604.77,129.77a2.5,2.5,0,1,1,2.5,2.49A2.5,2.5,0,0,1,1604.77,129.77Z"/><path class="cls-1" d="M1008.94,560.69a4.45,4.45,0,1,1,4.45,4.44A4.45,4.45,0,0,1,1008.94,560.69Z"/><path class="cls-5" d="M1474.34,615.67a5.17,5.17,0,1,1,5.16,5.17A5.16,5.16,0,0,1,1474.34,615.67Z"/><path class="cls-5" d="M474.78,697.13A5.17,5.17,0,1,1,480,702.3,5.17,5.17,0,0,1,474.78,697.13Z"/><path class="cls-1" d="M481.79,145.71a4.45,4.45,0,1,1,4.44,4.45A4.44,4.44,0,0,1,481.79,145.71Z"/><path class="cls-1" d="M1654.29,123.21a4.45,4.45,0,1,1,4.44,4.45A4.44,4.44,0,0,1,1654.29,123.21Z"/><path class="cls-1" d="M1068.94,119.31a2.5,2.5,0,1,1,2.5,2.5A2.5,2.5,0,0,1,1068.94,119.31Z"/><path class="cls-1" d="M155.28,118.33a2.58,2.58,0,1,1,2.58,2.58A2.57,2.57,0,0,1,155.28,118.33Z"/><path class="cls-1" d="M1374.9,120.44a1.72,1.72,0,1,1,1.72,1.72A1.72,1.72,0,0,1,1374.9,120.44Z"/><path class="cls-1" d="M738.8,133.16a1.72,1.72,0,1,1,1.72,1.72A1.71,1.71,0,0,1,738.8,133.16Z"/><path class="cls-1" d="M1224.45,132.36a1.72,1.72,0,1,1,1.71,1.72A1.7,1.7,0,0,1,1224.45,132.36Z"/><path class="cls-1" d="M64.61,126.86a1.72,1.72,0,1,1,1.72,1.72A1.71,1.71,0,0,1,64.61,126.86Z"/><path class="cls-1" d="M3.23,139.79A1.72,1.72,0,1,1,5,141.51,1.72,1.72,0,0,1,3.23,139.79Z"/><path class="cls-1" d="M1311.71,127.06a2.58,2.58,0,1,1,2.58,2.58A2.58,2.58,0,0,1,1311.71,127.06Z"/><path class="cls-1" d="M983.8,132.19a1.72,1.72,0,1,1,1.71,1.72A1.72,1.72,0,0,1,983.8,132.19Z"/><path class="cls-1" d="M1177.67,132.52a1,1,0,1,1,1,1A1,1,0,0,1,1177.67,132.52Z"/><path class="cls-1" d="M329.41,136.42a1,1,0,1,1,1,1A1,1,0,0,1,329.41,136.42Z"/><path class="cls-1" d="M1099.84,136.62a1.72,1.72,0,1,1,1.72,1.71A1.71,1.71,0,0,1,1099.84,136.62Z"/><path class="cls-1" d="M124.07,128.58a1.72,1.72,0,1,1,1.71,1.72A1.72,1.72,0,0,1,124.07,128.58Z"/><path class="cls-5" d="M380,134.88a1.95,1.95,0,1,1,2,2A1.94,1.94,0,0,1,380,134.88Z"/><path class="cls-5" d="M563.87,113.66a5.17,5.17,0,1,1,5.16,5.17A5.16,5.16,0,0,1,563.87,113.66Z"/><path class="cls-6" d="M1285.13,199.44a5.17,5.17,0,1,1,5.17,5.17A5.17,5.17,0,0,1,1285.13,199.44Z"/><path class="cls-5" d="M595.56,336.39a1.95,1.95,0,1,1,2,1.95A2,2,0,0,1,595.56,336.39Z"/><path class="cls-1" d="M1583.64,244.14a4.45,4.45,0,1,1,4.45,4.45A4.44,4.44,0,0,1,1583.64,244.14Z"/><path class="cls-1" d="M1.51,522.72A4.45,4.45,0,1,1,6,527.17,4.44,4.44,0,0,1,1.51,522.72Z"/><path class="cls-1" d="M283.61,172.43a4.45,4.45,0,1,1,4.45,4.44A4.45,4.45,0,0,1,283.61,172.43Z"/><path class="cls-7" d="M435.68,495.26C573,528.33,876.18,616.15,817,644.94s-450.37-57.57-683.77,23-111.77-28.78,0-54.68,410.92-2.88,302.44-51.82S304.18,463.6,435.68,495.26Zm1391-148.53c-93.18,57-189.89,49.26-309.45,33.86-128.32-16.52-465.94-93.9-471.22-67.73-3.11,15.46,460.67,92.37,450.12,146.25s-218,20-223.3,47.72S1628,553,1833.73,719.28c131.88,106.59,66.81-4.62-31.65-72.36s-139.45-147.64-38.69-184.73c154.73-57,173.09-220.49,144.18-207.83C1893.51,260.52,1872.28,318.86,1826.69,346.73ZM461.11,244.81c-311.8,71.84,44.55,126,520.45,292.29,273,95.4,276.62,268.91-354,195C346.24,699.15,62.38,803.91,33.73,874H1905c-2.14-10.18-5.9-19.6-11.47-31C1778.64,606.9,913.57,535.06,972.18,481.69s245,22,232.08-51.31C1194.89,377,693.2,372.9,819.79,241.54s820.53,205.26,1010.42,2.05C1944.36,121.43,1647.62,41.92,1392.75,0H128.21C646.31,83.8,700,189.78,461.11,244.81Z"/></g></g></svg>