<svg xmlns="http://www.w3.org/2000/svg" xmlns:xlink="http://www.w3.org/1999/xlink" viewBox="0 0 1920 1080" preserveAspectRatio="none"><defs><style>.cls-1{isolation:isolate}.cls-3{opacity:.4}.cls-4{fill:url(#linear-gradient-2)}.cls-5{fill:url(#linear-gradient-3)}.cls-6{fill:url(#linear-gradient-4)}.cls-7{fill:url(#linear-gradient-5)}.cls-8{fill:url(#linear-gradient-6)}.cls-9{fill:url(#linear-gradient-7)}.cls-10{fill:url(#linear-gradient-8)}.cls-11{fill:url(#linear-gradient-9)}.cls-12{fill:url(#linear-gradient-10)}.cls-13{fill:url(#linear-gradient-11)}.cls-14{fill:url(#linear-gradient-12)}.cls-15{fill:url(#linear-gradient-13)}.cls-16{fill:url(#linear-gradient-14)}.cls-17{fill:url(#linear-gradient-15)}.cls-18{fill:url(#linear-gradient-16)}.cls-19{fill:url(#linear-gradient-17)}.cls-20{fill:url(#linear-gradient-18)}.cls-21{fill:url(#linear-gradient-19)}.cls-22{fill:url(#linear-gradient-20)}.cls-23{fill:url(#linear-gradient-21)}.cls-24,.cls-26,.cls-28,.cls-30,.cls-32,.cls-34,.cls-36,.cls-38,.cls-40,.cls-42{mix-blend-mode:multiply}.cls-24{fill:url(#linear-gradient-22)}.cls-25{fill:url(#linear-gradient-23)}.cls-26{fill:url(#linear-gradient-24)}.cls-27{fill:url(#linear-gradient-25)}.cls-28{fill:url(#linear-gradient-26)}.cls-29{fill:url(#linear-gradient-27)}.cls-30{fill:url(#linear-gradient-28)}.cls-31{fill:url(#linear-gradient-29)}.cls-32{fill:url(#linear-gradient-30)}.cls-33{fill:url(#linear-gradient-31)}.cls-34{fill:url(#linear-gradient-32)}.cls-35{fill:url(#linear-gradient-33)}.cls-36{fill:url(#linear-gradient-34)}.cls-37{fill:url(#linear-gradient-35)}.cls-38{fill:url(#linear-gradient-36)}.cls-39{fill:url(#linear-gradient-37)}.cls-40{fill:url(#linear-gradient-38)}.cls-41{fill:url(#linear-gradient-39)}.cls-42{fill:url(#linear-gradient-40)}.cls-43{fill:url(#linear-gradient-41)}.cls-44{fill:url(#linear-gradient-42)}.cls-45{fill:url(#linear-gradient-43)}</style><linearGradient id="linear-gradient-2" x1="811.48" y1="563.75" x2="803.92" y2="804.39" gradientUnits="userSpaceOnUse"><stop offset="0" stop-color="#d99d87"/><stop offset="0.28" stop-color="#d1927b"/><stop offset="0.8" stop-color="#bd745a"/><stop offset="1" stop-color="#b4664b"/></linearGradient><linearGradient id="linear-gradient-3" x1="385.85" y1="497.45" x2="524.66" y2="763.05" gradientUnits="userSpaceOnUse"><stop offset="0" stop-color="#cc7a64"/><stop offset="0.96" stop-color="#c07460"/><stop offset="1" stop-color="#bf7460"/></linearGradient><linearGradient id="linear-gradient-4" x1="1205.13" y1="604.17" x2="1237.32" y2="759.93" gradientUnits="userSpaceOnUse"><stop offset="0" stop-color="#c97860"/><stop offset="0.91" stop-color="#d58467"/><stop offset="1" stop-color="#d78668"/></linearGradient><linearGradient id="linear-gradient-5" x1="1399.28" y1="661.48" x2="1403.01" y2="939.25" xlink:href="#linear-gradient-3"/><linearGradient id="linear-gradient-6" x1="1296.45" y1="650.6" x2="1471.04" y2="866.14" gradientUnits="userSpaceOnUse"><stop offset="0" stop-color="#ca7860"/><stop offset="0.49" stop-color="#d1846c"/><stop offset="1" stop-color="#da967d"/></linearGradient><linearGradient id="linear-gradient-7" x1="1320.04" y1="755.1" x2="1325.15" y2="859.19" gradientUnits="userSpaceOnUse"><stop offset="0" stop-color="#d57e60"/><stop offset="0.34" stop-color="#c97359"/><stop offset="0.95" stop-color="#a85546"/><stop offset="1" stop-color="#a55244"/></linearGradient><linearGradient id="linear-gradient-8" x1="1403.52" y1="750.09" x2="1389.02" y2="823.18" gradientUnits="userSpaceOnUse"><stop offset="0" stop-color="#ca7658"/><stop offset="0.53" stop-color="#c16a52"/><stop offset="1" stop-color="#b65b4b"/></linearGradient><linearGradient id="linear-gradient-9" x1="618.75" y1="582.02" x2="618.75" y2="773.23" gradientUnits="userSpaceOnUse"><stop offset="0" stop-color="#da8669"/><stop offset="0.45" stop-color="#d98f75"/><stop offset="1" stop-color="#d89f8b"/></linearGradient><linearGradient id="linear-gradient-10" x1="1597.42" y1="781.32" x2="1597.42" y2="895.74" gradientUnits="userSpaceOnUse"><stop offset="0" stop-color="#d99f89"/><stop offset="0.57" stop-color="#da977d"/><stop offset="1" stop-color="#db8e70"/></linearGradient><linearGradient id="linear-gradient-11" x1="1820.89" y1="772.58" x2="1784.31" y2="838.87" gradientUnits="userSpaceOnUse"><stop offset="0" stop-color="#b4674b"/><stop offset="1" stop-color="#b45b4e"/></linearGradient><linearGradient id="linear-gradient-12" x1="1601.26" y1="937.39" x2="1601.26" y2="882.36" gradientUnits="userSpaceOnUse"><stop offset="0" stop-color="#e67c42" stop-opacity="0"/><stop offset="0.12" stop-color="#e37a43" stop-opacity="0.07"/><stop offset="0.33" stop-color="#d97445" stop-opacity="0.25"/><stop offset="0.62" stop-color="#cb6a49" stop-opacity="0.55"/><stop offset="0.96" stop-color="#b65c4d" stop-opacity="0.96"/><stop offset="1" stop-color="#b45b4e"/></linearGradient><linearGradient id="linear-gradient-13" x1="1135.97" y1="695.25" x2="988.35" y2="794.3" gradientUnits="userSpaceOnUse"><stop offset="0" stop-color="#dc8f73"/><stop offset="0.78" stop-color="#d4836a"/><stop offset="1" stop-color="#d17e66"/></linearGradient><linearGradient id="linear-gradient-14" x1="67.57" y1="600.65" x2="88.08" y2="740.13" gradientUnits="userSpaceOnUse"><stop offset="0" stop-color="#db8d70"/><stop offset="0.65" stop-color="#d18167"/><stop offset="1" stop-color="#ca7860"/></linearGradient><linearGradient id="linear-gradient-15" x1="500.38" y1="887.38" x2="506.77" y2="744.86" xlink:href="#linear-gradient-13"/><linearGradient id="linear-gradient-16" x1="718.36" y1="896.76" x2="796.66" y2="780.97" gradientUnits="userSpaceOnUse"><stop offset="0" stop-color="#cc7a64"/><stop offset="1" stop-color="#ca7860"/></linearGradient><linearGradient id="linear-gradient-17" x1="1866.34" y1="578.08" x2="1820.11" y2="741.48" xlink:href="#linear-gradient-12"/><linearGradient id="linear-gradient-18" x1="960" y1="1073.57" x2="960" y2="705.69" gradientUnits="userSpaceOnUse"><stop offset="0" stop-color="#f2bdaa"/><stop offset="0.46" stop-color="#eeb49e"/><stop offset="1" stop-color="#e8a589"/></linearGradient><linearGradient id="linear-gradient-19" x1="839.12" y1="988.44" x2="679.52" y2="853.02" gradientUnits="userSpaceOnUse"><stop offset="0" stop-color="#f2bca6" stop-opacity="0.2"/><stop offset="0.12" stop-color="#f0b8a2" stop-opacity="0.26"/><stop offset="0.35" stop-color="#ebad96" stop-opacity="0.42"/><stop offset="0.65" stop-color="#e39c84" stop-opacity="0.67"/><stop offset="1" stop-color="#d8866c"/></linearGradient><linearGradient id="linear-gradient-20" x1="1379.67" y1="963.45" x2="975.97" y2="954.09" gradientUnits="userSpaceOnUse"><stop offset="0" stop-color="#f3bda7" stop-opacity="0.2"/><stop offset="0.13" stop-color="#f1b8a2" stop-opacity="0.26"/><stop offset="0.36" stop-color="#eaac95" stop-opacity="0.42"/><stop offset="0.67" stop-color="#e09981" stop-opacity="0.69"/><stop offset="1" stop-color="#d38268"/></linearGradient><linearGradient id="linear-gradient-21" x1="1535.97" y1="848.5" x2="1394.36" y2="898.27" gradientUnits="userSpaceOnUse"><stop offset="0" stop-color="#f3bda8" stop-opacity="0.2"/><stop offset="0.12" stop-color="#f1b9a4" stop-opacity="0.26"/><stop offset="0.35" stop-color="#ecae98" stop-opacity="0.42"/><stop offset="0.66" stop-color="#e39d85" stop-opacity="0.67"/><stop offset="1" stop-color="#d8866c"/></linearGradient><linearGradient id="linear-gradient-22" x1="285.94" y1="877.41" x2="218.79" y2="877.41" gradientUnits="userSpaceOnUse"><stop offset="0" stop-color="#fff" stop-opacity="0"/><stop offset="1" stop-color="#e2ab9f" stop-opacity="0.4"/></linearGradient><linearGradient id="linear-gradient-23" x1="147.23" y1="856.22" x2="176.28" y2="888.14" gradientUnits="userSpaceOnUse"><stop offset="0" stop-color="#f1a386"/><stop offset="0.61" stop-color="#e79780"/><stop offset="1" stop-color="#df8c7a"/></linearGradient><linearGradient id="linear-gradient-24" x1="788.77" y1="962.28" x2="721.62" y2="962.28" xlink:href="#linear-gradient-22"/><linearGradient id="linear-gradient-25" x1="650.06" y1="941.1" x2="679.1" y2="973.01" gradientUnits="userSpaceOnUse"><stop offset="0" stop-color="#f0a285"/><stop offset="0.63" stop-color="#e6967f"/><stop offset="1" stop-color="#df8c7a"/></linearGradient><linearGradient id="linear-gradient-26" x1="1762.03" y1="1020.52" x2="1671.52" y2="1020.52" xlink:href="#linear-gradient-22"/><linearGradient id="linear-gradient-27" x1="1575.07" y1="991.97" x2="1614.22" y2="1034.98" gradientUnits="userSpaceOnUse"><stop offset="0" stop-color="#f29d7b"/><stop offset="0.78" stop-color="#e79176"/><stop offset="1" stop-color="#e38c74"/></linearGradient><linearGradient id="linear-gradient-28" x1="1627.43" y1="940.76" x2="1475.94" y2="940.76" xlink:href="#linear-gradient-22"/><linearGradient id="linear-gradient-29" x1="1314.5" y1="892.97" x2="1380.03" y2="964.97" gradientUnits="userSpaceOnUse"><stop offset="0" stop-color="#f09d7e"/><stop offset="0.78" stop-color="#e79177"/><stop offset="1" stop-color="#e38c74"/></linearGradient><linearGradient id="linear-gradient-30" x1="634.11" y1="1009.3" x2="436.93" y2="1009.3" xlink:href="#linear-gradient-22"/><linearGradient id="linear-gradient-31" x1="226.79" y1="947.1" x2="312.09" y2="1040.81" gradientUnits="userSpaceOnUse"><stop offset="0" stop-color="#efa389"/><stop offset="0.61" stop-color="#e59782"/><stop offset="1" stop-color="#dd8c7c"/></linearGradient><linearGradient id="linear-gradient-32" x1="272.38" y1="890.21" x2="228.06" y2="890.21" xlink:href="#linear-gradient-22"/><linearGradient id="linear-gradient-33" x1="180.83" y1="876.23" x2="200" y2="897.29" gradientUnits="userSpaceOnUse"><stop offset="0" stop-color="#efa085"/><stop offset="0.68" stop-color="#e5947e"/><stop offset="1" stop-color="#df8c7a"/></linearGradient><linearGradient id="linear-gradient-34" x1="657.95" y1="798.41" x2="625.47" y2="798.41" xlink:href="#linear-gradient-22"/><linearGradient id="linear-gradient-35" x1="590.86" y1="788.17" x2="604.91" y2="803.6" gradientUnits="userSpaceOnUse"><stop offset="0" stop-color="#f09f81"/><stop offset="0.71" stop-color="#e5937c"/><stop offset="1" stop-color="#df8c7a"/></linearGradient><linearGradient id="linear-gradient-36" x1="1360.41" y1="962.28" x2="1293.26" y2="962.28" xlink:href="#linear-gradient-22"/><linearGradient id="linear-gradient-37" x1="1221.7" y1="941.1" x2="1250.74" y2="973.01" gradientUnits="userSpaceOnUse"><stop offset="0" stop-color="#f0a082"/><stop offset="0.68" stop-color="#e7947b"/><stop offset="1" stop-color="#e18c77"/></linearGradient><linearGradient id="linear-gradient-38" x1="978.88" y1="903.2" x2="911.73" y2="903.2" xlink:href="#linear-gradient-22"/><linearGradient id="linear-gradient-39" x1="840.17" y1="882.02" x2="869.22" y2="913.93" gradientUnits="userSpaceOnUse"><stop offset="0" stop-color="#efa185"/><stop offset="0.65" stop-color="#e6957f"/><stop offset="1" stop-color="#df8c7a"/></linearGradient><linearGradient id="linear-gradient-40" x1="1854.24" y1="918.01" x2="1787.09" y2="918.01" xlink:href="#linear-gradient-22"/><linearGradient id="linear-gradient-41" x1="1715.53" y1="896.83" x2="1744.58" y2="928.74" xlink:href="#linear-gradient-29"/><linearGradient id="linear-gradient-42" x1="246.5" y1="794.88" x2="504.23" y2="778.33" gradientUnits="userSpaceOnUse"><stop offset="0" stop-color="#f3bda7" stop-opacity="0.1"/><stop offset="0.11" stop-color="#f1b9a3" stop-opacity="0.16"/><stop offset="0.32" stop-color="#edb099" stop-opacity="0.31"/><stop offset="0.59" stop-color="#e5a189" stop-opacity="0.56"/><stop offset="0.92" stop-color="#db8c72" stop-opacity="0.91"/><stop offset="1" stop-color="#d8866c"/></linearGradient><linearGradient id="linear-gradient-43" x1="51.12" y1="941.27" x2="193.65" y2="932.12" gradientUnits="userSpaceOnUse"><stop offset="0" stop-color="#f3bca7" stop-opacity="0.2"/><stop offset="0.12" stop-color="#f1b8a3" stop-opacity="0.26"/><stop offset="0.35" stop-color="#ecad97" stop-opacity="0.42"/><stop offset="0.66" stop-color="#e39c84" stop-opacity="0.67"/><stop offset="1" stop-color="#d8866c"/></linearGradient></defs><title>section-7-light-overlay</title><g class="cls-1"><g class="cls-3"><g><path class="cls-4" d="M1438.83,722.11s-88.6-12.25-132.9-12-136-14.63-162.58-14.63-64-10-78.51-18.66-45.76-32.33-54-33.58-72.74,5-89-8.72-31.08-17.6-40.73-20.92-56.51-25.08-74.4-37.51-33.22-32.34-40.89-34.83-42.62-14.89-60.51-19.26-40.89-7.47-46-3.11-69.21,41-81,47.88-41.36,14.3-51.73,25.49-35.07,23.89-52.11,27.18-29.81,9.44-38.34,4.5-28.13-17.35-38.37-14.25-37.49,19.25-64.76,24.86-73.26,24.45-91.15,32.76-83.49,33.79-83.49,33.79v137.17h1293.3z"/><path class="cls-5" d="M184.21,691c29.14,33.71,98.84,17.65,128.36,18.93,30.67,1.33,110.75-20,133.75-25.58s50.27-9.95,80.22-13.68,21.16-10,44.17-15.54,62.19-9.33,72.41-20.54-18.74-29.21-22.85-36.67,3.25-1.87,16.2-16.79,70.53-34.86,70.53-47.3c0-9.34-26.95-13.07-47.21-15.24a4.78,4.78,0,0,0-.5,.32c-5.12,4.35-69.21,41-81,47.88s-41.36,14.3-51.73,25.49-35.07,23.89-52.11,27.18-29.81,9.44-38.34,4.5-28.11-17.37-38.35-14.27-37.49,19.25-64.76,24.86-73.26,24.45-91.15,32.76c-10.46,4.85-37.21,15.58-57.64,23.69z"/><path class="cls-6" d="M1069.09,710.14c42.17,10.86,34.69,29.84,74.26,42s89.31,31.46,171.1,22.09c72.25-8.28,115.55-16,124.67-49.45l-.29-2.65s-88.6-12.25-132.9-12-136-14.63-162.58-14.63-64-10-78.51-18.66-45.76-32.33-54-33.58a56.54,56.54,0,0,0-7-.15c6.62,30.76,34.16,59.04,65.25,67.03z"/><path class="cls-7" d="M1920,638.3s-20.27-8.08-28.78-10.57-20.45-2.49-34.08-8.71-21.3-14.3-30.67-17.41-30.67-29.23-38.34-30.47-61.33,13.68-69.86,21.14-14.1,30.47-28.77,37.93-27.29,6.22-32.49,8.09-5.19,6.84-19.67,7.46-42.6-2.49-48.56-6.22-18.74-6.84-26.41-3.73-58.79,26.12-69.86,38.55-57.93,26.74-87.75,34.2-56.23,14.89-70.71,23.61-52.82,11.84-73.27,15-25.56,11.19-37.49,12.43-76.53,8.17-97.9,14.66-104.63,51.25-154.16,66.18a888.3,888.3,0,0,0-90.14,32.77h1038.91z"/><path class="cls-8" d="M1134.9,783.49c35.78,7,97.76-4.19,157.18-8.86s64.54-7.93,96.8-14,47-7,57.19-8.52,28.76-4.07,43.45-10.6,3.2-18.65,3.84-22.85,10.86-7.46,15.33-9.8,13.42-4.66,26.41-4.66,46.43-17.72,49.63-21.92-6.39-12.12-16.3-15-12.43-9.71-12.43-19.03c0-5,7-10,13.58-13.7a20.09,20.09,0,0,0-7.18,1.26c-7.67,3.11-58.79,26.12-69.86,38.55s-57.93,26.74-87.75,34.2-56.23,14.89-70.71,23.61-52.82,11.84-73.27,15-25.56,11.19-37.49,12.43-76.53,8.17-97.9,14.66c-2.79,.85-6.67,2.36-11.38,4.37,6.5,1.73,13.51,3.43,20.86,4.86z"/><path class="cls-9" d="M1114.82,783s79-9.13,93.29-14.1,48.41-16.23,66.72-12.78,53.26,21.71,75.4,26.88a599.21,599.21,0,0,1,77.53,23.83c27.24,10.55,107.34,25.17,107.34,25.17v46.94h-420.28z"/><path class="cls-10" d="M1535.1,832s-80.08-14.61-107.34-25.18a599.21,599.21,0,0,0-77.53-23.82c-21.91-5.12-56.31-23-74.78-26.74-8.12,2.59-16.59,5.92-16.59,8.6,0,5.13-15,3.35-16.13,9.37s11,15.66,32.1,20.4,47.86,13.6,50.13,15,12.49-.69,18.24,7.58,14.7,11.92,32,15.93,25.56,25,68.37,25.92c27.21,.6,66.52,8.46,91.58,14.12z"/><path class="cls-11" d="M1234.37,833.12c-25.56-5.79-53.67-29.43-64.75-34.71s-27.06-29.53-35.25-33.26-36.3-22.39-69.53-29.85-78.16-26.74-93.61-30.47-55.23-16.83-70.23-23.63-41.45-17.41-52.53-15.54-172.12,26.74-203.65,27.34-52.81,14.3-89.45,8.08-69.86-8.08-85.2-16.17-40.88-19.71-55.37-19.49-91.15-6-107.34-12.84-10.69-11.81-29.63-12.44-65.83-.62-90.95-5-63.44-11.77-75.37-11.14-44.3,14.3-53.68,21.14-11.92,12.44-25.55,13.68-29.15,8.7-29.15,8.7v172.87h1231.24z"/><path class="cls-12" d="M1920,834.79s-38.84-11.19-54.15-18.19-44.71-30.31-56.21-31.24-30.67-8.86-44.09-10.73-31.31-5.59-40.25-9.33-38.34-14.45-47.29-13-60.01,24.7-74.11,26.53-46,7-70.29,21.45-61.67,28-81.95,32.18-69.48,8.4-89.93,12.59-86.9,48.69-86.9,48.69h645.17z"/><path class="cls-13" d="M1809.64,785.36c-11.5-.93-30.67-8.86-44.09-10.73s-31.31-5.59-40.25-9.33-38.34-14.45-47.29-13a24.56,24.56,0,0,0-3.33,.86,12.58,12.58,0,0,0-5.4,8.31c-1.27,8.7,3,24.25,11.93,30.78s26,2.18,31.52,9,16.19,13.67,27.26,15.23,30.07,8.4,36.34,11.82,2.85,23.31,23.3,29.84,46,21.77,90.31,23.94a147.76,147.76,0,0,0,30.06-1.7v-45.59s-38.84-11.19-54.15-18.19-44.71-30.31-56.21-31.24z"/><path class="cls-14" d="M1750.86,889.82s-44.78-12.12-61.36-18.18-24.49-17.73-35.88-21.92-15.22-13.06-21.61-11.2-18.71,11.66-34.59,15.86-60.61,8.14-79.14,9.67-42.18,9.95-42.18,9.95l-24.44,9.79z"/><path class="cls-15" d="M1234.37,833.12c-25.56-5.79-53.67-29.43-64.75-34.71s-27.06-29.53-35.25-33.26-36.3-22.39-69.53-29.85-78.16-26.74-93.61-30.47-55.23-16.83-70.23-23.63c-10.07-4.58-25.23-10.81-37.48-13.89-6.69,4-12,8.79-18.46,12.65-9.37,5.6-22.84,12.75-18.45,18.34s40.17,18.35,64,21.46,57.53,8.39,61.56,10.88,8.3,7.15,17.67,7.15,23.43,7.46,28.11,9,20.45,2.55,25.56,5.32-13.21,11.79-23.85,13-23,3.73-26.84,9,10.18,12.49,11.08,16.53,11.07,8.9,23.85,10.36,32.37,.84,39.19,3.63,4.26,18.66,20.87,20.52c7.47,.84,22.12,7.91,41,15.24h125.56z"/><path class="cls-16" d="M3.13,802a360.72,360.72,0,0,0,39.73-19c8.25-4.7,26.9-4.15,64.6-3.68s72.84-13.53,73.48-18.19-14.7-7.46-42.17-11.66-16-15.86-32.94-19.59-48.21-1.4-59.71-4.2,11.5-7,7-13,8.3-8.4,17.25-17.26,32.59-14,53.67-16.79,44.73-22.85,44.73-28.91-21.09-6.07-30.67-11.66-19.17-6.53-28.75-9.33c-2.69-.78-7.32-1.13-12.61-1.22-14.26,4.65-32.32,12.87-38.94,17.7-9.37,6.84-11.92,12.44-25.55,13.68s-29.15,8.7-29.15,8.7z"/><path class="cls-17" d="M227.73,802c47.35-9.47,64.39-26.26,79.72-31.86s60.49-29.22,92.86-30.46,52-13.06,67.31-17.42,46-10.57,75.82,0,35.61,25.29,75.31,31.61,70.19,18.28,99.67,32.82,61.37,27.6,61.37,27.6v17.71h-553.79z"/><path class="cls-18" d="M620.27,758.31s63.76-5,90.59,0,61.53,2.49,77.4,8.08-3.17,13.28,8.48,16.59,16.18,6,44.59,10.85,63.65,8.83,72,16.5,39.77,22.79,39.77,22.79h-332.83z"/><path class="cls-19" d="M1857.14,619c-13.63-6.22-21.3-14.3-30.67-17.41-8.31-2.75-26-23.58-35.23-29.14h0s-37.19,16.55-28.24,30.55,17.67,28-1.39,35-20.34,30.78,7.14,37.77,62.61,8.86,81.14,17.26-17.89,16.32-10.22,22.38,8.31,14.89,35.14,16.77c11.81,.83,29.3,4,45.19,7.3v-101.18s-20.27-8.08-28.78-10.57-20.45-2.49-34.08-8.73z"/></g><g><path class="cls-20" d="M0,786.91s44.21,3.09,66.36,2.49,31.51-1.2,31.51-1.2,19.6,6.8,48.56,6.8,132.48-14,152.08-14,65.17,3.11,80.51,0,54.94-15.55,70.71-19,24.28-2.49,29.81-3.42,11.08-.93,18.32-3.11,41.32-21.14,45.58-22.07a25.83,25.83,0,0,1,11.08,0c2.13,.62,2.55,2.48,15.33,1.86s26.41-1.55,30.25-.93,11.07,4,18.74,8.39,32.37,16.48,59.21,22.7,58.36,13.06,63.47,15.23,34.5,20.52,53.25,23.94,145.09,7.78,216.09,5.91,93.16-3.73,99.13-3.11,12.35,5.6,57.07,7.78,118,3.11,124,3.11,9.38,3.11,16.19,3.11,18.31,7.15,20,8.08,7.67,12.44,20.45,16.17,24.28,9.32,36.2,11.5,77.53,6.53,88.18,7.15,16.18,3.42,30.67,5.6,109.48,6.84,129.92,8.39,22.58,2.8,30.67,3.73,56.66,.31,85.19,0,34.51-6.53,37.92-6.53,30.24,1.56,40.89,3.11,16.19,.94,22.15-.62,18.32-4,24.28-4,46.23-.97,46.23-.97v207h-1920z"/><path class="cls-21" d="M710.86,838.27c-20.2,4.76-17.57,36.1-74.39,45.69s-125.83,37.28-106.66,60.28,102.19,29.61,167.41,43.56,184.67,35.55,224.6,25.69-27.8-64.7,5.42-72.73,84.32-25,63.25-42.63-163.76-87.13-279.63-59.86z"/><path class="cls-22" d="M1125.39,906.42c-15.39,1.48-41.39,17.91-74.82,26.58s-97.74,16.17-98.39,26.74,75.18,24.33,112.66,28,57.07,18.78,115.85,21.5,80.09,4.72,163.57,4.65,203.15-24.89,195.74-33.59-115.63-.4-148.86-12.95-75-36.15-116.29-38-92.31-28.35-149.46-22.93z"/><path class="cls-23" d="M1302.52,872.1c3.41,3.11-11.92,19.11,17,26s89.48,13.9,126.98,10.45,69.39-9.26,93.48-10.42,52.2,7.68,95.65,11.35,68.07-3.06,68.07-3.06l2-23.94c-19.81,.13-37.71,.11-42.35-.43-8.09-.93-10.22-2.17-30.67-3.73s-115.44-6.22-129.92-8.39-20-5-30.67-5.6-76.25-5-88.18-7.15-23.42-7.77-36.2-11.5-18.75-15.24-20.45-16.17-13.21-8.08-20-8.08a28.39,28.39,0,0,1-9.28-1.83c-12.18,1.68-26.38,4.25-33.75,7.73-14.48,6.84-29,25.5-17,34.2s51.88,7.47,55.29,10.57z"/><g><path class="cls-24" d="M133.64,882.48h163.91v-10.14h-135.46l-28.45,10.14z"/><path class="cls-25" d="M161.13,880.73c-4.87,.69-17.25,2.57-25.88,1.87s-14-.24-14-4,9.26-9.79,17.57-14.92,18.53-10.26,22.36-10.5,9.27-.23,11.82,3.27,9.27,2.33,15.34,4.43a46.22,46.22,0,0,1,11.5,5.36c2.87,1.87,6.71,2.1,7.67,4.2s.95,8.86-1.92,10-17.59,.56-23.37,.56-11.9-1.58-21.09-.27z"/></g><g><path class="cls-26" d="M636.47,967.35h163.91v-10.14h-135.46l-28.45,10.14z"/><path class="cls-27" d="M664,965.61c-4.87,.69-17.25,2.56-25.88,1.86s-14.06-.23-14.06-4,9.27-9.79,17.57-14.92,18.53-10.26,22.37-10.5,9.26-.23,11.82,3.27,9.26,2.33,15.33,4.43a46,46,0,0,1,11.5,5.36c2.88,1.87,6.71,2.1,7.67,4.2s1,8.86-1.91,10-17.58,.46-23.33,.46-11.93-1.47-21.08-.16z"/></g><g><path class="cls-28" d="M1556.75,1027.35h220.92v-13.66h-182.57l-38.35,13.66z"/><path class="cls-29" d="M1593.8,1025c-6.56,.94-23.25,3.46-34.88,2.52s-18.94-.32-18.94-5.35,12.48-13.2,23.68-20.11,25-13.83,30.14-14.14,12.49-.32,15.94,4.4,12.49,3.14,20.67,6,11.62,4.71,15.5,7.23,9,2.82,10.33,5.65,1.29,12-2.58,13.52-23.69,.63-31.43,.63-16.04-2.12-28.43-.35z"/></g><g><path class="cls-30" d="M1283.84,952.2h369.78v-22.88h-305.6l-64.18,22.88z"/><path class="cls-31" d="M1345.86,948.26c-11,1.57-38.92,5.79-58.38,4.21s-31.72-.53-31.72-8.94,20.9-22.1,39.64-33.67,41.81-23.15,50.46-23.68,20.9-.52,26.67,7.37,20.9,5.26,34.59,10,19.46,7.89,26,12.1,15.13,4.73,17.3,9.47,2.16,20-4.33,22.62-39.64,1-52.61,1-26.89-3.44-47.62-.48z"/></g><g><path class="cls-32" d="M186.88,1024.18h481.32v-29.77h-397.78l-83.54,29.77z"/><path class="cls-33" d="M267.61,1019.06c-14.29,2-50.66,7.53-76,5.48s-41.28-.69-41.28-11.64,27.21-28.76,51.6-43.83,54.42-30.13,65.67-30.81,27.2-.68,34.71,9.59,27.21,6.84,45,13,25.33,10.27,33.77,15.75,19.7,6.16,22.52,12.32,2.81,26-5.63,29.45-51.6,1.36-68.48,1.36-34.9-4.52-61.88-.67z"/></g><g><path class="cls-34" d="M171.86,893.55h108.18v-6.69h-89.41l-18.77,6.69z"/><path class="cls-35" d="M190,892.4c-3.21,.46-11.39,1.7-17.08,1.24s-9.28-.16-9.28-2.62,6.12-6.47,11.6-9.85,12.23-6.77,14.76-6.93,6.11-.15,7.8,2.16,6.12,1.54,10.12,2.92a30.58,30.58,0,0,1,7.6,3.54c1.89,1.23,4.42,1.39,5,2.77s.64,5.85-1.26,6.62-11.6,.31-15.39,.31-7.81-1.02-13.87-.16z"/></g><g><path class="cls-36" d="M584.29,800.87h79.27v-4.91h-65.51l-13.76,4.91z"/><path class="cls-37" d="M597.59,800c-2.36,.34-8.35,1.24-12.52,.9s-6.8-.11-6.8-1.91,4.49-4.74,8.5-7.22,9-5,10.82-5.08,4.48-.11,5.71,1.58,4.48,1.13,7.42,2.15a22.46,22.46,0,0,1,5.57,2.59c1.38,.9,3.24,1,3.7,2s.46,4.28-.92,4.85-8.51,.22-11.29,.22-5.78-.69-10.19-.08z"/></g><g><path class="cls-38" d="M1208.11,967.35h163.9v-10.14h-135.45l-28.45,10.14z"/><path class="cls-39" d="M1235.6,965.61c-4.87,.69-17.26,2.56-25.88,1.86s-14.06-.23-14.06-4,9.27-9.79,17.57-14.92,18.53-10.26,22.37-10.5,9.26-.23,11.82,3.27,9.26,2.33,15.33,4.43a46,46,0,0,1,11.5,5.36c2.88,1.87,6.71,2.1,7.67,4.2s1,8.86-1.92,10-17.57,.46-23.32,.46-11.89-1.47-21.08-.16z"/></g><g><path class="cls-40" d="M826.58,908.27h163.91v-10.14h-135.46l-28.45,10.14z"/><path class="cls-41" d="M854.07,906.53c-4.87,.69-17.25,2.56-25.88,1.86s-14.05-.23-14.05-4,9.26-9.79,17.57-14.92,18.53-10.26,22.36-10.5,9.27-.23,11.82,3.27,9.27,2.33,15.34,4.43a46.22,46.22,0,0,1,11.5,5.36c2.87,1.87,6.71,2.1,7.66,4.2s1,8.86-1.91,10-17.57,.47-23.32,.47-11.9-1.48-21.09-.17z"/></g><g><path class="cls-42" d="M1701.94,923.08h163.91v-10.14h-135.46l-28.45,10.14z"/><path class="cls-43" d="M1729.43,921.34c-4.87,.69-17.25,2.56-25.88,1.86s-14-.23-14-4,9.26-9.79,17.57-14.92,18.53-10.26,22.36-10.5,9.27-.23,11.82,3.27,9.27,2.33,15.34,4.43a46.22,46.22,0,0,1,11.5,5.36c2.87,1.87,6.71,2.1,7.67,4.2s1,8.86-1.92,10-17.57,.46-23.32,.46-11.95-1.5-21.14-.16z"/></g><path class="cls-44" d="M226,827.8c30.95,4.66,43.16,7.46,80.22,3.26s83.71-11.66,99.15-12.59,19.06,6.06,37.59,6.06,49.2-3.26,60.07-10.72,39-13.53,43.76-17.85-7.39-12.96-7.39-18.53-14.7-11.66-14.7-17.26c0-5,23.45-17.06,38.93-24.77-6.78-.17-7.41-1.47-9.11-2a25.83,25.83,0,0,0-11.08,0c-4.26,.93-38.34,19.89-45.58,22.07s-12.78,2.18-18.32,3.11-14.05,0-29.81,3.42-55.38,15.9-70.73,19-60.92,0-80.51,0c-16.95,0-96.65,10.46-136.62,13.28-5,4.67-7.81,9-7.79,12.05,.1,11.58,40.92,16.8,71.92,21.47z"/><path class="cls-45" d="M3.13,892.42v103.64c14-.25,30.84-2,46.18-7.37,34.51-12.12,69-18.65,101-26.41s88.13-33.28,75.69-36.08-48.85-4.66-84.63-6.8-16.61-10.92-51.11-16.2c-23.03-3.51-62.99-8.1-87.13-10.78z"/></g></g></g></svg>