<svg xmlns="http://www.w3.org/2000/svg" xmlns:xlink="http://www.w3.org/1999/xlink" viewBox="0 0 1920 1063"><defs><style>.cls-1{fill:url(#linear-gradient);}.cls-2{opacity:0.5;fill:url(#linear-gradient-2);}.cls-3{fill:url(#linear-gradient-3);}.cls-4{fill:url(#linear-gradient-4);}.cls-5{fill:url(#linear-gradient-5);}.cls-6{fill:#fff;}.cls-7{opacity:0.35;}.cls-8{fill:url(#linear-gradient-6);}.cls-9{fill:url(#linear-gradient-7);}.cls-10{fill:url(#linear-gradient-8);}.cls-11{fill:url(#linear-gradient-9);}.cls-12{fill:url(#linear-gradient-10);}.cls-13{fill:url(#linear-gradient-11);}.cls-14{fill:url(#linear-gradient-12);}.cls-15{fill:url(#linear-gradient-13);}.cls-16{fill:url(#linear-gradient-14);}.cls-17{fill:url(#linear-gradient-15);}.cls-18{fill:url(#linear-gradient-16);}.cls-19{fill:url(#linear-gradient-17);}.cls-20{fill:url(#linear-gradient-18);}.cls-21{fill:url(#linear-gradient-19);}.cls-22{fill:url(#linear-gradient-20);}.cls-23{fill:url(#linear-gradient-21);}.cls-24{fill:url(#linear-gradient-22);}.cls-25{fill:url(#linear-gradient-23);}.cls-26{fill:url(#linear-gradient-24);}.cls-27{fill:url(#linear-gradient-25);}.cls-28{fill:url(#linear-gradient-26);}.cls-29{fill:url(#linear-gradient-27);}.cls-30{fill:url(#linear-gradient-28);}.cls-31{fill:url(#linear-gradient-29);}.cls-32{fill:url(#linear-gradient-30);}.cls-33{fill:url(#linear-gradient-31);}.cls-34{fill:url(#linear-gradient-32);}.cls-35{fill:url(#linear-gradient-33);}.cls-36{fill:url(#linear-gradient-34);}.cls-37{fill:url(#linear-gradient-35);}.cls-38{fill:url(#linear-gradient-36);}.cls-39{fill:url(#linear-gradient-37);}.cls-40{fill:url(#linear-gradient-38);}.cls-41{fill:url(#linear-gradient-39);}.cls-42{fill:url(#linear-gradient-40);}.cls-43{fill:url(#linear-gradient-41);}.cls-44{fill:url(#linear-gradient-42);}.cls-45{fill:url(#linear-gradient-43);}.cls-46{fill:url(#linear-gradient-44);}.cls-47{fill:url(#linear-gradient-45);}.cls-48{fill:url(#linear-gradient-46);}.cls-49{fill:url(#linear-gradient-47);}.cls-50{fill:url(#linear-gradient-48);}.cls-51{fill:url(#linear-gradient-49);}.cls-52{fill:url(#linear-gradient-50);}.cls-53{fill:url(#linear-gradient-51);}.cls-54{fill:url(#linear-gradient-52);}.cls-55{fill:url(#linear-gradient-53);}.cls-56{fill:url(#linear-gradient-54);}.cls-57{fill:url(#linear-gradient-55);}.cls-58{fill:url(#linear-gradient-56);}.cls-59{fill:url(#linear-gradient-57);}.cls-60{fill:url(#linear-gradient-58);}.cls-61{fill:url(#linear-gradient-59);}.cls-101{fill:#FFD9C0}</style><linearGradient id="linear-gradient" x1="960" y1="1063" x2="960" gradientUnits="userSpaceOnUse"><stop offset="0" stop-color="#ffe4cc"/><stop offset="1" stop-color="#ffd9c0"/></linearGradient><linearGradient id="linear-gradient-2" x1="-1364.57" y1="-6103.16" x2="-1364.57" y2="-5836.99" gradientTransform="matrix(0.87, 0.49, 0.49, -0.87, 5661.83, -4107.34)" gradientUnits="userSpaceOnUse"><stop offset="0" stop-color="#ffead5"/><stop offset="0.08" stop-color="#ffdec9"/><stop offset="0.25" stop-color="#ffc9b4"/><stop offset="0.44" stop-color="#ffbaa5"/><stop offset="0.66" stop-color="#ffb29c"/><stop offset="1" stop-color="#ffaf99"/></linearGradient><linearGradient id="linear-gradient-3" x1="461.51" y1="965.89" x2="906.17" y2="965.89" gradientTransform="matrix(-0.49, -0.13, -0.26, 0.97, 1420.52, -420.52)" gradientUnits="userSpaceOnUse"><stop offset="0" stop-color="#fff"/><stop offset="1" stop-color="#fff" stop-opacity="0"/></linearGradient><linearGradient id="linear-gradient-4" x1="1513.2" y1="1157.46" x2="1957.86" y2="1157.46" xlink:href="#linear-gradient-3"/><linearGradient id="linear-gradient-5" x1="-587.55" y1="707.65" x2="-142.92" y2="707.65" gradientTransform="matrix(-1.27, -0.34, -0.26, 0.97, 274.13, -730.92)" xlink:href="#linear-gradient-3"/><linearGradient id="linear-gradient-6" x1="1276" y1="604.9" x2="1276" y2="823.69" gradientUnits="userSpaceOnUse"><stop offset="0" stop-color="#ffc4ac"/><stop offset="0.11" stop-color="#fec3ac" stop-opacity="0.95"/><stop offset="0.31" stop-color="#fcc0aa" stop-opacity="0.82"/><stop offset="0.58" stop-color="#f9bca8" stop-opacity="0.62"/><stop offset="0.9" stop-color="#f4b6a6" stop-opacity="0.33"/><stop offset="1" stop-color="#f3b4a5" stop-opacity="0.24"/></linearGradient><linearGradient id="linear-gradient-7" x1="528.54" y1="630.82" x2="490.82" y2="842.86" xlink:href="#linear-gradient-6"/><linearGradient id="linear-gradient-8" x1="422.22" y1="607.57" x2="383.16" y2="827.15" xlink:href="#linear-gradient-6"/><linearGradient id="linear-gradient-9" x1="163.14" y1="750.76" x2="129.92" y2="918.66" gradientUnits="userSpaceOnUse"><stop offset="0" stop-color="#ffb399"/><stop offset="0.11" stop-color="#feb298" stop-opacity="0.95"/><stop offset="0.31" stop-color="#fcaf97" stop-opacity="0.82"/><stop offset="0.58" stop-color="#f8aa95" stop-opacity="0.62"/><stop offset="0.9" stop-color="#f4a392" stop-opacity="0.34"/><stop offset="1" stop-color="#f2a191" stop-opacity="0.24"/></linearGradient><linearGradient id="linear-gradient-10" x1="1673.29" y1="712.49" x2="1774.46" y2="894.41" xlink:href="#linear-gradient-6"/><linearGradient id="linear-gradient-11" x1="1320.06" y1="795.44" x2="1345" y2="913.03" xlink:href="#linear-gradient-6"/><linearGradient id="linear-gradient-12" x1="415.62" y1="752.55" x2="399.49" y2="895.02" xlink:href="#linear-gradient-6"/><linearGradient id="linear-gradient-13" x1="1238.59" y1="793.09" x2="1485.72" y2="793.09" gradientTransform="translate(120.2 -177.48) rotate(7.8)" gradientUnits="userSpaceOnUse"><stop offset="0.01" stop-color="#ffcdb5" stop-opacity="0.5"/><stop offset="1" stop-color="#f0b2a3" stop-opacity="0.4"/></linearGradient><linearGradient id="linear-gradient-14" x1="1238.59" y1="777.14" x2="1485.72" y2="777.14" gradientTransform="matrix(1, 0, 0, 1, 0, 0)" xlink:href="#linear-gradient-13"/><linearGradient id="linear-gradient-15" x1="1245.31" y1="803.23" x2="1483.84" y2="803.23" gradientTransform="matrix(1, 0, 0, 1, 0, 0)" xlink:href="#linear-gradient-13"/><linearGradient id="linear-gradient-16" x1="1245.31" y1="793.73" x2="1483.84" y2="793.73" gradientTransform="matrix(1, 0, 0, 1, 0, 0)" xlink:href="#linear-gradient-13"/><linearGradient id="linear-gradient-17" x1="0" y1="1032.02" x2="106.55" y2="1032.02" gradientTransform="matrix(1, 0, 0, 1, 0, 0)" xlink:href="#linear-gradient-13"/><linearGradient id="linear-gradient-18" x1="0" y1="1017.52" x2="106.55" y2="1017.52" gradientTransform="matrix(1, 0, 0, 1, 0, 0)" xlink:href="#linear-gradient-13"/><linearGradient id="linear-gradient-19" x1="0" y1="1043.15" x2="105.6" y2="1043.15" gradientTransform="matrix(1, 0, 0, 1, 0, 0)" xlink:href="#linear-gradient-13"/><linearGradient id="linear-gradient-20" x1="0" y1="1033.01" x2="105.6" y2="1033.01" gradientTransform="matrix(1, 0, 0, 1, 0, 0)" xlink:href="#linear-gradient-13"/><linearGradient id="linear-gradient-21" x1="554.97" y1="1024.8" x2="845.5" y2="1024.8" gradientTransform="matrix(1, 0, 0, 1, 0, 0)" xlink:href="#linear-gradient-13"/><linearGradient id="linear-gradient-22" x1="554.61" y1="1022.92" x2="845.51" y2="1022.92" gradientTransform="matrix(1, 0, 0, 1, 0, 0)" xlink:href="#linear-gradient-13"/><linearGradient id="linear-gradient-23" x1="593.58" y1="1043.04" x2="842.9" y2="1043.04" gradientTransform="matrix(1, 0, 0, 1, 0, 0)" xlink:href="#linear-gradient-13"/><linearGradient id="linear-gradient-24" x1="590.57" y1="1041.22" x2="842.9" y2="1041.22" gradientTransform="matrix(1, 0, 0, 1, 0, 0)" xlink:href="#linear-gradient-13"/><linearGradient id="linear-gradient-25" x1="567.8" y1="876.6" x2="762.89" y2="876.6" gradientTransform="matrix(1, 0, 0, 1, 0, 0)" xlink:href="#linear-gradient-13"/><linearGradient id="linear-gradient-26" x1="567.81" y1="865.8" x2="762.89" y2="865.8" gradientTransform="matrix(1, 0, 0, 1, 0, 0)" xlink:href="#linear-gradient-13"/><linearGradient id="linear-gradient-27" x1="572.67" y1="884.39" x2="761.16" y2="884.39" gradientTransform="matrix(1, 0, 0, 1, 0, 0)" xlink:href="#linear-gradient-13"/><linearGradient id="linear-gradient-28" x1="572.67" y1="878.47" x2="761.16" y2="878.47" gradientTransform="matrix(1, 0, 0, 1, 0, 0)" xlink:href="#linear-gradient-13"/><linearGradient id="linear-gradient-29" x1="970.58" y1="1007.56" x2="951.76" y2="773.76" gradientTransform="matrix(1, 0, 0, 1, 0, 0)" xlink:href="#linear-gradient-13"/><linearGradient id="linear-gradient-30" x1="679.7" y1="944.08" x2="858.25" y2="944.08" gradientTransform="matrix(1, 0, 0, 1, 0, 0)" xlink:href="#linear-gradient-13"/><linearGradient id="linear-gradient-31" x1="1203.02" y1="883.69" x2="1318.15" y2="883.69" gradientTransform="matrix(1, 0, 0, 1, 0, 0)" xlink:href="#linear-gradient-13"/><linearGradient id="linear-gradient-32" x1="119.27" y1="953.29" x2="349.67" y2="953.29" gradientTransform="matrix(1, 0, 0, 1, 0, 0)" xlink:href="#linear-gradient-13"/><linearGradient id="linear-gradient-33" x1="479.32" y1="1008.63" x2="601.84" y2="1008.63" gradientTransform="matrix(1, 0, 0, 1, 0, 0)" xlink:href="#linear-gradient-13"/><linearGradient id="linear-gradient-34" x1="1518.27" y1="751.15" x2="1630.54" y2="751.15" gradientTransform="matrix(1, 0, 0, 1, 0, 0)" xlink:href="#linear-gradient-13"/><linearGradient id="linear-gradient-35" x1="229.07" y1="1018.4" x2="341.34" y2="1018.4" gradientTransform="matrix(1, 0, 0, 1, 0, 0)" xlink:href="#linear-gradient-13"/><linearGradient id="linear-gradient-36" x1="378.45" y1="924.59" x2="555.46" y2="924.59" gradientTransform="matrix(1, 0, 0, 1, 0, 0)" xlink:href="#linear-gradient-13"/><linearGradient id="linear-gradient-37" x1="872.21" y1="812.93" x2="1217.61" y2="812.93" gradientTransform="matrix(1, 0, 0, 1, 0, 0)" xlink:href="#linear-gradient-13"/><linearGradient id="linear-gradient-38" x1="360.17" y1="863.49" x2="528" y2="863.49" gradientTransform="matrix(1, 0, 0, 1, 0, 0)" xlink:href="#linear-gradient-13"/><linearGradient id="linear-gradient-39" x1="904.18" y1="922.52" x2="1053.41" y2="961.11" gradientTransform="matrix(1, 0, 0, 1, 0, 0)" xlink:href="#linear-gradient-13"/><linearGradient id="linear-gradient-40" x1="1095.69" y1="907.91" x2="1174.38" y2="942.38" gradientTransform="matrix(1, 0, 0, 1, 0, 0)" xlink:href="#linear-gradient-13"/><linearGradient id="linear-gradient-41" x1="420.83" y1="1010.95" x2="441.45" y2="1087.46" gradientTransform="matrix(1, 0, 0, 1, 0, 0)" xlink:href="#linear-gradient-13"/><linearGradient id="linear-gradient-42" x1="971.94" y1="972.38" x2="1096.7" y2="1013.03" gradientTransform="matrix(1, 0, 0, 1, 0, 0)" xlink:href="#linear-gradient-13"/><linearGradient id="linear-gradient-43" x1="960.29" y1="952.92" x2="997.34" y2="952.92" gradientTransform="matrix(1, 0, 0, 1, 0, 0)" xlink:href="#linear-gradient-13"/><linearGradient id="linear-gradient-44" x1="1088.7" y1="889.34" x2="1105.42" y2="889.34" gradientTransform="matrix(1, 0, 0, 1, 0, 0)" xlink:href="#linear-gradient-13"/><linearGradient id="linear-gradient-45" x1="405.94" y1="993.24" x2="430.96" y2="993.24" gradientTransform="matrix(1, 0, 0, 1, 0, 0)" xlink:href="#linear-gradient-13"/><linearGradient id="linear-gradient-46" x1="408.42" y1="1008" x2="429.05" y2="1008" gradientTransform="matrix(1, 0, 0, 1, 0, 0)" xlink:href="#linear-gradient-13"/><linearGradient id="linear-gradient-47" x1="901.57" y1="895.14" x2="921.57" y2="895.14" gradientTransform="matrix(1, 0, 0, 1, 0, 0)" xlink:href="#linear-gradient-13"/><linearGradient id="linear-gradient-48" x1="962.27" y1="962.43" x2="997.06" y2="962.43" gradientTransform="matrix(1, 0, 0, 1, 0, 0)" xlink:href="#linear-gradient-13"/><linearGradient id="linear-gradient-49" x1="1090.35" y1="896.94" x2="1105.27" y2="896.94" gradientTransform="matrix(1, 0, 0, 1, 0, 0)" xlink:href="#linear-gradient-13"/><linearGradient id="linear-gradient-50" x1="902.58" y1="901.37" x2="921.61" y2="901.37" gradientTransform="matrix(1, 0, 0, 1, 0, 0)" xlink:href="#linear-gradient-13"/><linearGradient id="linear-gradient-51" x1="-8164.02" y1="1047.7" x2="-8119.89" y2="744.84" gradientTransform="matrix(-1, 0, 0, 1, -6679.83, 0)" xlink:href="#linear-gradient-13"/><linearGradient id="linear-gradient-52" x1="1202.69" y1="963.93" x2="1510.51" y2="963.93" gradientTransform="matrix(1, 0, 0, 1, 0, 0)" xlink:href="#linear-gradient-13"/><linearGradient id="linear-gradient-53" x1="1220" y1="952.89" x2="1501.15" y2="952.89" gradientTransform="matrix(1, 0, 0, 1, 0, 0)" xlink:href="#linear-gradient-13"/><linearGradient id="linear-gradient-54" x1="1622.03" y1="843.7" x2="1920" y2="843.7" gradientTransform="matrix(1, 0, 0, 1, 0, 0)" xlink:href="#linear-gradient-13"/><linearGradient id="linear-gradient-55" x1="1622.03" y1="826.02" x2="1920" y2="826.02" gradientTransform="matrix(1, 0, 0, 1, 0, 0)" xlink:href="#linear-gradient-13"/><linearGradient id="linear-gradient-56" x1="1518.27" y1="1020.03" x2="1543.68" y2="1020.03" gradientTransform="matrix(1, 0, 0, 1, 0, 0)" xlink:href="#linear-gradient-13"/><linearGradient id="linear-gradient-57" x1="1529.79" y1="1020.48" x2="1555.2" y2="1020.48" gradientTransform="matrix(1, 0, 0, 1, 0, 0)" xlink:href="#linear-gradient-13"/><linearGradient id="linear-gradient-58" x1="1646.3" y1="791.14" x2="1674.71" y2="791.14" gradientTransform="matrix(1, 0, 0, 1, 0, 0)" xlink:href="#linear-gradient-13"/><linearGradient id="linear-gradient-59" x1="1851.04" y1="890.17" x2="2295.7" y2="890.17" xlink:href="#linear-gradient-3"/></defs><title>section-2-light-bg</title><g id="Layer_2" data-name="Layer 2"><g id="Layer_1-2" data-name="Layer 1"><rect class="cls-101" width="1920" height="1063"/><path class="cls-2" d="M1669.39,477.28A145.15,145.15,0,1,0,1471.6,532.2,145.15,145.15,0,0,0,1669.39,477.28Z"/><path class="cls-3" d="M936.69,444.68c4.07,1.1,6.87,3.88,6.23,6.2s-4.44,3.32-8.51,2.22L725.52,393l.47-1.72Z"/><path class="cls-4" d="M373,490.68c4.07,1.1,6.86,3.88,6.23,6.21s-4.44,3.31-8.51,2.21L161.86,439l.46-1.72Z"/><path class="cls-5" d="M815.46,144.08c10.55,2.86,18.61,7.06,18,9.39s-9.7,1.9-20.26-1L270.12,2l.46-1.72Z"/><path class="cls-6" d="M209,283.44a3.7,3.7,0,1,0,3.69-3.7A3.69,3.69,0,0,0,209,283.44Z"/><path class="cls-6" d="M337.77,429.74a3.7,3.7,0,1,0,3.69-3.69A3.7,3.7,0,0,0,337.77,429.74Z"/><path class="cls-6" d="M1095.13,617.9a3.7,3.7,0,1,0,3.69-3.7A3.69,3.69,0,0,0,1095.13,617.9Z"/><path class="cls-6" d="M632.07,259.57a3.7,3.7,0,1,0,3.7-3.7A3.7,3.7,0,0,0,632.07,259.57Z"/><path class="cls-6" d="M1412.93,319a3.7,3.7,0,1,0,3.69-3.7A3.69,3.69,0,0,0,1412.93,319Z"/><path class="cls-6" d="M1370.62,502.34a3.7,3.7,0,1,0,3.69-3.7A3.69,3.69,0,0,0,1370.62,502.34Z"/><path class="cls-6" d="M1685.19,319a3.7,3.7,0,1,0,3.7-3.7A3.7,3.7,0,0,0,1685.19,319Z"/><path class="cls-6" d="M1535.64,573.53a3.7,3.7,0,1,0,3.69-3.69A3.7,3.7,0,0,0,1535.64,573.53Z"/><path class="cls-6" d="M1803.29,433.44a3.7,3.7,0,1,0,3.7-3.7A3.7,3.7,0,0,0,1803.29,433.44Z"/><path class="cls-6" d="M711.34,611.66a6.24,6.24,0,1,0,6.24-6.25A6.25,6.25,0,0,0,711.34,611.66Z"/><path class="cls-6" d="M1057,289.68a6.25,6.25,0,1,0,6.25-6.24A6.24,6.24,0,0,0,1057,289.68Z"/><path class="cls-6" d="M1587.76,217.24A6.25,6.25,0,1,0,1594,211,6.25,6.25,0,0,0,1587.76,217.24Z"/><path class="cls-6" d="M137.27,479.41a6.25,6.25,0,1,0,6.25-6.25A6.25,6.25,0,0,0,137.27,479.41Z"/><g class="cls-7"><path class="cls-8" d="M1919,524.18c-6.35-8.28-11.29-9.63-28.91-9.77-18.91-.16-20.09-6.24-30.39-18.91s-17.84-16.21-35-16.21c-18,0-19.39,4.66-32.8,13.28-7.54,4.84-19.26,6.62-27.7,9.95-18.35,7.26-14.6,9.57-12.64,25.16-15.45,2.14-32.48,12.81-48.35,9.69-9.18-1.81-14-7.61-23.46-8.1-8.51-.45-19.65,2-27.83,4.38-5.31,1.58-13.5,3.18-18.06,6-2.71,1.68-.75,5.88-4.37,8.17-10.4,6.56-19.61,6.52-24.3,20.29-5.56,16.32-1.26,17.76-19.39,23.26-13.2,4-16.66,13.67-29,16.21-16.41,3.37-23.72-5.94-32.5-16.18-11.5-13.41-19.34-10-33-17.25-14.33-7.57-6.13-17.62-15.51-28.43-14.69-17-50.45-14.53-70.61-16.44-31-2.94-61.94,9.92-69.22,42.81-1.31,5.95,1.28,16.4-3.79,20.43-3.58,2.85-14.72-1-19.09.17-7.32,2-7.7,5.47-14.17,8.5-4.92,2.31-12.4,1.93-16.6,4.64-10.65,6.87-9.66,21.47-17.67,28.75-7.46,6.79-19-1.86-30.52,4.4-12.13,6.59-9.17,11.17-23.81,11.82-19.32.86-21.54-1.48-33.23-12.19-9-8.3-22.66-10-29.14-22.93-5-9.94-5.53-22.5-9.58-32.41-5.8-14.16-18.51-29-32-36.79-12.33-7.13-25.86-2.73-38.69-7.79-13.3-5.23-17.51-17.34-31.81-21.3-13.54-3.74-31.22-2.26-45.38-1.65-33.36,1.45-64.5,7-69.53,43.25-1,7,2.32,29.25-1.7,34.81-4.93,6.82-27,10.32-35.72,12.09-11,2.24-23.54,1.26-33.23,7.39-11.66,7.38-9.83,20.66-18,30.7-13.61,16.66-22.06,19.36-42.77,22.62-18.24,2.87-36.62,13.35-54.1,15.25-14.63,1.59-20.43-2.59-32.18,8.11-6.77,6.16-2.28,7.79-13.1,9.45-10.62,1.64-21.19-4.92-30.78-6.5.52,1.5,1.61,1.13,2.68,2.45L633,929c24.86,13.25,47.66,30.76,74.66,40.54,28.07,10.17,61.89,5.38,91.51,5.38,15.09,0,31.8-2.06,46.69.42,17.5,2.91,31,13.5,46.09,21.56,96,51.47,219.84,20.73,324.22,29.28,58.34,4.78,112.54,21.76,170.06,29.64,52.33,7.16,104.34.5,156.45-4,117.86-10.2,237.37-5.64,354.61-22.9,4.85-.71,12.89-1.27,21.71-2.28Z"/><path class="cls-9" d="M530.72,638.66c-2.19-.52-5,.08-7.17.14a1.23,1.23,0,0,1,0,.2C525.15,639.41,527.39,639.37,530.72,638.66Z"/><path class="cls-10" d="M781.76,865.59c-4.73-18.87-.29-38.33-7.55-57.91-6.14-16.52-21.23-23.23-28.53-37.62-7.45-14.7-14.38-27.54-23.64-40.87-6.67-9.61-13.81-8.18-21.75-14.87-11-9.28-15.48-15.79-30.67-17.58-20.28-2.4-27.09-3.16-40-20.33-6.23-8.28-11.45-15.82-20.46-18.84-20.24-6.79-41.39,6.11-62.54,5.1a.86.86,0,0,1,.62-1C537.6,657.84,524,651.28,523.57,639c-5.54-1.46-2.33-8.86-5.26-15.2-5.14-11.1-16.29-8.77-28.46-8.13a546.6,546.6,0,0,1-57.25,0c-10-.52-27,3.16-35.85-2.3-7.85-4.86-9.53-15.27-15.65-23-7.45-9.36-16.2-16.3-27.54-20.3-13.7-4.83-21.49,4.57-33.61,2.47-10.61-1.84-12-15.92-25.52-12.25-11,3-17.73,16.22-29.43,21.33-22.4,9.8-45.19,11.47-65.5-2.33-12.73-8.65-9.38-18.55-16.06-29.84-6.57-11.13-20.49-14.73-31-19.14-21-8.77-44.51-10.29-66.81-8.11s-33.19,14-51.85,24.91c-12.17,7.1-13.27,8.53-19.2,21.61A40,40,0,0,1,0,585.88v415.24a87.46,87.46,0,0,1,8.8.8c33.94,5.44,66.34-1.54,100.06,1.76,19.91,2,40.16,1,60.17,1,23.28-.06,45.57,5.22,68.76,5.43,84.23.76,168.68-12,252.65-16.52,45.2-2.42,91.77-1.38,136.62-8.05,33.6-5,71.27-6,103.51-17.26,28.57-10,64.71-28.36,64.1-64.69C794.39,886.52,785.26,879.52,781.76,865.59Z"/><path class="cls-11" d="M285.51,887.79c-2.51-12.38,4.06-23.46,1-35.71-2.22-8.83-15.31-23.81-22.78-27.11-8.07-3.57-15.07,2.13-23,1.82a55.42,55.42,0,0,1-11.44-2C224,816.49,219,804.68,211.3,800c-8.6-5.19-24.86-1.15-34.57-1.66-12-.62-24.58-.5-31.73-12.15-5.17-8.42-8.89-20.72-13.11-29.64-4.11-8.68-4.9-22.21-12.38-30.15-6.32-6.7-16-7.15-24.34-10.74-20.47-8.79-38.54-18.78-59.23-3.75-6.89,5-14.24,11.52-12.48,21.64,1.4,8,12.36,13.86,7.51,24.28-8.26,17.8-19.47,1-31-6.25v204.5c4.85-.4,9.62-.78,14.22-1,27.18-1.28,53.73-2.38,80.63-6.85,16.53-2.74,33.44-.48,50.18-1.25,17.82-.83,35.24-3.87,53.19-2.84,9.83.56,19.83,5.18,29.34,5.53,9.72.36,18.35-4.7,27.2-8.16,12.82-5,30.28-6.27,36.85-20.61C298.66,905.56,288.24,901.24,285.51,887.79Z"/><path class="cls-12" d="M1919,665.67a92.85,92.85,0,0,0-25.41-14.85c-14.49-5.4-24.73-16.88-42.64-17.45s-34.12-6.63-52,0-17.05,35.45-29.85,37.26-47.39-10.81-64.63,0-25.77,49.52-25.77,63.92,8.91,25.21,9.57,33.32-6.16,27.8-14.69,20.65-11.09-31.46-17.91-37.76-29-7.2-45.2,2.7-22.18,9.9-32.41,7.2-19.62-6.3-27.3,4.51-5.12,24.89-5.12,24.89-32-8.69-15.34,42.18,34.53,173.83,34.53,173.83H1919Z"/><path class="cls-13" d="M1559.69,798.93c-4.22-3.43-5.89-.62-10.23-1.79-2.94-.79-4.55-4-7.23-5.53-6.29-3.52-15.59-2.32-22.2-.68-9,2.24-15.21,7.11-21.77,12.94-7,6.18-10.9,16-21.66,16.6-.49-2.47-1.15-6.39-.51-9,.83-3.33,3.15-5,2.51-8.91-7.87-2.1-13-7.6-15.19-15.83-1.58-6-2.06-8.06-7.86-10.79-6.22-2.92-12.81-4.83-18.68-8.55-3.9-2.47-5.46-6.81-8.95-9.46s-7.11-1.87-10.14-5.86-3.91-8.41-9.14-10c-7.47-2.3-17.54-.62-25.12.1-2.68.26-5.56.15-8.16.89-2.93.84-5.21,3.18-8.1,4-3.08.86-7.09-.25-10.22-.37-5.9-.25-10.82,1.25-16.14,3.93-11.88,6-19.64,18.63-21.75,32.17-1.56,10.05-4.71,16.2-14.16,20.28-6.07,2.62-11.84,3.78-17.73-.11-5.13-3.4-6.64-3.67-12.54,0-2.68,1.67-3.06,3.19-5,5.52-2.79,3.39-2.12,2.14-5.44,2-8.34-.35-15-2.7-22.42-6.64-6.09-3.23-9.76-4.84-16.83-3-8.14,2.08-14.42,8-21.43,12.53-5.77,3.69-12.6,5.53-14.18,13.36-1.27,6.31,3.26,11.71,1.82,17.8-2.23,9.41-16.55,17.21-23.45,22.82-14,11.4-32.91,13-44.8,27.83-9,11.16-11,27.69-14.62,41.54a64.92,64.92,0,0,0-1.58,10.41c-.43,4.54-2.27,9.65-1.64,14.18,6.41-3.62,10.29-6.06,17.92-4.84a505.69,505.69,0,0,0,58.9,6.26c15.8.65,31.42.55,47.16,2.22,16.07,1.7,32.13,2.8,48.25,3.6,15,.74,29.85,2.36,44.79,3.72,16.93,1.54,33.76.75,50.7.07,14.29-.58,28.91-.65,43.11,1.13,14.56,1.82,28.31,3.46,43,2.41,27.65-2,55.54-3.66,83.26-3.62q21.24,0,42.48,0c6.6,0,16.52,2,22.69-.9Z"/><path class="cls-14" d="M570.38,806.41c-16.35.35-31.91,9.87-48.68,10.8-11.56.63-27.49,2.37-38.38-1.27-11.63-3.9-16.27-12.08-20.11-23.34-5-14.63-6.12-5.6-23.1-4.67-2.69,11.3-14.92.14-23.25,2-11.6,2.54-18,5.86-17.91-10.5.12-21.44,16.55-39.85-6.33-54.4-19.09-12.14-40.07-16-62.75-11.48-10.94,2.17-25.88,3.1-35.89,8.75-9.19,5.2-15.88,18-22.93,26-11.77,13.39-21.72,23.27-20.69,43.05-10.68-2.46-8.25,5.67-14.81,8.67-2.63,1.2-7.25-.41-9.59,1-2,1.18-7.22,6.18-8.67,6.78-12.72,5.3-24.67,3.84-36.85,14.86-20.05,18.13-14.57,68.52-19.28,94.28,14.56,4.83,32.26,4.28,47.46,6.72,25.48,4.1,50,4.52,75.6,3.3,21.28-1,42.32,1.1,63.56,1.05,27.41-.07,53.75-3.54,81-5.1,68.28-3.92,137.18-3,205.6-3Z"/></g><ellipse class="cls-15" cx="1362.15" cy="793.09" rx="124.59" ry="41.54" transform="translate(-95.01 192.15) rotate(-7.8)"/><path class="cls-16" d="M1483.84,770.8a21.14,21.14,0,0,0-3.38-4.64,37.17,37.17,0,0,0-7.55-5.84,77.23,77.23,0,0,0-15.73-6.88,167.78,167.78,0,0,0-32-6.11c-21.37-2.12-42.77-1.09-64.12,1.29-21.33,2.9-42.64,7.2-63.75,14.56a201.07,201.07,0,0,0-31.4,13.94,103.82,103.82,0,0,0-15.26,10.63,52.45,52.45,0,0,0-7.2,7.58,27.42,27.42,0,0,0-3.17,5.29,17.81,17.81,0,0,0-1.74,7.48,16.53,16.53,0,0,1,1.88-7.19,23.94,23.94,0,0,1,3.23-4.87,47.51,47.51,0,0,1,7.25-6.95,95.06,95.06,0,0,1,15.32-9.39,196.44,196.44,0,0,1,31.39-12.39,357.41,357.41,0,0,1,63.6-13.27,338.29,338.29,0,0,1,63.89-2.55,167.09,167.09,0,0,1,31.86,4.58,71.47,71.47,0,0,1,15.72,5.64,34.07,34.07,0,0,1,7.57,5.19,19,19,0,0,1,3.42,4.21,13.7,13.7,0,0,1,2,7A14.85,14.85,0,0,0,1483.84,770.8Z"/><path class="cls-17" d="M1245.31,820.91C1262,835.32,1308,841.56,1362.15,835c60.95-7.4,111.56-28.51,121.69-49.42-16.68-14.42-62.67-20.65-116.84-14.07C1306.05,778.89,1255.44,800,1245.31,820.91Z"/><path class="cls-18" d="M1469.25,776.78a109.88,109.88,0,0,0-15-5,193.37,193.37,0,0,0-30.29-4.6c-20.23-1.47-40.49-.39-60.7,2.07-20.19,2.86-40.36,7.06-60.35,14a204.52,204.52,0,0,0-29.75,13c-2.46,1.33-4.88,2.92-7.32,4.36-2.41,1.71-4.84,3.22-7.2,5.16-4.73,3.68-9.54,8-13.32,15.19a35,35,0,0,1,6.48-8.16l3.48-3.08,3.58-2.59c2.38-1.74,4.83-3,7.24-4.54,2.46-1.24,4.89-2.62,7.35-3.75a198.67,198.67,0,0,1,29.76-11.4,400.17,400.17,0,0,1,120.7-16,195.45,195.45,0,0,1,30.22,3.07,105.57,105.57,0,0,1,15,3.75c5,1.75,10,3.67,14.71,7.37C1479.18,781.31,1474.21,778.89,1469.25,776.78Z"/><path class="cls-19" d="M39.27,1002.71a103.58,103.58,0,0,0-39.27,16V1063H95.8c6.86-8.47,10.83-17.8,10.75-27C106.36,1010.75,76.23,995.86,39.27,1002.71Z"/><path class="cls-20" d="M101.85,1019.53a36.61,36.61,0,0,0-8.31-9.16,52.65,52.65,0,0,0-18.22-8.82c-12.37-3.37-24.89-3-37.28-.75A101.89,101.89,0,0,0,1.44,1016c-.48.34-1,.72-1.44,1.06v3.38c.63-.42,1.27-.86,1.9-1.26a105.4,105.4,0,0,1,36.32-14.1,88.53,88.53,0,0,1,36.92-.25,49.38,49.38,0,0,1,18.07,7.52,31.72,31.72,0,0,1,8.33,8.1,27.73,27.73,0,0,1,5,15.5A29.89,29.89,0,0,0,101.85,1019.53Z"/><path class="cls-21" d="M42.07,1025A102.63,102.63,0,0,0,0,1043v20H95.74a48.42,48.42,0,0,0,9.86-19C96.42,1027.8,71.41,1019.54,42.07,1025Z"/><path class="cls-22" d="M90.12,1028.85a59.72,59.72,0,0,0-16.94-6.07,87.14,87.14,0,0,0-34.31.72,100.84,100.84,0,0,0-17,5.38,87.32,87.32,0,0,0-16.67,8.82c-1.75,1.19-3.49,2.47-5.22,3.82v3.1c1.88-1.33,3.77-2.6,5.67-3.74a104.47,104.47,0,0,1,33.41-13.09,93.33,93.33,0,0,1,34-1.71,56.93,56.93,0,0,1,16.83,4.82c5.51,2.58,11.07,6,15.72,13.15C101.21,1036.11,95.59,1032.13,90.12,1028.85Z"/><path class="cls-23" d="M841.44,1063a43.91,43.91,0,0,0,4-16.79c1.1-41.15-64-67-145.29-57.73C630,996.48,570.61,1028,555,1063Z"/><path class="cls-24" d="M555.36,1063c.12-.24.23-.49.35-.73a65.58,65.58,0,0,1,7.91-12,102,102,0,0,1,17.92-16.41c12.32-9.12,25.07-15.55,37.87-20.9a288.36,288.36,0,0,1,77.78-20,265.09,265.09,0,0,1,78.34.62c13,2.2,26,5.52,38.72,11.74,6.34,3.12,12.68,6.74,18.59,12.49a43.55,43.55,0,0,1,8.28,10.7,36.83,36.83,0,0,1,4.37,17.71,40.16,40.16,0,0,0-4-18.61,48.44,48.44,0,0,0-8.23-11.73c-5.9-6.42-12.23-10.67-18.57-14.42-12.77-7.1-25.84-11.13-38.92-14.11-26.2-5.58-52.57-5.42-78.82-2.53a294,294,0,0,0-39.27,7.91c-13,3.65-26.05,7.92-38.89,14.1s-25.59,13.31-37.92,23.29a115.14,115.14,0,0,0-17.79,18.32,72.77,72.77,0,0,0-7.8,13c-.23.52-.46,1.06-.69,1.61Z"/><path class="cls-25" d="M841.43,1063c.54-1.21,1-2.42,1.47-3.64-19.1-27-73.36-41.76-137.92-34.4-44.16,5-84,19.39-111.4,38Z"/><path class="cls-26" d="M826.24,1042.9c-5.83-4.24-11.83-7.16-17.83-10a168.59,168.59,0,0,0-36.53-10.51c-12.25-2.27-24.54-2.83-36.83-2.92a288,288,0,0,0-36.83,2.28c-24.5,3.73-49,9.87-73,20.87A196.31,196.31,0,0,0,590.57,1063h6.64a194.89,194.89,0,0,1,28.6-14.26,292,292,0,0,1,72.66-18.88,283.54,283.54,0,0,1,73.21-1.27,165.93,165.93,0,0,1,36.39,8.19c6,2.25,12,4.56,17.87,8.18s11.71,7.6,17,14.4C837.87,1051.81,832.05,1047.06,826.24,1042.9Z"/><path class="cls-27" d="M762.88,859.75c.75-18-42.3-25-96.17-15.72s-98.15,31.43-98.9,49.42,42.3,25,96.16,15.72S762.12,877.74,762.88,859.75Z"/><path class="cls-28" d="M761.5,854a14.46,14.46,0,0,0-2.71-3.52,25.66,25.66,0,0,0-6-4.23,56.77,56.77,0,0,0-12.49-4.66A130.76,130.76,0,0,0,715,838.29c-16.89-.64-33.78,1.12-50.6,4a271.31,271.31,0,0,0-50.2,14.19,169.46,169.46,0,0,0-24.68,12.18,87.08,87.08,0,0,0-12,8.89,43.57,43.57,0,0,0-5.66,6.11,23,23,0,0,0-2.52,4.09,14.72,14.72,0,0,0-1.54,5.74,13.88,13.88,0,0,1,1.63-5.55,20.35,20.35,0,0,1,2.57-3.82,38.72,38.72,0,0,1,5.71-5.57,78.16,78.16,0,0,1,12-7.82,163.77,163.77,0,0,1,24.69-10.93,297.75,297.75,0,0,1,50.09-13.15,277.31,277.31,0,0,1,50.42-5,132.8,132.8,0,0,1,25.2,2,53.81,53.81,0,0,1,12.48,3.58,23.16,23.16,0,0,1,6,3.68,13.1,13.1,0,0,1,2.73,3.23,10,10,0,0,1,1.46,5.59A10.56,10.56,0,0,0,761.5,854Z"/><path class="cls-29" d="M572.67,903.13c12.63,10.51,48.55,13.43,91.3,6,48.11-8.31,88.55-26.84,97.19-43.53-12.64-10.51-48.55-13.43-91.31-6C621.74,867.91,581.31,886.44,572.67,903.13Z"/><path class="cls-30" d="M749.54,859.28a82,82,0,0,0-11.92-3.23,155.46,155.46,0,0,0-24-2.22,253.9,253.9,0,0,0-48,4.36,267.59,267.59,0,0,0-47.6,13.57,172.63,172.63,0,0,0-23.43,11.3,100.51,100.51,0,0,0-11.42,8,39.23,39.23,0,0,0-10.53,12.08c3.17-5.21,7-8.24,10.72-11a89.88,89.88,0,0,1,11.49-7,166,166,0,0,1,23.45-10.06,297.09,297.09,0,0,1,47.5-12.53,288.16,288.16,0,0,1,47.8-5.37,159.52,159.52,0,0,1,23.92,1,78.48,78.48,0,0,1,11.91,2.24,34.87,34.87,0,0,1,11.7,5.22A34.44,34.44,0,0,0,749.54,859.28Z"/><path class="cls-31" d="M1654.83,699.26c-7.4,5-32,10.27-61.3,12.77-31.23,2.67-57.27,1.28-62.86-3-101.61,9-206.68,20.56-312,33.79h0s-24.53,2.26-34.24.18c-9-1.92-20.49,12.25-38.08,17.3-18,5.18-31.34,7.23-57.51,10.74-21.66,2.92-30.77,4.12-47.15,4.37-10.29.17-22.56-14.41-36.93-7.74-14,6.5-37.67,9.57-37.67,9.57h0C811.69,800.06,661.64,824.87,528,848.35c-70.62-14.6-141.68,16.79-167.81,30.27C143.47,918.75,0,949.27,0,949.27V1063H1920V689.31C1837.91,689.31,1748.57,692.92,1654.83,699.26Z"/><path class="cls-32" d="M858.23,934.05a10.76,10.76,0,0,0-1.36-4.8,8.91,8.91,0,0,0-1.75-2.16,16.59,16.59,0,0,0-6.76-3.36,54.12,54.12,0,0,0-13.25-1.44c-17.56.05-34.94,3.64-52.28,7.58-17.32,4.25-34.59,9.3-51.78,15.31a513,513,0,0,0-51.35,20.69c17.34-3.8,34.64-7.87,51.91-12.32,17.27-4.27,34.53-8.85,51.79-12.88q12.95-3.21,25.9-5.79a242.12,242.12,0,0,1,25.89-4.1,59.25,59.25,0,0,1,12.84.05,13.37,13.37,0,0,1,6,2.06,3.71,3.71,0,0,1,1.49,2,9.51,9.51,0,0,1-1,3.66c-2.81,6-6.77,10.59-10.52,15s-7.75,8.35-11.67,12.38a126.78,126.78,0,0,0,12.26-9.78c4-3.82,8-7.31,11.69-13.78a18.05,18.05,0,0,0,1.27-3.14A14.5,14.5,0,0,0,858.23,934.05Z"/><path class="cls-33" d="M1318,849.9a5.81,5.81,0,0,0-2.11-3.78,9.65,9.65,0,0,0-4.32-1.91,30.93,30.93,0,0,0-8.52-.4,51.62,51.62,0,0,1,8.32,2.89,12.55,12.55,0,0,1,3.83,2.63,3.52,3.52,0,0,1,1,1.86,4.31,4.31,0,0,1-.56,1.77,18.4,18.4,0,0,1-3.3,4.29,46.21,46.21,0,0,1-3.8,3.41c-2.59,2.08-5.22,4-7.89,5.82-5.34,3.51-10.72,6.94-16.14,10.06s-10.83,6.36-16.27,9.35l-32.65,18.41c-10.88,6.17-21.76,12.47-32.59,19.39a266.69,266.69,0,0,0,33.36-12.51c11.06-4.85,22-10.41,33-16.49,10.9-6.29,21.78-12.92,32.42-21.51a97.31,97.31,0,0,0,7.89-7,56.52,56.52,0,0,0,3.85-4.29,24.53,24.53,0,0,0,3.66-5.8,13.24,13.24,0,0,0,.75-2.5,6.82,6.82,0,0,0,.2-1.74A6.71,6.71,0,0,0,1318,849.9Z"/><path class="cls-34" d="M335.1,919.56c-4.86.27-9.73.4-14.58.91-9.7,1-19.42,2-29.1,3.79-19.4,3-38.72,7.79-58,13.23a516.78,516.78,0,0,0-57.51,20.67,388.85,388.85,0,0,0-56.65,29.38c19.09-7.72,38.23-14.38,57.36-21,9.57-3.23,19.14-6.5,28.73-9.46l14.37-4.55,14.4-4.22c19.19-5.61,38.41-10.88,57.67-15.55,19.26-4.83,38.55-9.07,57.87-13.68C344.81,919.1,340,919.26,335.1,919.56Z"/><path class="cls-35" d="M599.25,997.16a20.06,20.06,0,0,0-3.79-3.36,36.15,36.15,0,0,0-7.93-3.85,65.23,65.23,0,0,0-16.1-3.09c-10.77-.84-21.51.41-32.2,2.62a130.51,130.51,0,0,0-31.75,11.5A93,93,0,0,0,492,1011a59.82,59.82,0,0,0-7.39,7.25,34,34,0,0,0-3.38,5,14,14,0,0,0-1.91,7.41,9.87,9.87,0,0,1,2.37-6.09,21.88,21.88,0,0,1,3.53-3.54,48,48,0,0,1,7.55-4.89,121.28,121.28,0,0,1,15.51-6.84,246.28,246.28,0,0,1,31.46-9,229,229,0,0,1,31.67-5,98.57,98.57,0,0,1,15.84-.09,33.65,33.65,0,0,1,7.86,1.49,13.88,13.88,0,0,1,3.8,1.92,6.72,6.72,0,0,1,2.91,4.93A10.4,10.4,0,0,0,599.25,997.16Z"/><path class="cls-36" d="M1629.46,742.09a10.56,10.56,0,0,0-1.66-1.82,18.94,18.94,0,0,0-3.54-2.26,37.43,37.43,0,0,0-7.23-2.61,70.35,70.35,0,0,0-14.55-1.89,124,124,0,0,0-29,2.71,137.55,137.55,0,0,0-28.72,9.46,95.87,95.87,0,0,0-14.09,8,57.52,57.52,0,0,0-6.85,5.59,31.61,31.61,0,0,0-3.26,3.7,17.89,17.89,0,0,0-1.46,2.47,7,7,0,0,0-.77,3.48,4.86,4.86,0,0,1,1-2.84,9.68,9.68,0,0,1,1.58-1.66,19.57,19.57,0,0,1,3.38-2.32,50.3,50.3,0,0,1,7-3.24c4.69-1.91,9.43-3.33,14.17-4.77,9.48-2.69,19-5.06,28.53-7,9.52-2.1,19.07-3.75,28.62-5.08,4.77-.57,9.55-1.16,14.33-1.25a39.73,39.73,0,0,1,7.15.27,13.49,13.49,0,0,1,3.53.86,5.85,5.85,0,0,1,1.7,1,3.42,3.42,0,0,1,1.26,2.36A5.39,5.39,0,0,0,1629.46,742.09Z"/><path class="cls-37" d="M340.26,1009.34a10.12,10.12,0,0,0-1.66-1.81,19,19,0,0,0-3.54-2.27,38.26,38.26,0,0,0-7.22-2.61,70.54,70.54,0,0,0-14.56-1.89,124,124,0,0,0-29,2.71,137,137,0,0,0-28.72,9.47,94.88,94.88,0,0,0-14.09,7.94,57.52,57.52,0,0,0-6.85,5.59,31.61,31.61,0,0,0-3.26,3.7,17.89,17.89,0,0,0-1.46,2.47,7,7,0,0,0-.77,3.48,4.86,4.86,0,0,1,1-2.84,9.25,9.25,0,0,1,1.58-1.65,18.86,18.86,0,0,1,3.38-2.32,50.38,50.38,0,0,1,7-3.25c4.69-1.91,9.43-3.33,14.17-4.76,9.49-2.7,19-5.07,28.53-7,9.52-2.1,19.07-3.75,28.62-5.08,4.77-.57,9.56-1.16,14.33-1.25a40.67,40.67,0,0,1,7.15.27,13.49,13.49,0,0,1,3.53.86,5.85,5.85,0,0,1,1.7,1,3.42,3.42,0,0,1,1.26,2.36A5.39,5.39,0,0,0,340.26,1009.34Z"/><path class="cls-38" d="M554.24,903.49a11.74,11.74,0,0,0-1.91-2.08,21.55,21.55,0,0,0-4.09-2.65,46.27,46.27,0,0,0-8.4-2.91,112.75,112.75,0,0,0-17-2.7,206,206,0,0,0-34,.57,289.26,289.26,0,0,0-67.57,14.68C410.18,912.67,399,917,388,925.06a42.49,42.49,0,0,0-4.12,3.68,19.55,19.55,0,0,0-4.24,6.18,13.57,13.57,0,0,0-.54,1.47c-.18.68-.35,1.4-.49,2.12a17,17,0,0,0,.13,5.68,10.7,10.7,0,0,0,2.56,5.3,14.92,14.92,0,0,0,4.58,3.28c5.83,2.58,11.52,3.15,17.22,3.54,22.75,1.13,45.31-3.32,67.69-9.75-11.28,1-22.55,2.22-33.82,2.38a211.73,211.73,0,0,1-33.69-1.11c-5.55-.82-11.18-1.84-16.38-4.35a12,12,0,0,1-3.41-2.54s0,0,0,0a15.21,15.21,0,0,1,2.48-3,33.85,33.85,0,0,1,3.7-3.11c10.39-7.31,21.54-11.63,32.56-15.63a324.85,324.85,0,0,1,33.37-10c11.17-2.88,22.37-5,33.59-7a291.39,291.39,0,0,1,33.69-3.72,109.07,109.07,0,0,1,16.86.25,44.58,44.58,0,0,1,8.38,1.67,17,17,0,0,1,4.1,1.81c1.25.93,2.85,1.85,3.26,4.88A6.92,6.92,0,0,0,554.24,903.49Z"/><path class="cls-39" d="M1195.27,809.59c-3.76-1.18-7.55-2.07-11.32-3.12L1172.58,804a359.09,359.09,0,0,0-45.6-4.87c-30.43-1.49-60.87.32-91.24,3.43-15.2,1.47-30.36,3.87-45.53,5.94l-45.43,7.09c-15.15,2.24-30.29,4.59-45.44,6.32-7.57.84-15.17,1.87-22.69,1.39a9.37,9.37,0,0,1-2.73-.58l-.26-.12a6,6,0,0,1,.62-.62,31.48,31.48,0,0,1,5.4-3.35c3.67-1.93,7.4-3.58,11.13-5.1a111.14,111.14,0,0,0-11.29,3.51,26.16,26.16,0,0,0-5.61,2.83,4.29,4.29,0,0,0-1.5,1.74,5.68,5.68,0,0,0-.2.9,4.22,4.22,0,0,0,.13,1.23,2.34,2.34,0,0,0,.5.87,3.2,3.2,0,0,0,.8.61,11.45,11.45,0,0,0,2.91.94c7.66,1.31,15.26,1.08,22.87,1.05,15.21-.47,30.41-1.66,45.59-3.18,30.38-2.91,60.68-7.64,91-10.61a909.75,909.75,0,0,1,91-5.8c15.16,0,30.32.32,45.47,1.7l11.36,1.24c3.77.63,7.56,1.12,11.33,1.89s7.55,1.61,11.3,2.72a54.3,54.3,0,0,1,11.2,4.19C1210.35,814.54,1202.79,812,1195.27,809.59Z"/><path class="cls-40" d="M528,848.07l-83.92,14.87-83.89,15.41,0,.55c7-.22,14-1,21.07-1.53l21-2.5c14-1.79,28-4.35,42-6.51,14-2.91,28-5.36,41.91-8.65l20.93-5.06c7-2,13.93-3.73,20.88-6Z"/><polygon class="cls-41" points="920.18 899.7 1049.76 971.01 1015.77 978.33 904.14 907.49 920.18 899.7"/><polygon class="cls-42" points="1103.85 894.63 1171.71 939.22 1153.28 949.99 1093.64 902.15 1103.85 894.63"/><polygon class="cls-43" points="428.05 1004.5 451.27 1063 418.45 1063 411.5 1013.08 428.05 1004.5"/><polygon class="cls-44" points="997.06 950.19 1094.27 1008.97 1055 1029.83 968.81 974.23 997.06 950.19"/><path class="cls-45" d="M993.91,955.35s-45.24,43.44-30.76-1.46S1007.44,944,993.91,955.35Z"/><path class="cls-46" d="M1104,893.77s-20.67,19.13-14-1.08c1.66-5,2.45-14.14,4.53-15.39C1100.91,873.47,1108.65,890,1104,893.77Z"/><path class="cls-47" d="M423.58,1007.35s-21.05,12.76-17.16-2.59,17.23-41,21.41-26.13S433.24,1003,423.58,1007.35Z"/><path class="cls-48" d="M429.05,1002.91a12.39,12.39,0,0,1-4.78,5.36,34.89,34.89,0,0,1-5.14,3.05,19.08,19.08,0,0,1-5.33,1.65,7.75,7.75,0,0,1-5.38-.88,19.58,19.58,0,0,0,5.23-1.55l5.16-2.32c1.73-.74,3.4-1.67,5.2-2.32A12.65,12.65,0,0,0,429.05,1002.91Z"/><path class="cls-49" d="M921.05,890.38c-.61-6.55-5.28-8.53-10.74-6.23s-9.28,10.52-8.67,17.07.48,7.69,10.37,2.88C923.64,898.44,921.66,896.92,921.05,890.38Z"/><path class="cls-50" d="M962.27,973.43a6.15,6.15,0,0,0,4.58-.13,19.53,19.53,0,0,0,4.5-2,91.66,91.66,0,0,0,8.83-5.85c2.92-2.13,5.81-4.43,8.72-6.68l4.35-3.5a8.81,8.81,0,0,0,3.81-5,11.47,11.47,0,0,1-3.56,6.27l-4.22,4.21a90.06,90.06,0,0,1-8.69,7.31,44.22,44.22,0,0,1-9,5.32C968.54,974.44,965.26,975.64,962.27,973.43Z"/><path class="cls-51" d="M1105.27,891.51a5.45,5.45,0,0,1-1.42,3.12l-1.79,2a26.93,26.93,0,0,1-3.73,3.24,15.45,15.45,0,0,1-3.92,2.11,4.92,4.92,0,0,1-4.06,0,14.48,14.48,0,0,0,3.84-2l3.74-2.65,3.77-2.59,1.91-1.24A2.88,2.88,0,0,0,1105.27,891.51Z"/><path class="cls-52" d="M902.58,906.28c.81.71,1.65.34,2.48,0a19.38,19.38,0,0,0,2.48-1.2l5-2.62,5-2.44a11.82,11.82,0,0,0,2.41-1.52,4,4,0,0,0,1.67-3.36,6.34,6.34,0,0,1-1.39,4.56,17.29,17.29,0,0,1-2.4,2.32,28.43,28.43,0,0,1-5,3.09,30.18,30.18,0,0,1-5.08,2,14.64,14.64,0,0,1-2.6.47A2.56,2.56,0,0,1,902.58,906.28Z"/><path class="cls-53" d="M998.38,1063C1379,805.82,1920,689.31,1920,689.31V1063Z"/><path class="cls-54" d="M1426.59,978.16c-28,3.43-56,6.22-84,7.87s-56,2.32-84-.6a175.27,175.27,0,0,1-20.85-3.44c-6.89-1.67-13.81-3.73-20.33-7.59-3.19-2-6.5-4.47-8.63-8.26a9.57,9.57,0,0,1-1.36-5.39,21.14,21.14,0,0,1,1.83-6.8,59.52,59.52,0,0,1,7.79-12.55c2.25-2.88,4.61-5.5,7-8q-7.63,3.76-15.25,7.61a59,59,0,0,0-3.11,6.17,37.2,37.2,0,0,0-3,12.69,27.87,27.87,0,0,0,.81,8.17,22.37,22.37,0,0,0,2.25,5.66c3.38,5.62,6.94,7.73,10.43,9.91,7,3.9,14.07,5.72,21.1,7.2a175.69,175.69,0,0,0,21.11,2.8c28.13,2,56.2.33,84.23-2.11s56-6.26,84-10.59,55.92-9.31,83.84-15C1482.56,970.67,1454.58,974.7,1426.59,978.16Z"/><path class="cls-55" d="M1220.71,945.49a30.21,30.21,0,0,0-.69,7.42,25.16,25.16,0,0,0,1.34,7.3,20,20,0,0,0,4.7,7.48,26.09,26.09,0,0,0,4.86,3.81c6.49,3.9,13,5.54,19.43,6.91a155.23,155.23,0,0,0,19.4,2.47c25.84,1.67,51.61-.16,77.34-2.65s51.44-6.24,77.11-10.46,51.33-9,77-14.48c-25.66,4.56-51.34,8.42-77,11.77s-51.41,6-77.13,7.73-51.46,2.5-77.08-.06a154.32,154.32,0,0,1-19.13-3.12c-6.32-1.54-12.67-3.44-18.56-7.22a23.4,23.4,0,0,1-4.17-3.42,13.4,13.4,0,0,1-3-4.65,7.68,7.68,0,0,1-.09-4.61,26.94,26.94,0,0,1,2.48-6.29c4.26-7.77,9.78-13.67,15.23-19.16q-8.21,4-16.4,8c-.7,1.15-1.39,2.36-2.07,3.62A39.8,39.8,0,0,0,1220.71,945.49Z"/><path class="cls-56" d="M1920,766.88c-22,6.89-43.94,14.35-65.73,23.58l-9.84,4-9.81,4.34L1815,807.48c-13,6.27-26.08,12.31-39,19.14Q1737,846.56,1698.49,870c-25.66,15.62-51.2,32.21-76.46,50.56,25.39-17.49,51-33.2,76.8-47.94s51.69-28.26,77.71-40.66c13-6.37,26.07-12,39.12-17.77l19.64-8,9.82-4,9.85-3.62c21.58-8.38,43.29-15,65-21.09Z"/><path class="cls-57" d="M1913.5,748l-10,3.11-9.9,3.6L1873.84,762l-19.73,8.13-9.86,4.09-9.82,4.48-19.64,9c-13,6.5-26.09,12.78-39.06,19.9-26,13.87-51.79,28.89-77.42,45.31s-51.12,33.81-76.28,53.13c25.3-18.46,50.91-35,76.64-50.52s51.64-29.67,77.67-42.64c13-6.66,26.08-12.49,39.13-18.54l19.66-8.35,9.83-4.14,9.86-3.74,19.73-7.45,19.8-6.54,9.9-3.25,9.93-2.76,5.82-1.62V746Z"/><path class="cls-58" d="M1520.42,1045.19a127,127,0,0,1,4.07-27.09c4.53-16.77,11.44-30.56,19.19-41-8,9.73-15.24,22.83-20.29,39.66a128.71,128.71,0,0,0-4.88,28,132.34,132.34,0,0,0,.18,18.25h2.36A121.18,121.18,0,0,1,1520.42,1045.19Z"/><path class="cls-59" d="M1536.16,1011.23a107.36,107.36,0,0,0-5.6,23.93,114.19,114.19,0,0,0,.07,27.09c0,.26.08.5.11.75h2.75c-.13-.74-.28-1.47-.4-2.22a104.46,104.46,0,0,1-.66-24.72,107.09,107.09,0,0,1,4.77-23.25,113.51,113.51,0,0,1,18-34.85C1548,986.19,1541.26,997.14,1536.16,1011.23Z"/><path class="cls-60" d="M1646.3,784.14c1.76,8.64,3,13.81,3.49,15l.42,7.09s18.06,4.12,22.59-12.51c.41-1.47,1.08-7.74,1.91-18.07C1674.71,775.63,1661.87,788,1646.3,784.14Z"/><path class="cls-61" d="M277.82,188c4.07,1.1,6.86,3.88,6.23,6.21s-4.44,3.32-8.51,2.22L66.65,136.34l.46-1.71Z"/></g></g></svg>