<svg xmlns="http://www.w3.org/2000/svg" xmlns:xlink="http://www.w3.org/1999/xlink" viewBox="0 0 1920 1080"><defs><style>.cls-1{fill:url('#radial-gradient-1')}.cls-2{fill:url('#radial-gradient-2')}.cls-3{fill:url('#radial-gradient-3')}.cls-4{fill:url('#radial-gradient-4')}.cls-5{fill:url('#radial-gradient-5')}.cls-6{fill:url('#radial-gradient-6')}</style><radialGradient id="radial-gradient-1"><stop offset="25%" stop-color="#c6e6f3"/><stop offset="95%" stop-color="rgba(198,230,243,0.1)"/></radialGradient><radialGradient id="radial-gradient-2"><stop offset="25%" stop-color="#68cdf3"/><stop offset="95%" stop-color="rgba(104,205,243,0.1)"/></radialGradient><radialGradient id="radial-gradient-3"><stop offset="25%" stop-color="#ffffff"/><stop offset="95%" stop-color="rgba(255,255,255,0.1)"/></radialGradient><radialGradient id="radial-gradient-4"><stop offset="25%" stop-color="#ffe779"/><stop offset="95%" stop-color="rgba(255,231,121,0.1)"/></radialGradient><radialGradient id="radial-gradient-5"><stop offset="25%" stop-color="#dd503f"/><stop offset="95%" stop-color="rgba(221,80,63,0.1)"/></radialGradient><radialGradient id="radial-gradient-6"><stop offset="25%" stop-color="#51c3d4"/><stop offset="95%" stop-color="rgba(81,195,212,0.1)"/></radialGradient></defs><title>section-7-dark-stars</title>
<circle class="cls-1" cx="1866.25" cy="1024.32" r="4.38"/>
<circle class="cls-1" cx="989.3" cy="829.31" r="4.38"/>
<circle class="cls-1" cx="1063.86" cy="617.44" r="2.47"/>
<circle class="cls-2" cx="1119.32" cy="654.81" r="2.47"/>
<circle class="cls-1" cx="1469.2" cy="346.24" r="2.47"/>
<circle class="cls-2" cx="1136.91" cy="115.73" r="2.47"/>
<circle class="cls-1" cx="1861.61" cy="2.46" r="2.47"/>
<circle class="cls-1" cx="733.28" cy="785.74" r="2.47"/>
<circle class="cls-1" cx="738.22" cy="638.24" r="1.69"/>
<circle class="cls-1" cx="459.97" cy="815.44" r="1.7"/>
<circle class="cls-1" cx="442.16" cy="692.68" r="1.7"/>
<circle class="cls-1" cx="560.93" cy="712.48" r="1.7"/>
<circle class="cls-1" cx="565.02" cy="562.13" r="1.69"/>
<circle class="cls-1" cx="681.81" cy="615.59" r="1.69"/>
<circle class="cls-1" cx="521.27" cy="643" r="2.54"/>
<circle class="cls-1" cx="604.25" cy="629.9" r="2.54"/>
<circle class="cls-1" cx="627.39" cy="575.89" r="2.54"/>
<circle class="cls-3" cx="297.56" cy="775.07" r="2.54"/>
<circle class="cls-1" cx="403.68" cy="708" r="2.54"/>
<circle class="cls-4" cx="554.1" cy="783.18" r="3.82"/>
<circle class="cls-1" cx="688.01" cy="541.65" r="2.54"/>
<circle class="cls-1" cx="758.9" cy="470.67" r="2.54"/>
<circle class="cls-1" cx="766.2" cy="425" r="2.54"/>
<circle class="cls-1" cx="565.46" cy="343.13" r="2.54"/>
<circle class="cls-1" cx="1424.54" cy="620.13" r="2.54"/>
<circle class="cls-1" cx="1640.53" cy="200.37" r="2.54"/>
<circle class="cls-1" cx="1450.25" cy="4.9" r="2.54"/>
<circle class="cls-1" cx="1155.77" cy="392.23" r="2.54"/>
<circle class="cls-4" cx="1269.6" cy="300.47" r="2.54"/>
<circle class="cls-1" cx="1339.67" cy="223.76" r="2.54"/>
<circle class="cls-4" cx="1354.82" cy="164" r="2.54"/>
<circle class="cls-3" cx="1379.52" cy="37.37" r="2.54"/>
<circle class="cls-4" cx="1563.62" cy="175.53" r="2.54"/>
<circle class="cls-1" cx="1044.89" cy="194.65" r="2.54"/>
<circle class="cls-1" cx="848.54" cy="76.91" r="2.54"/>
<circle class="cls-1" cx="365.06" cy="849.42" r="2.54"/>
<circle class="cls-1" cx="471.18" cy="782.3" r="2.54"/>
<circle class="cls-1" cx="655.27" cy="802.47" r="2.54"/>
<circle class="cls-1" cx="663.99" cy="940.09" r="2.54"/>
<circle class="cls-1" cx="770.1" cy="872.99" r="2.54"/>
<circle class="cls-1" cx="954.2" cy="893.14" r="2.54"/>
<circle class="cls-1" cx="1262.77" cy="798.62" r="2.54"/>
<circle class="cls-4" cx="154.01" cy="972.24" r="2.54"/>
<circle class="cls-1" cx="412.68" cy="913.07" r="2.54"/>
<circle class="cls-1" cx="593.56" cy="954.87" r="2.54"/>
<circle class="cls-1" cx="563.11" cy="1039.36" r="2.54"/>
<circle class="cls-1" cx="743.35" cy="1049.4" r="2.54"/>
<circle class="cls-1" cx="804.77" cy="1001.82" r="2.54"/>
<circle class="cls-1" cx="910.89" cy="934.69" r="2.54"/>
<circle class="cls-2" cx="1069.46" cy="1029.16" r="2.54"/>
<circle class="cls-1" cx="1159.67" cy="805.45" r="2.54"/>
<circle class="cls-1" cx="1116.36" cy="847" r="2.54"/>
<circle class="cls-1" cx="1300.46" cy="867.18" r="2.54"/>
<circle class="cls-1" cx="1459.24" cy="774.42" r="2.54"/>
<circle class="cls-1" cx="1397.92" cy="762" r="2.54"/>
<circle class="cls-1" cx="1673.95" cy="812.76" r="2.54"/>
<circle class="cls-1" cx="542.53" cy="888.69" r="1.69"/>
<circle class="cls-1" cx="486.12" cy="866.05" r="1.69"/>
<circle class="cls-1" cx="593.01" cy="883.86" r="1.7"/>
<circle class="cls-1" cx="793.24" cy="940.77" r="1.7"/>
<circle class="cls-1" cx="736.83" cy="918.13" r="1.7"/>
<circle class="cls-1" cx="843.72" cy="936" r="1.7"/>
<circle class="cls-1" cx="1688.09" cy="865.54" r="1.7"/>
<circle class="cls-1" cx="1631.68" cy="842.89" r="1.7"/>
<circle class="cls-3" cx="1738.57" cy="860.71" r="1.7"/>
<circle class="cls-1" cx="858.81" cy="867.47" r="1.7"/>
<circle class="cls-1" cx="802.4" cy="844.82" r="1.7"/>
<circle class="cls-1" cx="909.3" cy="862.64" r="1.7"/>
<circle class="cls-1" cx="755.3" cy="715.66" r="1.7"/>
<circle class="cls-1" cx="698.85" cy="693" r="1.7"/>
<circle class="cls-1" cx="596.75" cy="434.4" r="1.7"/>
<circle class="cls-1" cx="675.96" cy="509.3" r="1.7"/>
<circle class="cls-1" cx="1047.54" cy="570.34" r="1.7"/>
<circle class="cls-1" cx="885.31" cy="580.55" r="1.69"/>
<circle class="cls-1" cx="1151.95" cy="475.86" r="1.7"/>
<circle class="cls-1" cx="1095.54" cy="453.22" r="1.7"/>
<circle class="cls-1" cx="1202.43" cy="471.04" r="1.7"/>
<circle class="cls-1" cx="1269.59" cy="6.79" r="1.7"/>
<circle class="cls-1" cx="1320.07" cy="2" r="1.7"/>
<circle class="cls-1" cx="1323" cy="447.52" r="1.7"/>
<circle class="cls-1" cx="1266.59" cy="424.88" r="1.7"/>
<circle class="cls-1" cx="1373.49" cy="442.7" r="1.7"/>
<circle class="cls-1" cx="901.53" cy="646.99" r="1.7"/>
<circle class="cls-1" cx="1196.36" cy="550.11" r="1.7"/>
<circle class="cls-1" cx="705.56" cy="467.08" r="1.7"/>
<circle class="cls-1" cx="950.04" cy="345.72" r="1.7"/>
<circle class="cls-1" cx="1137.1" cy="999.6" r="1.69"/>
<circle class="cls-4" cx="1687.4" cy="968.38" r="1.69"/>
<circle class="cls-4" cx="1777.5" cy="929.79" r="1.7"/>
<circle class="cls-4" cx="508.51" cy="1048.1" r="1.7"/>
<circle class="cls-1" cx="1764.64" cy="235.33" r="1.7"/>
<circle class="cls-4" cx="178.03" cy="37.65" r="1.7"/>
<circle class="cls-1" cx="1596.47" cy="1027.31" r="1.7"/>
<circle class="cls-1" cx="1893.36" cy="821.52" r="1.69"/>
<circle class="cls-1" cx="1344.95" cy="768.05" r="1.7"/>
<circle class="cls-1" cx="646.17" cy="845.27" r="1.7"/>
<circle class="cls-1" cx="414.57" cy="971.99" r="1.7"/>
<circle class="cls-1" cx="226.3" cy="1060.38" r="1.7"/>
<circle class="cls-1" cx="520.67" cy="819.12" r="1"/>
<circle class="cls-1" cx="546.38" cy="918.46" r="1"/>
<circle class="cls-1" cx="689.75" cy="877.71" r="1"/>
<circle class="cls-1" cx="698.09" cy="804.39" r="1"/>
<circle class="cls-1" cx="686.52" cy="745.23" r="1"/>
<circle class="cls-1" cx="566.32" cy="819.84" r="1"/>
<circle class="cls-1" cx="322.66" cy="710.45" r="1"/>
<circle class="cls-1" cx="348.37" cy="809.78" r="1"/>
<circle class="cls-1" cx="491.74" cy="769" r="1"/>
<circle class="cls-1" cx="368.31" cy="711.16" r="1"/>
<circle class="cls-1" cx="534.8" cy="999.18" r="1"/>
<circle class="cls-1" cx="703.88" cy="1057.76" r="1"/>
<circle class="cls-1" cx="580.45" cy="999.89" r="1"/>
<circle class="cls-1" cx="1006" cy="896.93" r="1"/>
<circle class="cls-1" cx="1031.73" cy="996.26" r="1"/>
<circle class="cls-1" cx="1175.1" cy="955.51" r="1"/>
<circle class="cls-1" cx="1051.68" cy="897.64" r="1"/>
<circle class="cls-1" cx="838.22" cy="630.72" r="1"/>
<circle class="cls-1" cx="863.93" cy="730.05" r="1"/>
<circle class="cls-1" cx="1007.3" cy="689.3" r="1"/>
<circle class="cls-1" cx="883.88" cy="631.43" r="1"/>
<circle class="cls-1" cx="1524.79" cy="10.83" r="1"/>
<circle class="cls-1" cx="1550.5" cy="110.17" r="1"/>
<circle class="cls-1" cx="1693.87" cy="69.42" r="1"/>
<circle class="cls-1" cx="1570.44" cy="11.54" r="1"/>
<circle class="cls-1" cx="1079.28" cy="76.43" r="1"/>
<circle class="cls-1" cx="1105" cy="175.77" r="1"/>
<circle class="cls-1" cx="1248.36" cy="135" r="1"/>
<circle class="cls-1" cx="1124.93" cy="77.15" r="1"/>
<circle class="cls-1" cx="705.14" cy="37.85" r="1"/>
<circle class="cls-1" cx="730.85" cy="137.19" r="1"/>
<circle class="cls-1" cx="874.22" cy="96.44" r="1"/>
<circle class="cls-1" cx="801.32" cy="9.63" r="1"/>
<circle class="cls-1" cx="415.87" cy="59.06" r="1"/>
<circle class="cls-1" cx="441.58" cy="158.39" r="1"/>
<circle class="cls-1" cx="585" cy="117.64" r="1"/>
<circle class="cls-1" cx="461.52" cy="59.77" r="1"/>
<circle class="cls-1" cx="1357" cy="823" r="1"/>
<circle class="cls-1" cx="1382.72" cy="922.3" r="1"/>
<circle class="cls-1" cx="1526.09" cy="881.55" r="1"/>
<circle class="cls-1" cx="1402.66" cy="823.68" r="1"/>
<circle class="cls-1" cx="1731.14" cy="1027.45" r="1"/>
<circle class="cls-1" cx="1776.8" cy="1028.16" r="1"/>
<circle class="cls-1" cx="825.75" cy="317" r="1"/>
<circle class="cls-1" cx="1288.62" cy="660.77" r="1"/>
<circle class="cls-1" cx="1084.44" cy="356.85" r="1"/>
<circle class="cls-1" cx="375.38" cy="1017.24" r="1.7"/>
<circle class="cls-1" cx="493.75" cy="530.44" r="1.7"/>
<circle class="cls-1" cx="400.84" cy="544.18" r="1.7"/>
<circle class="cls-1" cx="931.1" cy="969.89" r="1.7"/>
<circle class="cls-1" cx="1053.96" cy="839.33" r="1.7"/>
<circle class="cls-1" cx="1170.75" cy="892.79" r="1.7"/>
<circle class="cls-1" cx="1194.51" cy="744.42" r="1.7"/>
<circle class="cls-1" cx="889.78" cy="821.38" r="1.7"/>
<circle class="cls-1" cx="622.42" cy="922.49" r="1.7"/>
<circle class="cls-1" cx="739.21" cy="975.99" r="1.7"/>
<circle class="cls-1" cx="664.08" cy="1046.82" r="1.7"/>
<circle class="cls-1" cx="473.11" cy="1019.24" r="1.69"/>
<circle class="cls-1" cx="762.97" cy="827.45" r="1.7"/>
<circle class="cls-1" cx="458.24" cy="904.55" r="1.7"/>
<circle class="cls-1" cx="250.3" cy="716.57" r="1.7"/>
<circle class="cls-1" cx="367.06" cy="770" r="1.7"/>
<circle class="cls-1" cx="390.82" cy="621.53" r="1.69"/>
<circle class="cls-4" cx="86.09" cy="698.62" r="1.7"/>
<circle class="cls-3" cx="301.61" cy="502.6" r="1.7"/>
<circle class="cls-1" cx="272.53" cy="516.27" r="1.7"/>
<circle class="cls-1" cx="237.12" cy="495.1" r="1.7"/>
<circle class="cls-1" cx="40.99" cy="384.5" r="1.7"/>
<circle class="cls-1" cx="40.38" cy="263.62" r="1.7"/>
<circle class="cls-1" cx="55.13" cy="321.49" r="1.7"/>
<circle class="cls-1" cx="16.65" cy="200.6" r="1.7"/>
<circle class="cls-1" cx="206.3" cy="518.25" r="1.7"/>
<circle class="cls-1" cx="70.19" cy="960.75" r="1.7"/>
<circle class="cls-1" cx="66.73" cy="532.6" r="1.7"/>
<circle class="cls-1" cx="138.82" cy="477.1" r="1.7"/>
<circle class="cls-1" cx="131.1" cy="425.66" r="1.7"/>
<circle class="cls-1" cx="86.8" cy="411.51" r="1.7"/>
<circle class="cls-1" cx="166.41" cy="357.5" r="1.7"/>
<circle class="cls-1" cx="853.9" cy="373.89" r="1.7"/>
<circle class="cls-3" cx="1044.88" cy="277.75" r="1.7"/>
<circle class="cls-2" cx="1117.3" cy="30.31" r="1.7"/>
<circle class="cls-1" cx="812.58" cy="225.39" r="1.7"/>
<circle class="cls-1" cx="545.09" cy="255.09" r="1.7"/>
<circle class="cls-1" cx="667.95" cy="6.54" r="1.7"/>
<circle class="cls-1" cx="784.74" cy="178" r="1.7"/>
<circle class="cls-1" cx="484.09" cy="102.88" r="1.7"/>
<circle class="cls-1" cx="355.06" cy="229.36" r="1.69"/>
<circle class="cls-1" cx="357.16" cy="34.27" r="1.7"/>
<circle class="cls-1" cx="1372.5" cy="369.07" r="1.7"/>
<circle class="cls-1" cx="1531.03" cy="233.44" r="1.69"/>
<circle class="cls-1" cx="1647.82" cy="286.89" r="1.7"/>
<circle class="cls-3" cx="1671.57" cy="20.4" r="1.7"/>
<circle class="cls-1" cx="1448.95" cy="214.76" r="1.69"/>
<circle class="cls-1" cx="1821.89" cy="684.76" r="1.7"/>
<circle class="cls-1" cx="1344.82" cy="991.67" r="1.7"/>
<circle class="cls-3" cx="1467.68" cy="861.11" r="1.7"/>
<circle class="cls-1" cx="178.62" cy="426.3" r="1.7"/>
<circle class="cls-1" cx="323.96" cy="560.69" r="1.7"/>
<circle class="cls-1" cx="86.8" cy="349.78" r="1.7"/>
<circle class="cls-1" cx="1475.95" cy="950.41" r="1.7"/>
<circle class="cls-1" cx="1584.47" cy="914.57" r="1.7"/>
<circle class="cls-1" cx="1550.52" cy="821.76" r="1.7"/>
<circle class="cls-1" cx="1303.5" cy="843.17" r="1.7"/>
<circle class="cls-1" cx="521.46" cy="395.8" r="1.7"/>
<circle class="cls-1" cx="430.53" cy="649.12" r="1.7"/>
<circle class="cls-1" cx="1728.65" cy="159.47" r="1.69"/>
<circle class="cls-1" cx="1828.93" cy="77.16" r="1.7"/>
<circle class="cls-4" cx="1109.51" cy="356.2" r="1.7"/>
<circle class="cls-1" cx="834.36" cy="453.23" r="1.69"/>
<circle class="cls-1" cx="1762.51" cy="34.15" r="1.69"/>
<circle class="cls-1" cx="1782.43" cy="298.52" r="1.7"/>
<circle class="cls-1" cx="1399.45" cy="524" r="1.7"/>
<circle class="cls-1" cx="1479.43" cy="686.74" r="1.7"/>
<circle class="cls-1" cx="1758.79" cy="967.91" r="1.7"/>
<circle class="cls-1" cx="1719.91" cy="560.37" r="1.7"/>
<circle class="cls-1" cx="1551.16" cy="431.5" r="1.7"/>
<circle class="cls-1" cx="1552.5" cy="579.67" r="1.7"/>
<circle class="cls-1" cx="1029.86" cy="738.82" r="1.7"/>
<circle class="cls-1" cx="1245.86" cy="603.78" r="1.7"/>
<circle class="cls-1" cx="338.1" cy="373.63" r="1.7"/>
<circle class="cls-1" cx="54.01" cy="167.82" r="1.7"/>
<circle class="cls-1" cx="644.74" cy="259.81" r="1.7"/>
<circle class="cls-4" cx="524.53" cy="55.88" r="1.7"/>
<circle class="cls-1" cx="1662.97" cy="136.3" r="1.7"/>
<circle class="cls-1" cx="54.6" cy="633.28" r="2.47"/>
<circle class="cls-1" cx="468.02" cy="506.53" r="2.47"/>
<circle class="cls-1" cx="1580.53" cy="264.99" r="2.47"/>
<circle class="cls-1" cx="895.08" cy="302.21" r="4.38"/>
<circle class="cls-5" cx="1331.95" cy="920.79" r="1.92"/>
<circle class="cls-5" cx="334.24" cy="749.58" r="1.92"/>
<circle class="cls-5" cx="1090.24" cy="527.06" r="1.92"/>
<circle class="cls-5" cx="435.52" cy="356.43" r="5.09"/>
<circle class="cls-5" cx="1421.02" cy="436.77" r="5.09"/>
<circle class="cls-6" cx="34.68" cy="731.82" r="5.09"/>
<circle class="cls-6" cx="1879.84" cy="613.11" r="5.1"/>
<circle class="cls-5" cx="1305.08" cy="81" r="1.92"/>
<circle class="cls-5" cx="612.08" cy="47.56" r="1.92"/>
<circle class="cls-5" cx="1829.52" cy="838.48" r="1.92"/>
<circle class="cls-1" cx="546.13" cy="208.05" r="4.38"/>
<circle class="cls-1" cx="1455.98" cy="1070.17" r="4.38"/>
<circle class="cls-1" cx="1888.35" cy="264.76" r="4.38"/>
<circle class="cls-1" cx="464.09" cy="159.55" r="7.17"/>
</svg>