<svg xmlns="http://www.w3.org/2000/svg" xmlns:xlink="http://www.w3.org/1999/xlink" viewBox="0 0 1920 1080" preserveAspectRatio="none"><defs><style>.cls-1{fill:#010b25}</style></defs><title>section-7-dark-overlay</title><path class="cls-1" d="M1484.1,693.8c-108.54,60.47,190.77,32,302.59,64s233.53,167.16,0,67.57-624.92,7.11-684.12-28.45,244.13-144.1,381.53-185c131.56-39.05,108.54,21.41,0,81.88zm-1472.66-379.49c-28.93-15.64-10.56,186.43,144.25,256.81,100.81,45.88,59.81,144.58-38.69,228.28s-163.63,221.13-31.67,89.41c205.81-205.45,566.45-228.28,561.17-262.52s-212.86,7.61-223.42-59,453.47-161.59,450.35-180.69c-5.28-32.34-343.07,63.28-471.46,83.7-119.62,19-216.38,28.53-309.61-41.85-45.62-34.45-66.85-106.53-80.92-114.14zm1780.28-314.31h-1265.2c-255,51.8-551.89,150.05-437.68,301,190,251.11,884.28-164.86,1010.94-2.53s-375.29,167.4-384.67,233.35c-12.88,90.56,173.57-2.54,232.21,63.41s-806.88,154.77-921.81,446.41c-5.57,14.14-9.34,25.78-11.48,38.36h1872.22c-28.66-86.61-312.67-216.06-594.13-175.33-631,91.31-627.38-123.09-354.19-241,476.15-205.45,832.68-272.41,520.72-361.19-238.98-67.97-185.3-198.93,333.07-302.48z"/></svg>
