<svg xmlns="http://www.w3.org/2000/svg" xmlns:xlink="http://www.w3.org/1999/xlink" viewBox="0 0 1920 1080" preserveAspectRatio="none"><defs><style>.cls-1{isolation:isolate}.cls-2{fill:url(#linear-gradient)}.cls-3{opacity:.35}.cls-4{fill:url(#linear-gradient-2)}.cls-5{fill:url(#linear-gradient-3)}.cls-6{fill:url(#linear-gradient-4)}.cls-7{fill:url(#linear-gradient-5)}.cls-8{fill:url(#linear-gradient-6)}.cls-9{fill:url(#linear-gradient-7)}.cls-10{fill:url(#linear-gradient-8)}.cls-11{opacity:.16;mix-blend-mode:soft-light}</style><linearGradient id="linear-gradient" x1="1935" y1="2052" x2="3015" y2="2052" gradientTransform="translate(-1092 3015) rotate(-90)" gradientUnits="userSpaceOnUse"><stop offset="0" stop-color="#ffe4cc"/><stop offset="1" stop-color="#ffd9c0"/></linearGradient><linearGradient id="linear-gradient-2" x1="9968.2" y1="349.27" x2="9968.2" y2="533.74" gradientTransform="matrix(-1, 0, 0, 1, 10562.4, 0)" gradientUnits="userSpaceOnUse"><stop offset="0" stop-color="#ffc4ac"/><stop offset="0.15" stop-color="#fec3ab" stop-opacity="0.95"/><stop offset="0.42" stop-color="#fbbfaa" stop-opacity="0.83"/><stop offset="0.78" stop-color="#f6b8a7" stop-opacity="0.63"/><stop offset="1" stop-color="#f3b4a5" stop-opacity="0.5"/></linearGradient><linearGradient id="linear-gradient-3" x1="9171.82" y1="370.25" x2="9135.89" y2="572.2" gradientTransform="matrix(-1, 0, 0, 1, 10562.4, 0)" gradientUnits="userSpaceOnUse"><stop offset="0" stop-color="#ffc4ac"/><stop offset="0.11" stop-color="#fec3ac" stop-opacity="0.95"/><stop offset="0.31" stop-color="#fcc0aa" stop-opacity="0.82"/><stop offset="0.58" stop-color="#f9bca8" stop-opacity="0.62"/><stop offset="0.9" stop-color="#f4b6a6" stop-opacity="0.33"/><stop offset="1" stop-color="#f3b4a5" stop-opacity="0.24"/></linearGradient><linearGradient id="linear-gradient-4" x1="9103.59" y1="359.43" x2="9069.76" y2="549.63" gradientTransform="matrix(-1, 0, 0, 1, 10562.4, 0)" gradientUnits="userSpaceOnUse"><stop offset="0" stop-color="#ffc4ac"/><stop offset="0.13" stop-color="#fec3ab" stop-opacity="0.95"/><stop offset="0.37" stop-color="#fcbfaa" stop-opacity="0.83"/><stop offset="0.68" stop-color="#f8baa8" stop-opacity="0.63"/><stop offset="1" stop-color="#f3b4a5" stop-opacity="0.4"/></linearGradient><linearGradient id="linear-gradient-5" x1="8802.98" y1="474.74" x2="8774.68" y2="617.76" gradientTransform="matrix(-1, 0, 0, 1, 10562.4, 0)" gradientUnits="userSpaceOnUse"><stop offset="0" stop-color="#ffb399"/><stop offset="0.17" stop-color="#feb198" stop-opacity="0.95"/><stop offset="0.49" stop-color="#faac96" stop-opacity="0.83"/><stop offset="0.92" stop-color="#f3a392" stop-opacity="0.64"/><stop offset="1" stop-color="#f2a191" stop-opacity="0.6"/></linearGradient><linearGradient id="linear-gradient-6" x1="10323.51" y1="433.04" x2="10414.58" y2="596.82" xlink:href="#linear-gradient-3"/><linearGradient id="linear-gradient-7" x1="9969.21" y1="510.92" x2="9991" y2="613.63" xlink:href="#linear-gradient-3"/><linearGradient id="linear-gradient-8" x1="9056.36" y1="474.95" x2="9042.54" y2="597.05" xlink:href="#linear-gradient-3"/></defs><title>section-7-light-bg</title><g class="cls-1"><rect class="cls-2" width="1920" height="1080"/><g class="cls-3"><path class="cls-4" d="M0,281.22c5.87-7,10.63-8.11,26.91-8.24,17.48-.13,18.56-5.25,28.09-15.98s16.48-13.66,32.33-13.66c16.67,0,17.92,3.92,30.31,11.19,7,4.08,17.79,5.58,25.59,8.39,17,6.12,13.49,8.07,11.69,21.21,14.27,1.81,30,10.8,44.66,8.17,8.49-1.52,13-6.42,21.69-6.83,7.86-.38,18.15,1.66,25.71,3.7,4.9,1.33,12.47,2.67,16.68,5.07,2.5,1.42,.7,5,4,6.88,9.61,5.54,18.11,5.51,22.45,17.12,5.14,13.76,1.17,15,17.92,19.61,12.19,3.37,15.39,11.52,26.79,13.66,15.16,2.84,21.92-5,30-13.64,10.62-11.3,17.86-8.47,30.47-14.55,13.24-6.37,5.67-14.85,14.33-24,13.58-14.3,46.61-12.24,65.24-13.85,28.62-2.48,57.23,8.36,64,36.09,1.21,5-1.18,13.83,3.5,17.22,3.31,2.41,13.6-.85,17.64,.15,6.76,1.67,7.11,4.61,13.09,7.17,4.54,1.94,11.45,1.62,15.34,3.91,9.84,5.79,8.92,18.1,16.32,24.24,6.89,5.72,17.56-1.58,28.2,3.7,11.21,5.56,8.48,9.42,22,10,17.85,.72,19.91-1.24,30.7-10.28,8.36-7,20.94-8.41,26.93-19.33,4.6-8.38,5.11-19,8.85-27.33,5.36-11.93,17.1-24.46,29.53-31,11.39-6,23.9-2.29,35.75-6.56,12.28-4.41,16.18-14.62,29.38-18,12.52-3.15,28.86-1.9,41.93-1.39,30.83,1.22,59.6,5.94,64.25,36.47,.9,5.9-2.15,24.65,1.57,29.35,4.55,5.74,25,8.69,33,10.19,10.12,1.89,21.75,1.06,30.7,6.23,10.77,6.22,9.09,17.41,16.67,25.88,12.58,14.05,20.38,16.33,39.52,19.07,16.85,2.42,33.84,11.26,50,12.86,13.51,1.34,18.87-2.19,29.73,6.84,6.25,5.19,2.11,6.56,12.1,8,9.82,1.38,19.58-4.14,28.44-5.48-.48,1.27-1.48,1-2.48,2.07l26.86,197c-23,11.17-44,25.93-69,34.18-25.93,8.57-57.18,4.53-84.55,4.53-13.94,0-29.38-1.74-43.14,.35-16.14,2.47-28.69,11.4-42.55,18.2-88.68,43.39-203.14,17.47-299.57,24.68-53.9,4-104,18.34-157.12,25-48.35,6-96.41,.42-144.55-3.38-108.9-8.6-219.32-4.75-327.64-19.31-4.48-.6-12.12-1.07-20.26-1.92z"/><g><path class="cls-5" d="M1388.34,377.74c2.18-.44,5,.07,7.16,.11a1,1,0,0,1,0,.17,18.82,18.82,0,0,1-7.16-.28z"/><path class="cls-6" d="M1050.94,569.06c5.25-15.9,.32-32.31,8.39-48.82,6.81-13.93,23.56-19.58,31.67-31.72,8.28-12.39,16-23.22,26.25-34.46,7.41-8.1,15.34-6.89,24.15-12.53,12.23-7.83,17.2-13.31,34.06-14.83,22.51-2,30.08-2.66,44.42-17.13,6.93-7,12.73-13.34,22.73-15.89,22.47-5.72,46,5.15,69.44,4.3,.07-.46-.15-.76-.69-.88,10.69-3.19,25.78-8.73,26.27-19.08,6.15-1.22,2.59-7.46,5.85-12.81,5.71-9.36,18.09-7.39,31.59-6.85,21.25,.85,42.54,.8,63.58,0,11.13-.44,30,2.66,39.81-1.93,8.71-4.1,10.57-12.88,17.37-19.36a68.71,68.71,0,0,1,30.59-17.11c15.21-4.07,23.85,3.85,37.31,2.08,11.78-1.55,13.28-13.42,28.34-10.33,12.2,2.5,19.69,13.68,32.68,18,24.87,8.26,50.18,9.67,72.73-2,14.14-7.29,10.42-15.63,17.83-25.16,7.29-9.38,22.75-12.42,34.44-16.13,23.28-7.4,49.43-8.68,74.19-6.84s36.86,11.83,57.58,21c13.5,6,14.73,7.19,21.31,18.22,3.59,6,10.22,11.06,17.17,14.46v350.06c-3.56,.15-7.92,.34-10.76,.68-37.7,4.59-73.67-1.29-111.12,1.49-22.1,1.64-44.59,.87-66.8,.82-25.86,0-50.61,4.4-76.36,4.58-93.53,.64-187.3-10.14-280.54-13.93-50.19-2-101.9-1.16-151.7-6.79-37.31-4.21-79.14-5-114.94-14.54-31.72-8.44-71.85-23.92-71.18-54.54,.31-14.39,10.46-20.28,14.34-32.03z"/></g><path class="cls-7" d="M1633.52,587.78c2.51-10.44-4.06-19.78-1-30.11,2.21-7.44,15.3-20.07,22.77-22.85,8.07-3,15.07,1.79,23,1.53a64.53,64.53,0,0,0,11.45-1.72c5.24-7,10.21-16.92,17.94-20.86,8.6-4.38,24.86-1,34.57-1.4,12-.52,24.58-.42,31.73-10.24,5.17-7.1,8.89-17.47,13.11-25,4.1-7.32,4.89-18.73,12.38-25.42,6.31-5.65,16-6,24.34-9.05,20.46-7.41,38.53-15.84,59.22-3.17,6.88,4.22,14.24,9.72,12.47,18.25-1.4,6.74-12.35,11.69-7.51,20.47,8.27,15,20.47,.81,32-5.27v172.43c-4.85-.35-10.62-.67-15.22-.85-27.17-1.08-53.73-2-80.62-5.77-16.52-2.32-33.44-.41-50.17-1.06-17.82-.7-35.24-3.27-53.19-2.4-9.82,.48-19.82,4.37-29.34,4.67-9.71,.3-18.34-4-27.19-6.88-12.82-4.22-30.28-5.29-36.85-17.37-7.04-12.95,3.39-16.59,6.11-27.93z"/><path class="cls-8" d="M0,400.51a100.62,100.62,0,0,1,25.6-12.51c14.5-4.56,24.73-14.23,42.64-14.71s34.11-5.6,52,0,17.06,29.89,29.85,31.41,47.39-9.11,64.63,0,25.77,41.75,25.77,53.9-8.91,21.25-9.58,28.08,6.17,23.44,14.69,17.42,11.09-26.53,17.91-31.84,29-6.07,45.2,2.28,22.17,8.35,32.41,6.07,19.61-5.31,27.29,3.79,5.12,21,5.12,21,32-7.33,15.34,35.56-34.51,146.54-34.51,146.54h-354.36z"/><path class="cls-9" d="M359.47,512.86c4.22-2.89,5.9-.52,10.23-1.51,2.94-.67,4.54-3.38,7.23-4.66,6.28-3,15.58-2,22.19-.57,9,1.89,15.21,6,21.78,10.91,7,5.21,10.89,13.45,21.65,14,.49-2.08,1.16-5.38,.52-7.55-.83-2.81-3.16-4.22-2.52-7.52,7.87-1.76,13-6.4,15.19-13.34,1.58-5.07,2.06-6.8,7.86-9.1,6.22-2.46,12.81-4.07,18.68-7.21,3.9-2.08,5.45-5.74,9-8s7.11-1.57,10.14-4.94,3.91-7.09,9.14-8.45c7.47-1.93,17.53-.51,25.11,.09,2.68,.22,5.56,.13,8.16,.75,2.93,.71,5.21,2.69,8.1,3.37,3.08,.72,7.09-.21,10.22-.32a36.3,36.3,0,0,1,16.14,3.32,36.85,36.85,0,0,1,21.71,27.14c1.57,8.47,4.72,13.66,14.16,17.1,6.08,2.21,11.84,3.19,17.73-.1,5.13-2.86,6.65-3.08,12.54,0,2.69,1.41,3.06,2.7,5,4.66,2.79,2.86,2.12,1.8,5.44,1.69,8.34-.3,15-2.28,22.42-5.6,6.09-2.73,9.76-4.08,16.83-2.56,8.14,1.76,14.42,6.78,21.43,10.56,5.77,3.12,12.59,4.67,14.17,11.27,1.28,5.32-3.26,9.88-1.82,15,2.23,7.93,16.55,14.51,23.45,19.24,14,9.61,32.91,11,44.8,23.46,9,9.41,11,23.34,14.61,35a46,46,0,0,1,1.58,8.78c.43,3.83,2.28,8.13,1.64,12-6.4-3-10.28-5.1-17.91-4.07-19.53,2.62-39.12,4.58-58.9,5.27-15.79,.55-31.41,.46-47.15,1.87-16.07,1.44-32.13,2.36-48.25,3-15,.62-29.84,2-44.78,3.13-16.93,1.3-33.76,.64-50.7,.06-14.28-.48-28.91-.54-43.1,1-14.57,1.53-28.31,2.91-43,2-27.64-1.65-55.53-3.09-83.25-3q-21.24,0-42.48,0c-6.59,0-16.51,1.66-22.69-.76z"/><path class="cls-10" d="M1348.68,519.17c16.35,.3,31.91,8.32,48.67,9.1,11.57,.54,27.49,2,38.38-1.07,11.63-3.28,16.27-10.18,20.11-19.67,5-12.34,6.12-4.72,23.09-3.94,2.7,9.53,14.92,.12,23.25,1.66,11.61,2.14,18,4.94,17.91-8.86-.12-18.07-16.55-33.59,6.33-45.86,19.09-10.23,40.07-13.47,62.75-9.68,10.93,1.83,25.88,2.61,35.88,7.38,9.2,4.38,15.88,15.18,22.93,21.94,11.76,11.29,21.71,19.62,20.69,36.3,10.67-2.07,8.24,4.78,14.81,7.31,2.63,1,7.24-.35,9.59,.8,2,1,7.21,5.21,8.67,5.72,12.72,4.47,24.66,3.24,36.84,12.52,20.05,15.29,14.57,57.77,19.27,79.49-14.55,4.08-32.25,3.61-47.44,5.67-25.49,3.45-50,3.81-75.6,2.78-21.28-.85-42.31,.92-63.55,.88-27.41,0-53.74-3-81-4.29-68.27-3.3-137.16-2.54-205.57-2.54z"/></g><g><path class="cls-11" d="M1920,103.6c-155,46.5-334.26,2.07-502.63-.85,5.48,5.52,.12,13.72-8.33,16.87s-18.57,2.68-28.08,2.09c-291.39-17.94-582.61-69.21-872.96-44.32-73.89,6.33-150.61,17.4-221.23,.81-60.93-14.3-113.38-48.51-177.55-50-87.91-2.08-165,84-54.72,102.23,111.42,18.39,232.63,30.47,347,29.54,146.62-1.19,291-26.73,437.55-30.18,310.32-7.3,609.94,84.22,920.22,92.35"/><path class="cls-11" d="M409.13,202.69c49.13-3.91,97.74-10.69,146.87-14.39,39.45-3,79.14-4,118.79-5,81.82-2.06,163.67-4.11,245.54-3.79,42.76,.17,87.54,1.36,124.67,16.32-17.25,12.44-46.29,5.32-70.43,1.75-38.22-5.65-77.71,.13-116.16,4.95-63.85,8-128.36,13.36-193.09,16-29.19,1.2-58.65,1.85-87.52-1.43-19-2.15-37.52-6-56.6-7.48-79.93-6.27-158.42,28.67-238,20.48-11-1.13-21.89-3.09-33-3.48-12.2-.42-24.35,1-36.47,2.17a620.52,620.52,0,0,1-173.39-8.46c-10.39-2-22.13-5.27-25.28-12.54-15.58-35.92,141.2-5.94,157.85-4.91,78.55,4.9,157.78,6.05,236.22-.19z"/></g></g></svg>