<svg xmlns="http://www.w3.org/2000/svg" xmlns:xlink="http://www.w3.org/1999/xlink" viewBox="0 0 437.1 413.86"><defs><style>.cls-1{mask:url(#mask);filter:url(#luminosity-noclip-6);}.cls-10,.cls-16,.cls-18,.cls-2,.cls-20,.cls-30,.cls-32,.cls-4,.cls-6,.cls-8{mix-blend-mode:multiply;}.cls-2{fill:url(#linear-gradient);}.cls-3{mask:url(#mask-2);filter:url(#luminosity-noclip-7);}.cls-4{fill:url(#linear-gradient-2);}.cls-5{mask:url(#mask-3);filter:url(#luminosity-noclip-8);}.cls-6{fill:url(#linear-gradient-3);}.cls-7{mask:url(#mask-4);filter:url(#luminosity-noclip-9);}.cls-8{fill:url(#linear-gradient-4);}.cls-9{mask:url(#mask-5);filter:url(#luminosity-noclip-10);}.cls-10{fill:url(#linear-gradient-5);}.cls-11{isolation:isolate;}.cls-12{fill:#3d84f8;}.cls-13{fill:#052b71;}.cls-14{fill:#a9d0fc;}.cls-15{mask:url(#mask-6);}.cls-16{fill:url(#linear-gradient-6);}.cls-17{mask:url(#mask-7);}.cls-18{fill:url(#linear-gradient-7);}.cls-19{mask:url(#mask-8);}.cls-20{fill:url(#linear-gradient-8);}.cls-21{fill:#fddf85;}.cls-22{fill:#dd641d;}.cls-23{fill:#fac52f;}.cls-24{fill:#094ea1;}.cls-25{fill:#1864d4;}.cls-26{fill:#5dfdf4;}.cls-27{fill:#010b25;}.cls-28{fill:#fff;opacity:0.13;}.cls-29{mask:url(#mask-9);}.cls-30{fill:url(#linear-gradient-9);}.cls-31{mask:url(#mask-10);}.cls-32{fill:url(#linear-gradient-10);}.cls-33{filter:url(#luminosity-noclip-5);}.cls-34{filter:url(#luminosity-noclip-4);}.cls-35{filter:url(#luminosity-noclip-3);}.cls-36{filter:url(#luminosity-noclip-2);}.cls-37{filter:url(#luminosity-noclip);}</style><filter id="luminosity-noclip" x="224.53" y="-8886.3" width="28.39" height="32766" filterUnits="userSpaceOnUse" color-interpolation-filters="sRGB"><feFlood flood-color="#fff" result="bg"/><feBlend in="SourceGraphic" in2="bg"/></filter><mask id="mask" x="224.53" y="-8886.3" width="28.39" height="32766" maskUnits="userSpaceOnUse"><g class="cls-37"/></mask><linearGradient id="linear-gradient" x1="3726.46" y1="966" x2="3766.97" y2="966" gradientTransform="matrix(0.85, -0.52, 0.52, 0.85, -3466.42, 1487.86)" gradientUnits="userSpaceOnUse"><stop offset="0"/><stop offset="1" stop-color="#fff"/></linearGradient><filter id="luminosity-noclip-2" x="164.93" y="-8886.3" width="38.14" height="32766" filterUnits="userSpaceOnUse" color-interpolation-filters="sRGB"><feFlood flood-color="#fff" result="bg"/><feBlend in="SourceGraphic" in2="bg"/></filter><mask id="mask-2" x="164.93" y="-8886.3" width="38.14" height="32766" maskUnits="userSpaceOnUse"><g class="cls-36"/></mask><linearGradient id="linear-gradient-2" x1="3656.48" y1="970.12" x2="3702.59" y2="970.12" xlink:href="#linear-gradient"/><filter id="luminosity-noclip-3" x="25.81" y="-8886.3" width="44.5" height="32766" filterUnits="userSpaceOnUse" color-interpolation-filters="sRGB"><feFlood flood-color="#fff" result="bg"/><feBlend in="SourceGraphic" in2="bg"/></filter><mask id="mask-3" x="25.81" y="-8886.3" width="44.5" height="32766" maskUnits="userSpaceOnUse"><g class="cls-35"/></mask><linearGradient id="linear-gradient-3" x1="3630.47" y1="720.49" x2="3662.07" y2="834.2" xlink:href="#linear-gradient"/><filter id="luminosity-noclip-4" x="125.46" y="-8886.3" width="18.68" height="32766" filterUnits="userSpaceOnUse" color-interpolation-filters="sRGB"><feFlood flood-color="#fff" result="bg"/><feBlend in="SourceGraphic" in2="bg"/></filter><mask id="mask-4" x="125.46" y="-8886.3" width="18.68" height="32766" maskUnits="userSpaceOnUse"><g class="cls-34"/></mask><linearGradient id="linear-gradient-4" x1="3709.77" y1="833" x2="3726.47" y2="833" xlink:href="#linear-gradient"/><filter id="luminosity-noclip-5" x="76.61" y="-8886.3" width="57.61" height="32766" filterUnits="userSpaceOnUse" color-interpolation-filters="sRGB"><feFlood flood-color="#fff" result="bg"/><feBlend in="SourceGraphic" in2="bg"/></filter><mask id="mask-5" x="76.61" y="-8886.3" width="57.61" height="32766" maskUnits="userSpaceOnUse"><g class="cls-33"/></mask><linearGradient id="linear-gradient-5" x1="3884.74" y1="749.92" x2="3624.91" y2="783.83" xlink:href="#linear-gradient"/><filter id="luminosity-noclip-6" x="224.53" y="322.53" width="28.39" height="55.26" filterUnits="userSpaceOnUse" color-interpolation-filters="sRGB"><feFlood flood-color="#fff" result="bg"/><feBlend in="SourceGraphic" in2="bg"/></filter><mask id="mask-6" x="224.53" y="322.53" width="28.39" height="55.26" maskUnits="userSpaceOnUse"><g class="cls-1"><path class="cls-2" d="M252.92,344.65s-20.75,35.46-27,33l-.23-.11c-.63-.37-1-2.18-1.18-4.69.17-.55.35-1,.53-1.47,1.16-2.74,3-5.15,4.37-7.79s2.34-5.71,1.56-8.59-3.28-5.37-3.22-8.39c.06-2.54,1.92-4.66,2.63-7.1,1-3.3-.26-6.83-1.67-10a35.16,35.16,0,0,1-2.66-7c10,8.45,19.15,15.9,23.74,19.61Z"/></g></mask><linearGradient id="linear-gradient-6" x1="3726.46" y1="966" x2="3766.97" y2="966" gradientTransform="matrix(0.85, -0.52, 0.52, 0.85, -3466.42, 1487.86)" gradientUnits="userSpaceOnUse"><stop offset="0" stop-color="#fff"/><stop offset="1" stop-color="#0b46d4"/></linearGradient><filter id="luminosity-noclip-7" x="164.93" y="359.74" width="38.14" height="54.12" filterUnits="userSpaceOnUse" color-interpolation-filters="sRGB"><feFlood flood-color="#fff" result="bg"/><feBlend in="SourceGraphic" in2="bg"/></filter><mask id="mask-7" x="164.93" y="359.74" width="38.14" height="54.12" maskUnits="userSpaceOnUse"><g class="cls-3"><path class="cls-4" d="M203.07,386.49s-7.17,6.33-18.75,16.14S167.7,415,165.61,413.42a1.48,1.48,0,0,1-.44-.57,4.85,4.85,0,0,1-.14-2.57c.22-.18.45-.34.69-.5a45.12,45.12,0,0,0,9.18-7.45c3-3.42,5.16-7.9,4.79-12.46-.19-2.32-1-4.69-.34-6.92.49-1.66,1.75-3,2.45-4.57,1-2.34.78-5,.24-7.55s-1.34-5-1.37-7.53a9.62,9.62,0,0,1,.63-3.56c8.14,10.34,15.47,19.22,19.19,23.68Z"/></g></mask><linearGradient id="linear-gradient-7" x1="3656.48" y1="970.12" x2="3702.59" y2="970.12" xlink:href="#linear-gradient-6"/><filter id="luminosity-noclip-8" x="25.81" y="202.04" width="44.5" height="73.26" filterUnits="userSpaceOnUse" color-interpolation-filters="sRGB"><feFlood flood-color="#fff" result="bg"/><feBlend in="SourceGraphic" in2="bg"/></filter><mask id="mask-8" x="25.81" y="202.04" width="44.5" height="73.26" maskUnits="userSpaceOnUse"><g class="cls-5"><path class="cls-6" d="M61.88,203.57q3,7.63,5.56,15.45c1.72,5.25,3.29,10.71,2.77,16.21a23,23,0,0,1-.44,2.74,30.43,30.43,0,0,1-4.34,9.9,55.27,55.27,0,0,1-4.72,6.22c-8,9.24-18.64,16-29.71,21.21l-5.19-7c3,1,5.37,2.1,8.93,1.36,5.25-1.1,9.65-4.59,13.6-8.21s7.61-7.38,10.19-12c4-7.08,5-15.53,4.34-23.64s-3-16-5.25-23.78C59,202.53,60.46,203,61.88,203.57Z"/></g></mask><linearGradient id="linear-gradient-8" x1="3630.47" y1="720.49" x2="3662.07" y2="834.2" xlink:href="#linear-gradient-6"/><filter id="luminosity-noclip-9" x="125.46" y="242.77" width="18.68" height="16.38" filterUnits="userSpaceOnUse" color-interpolation-filters="sRGB"><feFlood flood-color="#fff" result="bg"/><feBlend in="SourceGraphic" in2="bg"/></filter><mask id="mask-9" x="125.46" y="242.77" width="18.68" height="16.38" maskUnits="userSpaceOnUse"><g class="cls-7"><path class="cls-8" d="M143.6,244.22a31.62,31.62,0,0,1,.48,7.13,15.69,15.69,0,0,1-2.91,7.81v0a18,18,0,0,0,1.07-6.58,5.88,5.88,0,0,0-1.1-3.69,6.32,6.32,0,0,0-3.75-1.77,32.48,32.48,0,0,0-10.08-.4,3.87,3.87,0,0,1-1.86-.08c.28-1,.49-2.11.69-3.17a14.62,14.62,0,0,1,6.61-.53c2.21.25,4.38.76,6.59,1A27.53,27.53,0,0,0,143.6,244.22Z"/></g></mask><linearGradient id="linear-gradient-9" x1="3709.77" y1="833" x2="3726.47" y2="833" xlink:href="#linear-gradient-6"/><filter id="luminosity-noclip-10" x="76.61" y="155.16" width="57.61" height="80.56" filterUnits="userSpaceOnUse" color-interpolation-filters="sRGB"><feFlood flood-color="#fff" result="bg"/><feBlend in="SourceGraphic" in2="bg"/></filter><mask id="mask-10" x="76.61" y="155.16" width="57.61" height="80.56" maskUnits="userSpaceOnUse"><g class="cls-9"><path class="cls-10" d="M132.14,232.72a9.91,9.91,0,0,0,2.08,3l-8.36-.56c1.82-11.37,2.08-25.86-2.87-36.24a23.86,23.86,0,0,0-6.68-8.63,20.42,20.42,0,0,0-2.94-1.93Q101.88,182.14,91,174.83q-4-2.67-7.81-5.46c-2.15-1.56-4.33-3.22-5.62-5.54s-1.46-5.47.32-7.44a5,5,0,0,1,1.68-1.23c-.23,5.3,3.75,9.83,8.33,12.64l18.9,11.64c6.44,4,13.07,8.1,17.36,14.32,6.08,8.8,6.5,20.19,6.71,30.88C131,227.38,131,230.21,132.14,232.72Z"/></g></mask><linearGradient id="linear-gradient-10" x1="3884.74" y1="749.92" x2="3624.91" y2="783.83" xlink:href="#linear-gradient-6"/></defs><title>section-7-dark-astronaut-blue</title><g class="cls-11"><g id="Layer_2" data-name="Layer 2"><g id="Layer_1-2" data-name="Layer 1"><path class="cls-12" d="M437.1,0c-36.49,62.06-90,58.85-142.42,55.69-22.15-1.33-43.07-2.6-62.68.79-19.45,3.35-34.51,18.67-36.62,37.23-1.64,14.45,4.17,27.94,15.16,35.22,7.63,5.06,18,8.59,28.89,12.33,13.53,4.63,27.52,9.42,37.78,17.49,10.5,8.26,13.25,19.35,7.36,29.66s-20.42,17.93-34.36,12.51c-1.31-.51-2.6-1.17-4-1.86a39,39,0,0,0-6-2.62c-15.33-4.89-26.14,4.92-36.61,14.41-14,12.66-26,23.59-48.81,5.15l-2.61-2.13C146,208.77,139.56,203.5,132,200c-13.88-6.44-23.92-.77-41.92,10.67a3.26,3.26,0,1,0,3.5,5.5c18-11.49,25.3-15.1,35.68-10.27,6.84,3.18,12.7,8,18.89,13l2.63,2.14c10.15,8.22,18.74,11.33,26.27,11.33,12.58,0,22.16-8.69,31-16.71,9.93-9,18.51-16.77,30.27-13a34.37,34.37,0,0,1,5,2.23c1.45.73,3,1.49,4.56,2.12,17.87,6.94,35.16-2.72,42.37-15.34,5.89-10.32,6.62-25.72-9-38-11.12-8.75-25.65-13.72-39.7-18.52-10.52-3.6-20.46-7-27.4-11.6-9.08-6-13.67-16.88-12.28-29.06,1.78-15.72,14.64-28.7,31.26-31.56,18.86-3.26,39.41-2,61.17-.71,49.57,3,104.32,6.3,142.82-50Z"/><path class="cls-13" d="M6,267.79a2.06,2.06,0,0,0-1.54.64,1.41,1.41,0,0,0,.62,1.88,4,4,0,0,0,2.17.35l4.88-.13a1.3,1.3,0,0,1,1,.24A.89.89,0,0,1,13,272a2.6,2.6,0,0,1-1.17.56L2,275.31c-.61.17-1.31.43-1.49,1a1.31,1.31,0,0,0,1,1.49,3.73,3.73,0,0,0,1.93-.07l7.83-1.62a.88.88,0,0,1,.78.09.6.6,0,0,1,0,.84,1.7,1.7,0,0,1-.85.38L1.06,280c-.41.1-.89.26-1,.66a.88.88,0,0,0,.45,1,2.25,2.25,0,0,0,1.12.25,24.13,24.13,0,0,0,9.56-1.47,1.34,1.34,0,0,1,1.2-.05.89.89,0,0,1,0,1.27,2.55,2.55,0,0,1-1.27.63l-8.43,2.36c-.58.16-1.26.45-1.31,1.05a1,1,0,0,0,.58.9,2.47,2.47,0,0,0,1.11.21c4,.09,7.84-1.59,11.5-3.24A9.74,9.74,0,0,1,9.11,287a4,4,0,0,0-1.43.49,1.07,1.07,0,0,0-.42,1.32c.27.46.91.51,1.44.46a13.57,13.57,0,0,0,6-2.29,40.59,40.59,0,0,0,5-4.08l5.92-5.37a17.15,17.15,0,0,1-4.69-9.74c-.16-1.29-.59-1.81-1.86-1.54s-2.82.37-4.22.53Z"/><path class="cls-12" d="M253.12,344.52s-.69,1.19-1.87,3.12c-.35.58-.75,1.23-1.19,1.93-6,9.7-19.17,29.84-23.92,28a1,1,0,0,1-.23-.11c-.63-.37-1-2.18-1.18-4.68-.56-7.5.42-21.25.42-21.25-6-3.58-11.93-7.34-17.64-11.23a426.09,426.09,0,0,1-40.88-31.81q-4.66-4.06-9-8c-11.64-10.7-21.41-20.69-28.79-28.63C118.84,261,113.21,254,113.21,254a17.08,17.08,0,0,1-4-7.73c-1.72-7.79,2-16.47,6.57-23.68.44-.69.89-1.36,1.34-2a92.74,92.74,0,0,1,11.49-13.6c5,8.2,30.41,44.66,50.83,69.86,2.49,3.06,4.9,6,7.2,8.63,3.58,4.16,6.87,7.74,9.7,10.46,7.2,6.93,16.8,15.36,26,23.24l3.86,3.27c10,8.46,19.15,15.91,23.74,19.62Z"/><path class="cls-14" d="M251.25,347.64c-.35.58-.75,1.23-1.19,1.93-14.38-8-26.55-15.47-37.6-23-17.79-12.18-32.59-24.58-45.25-37.91-13.33-14-24.93-29.89-36.15-45.22L115.8,222.56c.44-.69.89-1.36,1.34-2l15.75,21.53c11.18,15.27,22.73,31.06,36,45,12.55,13.21,27.23,25.51,44.88,37.59C224.76,332.2,236.9,339.64,251.25,347.64Z"/><path class="cls-14" d="M186.66,285.43a145,145,0,0,1-20,23q-4.66-4.06-9-8a149.21,149.21,0,0,0,21.81-23.61C182,279.86,184.36,282.77,186.66,285.43Z"/><path class="cls-13" d="M253.12,344.52s-20.75,35.47-27,33a1,1,0,0,1-.23-.11c-.63-.37-1-2.18-1.18-4.68-.56-7.5.42-21.25.42-21.25-6-3.58-11.93-7.34-17.64-11.23a132.5,132.5,0,0,0,14.9-21.14l3.86,3.27c10,8.46,19.15,15.91,23.74,19.62Z"/><g class="cls-15"><path class="cls-16" d="M252.92,344.65s-20.75,35.46-27,33l-.23-.11c-.63-.37-1-2.18-1.18-4.69.17-.55.35-1,.53-1.47,1.16-2.74,3-5.15,4.37-7.79s2.34-5.71,1.56-8.59-3.28-5.37-3.22-8.39c.06-2.54,1.92-4.66,2.63-7.1,1-3.3-.26-6.83-1.67-10a35.16,35.16,0,0,1-2.66-7c10,8.45,19.15,15.9,23.74,19.61Z"/></g><path class="cls-14" d="M253.12,344.52s-20.75,35.47-27,33a187.11,187.11,0,0,0,13.74-20.74c-3.12-.37-6.22-2.16-7.47-5.05s-.08-6.8,2.83-8a6.91,6.91,0,0,1,6,.78,20.44,20.44,0,0,1,4.59,4.27A78.21,78.21,0,0,1,250,342Z"/><path class="cls-12" d="M200.49,383.42l2.58,3.07s-2.48,2.19-6.87,6L194.47,394c-2.8,2.41-6.22,5.34-10.15,8.67-11.57,9.8-16.62,12.39-18.71,10.79a1.48,1.48,0,0,1-.44-.57,4.85,4.85,0,0,1-.14-2.57c1-6.78,9.16-21.24,9.16-21.24q-7.38-6.6-14-13.43A306.64,306.64,0,0,1,126.89,335q-3.65-5.32-6.91-10.51C97.17,288.31,88.53,259,88.53,259l27.7-17s5.48,13.52,12.63,29.85c5.45,12.45,11.88,26.54,17.59,37.51q1.44,2.77,2.81,5.25c1,1.73,2.05,3.58,3.26,5.53,6.95,11.18,17.63,25.45,27.38,37.89l1.4,1.78C189.44,370.08,196.77,379,200.49,383.42Z"/><path class="cls-14" d="M196.2,392.47,194.47,394a363,363,0,0,1-92.71-143.13l2-1.22A360.52,360.52,0,0,0,196.2,392.47Z"/><path class="cls-14" d="M146.45,309.29q1.44,2.77,2.81,5.25c1,1.73,2.05,3.58,3.26,5.53A147.84,147.84,0,0,1,126.89,335q-3.65-5.32-6.91-10.51A147.49,147.49,0,0,0,146.45,309.29Z"/><path class="cls-13" d="M203.07,386.49s-7.17,6.33-18.75,16.14S167.7,415,165.61,413.42a1.48,1.48,0,0,1-.44-.57,4.85,4.85,0,0,1-.14-2.57c1-6.78,9.16-21.24,9.16-21.24q-7.38-6.6-14-13.43A91.1,91.1,0,0,0,179.9,358l1.4,1.78c8.14,10.34,15.47,19.22,19.19,23.68Z"/><g class="cls-17"><path class="cls-18" d="M203.07,386.49s-7.17,6.33-18.75,16.14S167.7,415,165.61,413.42a1.48,1.48,0,0,1-.44-.57,4.85,4.85,0,0,1-.14-2.57c.22-.18.45-.34.69-.5a45.12,45.12,0,0,0,9.18-7.45c3-3.42,5.16-7.9,4.79-12.46-.19-2.32-1-4.69-.34-6.92.49-1.66,1.75-3,2.45-4.57,1-2.34.78-5,.24-7.55s-1.34-5-1.37-7.53a9.62,9.62,0,0,1,.63-3.56c8.14,10.34,15.47,19.22,19.19,23.68Z"/></g><path class="cls-14" d="M203.07,386.49s-7.17,6.33-18.75,16.14S167.7,415,165.61,413.42a1.48,1.48,0,0,1-.44-.57,60.47,60.47,0,0,0,6.69-4.25,127.82,127.82,0,0,0,9.78-8.23l6.11-5.52a13.46,13.46,0,0,1-3.56-3.29c-1.51-2.18-1.64-1.85-1.68-4.66a5.09,5.09,0,0,1,2.1-4.33c1.88-1.23,4.48-.72,6.28.61a16.58,16.58,0,0,1,4.11,5.26c1.45-1.44,3.1-2.67,4.55-4.11l.94-.91Z"/><path class="cls-12" d="M57.36,192.75q2.37,5.35,4.52,10.82,3,7.63,5.56,15.45c1.72,5.25,3.29,10.71,2.77,16.21a23,23,0,0,1-.44,2.74,30.43,30.43,0,0,1-4.34,9.9,55.27,55.27,0,0,1-4.72,6.22c-8,9.24-18.64,16-29.71,21.21l-5.19-7c-1.28-1.72-2.54-3.44-3.81-5.15a101.47,101.47,0,0,0,26-22.51c.63-.78,1.26-1.58,1.83-2.41a12.22,12.22,0,0,0,2.52-6.7v-.26c0-2.47-1.15-4.81-2.13-7.09a87.32,87.32,0,0,1-7.14-35c0-2.53,1.11-5.15,3.61-5.57a7.93,7.93,0,0,1,6.8,2.67A22.29,22.29,0,0,1,57.36,192.75Z"/><path class="cls-14" d="M69.77,238a30.43,30.43,0,0,1-4.34,9.9,53.12,53.12,0,0,0-15.6-9.66,12.22,12.22,0,0,0,2.52-6.7v-.26C58.47,232.1,64.24,235,69.77,238Z"/><g class="cls-19"><path class="cls-20" d="M61.88,203.57q3,7.63,5.56,15.45c1.72,5.25,3.29,10.71,2.77,16.21a23,23,0,0,1-.44,2.74,30.43,30.43,0,0,1-4.34,9.9,55.27,55.27,0,0,1-4.72,6.22c-8,9.24-18.64,16-29.71,21.21l-5.19-7c3,1,5.37,2.1,8.93,1.36,5.25-1.1,9.65-4.59,13.6-8.21s7.61-7.38,10.19-12c4-7.08,5-15.53,4.34-23.64s-3-16-5.25-23.78C59,202.53,60.46,203,61.88,203.57Z"/></g><path class="cls-14" d="M22,263c-.11-.47-.81-1.62-5.43,1.76a1.08,1.08,0,0,0-.34,1.32c1.07,2.3,4.47,9,9.28,12.85a1.08,1.08,0,0,0,1.13.12c1.49-.7,5.2-2.61,4.38-3.72l-8.84-12A.85.85,0,0,1,22,263Z"/><path class="cls-12" d="M132.22,220.07a40.47,40.47,0,0,1-5,9.91c-.34.54-.68,1.07-1,1.6-4.72,7.26-8.27,15.13-13,22.39-8.23.15-16.9,2.31-24.68,5-18-21.66-36.44-44-45.15-70.81,1.32-.81,2.61-1.67,3.85-2.59a58.35,58.35,0,0,0,17.55-21c.15-.29.29-.59.44-.89,1.13-2.39,2.33-4.88,4.54-6.33a19.37,19.37,0,0,1,5.91-1.81c3.39-.61,7.22-.85,9.06-.22,9.41,3.23,10.81,12.88,19,18.53,1.66,1.14,3.31,2.28,5,3.45a88.66,88.66,0,0,1,14.24,12.05q1.5,1.63,2.85,3.41C131.65,200.47,135,210.77,132.22,220.07Z"/><path class="cls-14" d="M122.91,189.33c-3.86,2.62-16.92,9.07-17.19,11-.26,1.82,15.76,21.71,21.5,29.6-.34.54-.68,1.07-1,1.6-4.72,7.26-8.27,15.13-13,22.39-8.23.15-16.9,2.31-24.68,5-18-21.66-36.44-44-45.15-70.81,1.32-.81,2.61-1.67,3.85-2.59,5.81,16,25.13,39.86,25.13,39.86l24.47-19.58s-8.47-13.44-14.74-20.51c-4.83-5.44-13.54-16.13-17.31-20.79.15-.29.29-.59.44-.89,1.13-2.39,2.33-4.88,4.54-6.33a19.37,19.37,0,0,1,5.91-1.81C67.78,166.69,91.9,183.7,91.9,183.7l16.77-6.42c1,.74,2.08,1.5,3.11,2.26l-13.47,7.67,5.07,8.25,16.32-9.37Q121.37,187.65,122.91,189.33Z"/><path class="cls-21" d="M81.08,225.47l.34.6a48.05,48.05,0,0,1,2.26,4.78c.08.21.17.43.26.64.37.95.73,2,1.08,3,.18.53.33,1.06.46,1.59l.15.67a24.46,24.46,0,0,1,.54,4.76c0,.23,0,.46,0,.69a47.85,47.85,0,0,1-.32,5.35c0,.23,0,.46-.07.69-.19,1.73-.4,3.46-.55,5.22l-.06.7c-.08,1.11-.14,2.23-.14,3.38a13.3,13.3,0,0,0,.08,1.44c0,.22.07.45.11.66A10.19,10.19,0,0,0,88,265l.49.47a12.47,12.47,0,0,0,2.4,1.68,4.65,4.65,0,0,0,.53.24l0,.14,2.41,6.23a22.17,22.17,0,0,1-4.89-2l-.59-.35a16,16,0,0,1-3.46-2.83q-.24-.26-.45-.51a16.93,16.93,0,0,1-3.52-7.6l-.12-.67a28.83,28.83,0,0,1-.4-5.47c0-.23,0-.46,0-.69a49.31,49.31,0,0,1,.55-5.73c0-.22.07-.45.1-.67.11-.68.23-1.36.36-2a19.63,19.63,0,0,0,.32-3v-.69a19.66,19.66,0,0,0-.42-3.75l-.15-.67a22.7,22.7,0,0,0-1.51-4.19l-.3-.62a26.22,26.22,0,0,0-2.32-3.74l-.41-.55a21.36,21.36,0,0,0-2-2.31c-.33-3,4.36-3.43,4.36-3.43A26.31,26.31,0,0,1,81.08,225.47Z"/><path class="cls-21" d="M149.4,233.2h0c.12.25.23.5.33.74a12.82,12.82,0,0,1,.94,4.87l-.52-.66A15.44,15.44,0,0,0,148,236q-.27-.22-.54-.42a16.45,16.45,0,0,0-3.51-2l-.65-.26a23.67,23.67,0,0,0-4.81-1.23l-.72-.1a34.48,34.48,0,0,0-3.48-.29l-.68,0q-2.07-.06-4.35.06l-.73,0c-2.08.12-4.29.35-6.62.65l-.69.09c-2.43.33-5,.75-7.71,1.24l-.12,0-.81.12a19.31,19.31,0,0,1-6-.15l-.7-.14a23.35,23.35,0,0,1-5.41-1.92l-.63-.32a32.37,32.37,0,0,1-4.4-2.82l-.55-.42a44.14,44.14,0,0,1-3.6-3.2l-.49-.49c-1.21-1.25-2.26-2.45-3.1-3.5-.16-.19-.3-.37-.44-.55-1.39-1.78-2.15-3-2.15-3,.25-3.95,4.13-3.33,4.13-3.33.9,1.16,1.78,2.22,2.65,3.2.15.17.29.34.44.5,1,1.1,1.94,2.08,2.88,3l.5.47A32.36,32.36,0,0,0,99.12,224l.57.38a22.3,22.3,0,0,0,3.92,2l.66.24a20.91,20.91,0,0,0,4.52,1.06l.7.07a34.57,34.57,0,0,0,5.4,0l.72,0c1.84-.14,3.77-.36,5.85-.62l.69-.08c2.29-.29,4.75-.62,7.44-.9l.69-.07,1.26-.13c.86-.08,1.69-.13,2.48-.15h.68a24.52,24.52,0,0,1,5.11.45l.66.15a14.31,14.31,0,0,1,5.4,2.43h0l.55.44A11.46,11.46,0,0,1,149.4,233.2Z"/><path class="cls-22" d="M81.08,225.47l.34.6a13,13,0,0,0-4.32,2.48l-.41-.55A13.67,13.67,0,0,1,81.08,225.47Z"/><path class="cls-22" d="M83.68,230.85c.08.21.17.43.26.64a12.61,12.61,0,0,0-4.22,1.42l-.3-.62A13.09,13.09,0,0,1,83.68,230.85Z"/><path class="cls-22" d="M85.48,236.12l.15.67a23,23,0,0,0-4.25,1l-.15-.67A24.5,24.5,0,0,1,85.48,236.12Z"/><path class="cls-22" d="M86.17,241.55c0,.23,0,.46,0,.69a15.31,15.31,0,0,1-4.38,0v-.69A14.89,14.89,0,0,0,86.17,241.55Z"/><path class="cls-22" d="M85.86,247.59c0,.23,0,.46-.07.69a22.43,22.43,0,0,1-4.77-.39c0-.22.07-.45.1-.67A22.19,22.19,0,0,0,85.86,247.59Z"/><path class="cls-22" d="M85.24,253.5l-.06.7a17.42,17.42,0,0,1-4.73.11c0-.23,0-.46,0-.69A16.57,16.57,0,0,0,85.24,253.5Z"/><path class="cls-22" d="M85.12,259c0,.22.07.45.11.66a21.28,21.28,0,0,1-4.26.77l-.12-.67A22.1,22.1,0,0,0,85.12,259Z"/><path class="cls-22" d="M88.49,265.45a16.7,16.7,0,0,1-3.55,3.11q-.24-.26-.45-.51A16.34,16.34,0,0,0,88,265Z"/><path class="cls-22" d="M91.42,267.37l0,.14A22.42,22.42,0,0,1,89,271.74l-.59-.35c.13-.18.27-.36.39-.54a21,21,0,0,0,2.1-3.72A4.65,4.65,0,0,0,91.42,267.37Z"/><path class="cls-22" d="M92.28,217.82A16.33,16.33,0,0,1,87.65,221c-.16-.19-.3-.37-.44-.55a16,16,0,0,0,4.63-3.13C92,217.49,92.13,217.66,92.28,217.82Z"/><path class="cls-22" d="M95.66,221.25A26.77,26.77,0,0,1,91.24,225l-.49-.49c.34-.22.66-.45,1-.69a25.3,25.3,0,0,0,3.43-3Z"/><path class="cls-22" d="M99.69,224.39a35,35,0,0,1-4.3,4.22l-.55-.42A36,36,0,0,0,99.12,224Z"/><path class="cls-22" d="M104.27,226.67a40.37,40.37,0,0,1-3.85,5.08l-.63-.32c.24-.26.46-.51.68-.77a37.63,37.63,0,0,0,3.14-4.23Z"/><path class="cls-22" d="M109.49,227.8a58.73,58.73,0,0,1-3,6l-.7-.14c.18-.31.35-.62.52-.93q1.34-2.46,2.44-5Z"/><path class="cls-22" d="M115.61,227.8a49.66,49.66,0,0,1-2.23,6l-.81.12c.17-.34.32-.7.47-1.05a47.82,47.82,0,0,0,1.85-5.06Z"/><path class="cls-22" d="M122.15,227.1c0,1.8-.09,3.6-.25,5.39l-.69.09c.17-1.79.25-3.59.25-5.4Z"/><path class="cls-22" d="M130.28,226.13a22.84,22.84,0,0,1-1,5.67l-.73,0a22.23,22.23,0,0,0,1.07-5.64Z"/><path class="cls-22" d="M134.7,225.84l-.42,5.92-.68,0,.42-5.89Z"/><path class="cls-22" d="M140.47,226.44a21.52,21.52,0,0,1-2,5.71l-.72-.1a20.74,20.74,0,0,0,2.05-5.76Z"/><path class="cls-22" d="M146.42,229.31a25.12,25.12,0,0,1-2.48,4.33l-.65-.26a24,24,0,0,0,2.58-4.51Z"/><path class="cls-22" d="M149.4,233.2c.12.25.23.5.33.74A13.89,13.89,0,0,1,148,236q-.27-.22-.54-.42A14.09,14.09,0,0,0,149.4,233.2Z"/><path class="cls-23" d="M76.76,189s4.55-4.15,6.2-3.81c3.05.63,16.65,18.51,16.12,20.22S68.44,230.59,67.4,231.32a3.62,3.62,0,0,1-4.34-.55c-1.18-1.26-10.91-15.84-11.53-16.86S76.76,189,76.76,189Z"/><rect class="cls-21" x="51.6" y="197.09" width="39.53" height="25.48" rx="10.91" transform="translate(-116.26 91.85) rotate(-39.06)"/><path class="cls-23" d="M78.81,199.2a1.73,1.73,0,0,1-.61,1.07,2.73,2.73,0,0,1-3.33-4.1,1.75,1.75,0,0,1,.64-.32,2.7,2.7,0,0,1,2.62,1.08A2.91,2.91,0,0,1,78.81,199.2Z"/><path class="cls-22" d="M78.81,199.2a2.7,2.7,0,0,1-2.62-1.08,2.92,2.92,0,0,1-.68-2.27,2.7,2.7,0,0,1,2.62,1.08A2.91,2.91,0,0,1,78.81,199.2Z"/><path class="cls-23" d="M75.57,215.24a1.11,1.11,0,0,1-.21,1.56l-9.78,7.52-1.23.94a1.12,1.12,0,0,1-1.57-.21l-.68-.89a1.11,1.11,0,0,1,.19-1.56l1.16-.91L73.21,214a1.14,1.14,0,0,1,1.59.2Z"/><path class="cls-22" d="M75.57,215.24a1.11,1.11,0,0,1-.21,1.56l-9.78,7.52a1.29,1.29,0,0,1-1.12-.5l-.79-1a1.29,1.29,0,0,1-.22-1.1L73.21,214a1.14,1.14,0,0,1,1.59.2Z"/><path class="cls-24" d="M25.84,178.67a2.63,2.63,0,0,0-2.13.25l-5.95,3.65L21.7,189l5.94-3.66a2.65,2.65,0,0,0,1.18-1.79,4.4,4.4,0,0,0-3-4.85Z"/><path class="cls-25" d="M22.27,184.21a4.2,4.2,0,0,1,.61,3A2.67,2.67,0,0,1,21.7,189c-1.41.86-3.43.13-4.51-1.64s-.83-3.89.57-4.76a2.63,2.63,0,0,1,2.13-.24A4.15,4.15,0,0,1,22.27,184.21Z"/><path class="cls-21" d="M22.27,184.21a4.2,4.2,0,0,1,.61,3,2.07,2.07,0,0,1-.5.43,2.75,2.75,0,0,1-3.65-1.23,2.74,2.74,0,0,1,.55-3.8,2,2,0,0,1,.61-.25A4.15,4.15,0,0,1,22.27,184.21Z"/><path class="cls-21" d="M68.15,153.68h0c.07.3.15.62.22.95.11.57.22,1.18.3,1.86a18.11,18.11,0,0,1,.15,2.33c0,.26,0,.51,0,.77a21.79,21.79,0,0,1-.43,3.47l-.15.66a26.86,26.86,0,0,1-1.65,4.84l-.27.6a36.27,36.27,0,0,1-2.5,4.45c-.13.18-.25.37-.37.55a42.32,42.32,0,0,1-3.38,4.3l-.45.49a41.58,41.58,0,0,1-4,3.78h0l-.55.45a37.06,37.06,0,0,1-4.51,3.11l-.63.36-.72.38a15.79,15.79,0,0,1-3.79,1.46,8.45,8.45,0,0,1-.91.17c-6,.75-6.16-5.7-6.16-5.7l.93-.39.63-.28c1.29-.56,2.48-1.15,3.6-1.74l.61-.32a42.77,42.77,0,0,0,4.22-2.61l.54-.39a32.92,32.92,0,0,0,3.58-3c.17-.16.33-.32.49-.49a25.19,25.19,0,0,0,3.1-3.81l.36-.57a21.17,21.17,0,0,0,1.81-3.68c.09-.21.16-.42.24-.63a23,23,0,0,0,1-4.07c0-.23.07-.46.09-.68a27,27,0,0,0,.21-3.2h0c0-.24,0-.47,0-.7a12.82,12.82,0,0,1,.22-3.53,6.23,6.23,0,0,1,.56-1c.15-.22.31-.44.49-.66C63,148.89,66.5,147.27,68.15,153.68Z"/><path class="cls-22" d="M45.44,188.5a8.45,8.45,0,0,1-.91.17,19.62,19.62,0,0,1-5.23-6.09l.63-.28A18.65,18.65,0,0,0,45.44,188.5Z"/><path class="cls-22" d="M50.58,186.3l-.63.36a38.69,38.69,0,0,1-6.42-6.1l.61-.32A38.57,38.57,0,0,0,50.58,186.3Z"/><path class="cls-22" d="M55.64,182.74l-.55.45a35.7,35.7,0,0,1-6.73-5.56l.54-.39.27.28A35.07,35.07,0,0,0,55.64,182.74Z"/><path class="cls-22" d="M60.07,178.47l-.45.49a55.81,55.81,0,0,0-7.14-4.72c.17-.16.33-.32.49-.49A56.08,56.08,0,0,1,60.07,178.47Z"/><path class="cls-22" d="M63.82,173.62c-.13.18-.25.37-.37.55a34,34,0,0,0-7.38-4.23l.36-.57.78.34A34.12,34.12,0,0,1,63.82,173.62Z"/><path class="cls-22" d="M66.59,168.57l-.27.6a27.69,27.69,0,0,0-8.08-3.48c.09-.21.16-.42.24-.63A28.18,28.18,0,0,1,66.59,168.57Z"/><path class="cls-22" d="M68.39,163.07l-.15.66-.64-.33A23.49,23.49,0,0,0,59.46,161c0-.23.07-.46.09-.68l.76.1A24.32,24.32,0,0,1,68.39,163.07Z"/><path class="cls-22" d="M68.83,158.83c0,.26,0,.51,0,.77a14.78,14.78,0,0,0-1.92-1,15.82,15.82,0,0,0-7.14-1.45h0c0-.24,0-.47,0-.7h.33A16.87,16.87,0,0,1,68.83,158.83Z"/><path class="cls-22" d="M68.15,153.68h0c.07.3.15.62.22.95l0,0a14.64,14.64,0,0,0-7.79-2.77c.15-.22.31-.44.49-.66A15.66,15.66,0,0,1,68.15,153.68Z"/><circle class="cls-12" cx="33.03" cy="153.33" r="31.31" transform="translate(-123.65 145.92) rotate(-75.14)"/><path class="cls-26" d="M50.72,128.65a.68.68,0,0,1-.92-.19L39.35,113.25a.68.68,0,1,1,1.12-.77l10.45,15.2a.68.68,0,0,1-.17.95Z"/><path class="cls-25" d="M59.34,135.56a21,21,0,0,0-2.57-3,20,20,0,0,0-3.06-2.5l-3.78-3.71-2.38,2.42c-1.45,1.48.33,5.58,4,9.15s7.77,5.27,9.22,3.79l2.38-2.43Z"/><ellipse class="cls-12" cx="56.52" cy="132.8" rx="3.75" ry="9.24" transform="translate(-77.87 80.17) rotate(-45.56)"/><path class="cls-25" d="M60.74,136.76a1.13,1.13,0,0,1-.45.27c-1.2.4-3.53-.71-5.63-2.77-1.83-1.79-2.94-3.78-2.95-5.06a1.33,1.33,0,0,1,.33-1c1-1,3.68.14,6.08,2.5S61.7,135.78,60.74,136.76Z"/><path class="cls-24" d="M60.29,137c-1.2.4-3.53-.71-5.63-2.77-1.83-1.79-2.94-3.78-2.95-5.06,1.19-.4,3.54.71,5.63,2.77C59.17,133.76,60.29,135.75,60.29,137Z"/><ellipse class="cls-14" cx="31.09" cy="157.55" rx="27.45" ry="28.73" transform="translate(-77.94 39.65) rotate(-31.6)"/><path class="cls-27" d="M52.16,145.92c8,13,4.64,29.54-7.47,37s-28.4,3-36.39-10A28.94,28.94,0,0,1,4,158.31a25.37,25.37,0,0,1,11.8-22.41A24.33,24.33,0,0,1,22,133.18C33,130.14,45.48,135.06,52.16,145.92Z"/><path class="cls-28" d="M52.16,145.92c8,13,4.64,29.54-7.47,37s-28.4,3-36.39-10A28.94,28.94,0,0,1,4,158.31a3.56,3.56,0,0,1,1.5.95,5.55,5.55,0,0,1,1.25,1.85l4.25,10a6.29,6.29,0,0,0,1.77,2.56,1.27,1.27,0,0,0,1.61.06,2.39,2.39,0,0,1,2.77-.06l.12.08c.69.46,1.4.87,2.07,1.35,1.65,1.18,3.42,2.33,5.55,2.24A3.66,3.66,0,0,0,27.6,176c1.78-2.19-.07-5.22-2.3-6.67s-4.69-2.16-6.23-4.15a5.93,5.93,0,0,1,6-9.42c2.31.54,4.06,2.38,5.79,4s3.83,3.24,6.2,3.08c2.81-.18,4.88-2.77,5.89-5.4a16.8,16.8,0,0,0-16.28-22.84,7.47,7.47,0,0,1-3.57-.33A2.3,2.3,0,0,1,22,133.18C33,130.14,45.48,135.06,52.16,145.92Z"/><path class="cls-24" d="M68.23,146.27a2.63,2.63,0,0,0-2.13.25l-5.95,3.65,3.94,6.4L70,152.91a2.63,2.63,0,0,0,1.19-1.79,4.42,4.42,0,0,0-3-4.85Z"/><path class="cls-25" d="M64.66,151.81a4.2,4.2,0,0,1,.61,3,2.67,2.67,0,0,1-1.18,1.79c-1.41.86-3.43.13-4.51-1.64s-.83-3.89.57-4.76a2.63,2.63,0,0,1,2.13-.24A4.15,4.15,0,0,1,64.66,151.81Z"/><path class="cls-21" d="M64.66,151.81a4.2,4.2,0,0,1,.61,3,2.07,2.07,0,0,1-.5.43,3,3,0,0,1-3.1-5,2,2,0,0,1,.61-.25A4.15,4.15,0,0,1,64.66,151.81Z"/><path class="cls-12" d="M138.75,187.49a64.26,64.26,0,0,1,5,16.93c1.68,10.55,1.25,21.32.81,32-3.48-.22-6.92-.46-10.36-.7l-8.36-.56c1.82-11.37,2.08-25.86-2.87-36.24a23.86,23.86,0,0,0-6.68-8.63,20.42,20.42,0,0,0-2.94-1.93Q101.88,182.14,91,174.83q-4-2.67-7.81-5.46c-2.15-1.56-4.33-3.22-5.62-5.54s-1.46-5.47.32-7.44a5,5,0,0,1,1.68-1.23,11.21,11.21,0,0,1,5.44-.74,46.34,46.34,0,0,1,10.84,2.18c2.55.79,5.07,1.73,7.55,2.7,10,3.89,20.07,8.47,27.4,16.29.5.53,1,1.08,1.45,1.63A46.44,46.44,0,0,1,138.75,187.49Z"/><path class="cls-14" d="M95.88,156.6a14,14,0,0,0-1,1.06,19.23,19.23,0,0,0-4.27,11.56,25.12,25.12,0,0,0,.4,5.61q-4-2.67-7.81-5.46c-2.15-1.56-4.33-3.22-5.62-5.54s-1.46-5.47.32-7.44,4.57-2.14,7.12-2A46.34,46.34,0,0,1,95.88,156.6Z"/><path class="cls-14" d="M138.75,187.49c-1.33.65-2.62,1.33-3.87,2A46.13,46.13,0,0,0,123,198.92a23.86,23.86,0,0,0-6.68-8.63,47.2,47.2,0,0,1,10.35-10,30.08,30.08,0,0,1,5.62-3A46.44,46.44,0,0,1,138.75,187.49Z"/><path class="cls-13" d="M143.6,244.22a31.62,31.62,0,0,1,.48,7.13,15.69,15.69,0,0,1-2.91,7.81c-.14.2-.29.4-.45.59a1.68,1.68,0,0,1-1,.72c-.4.06-1-.45-.85-.84a8.8,8.8,0,0,1-1.62,2.71,2.55,2.55,0,0,1-1.1.8,1.26,1.26,0,0,1-1.26-.65,8.81,8.81,0,0,1-3.86,4.14.84.84,0,0,1-.53.15.73.73,0,0,1-.4-.64l-2,2A5.54,5.54,0,0,1,127,269a1.87,1.87,0,0,1-1.4.21,1.92,1.92,0,0,1-1.1-2.16,7.06,7.06,0,0,1,1.1-2.38,18.57,18.57,0,0,0,2.6-9.67,2.43,2.43,0,0,0-.12-.89,1,1,0,0,0-.62-.62c-.52-.14-1.07.27-1.49.61a36.15,36.15,0,0,1-4.52,3.05,4,4,0,0,1-1.28.55,1.55,1.55,0,0,1-1.32-.3,1.84,1.84,0,0,1-.11-2.18c.82-1.52,2.55-2.28,3.82-3.45a9.7,9.7,0,0,0,2.44-3.87c.16-.43.3-.87.42-1.31.28-1,.49-2.11.69-3.17a14.62,14.62,0,0,1,6.61-.53c2.21.25,4.38.76,6.59,1A27.53,27.53,0,0,0,143.6,244.22Z"/><g class="cls-29"><path class="cls-30" d="M143.6,244.22a31.62,31.62,0,0,1,.48,7.13,15.69,15.69,0,0,1-2.91,7.81v0a18,18,0,0,0,1.07-6.58,5.88,5.88,0,0,0-1.1-3.69,6.32,6.32,0,0,0-3.75-1.77,32.48,32.48,0,0,0-10.08-.4,3.87,3.87,0,0,1-1.86-.08c.28-1,.49-2.11.69-3.17a14.62,14.62,0,0,1,6.61-.53c2.21.25,4.38.76,6.59,1A27.53,27.53,0,0,0,143.6,244.22Z"/></g><g class="cls-31"><path class="cls-32" d="M132.14,232.72a9.91,9.91,0,0,0,2.08,3l-8.36-.56c1.82-11.37,2.08-25.86-2.87-36.24a23.86,23.86,0,0,0-6.68-8.63,20.42,20.42,0,0,0-2.94-1.93Q101.88,182.14,91,174.83q-4-2.67-7.81-5.46c-2.15-1.56-4.33-3.22-5.62-5.54s-1.46-5.47.32-7.44a5,5,0,0,1,1.68-1.23c-.23,5.3,3.75,9.83,8.33,12.64l18.9,11.64c6.44,4,13.07,8.1,17.36,14.32,6.08,8.8,6.5,20.19,6.71,30.88C131,227.38,131,230.21,132.14,232.72Z"/></g><path class="cls-14" d="M125.86,235.16s-.86,0-1,3.14-.45,5.66.84,5.81,17,1.87,18.79,1.25,1.34-8.85.06-8.94Z"/></g></g></g></svg>