<svg xmlns="http://www.w3.org/2000/svg" xmlns:xlink="http://www.w3.org/1999/xlink" viewBox="0 0 463.09 369.1"><defs><style>.cls-1{mask:url(#mask);filter:url(#luminosity-noclip-11);}.cls-10,.cls-12,.cls-14,.cls-16,.cls-18,.cls-2,.cls-20,.cls-25,.cls-32,.cls-34,.cls-36,.cls-4,.cls-40,.cls-44,.cls-6,.cls-8{mix-blend-mode:multiply;}.cls-2{fill:url(#linear-gradient);}.cls-3{mask:url(#mask-2);filter:url(#luminosity-noclip-16);}.cls-4{fill:url(#linear-gradient-2);}.cls-5{mask:url(#mask-3);filter:url(#luminosity-noclip-17);}.cls-6{fill:url(#linear-gradient-3);}.cls-7{mask:url(#mask-4);filter:url(#luminosity-noclip-18);}.cls-8{fill:url(#linear-gradient-4);}.cls-9{mask:url(#mask-5);filter:url(#luminosity-noclip-19);}.cls-10{fill:url(#linear-gradient-5);}.cls-11{mask:url(#mask-6);filter:url(#luminosity-noclip-20);}.cls-12{fill:url(#linear-gradient-6);}.cls-13{mask:url(#mask-7);filter:url(#luminosity-noclip-12);}.cls-14{fill:url(#linear-gradient-7);}.cls-15{mask:url(#mask-8);filter:url(#luminosity-noclip-13);}.cls-16{fill:url(#linear-gradient-8);}.cls-17{mask:url(#mask-9);filter:url(#luminosity-noclip-14);}.cls-18{fill:url(#linear-gradient-9);}.cls-19{mask:url(#mask-10);filter:url(#luminosity-noclip-15);}.cls-20{fill:url(#linear-gradient-10);}.cls-21{isolation:isolate;}.cls-22{fill:#dd641d;}.cls-23{fill:#fac52f;}.cls-24{mask:url(#mask-11);}.cls-25{fill:url(#linear-gradient-11);}.cls-26{fill:#fddb82;}.cls-27{fill:#010b25;}.cls-28{fill:#fff;}.cls-28,.cls-45{opacity:0.13;}.cls-29{fill:#fad56e;}.cls-30{fill:#f49529;}.cls-31{mask:url(#mask-12);}.cls-32{fill:url(#linear-gradient-12);}.cls-33{mask:url(#mask-13);}.cls-34{fill:url(#linear-gradient-13);}.cls-35{mask:url(#mask-14);}.cls-36{fill:url(#linear-gradient-14);}.cls-37{fill:#3d84f8;}.cls-38{fill:#93cdf7;}.cls-39{mask:url(#mask-15);}.cls-40{fill:url(#linear-gradient-15);}.cls-41{opacity:0.2;}.cls-42,.cls-44,.cls-45{fill:#ce684c;}.cls-43{mask:url(#mask-16);}.cls-46{mask:url(#mask-17);}.cls-47{mask:url(#mask-18);}.cls-48{mask:url(#mask-19);}.cls-49{mask:url(#mask-20);}.cls-50{filter:url(#luminosity-noclip-10);}.cls-51{filter:url(#luminosity-noclip-9);}.cls-52{filter:url(#luminosity-noclip-8);}.cls-53{filter:url(#luminosity-noclip-7);}.cls-54{filter:url(#luminosity-noclip-6);}.cls-55{filter:url(#luminosity-noclip-5);}.cls-56{filter:url(#luminosity-noclip-4);}.cls-57{filter:url(#luminosity-noclip-3);}.cls-58{filter:url(#luminosity-noclip-2);}.cls-59{filter:url(#luminosity-noclip);}</style><filter id="luminosity-noclip" x="140.87" y="-8005.69" width="89.74" height="32766" filterUnits="userSpaceOnUse" color-interpolation-filters="sRGB"><feFlood flood-color="#fff" result="bg"/><feBlend in="SourceGraphic" in2="bg"/></filter><mask id="mask" x="140.87" y="-8005.69" width="89.74" height="32766" maskUnits="userSpaceOnUse"><g class="cls-59"/></mask><linearGradient id="linear-gradient" x1="-2849.52" y1="670.01" x2="-2796.54" y2="724.25" gradientTransform="matrix(-0.93, 0.36, 0.36, 0.93, -2686.92, 502.05)" gradientUnits="userSpaceOnUse"><stop offset="0"/><stop offset="0.99" stop-color="#fff"/></linearGradient><filter id="luminosity-noclip-2" x="140.49" y="-8005.69" width="89.74" height="32766" filterUnits="userSpaceOnUse" color-interpolation-filters="sRGB"><feFlood flood-color="#fff" result="bg"/><feBlend in="SourceGraphic" in2="bg"/></filter><mask id="mask-2" x="140.49" y="-8005.69" width="89.74" height="32766" maskUnits="userSpaceOnUse"><g class="cls-58"/></mask><linearGradient id="linear-gradient-2" x1="-2849.27" y1="669.6" x2="-2796.29" y2="723.84" xlink:href="#linear-gradient"/><filter id="luminosity-noclip-3" x="179" y="-8005.69" width="122.32" height="32766" filterUnits="userSpaceOnUse" color-interpolation-filters="sRGB"><feFlood flood-color="#fff" result="bg"/><feBlend in="SourceGraphic" in2="bg"/></filter><mask id="mask-3" x="179" y="-8005.69" width="122.32" height="32766" maskUnits="userSpaceOnUse"><g class="cls-57"/></mask><linearGradient id="linear-gradient-3" x1="-4866.47" y1="3304.92" x2="-4852.75" y2="3304.92" gradientTransform="matrix(-0.46, 0.89, 0.89, 0.46, -4934.48, 3049.62)" xlink:href="#linear-gradient"/><filter id="luminosity-noclip-4" x="157.35" y="-8005.69" width="89.09" height="32766" filterUnits="userSpaceOnUse" color-interpolation-filters="sRGB"><feFlood flood-color="#fff" result="bg"/><feBlend in="SourceGraphic" in2="bg"/></filter><mask id="mask-4" x="157.35" y="-8005.69" width="89.09" height="32766" maskUnits="userSpaceOnUse"><g class="cls-56"/></mask><linearGradient id="linear-gradient-4" x1="-4142.24" y1="2043.66" x2="-4116.18" y2="2043.66" gradientTransform="matrix(-0.72, 0.7, 0.7, 0.72, -4182.92, 1703.32)" xlink:href="#linear-gradient"/><filter id="luminosity-noclip-5" x="105.59" y="-8005.69" width="76.81" height="32766" filterUnits="userSpaceOnUse" color-interpolation-filters="sRGB"><feFlood flood-color="#fff" result="bg"/><feBlend in="SourceGraphic" in2="bg"/></filter><mask id="mask-5" x="105.59" y="-8005.69" width="76.81" height="32766" maskUnits="userSpaceOnUse"><g class="cls-55"/></mask><linearGradient id="linear-gradient-5" x1="-2606.58" y1="737.76" x2="-2790.05" y2="706.13" xlink:href="#linear-gradient"/><filter id="luminosity-noclip-6" x="24.71" y="-8005.69" width="92.96" height="32766" filterUnits="userSpaceOnUse" color-interpolation-filters="sRGB"><feFlood flood-color="#fff" result="bg"/><feBlend in="SourceGraphic" in2="bg"/></filter><mask id="mask-6" x="24.71" y="-8005.69" width="92.96" height="32766" maskUnits="userSpaceOnUse"><g class="cls-54"/></mask><linearGradient id="linear-gradient-6" x1="-2703.24" y1="647.46" x2="-2678.86" y2="731.71" xlink:href="#linear-gradient"/><filter id="luminosity-noclip-7" x="179.38" y="-8005.69" width="122.32" height="32766" filterUnits="userSpaceOnUse" color-interpolation-filters="sRGB"><feFlood flood-color="#fff" result="bg"/><feBlend in="SourceGraphic" in2="bg"/></filter><mask id="mask-7" x="179.38" y="-8005.69" width="122.32" height="32766" maskUnits="userSpaceOnUse"><g class="cls-53"/></mask><linearGradient id="linear-gradient-7" x1="-4866.39" y1="3305.39" x2="-4852.67" y2="3305.39" gradientTransform="matrix(-0.46, 0.89, 0.89, 0.46, -4934.48, 3049.62)" xlink:href="#linear-gradient"/><filter id="luminosity-noclip-8" x="157.73" y="-8005.69" width="89.09" height="32766" filterUnits="userSpaceOnUse" color-interpolation-filters="sRGB"><feFlood flood-color="#fff" result="bg"/><feBlend in="SourceGraphic" in2="bg"/></filter><mask id="mask-8" x="157.73" y="-8005.69" width="89.09" height="32766" maskUnits="userSpaceOnUse"><g class="cls-52"/></mask><linearGradient id="linear-gradient-8" x1="-4142.31" y1="2044.13" x2="-4116.25" y2="2044.13" gradientTransform="matrix(-0.72, 0.7, 0.7, 0.72, -4182.92, 1703.32)" xlink:href="#linear-gradient"/><filter id="luminosity-noclip-9" x="105.97" y="-8005.69" width="76.81" height="32766" filterUnits="userSpaceOnUse" color-interpolation-filters="sRGB"><feFlood flood-color="#fff" result="bg"/><feBlend in="SourceGraphic" in2="bg"/></filter><mask id="mask-9" x="105.97" y="-8005.69" width="76.81" height="32766" maskUnits="userSpaceOnUse"><g class="cls-51"/></mask><linearGradient id="linear-gradient-9" x1="-2606.83" y1="738.17" x2="-2790.3" y2="706.53" xlink:href="#linear-gradient"/><filter id="luminosity-noclip-10" x="25.09" y="-8005.69" width="92.96" height="32766" filterUnits="userSpaceOnUse" color-interpolation-filters="sRGB"><feFlood flood-color="#fff" result="bg"/><feBlend in="SourceGraphic" in2="bg"/></filter><mask id="mask-10" x="25.09" y="-8005.69" width="92.96" height="32766" maskUnits="userSpaceOnUse"><g class="cls-50"/></mask><linearGradient id="linear-gradient-10" x1="-2703.49" y1="647.87" x2="-2679.11" y2="732.12" xlink:href="#linear-gradient"/><filter id="luminosity-noclip-11" x="140.87" y="140.52" width="89.74" height="47.49" filterUnits="userSpaceOnUse" color-interpolation-filters="sRGB"><feFlood flood-color="#fff" result="bg"/><feBlend in="SourceGraphic" in2="bg"/></filter><mask id="mask-11" x="140.87" y="140.52" width="89.74" height="47.49" maskUnits="userSpaceOnUse"><g class="cls-1"><path class="cls-2" d="M140.87,140.62a8.72,8.72,0,0,0,.83,1.16c2.08,2.48,5.25,3.92,8.5,4.72s6.64,1,10,1.48c12.88,1.82,24.79,7.41,35.15,14.68s19.29,16.2,27.85,25.35c2.72-.43,5.26-2.39,7.44-4.51a38.12,38.12,0,0,0-4.19-3.77,154,154,0,0,0-17.61-13.86A157.92,157.92,0,0,0,169,146.46a153.54,153.54,0,0,0-24.48-5.76A12.14,12.14,0,0,0,140.87,140.62Z"/></g></mask><linearGradient id="linear-gradient-11" x1="-2849.52" y1="670.01" x2="-2796.54" y2="724.25" gradientTransform="matrix(-0.93, 0.36, 0.36, 0.93, -2686.92, 502.05)" gradientUnits="userSpaceOnUse"><stop offset="0" stop-color="#fff"/><stop offset="0.99" stop-color="#f2b52a"/></linearGradient><filter id="luminosity-noclip-12" x="179.38" y="224.11" width="122.32" height="75.28" filterUnits="userSpaceOnUse" color-interpolation-filters="sRGB"><feFlood flood-color="#fff" result="bg"/><feBlend in="SourceGraphic" in2="bg"/></filter><mask id="mask-12" x="179.38" y="224.11" width="122.32" height="75.28" maskUnits="userSpaceOnUse"><g class="cls-13"><path class="cls-14" d="M300.76,299.39l.94-1.8a404.21,404.21,0,0,1-121.42-73.48c-.29.64-.59,1.27-.9,1.9A406.1,406.1,0,0,0,300.76,299.39Z"/></g></mask><linearGradient id="linear-gradient-12" x1="-4866.39" y1="3305.39" x2="-4852.67" y2="3305.39" gradientTransform="matrix(-0.46, 0.89, 0.89, 0.46, -4934.48, 3049.62)" xlink:href="#linear-gradient-11"/><filter id="luminosity-noclip-13" x="157.73" y="225.93" width="89.09" height="124.35" filterUnits="userSpaceOnUse" color-interpolation-filters="sRGB"><feFlood flood-color="#fff" result="bg"/><feBlend in="SourceGraphic" in2="bg"/></filter><mask id="mask-13" x="157.73" y="225.93" width="89.09" height="124.35" maskUnits="userSpaceOnUse"><g class="cls-15"><path class="cls-16" d="M245.35,350.28l1.47-1.43a337.18,337.18,0,0,1-87.36-122.92c-.57.38-1.15.76-1.73,1.11a337.1,337.1,0,0,0,87.62,123.24Z"/></g></mask><linearGradient id="linear-gradient-13" x1="-4142.31" y1="2044.13" x2="-4116.25" y2="2044.13" gradientTransform="matrix(-0.72, 0.7, 0.7, 0.72, -4182.92, 1703.32)" xlink:href="#linear-gradient-11"/><filter id="luminosity-noclip-14" x="105.97" y="140.21" width="76.81" height="81.85" filterUnits="userSpaceOnUse" color-interpolation-filters="sRGB"><feFlood flood-color="#fff" result="bg"/><feBlend in="SourceGraphic" in2="bg"/></filter><mask id="mask-14" x="105.97" y="140.21" width="76.81" height="81.85" maskUnits="userSpaceOnUse"><g class="cls-17"><path class="cls-18" d="M115.72,190.51c10.61,11.63,15.39,18.81,23.35,31.56a27.63,27.63,0,0,1,3.28-8,36,36,0,0,1,10.28-10.73,44.85,44.85,0,0,1,13.58-6.44c4.67-1.31,9.57-2.63,14.26-3.88a3.1,3.1,0,0,0,1.87-1c.41-.59.73-1.7,0-1.76L160.66,167c-5.8-6.22-11.65-12.47-18.52-17.48s-14.9-8.73-23.39-9.22a26,26,0,0,0-4.5.1,40.69,40.69,0,0,0-8.28,8.75,33.52,33.52,0,0,1,21.49,6.51c3.14,2.34,5.93,5.57,8.74,8.31A49.23,49.23,0,0,0,115.72,190.51Z"/></g></mask><linearGradient id="linear-gradient-14" x1="-2606.83" y1="738.17" x2="-2790.3" y2="706.53" xlink:href="#linear-gradient-11"/><filter id="luminosity-noclip-15" x="25.09" y="158.69" width="92.96" height="27.72" filterUnits="userSpaceOnUse" color-interpolation-filters="sRGB"><feFlood flood-color="#fff" result="bg"/><feBlend in="SourceGraphic" in2="bg"/></filter><mask id="mask-15" x="25.09" y="158.69" width="92.96" height="27.72" maskUnits="userSpaceOnUse"><g class="cls-19"><path class="cls-20" d="M25.17,168.14A86.29,86.29,0,0,0,54.46,182.6a98.43,98.43,0,0,0,12.87,2.72,109.56,109.56,0,0,0,32.94-.33,47.44,47.44,0,0,0,6.11-1.3A23.7,23.7,0,0,0,110,182.3a14.51,14.51,0,0,0,7.13-6.9,11.68,11.68,0,0,0,.86-5.87,18.11,18.11,0,0,1-2.1,3.33,28.47,28.47,0,0,1-11.23,7.79c-6.72,2.63-14.1,3.08-21.31,2.76a108,108,0,0,1-43.28-11.18c-3.48-1.73-7-3.73-9.42-6.76a12.68,12.68,0,0,1-2.86-6.78A13.38,13.38,0,0,0,25.17,168.14Z"/></g></mask><linearGradient id="linear-gradient-15" x1="-2703.49" y1="647.87" x2="-2679.11" y2="732.12" xlink:href="#linear-gradient-11"/><filter id="luminosity-noclip-16" x="140.49" y="140.23" width="89.74" height="47.49" filterUnits="userSpaceOnUse" color-interpolation-filters="sRGB"><feFlood flood-color="#fff" result="bg"/><feBlend in="SourceGraphic" in2="bg"/></filter><mask id="mask-16" x="140.49" y="140.23" width="89.74" height="47.49" maskUnits="userSpaceOnUse"><g class="cls-3"><path class="cls-4" d="M140.49,140.33a8.72,8.72,0,0,0,.83,1.16c2.08,2.48,5.25,3.92,8.5,4.72s6.64,1,10,1.48c12.88,1.82,24.79,7.41,35.15,14.68s19.29,16.2,27.85,25.35c2.72-.43,5.26-2.39,7.44-4.51a38.12,38.12,0,0,0-4.19-3.77,153.68,153.68,0,0,0-17.61-13.85,158,158,0,0,0-39.8-19.42,153.54,153.54,0,0,0-24.48-5.76A12.82,12.82,0,0,0,140.49,140.33Z"/></g></mask><filter id="luminosity-noclip-17" x="179" y="223.82" width="122.32" height="75.28" filterUnits="userSpaceOnUse" color-interpolation-filters="sRGB"><feFlood flood-color="#fff" result="bg"/><feBlend in="SourceGraphic" in2="bg"/></filter><mask id="mask-17" x="179" y="223.82" width="122.32" height="75.28" maskUnits="userSpaceOnUse"><g class="cls-5"><path class="cls-6" d="M300.38,299.1l.94-1.8A404,404,0,0,1,179.9,223.82c-.29.64-.59,1.28-.9,1.9A406.1,406.1,0,0,0,300.38,299.1Z"/></g></mask><filter id="luminosity-noclip-18" x="157.35" y="225.64" width="89.09" height="124.35" filterUnits="userSpaceOnUse" color-interpolation-filters="sRGB"><feFlood flood-color="#fff" result="bg"/><feBlend in="SourceGraphic" in2="bg"/></filter><mask id="mask-18" x="157.35" y="225.64" width="89.09" height="124.35" maskUnits="userSpaceOnUse"><g class="cls-7"><path class="cls-8" d="M245,350l1.47-1.43a337.18,337.18,0,0,1-87.36-122.92c-.57.38-1.15.76-1.73,1.12A337.16,337.16,0,0,0,245,350Z"/></g></mask><filter id="luminosity-noclip-19" x="105.59" y="139.93" width="76.81" height="81.85" filterUnits="userSpaceOnUse" color-interpolation-filters="sRGB"><feFlood flood-color="#fff" result="bg"/><feBlend in="SourceGraphic" in2="bg"/></filter><mask id="mask-19" x="105.59" y="139.93" width="76.81" height="81.85" maskUnits="userSpaceOnUse"><g class="cls-9"><path class="cls-10" d="M115.34,190.22C126,201.86,130.73,209,138.69,221.78a27.63,27.63,0,0,1,3.28-8A36,36,0,0,1,152.25,203a44.73,44.73,0,0,1,13.58-6.44c4.67-1.3,9.57-2.63,14.26-3.88a3.13,3.13,0,0,0,1.87-1c.41-.59.73-1.7,0-1.76q-10.84-11.62-21.69-23.25c-5.8-6.21-11.65-12.47-18.52-17.48s-14.91-8.73-23.39-9.22a26,26,0,0,0-4.5.1,40.5,40.5,0,0,0-8.28,8.76,33.47,33.47,0,0,1,21.49,6.5c3.14,2.34,5.93,5.57,8.74,8.31A49.27,49.27,0,0,0,115.34,190.22Z"/></g></mask><filter id="luminosity-noclip-20" x="24.71" y="158.4" width="92.96" height="27.72" filterUnits="userSpaceOnUse" color-interpolation-filters="sRGB"><feFlood flood-color="#fff" result="bg"/><feBlend in="SourceGraphic" in2="bg"/></filter><mask id="mask-20" x="24.71" y="158.4" width="92.96" height="27.72" maskUnits="userSpaceOnUse"><g class="cls-11"><path class="cls-12" d="M24.79,167.85a86.11,86.11,0,0,0,29.29,14.46A98.43,98.43,0,0,0,67,185a109.89,109.89,0,0,0,32.94-.32,48.68,48.68,0,0,0,6.1-1.31,23.42,23.42,0,0,0,3.63-1.39,14.51,14.51,0,0,0,7.13-6.9,11.68,11.68,0,0,0,.86-5.87,18.11,18.11,0,0,1-2.1,3.33,28.47,28.47,0,0,1-11.23,7.79c-6.72,2.63-14.1,3.08-21.31,2.76a107.82,107.82,0,0,1-43.28-11.18c-3.48-1.73-7-3.73-9.43-6.76a12.74,12.74,0,0,1-2.85-6.78A13.39,13.39,0,0,0,24.79,167.85Z"/></g></mask></defs><title>section-7-light-astronaut-yellow</title><g class="cls-21"><g id="Layer_2" data-name="Layer 2"><g id="Layer_2-2" data-name="Layer 2"><path class="cls-22" d="M229.48,199.07c.24.52.55,1.1,1.1,1.26a1.41,1.41,0,0,0,1.59-1.19,4.2,4.2,0,0,0-.37-2.16l-1.68-4.59a1.24,1.24,0,0,1-.08-1,.87.87,0,0,1,1.15-.29,2.62,2.62,0,0,1,.91.93q2.9,4.23,5.8,8.44c.35.52.82,1.1,1.45,1.08a1.31,1.31,0,0,0,1.1-1.38,3.86,3.86,0,0,0-.68-1.81l-4-6.89a.89.89,0,0,1-.17-.77.6.6,0,0,1,.81-.22,1.75,1.75,0,0,1,.64.68l5.63,8.71c.23.36.53.76,1,.76a.87.87,0,0,0,.78-.73,2.34,2.34,0,0,0-.12-1.14,24.18,24.18,0,0,0-4.45-8.6c-.26-.32-.55-.71-.44-1.11a.89.89,0,0,1,1.2-.43,2.62,2.62,0,0,1,1,1q2.46,3.62,4.93,7.24c.34.49.83,1,1.41.9a1,1,0,0,0,.67-.83,2.52,2.52,0,0,0-.15-1.12c-1.2-3.84-4-6.92-6.76-9.87a9.81,9.81,0,0,1,5.05,4.05,4,4,0,0,0,.92,1.2,1.06,1.06,0,0,0,1.39,0,1.42,1.42,0,0,0,0-1.5,13.39,13.39,0,0,0-4.08-4.95,40.28,40.28,0,0,0-5.47-3.45l-7-3.89a17.14,17.14,0,0,1-7.73,7.56c-1.18.57-1.53,1.14-.86,2.26a42.06,42.06,0,0,1,1.84,3.83Q227.61,195.05,229.48,199.07Z"/><path class="cls-23" d="M140.87,140.62a8.72,8.72,0,0,0,.83,1.16c2.08,2.48,5.25,3.92,8.5,4.72s6.64,1,10,1.48c11.79,1.66,22.76,6.49,32.48,12.87.9.59,1.79,1.19,2.67,1.81q1.91,1.34,3.75,2.75c8.79,6.71,16.59,14.57,24.1,22.6,2.72-.43,5.26-2.39,7.44-4.51,1.06-1,2-2.1,2.91-3.05,2.7-2.94-1-5.4-3.59-8.31a130,130,0,0,0-16.67-15.55q-2.7-2.1-5.52-4.07-3.5-2.46-7.17-4.7a139.35,139.35,0,0,0-23.07-11.31,141.42,141.42,0,0,0-19.73-5.9c-5-1.09-14.18-3.84-17.36,2.11A8,8,0,0,0,140.87,140.62Z"/><g class="cls-24"><path class="cls-25" d="M140.87,140.62a8.72,8.72,0,0,0,.83,1.16c2.08,2.48,5.25,3.92,8.5,4.72s6.64,1,10,1.48c12.88,1.82,24.79,7.41,35.15,14.68s19.29,16.2,27.85,25.35c2.72-.43,5.26-2.39,7.44-4.51a38.12,38.12,0,0,0-4.19-3.77,154,154,0,0,0-17.61-13.86A157.92,157.92,0,0,0,169,146.46a153.54,153.54,0,0,0-24.48-5.76A12.14,12.14,0,0,0,140.87,140.62Z"/></g><path class="cls-26" d="M192.65,160.85c.9.59,1.79,1.19,2.67,1.81q1.91,1.34,3.75,2.75a57.81,57.81,0,0,0,8.67-12.89q-3.5-2.46-7.17-4.7A38.68,38.68,0,0,1,192.65,160.85Z"/><path class="cls-23" d="M65.23,125.55a32.28,32.28,0,0,0,7,10.94,32.57,32.57,0,0,0,33.44,8.32c.57-.19,1.14-.39,1.71-.61A32.59,32.59,0,1,0,73.86,89.54a33.24,33.24,0,0,0-2.71,2.73c-.52.6-1,1.21-1.51,1.85A32.92,32.92,0,0,0,67,98.27,32.49,32.49,0,0,0,65.23,125.55Z"/><path class="cls-26" d="M65.23,125.55a32.28,32.28,0,0,0,7,10.94,32.64,32.64,0,0,0,26.16,9.79A30.33,30.33,0,0,0,71.77,92l-.62.25c-.52.6-1,1.21-1.51,1.85A32.92,32.92,0,0,0,67,98.27,32.49,32.49,0,0,0,65.23,125.55Z"/><path class="cls-27" d="M65.23,125.55a32.28,32.28,0,0,0,7,10.94,32.64,32.64,0,0,0,19,9.61c.57-.18,1.13-.38,1.7-.59A27.2,27.2,0,0,0,74.28,94.43l-.92.34A27,27,0,0,0,67,98.27,32.49,32.49,0,0,0,65.23,125.55Z"/><path class="cls-28" d="M72.23,136.49a32.64,32.64,0,0,0,19,9.61c.57-.18,1.13-.38,1.7-.59A27.2,27.2,0,0,0,74.28,94.43a31.8,31.8,0,0,1,17,4.25,30,30,0,0,1,7.83,6.49,15.5,15.5,0,0,1,3.69,7,7.84,7.84,0,0,1-2.25,7.32c-2,1.72-5.49,1.77-7.21-.27-1.87-2.21-1.24-5.77-3-8s-5.42-2.16-7.55-.32a8.16,8.16,0,0,0-2.25,7.72,16.74,16.74,0,0,0,4,7.33,22.38,22.38,0,0,1,2.78,3.59,5.41,5.41,0,0,1,.6,4.37A3.15,3.15,0,0,1,84.26,136a4.4,4.4,0,0,1-2.47-2.48,9.24,9.24,0,0,0-1.93-3c-.91-.77-2.48-1-3.22,0s-.2,2.36.68,3.15,2,1.2,3,1.9,1.72,1.93,1.29,3a2.43,2.43,0,0,1-2.51,1.32,7.17,7.17,0,0,1-2.81-1.11Z"/><path class="cls-26" d="M117.39,97.48a1,1,0,0,0,.64-1.06L115.26,74a1,1,0,0,0-2,.25L116,96.66a1,1,0,0,0,1.13.88A.94.94,0,0,0,117.39,97.48Z"/><ellipse class="cls-29" cx="119.16" cy="105.47" rx="9.61" ry="11.18" transform="translate(-30.01 50.06) rotate(-21.13)"/><path class="cls-30" d="M114.68,107.2a6.15,6.15,0,0,0,6.18,4.2,5,5,0,0,0,1.13-.28c2.79-1.08,4-4.58,2.78-7.82s-4.53-5-7.31-3.92a4.62,4.62,0,0,0-1,.55A6.15,6.15,0,0,0,114.68,107.2Z"/><path class="cls-22" d="M114.68,107.2a6.15,6.15,0,0,0,6.18,4.2,6.57,6.57,0,0,0-4.43-11.47A6.15,6.15,0,0,0,114.68,107.2Z"/><path class="cls-30" d="M133.88,127.93a17.3,17.3,0,0,0-5.18,0,30.49,30.49,0,0,0-24.36,19.48,2.37,2.37,0,0,0,0,2.31,2.18,2.18,0,0,0,2,.5c4.25-.53,7.64-3.64,11-6.24a56.87,56.87,0,0,1,13.2-7.5,58.7,58.7,0,0,1,7.23-2.36c.76-.19,2.81-.26,3.3-.89s-.34-1.65-.84-2.13A12.3,12.3,0,0,0,133.88,127.93Z"/><path class="cls-23" d="M285.31,329.11l21-40.48c-.8-.49-1.61-1-2.42-1.45-19.67-11.64-40.72-20.84-60.43-32.41q-2-1.17-4-2.41c-2.7-1.66-5.42-3.4-8.12-5.23-16.67-11.27-32.91-25.65-42.59-42.17-2.2-.62-1.6-.11-3.8-.72a52.92,52.92,0,0,1-4.7,19.87c-.29.64-.59,1.27-.9,1.9a53.32,53.32,0,0,1-6.1,9.52h0a52.38,52.38,0,0,1-3.87,4.29,125.46,125.46,0,0,0,17.48,15.5,203.66,203.66,0,0,0,31,18.49c2,1,3.91,1.91,5.88,2.84l2.35,1.09c19.12,8.74,38.08,14.29,59.56,23.63-1.3,4.08-4.37,11.6-4.45,15.88-.07,3.52.55,7.34,2.56,10.16A9.38,9.38,0,0,0,285.31,329.11Z"/><g class="cls-31"><path class="cls-32" d="M300.76,299.39l.94-1.8a404.21,404.21,0,0,1-121.42-73.48c-.29.64-.59,1.27-.9,1.9A406.1,406.1,0,0,0,300.76,299.39Z"/></g><path class="cls-26" d="M217.89,273.82c2,1,3.91,1.91,5.88,2.84l2.35,1.09c4.69-8.33,9.08-16.84,13.37-25.39-2.7-1.66-5.42-3.4-8.12-5.23A220.19,220.19,0,0,1,217.89,273.82Z"/><path class="cls-26" d="M285.31,329.11l21-40.48c-.8-.49-1.61-1-2.42-1.45-1.32,2-2.75,3.92-4,5.88a5.76,5.76,0,0,0-9.56,5.29,6,6,0,0,0,4.74,4.9q-2.67,5.67-5.32,11.35l-6,12.82A9.38,9.38,0,0,0,285.31,329.11Z"/><path class="cls-23" d="M226,369.1l27.76-27c-.8-.83-1.61-1.66-2.41-2.5-16.25-16.87-31.75-34.61-44.14-54.48-1-1.54-1.9-3.1-2.82-4.66q-2.44-4.14-4.67-8.4a164.47,164.47,0,0,1-13.82-35.36,133.41,133.41,0,0,1-3.61-20.27,2.81,2.81,0,0,0-3-2.81h-.15a9.59,9.59,0,0,0-4.46,2L160.82,225l-1.36.91c-.57.38-1.15.76-1.73,1.11a24.28,24.28,0,0,1-5.28,2.56,11.48,11.48,0,0,1-9.28-.57,210.23,210.23,0,0,0,30,60.73c2,2.81,4.08,5.58,6.23,8.28a200.11,200.11,0,0,0,52.36,46.58c-3.1,3.51-6.27,7.12-7.91,11.51a13.33,13.33,0,0,0,.15,9.92A11.41,11.41,0,0,0,226,369.1Z"/><g class="cls-33"><path class="cls-34" d="M245.35,350.28l1.47-1.43a337.18,337.18,0,0,1-87.36-122.92c-.57.38-1.15.76-1.73,1.11a337.1,337.1,0,0,0,87.62,123.24Z"/></g><path class="cls-26" d="M179.43,298A195.67,195.67,0,0,0,203,281.55l1.37-1.11q-2.44-4.14-4.67-8.4a225.57,225.57,0,0,1-26.53,17.72C175.2,292.57,177.28,295.34,179.43,298Z"/><path class="cls-26" d="M226,369.1l27.76-27c-.8-.83-1.61-1.66-2.41-2.5L247,343.81a5.09,5.09,0,1,0-5.94,5.7l-17,16.54A11.41,11.41,0,0,0,226,369.1Z"/><path class="cls-23" d="M114.68,189.37l1,1.14c10.61,11.63,15.39,18.81,23.35,31.56l2.11,3.39c13.89,22.32,69.25-4.19,72.37-13s-5.9-24.54-5.9-24.54c-10.17-18.75-26.94-32.88-43.32-46.54-4.85-4.05-9.91-8.21-16-9.86a30.37,30.37,0,0,0-12.09-.46,45.89,45.89,0,0,0-22,9.32,40.69,40.69,0,0,0-8.28,8.75c-.17.24-.32.47-.48.71-3.24,4.9-8.56,6.85-8,12.71C98.35,171.63,108.49,182.65,114.68,189.37Z"/><g class="cls-35"><path class="cls-36" d="M115.72,190.51c10.61,11.63,15.39,18.81,23.35,31.56a27.63,27.63,0,0,1,3.28-8,36,36,0,0,1,10.28-10.73,44.85,44.85,0,0,1,13.58-6.44c4.67-1.31,9.57-2.63,14.26-3.88a3.1,3.1,0,0,0,1.87-1c.41-.59.73-1.7,0-1.76L160.66,167c-5.8-6.22-11.65-12.47-18.52-17.48s-14.9-8.73-23.39-9.22a26,26,0,0,0-4.5.1,40.69,40.69,0,0,0-8.28,8.75,33.52,33.52,0,0,1,21.49,6.51c3.14,2.34,5.93,5.57,8.74,8.31A49.23,49.23,0,0,0,115.72,190.51Z"/></g><path class="cls-37" d="M134.5,132.08a1.79,1.79,0,0,0,.61.07l.24,0c1-.2,1.91-.37,2.87-.48l.62-.07a29.61,29.61,0,0,1,3.52-.15l.62,0a30.5,30.5,0,0,1,3.69.35l.6.1a28.89,28.89,0,0,1,3.67.9c.2.05.39.12.59.18.92.31,1.84.67,2.74,1.07l.56.26a29.27,29.27,0,0,1,5.19,3.14c2.38,1.81,5.28-1.81,2.9-3.63a35,35,0,0,0-3.88-2.55l-.7-.38a33.58,33.58,0,0,0-3.55-1.65l-.67-.26a36,36,0,0,0-4.55-1.36l-.66-.14a35.51,35.51,0,0,0-3.7-.56l-.72-.06a32.33,32.33,0,0,0-4.06-.07h0l-.72,0a34.5,34.5,0,0,0-4.05.52l-.7.15h-.08A2.39,2.39,0,0,0,132.8,130,2.54,2.54,0,0,0,134.5,132.08Z"/><path class="cls-38" d="M154.27,134l.56.26a9.94,9.94,0,0,1,4.21-3l-.7-.38A10.52,10.52,0,0,0,154.27,134Z"/><path class="cls-38" d="M150.94,132.78c.2.05.39.12.59.18a11.17,11.17,0,0,1,3.26-3.74l-.67-.26A12,12,0,0,0,150.94,132.78Z"/><path class="cls-38" d="M146.67,131.78l.6.1a14.07,14.07,0,0,1,2.3-4.28l-.66-.14A14.69,14.69,0,0,0,146.67,131.78Z"/><path class="cls-38" d="M142.36,131.41l.62,0a12.47,12.47,0,0,1,2.23-4.53l-.72-.06A13.18,13.18,0,0,0,142.36,131.41Z"/><path class="cls-38" d="M138.22,131.63l.62-.07a12.17,12.17,0,0,1,1.59-4.79l-.72,0A12.83,12.83,0,0,0,138.22,131.63Z"/><path class="cls-38" d="M134.5,132.08a1.79,1.79,0,0,0,.61.07,10.38,10.38,0,0,1,.55-4.82l-.7.15h0A11,11,0,0,0,134.5,132.08Z"/><path class="cls-37" d="M101.3,154.63a32.08,32.08,0,0,0,3.43-3.72c.14-.17.26-.33.38-.49.39-.51.72-1,1-1.35a10.62,10.62,0,0,1,.46-1,5.54,5.54,0,0,1,.3-.53,8.73,8.73,0,0,1,.69-1,10.07,10.07,0,0,1,1.32-1.37l.48-.4a13.86,13.86,0,0,1,3.52-2l.59-.23c.61-.21,1.24-.4,1.86-.55a17.39,17.39,0,0,1,1.75-.33c.21,0,.41-.06.62-.08a20.75,20.75,0,0,1,3.78-.1l.63.05a21.71,21.71,0,0,1,3.83.71l.58.17a20.31,20.31,0,0,1,2.29.86l.56.25A21,21,0,0,1,132,145a2.33,2.33,0,0,0,2.9-3.64c-.71-.48-1.44-.92-2.17-1.33l-.6-.31a24.45,24.45,0,0,0-2.76-1.24l-.62-.23a27.05,27.05,0,0,0-3-.87c-.45-.1-.9-.19-1.36-.26h0l-.66-.1a24.63,24.63,0,0,0-5.15-.21l-.65,0a24.87,24.87,0,0,0-4.45.8l-.63.19a22.33,22.33,0,0,0-4.62,2c-.16.09-.31.19-.46.29a6.49,6.49,0,0,0-.55.36,15.15,15.15,0,0,0-3.76,3.73c-.12.17-.24.35-.35.53a13.49,13.49,0,0,0-1.62,3.54c-.06.21-.12.41-.17.62A12.29,12.29,0,0,0,101.3,154.63Z"/><path class="cls-38" d="M128.79,143.26l.56.25a14.34,14.34,0,0,1,3.37-3.45l-.6-.31A15,15,0,0,0,128.79,143.26Z"/><path class="cls-38" d="M125.92,142.23l.58.17a15.45,15.45,0,0,1,2.86-3.89l-.62-.23A15.73,15.73,0,0,0,125.92,142.23Z"/><path class="cls-38" d="M121.46,141.47l.63.05a24.61,24.61,0,0,1,2.3-4.37l-.66-.1c-.19.3-.38.6-.56.9A26,26,0,0,0,121.46,141.47Z"/><path class="cls-38" d="M117.06,141.65c.21,0,.41-.06.62-.08a23.8,23.8,0,0,1,.9-4.73l-.65,0c-.1.37-.2.74-.29,1.12A26.27,26.27,0,0,0,117.06,141.65Z"/><path class="cls-38" d="M112.86,142.76l.59-.23a23,23,0,0,1,0-4.84l-.63.19c0,.05,0,.11,0,.16A24.81,24.81,0,0,0,112.86,142.76Z"/><path class="cls-38" d="M108.86,145.14l.48-.4a15,15,0,0,1-1.57-4.55,6.49,6.49,0,0,0-.55.36A15.55,15.55,0,0,0,108.86,145.14Z"/><path class="cls-38" d="M103.11,144.81a11.49,11.49,0,0,0,3.44,3.22,5.54,5.54,0,0,1,.3-.53,11.2,11.2,0,0,1-3.39-3.22C103.34,144.45,103.22,144.63,103.11,144.81Z"/><path class="cls-38" d="M101.32,149a28,28,0,0,0,3.41,1.94c.14-.17.26-.33.38-.49a27.53,27.53,0,0,1-3.62-2.07C101.43,148.56,101.37,148.76,101.32,149Z"/><path class="cls-23" d="M25.17,168.14A86.29,86.29,0,0,0,54.46,182.6a98.43,98.43,0,0,0,12.87,2.72,109.56,109.56,0,0,0,32.94-.33,47.44,47.44,0,0,0,6.11-1.3A23.7,23.7,0,0,0,110,182.3a14.51,14.51,0,0,0,7.13-6.9,11.68,11.68,0,0,0,.86-5.87,14.88,14.88,0,0,0-3.47-8c-3.22-3.78-8.55-5.76-13.42-6.76-.57.35-1.15.69-1.74,1A65.71,65.71,0,0,1,70,164.48c-1,.05-2,.08-3,.08a69.57,69.57,0,0,1-7.64-.4,66.86,66.86,0,0,1-27.06-9,11.27,11.27,0,0,0-4.45,3.56A13.38,13.38,0,0,0,25.17,168.14Z"/><path class="cls-26" d="M106.38,183.69A23.7,23.7,0,0,0,110,182.3a14.51,14.51,0,0,0,7.13-6.9c2-4.55.61-10.12-2.61-13.9s-8.55-5.76-13.42-6.76c-.57.35-1.15.69-1.74,1a6.45,6.45,0,0,1,1.1.4,19.74,19.74,0,0,1,6.35,4.62,17.26,17.26,0,0,1,4.26,14.87A15.08,15.08,0,0,1,106.38,183.69Z"/><path class="cls-26" d="M54.46,182.6a98.43,98.43,0,0,0,12.87,2.72A20,20,0,0,0,70,164.48c-1,.05-2,.08-3,.08a69.57,69.57,0,0,1-7.64-.4,15.68,15.68,0,0,0-3.54,6.08A27.73,27.73,0,0,0,54.46,182.6Z"/><g class="cls-39"><path class="cls-40" d="M25.17,168.14A86.29,86.29,0,0,0,54.46,182.6a98.43,98.43,0,0,0,12.87,2.72,109.56,109.56,0,0,0,32.94-.33,47.44,47.44,0,0,0,6.11-1.3A23.7,23.7,0,0,0,110,182.3a14.51,14.51,0,0,0,7.13-6.9,11.68,11.68,0,0,0,.86-5.87,18.11,18.11,0,0,1-2.1,3.33,28.47,28.47,0,0,1-11.23,7.79c-6.72,2.63-14.1,3.08-21.31,2.76a108,108,0,0,1-43.28-11.18c-3.48-1.73-7-3.73-9.42-6.76a12.68,12.68,0,0,1-2.86-6.78A13.38,13.38,0,0,0,25.17,168.14Z"/></g><path class="cls-22" d="M3.86,165a2,2,0,0,0,1.21.94,11.08,11.08,0,0,0,1.94.58,14.42,14.42,0,0,0,1.85.25,47.47,47.47,0,0,0,7-.27c3.63-.27,7.63-.16,10.45,2.15-.24-.2-.21-.94-.07-1.79a31,31,0,0,1,.81-3.23,17.63,17.63,0,0,1,2.24-4.72q.44-.63.93-1.23c.22-.28.46-.55.7-.82.42-.44,1.3-1,1.43-1.61.29-1.4-1.61-3.73-2.44-4.72a16.11,16.11,0,0,0-5.06-4,20.65,20.65,0,0,0-5.05-1.78c-.81-.17-1.64-.3-2.46-.4a29.77,29.77,0,0,0-4.11-.19,3.78,3.78,0,0,0-1.49.22,1.29,1.29,0,0,0-.16,2.41,4.17,4.17,0,0,0,1.5.47l3.08.55,1.89.34,2.86.51a2.33,2.33,0,0,1,1.61.75.89.89,0,0,1,.05,1,1.05,1.05,0,0,1-1,.32,36.56,36.56,0,0,1-11.11-2.48c-.55-.21-1.09-.44-1.62-.68s-1-.46-1.48-.71a3.91,3.91,0,0,0-2.27-.64,1.42,1.42,0,0,0-1,.52,1.74,1.74,0,0,0,.3,2.1,8.56,8.56,0,0,0,2.3,2.07,17.71,17.71,0,0,0,1.92,1c1.27.62,2.61,1.16,3.85,1.84a.4.4,0,0,1-.3.73,19,19,0,0,1-5.38-2.34c-.34-.22-.69-.45-1-.7a19.34,19.34,0,0,1-2-1.71,3.07,3.07,0,0,0-1.39-1,1.07,1.07,0,0,0-.92.17c-.67.52-.29,1.54.19,2.21a15.1,15.1,0,0,0,2.4,2.65c.35.3.7.6,1.07.88a45.27,45.27,0,0,0,6.41,3.9,1.85,1.85,0,0,1-1.79.47A5.52,5.52,0,0,1,8,158.26l-2.42-1.53-1.25-.79-2.54-1.61a.92.92,0,0,0-1.37,1,7.12,7.12,0,0,0,1.84,3,10.62,10.62,0,0,0,1.1.91,11.72,11.72,0,0,0,1.3.81A22,22,0,0,0,7,161.15c1,.4,2,.76,2.93,1.17a.62.62,0,0,1-.21,1.18L8,163.58l-1.64.08-1.26.05c-.52,0-1.13.1-1.32.65A.84.84,0,0,0,3.86,165Z"/><path class="cls-30" d="M16.2,147.8l1.89.34a7.49,7.49,0,0,1,.25-1,5.78,5.78,0,0,1,1.5-2.36c-.81-.17-1.64-.3-2.46-.4a8.63,8.63,0,0,0-1.06,2.59A3.65,3.65,0,0,0,16.2,147.8Z"/><path class="cls-30" d="M6.74,150.9a17.71,17.71,0,0,0,1.92,1,6.07,6.07,0,0,1,1.8-3.71c-.55-.21-1.09-.44-1.62-.68A8.69,8.69,0,0,0,7.05,150,2.64,2.64,0,0,0,6.74,150.9Z"/><path class="cls-30" d="M4.06,153.84c.35.3.7.6,1.07.88a4.09,4.09,0,0,1,1.7-2.54c-.34-.22-.69-.45-1-.7a3.62,3.62,0,0,0-1.25,1.15A3.49,3.49,0,0,0,4.06,153.84Z"/><path class="cls-30" d="M3.36,159.24a11.72,11.72,0,0,0,1.3.81A4.62,4.62,0,0,1,5,157.67c.1-.24.41-.61.61-.94l-1.25-.79a1.78,1.78,0,0,0-.75,1,5.51,5.51,0,0,0-.21,1.4C3.36,158.62,3.34,158.93,3.36,159.24Z"/><path class="cls-30" d="M7,166.46l0,.08a14.42,14.42,0,0,0,1.85.25c-.23-.55-.48-1.3-.51-1.41-.16-.55-.14-1.25-.31-1.8l-1.64.08a5.1,5.1,0,0,0,0,.89A8.07,8.07,0,0,0,7,166.46Z"/><path class="cls-30" d="M16.77,163.24a6.32,6.32,0,0,0,2.83,1.48l6.68,2.16a31,31,0,0,1,.81-3.23,17.63,17.63,0,0,1,2.24-4.72q.44-.63.93-1.23h-.2a28.88,28.88,0,0,1-6.44-1.31,26.72,26.72,0,0,1-3.4-1.35,2.94,2.94,0,0,0-2-.43c-.84.23-1.25,1.15-1.55,2a13,13,0,0,0-.9,3.39A4.25,4.25,0,0,0,16.77,163.24Z"/><path class="cls-26" d="M130.06,165.31q12,15.94,25.14,31l2.3,2.62q3.18,3.59,6.43,7.12c2.57,2.8,5.78,5.82,9.55,5.36a12.1,12.1,0,0,0,4.14-1.59L205.42,195a26.27,26.27,0,0,0,5.74-3.72c1.52-1.4,3.52-3.59,3.12-5.5a2.14,2.14,0,0,0-.21-.6,141.67,141.67,0,0,0-8.15-13.94c-.7-1.06-1.41-2.1-2.14-3.14a144.52,144.52,0,0,0-18.18-21.25,79.24,79.24,0,0,0-14.9-11.64,17.39,17.39,0,0,0-13.1-1.78l-11.23,2.93c-5,1.33-10.2,2.7-14.46,5.7a17.93,17.93,0,0,0-5,5.24,12.47,12.47,0,0,0-1.94,8C125.45,159,127.78,162.28,130.06,165.31Z"/><path class="cls-30" d="M130.06,165.31Q146,186.47,163.93,206c2.57,2.8,5.78,5.82,9.55,5.36a12.1,12.1,0,0,0,4.14-1.59L205.42,195a26.27,26.27,0,0,0,5.74-3.72c1.52-1.4,3.52-3.59,3.12-5.5a7.85,7.85,0,0,0-4.14,1.26l-33.45,18.46-.26-.34q-22.78-27.56-45.58-55.12c-1-1.19-2.09-2.46-3.61-2.71a1.33,1.33,0,0,0-.28,0,12.47,12.47,0,0,0-1.94,8C125.45,159,127.78,162.28,130.06,165.31Z"/><path class="cls-22" d="M155.2,196.29l2.3,2.62a45.88,45.88,0,0,1,3.42-3.95c6.53-6.74,14.9-11.36,23.14-15.65,6.8-3.53,14.11-7.37,21.86-8.05-.7-1.06-1.41-2.1-2.14-3.14a43.17,43.17,0,0,0-9.59,2.62A127.16,127.16,0,0,0,181.13,177a130.8,130.8,0,0,0-13.24,7.75A58.06,58.06,0,0,0,155.2,196.29Z"/><path class="cls-30" d="M139.07,142.49l1.63,2,9.83,12.08,8.78-3.18,3.09-1.12c-4.63-7-12.16-13.17-12.16-13.17Z"/><path class="cls-22" d="M140.7,144.48l9.83,12.08,8.78-3.18a74.19,74.19,0,0,0-10.82-11.26Z"/><path class="cls-37" d="M197.57,200.45c.5.9,1,1.79,1.52,2.68l.32.54c.61,1,1.23,2.07,1.87,3.1l.34.55c.85,1.36,1.72,2.7,2.61,4l.34.51c.55.81,1.1,1.62,1.66,2.41.41.59.83,1.18,1.28,1.76.12.17.25.33.38.49a18.44,18.44,0,0,0,3.59,3.63,5.72,5.72,0,0,0,.57.39,9.25,9.25,0,0,0,3.74,1.44,7.81,7.81,0,0,0,1.8.08q.32,0,.63-.06a7,7,0,0,0,5.93-5,5.47,5.47,0,0,0,.15-.58h0c.05-.26.09-.52.12-.79a13.08,13.08,0,0,0-.22-3.69h0c0-.19-.08-.39-.12-.59a21.94,21.94,0,0,0-1.22-3.67c-.08-.19-.16-.37-.25-.56-.51-1.12-1.09-2.21-1.68-3.24-.18-.31-.37-.62-.56-.93s-.23-.36-.35-.53a29.07,29.07,0,0,0-2.58-3.36l-.44-.48a28.61,28.61,0,0,0-3-2.77l-.49-.4c-.48-.38-1-.74-1.47-1.09a2,2,0,0,0-1.49-.36c.33.78,1,2.41,1.6,4.08l.25.72c.16.49.32,1,.45,1.42.63.61,1.24,1.24,1.81,1.91.14.15.27.31.4.47a25.21,25.21,0,0,1,2.1,2.93c.11.17.22.35.32.53l.28.48c.37.68.76,1.42,1.13,2.2.08.19.17.37.25.56a17.71,17.71,0,0,1,.92,2.62c.05.2.1.4.14.6a8.39,8.39,0,0,1,.11,3.07s0,0,0,0a3.39,3.39,0,0,1-.16.59,3.16,3.16,0,0,1-3.54,1.86c-.24,0-.47-.07-.7-.12a6.06,6.06,0,0,1-1.62-.66,9.43,9.43,0,0,1-1.28-1c-.17-.14-.32-.29-.48-.45a19.61,19.61,0,0,1-1.85-2.22l-.06-.08-.36-.49c-.93-1.28-1.83-2.59-2.71-3.9l-.3-.45,0-.06c-.84-1.26-1.66-2.54-2.47-3.82l-.31-.52c-.66-1.07-1.31-2.14-1.94-3.22-.11-.17-.21-.35-.31-.52l-1.41-2.48a2,2,0,0,0-2.82-.42A2.08,2.08,0,0,0,197.57,200.45Z"/><path class="cls-38" d="M212.44,198.74a16.84,16.84,0,0,0,1.6-3l-.49-.4a16,16,0,0,1-1.36,2.63Z"/><path class="cls-38" d="M214.7,202.07c.14.15.27.31.4.47a27.28,27.28,0,0,0,2.33-3.5l-.44-.48A26.1,26.1,0,0,1,214.7,202.07Z"/><path class="cls-38" d="M217.2,205.47c.11.17.22.35.32.53a18.38,18.38,0,0,0,2.84-3.07c-.11-.18-.23-.36-.35-.53A17.79,17.79,0,0,1,217.2,205.47Z"/><path class="cls-38" d="M218.93,208.68c.08.19.17.37.25.56a17,17,0,0,0,3.67-1.58c-.08-.19-.16-.37-.25-.56A15.9,15.9,0,0,1,218.93,208.68Z"/><path class="cls-38" d="M220.24,212.46l3.95-.54c0-.19-.08-.39-.12-.59l-4,.53C220.15,212.06,220.2,212.26,220.24,212.46Z"/><path class="cls-38" d="M220.18,216.16a19.88,19.88,0,0,0,4,.83,5.47,5.47,0,0,0,.15-.58h0a19.18,19.18,0,0,1-3.95-.84A3.39,3.39,0,0,1,220.18,216.16Z"/><path class="cls-38" d="M215.94,217.9l1.65,4.17q.32,0,.63-.06l-1.58-4C216.4,218,216.17,218,215.94,217.9Z"/><path class="cls-38" d="M211.48,220.16a5.72,5.72,0,0,0,.57.39,14.48,14.48,0,0,1,1-4.29c-.17-.14-.32-.29-.48-.45A15.25,15.25,0,0,0,211.48,220.16Z"/><path class="cls-38" d="M207.51,216c.12.17.25.33.38.49a19.26,19.26,0,0,1,2.76-3l-.36-.49A19.89,19.89,0,0,0,207.51,216Z"/><path class="cls-38" d="M204.23,211.36l.34.51a23.78,23.78,0,0,1,3-2.75l-.3-.45,0-.06A23.87,23.87,0,0,0,204.23,211.36Z"/><path class="cls-38" d="M201.28,206.77l.34.55a7.66,7.66,0,0,1,3.16-2.53l-.31-.52A8.22,8.22,0,0,0,201.28,206.77Z"/><path class="cls-38" d="M199.09,203.13l.32.54a23.66,23.66,0,0,1,3.12-2.62c-.11-.17-.21-.35-.31-.52A25.85,25.85,0,0,0,199.09,203.13Z"/><path class="cls-37" d="M138.94,228.78c.08.19.17.37.25.55a37.58,37.58,0,0,0,2.13,4l.33.52c.62,1,1.29,1.9,2,2.8h0c.12.17.25.32.38.48a33.22,33.22,0,0,0,3,3.26l.46.43q1.23,1.11,2.55,2.1c.78.58,1.58,1.12,2.4,1.63l.52.31a33.93,33.93,0,0,0,4.64,2.3l.57.22a33.75,33.75,0,0,0,5.38,1.56l.61.12a32.75,32.75,0,0,0,5.42.54h.64a29.93,29.93,0,0,0,7-.85l.59-.14a32,32,0,0,0,5.61-2.06l.54-.27a29.71,29.71,0,0,0,4.16-2.52c.17-.12.34-.24.5-.37.55-.42,1.09-.86,1.62-1.31a30.32,30.32,0,0,0,2.88-2.9h0l.39-.45a29.66,29.66,0,0,0,3.06-4.41l.31-.57a27.71,27.71,0,0,0,2-4.8c.06-.2.12-.39.17-.59a25.34,25.34,0,0,0,.92-5.06c0-.2,0-.41,0-.61s0-.21,0-.31a27.76,27.76,0,0,0-.2-4.65c0-.21,0-.42-.08-.62a29.08,29.08,0,0,0-1.12-4.71l-.21-.59a26.41,26.41,0,0,0-1.81-4c-.09-.18-.2-.36-.3-.53a25.56,25.56,0,0,0-2.52-3.6c-.13-.16-.27-.31-.41-.47l-.59-.66a2.09,2.09,0,0,0-2.83-.42,2,2,0,0,0-.42,2.83c.31.33.62.67.91,1,.13.15.26.31.38.47a24.2,24.2,0,0,1,2.15,3.17l.28.53a23.71,23.71,0,0,1,1.57,3.62l.18.58a23.86,23.86,0,0,1,.86,4l.06.6a22.37,22.37,0,0,1,0,4l-.06.6-.09.72a22.75,22.75,0,0,1-.79,3.52l-.18.57a23.32,23.32,0,0,1-2,4.36c-.1.18-.21.35-.32.53a23.31,23.31,0,0,1-2.14,2.9l-.39.46a26.18,26.18,0,0,1-3.85,3.51l-.49.36a28.26,28.26,0,0,1-3.62,2.18l-.55.26a27.22,27.22,0,0,1-5.08,1.83l-.59.15a26.83,26.83,0,0,1-6.07.68h-.61c-.58,0-1.15,0-1.72-.11a29.48,29.48,0,0,1-3-.45l-.59-.13a28.83,28.83,0,0,1-4.21-1.28l-.56-.23a30,30,0,0,1-4-2l-.52-.32a31.47,31.47,0,0,1-4.18-3.17l-.46-.42a30.35,30.35,0,0,1-2.75-2.92c-.14-.16-.26-.32-.39-.48a29.43,29.43,0,0,1-1.75-2.4l-.34-.52c-.53-.85-1-1.73-1.49-2.62-.1-.2-.2-.41-.29-.61a3.78,3.78,0,0,1-.17-.35c-.49-.64-1.05-1.44-1.63-2.3l-.43-.64c-.56-.84-1.12-1.7-1.62-2.49l-.36-.57-1.27-2a1.87,1.87,0,0,0-.94,1.9c0,.24.11.49.17.73l.15.6c.19.73.4,1.45.63,2.17l.19.57C138,226.58,138.45,227.69,138.94,228.78Z"/><path class="cls-38" d="M190.53,205.93c.13.15.26.31.38.47a15.55,15.55,0,0,0,3-2.77c-.13-.16-.27-.31-.41-.47A15.38,15.38,0,0,1,190.53,205.93Z"/><path class="cls-38" d="M193.06,209.57l.28.53a31.34,31.34,0,0,0,3.35-2.34c-.09-.18-.2-.36-.3-.53A32.13,32.13,0,0,1,193.06,209.57Z"/><path class="cls-38" d="M195.09,214.3a22.86,22.86,0,0,0,3.62-1.93l-.21-.59a21.45,21.45,0,0,1-3.59,1.94Z"/><path class="cls-38" d="M196,218.91a24.12,24.12,0,0,0,3.9-1.21c0-.21,0-.42-.08-.62a24.28,24.28,0,0,1-3.88,1.23Z"/><path class="cls-38" d="M196,223.52a25.21,25.21,0,0,0,4.07-.25c0-.2,0-.41,0-.61a25,25,0,0,1-4,.26Z"/><path class="cls-38" d="M194.93,228.33a30.49,30.49,0,0,0,4,.59c.06-.2.12-.39.17-.59a30.54,30.54,0,0,1-4-.57Z"/><path class="cls-38" d="M192.6,233.22a15.65,15.65,0,0,0,4,1.07l.31-.57a14.75,14.75,0,0,1-4-1C192.82,232.87,192.71,233,192.6,233.22Z"/><path class="cls-38" d="M190.07,236.58a19.14,19.14,0,0,0,3.11,2.57h0l.39-.45a18.77,18.77,0,0,1-3.12-2.58Z"/><path class="cls-38" d="M185.73,240.45a14.25,14.25,0,0,0,2.45,3.28c.17-.12.34-.24.5-.37a13.56,13.56,0,0,1-2.46-3.27Z"/><path class="cls-38" d="M181.56,242.89a31.46,31.46,0,0,0,1.92,3.63l.54-.27a32.88,32.88,0,0,1-1.91-3.62Z"/><path class="cls-38" d="M177.28,248.72l.59-.14c-.46-1.29-.92-2.57-1.39-3.86l-.59.15Z"/><path class="cls-38" d="M169.6,249.56h.64a10.52,10.52,0,0,1-.42-4h-.61A11.36,11.36,0,0,0,169.6,249.56Z"/><path class="cls-38" d="M163.57,248.9l.61.12a16.13,16.13,0,0,1,.3-4l-.59-.13A16.75,16.75,0,0,0,163.57,248.9Z"/><path class="cls-38" d="M157.62,247.12l.57.22a16.19,16.19,0,0,1,1.49-3.77l-.56-.23A16,16,0,0,0,157.62,247.12Z"/><path class="cls-38" d="M152.46,244.51l.52.31a12.45,12.45,0,0,1,2.1-3.52l-.52-.32A13,13,0,0,0,152.46,244.51Z"/><path class="cls-38" d="M147.05,240.35l.46.43a6.8,6.8,0,0,1,2.87-3l-.46-.42A7.43,7.43,0,0,0,147.05,240.35Z"/><path class="cls-38" d="M143.65,236.61h0c.12.17.25.32.38.48a11.64,11.64,0,0,1,3.14-2.62c-.14-.16-.26-.32-.39-.48A12.14,12.14,0,0,0,143.65,236.61Z"/><path class="cls-38" d="M141.32,233.29l.33.52a9,9,0,0,1,3.38-2.22l-.34-.52A9.7,9.7,0,0,0,141.32,233.29Z"/><path class="cls-38" d="M138.94,228.78c.08.19.17.37.25.55a9.12,9.12,0,0,1,4-.88c-.1-.2-.2-.41-.29-.61A9.76,9.76,0,0,0,138.94,228.78Z"/><path class="cls-38" d="M137.63,225.44a11,11,0,0,1,3.48-.25l-.43-.64a11.4,11.4,0,0,0-3.24.32Z"/><path class="cls-38" d="M136.81,222.7a6.76,6.76,0,0,1,2.25-.64l-.36-.57a7.18,7.18,0,0,0-2,.61Z"/><path class="cls-26" d="M229.44,45.44C220.1,43.26,211,35.08,212.89,26.81c1.14-5,14.53-45.84,250.2,4.35V24.82C234-23.79,209.76,12.67,206.85,25.42c-2.75,12,8.74,23.17,21.19,26.06,29.9,7,54.64,14.2,54.4,32.44-.05,3.7-2.87,6.92-5.48,8.7-9,6.14-26.08,7.74-50.78,4.73-15-1.81-22.14,3.52-23.74,9.13-1.48,5.14,1.42,10.56,7,13.18,3.86,1.8,10.43,2.89,18,4.15,15.25,2.53,36.14,6,34.86,16.59a8,8,0,0,1-3.51,5.78c-3.1,2.15-11.17,5.06-30.5.4-28.83-6.94-37.23,2.66-48.54,18.9a3.1,3.1,0,0,0,.78,4.32,3,3,0,0,0,1.77.56A3.13,3.13,0,0,0,184.9,169c10.68-15.35,16.92-22.45,42-16.42,16.55,4,28.49,3.53,35.5-1.34a14.12,14.12,0,0,0,6.14-10.13c2-16.49-21.3-20.35-40-23.45-6.85-1.14-13.32-2.21-16.42-3.66-2.83-1.32-4.31-3.67-3.69-5.84.93-3.24,6.56-5.94,17-4.68,26.58,3.23,44.58,1.35,55-5.76,5.06-3.45,8.12-8.59,8.19-13.75C288.94,61.14,262,53,229.44,45.44Z"/><g class="cls-41"><path class="cls-42" d="M229.1,198.79a2.05,2.05,0,0,0,1.1,1.25,1.41,1.41,0,0,0,1.59-1.18,4.22,4.22,0,0,0-.37-2.17l-1.68-4.59a1.28,1.28,0,0,1-.09-1,.87.87,0,0,1,1.16-.28,2.54,2.54,0,0,1,.91.93l5.8,8.44c.35.51.82,1.09,1.45,1.07a1.3,1.3,0,0,0,1.1-1.38,3.86,3.86,0,0,0-.68-1.81l-4-6.89a.89.89,0,0,1-.17-.77.61.61,0,0,1,.81-.22,1.82,1.82,0,0,1,.64.68l5.63,8.72c.23.35.53.75,1,.75a.87.87,0,0,0,.78-.73,2.34,2.34,0,0,0-.12-1.14,24.34,24.34,0,0,0-4.45-8.6c-.26-.32-.55-.71-.44-1.1a.89.89,0,0,1,1.2-.44,2.62,2.62,0,0,1,1,1q2.46,3.63,4.93,7.24c.34.49.83,1,1.41.91a1,1,0,0,0,.67-.84,2.52,2.52,0,0,0-.15-1.12c-1.2-3.84-4-6.92-6.76-9.86a9.74,9.74,0,0,1,5.05,4,4,4,0,0,0,.92,1.2,1.06,1.06,0,0,0,1.39,0,1.42,1.42,0,0,0,0-1.5,13.66,13.66,0,0,0-4.08-4.95,40.28,40.28,0,0,0-5.47-3.45l-7-3.89a17.06,17.06,0,0,1-7.74,7.56c-1.17.57-1.52,1.14-.85,2.26a42.06,42.06,0,0,1,1.84,3.83Q227.23,194.76,229.1,198.79Z"/><path class="cls-42" d="M140.49,140.33a8.72,8.72,0,0,0,.83,1.16c2.08,2.48,5.25,3.92,8.5,4.72s6.64,1,10,1.48c11.79,1.66,22.76,6.49,32.47,12.87.91.59,1.8,1.19,2.68,1.81q1.91,1.33,3.75,2.75c8.79,6.71,16.59,14.57,24.1,22.6,2.72-.43,5.26-2.39,7.44-4.51,1.06-1,2-2.1,2.91-3.05,2.7-2.94-1-5.4-3.59-8.31a129.24,129.24,0,0,0-16.67-15.54c-1.81-1.41-3.64-2.77-5.52-4.08q-3.5-2.46-7.17-4.7a140.51,140.51,0,0,0-42.8-17.2c-5-1.1-14.18-3.85-17.36,2.1A8,8,0,0,0,140.49,140.33Z"/><g class="cls-43"><path class="cls-44" d="M140.49,140.33a8.72,8.72,0,0,0,.83,1.16c2.08,2.48,5.25,3.92,8.5,4.72s6.64,1,10,1.48c12.88,1.82,24.79,7.41,35.15,14.68s19.29,16.2,27.85,25.35c2.72-.43,5.26-2.39,7.44-4.51a38.12,38.12,0,0,0-4.19-3.77,153.68,153.68,0,0,0-17.61-13.85,158,158,0,0,0-39.8-19.42,153.54,153.54,0,0,0-24.48-5.76A12.82,12.82,0,0,0,140.49,140.33Z"/></g><path class="cls-42" d="M192.26,160.56c.91.59,1.8,1.19,2.68,1.81q1.91,1.33,3.75,2.75a57.81,57.81,0,0,0,8.67-12.89q-3.5-2.46-7.17-4.7A38.54,38.54,0,0,1,192.26,160.56Z"/><path class="cls-42" d="M64.85,125.26a32,32,0,0,0,7,10.94,32.64,32.64,0,0,0,19,9.61A31.91,31.91,0,0,0,98,146a32.78,32.78,0,0,0,7.28-1.47c.57-.19,1.14-.39,1.71-.61A32.59,32.59,0,1,0,73.48,89.25,31.72,31.72,0,0,0,70.77,92c-.52.6-1,1.21-1.51,1.85A33.65,33.65,0,0,0,66.59,98,32.49,32.49,0,0,0,64.85,125.26Z"/><path class="cls-42" d="M64.85,125.26a32,32,0,0,0,7,10.94,32.64,32.64,0,0,0,19,9.61A31.91,31.91,0,0,0,98,146,30.33,30.33,0,0,0,71.39,91.73l-.62.25c-.52.6-1,1.21-1.51,1.85A33.65,33.65,0,0,0,66.59,98,32.49,32.49,0,0,0,64.85,125.26Z"/><path class="cls-42" d="M64.85,125.26a32,32,0,0,0,7,10.94,32.64,32.64,0,0,0,19,9.61c.57-.18,1.13-.38,1.7-.59A27.2,27.2,0,0,0,73.9,94.14l-.92.34A27.38,27.38,0,0,0,66.59,98,32.49,32.49,0,0,0,64.85,125.26Z"/><path class="cls-45" d="M71.85,136.2a32.64,32.64,0,0,0,19,9.61c.57-.18,1.13-.38,1.7-.59A27.2,27.2,0,0,0,73.9,94.14a31.8,31.8,0,0,1,17,4.25,30.2,30.2,0,0,1,7.83,6.49,15.5,15.5,0,0,1,3.69,7,7.84,7.84,0,0,1-2.25,7.32c-2,1.72-5.49,1.77-7.21-.27-1.87-2.21-1.24-5.77-3-8s-5.42-2.16-7.55-.32a8.14,8.14,0,0,0-2.25,7.72,16.69,16.69,0,0,0,4,7.33,22.83,22.83,0,0,1,2.78,3.59,5.45,5.45,0,0,1,.6,4.37,3.15,3.15,0,0,1-3.55,2.12,4.4,4.4,0,0,1-2.47-2.48,9.24,9.24,0,0,0-1.93-3c-.91-.77-2.48-.95-3.22,0s-.2,2.36.68,3.15,2,1.2,3,1.9,1.72,1.93,1.29,3a2.44,2.44,0,0,1-2.51,1.31,7.17,7.17,0,0,1-2.81-1.11Z"/><path class="cls-42" d="M117,97.19a1,1,0,0,0,.64-1.06l-2.77-22.47a1,1,0,0,0-2,.25l2.77,22.46a1,1,0,0,0,1.13.88A.94.94,0,0,0,117,97.19Z"/><ellipse class="cls-42" cx="118.77" cy="105.18" rx="9.61" ry="11.18" transform="translate(-29.93 49.9) rotate(-21.13)"/><path class="cls-42" d="M114.3,106.91a6.15,6.15,0,0,0,6.18,4.2,5,5,0,0,0,1.13-.28c2.79-1.08,4-4.58,2.78-7.82s-4.53-5-7.31-3.92a4.62,4.62,0,0,0-1,.55A6.15,6.15,0,0,0,114.3,106.91Z"/><path class="cls-42" d="M114.3,106.91a6.15,6.15,0,0,0,6.18,4.2,6.57,6.57,0,0,0-4.43-11.47A6.15,6.15,0,0,0,114.3,106.91Z"/><path class="cls-42" d="M133.49,127.64a17.23,17.23,0,0,0-5.17,0A30.49,30.49,0,0,0,104,147.17a2.39,2.39,0,0,0,0,2.32,2.2,2.2,0,0,0,2,.49c4.25-.53,7.64-3.64,11.05-6.24a56.87,56.87,0,0,1,13.2-7.5,58.7,58.7,0,0,1,7.23-2.36c.76-.19,2.81-.26,3.3-.89s-.34-1.64-.84-2.13A12.29,12.29,0,0,0,133.49,127.64Z"/><path class="cls-42" d="M284.93,328.82l21-40.48c-.8-.49-1.61-1-2.42-1.45-19.67-11.64-40.72-20.83-60.43-32.41q-2-1.17-4-2.41c-2.7-1.66-5.42-3.4-8.12-5.23-16.67-11.26-32.91-25.65-42.59-42.17-2.2-.62-1.6-.11-3.8-.72a52.92,52.92,0,0,1-4.7,19.87c-.29.64-.59,1.28-.9,1.9a53.76,53.76,0,0,1-6.1,9.53h0a50.79,50.79,0,0,1-3.87,4.29A125.46,125.46,0,0,0,186.51,255a203.66,203.66,0,0,0,31,18.49c2,1,3.91,1.91,5.88,2.84l2.35,1.09c19.12,8.74,38.08,14.29,59.56,23.63-1.3,4.08-4.37,11.6-4.45,15.88-.07,3.52.55,7.35,2.56,10.17A9.28,9.28,0,0,0,284.93,328.82Z"/><g class="cls-46"><path class="cls-44" d="M300.38,299.1l.94-1.8A404,404,0,0,1,179.9,223.82c-.29.64-.59,1.28-.9,1.9A406.1,406.1,0,0,0,300.38,299.1Z"/></g><path class="cls-42" d="M217.51,273.53c2,1,3.91,1.91,5.88,2.84l2.35,1.09c4.69-8.33,9.08-16.84,13.37-25.39-2.7-1.66-5.42-3.4-8.12-5.23A221.64,221.64,0,0,1,217.51,273.53Z"/><path class="cls-42" d="M284.93,328.82l21-40.48c-.8-.49-1.61-1-2.42-1.45-1.32,2-2.75,3.92-4,5.88a5.76,5.76,0,0,0-9.56,5.29,6,6,0,0,0,4.73,4.9l-5.31,11.35-6,12.83A9.28,9.28,0,0,0,284.93,328.82Z"/><path class="cls-42" d="M225.63,368.81l27.76-27c-.8-.83-1.61-1.66-2.41-2.5-16.25-16.87-31.75-34.61-44.14-54.48q-1.44-2.31-2.82-4.66-2.45-4.14-4.67-8.4a164.47,164.47,0,0,1-13.82-35.36,133.51,133.51,0,0,1-3.61-20.26,2.81,2.81,0,0,0-2.95-2.82h-.15a9.59,9.59,0,0,0-4.46,2l-13.92,9.41-1.36.91c-.57.38-1.15.76-1.73,1.12a24.55,24.55,0,0,1-5.29,2.55,11.46,11.46,0,0,1-9.27-.57,210.23,210.23,0,0,0,30,60.73c2,2.81,4.08,5.58,6.23,8.28a199.77,199.77,0,0,0,52.36,46.58c-3.1,3.51-6.27,7.12-7.91,11.51a13.33,13.33,0,0,0,.15,9.92A11,11,0,0,0,225.63,368.81Z"/><g class="cls-47"><path class="cls-44" d="M245,350l1.47-1.43a337.18,337.18,0,0,1-87.36-122.92c-.57.38-1.15.76-1.73,1.12A337.16,337.16,0,0,0,245,350Z"/></g><path class="cls-42" d="M179.05,297.75a194.55,194.55,0,0,0,23.6-16.49l1.37-1.11q-2.45-4.14-4.67-8.4a225.57,225.57,0,0,1-26.53,17.72C174.82,292.28,176.9,295.05,179.05,297.75Z"/><path class="cls-42" d="M225.63,368.81l27.76-27c-.8-.83-1.61-1.66-2.41-2.5l-4.39,4.23a5.09,5.09,0,1,0-5.94,5.7l-17,16.54A11,11,0,0,0,225.63,368.81Z"/><path class="cls-42" d="M114.3,189.08l1,1.14C126,201.86,130.73,209,138.69,221.78l2.11,3.39c13.89,22.32,69.25-4.19,72.37-13s-5.9-24.55-5.9-24.55c-10.17-18.75-26.94-32.88-43.32-46.54-4.85-4.05-9.91-8.21-16-9.86a30.37,30.37,0,0,0-12.09-.46,45.89,45.89,0,0,0-22,9.32,40.5,40.5,0,0,0-8.28,8.76c-.17.23-.32.46-.48.7-3.25,4.9-8.56,6.85-8,12.71C98,171.35,108.11,182.36,114.3,189.08Z"/><g class="cls-48"><path class="cls-44" d="M115.34,190.22C126,201.86,130.73,209,138.69,221.78a27.63,27.63,0,0,1,3.28-8A36,36,0,0,1,152.25,203a44.73,44.73,0,0,1,13.58-6.44c4.67-1.3,9.57-2.63,14.26-3.88a3.13,3.13,0,0,0,1.87-1c.41-.59.73-1.7,0-1.76q-10.84-11.62-21.69-23.25c-5.8-6.21-11.65-12.47-18.52-17.48s-14.91-8.73-23.39-9.22a26,26,0,0,0-4.5.1,40.5,40.5,0,0,0-8.28,8.76,33.47,33.47,0,0,1,21.49,6.5c3.14,2.34,5.93,5.57,8.74,8.31A49.27,49.27,0,0,0,115.34,190.22Z"/></g><path class="cls-42" d="M134.12,131.79a1.79,1.79,0,0,0,.61.07l.24,0a28.2,28.2,0,0,1,2.87-.49l.62-.07a29.61,29.61,0,0,1,3.52-.15l.62,0a30.5,30.5,0,0,1,3.69.35l.6.1a28.89,28.89,0,0,1,3.67.9l.58.18c.93.31,1.85.67,2.75,1.07l.56.26a29.27,29.27,0,0,1,5.19,3.14c2.38,1.81,5.28-1.81,2.9-3.63a35,35,0,0,0-3.88-2.55l-.7-.38a33.58,33.58,0,0,0-3.55-1.65l-.67-.25a35,35,0,0,0-4.55-1.37l-.66-.14a35.51,35.51,0,0,0-3.7-.56l-.72-.06a34.35,34.35,0,0,0-4.06-.07h0l-.72,0a34.5,34.5,0,0,0-4.05.52l-.7.15h-.08a2.39,2.39,0,0,0-2.08,2.55A2.53,2.53,0,0,0,134.12,131.79Z"/><path class="cls-42" d="M153.89,133.74l.56.26a9.88,9.88,0,0,1,4.21-3l-.7-.38A10.54,10.54,0,0,0,153.89,133.74Z"/><path class="cls-42" d="M150.56,132.49l.58.18a11.31,11.31,0,0,1,3.27-3.74l-.67-.25A11.83,11.83,0,0,0,150.56,132.49Z"/><path class="cls-42" d="M146.29,131.49l.6.1a14.07,14.07,0,0,1,2.3-4.28l-.66-.14A14.69,14.69,0,0,0,146.29,131.49Z"/><path class="cls-42" d="M142,131.12l.62,0a12.39,12.39,0,0,1,2.23-4.53l-.72-.06A13.18,13.18,0,0,0,142,131.12Z"/><path class="cls-42" d="M137.84,131.34l.62-.07a12.23,12.23,0,0,1,1.59-4.79l-.72,0A12.83,12.83,0,0,0,137.84,131.34Z"/><path class="cls-42" d="M134.12,131.79a1.79,1.79,0,0,0,.61.07,10.38,10.38,0,0,1,.55-4.82l-.7.15h0A10.87,10.87,0,0,0,134.12,131.79Z"/><path class="cls-42" d="M100.92,154.34a32.08,32.08,0,0,0,3.43-3.72c.14-.17.26-.33.38-.49.39-.51.72-1,1-1.35a9.5,9.5,0,0,1,.46-1,5.7,5.7,0,0,1,.3-.54,9.72,9.72,0,0,1,.69-1,10.07,10.07,0,0,1,1.32-1.37c.16-.14.31-.27.48-.4a13.86,13.86,0,0,1,3.52-2c.2-.08.39-.16.59-.22a15.24,15.24,0,0,1,1.86-.55,17.43,17.43,0,0,1,1.75-.34c.21,0,.41-.06.62-.08a20.75,20.75,0,0,1,3.78-.1l.63,0a21.71,21.71,0,0,1,3.83.71l.58.17a20.31,20.31,0,0,1,2.29.86l.56.26a19.76,19.76,0,0,1,2.64,1.51,2.37,2.37,0,0,0,3.26-.37,2.34,2.34,0,0,0-.37-3.26c-.7-.48-1.43-.93-2.16-1.34l-.6-.31a24.45,24.45,0,0,0-2.76-1.24l-.62-.23a25,25,0,0,0-3-.86c-.45-.11-.9-.2-1.36-.27h0l-.66-.1a24.63,24.63,0,0,0-5.15-.21l-.65,0a24.87,24.87,0,0,0-4.45.8l-.63.19a22.33,22.33,0,0,0-4.62,2c-.16.09-.31.19-.46.29s-.37.24-.55.36a15.15,15.15,0,0,0-3.76,3.73l-.36.53a13.94,13.94,0,0,0-1.61,3.54c-.06.21-.12.41-.17.62A12.29,12.29,0,0,0,100.92,154.34Z"/><path class="cls-42" d="M128.41,143l.56.26a14.2,14.2,0,0,1,3.37-3.46l-.6-.31A15,15,0,0,0,128.41,143Z"/><path class="cls-42" d="M125.54,141.94l.58.17a15.45,15.45,0,0,1,2.86-3.89l-.62-.23A15.73,15.73,0,0,0,125.54,141.94Z"/><path class="cls-42" d="M121.08,141.18l.63,0a24.61,24.61,0,0,1,2.3-4.37l-.66-.1c-.19.3-.38.6-.56.91A25.29,25.29,0,0,0,121.08,141.18Z"/><path class="cls-42" d="M116.68,141.36c.21,0,.41-.06.62-.08a23.8,23.8,0,0,1,.9-4.73l-.65,0c-.1.37-.2.74-.29,1.12A24.85,24.85,0,0,0,116.68,141.36Z"/><path class="cls-42" d="M112.48,142.47c.2-.08.39-.16.59-.22a23.12,23.12,0,0,1,0-4.85l-.63.19s0,.11,0,.16A24.81,24.81,0,0,0,112.48,142.47Z"/><path class="cls-42" d="M108.48,144.85c.16-.14.31-.27.48-.4a15,15,0,0,1-1.57-4.55c-.19.11-.37.24-.55.36A15.55,15.55,0,0,0,108.48,144.85Z"/><path class="cls-42" d="M102.72,144.52a11.81,11.81,0,0,0,3.45,3.23,5.7,5.7,0,0,1,.3-.54,11.2,11.2,0,0,1-3.39-3.22Z"/><path class="cls-42" d="M100.94,148.68a28,28,0,0,0,3.41,1.94c.14-.17.26-.33.38-.49a27.53,27.53,0,0,1-3.62-2.07C101.05,148.27,101,148.47,100.94,148.68Z"/><path class="cls-42" d="M24.79,167.85a86.11,86.11,0,0,0,29.29,14.46A98.43,98.43,0,0,0,67,185a109.89,109.89,0,0,0,32.94-.32,48.68,48.68,0,0,0,6.1-1.31,23.42,23.42,0,0,0,3.63-1.39,14.51,14.51,0,0,0,7.13-6.9,11.68,11.68,0,0,0,.86-5.87,14.88,14.88,0,0,0-3.47-8c-3.22-3.78-8.55-5.76-13.42-6.76-.57.35-1.15.69-1.74,1a65.71,65.71,0,0,1-29.4,8.71c-1,.05-2,.08-3,.08a69.57,69.57,0,0,1-7.64-.4,66.86,66.86,0,0,1-27.06-9,11.27,11.27,0,0,0-4.45,3.56A13.39,13.39,0,0,0,24.79,167.85Z"/><path class="cls-42" d="M106,183.4a23.42,23.42,0,0,0,3.63-1.39,14.51,14.51,0,0,0,7.13-6.9c2-4.55.61-10.12-2.61-13.9s-8.55-5.76-13.42-6.76c-.57.35-1.15.69-1.74,1a6.45,6.45,0,0,1,1.1.4,19.74,19.74,0,0,1,6.35,4.62,17.26,17.26,0,0,1,4.26,14.87A15.1,15.1,0,0,1,106,183.4Z"/><path class="cls-42" d="M54.08,182.31A98.43,98.43,0,0,0,67,185a20,20,0,0,0,2.63-20.84c-1,.05-2,.08-3,.08a69.57,69.57,0,0,1-7.64-.4A15.82,15.82,0,0,0,55.37,170,27.88,27.88,0,0,0,54.08,182.31Z"/><g class="cls-49"><path class="cls-44" d="M24.79,167.85a86.11,86.11,0,0,0,29.29,14.46A98.43,98.43,0,0,0,67,185a109.89,109.89,0,0,0,32.94-.32,48.68,48.68,0,0,0,6.1-1.31,23.42,23.42,0,0,0,3.63-1.39,14.51,14.51,0,0,0,7.13-6.9,11.68,11.68,0,0,0,.86-5.87,18.11,18.11,0,0,1-2.1,3.33,28.47,28.47,0,0,1-11.23,7.79c-6.72,2.63-14.1,3.08-21.31,2.76a107.82,107.82,0,0,1-43.28-11.18c-3.48-1.73-7-3.73-9.43-6.76a12.74,12.74,0,0,1-2.85-6.78A13.39,13.39,0,0,0,24.79,167.85Z"/></g><path class="cls-42" d="M3.48,164.73a2,2,0,0,0,1.21,1,12,12,0,0,0,1.94.57,14.45,14.45,0,0,0,1.85.26,48.88,48.88,0,0,0,7-.28c3.63-.27,7.63-.16,10.45,2.15-.24-.2-.21-.94-.07-1.79a27.74,27.74,0,0,1,.81-3.22A17.06,17.06,0,0,1,29,158.65c.29-.43.6-.84.92-1.24s.47-.55.71-.82c.42-.44,1.3-1,1.43-1.61.29-1.4-1.62-3.73-2.44-4.72a16.26,16.26,0,0,0-5.06-4,21.07,21.07,0,0,0-5.05-1.78c-.81-.17-1.64-.3-2.46-.4a29.77,29.77,0,0,0-4.11-.19,4.15,4.15,0,0,0-1.49.22,1.29,1.29,0,0,0-.16,2.41,4.11,4.11,0,0,0,1.5.47l3.08.55,1.89.34,2.86.51a2.37,2.37,0,0,1,1.61.75.89.89,0,0,1,.05,1c-.24.36-.66.35-1,.33A36.57,36.57,0,0,1,10.08,148c-.55-.21-1.09-.44-1.62-.68s-1-.46-1.48-.71a3.91,3.91,0,0,0-2.27-.64,1.46,1.46,0,0,0-1,.52,1.74,1.74,0,0,0,.3,2.1,8.41,8.41,0,0,0,2.3,2.07,18.58,18.58,0,0,0,1.92,1.06c1.27.61,2.61,1.15,3.85,1.83a.4.4,0,0,1-.3.73,19,19,0,0,1-5.38-2.34c-.35-.22-.69-.45-1-.7a17.49,17.49,0,0,1-2-1.71,3.12,3.12,0,0,0-1.39-1,1.07,1.07,0,0,0-.92.17c-.67.52-.29,1.54.18,2.21a15.19,15.19,0,0,0,2.41,2.65c.34.3.7.6,1.07.88a44.36,44.36,0,0,0,6.41,3.9,1.86,1.86,0,0,1-1.8.47A5.57,5.57,0,0,1,7.62,158L5.2,156.44,4,155.65,1.41,154a.92.92,0,0,0-1.37,1,7.12,7.12,0,0,0,1.84,3A10.62,10.62,0,0,0,3,159a10.86,10.86,0,0,0,1.3.81,24.25,24.25,0,0,0,2.37,1.11c1,.39,2,.75,2.93,1.16a.62.62,0,0,1-.21,1.18l-1.72.08L6,163.37l-1.26,0c-.52,0-1.13.1-1.32.65A.84.84,0,0,0,3.48,164.73Z"/><path class="cls-42" d="M15.82,147.51l1.89.34a7.49,7.49,0,0,1,.25-1,5.68,5.68,0,0,1,1.5-2.36c-.81-.17-1.64-.3-2.46-.4a8.74,8.74,0,0,0-1.06,2.59A3.65,3.65,0,0,0,15.82,147.51Z"/><path class="cls-42" d="M6.36,150.61a18.58,18.58,0,0,0,1.92,1.06,6.07,6.07,0,0,1,1.8-3.72c-.55-.21-1.09-.44-1.62-.68a9.09,9.09,0,0,0-1.8,2.42A2.84,2.84,0,0,0,6.36,150.61Z"/><path class="cls-42" d="M3.68,153.55c.34.3.7.6,1.07.88a4.11,4.11,0,0,1,1.7-2.54c-.35-.22-.69-.45-1-.7a3.62,3.62,0,0,0-1.25,1.15A3.49,3.49,0,0,0,3.68,153.55Z"/><path class="cls-42" d="M3,159a10.86,10.86,0,0,0,1.3.81,4.62,4.62,0,0,1,.31-2.38c.1-.24.41-.61.61-.94L4,155.65a1.82,1.82,0,0,0-.75,1A5.51,5.51,0,0,0,3,158,7.22,7.22,0,0,0,3,159Z"/><path class="cls-42" d="M6.6,166.17l0,.08a14.45,14.45,0,0,0,1.85.26C8.25,166,8,165.2,8,165.09c-.16-.55-.14-1.24-.32-1.8L6,163.37a5.1,5.1,0,0,0,0,.89A7.93,7.93,0,0,0,6.6,166.17Z"/><path class="cls-42" d="M16.38,163a6.43,6.43,0,0,0,2.83,1.48l6.69,2.16a27.74,27.74,0,0,1,.81-3.22A17.06,17.06,0,0,1,29,158.65c.29-.43.6-.84.92-1.24h-.19a28.88,28.88,0,0,1-6.44-1.31,28.23,28.23,0,0,1-3.4-1.34,2.89,2.89,0,0,0-2-.44c-.84.24-1.25,1.16-1.55,2a13,13,0,0,0-.9,3.39A4.28,4.28,0,0,0,16.38,163Z"/><path class="cls-42" d="M129.68,165q12,15.94,25.14,31l2.3,2.62q3.18,3.58,6.43,7.12c2.56,2.81,5.78,5.82,9.55,5.36a12.1,12.1,0,0,0,4.14-1.59L205,194.73a26.27,26.27,0,0,0,5.74-3.72c1.52-1.4,3.52-3.59,3.12-5.5a2.14,2.14,0,0,0-.21-.6A141.67,141.67,0,0,0,205.54,171c-.7-1.05-1.41-2.1-2.14-3.14a145,145,0,0,0-18.18-21.25,79.24,79.24,0,0,0-14.9-11.64,17.39,17.39,0,0,0-13.1-1.78L146,136.1c-5,1.32-10.2,2.69-14.46,5.69a17.93,17.93,0,0,0-5,5.24,12.55,12.55,0,0,0-2,7.95C125.07,158.75,127.4,162,129.68,165Z"/><path class="cls-42" d="M129.68,165q15.93,21.16,33.87,40.72c2.56,2.81,5.78,5.82,9.55,5.36a12.1,12.1,0,0,0,4.14-1.59L205,194.73a26.27,26.27,0,0,0,5.74-3.72c1.52-1.4,3.52-3.59,3.12-5.5a7.85,7.85,0,0,0-4.14,1.26l-33.45,18.46-.26-.34q-22.78-27.55-45.58-55.12c-1-1.19-2.09-2.45-3.61-2.71l-.28,0a12.55,12.55,0,0,0-2,7.95C125.07,158.75,127.4,162,129.68,165Z"/><path class="cls-42" d="M154.82,196l2.3,2.62a45.88,45.88,0,0,1,3.42-4c6.53-6.73,14.9-11.36,23.14-15.65,6.8-3.53,14.11-7.37,21.86-8.05-.7-1.05-1.41-2.1-2.14-3.14a43.17,43.17,0,0,0-9.59,2.62,127.16,127.16,0,0,0-13.06,6.26,132.7,132.7,0,0,0-13.24,7.75A58.06,58.06,0,0,0,154.82,196Z"/><path class="cls-42" d="M138.69,142.2l1.63,2,9.83,12.07,8.78-3.18L162,152c-4.63-7-12.17-13.17-12.17-13.17Z"/><path class="cls-42" d="M140.32,144.2l9.83,12.07,8.78-3.18a74.19,74.19,0,0,0-10.82-11.26Z"/><path class="cls-42" d="M197.19,200.17c.5.89,1,1.79,1.52,2.67l.32.54c.61,1,1.23,2.07,1.86,3.1l.35.55c.84,1.36,1.72,2.7,2.61,4l.34.51c.55.81,1.1,1.62,1.66,2.42.41.58.83,1.17,1.27,1.75l.39.49a18.44,18.44,0,0,0,3.59,3.63,5.72,5.72,0,0,0,.57.39,9.41,9.41,0,0,0,3.74,1.45,8.4,8.4,0,0,0,1.8.07q.31,0,.63-.06a7,7,0,0,0,5.93-5,4.2,4.2,0,0,0,.14-.59h0c.05-.26.09-.52.12-.79a13.08,13.08,0,0,0-.22-3.69h0c0-.19-.08-.39-.12-.59a21.94,21.94,0,0,0-1.22-3.67c-.08-.18-.17-.37-.25-.56-.51-1.12-1.09-2.21-1.68-3.24-.18-.31-.37-.62-.56-.92s-.23-.36-.35-.54a29.07,29.07,0,0,0-2.58-3.36l-.44-.48a28.61,28.61,0,0,0-3-2.77l-.49-.4c-.48-.38-1-.74-1.47-1.09a2,2,0,0,0-1.49-.35c.33.78,1,2.4,1.6,4.07l.25.72c.16.49.31,1,.44,1.42.64.61,1.25,1.25,1.82,1.91.14.15.27.31.4.47a25.21,25.21,0,0,1,2.1,2.93c.11.18.22.35.32.53s.18.32.28.48c.37.68.76,1.42,1.13,2.21.08.18.17.36.25.55a17.71,17.71,0,0,1,.92,2.62c.05.2.1.4.13.6a8.4,8.4,0,0,1,.12,3.07.08.08,0,0,0,0,0,3.39,3.39,0,0,1-.16.59,3.16,3.16,0,0,1-3.54,1.86c-.24,0-.47-.07-.7-.12a5.63,5.63,0,0,1-1.62-.66,8.85,8.85,0,0,1-1.28-1c-.17-.14-.32-.29-.48-.44a20.64,20.64,0,0,1-1.85-2.23l-.06-.08-.36-.49c-.94-1.28-1.83-2.59-2.71-3.9l-.3-.45,0-.06c-.84-1.26-1.66-2.54-2.47-3.82l-.31-.52c-.66-1.06-1.31-2.14-1.94-3.22-.11-.17-.21-.35-.31-.52-.48-.82-.94-1.65-1.41-2.48a2,2,0,0,0-2.82-.42A2.09,2.09,0,0,0,197.19,200.17Z"/><path class="cls-42" d="M212.06,198.45a16.49,16.49,0,0,0,1.6-2.95l-.49-.4a16,16,0,0,1-1.36,2.63Z"/><path class="cls-42" d="M214.32,201.78c.14.15.27.31.4.47a27.28,27.28,0,0,0,2.33-3.5l-.44-.48A26.1,26.1,0,0,1,214.32,201.78Z"/><path class="cls-42" d="M216.82,205.18c.11.18.22.35.32.53a19.16,19.16,0,0,0,2.84-3.06c-.11-.19-.23-.36-.35-.54A17.79,17.79,0,0,1,216.82,205.18Z"/><path class="cls-42" d="M218.55,208.4c.08.18.17.36.25.55a17,17,0,0,0,3.67-1.58c-.08-.18-.17-.37-.25-.56A16.37,16.37,0,0,1,218.55,208.4Z"/><path class="cls-42" d="M219.85,212.17l4-.54c0-.19-.08-.39-.12-.59l-4,.53C219.77,211.77,219.82,212,219.85,212.17Z"/><path class="cls-42" d="M219.8,215.87a20.62,20.62,0,0,0,4,.84,4.2,4.2,0,0,0,.14-.59h0a19.18,19.18,0,0,1-3.95-.84A3.39,3.39,0,0,1,219.8,215.87Z"/><path class="cls-42" d="M215.56,217.61l1.65,4.17q.31,0,.63-.06l-1.58-4C216,217.7,215.79,217.66,215.56,217.61Z"/><path class="cls-42" d="M211.1,219.87a5.72,5.72,0,0,0,.57.39,14.48,14.48,0,0,1,1-4.29c-.17-.14-.32-.29-.48-.44A14.79,14.79,0,0,0,211.1,219.87Z"/><path class="cls-42" d="M207.12,215.75l.39.49a19.26,19.26,0,0,1,2.76-3l-.36-.49A20.48,20.48,0,0,0,207.12,215.75Z"/><path class="cls-42" d="M203.85,211.07l.34.51a23.78,23.78,0,0,1,3-2.75l-.3-.45,0-.06A23.2,23.2,0,0,0,203.85,211.07Z"/><path class="cls-42" d="M200.89,206.48l.35.55a7.66,7.66,0,0,1,3.16-2.53l-.31-.52A8.42,8.42,0,0,0,200.89,206.48Z"/><path class="cls-42" d="M198.71,202.84l.32.54a24.45,24.45,0,0,1,3.12-2.62c-.11-.17-.21-.35-.31-.52A25.85,25.85,0,0,0,198.71,202.84Z"/><path class="cls-42" d="M138.56,228.49c.08.19.17.37.25.55a37.58,37.58,0,0,0,2.13,4l.33.52c.62,1,1.29,1.9,2,2.8h0c.12.17.25.32.38.48a33.22,33.22,0,0,0,3,3.26l.46.43c.81.74,1.67,1.44,2.55,2.1s1.58,1.12,2.4,1.63l.52.31a33.93,33.93,0,0,0,4.64,2.3l.57.22a33.75,33.75,0,0,0,5.38,1.56l.61.12a33.87,33.87,0,0,0,5.42.55h.64a29.93,29.93,0,0,0,7-.85l.59-.14a32,32,0,0,0,5.61-2.06l.54-.27a29.71,29.71,0,0,0,4.16-2.52c.17-.12.34-.24.5-.37.55-.42,1.09-.86,1.62-1.31a30.22,30.22,0,0,0,2.88-2.89h0c.14-.15.27-.31.4-.46a29.66,29.66,0,0,0,3.06-4.41l.31-.57a27.71,27.71,0,0,0,2-4.8c.06-.2.12-.39.17-.59a25.34,25.34,0,0,0,.92-5.06c0-.2,0-.4,0-.61s0-.21,0-.31a27.76,27.76,0,0,0-.2-4.65c0-.21-.06-.42-.09-.62a28,28,0,0,0-1.11-4.71l-.21-.59a26.41,26.41,0,0,0-1.81-4c-.09-.18-.2-.36-.3-.53a25.56,25.56,0,0,0-2.52-3.6c-.13-.16-.27-.31-.41-.47l-.59-.66a2.07,2.07,0,0,0-2.83-.41,2,2,0,0,0-.42,2.82q.47.49.9,1a5.71,5.71,0,0,1,.39.47,24.2,24.2,0,0,1,2.15,3.17l.28.53a23.82,23.82,0,0,1,1.57,3.63l.18.58a23.54,23.54,0,0,1,.86,4l.06.6a22.37,22.37,0,0,1,0,4c0,.21,0,.4-.06.6l-.09.72a22.75,22.75,0,0,1-.79,3.52l-.18.57a23.32,23.32,0,0,1-2,4.36c-.1.18-.21.35-.32.53a24.18,24.18,0,0,1-2.14,2.91l-.39.45a26.18,26.18,0,0,1-3.85,3.51l-.49.36a28.26,28.26,0,0,1-3.62,2.18l-.55.26a26.77,26.77,0,0,1-5.08,1.83l-.59.15a26.83,26.83,0,0,1-6.07.68h-.62c-.57,0-1.14-.05-1.71-.11a29.48,29.48,0,0,1-3-.45l-.59-.13a28.83,28.83,0,0,1-4.21-1.28l-.56-.23a30,30,0,0,1-4-2c-.18-.1-.35-.21-.52-.32a32.23,32.23,0,0,1-4.19-3.17l-.46-.42a33.06,33.06,0,0,1-2.75-2.92c-.13-.16-.26-.31-.38-.48a29.43,29.43,0,0,1-1.75-2.4c-.12-.17-.23-.35-.34-.52-.53-.85-1-1.72-1.49-2.62-.1-.2-.2-.4-.29-.61a3.78,3.78,0,0,1-.17-.35c-.49-.64-1.05-1.44-1.63-2.3-.15-.21-.29-.42-.43-.64-.56-.84-1.12-1.7-1.62-2.49l-.36-.57-1.27-2a1.9,1.9,0,0,0-1,1.9l.18.73.15.6c.19.73.4,1.45.63,2.17l.19.57C137.64,226.29,138.07,227.4,138.56,228.49Z"/><path class="cls-42" d="M190.14,205.64a5.71,5.71,0,0,1,.39.47,15.85,15.85,0,0,0,3-2.77c-.13-.16-.27-.31-.41-.47A15.15,15.15,0,0,1,190.14,205.64Z"/><path class="cls-42" d="M192.68,209.28l.28.53a31.34,31.34,0,0,0,3.35-2.34c-.09-.18-.2-.36-.3-.53A32.13,32.13,0,0,1,192.68,209.28Z"/><path class="cls-42" d="M194.71,214a23.76,23.76,0,0,0,3.62-1.94l-.21-.59a22.25,22.25,0,0,1-3.59,1.95Z"/><path class="cls-42" d="M195.63,218.62a24.12,24.12,0,0,0,3.9-1.21c0-.21-.06-.42-.09-.62a23.85,23.85,0,0,1-3.87,1.23Z"/><path class="cls-42" d="M195.61,223.23a25.21,25.21,0,0,0,4.07-.25c0-.2,0-.4,0-.61a23.9,23.9,0,0,1-4.05.26C195.65,222.84,195.63,223,195.61,223.23Z"/><path class="cls-42" d="M194.55,228a30.49,30.49,0,0,0,4,.59c.06-.2.12-.39.17-.59a30.54,30.54,0,0,1-4-.57Z"/><path class="cls-42" d="M192.22,232.93a15.65,15.65,0,0,0,4,1.07l.31-.57a14.75,14.75,0,0,1-4-1C192.44,232.58,192.33,232.75,192.22,232.93Z"/><path class="cls-42" d="M189.69,236.29a19.2,19.2,0,0,0,3.11,2.58h0c.14-.15.27-.31.4-.46a18.8,18.8,0,0,1-3.12-2.57Z"/><path class="cls-42" d="M185.35,240.16a14,14,0,0,0,2.45,3.28c.17-.12.34-.24.5-.37a13.56,13.56,0,0,1-2.46-3.27Z"/><path class="cls-42" d="M181.18,242.6a31.46,31.46,0,0,0,1.92,3.63l.54-.27a32.88,32.88,0,0,1-1.91-3.62Z"/><path class="cls-42" d="M176.9,248.43l.59-.14c-.46-1.29-.92-2.57-1.39-3.86l-.59.15Z"/><path class="cls-42" d="M169.22,249.28h.64a10.52,10.52,0,0,1-.42-4h-.62A11.68,11.68,0,0,0,169.22,249.28Z"/><path class="cls-42" d="M163.19,248.61l.61.12a16.13,16.13,0,0,1,.3-4l-.59-.13A16.75,16.75,0,0,0,163.19,248.61Z"/><path class="cls-42" d="M157.24,246.83l.57.22a16.09,16.09,0,0,1,1.49-3.77l-.56-.23A16,16,0,0,0,157.24,246.83Z"/><path class="cls-42" d="M152.08,244.22l.52.31a12.45,12.45,0,0,1,2.1-3.52c-.18-.1-.35-.21-.52-.32A13.14,13.14,0,0,0,152.08,244.22Z"/><path class="cls-42" d="M146.67,240.06l.46.43a6.84,6.84,0,0,1,2.86-3l-.46-.42A7.47,7.47,0,0,0,146.67,240.06Z"/><path class="cls-42" d="M143.27,236.32h0c.12.17.25.32.38.48a11.6,11.6,0,0,1,3.13-2.62c-.13-.16-.26-.31-.38-.48A12.14,12.14,0,0,0,143.27,236.32Z"/><path class="cls-42" d="M140.94,233l.33.52a9,9,0,0,1,3.38-2.22c-.12-.17-.23-.35-.34-.52A9.7,9.7,0,0,0,140.94,233Z"/><path class="cls-42" d="M138.56,228.49c.08.19.17.37.25.55a9.12,9.12,0,0,1,4-.88c-.1-.2-.2-.4-.29-.61A9.76,9.76,0,0,0,138.56,228.49Z"/><path class="cls-42" d="M137.25,225.15a11,11,0,0,1,3.48-.25c-.15-.21-.29-.42-.43-.64a11.4,11.4,0,0,0-3.24.32Z"/><path class="cls-42" d="M136.43,222.41a6.76,6.76,0,0,1,2.25-.64l-.36-.57a7.18,7.18,0,0,0-2,.61Z"/><path class="cls-42" d="M229.06,45.15c-9.34-2.18-18.44-10.36-16.55-18.63,1.14-5,14.61-45.84,250.28,4.35V24.53c-229.06-48.6-253.41-12.15-256.32.61-2.75,12,8.74,23.16,21.19,26.05,29.9,7,54.64,14.2,54.4,32.44-.05,3.7-2.87,6.92-5.48,8.7-9,6.14-26.08,7.74-50.78,4.73-15-1.81-22.14,3.52-23.74,9.13-1.48,5.14,1.42,10.56,7,13.18,3.86,1.8,10.43,2.89,18,4.15,15.25,2.53,36.14,6,34.86,16.59a7.94,7.94,0,0,1-3.51,5.78c-3.1,2.15-11.17,5.06-30.5.4-28.83-6.94-37.23,2.66-48.54,18.91a3.09,3.09,0,0,0,.78,4.31,3.09,3.09,0,0,0,4.31-.77c10.69-15.35,16.93-22.45,42-16.41,16.55,4,28.49,3.52,35.5-1.35a14.12,14.12,0,0,0,6.14-10.13c2-16.49-21.31-20.35-40-23.45-6.85-1.14-13.32-2.21-16.42-3.65-2.83-1.33-4.31-3.67-3.69-5.85.93-3.24,6.56-5.94,17-4.68,26.57,3.23,44.58,1.35,55-5.76,5.06-3.45,8.12-8.59,8.19-13.75C288.56,60.85,261.63,52.72,229.06,45.15Z"/></g></g></g></g></svg>