<svg xmlns="http://www.w3.org/2000/svg" viewBox="0 0 1920 1280"><defs><style>.cls-1{fill:#ffd9c0;}.cls-2{fill:#fff;}.cls-3{opacity:0.5;}</style></defs><title>single-bg-light</title><g id="Layer_2" data-name="Layer 2"><g id="Layer_1-2" data-name="Layer 1"><rect class="cls-1" width="1920" height="1280"/><circle class="cls-2" cx="1824.87" cy="936.67" r="6.22"/><path class="cls-2" d="M1097.59,17.3c-5.11,0-5.12,7.94,0,7.94S1102.71,17.3,1097.59,17.3Z"/><path class="cls-2" d="M443.69,735c-2.57,0-2.57,4,0,4S446.26,735,443.69,735Z"/><path class="cls-2" d="M1501.56,1078.79c-5.11,0-5.12,7.94,0,7.94S1506.67,1078.79,1501.56,1078.79Z"/><path class="cls-2" d="M333.71,662.26c-5.11,0-5.12,7.94,0,7.94S338.82,662.26,333.71,662.26Z"/><path class="cls-2" d="M105.89,710.29c-5.11,0-5.11,7.94,0,7.94S111,710.29,105.89,710.29Z"/><path class="cls-2" d="M1653.89,656.1c-5.11,0-5.12,7.94,0,7.94S1659,656.1,1653.89,656.1Z"/><path class="cls-2" d="M75.67,271.84c-5.11,0-5.12,7.94,0,7.94S80.79,271.84,75.67,271.84Z"/><path class="cls-2" d="M123.89,434c-5.11,0-5.12,7.94,0,7.94S129,434,123.89,434Z"/><path class="cls-2" d="M579.51,432.63c-5.11,0-5.12,7.94,0,7.94S584.63,432.63,579.51,432.63Z"/><path class="cls-2" d="M1035.13,318.72c-5.11,0-5.11,7.94,0,7.94S1040.25,318.72,1035.13,318.72Z"/><path class="cls-2" d="M381.5,516a1.9,1.9,0,0,0,0,3.79A1.9,1.9,0,0,0,381.5,516Z"/><path class="cls-2" d="M1826.8,46.63c-3.41,0-3.41,5.3,0,5.3S1830.21,46.63,1826.8,46.63Z"/><path class="cls-2" d="M1842.12,204.91c-3.41,0-3.42,5.29,0,5.29S1845.53,204.91,1842.12,204.91Z"/><path class="cls-2" d="M1663.42,337.66c-3.41,0-3.41,5.29,0,5.29S1666.83,337.66,1663.42,337.66Z"/><path class="cls-2" d="M644.33,562.2c-3.41,0-3.41,5.29,0,5.29S647.74,562.2,644.33,562.2Z"/><path class="cls-2" d="M1612.36,794.61c-3.4,0-3.41,5.3,0,5.3S1615.77,794.61,1612.36,794.61Z"/><path class="cls-2" d="M1865.09,439.77c-3.4,0-3.41,5.29,0,5.29S1868.5,439.77,1865.09,439.77Z"/><path class="cls-2" d="M1645.55,67.06c-3.41,0-3.41,5.29,0,5.29S1649,67.06,1645.55,67.06Z"/><path class="cls-2" d="M1349.42,92.58c-3.41,0-3.41,5.3,0,5.3S1352.83,92.58,1349.42,92.58Z"/><path class="cls-2" d="M757.16,67.06c-3.41,0-3.41,5.29,0,5.29S760.57,67.06,757.16,67.06Z"/><path class="cls-2" d="M836.3,485.72c-3.41,0-3.41,5.29,0,5.29S839.71,485.72,836.3,485.72Z"/><path class="cls-2" d="M1150.3,1024.37c-3.41,0-3.41,5.29,0,5.29S1153.71,1024.37,1150.3,1024.37Z"/><path class="cls-2" d="M1257.52,1047.34c-3.41,0-3.42,5.3,0,5.3S1260.93,1047.34,1257.52,1047.34Z"/><path class="cls-2" d="M934.22,371.9c-3.4,0-3.41,5.29,0,5.29S937.64,371.9,934.22,371.9Z"/><path class="cls-2" d="M719.79,369.34c-3.41,0-3.42,5.3,0,5.3S723.2,369.34,719.79,369.34Z"/><path class="cls-2" d="M524.85,1172.43c-3.4,0-3.41,5.3,0,5.3S528.26,1172.43,524.85,1172.43Z"/><path class="cls-2" d="M296,415.3c-3.41,0-3.42,5.29,0,5.29S299.43,415.3,296,415.3Z"/><path class="cls-2" d="M380.26,392.32c-3.41,0-3.41,5.29,0,5.29S383.67,392.32,380.26,392.32Z"/><path class="cls-2" d="M19.39,998.84c-3.41,0-3.41,5.29,0,5.29S22.8,998.84,19.39,998.84Z"/><path class="cls-2" d="M55.13,1157.12c-3.41,0-3.41,5.29,0,5.29S58.54,1157.12,55.13,1157.12Z"/><path class="cls-2" d="M16.84,779.3c-3.41,0-3.41,5.29,0,5.29S20.25,779.3,16.84,779.3Z"/><path class="cls-2" d="M74.52,530.3c-3.41,0-3.41,5.29,0,5.29S77.93,530.3,74.52,530.3Z"/><path class="cls-2" d="M182.77,161.51c-3.4,0-3.41,5.29,0,5.29S186.18,161.51,182.77,161.51Z"/><g class="cls-3"><circle class="cls-2" cx="523.15" cy="111.54" r="6.22"/><circle class="cls-2" cx="375.55" cy="954.46" r="6.22"/><path class="cls-2" d="M1870.72,93.44c-5.11,0-5.12,7.94,0,7.94S1875.84,93.44,1870.72,93.44Z"/><path class="cls-2" d="M1916.15,79.82c-3.41,0-3.41,5.29,0,5.29S1919.56,79.82,1916.15,79.82Z"/><path class="cls-2" d="M1760.43,301.92c-3.41,0-3.42,5.29,0,5.29S1763.84,301.92,1760.43,301.92Z"/><path class="cls-2" d="M1306,199.8c-3.41,0-3.41,5.3,0,5.3S1309.43,199.8,1306,199.8Z"/><path class="cls-2" d="M1112,1167.33c-3.4,0-3.41,5.29,0,5.29S1115.42,1167.33,1112,1167.33Z"/><path class="cls-2" d="M786.16,318.29c-3.41,0-3.41,5.29,0,5.29S789.57,318.29,786.16,318.29Z"/><path class="cls-2" d="M126.61,894.17c-3.41,0-3.41,5.3,0,5.3S130,894.17,126.61,894.17Z"/><path class="cls-2" d="M62.79,148.75c-3.41,0-3.41,5.29,0,5.29S66.2,148.75,62.79,148.75Z"/></g></g></g></svg>