<svg xmlns="http://www.w3.org/2000/svg" xmlns:xlink="http://www.w3.org/1999/xlink" viewBox="0 0 1920 1280"><defs><style>.cls-1{fill:url(#linear-gradient);}.cls-2{fill:#c6e6f3;}.cls-3{fill:#68cdf3;}.cls-4{fill:#fff;}.cls-5{fill:#ffe779;}.cls-6{fill:#dd503f;}.cls-7{fill:#51c3d4;}.cls-8{fill:#010b25;}</style><linearGradient id="linear-gradient" x1="10722.04" y1="1358.98" x2="12002.04" y2="1358.98" gradientTransform="translate(-10402.04 -718.98)" gradientUnits="userSpaceOnUse"><stop offset="0" stop-color="#021433"/><stop offset="1" stop-color="#010b25"/></linearGradient></defs><title>single-bg-dark</title><g id="Layer_2" data-name="Layer 2"><g id="Layer_1-2" data-name="Layer 1"><rect class="cls-1" x="320" y="-320" width="1280" height="1920" transform="translate(1600 -320) rotate(90)"/><path class="cls-2" d="M1883,1183.45a4.4,4.4,0,1,0-4.4,4.39A4.4,4.4,0,0,0,1883,1183.45Z"/><path class="cls-2" d="M1869.36,35.22a4.4,4.4,0,1,0-4.39,4.39A4.4,4.4,0,0,0,1869.36,35.22Z"/><path class="cls-2" d="M608.78,33a4.39,4.39,0,1,0-4.39,4.4A4.39,4.39,0,0,0,608.78,33Z"/><path class="cls-2" d="M1003.91,988a4.39,4.39,0,1,0-4.39,4.39A4.39,4.39,0,0,0,1003.91,988Z"/><path class="cls-2" d="M1076.74,775.68a2.47,2.47,0,1,0-2.48,2.47A2.48,2.48,0,0,0,1076.74,775.68Z"/><path class="cls-3" d="M1132.34,813.14a2.47,2.47,0,1,0-2.47,2.46A2.48,2.48,0,0,0,1132.34,813.14Z"/><path class="cls-2" d="M1483.07,503.89a2.47,2.47,0,1,0-2.47,2.47A2.47,2.47,0,0,0,1483.07,503.89Z"/><path class="cls-3" d="M1150,272.88a2.47,2.47,0,1,0-2.47,2.47A2.46,2.46,0,0,0,1150,272.88Z"/><path class="cls-2" d="M1876.45,159.36a2.47,2.47,0,1,0-2.47,2.47A2.48,2.48,0,0,0,1876.45,159.36Z"/><path class="cls-2" d="M745.34,944.35a2.47,2.47,0,1,0-2.47,2.47A2.47,2.47,0,0,0,745.34,944.35Z"/><path class="cls-2" d="M749.52,796.51a1.7,1.7,0,1,0-1.69,1.7A1.69,1.69,0,0,0,749.52,796.51Z"/><path class="cls-2" d="M470.6,974.12a1.7,1.7,0,1,0-1.7,1.7A1.7,1.7,0,0,0,470.6,974.12Z"/><path class="cls-2" d="M452.74,851.09a1.7,1.7,0,1,0-1.7,1.69A1.7,1.7,0,0,0,452.74,851.09Z"/><path class="cls-2" d="M571.8,870.93a1.7,1.7,0,1,0-1.7,1.7A1.7,1.7,0,0,0,571.8,870.93Z"/><path class="cls-2" d="M575.89,720.24a1.7,1.7,0,1,0-1.69,1.7A1.7,1.7,0,0,0,575.89,720.24Z"/><path class="cls-2" d="M693,773.82a1.7,1.7,0,1,0-1.7,1.7A1.7,1.7,0,0,0,693,773.82Z"/><path class="cls-2" d="M532.89,801.3a2.55,2.55,0,1,0-2.55,2.55A2.54,2.54,0,0,0,532.89,801.3Z"/><path class="cls-2" d="M616.07,788.17a2.55,2.55,0,1,0-2.55,2.54A2.55,2.55,0,0,0,616.07,788.17Z"/><path class="cls-2" d="M639.27,734a2.55,2.55,0,1,0-2.55,2.54A2.55,2.55,0,0,0,639.27,734Z"/><path class="cls-4" d="M308.63,933.65a2.55,2.55,0,1,0-2.55,2.55A2.55,2.55,0,0,0,308.63,933.65Z"/><path class="cls-2" d="M415,866.39a2.55,2.55,0,1,0-2.55,2.54A2.55,2.55,0,0,0,415,866.39Z"/><path class="cls-5" d="M567.08,941.78a3.82,3.82,0,1,0-3.83,3.82A3.82,3.82,0,0,0,567.08,941.78Z"/><path class="cls-2" d="M700,699.73a2.55,2.55,0,1,0-2.55,2.54A2.54,2.54,0,0,0,700,699.73Z"/><path class="cls-2" d="M771.1,628.59a2.55,2.55,0,1,0-2.55,2.54A2.55,2.55,0,0,0,771.1,628.59Z"/><path class="cls-2" d="M778.42,582.84a2.55,2.55,0,1,0-2.55,2.55A2.54,2.54,0,0,0,778.42,582.84Z"/><path class="cls-2" d="M577.22,500.77a2.55,2.55,0,1,0-2.55,2.54A2.55,2.55,0,0,0,577.22,500.77Z"/><path class="cls-2" d="M1438.38,778.37a2.55,2.55,0,1,0-2.55,2.55A2.55,2.55,0,0,0,1438.38,778.37Z"/><path class="cls-2" d="M1654.89,357.7a2.55,2.55,0,1,0-2.54,2.54A2.55,2.55,0,0,0,1654.89,357.7Z"/><path class="cls-2" d="M1464.14,161.79a2.55,2.55,0,1,0-2.54,2.55A2.54,2.54,0,0,0,1464.14,161.79Z"/><path class="cls-2" d="M1168.94,550a2.55,2.55,0,1,0-2.54,2.54A2.55,2.55,0,0,0,1168.94,550Z"/><path class="cls-5" d="M1283.05,458a2.55,2.55,0,1,0-2.54,2.54A2.55,2.55,0,0,0,1283.05,458Z"/><path class="cls-2" d="M1353.3,381.13a2.55,2.55,0,1,0-2.55,2.55A2.55,2.55,0,0,0,1353.3,381.13Z"/><path class="cls-5" d="M1368.49,321.2a2.55,2.55,0,1,0-2.55,2.54A2.55,2.55,0,0,0,1368.49,321.2Z"/><path class="cls-4" d="M1393.25,194.34a2.55,2.55,0,1,0-2.55,2.54A2.55,2.55,0,0,0,1393.25,194.34Z"/><path class="cls-5" d="M1577.8,332.8a2.55,2.55,0,1,0-2.55,2.54A2.55,2.55,0,0,0,1577.8,332.8Z"/><path class="cls-2" d="M1057.79,352a2.55,2.55,0,1,0-2.54,2.54A2.54,2.54,0,0,0,1057.79,352Z"/><path class="cls-2" d="M861,234a2.55,2.55,0,1,0-2.55,2.54A2.55,2.55,0,0,0,861,234Z"/><path class="cls-5" d="M194.61,129.49a2.55,2.55,0,1,0-2.55,2.54A2.55,2.55,0,0,0,194.61,129.49Z"/><path class="cls-2" d="M99.88,74.47A2.55,2.55,0,1,0,97.33,77,2.55,2.55,0,0,0,99.88,74.47Z"/><path class="cls-2" d="M376.29,1008.17a2.55,2.55,0,1,0-2.54,2.54A2.54,2.54,0,0,0,376.29,1008.17Z"/><path class="cls-2" d="M482.67,940.9a2.55,2.55,0,1,0-2.55,2.54A2.55,2.55,0,0,0,482.67,940.9Z"/><path class="cls-2" d="M667.22,961.12a2.55,2.55,0,1,0-2.55,2.54A2.55,2.55,0,0,0,667.22,961.12Z"/><path class="cls-2" d="M676,1099a2.55,2.55,0,1,0-2.54,2.55A2.54,2.54,0,0,0,676,1099Z"/><path class="cls-2" d="M782.33,1031.76a2.55,2.55,0,1,0-2.55,2.55A2.54,2.54,0,0,0,782.33,1031.76Z"/><path class="cls-2" d="M966.88,1052a2.55,2.55,0,1,0-2.55,2.55A2.54,2.54,0,0,0,966.88,1052Z"/><path class="cls-2" d="M1276.21,957.25a2.55,2.55,0,1,0-2.55,2.55A2.55,2.55,0,0,0,1276.21,957.25Z"/><path class="cls-5" d="M164.72,1131.25a2.55,2.55,0,1,0-2.54,2.55A2.55,2.55,0,0,0,164.72,1131.25Z"/><path class="cls-2" d="M424,1072a2.55,2.55,0,1,0-2.55,2.54A2.55,2.55,0,0,0,424,1072Z"/><path class="cls-2" d="M605.36,1113.85a2.55,2.55,0,1,0-2.55,2.54A2.55,2.55,0,0,0,605.36,1113.85Z"/><path class="cls-2" d="M574.83,1198.52a2.55,2.55,0,1,0-2.55,2.55A2.55,2.55,0,0,0,574.83,1198.52Z"/><path class="cls-2" d="M755.51,1208.59a2.55,2.55,0,1,0-2.54,2.54A2.55,2.55,0,0,0,755.51,1208.59Z"/><path class="cls-2" d="M817.08,1160.9a2.55,2.55,0,1,0-2.54,2.54A2.54,2.54,0,0,0,817.08,1160.9Z"/><path class="cls-2" d="M923.46,1093.63a2.55,2.55,0,1,0-2.55,2.54A2.55,2.55,0,0,0,923.46,1093.63Z"/><path class="cls-3" d="M1082.37,1188.3a2.55,2.55,0,1,0-2.55,2.55A2.55,2.55,0,0,0,1082.37,1188.3Z"/><path class="cls-2" d="M1172.85,964.1a2.55,2.55,0,1,0-2.54,2.54A2.54,2.54,0,0,0,1172.85,964.1Z"/><path class="cls-2" d="M1129.44,1005.74a2.55,2.55,0,1,0-2.55,2.55A2.55,2.55,0,0,0,1129.44,1005.74Z"/><path class="cls-2" d="M1314,1026a2.55,2.55,0,1,0-2.55,2.55A2.54,2.54,0,0,0,1314,1026Z"/><path class="cls-2" d="M1473.16,933a2.55,2.55,0,1,0-2.55,2.54A2.55,2.55,0,0,0,1473.16,933Z"/><path class="cls-2" d="M1411.69,920.52a2.55,2.55,0,1,0-2.55,2.54A2.55,2.55,0,0,0,1411.69,920.52Z"/><path class="cls-2" d="M1688.4,971.43a2.55,2.55,0,1,0-2.55,2.54A2.55,2.55,0,0,0,1688.4,971.43Z"/><path class="cls-2" d="M553.35,1047.52a1.7,1.7,0,1,0-1.69,1.7A1.69,1.69,0,0,0,553.35,1047.52Z"/><path class="cls-2" d="M496.8,1024.83a1.7,1.7,0,1,0-1.69,1.7A1.7,1.7,0,0,0,496.8,1024.83Z"/><path class="cls-2" d="M604,1042.69a1.7,1.7,0,1,0-1.7,1.7A1.7,1.7,0,0,0,604,1042.69Z"/><path class="cls-2" d="M804.68,1099.72a1.7,1.7,0,1,0-1.7,1.7A1.7,1.7,0,0,0,804.68,1099.72Z"/><path class="cls-2" d="M748.13,1077a1.7,1.7,0,1,0-1.7,1.7A1.7,1.7,0,0,0,748.13,1077Z"/><path class="cls-2" d="M855.29,1094.89a1.7,1.7,0,1,0-1.7,1.7A1.7,1.7,0,0,0,855.29,1094.89Z"/><path class="cls-2" d="M1701.73,1024.32a1.7,1.7,0,1,0-1.7,1.7A1.7,1.7,0,0,0,1701.73,1024.32Z"/><path class="cls-2" d="M1645.18,1001.63a1.7,1.7,0,1,0-1.7,1.7A1.7,1.7,0,0,0,1645.18,1001.63Z"/><path class="cls-4" d="M1752.34,1019.49a1.7,1.7,0,1,0-1.7,1.7A1.7,1.7,0,0,0,1752.34,1019.49Z"/><path class="cls-2" d="M870.41,1026.26a1.7,1.7,0,1,0-1.7,1.69A1.7,1.7,0,0,0,870.41,1026.26Z"/><path class="cls-2" d="M813.86,1003.56a1.7,1.7,0,1,0-1.7,1.7A1.7,1.7,0,0,0,813.86,1003.56Z"/><path class="cls-2" d="M921,1021.42a1.7,1.7,0,1,0-1.7,1.7A1.7,1.7,0,0,0,921,1021.42Z"/><path class="cls-2" d="M766.61,874.12a1.7,1.7,0,1,0-1.7,1.7A1.7,1.7,0,0,0,766.61,874.12Z"/><path class="cls-2" d="M710.06,851.43a1.7,1.7,0,1,0-1.7,1.69A1.7,1.7,0,0,0,710.06,851.43Z"/><path class="cls-2" d="M607.71,592.24a1.7,1.7,0,1,0-1.7,1.7A1.7,1.7,0,0,0,607.71,592.24Z"/><path class="cls-2" d="M687.12,667.26a1.7,1.7,0,1,0-1.7,1.69A1.7,1.7,0,0,0,687.12,667.26Z"/><path class="cls-2" d="M1059.6,728.48a1.7,1.7,0,1,0-1.7,1.7A1.7,1.7,0,0,0,1059.6,728.48Z"/><path class="cls-2" d="M897,738.7a1.7,1.7,0,1,0-1.69,1.7A1.69,1.69,0,0,0,897,738.7Z"/><path class="cls-2" d="M1164.27,633.8a1.7,1.7,0,1,0-1.7,1.7A1.7,1.7,0,0,0,1164.27,633.8Z"/><path class="cls-2" d="M1107.72,611.11a1.7,1.7,0,1,0-1.69,1.69A1.7,1.7,0,0,0,1107.72,611.11Z"/><path class="cls-2" d="M1214.88,629a1.7,1.7,0,1,0-1.7,1.69A1.7,1.7,0,0,0,1214.88,629Z"/><path class="cls-2" d="M1282.2,163.7a1.7,1.7,0,1,0-1.7,1.69A1.7,1.7,0,0,0,1282.2,163.7Z"/><path class="cls-2" d="M1225.65,141a1.7,1.7,0,1,0-1.69,1.7A1.7,1.7,0,0,0,1225.65,141Z"/><path class="cls-2" d="M1332.81,158.86a1.7,1.7,0,1,0-1.7,1.7A1.7,1.7,0,0,0,1332.81,158.86Z"/><path class="cls-2" d="M877.66,144.87a1.7,1.7,0,1,0-1.7,1.69A1.7,1.7,0,0,0,877.66,144.87Z"/><path class="cls-2" d="M1021.58,125.29a1.7,1.7,0,1,0-1.7,1.7A1.7,1.7,0,0,0,1021.58,125.29Z"/><path class="cls-2" d="M1335.74,605.39a1.7,1.7,0,1,0-1.69,1.7A1.69,1.69,0,0,0,1335.74,605.39Z"/><path class="cls-2" d="M1279.2,582.7a1.7,1.7,0,1,0-1.7,1.7A1.7,1.7,0,0,0,1279.2,582.7Z"/><path class="cls-2" d="M1386.35,600.56a1.7,1.7,0,1,0-1.7,1.69A1.7,1.7,0,0,0,1386.35,600.56Z"/><path class="cls-2" d="M913.24,805.32a1.7,1.7,0,1,0-1.7,1.7A1.7,1.7,0,0,0,913.24,805.32Z"/><path class="cls-2" d="M1208.79,708.21a1.7,1.7,0,1,0-1.7,1.7A1.7,1.7,0,0,0,1208.79,708.21Z"/><path class="cls-2" d="M716.79,625a1.7,1.7,0,1,0-1.7,1.7A1.7,1.7,0,0,0,716.79,625Z"/><path class="cls-2" d="M961.87,503.37a1.7,1.7,0,1,0-1.7,1.7A1.7,1.7,0,0,0,961.87,503.37Z"/><path class="cls-2" d="M1149.38,1158.67a1.7,1.7,0,1,0-1.69,1.7A1.7,1.7,0,0,0,1149.38,1158.67Z"/><path class="cls-5" d="M1701,1127.38a1.7,1.7,0,1,0-1.7,1.7A1.7,1.7,0,0,0,1701,1127.38Z"/><path class="cls-5" d="M1791.36,1088.72a1.7,1.7,0,1,0-1.7,1.69A1.7,1.7,0,0,0,1791.36,1088.72Z"/><path class="cls-5" d="M519.25,1207.29a1.7,1.7,0,1,0-1.7,1.7A1.7,1.7,0,0,0,519.25,1207.29Z"/><path class="cls-2" d="M1778.46,392.73a1.7,1.7,0,1,0-1.69,1.7A1.69,1.69,0,0,0,1778.46,392.73Z"/><path class="cls-2" d="M188,86.36a1.7,1.7,0,1,0-1.7,1.7A1.7,1.7,0,0,0,188,86.36Z"/><path class="cls-5" d="M188,194.63a1.7,1.7,0,1,0-1.7,1.69A1.7,1.7,0,0,0,188,194.63Z"/><path class="cls-2" d="M1907.5,980.2a1.7,1.7,0,1,0-1.7,1.7A1.7,1.7,0,0,0,1907.5,980.2Z"/><path class="cls-2" d="M1357.75,926.62a1.7,1.7,0,1,0-1.7,1.7A1.7,1.7,0,0,0,1357.75,926.62Z"/><path class="cls-2" d="M657.25,1004a1.7,1.7,0,1,0-1.69,1.7A1.7,1.7,0,0,0,657.25,1004Z"/><path class="cls-2" d="M425.08,1131a1.7,1.7,0,1,0-1.7,1.7A1.7,1.7,0,0,0,425.08,1131Z"/><path class="cls-2" d="M236.3,1219.59a1.7,1.7,0,1,0-1.7,1.7A1.7,1.7,0,0,0,236.3,1219.59Z"/><path class="cls-2" d="M530.74,977.8a1,1,0,1,0-1,1A1,1,0,0,0,530.74,977.8Z"/><path class="cls-2" d="M556.52,1077.36a1,1,0,1,0-2,0,1,1,0,0,0,2,0Z"/><path class="cls-2" d="M700.24,1036.52a1,1,0,1,0-2,0,1,1,0,0,0,2,0Z"/><path class="cls-2" d="M708.6,963a1,1,0,1,0-1,1A1,1,0,0,0,708.6,963Z"/><path class="cls-2" d="M697,903.75a1,1,0,1,0-1,1A1,1,0,0,0,697,903.75Z"/><path class="cls-2" d="M576.51,978.52a1,1,0,1,0-2,0,1,1,0,0,0,2,0Z"/><path class="cls-2" d="M332.24,868.89a1,1,0,0,0-2,0,1,1,0,1,0,2,0Z"/><path class="cls-2" d="M358,968.44a1,1,0,1,0-1,1A1,1,0,0,0,358,968.44Z"/><path class="cls-2" d="M501.74,927.6a1,1,0,1,0-1,1A1,1,0,0,0,501.74,927.6Z"/><path class="cls-2" d="M378,869.61a1,1,0,1,0-1,1A1,1,0,0,0,378,869.61Z"/><path class="cls-2" d="M544.9,1158.26a1,1,0,1,0-1,1A1,1,0,0,0,544.9,1158.26Z"/><path class="cls-2" d="M714.4,1217a1,1,0,1,0-1,1A1,1,0,0,0,714.4,1217Z"/><path class="cls-2" d="M590.67,1159a1,1,0,1,0-1,1A1,1,0,0,0,590.67,1159Z"/><path class="cls-2" d="M1017.28,1055.78a1,1,0,0,0-2,0,1,1,0,1,0,2,0Z"/><path class="cls-2" d="M1043.06,1155.33a1,1,0,1,0-1,1A1,1,0,0,0,1043.06,1155.33Z"/><path class="cls-2" d="M1186.78,1114.49a1,1,0,0,0-2,0,1,1,0,1,0,2,0Z"/><path class="cls-2" d="M1063.05,1056.49a1,1,0,0,0-2,0,1,1,0,1,0,2,0Z"/><path class="cls-2" d="M849.07,789a1,1,0,0,0-2,0,1,1,0,1,0,2,0Z"/><path class="cls-2" d="M874.85,888.53a1,1,0,0,0-2,0,1,1,0,1,0,2,0Z"/><path class="cls-2" d="M1018.57,847.69a1,1,0,1,0-1,1A1,1,0,0,0,1018.57,847.69Z"/><path class="cls-2" d="M894.84,789.7a1,1,0,1,0-2,0,1,1,0,0,0,2,0Z"/><path class="cls-2" d="M1537.32,167.74a1,1,0,0,0-2,0,1,1,0,1,0,2,0Z"/><path class="cls-2" d="M1563.1,267.29a1,1,0,1,0-1,1A1,1,0,0,0,1563.1,267.29Z"/><path class="cls-2" d="M1706.82,226.45a1,1,0,0,0-2,0,1,1,0,1,0,2,0Z"/><path class="cls-2" d="M1583.09,168.45a1,1,0,1,0-1,1A1,1,0,0,0,1583.09,168.45Z"/><path class="cls-2" d="M1090.72,233.49a1,1,0,1,0-1,1A1,1,0,0,0,1090.72,233.49Z"/><path class="cls-2" d="M1116.5,333a1,1,0,1,0-1,1A1,1,0,0,0,1116.5,333Z"/><path class="cls-2" d="M1260.22,292.2a1,1,0,1,0-1,1A1,1,0,0,0,1260.22,292.2Z"/><path class="cls-2" d="M1136.49,234.2a1,1,0,1,0-1,1A1,1,0,0,0,1136.49,234.2Z"/><path class="cls-2" d="M715.66,194.82a1,1,0,0,0-2,0,1,1,0,1,0,2,0Z"/><path class="cls-2" d="M741.44,294.37a1,1,0,1,0-1,1A1,1,0,0,0,741.44,294.37Z"/><path class="cls-2" d="M885.16,253.53a1,1,0,0,0-2,0,1,1,0,1,0,2,0Z"/><path class="cls-2" d="M812.08,166.53a1,1,0,0,0-2,0,1,1,0,1,0,2,0Z"/><path class="cls-2" d="M425.68,216.07a1,1,0,0,0-2,0,1,1,0,1,0,2,0Z"/><path class="cls-2" d="M451.46,315.63a1,1,0,1,0-2,0,1,1,0,0,0,2,0Z"/><path class="cls-2" d="M595.18,274.78a1,1,0,1,0-1,1A1,1,0,0,0,595.18,274.78Z"/><path class="cls-2" d="M471.45,216.79a1,1,0,1,0-2,0,1,1,0,0,0,2,0Z"/><path class="cls-2" d="M1369.13,981.66a1,1,0,1,0-2,0,1,1,0,0,0,2,0Z"/><path class="cls-2" d="M1394.9,1081.21a1,1,0,1,0-1,1A1,1,0,0,0,1394.9,1081.21Z"/><path class="cls-2" d="M1538.63,1040.37a1,1,0,1,0-2,0,1,1,0,0,0,2,0Z"/><path class="cls-2" d="M1414.9,982.37a1,1,0,1,0-1,1A1,1,0,0,0,1414.9,982.37Z"/><path class="cls-2" d="M1744.19,1186.58a1,1,0,1,0-1,1A1,1,0,0,0,1744.19,1186.58Z"/><path class="cls-2" d="M1790,1187.3a1,1,0,1,0-1,1A1,1,0,0,0,1790,1187.3Z"/><path class="cls-2" d="M836.57,474.57a1,1,0,1,0-1,1A1,1,0,0,0,836.57,474.57Z"/><path class="cls-2" d="M1300.58,819.1a1,1,0,0,0-2,0,1,1,0,1,0,2,0Z"/><path class="cls-2" d="M1095.9,514.51a1,1,0,1,0-1,1A1,1,0,0,0,1095.9,514.51Z"/><path class="cls-2" d="M385.8,1176.35a1.7,1.7,0,1,0-1.7,1.7A1.7,1.7,0,0,0,385.8,1176.35Z"/><path class="cls-2" d="M504.46,688.49a1.7,1.7,0,1,0-1.7,1.7A1.7,1.7,0,0,0,504.46,688.49Z"/><path class="cls-2" d="M411.32,702.26a1.7,1.7,0,1,0-1.7,1.7A1.7,1.7,0,0,0,411.32,702.26Z"/><path class="cls-2" d="M942.88,1128.9a1.7,1.7,0,1,0-1.7,1.7A1.69,1.69,0,0,0,942.88,1128.9Z"/><path class="cls-2" d="M1066,998.06a1.7,1.7,0,1,0-1.7,1.7A1.7,1.7,0,0,0,1066,998.06Z"/><path class="cls-2" d="M1183.12,1051.64a1.7,1.7,0,1,0-1.7,1.69A1.7,1.7,0,0,0,1183.12,1051.64Z"/><path class="cls-2" d="M1206.93,902.81a1.7,1.7,0,1,0-1.69,1.7A1.7,1.7,0,0,0,1206.93,902.81Z"/><path class="cls-2" d="M901.46,980.07a1.7,1.7,0,1,0-1.7,1.7A1.7,1.7,0,0,0,901.46,980.07Z"/><path class="cls-2" d="M633.44,1081.4a1.7,1.7,0,1,0-1.7,1.7A1.7,1.7,0,0,0,633.44,1081.4Z"/><path class="cls-2" d="M750.52,1135a1.7,1.7,0,1,0-1.7,1.7A1.7,1.7,0,0,0,750.52,1135Z"/><path class="cls-2" d="M675.21,1206a1.7,1.7,0,1,0-1.7,1.7A1.7,1.7,0,0,0,675.21,1206Z"/><path class="cls-2" d="M483.76,1178.35a1.7,1.7,0,1,0-1.7,1.7A1.7,1.7,0,0,0,483.76,1178.35Z"/><path class="cls-2" d="M774.33,986.15a1.7,1.7,0,1,0-1.69,1.7A1.69,1.69,0,0,0,774.33,986.15Z"/><path class="cls-2" d="M468.86,1063.42a1.7,1.7,0,1,0-1.7,1.7A1.7,1.7,0,0,0,468.86,1063.42Z"/><path class="cls-2" d="M260.38,875a1.7,1.7,0,1,0-1.7,1.69A1.7,1.7,0,0,0,260.38,875Z"/><path class="cls-2" d="M377.46,928.6a1.7,1.7,0,1,0-1.7,1.7A1.7,1.7,0,0,0,377.46,928.6Z"/><path class="cls-2" d="M401.27,779.77a1.7,1.7,0,1,0-1.7,1.7A1.7,1.7,0,0,0,401.27,779.77Z"/><path class="cls-5" d="M95.8,857a1.7,1.7,0,1,0-1.7,1.7A1.7,1.7,0,0,0,95.8,857Z"/><path class="cls-4" d="M311.84,660.59a1.7,1.7,0,1,0-1.69,1.7A1.7,1.7,0,0,0,311.84,660.59Z"/><path class="cls-2" d="M282.69,674.29A1.7,1.7,0,1,0,281,676,1.7,1.7,0,0,0,282.69,674.29Z"/><path class="cls-2" d="M247.2,653.08a1.7,1.7,0,1,0-1.7,1.7A1.7,1.7,0,0,0,247.2,653.08Z"/><path class="cls-2" d="M50.58,542.24a1.7,1.7,0,1,0-1.7,1.7A1.7,1.7,0,0,0,50.58,542.24Z"/><path class="cls-2" d="M50,421.08a1.7,1.7,0,1,0-1.7,1.7A1.7,1.7,0,0,0,50,421.08Z"/><path class="cls-2" d="M64.76,479.08a1.7,1.7,0,1,0-1.7,1.7A1.7,1.7,0,0,0,64.76,479.08Z"/><path class="cls-2" d="M26.18,357.93a1.7,1.7,0,1,0-1.7,1.7A1.7,1.7,0,0,0,26.18,357.93Z"/><path class="cls-2" d="M216.26,676.28a1.7,1.7,0,1,0-1.7,1.7A1.7,1.7,0,0,0,216.26,676.28Z"/><path class="cls-2" d="M79.86,1119.74a1.7,1.7,0,1,0-1.7,1.7A1.7,1.7,0,0,0,79.86,1119.74Z"/><path class="cls-2" d="M76.39,690.65a1.7,1.7,0,1,0-1.7,1.7A1.7,1.7,0,0,0,76.39,690.65Z"/><path class="cls-2" d="M148.65,635a1.7,1.7,0,1,0-1.69,1.7A1.69,1.69,0,0,0,148.65,635Z"/><path class="cls-2" d="M140.92,583.48a1.7,1.7,0,1,0-1.7,1.7A1.7,1.7,0,0,0,140.92,583.48Z"/><path class="cls-2" d="M96.51,569.3a1.7,1.7,0,1,0-1.7,1.7A1.7,1.7,0,0,0,96.51,569.3Z"/><path class="cls-2" d="M176.31,515.17a1.7,1.7,0,1,0-1.7,1.7A1.7,1.7,0,0,0,176.31,515.17Z"/><path class="cls-2" d="M18,84.07a1.7,1.7,0,1,0-1.7,1.7A1.7,1.7,0,0,0,18,84.07Z"/><path class="cls-2" d="M865.49,531.6a1.7,1.7,0,1,0-1.7,1.7A1.7,1.7,0,0,0,865.49,531.6Z"/><path class="cls-4" d="M1056.94,435.24a1.7,1.7,0,1,0-1.69,1.7A1.69,1.69,0,0,0,1056.94,435.24Z"/><path class="cls-3" d="M1129.54,187.26a1.7,1.7,0,1,0-1.7,1.7A1.7,1.7,0,0,0,1129.54,187.26Z"/><path class="cls-2" d="M824.07,382.77a1.7,1.7,0,1,0-1.7,1.7A1.7,1.7,0,0,0,824.07,382.77Z"/><path class="cls-2" d="M555.93,412.54a1.7,1.7,0,1,0-1.7,1.7A1.7,1.7,0,0,0,555.93,412.54Z"/><path class="cls-2" d="M679.08,163.45a1.7,1.7,0,1,0-1.69,1.7A1.7,1.7,0,0,0,679.08,163.45Z"/><path class="cls-2" d="M796.16,335.27a1.7,1.7,0,1,0-1.7,1.7A1.7,1.7,0,0,0,796.16,335.27Z"/><path class="cls-2" d="M494.77,260a1.7,1.7,0,1,0-1.7,1.7A1.7,1.7,0,0,0,494.77,260Z"/><path class="cls-2" d="M820,68.2a1.7,1.7,0,1,0-1.7,1.7A1.7,1.7,0,0,0,820,68.2Z"/><path class="cls-2" d="M514.5,145.46a1.7,1.7,0,1,0-1.69,1.7A1.69,1.69,0,0,0,514.5,145.46Z"/><path class="cls-2" d="M365.42,386.74a1.7,1.7,0,1,0-1.7,1.7A1.7,1.7,0,0,0,365.42,386.74Z"/><path class="cls-2" d="M250.45,137.65a1.7,1.7,0,1,0-1.69,1.7A1.69,1.69,0,0,0,250.45,137.65Z"/><path class="cls-2" d="M316.53,263.23a1.7,1.7,0,1,0-1.69,1.7A1.7,1.7,0,0,0,316.53,263.23Z"/><path class="cls-2" d="M393.54,72.51a1.7,1.7,0,1,0-1.7,1.7A1.7,1.7,0,0,0,393.54,72.51Z"/><path class="cls-2" d="M85.88,119.67a1.7,1.7,0,1,0-1.7,1.7A1.7,1.7,0,0,0,85.88,119.67Z"/><path class="cls-2" d="M1385.37,526.77a1.7,1.7,0,1,0-1.7,1.7A1.7,1.7,0,0,0,1385.37,526.77Z"/><path class="cls-2" d="M1544.28,390.83a1.7,1.7,0,1,0-1.7,1.7A1.7,1.7,0,0,0,1544.28,390.83Z"/><path class="cls-2" d="M1661.36,444.41a1.7,1.7,0,1,0-1.7,1.7A1.7,1.7,0,0,0,1661.36,444.41Z"/><path class="cls-4" d="M1685.17,177.34a1.7,1.7,0,1,0-1.7,1.7A1.7,1.7,0,0,0,1685.17,177.34Z"/><path class="cls-2" d="M1462,372.11a1.7,1.7,0,1,0-1.7,1.69A1.7,1.7,0,0,0,1462,372.11Z"/><path class="cls-2" d="M1835.86,843.15a1.7,1.7,0,1,0-1.7,1.7A1.7,1.7,0,0,0,1835.86,843.15Z"/><path class="cls-2" d="M1357.62,1150.73a1.7,1.7,0,1,0-1.7,1.7A1.7,1.7,0,0,0,1357.62,1150.73Z"/><path class="cls-4" d="M1480.78,1019.89a1.7,1.7,0,1,0-1.7,1.7A1.7,1.7,0,0,0,1480.78,1019.89Z"/><path class="cls-2" d="M188.55,584.13a1.7,1.7,0,1,0-1.7,1.7A1.7,1.7,0,0,0,188.55,584.13Z"/><path class="cls-2" d="M334.25,718.81a1.7,1.7,0,1,0-1.7,1.7A1.7,1.7,0,0,0,334.25,718.81Z"/><path class="cls-2" d="M96.51,507.44a1.7,1.7,0,1,0-1.7,1.7A1.7,1.7,0,0,0,96.51,507.44Z"/><path class="cls-2" d="M1489.07,1109.39a1.7,1.7,0,1,0-1.7,1.69A1.7,1.7,0,0,0,1489.07,1109.39Z"/><path class="cls-2" d="M1563.82,980.45a1.7,1.7,0,1,0-1.7,1.7A1.7,1.7,0,0,0,1563.82,980.45Z"/><path class="cls-2" d="M1316.2,1001.9a1.7,1.7,0,1,0-1.7,1.7A1.7,1.7,0,0,0,1316.2,1001.9Z"/><path class="cls-2" d="M532.24,553.55a1.7,1.7,0,1,0-1.7,1.7A1.7,1.7,0,0,0,532.24,553.55Z"/><path class="cls-2" d="M441.08,807.43a1.7,1.7,0,1,0-1.7,1.7A1.7,1.7,0,0,0,441.08,807.43Z"/><path class="cls-2" d="M1742.38,316.7a1.7,1.7,0,1,0-1.7,1.7A1.7,1.7,0,0,0,1742.38,316.7Z"/><path class="cls-2" d="M1842.91,234.21a1.7,1.7,0,1,0-1.69,1.7A1.69,1.69,0,0,0,1842.91,234.21Z"/><path class="cls-2" d="M1149.38,115.7a1.7,1.7,0,1,0-1.69,1.7A1.7,1.7,0,0,0,1149.38,115.7Z"/><path class="cls-5" d="M1121.73,513.86a1.7,1.7,0,1,0-1.7,1.71A1.7,1.7,0,0,0,1121.73,513.86Z"/><path class="cls-2" d="M845.9,611.1a1.7,1.7,0,1,0-1.7,1.7A1.7,1.7,0,0,0,845.9,611.1Z"/><path class="cls-2" d="M1776.33,191.1a1.7,1.7,0,1,0-1.7,1.7A1.7,1.7,0,0,0,1776.33,191.1Z"/><path class="cls-2" d="M1758.47,68.07a1.7,1.7,0,1,0-1.7,1.7A1.7,1.7,0,0,0,1758.47,68.07Z"/><path class="cls-2" d="M1796.3,456.06a1.7,1.7,0,1,0-1.7,1.71A1.7,1.7,0,0,0,1796.3,456.06Z"/><path class="cls-2" d="M1412.38,682a1.7,1.7,0,1,0-1.7,1.7A1.7,1.7,0,0,0,1412.38,682Z"/><path class="cls-2" d="M1492.56,845.13a1.7,1.7,0,1,0-1.7,1.7A1.7,1.7,0,0,0,1492.56,845.13Z"/><path class="cls-2" d="M1772.61,1126.92a1.7,1.7,0,1,0-1.7,1.7A1.7,1.7,0,0,0,1772.61,1126.92Z"/><path class="cls-2" d="M1733.62,718.49a1.7,1.7,0,1,0-1.69,1.7A1.69,1.69,0,0,0,1733.62,718.49Z"/><path class="cls-2" d="M1564.46,589.33a1.7,1.7,0,0,0-3.4,0,1.7,1.7,0,1,0,3.4,0Z"/><path class="cls-2" d="M1565.81,737.83a1.7,1.7,0,1,0-1.7,1.7A1.7,1.7,0,0,0,1565.81,737.83Z"/><path class="cls-2" d="M1041.88,897.32a1.7,1.7,0,1,0-1.69,1.71A1.69,1.69,0,0,0,1041.88,897.32Z"/><path class="cls-2" d="M1258.41,762a1.7,1.7,0,1,0-1.69,1.71A1.69,1.69,0,0,0,1258.41,762Z"/><path class="cls-2" d="M348.42,531.33a1.7,1.7,0,1,0-1.69,1.71A1.69,1.69,0,0,0,348.42,531.33Z"/><path class="cls-2" d="M63.64,325.07a1.7,1.7,0,1,0-1.7,1.7A1.7,1.7,0,0,0,63.64,325.07Z"/><path class="cls-2" d="M655.82,417.27a1.7,1.7,0,1,0-1.7,1.7A1.7,1.7,0,0,0,655.82,417.27Z"/><path class="cls-5" d="M535.31,212.88a1.7,1.7,0,1,0-1.69,1.71A1.69,1.69,0,0,0,535.31,212.88Z"/><path class="cls-2" d="M1676.55,293.5a1.7,1.7,0,1,0-1.7,1.7A1.7,1.7,0,0,0,1676.55,293.5Z"/><path class="cls-2" d="M65,791.56A2.47,2.47,0,1,0,62.53,794,2.48,2.48,0,0,0,65,791.56Z"/><path class="cls-2" d="M479.43,664.56A2.47,2.47,0,1,0,477,667,2.46,2.46,0,0,0,479.43,664.56Z"/><path class="cls-2" d="M1594.66,422.46a2.47,2.47,0,1,0-2.47,2.47A2.47,2.47,0,0,0,1594.66,422.46Z"/><path class="cls-3" d="M1888.43,85.93a2.47,2.47,0,1,0-2.47,2.48A2.48,2.48,0,0,0,1888.43,85.93Z"/><path class="cls-4" d="M465.54,147.45a2.47,2.47,0,1,0-2.47,2.47A2.48,2.48,0,0,0,465.54,147.45Z"/><path class="cls-4" d="M320.57,33.84a2.47,2.47,0,1,0-2.47,2.47A2.48,2.48,0,0,0,320.57,33.84Z"/><path class="cls-2" d="M909.46,459.75a4.39,4.39,0,1,0-4.39,4.39A4.39,4.39,0,0,0,909.46,459.75Z"/><path class="cls-6" d="M1344.94,1079.69a1.93,1.93,0,1,0-1.92,1.92A1.92,1.92,0,0,0,1344.94,1079.69Z"/><path class="cls-6" d="M344.78,908.11a1.92,1.92,0,1,0-1.92,1.93A1.92,1.92,0,0,0,344.78,908.11Z"/><path class="cls-6" d="M1102.63,685.1a1.92,1.92,0,1,0-1.92,1.92A1.92,1.92,0,0,0,1102.63,685.1Z"/><path class="cls-6" d="M449.48,514.1a5.11,5.11,0,1,0-5.1,5.1A5.1,5.1,0,0,0,449.48,514.1Z"/><path class="cls-6" d="M1437.41,594.61a5.11,5.11,0,1,0-5.11,5.1A5.11,5.11,0,0,0,1437.41,594.61Z"/><path class="cls-2" d="M1430.48,49.6a4.39,4.39,0,1,0-4.39,4.4A4.39,4.39,0,0,0,1430.48,49.6Z"/><path class="cls-2" d="M271.63,27.37a4.4,4.4,0,1,0-4.4,4.39A4.39,4.39,0,0,0,271.63,27.37Z"/><path class="cls-2" d="M850.17,23.51A2.47,2.47,0,1,0,847.7,26,2.48,2.48,0,0,0,850.17,23.51Z"/><path class="cls-2" d="M1753.19,22.55a2.55,2.55,0,1,0-2.55,2.54A2.55,2.55,0,0,0,1753.19,22.55Z"/><path class="cls-2" d="M547.77,24.63a1.7,1.7,0,1,0-1.7,1.7A1.7,1.7,0,0,0,547.77,24.63Z"/><path class="cls-2" d="M1176.46,37.2a1.7,1.7,0,1,0-1.7,1.7A1.7,1.7,0,0,0,1176.46,37.2Z"/><path class="cls-2" d="M696.47,36.41a1.7,1.7,0,1,0-1.7,1.7A1.7,1.7,0,0,0,696.47,36.41Z"/><path class="cls-2" d="M1842.81,31a1.7,1.7,0,1,0-1.7,1.7A1.7,1.7,0,0,0,1842.81,31Z"/><path class="cls-2" d="M1903.47,43.75a1.7,1.7,0,1,0-1.7,1.7A1.7,1.7,0,0,0,1903.47,43.75Z"/><path class="cls-2" d="M610.21,31.17a2.55,2.55,0,1,0-2.54,2.54A2.54,2.54,0,0,0,610.21,31.17Z"/><path class="cls-2" d="M934.32,36.24a1.7,1.7,0,1,0-1.7,1.7A1.7,1.7,0,0,0,934.32,36.24Z"/><path class="cls-2" d="M742.7,36.57a1,1,0,1,0-1,1A1,1,0,0,0,742.7,36.57Z"/><path class="cls-2" d="M1581.09,40.42a1,1,0,1,0-2,0,1,1,0,0,0,2,0Z"/><path class="cls-2" d="M819.63,40.61a1.7,1.7,0,1,0-1.7,1.7A1.7,1.7,0,0,0,819.63,40.61Z"/><path class="cls-2" d="M1784,32.67a1.7,1.7,0,1,0-1.7,1.71A1.7,1.7,0,0,0,1784,32.67Z"/><path class="cls-6" d="M1531.12,38.9a1.92,1.92,0,1,0-1.92,1.93A1.92,1.92,0,0,0,1531.12,38.9Z"/><path class="cls-6" d="M1349.36,17.93a5.11,5.11,0,1,0-5.11,5.1A5.11,5.11,0,0,0,1349.36,17.93Z"/><path class="cls-7" d="M636.49,102.71a5.11,5.11,0,1,0-5.11,5.11A5.1,5.1,0,0,0,636.49,102.71Z"/><path class="cls-7" d="M47.66,890.3a5.11,5.11,0,1,0-5.1,5.11A5.1,5.1,0,0,0,47.66,890.3Z"/><path class="cls-7" d="M1897.36,771.34a5.11,5.11,0,1,0-5.11,5.11A5.1,5.1,0,0,0,1897.36,771.34Z"/><path class="cls-6" d="M1318,238.07a1.92,1.92,0,1,0-1.92,1.92A1.92,1.92,0,0,0,1318,238.07Z"/><path class="cls-6" d="M623.33,243.55a1.92,1.92,0,1,0-1.92,1.93A1.92,1.92,0,0,0,623.33,243.55Z"/><path class="cls-6" d="M1843.73,997.21a1.93,1.93,0,1,0-1.93,1.92A1.92,1.92,0,0,0,1843.73,997.21Z"/><path class="cls-2" d="M341.45,146.89a4.39,4.39,0,1,0-4.39,4.39A4.38,4.38,0,0,0,341.45,146.89Z"/><path class="cls-2" d="M559.66,365.39a4.4,4.4,0,1,0-4.39,4.39A4.39,4.39,0,0,0,559.66,365.39Z"/><path class="cls-2" d="M1905.17,422.22a4.39,4.39,0,1,0-4.39,4.4A4.39,4.39,0,0,0,1905.17,422.22Z"/><path class="cls-2" d="M1626.35,76A4.39,4.39,0,1,0,1622,80.4,4.38,4.38,0,0,0,1626.35,76Z"/><path class="cls-2" d="M480.21,316.78A7.19,7.19,0,1,0,473,324,7.17,7.17,0,0,0,480.21,316.78Z"/><path class="cls-8" d="M444.14,438c108.48-68.43-190.65-36.22-302.41-72.45s-233.39-189.15,0-76.46S766.28,281,825.45,321.27s-244,163.05-381.31,209.29C312.66,574.82,335.67,506.41,444.14,438ZM1899,870.12c28.91,17.7,27.49-213.67-127.23-293.32C1671,524.93,1712,413.21,1810.44,318.5S1974,68.28,1842.09,217.33c-205.7,232.48-566.12,258.3-560.85,297s212.74-8.61,223.29,66.72S1051.33,764,1054.44,785.6c5.28,36.59,342.88-71.61,471.18-94.71,119.56-21.53,216.25-32.29,309.43,47.35C1880.64,777.21,1884.92,861.51,1899,870.12ZM136.7,1223.05H1401.15c254.85-58.61,551.57-169.79,437.42-340.6C1648.69,598.32,954.82,1069,828.23,885.32s375.07-189.42,384.44-264c12.88-102.48-173.46,2.87-232.07-71.75S1787,374.46,1901.86,44.4c5.57-16,9.33-29.17,11.48-43.41H42.23C70.87,99,354.71,245.47,636,199.38c630.58-103.32,627,139.28,354,272.67C514.12,704.52,157.8,780.29,469.57,880.75,708.41,957.7,654.77,1105.88,136.7,1223.05Z"/></g></g></svg>