<svg xmlns="http://www.w3.org/2000/svg" viewBox="0 0 1918 1445.08">
<defs>
<style>.cls-01{fill:url('#cls-01');}.cls-02{fill:url('#cls-02');}.cls-03{fill:url('#cls-03');}.cls-04{fill:url('#cls-04');}.cls-05{fill:url('#cls-05');}.cls-06{fill:url('#cls-06');}.cls-07{fill:url('#cls-07');}.cls-08{fill:url('#cls-08');}.cls-09{fill:url('#cls-09');}.cls-10{fill:url('#cls-10');}.cls-11{fill:url('#cls-11');}.cls-12{fill:url('#cls-12');}.blinking1{-webkit-animation:blinking1 5s linear infinite;animation:blinking1 5s linear infinite;}.blinking2{-webkit-animation:blinking2 5s linear infinite;animation:blinking2 5s linear infinite;}.blinking3{-webkit-animation:blinking3 5s linear infinite;animation:blinking3 5s linear infinite;}.blinking4{-webkit-animation:blinking4 5s linear infinite;animation:blinking4 5s linear infinite;}.blinking5{-webkit-animation:blinking5 5s linear infinite;animation:blinking5 5s linear infinite;}@-webkit-keyframes blinking1{0%{opacity:0;}20%{opacity:0;}50%{opacity:1;}80%{opacity:0;}100%{opacity:0;}}@-webkit-keyframes blinking2{0%{opacity:0;}40%{opacity:0;}70%{opacity:1;}100%{opacity:0;}}@-webkit-keyframes blinking3{0%{opacity:0.6667;}20%{opacity:0;}60%{opacity:0;}90%{opacity:1;}100%{opacity:0.6667;}}@-webkit-keyframes blinking4{0%{opacity:0.6667;}10%{opacity:1;}40%{opacity:0;}80%{opacity:0;}100%{opacity:0.6667;}}@-webkit-keyframes blinking5{0%{opacity:0;}30%{opacity:1;}60%{opacity:0;}100%{opacity:0;}}@keyframes blinking1{0%{opacity:0;}20%{opacity:0;}50%{opacity:1;}80%{opacity:0;}100%{opacity:0;}}@keyframes blinking2{0%{opacity:0;}40%{opacity:0;}70%{opacity:1;}100%{opacity:0;}}@keyframes blinking3{0%{opacity:0.6667;}20%{opacity:0;}60%{opacity:0;}90%{opacity:1;}100%{opacity:0.6667;}}@keyframes blinking4{0%{opacity:0.6667;}10%{opacity:1;}40%{opacity:0;}80%{opacity:0;}100%{opacity:0.6667;}}@keyframes blinking5{0%{opacity:0;}30%{opacity:1;}60%{opacity:0;}100%{opacity:0;}}</style>
<radialGradient id="cls-01"><stop offset="25%" stop-color="#c6e6f3"/><stop offset="95%" stop-color="rgba(198,230,243,0.1)"/></radialGradient>
<radialGradient id="cls-02"><stop offset="25%" stop-color="#68cdf3"/><stop offset="95%" stop-color="rgba(104,205,243,0.1)"/></radialGradient>
<radialGradient id="cls-03"><stop offset="25%" stop-color="#ffffff"/><stop offset="95%" stop-color="rgba(255,255,255,0.1)"/></radialGradient>
<radialGradient id="cls-04"><stop offset="25%" stop-color="#ffe779"/><stop offset="95%" stop-color="rgba(255,231,121,0.1)"/></radialGradient>
<radialGradient id="cls-05"><stop offset="25%" stop-color="#dd503f"/><stop offset="95%" stop-color="rgba(221,80,63,0.1)"/></radialGradient>
<radialGradient id="cls-06"><stop offset="25%" stop-color="#51c3d4"/><stop offset="95%" stop-color="rgba(81,195,212,0.1)"/></radialGradient>
<radialGradient id="cls-07"><stop offset="0%" stop-color="#c6e6f3"/><stop offset="70%" stop-color="rgba(198,230,243,0.1)"/></radialGradient>
<radialGradient id="cls-08"><stop offset="0%" stop-color="#68cdf3"/><stop offset="70%" stop-color="rgba(104,205,243,0.1)"/></radialGradient>
<radialGradient id="cls-09"><stop offset="0%" stop-color="#ffffff"/><stop offset="70%" stop-color="rgba(255,255,255,0.1)"/></radialGradient>
<radialGradient id="cls-10"><stop offset="0%" stop-color="#ffe779"/><stop offset="70%" stop-color="rgba(255,231,121,0.1)"/></radialGradient>
<radialGradient id="cls-11"><stop offset="0%" stop-color="#dd503f"/><stop offset="70%" stop-color="rgba(221,80,63,0.1)"/></radialGradient>
<radialGradient id="cls-12"><stop offset="0%" stop-color="#51c3d4"/><stop offset="70%" stop-color="rgba(81,195,212,0.1)"/></radialGradient>
</defs>
<title>stars</title>
<circle class="cls-10" cx="1396" cy="467.3" r="1"/>
<circle class="cls-08" cx="1369.9" cy="366.43" r="1"/>
<circle class="cls-12" cx="1224.28" cy="407.81" r="1"/>
<circle class="cls-11" cx="1215.8" cy="482.26" r="1"/>
<circle class="cls-10" cx="1227.55" cy="542.34" r="1"/>
<circle class="cls-10" cx="1349.65" cy="466.58" r="1"/>
<circle class="cls-10" cx="1597.15" cy="577.66" r="1"/>
<circle class="cls-09" cx="1571" cy="476.79" r="1"/>
<circle class="cls-07" cx="1425.41" cy="518.17" r="1"/>
<circle class="cls-07" cx="1550.78" cy="576.93" r="1"/>
<circle class="cls-10" cx="1381.67" cy="284.46" r="1"/>
<circle class="cls-11" cx="1355.55" cy="183.58" r="1"/>
<circle class="cls-10" cx="1209.92" cy="225" r="1"/>
<circle class="cls-09" cx="1335.3" cy="283.73" r="1"/>
<circle class="cls-07" cx="903" cy="388.29" r="1"/>
<circle class="cls-07" cx="876.91" cy="287.42" r="1"/>
<circle class="cls-08" cx="731.28" cy="328.8" r="1"/>
<circle class="cls-07" cx="856.65" cy="387.57" r="1"/>
<circle class="cls-11" cx="1073.47" cy="658.63" r="1"/>
<circle class="cls-10" cx="1047.35" cy="557.75" r="1"/>
<circle class="cls-09" cx="901.72" cy="599.14" r="1"/>
<circle class="cls-08" cx="1027.09" cy="657.9" r="1"/>
<circle class="cls-09" cx="376.09" cy="1288.11" r="1"/>
<circle class="cls-12" cx="350" cy="1187.24" r="1"/>
<circle class="cls-07" cx="204.34" cy="1228.62" r="1"/>
<circle class="cls-11" cx="329.71" cy="1287.39" r="1"/>
<circle class="cls-08" cx="828.61" cy="1221.49" r="1"/>
<circle class="cls-09" cx="802.49" cy="1120.62" r="1"/>
<circle class="cls-11" cx="656.86" cy="1162" r="1"/>
<circle class="cls-12" cx="782.24" cy="1220.77" r="1"/>
<circle class="cls-08" cx="1208.65" cy="1260.67" r="1"/>
<circle class="cls-12" cx="1182.53" cy="1159.8" r="1"/>
<circle class="cls-10" cx="1036.9" cy="1201.18" r="1"/>
<circle class="cls-09" cx="1111" cy="1289.33" r="1"/>
<circle class="cls-09" cx="1502.47" cy="1239.14" r="1"/>
<circle class="cls-10" cx="1476.35" cy="1138.26" r="1"/>
<circle class="cls-12" cx="1330.73" cy="1179.65" r="1"/>
<circle class="cls-08" cx="1456.1" cy="1238.41" r="1"/>
<circle class="cls-08" cx="546.51" cy="463.4" r="1"/>
<circle class="cls-10" cx="520.39" cy="362.53" r="1"/>
<circle class="cls-10" cx="374.77" cy="403.91" r="1"/>
<circle class="cls-11" cx="500.14" cy="462.68" r="1"/>
<circle class="cls-12" cx="166.48" cy="255.75" r="1"/>
<circle class="cls-08" cx="140.36" cy="154.88" r="1"/>
<circle class="cls-09" cx="23.47" cy="196.26" r="1"/>
<circle class="cls-10" cx="120.1" cy="255" r="1"/>
<circle class="cls-07" cx="1086.13" cy="977.21" r="1"/>
<circle class="cls-07" cx="616" cy="628.11" r="1"/>
<circle class="cls-09" cx="823.36" cy="936.74" r="1"/>
<circle class="cls-09" cx="1369.9" cy="140.89" r="1"/>
<circle class="cls-09" cx="1381.67" cy="58.92" r="1"/>
<circle class="cls-07" cx="1335.3" cy="58.2" r="1"/>
<circle class="cls-07" cx="876.91" cy="61.88" r="1"/>
<circle class="cls-07" cx="731.28" cy="103.26" r="1"/>
<circle class="cls-11" cx="520.39" cy="137" r="1"/>
<circle class="cls-10" cx="1181.25" cy="1421" r="1"/>
<circle class="cls-12" cx="331.74" cy="1417.12" r="1"/>
<circle class="cls-10" cx="1765.16" cy="100.09" r="1"/>
<circle class="cls-12" cx="1910.78" cy="58.71" r="1"/>
<circle class="cls-12" cx="1489.34" cy="2.8" r="1"/>
<circle class="cls-12" cx="259.8" cy="16.79" r="1"/>
<circle class="cls-10" cx="898.43" cy="54.42" r="1"/>
<circle class="cls-12" cx="1109.31" cy="20.69" r="1"/>
<circle class="cls-11" cx="1175.06" cy="650.99" r="1.72"/>
<circle class="cls-10" cx="1457.72" cy="471" r="1.72"/>
<circle class="cls-07" cx="1475.78" cy="595.7" r="1.72"/>
<circle class="cls-11" cx="1355.14" cy="575.59" r="1.72"/>
<circle class="cls-11" cx="1350.99" cy="728.28" r="1.72"/>
<circle class="cls-08" cx="1232.36" cy="674" r="1.72"/>
<circle class="cls-07" cx="1373.83" cy="396.66" r="1.72"/>
<circle class="cls-09" cx="1431.13" cy="419.65" r="1.72"/>
<circle class="cls-11" cx="1322.55" cy="401.55" r="1.72"/>
<circle class="cls-09" cx="1119.17" cy="343.76" r="1.72"/>
<circle class="cls-09" cx="1176.47" cy="366.76" r="1.72"/>
<circle class="cls-11" cx="1067.89" cy="348.66" r="1.72"/>
<circle class="cls-09" cx="210.23" cy="420.17" r="1.73"/>
<circle class="cls-07" cx="267.52" cy="443.16" r="1.72"/>
<circle class="cls-09" cx="158.94" cy="425.06" r="1.72"/>
<circle class="cls-07" cx="1052.57" cy="418.2" r="1.72"/>
<circle class="cls-11" cx="1109.87" cy="441.2" r="1.72"/>
<circle class="cls-08" cx="1001.29" cy="423.1" r="1.72"/>
<circle class="cls-08" cx="1157.72" cy="572.36" r="1.72"/>
<circle class="cls-12" cx="1215.05" cy="595.35" r="1.72"/>
<circle class="cls-12" cx="1318.72" cy="858" r="1.72"/>
<circle class="cls-07" cx="1238.29" cy="782" r="1.72"/>
<circle class="cls-11" cx="860.87" cy="719.94" r="1.73"/>
<circle class="cls-09" cx="1025.63" cy="709.58" r="1.72"/>
<circle class="cls-10" cx="754.81" cy="815.87" r="1.72"/>
<circle class="cls-11" cx="812.11" cy="838.86" r="1.72"/>
<circle class="cls-07" cx="703.53" cy="820.77" r="1.72"/>
<circle class="cls-07" cx="635.32" cy="1292.22" r="1.73"/>
<circle class="cls-12" cx="692.61" cy="1315.2" r="1.72"/>
<circle class="cls-09" cx="584.03" cy="1297.11" r="1.72"/>
<circle class="cls-11" cx="1045.22" cy="1311.29" r="1.72"/>
<circle class="cls-11" cx="899.39" cy="1331.12" r="1.72"/>
<circle class="cls-10" cx="581.06" cy="844.65" r="1.72"/>
<circle class="cls-07" cx="638.36" cy="867.65" r="1.72"/>
<circle class="cls-12" cx="529.78" cy="849.55" r="1.72"/>
<circle class="cls-09" cx="1009.17" cy="642.07" r="1.72"/>
<circle class="cls-10" cx="709.73" cy="740.48" r="1.73"/>
<circle class="cls-12" cx="1208.23" cy="824.79" r="1.72"/>
<circle class="cls-09" cx="959.9" cy="948" r="1.72"/>
<circle class="cls-12" cx="1568.15" cy="153" r="1.72"/>
<circle class="cls-09" cx="769.89" cy="284" r="1.72"/>
<circle class="cls-07" cx="210.93" cy="315.74" r="1.72"/>
<circle class="cls-07" cx="119.4" cy="354.92" r="1.72"/>
<circle class="cls-12" cx="1408.38" cy="234.77" r="1.72"/>
<circle class="cls-11" cx="931.11" cy="140.25" r="1.72"/>
<circle class="cls-08" cx="132.47" cy="1060.13" r="1.72"/>
<circle class="cls-11" cx="1744.07" cy="1370.57" r="1.72"/>
<circle class="cls-09" cx="1744.07" cy="1260.87" r="1.72"/>
<circle class="cls-08" cx="40" cy="150.97" r="1.72"/>
<circle class="cls-07" cx="1.72" cy="464.87" r="1.72"/>
<circle class="cls-11" cx="558.73" cy="519.17" r="1.73"/>
<circle class="cls-08" cx="1268.55" cy="440.75" r="1.72"/>
<circle class="cls-08" cx="1503.8" cy="312.06" r="1.72"/>
<circle class="cls-11" cx="1695.09" cy="222.31" r="1.72"/>
<circle class="cls-12" cx="1654.01" cy="196.9" r="1.73"/>
<circle class="cls-09" cx="1543.61" cy="266.12" r="1.73"/>
<circle class="cls-08" cx="1783.29" cy="124.84" r="1.72"/>
<circle class="cls-10" cx="1423.38" cy="760.45" r="1.72"/>
<circle class="cls-11" cx="1517.72" cy="746.5" r="1.72"/>
<circle class="cls-10" cx="979.13" cy="314.2" r="1.72"/>
<circle class="cls-10" cx="854.34" cy="446.78" r="1.72"/>
<circle class="cls-10" cx="735.72" cy="392.49" r="1.72"/>
<circle class="cls-08" cx="711.58" cy="543.29" r="1.72"/>
<circle class="cls-09" cx="1021.1" cy="465" r="1.72"/>
<circle class="cls-11" cx="1417.47" cy="141.05" r="1.72"/>
<circle class="cls-08" cx="1292.72" cy="362.33" r="1.72"/>
<circle class="cls-08" cx="1174.05" cy="308" r="1.72"/>
<circle class="cls-12" cx="1250.36" cy="236.07" r="1.72"/>
<circle class="cls-10" cx="1444.34" cy="264.09" r="1.72"/>
<circle class="cls-10" cx="1136.14" cy="125.66" r="1.72"/>
<circle class="cls-10" cx="1149.92" cy="458.84" r="1.72"/>
<circle class="cls-08" cx="1459.44" cy="380.55" r="1.72"/>
<circle class="cls-09" cx="1670.72" cy="571.44" r="1.72"/>
<circle class="cls-09" cx="1552.06" cy="517.15" r="1.72"/>
<circle class="cls-07" cx="1527.93" cy="668" r="1.72"/>
<circle class="cls-12" cx="1837.46" cy="589.66" r="1.72"/>
<circle class="cls-12" cx="1618.54" cy="788.72" r="1.72"/>
<circle class="cls-10" cx="1648.08" cy="774.84" r="1.72"/>
<circle class="cls-12" cx="1684.05" cy="796.33" r="1.72"/>
<circle class="cls-12" cx="1883.27" cy="908.64" r="1.72"/>
<circle class="cls-11" cx="1883.89" cy="1031.4" r="1.72"/>
<circle class="cls-08" cx="1868.9" cy="972.63" r="1.72"/>
<circle class="cls-11" cx="1907.99" cy="1095.39" r="1.72"/>
<circle class="cls-07" cx="1715.39" cy="772.82" r="1.72"/>
<circle class="cls-07" cx="1853.61" cy="323.48" r="1.72"/>
<circle class="cls-12" cx="1857.13" cy="758.27" r="1.73"/>
<circle class="cls-10" cx="1783.9" cy="814.62" r="1.72"/>
<circle class="cls-08" cx="1791.72" cy="866.85" r="1.72"/>
<circle class="cls-10" cx="1836.72" cy="881.22" r="1.72"/>
<circle class="cls-08" cx="1755.88" cy="936.07" r="1.73"/>
<circle class="cls-12" cx="1916.28" cy="1372.89" r="1.72"/>
<circle class="cls-08" cx="1057.55" cy="919.42" r="1.72"/>
<circle class="cls-09" cx="863.56" cy="1017.06" r="1.72"/>
<circle class="cls-12" cx="790" cy="1268.33" r="1.72"/>
<circle class="cls-07" cx="1099.52" cy="1070.22" r="1.72"/>
<circle class="cls-07" cx="1371.22" cy="1040.07" r="1.72"/>
<circle class="cls-09" cx="1246.43" cy="1292.46" r="1.72"/>
<circle class="cls-11" cx="1127.8" cy="1118.36" r="1.72"/>
<circle class="cls-09" cx="1433.19" cy="1194.64" r="1.72"/>
<circle class="cls-08" cx="1103.72" cy="1388.99" r="1.72"/>
<circle class="cls-09" cx="1413.2" cy="1310.69" r="1.73"/>
<circle class="cls-10" cx="1564.25" cy="1066.21" r="1.72"/>
<circle class="cls-07" cx="1680.72" cy="1318.6" r="1.72"/>
<circle class="cls-08" cx="1562.12" cy="1264.32" r="1.73"/>
<circle class="cls-08" cx="1535.72" cy="1384.6" r="1.72"/>
<circle class="cls-12" cx="1847.51" cy="1336.82" r="1.72"/>
<circle class="cls-09" cx="530.78" cy="924.32" r="1.72"/>
<circle class="cls-11" cx="369.72" cy="1062.05" r="1.72"/>
<circle class="cls-07" cx="251.13" cy="1007.77" r="1.72"/>
<circle class="cls-08" cx="227" cy="1278.38" r="1.72"/>
<circle class="cls-07" cx="453.13" cy="1081" r="1.72"/>
<circle class="cls-10" cx="74.31" cy="603.72" r="1.72"/>
<circle class="cls-11" cx="558.89" cy="292.08" r="1.72"/>
<circle class="cls-12" cx="434.1" cy="424.66" r="1.72"/>
<circle class="cls-11" cx="1743.47" cy="866.2" r="1.72"/>
<circle class="cls-08" cx="1595.84" cy="729.73" r="1.72"/>
<circle class="cls-12" cx="1836.72" cy="943.91" r="1.72"/>
<circle class="cls-08" cx="425.72" cy="334" r="1.72"/>
<circle class="cls-07" cx="173" cy="133.61" r="1.72"/>
<circle class="cls-12" cx="349.96" cy="464.62" r="1.72"/>
<circle class="cls-11" cx="600.87" cy="442.89" r="1.73"/>
<circle class="cls-10" cx="1395.23" cy="897.18" r="1.72"/>
<circle class="cls-10" cx="1487.59" cy="639.93" r="1.72"/>
<circle class="cls-10" cx="169.03" cy="1137.17" r="1.72"/>
<circle class="cls-11" cx="67.16" cy="1220.75" r="1.72"/>
<circle class="cls-11" cx="769.89" cy="1340.84" r="1.72"/>
<circle class="cls-12" cx="797.92" cy="937.39" r="1.72"/>
<circle class="cls-08" cx="1077.4" cy="838.86" r="1.72"/>
<circle class="cls-11" cx="134.63" cy="1264.43" r="1.72"/>
<circle class="cls-12" cx="152.72" cy="1389.1" r="1.72"/>
<circle class="cls-09" cx="114.4" cy="996" r="1.72"/>
<circle class="cls-11" cx="503.41" cy="766.99" r="1.72"/>
<circle class="cls-07" cx="422.17" cy="601.74" r="1.73"/>
<circle class="cls-08" cx="138.4" cy="316.2" r="1.72"/>
<circle class="cls-10" cx="177.9" cy="730.05" r="1.72"/>
<circle class="cls-12" cx="349.31" cy="860.92" r="1.72"/>
<circle class="cls-10" cx="347.95" cy="710.46" r="1.72"/>
<circle class="cls-11" cx="878.82" cy="548.84" r="1.72"/>
<circle class="cls-08" cx="659.42" cy="685.99" r="1.72"/>
<circle class="cls-08" cx="1581.48" cy="919.69" r="1.72"/>
<circle class="cls-08" cx="1870.04" cy="1128.72" r="1.72"/>
<circle class="cls-12" cx="1270.01" cy="1035.27" r="1.72"/>
<circle class="cls-11" cx="1392.11" cy="1242.36" r="1.72"/>
<circle class="cls-09" cx="235.73" cy="1160.69" r="1.73"/>
<circle class="cls-10" cx="1119.17" cy="118.23" r="1.72"/>
<circle class="cls-08" cx="1176.47" cy="141.22" r="1.72"/>
<circle class="cls-12" cx="1067.89" cy="123.13" r="1.72"/>
<circle class="cls-08" cx="769.89" cy="58.5" r="1.72"/>
<circle class="cls-12" cx="119.4" cy="129.38" r="1.72"/>
<circle class="cls-07" cx="1503.8" cy="86.52" r="1.72"/>
<circle class="cls-08" cx="979.13" cy="88.66" r="1.72"/>
<circle class="cls-12" cx="1292.72" cy="136.79" r="1.72"/>
<circle class="cls-08" cx="1174.05" cy="82.5" r="1.72"/>
<circle class="cls-10" cx="558.89" cy="66.54" r="1.72"/>
<circle class="cls-11" cx="138.4" cy="90.72" r="1.72"/>
<circle class="cls-07" cx="1379.49" cy="1433.12" r="1.72"/>
<circle class="cls-08" cx="742.46" cy="1420.38" r="1.72"/>
<circle class="cls-10" cx="1228.82" cy="1421.18" r="1.72"/>
<circle class="cls-09" cx="67.27" cy="1426.69" r="1.72"/>
<circle class="cls-07" cx="5.8" cy="1413.72" r="1.72"/>
<circle class="cls-12" cx="987.81" cy="1421.35" r="1.72"/>
<circle class="cls-11" cx="1104.02" cy="1416.92" r="1.72"/>
<circle class="cls-12" cx="126.82" cy="1424.99" r="1.72"/>
<circle class="cls-10" cx="61.56" cy="4.69" r="1.72"/>
<circle class="cls-07" cx="1712.28" cy="48.91" r="1.72"/>
<circle class="cls-09" cx="698.59" cy="17.43" r="1.72"/>
<circle class="cls-11" cx="1059.04" cy="28.58" r="1.72"/>
<circle class="cls-12" cx="1466.7" cy="86.79" r="1.72"/>
<circle class="cls-07" cx="1577.09" cy="17.57" r="1.73"/>
<circle class="cls-07" cx="212.28" cy="16.63" r="1.72"/>
<circle class="cls-10" cx="1870.35" cy="47.61" r="1.72"/>
<circle class="cls-11" cx="1692.74" cy="81.57" r="1.72"/>
<circle class="cls-11" cx="1676.36" cy="19.59" r="1.72"/>
<circle class="cls-11" cx="493.57" cy="32" r="1.72"/>
<circle class="cls-08" cx="1373.78" cy="11.12" r="1.72"/>
<circle class="cls-12" cx="1456.7" cy="24.06" r="1.73"/>
<circle class="cls-10" cx="1211.81" cy="28.69" r="1.73"/>
<circle class="cls-08" cx="510.54" cy="39.45" r="1.72"/>
<circle class="cls-11" cx="453.28" cy="16.46" r="1.72"/>
<circle class="cls-12" cx="561.81" cy="34.54" r="1.73"/>
<circle class="cls-12" cx="1418.78" cy="67.48" r="1.72"/>
<circle class="cls-07" cx="1510.28" cy="28.28" r="1.72"/>
<circle class="cls-10" cx="125.9" cy="71.16" r="1.72"/>
<circle class="cls-08" cx="650.57" cy="69" r="1.72"/>
<circle class="cls-07" cx="337.03" cy="20.89" r="1.72"/>
<circle class="cls-09" cx="455.66" cy="75.18" r="1.72"/>
<circle class="cls-09" cx="1204" cy="49.28" r="1.72"/>
<circle class="cls-10" cx="1314.27" cy="12.84" r="1.73"/>
<circle class="cls-09" cx="1491.27" cy="66.99" r="1.73"/>
<circle class="cls-10" cx="1585.4" cy="537.92" r="1.95"/>
<circle class="cls-12" cx="383.32" cy="1418.61" r="1.95"/>
<circle class="cls-08" cx="599.24" cy="1216.85" r="1.95"/>
<circle class="cls-12" cx="66.57" cy="447.64" r="1.95"/>
<circle class="cls-09 blinking5" cx="572" cy="364.11" r="2"/>
<circle class="cls-09 blinking5" cx="817.54" cy="763.94" r="2"/>
<circle class="cls-08 blinking3" cx="1303.2" cy="1250.81" r="2"/>
<circle class="cls-11 blinking1" cx="1262.51" cy="154.13" r="2.51"/>
<circle class="cls-09 blinking4" cx="844.29" cy="672.11" r="2.51"/>
<circle class="cls-07 blinking4" cx="787.95" cy="634.16" r="2.51"/>
<circle class="cls-10 blinking3" cx="432.56" cy="947.5" r="2.5"/>
<circle class="cls-10 blinking3" cx="770.08" cy="1181.58" r="2.51"/>
<circle class="cls-09 blinking2" cx="33.97" cy="1296.61" r="2.51"/>
<circle class="cls-07 blinking3" cx="1180.08" cy="501.2" r="2.51"/>
<circle class="cls-08 blinking1" cx="1395.42" cy="646.14" r="2.58"/>
<circle class="cls-09 blinking3" cx="1311.14" cy="659.45" r="2.58"/>
<circle class="cls-07 blinking3" cx="1287.64" cy="714.3" r="2.58"/>
<circle class="cls-07 blinking1" cx="1622.66" cy="512" r="2.58"/>
<circle class="cls-12 blinking2" cx="1514.87" cy="580.2" r="2.58"/>
<circle class="cls-07 blinking3" cx="1797.75" cy="173.34" r="2.58"/>
<circle class="cls-11 blinking4" cx="1226.06" cy="749.07" r="2.58"/>
<circle class="cls-10 blinking3" cx="1154.06" cy="821.15" r="2.58"/>
<circle class="cls-08 blinking1" cx="1146.64" cy="867.5" r="2.58"/>
<circle class="cls-12 blinking4" cx="1350.51" cy="950.66" r="2.58"/>
<circle class="cls-09 blinking5" cx="477.92" cy="669.38" r="2.58"/>
<circle class="cls-07 blinking4" cx="258.58" cy="1095.63" r="2.58"/>
<circle class="cls-09 blinking4" cx="451.82" cy="1294.14" r="2.58"/>
<circle class="cls-08 blinking4" cx="750.93" cy="900.8" r="2.58"/>
<circle class="cls-08 blinking4" cx="635.31" cy="994" r="2.58"/>
<circle class="cls-08 blinking3" cx="564.13" cy="1071.89" r="2.58"/>
<circle class="cls-12 blinking5" cx="548.74" cy="1132.62" r="2.58"/>
<circle class="cls-08 blinking5" cx="523.65" cy="1261.16" r="2.58"/>
<circle class="cls-12 blinking4" cx="336.65" cy="1120.86" r="2.58"/>
<circle class="cls-11 blinking2" cx="863.58" cy="1101.45" r="2.58"/>
<circle class="cls-07 blinking4" cx="1063.01" cy="1221" r="2.58"/>
<circle class="cls-09 blinking3" cx="1738.19" cy="1326.87" r="2.58"/>
<circle class="cls-08 blinking2" cx="1834.18" cy="1382.62" r="2.58"/>
<circle class="cls-08 blinking4" cx="1554.1" cy="436.54" r="2.58"/>
<circle class="cls-09 blinking1" cx="1446.31" cy="504.7" r="2.58"/>
<circle class="cls-09 blinking2" cx="1259.31" cy="484.21" r="2.58"/>
<circle class="cls-10 blinking2" cx="1250.46" cy="344.47" r="2.58"/>
<circle class="cls-11 blinking1" cx="1142.67" cy="412.63" r="2.58"/>
<circle class="cls-10 blinking5" cx="955.68" cy="392.14" r="2.58"/>
<circle class="cls-10 blinking5" cx="642.25" cy="488.13" r="2.58"/>
<circle class="cls-07 blinking5" cx="1768.47" cy="311.82" r="2.58"/>
<circle class="cls-12 blinking4" cx="1505.73" cy="371.9" r="2.58"/>
<circle class="cls-11 blinking3" cx="1322" cy="329.45" r="2.58"/>
<circle class="cls-12 blinking5" cx="1352.93" cy="243.66" r="2.58"/>
<circle class="cls-11 blinking5" cx="1169.85" cy="233.46" r="2.58"/>
<circle class="cls-07 blinking1" cx="1107.46" cy="281.78" r="2.58"/>
<circle class="cls-11 blinking5" cx="999.67" cy="349.94" r="2.58"/>
<circle class="cls-09 blinking2" cx="838.65" cy="254" r="2.58"/>
<circle class="cls-07 blinking2" cx="746.97" cy="481.19" r="2.58"/>
<circle class="cls-10 blinking3" cx="790.96" cy="439" r="2.58"/>
<circle class="cls-11 blinking5" cx="603.97" cy="418.5" r="2.58"/>
<circle class="cls-07 blinking2" cx="442.68" cy="512.69" r="2.58"/>
<circle class="cls-10 blinking4" cx="504.96" cy="525.35" r="2.58"/>
<circle class="cls-10 blinking1" cx="224.58" cy="473.76" r="2.58"/>
<circle class="cls-09 blinking3" cx="193.24" cy="196.64" r="2.58"/>
<circle class="cls-11 blinking1" cx="1869.45" cy="656.01" r="2.51"/>
<circle class="cls-07 blinking2" cx="1449.51" cy="784.71" r="2.51"/>
<circle class="cls-09 blinking3" cx="319.51" cy="1030.01" r="2.51"/>
<circle class="cls-09 blinking3" cx="21.83" cy="1371.01" r="2.51"/>
<circle class="cls-11 blinking2" cx="1463.59" cy="1308.67" r="2.5"/>
<circle class="cls-08 blinking3" cx="1610.51" cy="1423.79" r="2.51"/>
<circle class="cls-12 blinking2" cx="1250.46" cy="118.93" r="2.58"/>
<circle class="cls-07 blinking2" cx="1505.73" cy="146.36" r="2.58"/>
<circle class="cls-09 blinking4" cx="1322" cy="103.91" r="2.58"/>
<circle class="cls-10 blinking2" cx="1107.46" cy="56.24" r="2.58"/>
<circle class="cls-12 blinking3" cx="999.67" cy="124.4" r="2.58"/>
<circle class="cls-11 blinking4" cx="1073.86" cy="1434.25" r="2.5"/>
<circle class="cls-12 blinking1" cx="158.94" cy="1435.23" r="2.58"/>
<circle class="cls-12 blinking5" cx="1317.07" cy="1426.49" r="2.58"/>
<circle class="cls-10 blinking3" cx="367.19" cy="3.56" r="2.5"/>
<circle class="cls-07 blinking1" cx="1613.68" cy="87" r="2.58"/>
<circle class="cls-07 blinking1" cx="1767.78" cy="40" r="2.58"/>
<circle class="cls-11 blinking5" cx="1282.12" cy="2.58" r="2.58"/>
<circle class="cls-09 blinking4" cx="379.24" cy="38.75" r="2.58"/>
<circle class="cls-07 blinking2" cx="123.98" cy="11.32" r="2.58"/>
<circle class="cls-09 blinking1" cx="307.71" cy="53.76" r="2.58"/>
<circle class="cls-08 blinking5" cx="630.03" cy="33.28" r="2.58"/>
<circle class="cls-03 blinking5" cx="1362.08" cy="503.81" r="3.88"/>
<circle class="cls-05 blinking1" cx="29.26" cy="258.93" r="4.45"/>
<circle class="cls-05 blinking4" cx="676.45" cy="127.68" r="4.45"/>
<circle class="cls-03 blinking4" cx="1849.03" cy="82.35" r="4.45"/>
<circle class="cls-04 blinking2" cx="8.75" cy="71.15" r="4.46"/>
<circle class="cls-06 blinking3" cx="43.1" cy="1422.4" r="4.46"/>
<circle class="cls-01 blinking2" cx="1320.45" cy="1424.63" r="4.45"/>
<circle class="cls-06 blinking1" cx="1870.89" cy="1417.92" r="4.46"/>
<circle class="cls-04 blinking1" cx="920.02" cy="457" r="4.45"/>
<circle class="cls-04 blinking5" cx="1015.73" cy="992.23" r="4.45"/>
<circle class="cls-03 blinking1" cx="487.8" cy="1407.82" r="4.46"/>
<circle class="cls-02 blinking2" cx="1662.02" cy="1430.34" r="4.45"/>
<circle class="cls-05 blinking4" cx="1591.27" cy="1309.24" r="4.45"/>
<circle class="cls-02 blinking5" cx="1370.17" cy="1087.84" r="4.45"/>
<circle class="cls-04 blinking1" cx="6.81" cy="1030.25" r="4.45"/>
<circle class="cls-02 blinking2" cx="289.33" cy="1381.06" r="4.45"/>
<circle class="cls-01 blinking1" cx="953.26" cy="30" r="4.45"/>
<circle class="cls-01 blinking3" cx="1482.53" cy="937.16" r="5.17"/>
<circle class="cls-05 blinking5" cx="481.5" cy="855.58" r="5.17"/>
<circle class="cls-04 blinking4" cx="759.37" cy="159.77" r="5.17"/>
<circle class="cls-02 blinking5" cx="570.72" cy="1439.92" r="5.18"/>
<circle class="cls-06 blinking4" cx="1293.05" cy="1354.01" r="5.18"/>
<circle class="cls-01 blinking5" cx="1889.68" cy="556" r="5.17"/>
<circle class="cls-03 blinking1" cx="15.45" cy="676.5" r="5.17"/>
<circle class="cls-01 blinking1" cx="1453.5" cy="1137.09" r="7.28"/>
</svg>