<svg xmlns="http://www.w3.org/2000/svg" viewBox="0 0 1918 1445.08">
<defs>
<style>.cls-01{fill:url('#cls-01');}.cls-02{fill:url('#cls-02');}.cls-03{fill:url('#cls-03');}.cls-04{fill:url('#cls-04');}.cls-05{fill:url('#cls-05');}.cls-06{fill:url('#cls-06');}.cls-07{fill:url('#cls-07');}.cls-08{fill:url('#cls-08');}.cls-09{fill:url('#cls-09');}.cls-10{fill:url('#cls-10');}.cls-11{fill:url('#cls-11');}.cls-12{fill:url('#cls-12');}</style>
<radialGradient id="cls-01"><stop offset="25%" stop-color="#c6e6f3"/><stop offset="95%" stop-color="rgba(198,230,243,0.1)"/></radialGradient>
<radialGradient id="cls-02"><stop offset="25%" stop-color="#68cdf3"/><stop offset="95%" stop-color="rgba(104,205,243,0.1)"/></radialGradient>
<radialGradient id="cls-03"><stop offset="25%" stop-color="#ffffff"/><stop offset="95%" stop-color="rgba(255,255,255,0.1)"/></radialGradient>
<radialGradient id="cls-04"><stop offset="25%" stop-color="#ffe779"/><stop offset="95%" stop-color="rgba(255,231,121,0.1)"/></radialGradient>
<radialGradient id="cls-05"><stop offset="25%" stop-color="#dd503f"/><stop offset="95%" stop-color="rgba(221,80,63,0.1)"/></radialGradient>
<radialGradient id="cls-06"><stop offset="25%" stop-color="#51c3d4"/><stop offset="95%" stop-color="rgba(81,195,212,0.1)"/></radialGradient>
<radialGradient id="cls-07"><stop offset="0%" stop-color="#c6e6f3"/><stop offset="70%" stop-color="rgba(198,230,243,0.1)"/></radialGradient>
<radialGradient id="cls-08"><stop offset="0%" stop-color="#68cdf3"/><stop offset="70%" stop-color="rgba(104,205,243,0.1)"/></radialGradient>
<radialGradient id="cls-09"><stop offset="0%" stop-color="#ffffff"/><stop offset="70%" stop-color="rgba(255,255,255,0.1)"/></radialGradient>
<radialGradient id="cls-10"><stop offset="0%" stop-color="#ffe779"/><stop offset="70%" stop-color="rgba(255,231,121,0.1)"/></radialGradient>
<radialGradient id="cls-11"><stop offset="0%" stop-color="#dd503f"/><stop offset="70%" stop-color="rgba(221,80,63,0.1)"/></radialGradient>
<radialGradient id="cls-12"><stop offset="0%" stop-color="#51c3d4"/><stop offset="70%" stop-color="rgba(81,195,212,0.1)"/></radialGradient>
</defs>
<title>stars</title>
<circle class="cls-07" cx="1396" cy="467.3" r="1"/>
<circle class="cls-07" cx="1369.9" cy="366.43" r="1"/>
<circle class="cls-07" cx="1224.28" cy="407.81" r="1"/>
<circle class="cls-07" cx="1215.8" cy="482.26" r="1"/>
<circle class="cls-07" cx="1227.55" cy="542.34" r="1"/>
<circle class="cls-07" cx="1355.55" cy="183.58" r="1"/>
<circle class="cls-07" cx="876.91" cy="287.42" r="1"/>
<circle class="cls-07" cx="856.65" cy="387.57" r="1"/>
<circle class="cls-07" cx="901.72" cy="599.14" r="1"/>
<circle class="cls-07" cx="1027.09" cy="657.9" r="1"/>
<circle class="cls-07" cx="204.34" cy="1228.62" r="1"/>
<circle class="cls-07" cx="828.61" cy="1221.49" r="1"/>
<circle class="cls-07" cx="782.24" cy="1220.77" r="1"/>
<circle class="cls-07" cx="1208.65" cy="1260.67" r="1"/>
<circle class="cls-07" cx="1036.9" cy="1201.18" r="1"/>
<circle class="cls-07" cx="1456.1" cy="1238.41" r="1"/>
<circle class="cls-07" cx="374.77" cy="403.91" r="1"/>
<circle class="cls-07" cx="500.14" cy="462.68" r="1"/>
<circle class="cls-07" cx="166.48" cy="255.75" r="1"/>
<circle class="cls-07" cx="140.36" cy="154.88" r="1"/>
<circle class="cls-07" cx="23.47" cy="196.26" r="1"/>
<circle class="cls-07" cx="120.1" cy="255" r="1"/>
<circle class="cls-07" cx="1086.13" cy="977.21" r="1"/>
<circle class="cls-07" cx="823.36" cy="936.74" r="1"/>
<circle class="cls-07" cx="1369.9" cy="140.89" r="1"/>
<circle class="cls-07" cx="1381.67" cy="58.92" r="1"/>
<circle class="cls-07" cx="1335.3" cy="58.2" r="1"/>
<circle class="cls-07" cx="876.91" cy="61.88" r="1"/>
<circle class="cls-07" cx="520.39" cy="137" r="1"/>
<circle class="cls-07" cx="1181.25" cy="1421" r="1"/>
<circle class="cls-07" cx="1765.16" cy="100.09" r="1"/>
<circle class="cls-07" cx="1489.34" cy="2.8" r="1"/>
<circle class="cls-07" cx="1109.31" cy="20.69" r="1"/>
<circle class="cls-07" cx="1175.06" cy="650.99" r="1.72"/>
<circle class="cls-07" cx="1475.78" cy="595.7" r="1.72"/>
<circle class="cls-07" cx="1232.36" cy="674" r="1.72"/>
<circle class="cls-07" cx="1431.13" cy="419.65" r="1.72"/>
<circle class="cls-07" cx="1322.55" cy="401.55" r="1.72"/>
<circle class="cls-07" cx="1119.17" cy="343.76" r="1.72"/>
<circle class="cls-07" cx="267.52" cy="443.16" r="1.72"/>
<circle class="cls-09" cx="158.94" cy="425.06" r="1.72"/>
<circle class="cls-07" cx="1052.57" cy="418.2" r="1.72"/>
<circle class="cls-07" cx="1001.29" cy="423.1" r="1.72"/>
<circle class="cls-07" cx="1318.72" cy="858" r="1.72"/>
<circle class="cls-07" cx="1238.29" cy="782" r="1.72"/>
<circle class="cls-07" cx="860.87" cy="719.94" r="1.73"/>
<circle class="cls-07" cx="812.11" cy="838.86" r="1.72"/>
<circle class="cls-07" cx="703.53" cy="820.77" r="1.72"/>
<circle class="cls-07" cx="692.61" cy="1315.2" r="1.72"/>
<circle class="cls-07" cx="584.03" cy="1297.11" r="1.72"/>
<circle class="cls-07" cx="581.06" cy="844.65" r="1.72"/>
<circle class="cls-07" cx="638.36" cy="867.65" r="1.72"/>
<circle class="cls-07" cx="529.78" cy="849.55" r="1.72"/>
<circle class="cls-07" cx="1009.17" cy="642.07" r="1.72"/>
<circle class="cls-07" cx="709.73" cy="740.48" r="1.73"/>
<circle class="cls-07" cx="959.9" cy="948" r="1.72"/>
<circle class="cls-07" cx="1568.15" cy="153" r="1.72"/>
<circle class="cls-07" cx="769.89" cy="284" r="1.72"/>
<circle class="cls-10" cx="210.93" cy="315.74" r="1.72"/>
<circle class="cls-10" cx="119.4" cy="354.92" r="1.72"/>
<circle class="cls-07" cx="931.11" cy="140.25" r="1.72"/>
<circle class="cls-07" cx="132.47" cy="1060.13" r="1.72"/>
<circle class="cls-07" cx="40" cy="150.97" r="1.72"/>
<circle class="cls-07" cx="1.72" cy="464.87" r="1.72"/>
<circle class="cls-07" cx="558.73" cy="519.17" r="1.73"/>
<circle class="cls-07" cx="1268.55" cy="440.75" r="1.72"/>
<circle class="cls-07" cx="1695.09" cy="222.31" r="1.72"/>
<circle class="cls-07" cx="1654.01" cy="196.9" r="1.73"/>
<circle class="cls-07" cx="1423.38" cy="760.45" r="1.72"/>
<circle class="cls-07" cx="979.13" cy="314.2" r="1.72"/>
<circle class="cls-07" cx="1021.1" cy="465" r="1.72"/>
<circle class="cls-07" cx="1417.47" cy="141.05" r="1.72"/>
<circle class="cls-07" cx="1292.72" cy="362.33" r="1.72"/>
<circle class="cls-07" cx="1174.05" cy="308" r="1.72"/>
<circle class="cls-07" cx="1250.36" cy="236.07" r="1.72"/>
<circle class="cls-07" cx="1444.34" cy="264.09" r="1.72"/>
<circle class="cls-07" cx="1136.14" cy="125.66" r="1.72"/>
<circle class="cls-07" cx="1149.92" cy="458.84" r="1.72"/>
<circle class="cls-07" cx="1459.44" cy="380.55" r="1.72"/>
<circle class="cls-07" cx="1670.72" cy="571.44" r="1.72"/>
<circle class="cls-10" cx="1837.46" cy="589.66" r="1.72"/>
<circle class="cls-07" cx="1684.05" cy="796.33" r="1.72"/>
<circle class="cls-07" cx="1883.27" cy="908.64" r="1.72"/>
<circle class="cls-07" cx="1883.89" cy="1031.4" r="1.72"/>
<circle class="cls-07" cx="1715.39" cy="772.82" r="1.72"/>
<circle class="cls-07" cx="1853.61" cy="323.48" r="1.72"/>
<circle class="cls-07" cx="1857.13" cy="758.27" r="1.73"/>
<circle class="cls-07" cx="1783.9" cy="814.62" r="1.72"/>
<circle class="cls-07" cx="1916.28" cy="1372.89" r="1.72"/>
<circle class="cls-08" cx="790" cy="1268.33" r="1.72"/>
<circle class="cls-07" cx="1099.52" cy="1070.22" r="1.72"/>
<circle class="cls-07" cx="1371.22" cy="1040.07" r="1.72"/>
<circle class="cls-07" cx="1246.43" cy="1292.46" r="1.72"/>
<circle class="cls-07" cx="1433.19" cy="1194.64" r="1.72"/>
<circle class="cls-07" cx="1413.2" cy="1310.69" r="1.73"/>
<circle class="cls-07" cx="1564.25" cy="1066.21" r="1.72"/>
<circle class="cls-07" cx="1680.72" cy="1318.6" r="1.72"/>
<circle class="cls-07" cx="1562.12" cy="1264.32" r="1.73"/>
<circle class="cls-07" cx="251.13" cy="1007.77" r="1.72"/>
<circle class="cls-09" cx="227" cy="1278.38" r="1.72"/>
<circle class="cls-07" cx="453.13" cy="1081" r="1.72"/>
<circle class="cls-09" cx="434.1" cy="424.66" r="1.72"/>
<circle class="cls-07" cx="1743.47" cy="866.2" r="1.72"/>
<circle class="cls-07" cx="1595.84" cy="729.73" r="1.72"/>
<circle class="cls-07" cx="173" cy="133.61" r="1.72"/>
<circle class="cls-07" cx="67.16" cy="1220.75" r="1.72"/>
<circle class="cls-07" cx="769.89" cy="1340.84" r="1.72"/>
<circle class="cls-10" cx="797.92" cy="937.39" r="1.72"/>
<circle class="cls-07" cx="1077.4" cy="838.86" r="1.72"/>
<circle class="cls-07" cx="134.63" cy="1264.43" r="1.72"/>
<circle class="cls-07" cx="114.4" cy="996" r="1.72"/>
<circle class="cls-07" cx="503.41" cy="766.99" r="1.72"/>
<circle class="cls-07" cx="422.17" cy="601.74" r="1.73"/>
<circle class="cls-07" cx="138.4" cy="316.2" r="1.72"/>
<circle class="cls-07" cx="349.31" cy="860.92" r="1.72"/>
<circle class="cls-07" cx="878.82" cy="548.84" r="1.72"/>
<circle class="cls-07" cx="1581.48" cy="919.69" r="1.72"/>
<circle class="cls-07" cx="1870.04" cy="1128.72" r="1.72"/>
<circle class="cls-07" cx="1270.01" cy="1035.27" r="1.72"/>
<circle class="cls-10" cx="1392.11" cy="1242.36" r="1.72"/>
<circle class="cls-07" cx="235.73" cy="1160.69" r="1.73"/>
<circle class="cls-07" cx="1119.17" cy="118.23" r="1.72"/>
<circle class="cls-07" cx="1176.47" cy="141.22" r="1.72"/>
<circle class="cls-07" cx="1067.89" cy="123.13" r="1.72"/>
<circle class="cls-07" cx="769.89" cy="58.5" r="1.72"/>
<circle class="cls-07" cx="1174.05" cy="82.5" r="1.72"/>
<circle class="cls-07" cx="558.89" cy="66.54" r="1.72"/>
<circle class="cls-07" cx="138.4" cy="90.72" r="1.72"/>
<circle class="cls-07" cx="1379.49" cy="1433.12" r="1.72"/>
<circle class="cls-07" cx="1228.82" cy="1421.18" r="1.72"/>
<circle class="cls-07" cx="67.27" cy="1426.69" r="1.72"/>
<circle class="cls-07" cx="5.8" cy="1413.72" r="1.72"/>
<circle class="cls-07" cx="987.81" cy="1421.35" r="1.72"/>
<circle class="cls-07" cx="1104.02" cy="1416.92" r="1.72"/>
<circle class="cls-07" cx="126.82" cy="1424.99" r="1.72"/>
<circle class="cls-10" cx="1712.28" cy="48.91" r="1.72"/>
<circle class="cls-07" cx="698.59" cy="17.43" r="1.72"/>
<circle class="cls-07" cx="1466.7" cy="86.79" r="1.72"/>
<circle class="cls-07" cx="1577.09" cy="17.57" r="1.73"/>
<circle class="cls-07" cx="1870.35" cy="47.61" r="1.72"/>
<circle class="cls-07" cx="1676.36" cy="19.59" r="1.72"/>
<circle class="cls-07" cx="1373.78" cy="11.12" r="1.72"/>
<circle class="cls-07" cx="1456.7" cy="24.06" r="1.73"/>
<circle class="cls-07" cx="1211.81" cy="28.69" r="1.73"/>
<circle class="cls-07" cx="510.54" cy="39.45" r="1.72"/>
<circle class="cls-10" cx="1510.28" cy="28.28" r="1.72"/>
<circle class="cls-07" cx="650.57" cy="69" r="1.72"/>
<circle class="cls-07" cx="337.03" cy="20.89" r="1.72"/>
<circle class="cls-07" cx="455.66" cy="75.18" r="1.72"/>
<circle class="cls-07" cx="1204" cy="49.28" r="1.72"/>
<circle class="cls-11" cx="383.32" cy="1418.61" r="1.95"/>
<circle class="cls-11" cx="599.24" cy="1216.85" r="1.95"/>
<circle class="cls-11" cx="66.57" cy="447.64" r="1.95"/>
<circle class="cls-11" cx="572" cy="364.11" r="2"/>
<circle class="cls-11" cx="817.54" cy="763.94" r="2"/>
<circle class="cls-11" cx="1303.2" cy="1250.81" r="2"/>
<circle class="cls-07" cx="1262.51" cy="154.13" r="2.51"/>
<circle class="cls-07" cx="844.29" cy="672.11" r="2.51"/>
<circle class="cls-08" cx="787.95" cy="634.16" r="2.51"/>
<circle class="cls-07" cx="1180.08" cy="501.2" r="2.51"/>
<circle class="cls-07" cx="1395.42" cy="646.14" r="2.58"/>
<circle class="cls-09" cx="1622.66" cy="512" r="2.58"/>
<circle class="cls-07" cx="1514.87" cy="580.2" r="2.58"/>
<circle class="cls-07" cx="1797.75" cy="173.34" r="2.58"/>
<circle class="cls-07" cx="1226.06" cy="749.07" r="2.58"/>
<circle class="cls-07" cx="477.92" cy="669.38" r="2.58"/>
<circle class="cls-07" cx="451.82" cy="1294.14" r="2.58"/>
<circle class="cls-07" cx="750.93" cy="900.8" r="2.58"/>
<circle class="cls-10" cx="635.31" cy="994" r="2.58"/>
<circle class="cls-10" cx="548.74" cy="1132.62" r="2.58"/>
<circle class="cls-10" cx="336.65" cy="1120.86" r="2.58"/>
<circle class="cls-07" cx="863.58" cy="1101.45" r="2.58"/>
<circle class="cls-10" cx="1738.19" cy="1326.87" r="2.58"/>
<circle class="cls-07" cx="1834.18" cy="1382.62" r="2.58"/>
<circle class="cls-07" cx="1554.1" cy="436.54" r="2.58"/>
<circle class="cls-07" cx="1259.31" cy="484.21" r="2.58"/>
<circle class="cls-07" cx="1142.67" cy="412.63" r="2.58"/>
<circle class="cls-07" cx="955.68" cy="392.14" r="2.58"/>
<circle class="cls-07" cx="642.25" cy="488.13" r="2.58"/>
<circle class="cls-10" cx="1768.47" cy="311.82" r="2.58"/>
<circle class="cls-07" cx="1505.73" cy="371.9" r="2.58"/>
<circle class="cls-07" cx="1352.93" cy="243.66" r="2.58"/>
<circle class="cls-07" cx="1169.85" cy="233.46" r="2.58"/>
<circle class="cls-07" cx="999.67" cy="349.94" r="2.58"/>
<circle class="cls-07" cx="790.96" cy="439" r="2.58"/>
<circle class="cls-07" cx="442.68" cy="512.69" r="2.58"/>
<circle class="cls-07" cx="504.96" cy="525.35" r="2.58"/>
<circle class="cls-07" cx="224.58" cy="473.76" r="2.58"/>
<circle class="cls-07" cx="193.24" cy="196.64" r="2.58"/>
<circle class="cls-07" cx="1449.51" cy="784.71" r="2.51"/>
<circle class="cls-09" cx="1463.59" cy="1308.67" r="2.5"/>
<circle class="cls-09" cx="1610.51" cy="1423.79" r="2.51"/>
<circle class="cls-07" cx="1250.46" cy="118.93" r="2.58"/>
<circle class="cls-07" cx="1322" cy="103.91" r="2.58"/>
<circle class="cls-07" cx="1107.46" cy="56.24" r="2.58"/>
<circle class="cls-07" cx="999.67" cy="124.4" r="2.58"/>
<circle class="cls-07" cx="367.19" cy="3.56" r="2.5"/>
<circle class="cls-07" cx="1767.78" cy="40" r="2.58"/>
<circle class="cls-07" cx="1282.12" cy="2.58" r="2.58"/>
<circle class="cls-07" cx="379.24" cy="38.75" r="2.58"/>
<circle class="cls-07" cx="123.98" cy="11.32" r="2.58"/>
<circle class="cls-07" cx="630.03" cy="33.28" r="2.58"/>
<circle class="cls-01" cx="29.26" cy="258.93" r="4.45"/>
<circle class="cls-01" cx="676.45" cy="127.68" r="4.45"/>
<circle class="cls-01" cx="1870.89" cy="1417.92" r="4.46"/>
<circle class="cls-01" cx="920.02" cy="457" r="4.45"/>
<circle class="cls-01" cx="1662.02" cy="1430.34" r="4.45"/>
<circle class="cls-01" cx="1591.27" cy="1309.24" r="4.45"/>
<circle class="cls-01" cx="289.33" cy="1381.06" r="4.45"/>
<circle class="cls-01" cx="953.26" cy="30" r="4.45"/>
<circle class="cls-05" cx="759.37" cy="159.77" r="5.17"/>
<circle class="cls-05" cx="570.72" cy="1439.92" r="5.18"/>
<circle class="cls-06" cx="15.45" cy="676.5" r="5.17"/>
<circle class="cls-01" cx="1453.5" cy="1137.09" r="7.28"/>
</svg>