<svg xmlns="http://www.w3.org/2000/svg" viewBox="0 0 1918 1445.08">
<defs>
<style>.cls-01{fill:url('#cls-01');}.cls-02{fill:url('#cls-02');}.cls-03{fill:url('#cls-03');}.cls-04{fill:url('#cls-04');}.cls-05{fill:url('#cls-05');}.cls-06{fill:url('#cls-06');}.cls-07{fill:url('#cls-07');}.cls-08{fill:url('#cls-08');}.cls-09{fill:url('#cls-09');}.cls-10{fill:url('#cls-10');}.cls-11{fill:url('#cls-11');}.cls-12{fill:url('#cls-12');}.blinking1{-webkit-animation:blinking1 5s linear infinite;animation:blinking1 5s linear infinite;}.blinking2{-webkit-animation:blinking2 5s linear infinite;animation:blinking2 5s linear infinite;}.blinking3{-webkit-animation:blinking3 5s linear infinite;animation:blinking3 5s linear infinite;}.blinking4{-webkit-animation:blinking4 5s linear infinite;animation:blinking4 5s linear infinite;}.blinking5{-webkit-animation:blinking5 5s linear infinite;animation:blinking5 5s linear infinite;}@-webkit-keyframes blinking1{0%{opacity:0;}20%{opacity:0;}50%{opacity:1;}80%{opacity:0;}100%{opacity:0;}}@-webkit-keyframes blinking2{0%{opacity:0;}40%{opacity:0;}70%{opacity:1;}100%{opacity:0;}}@-webkit-keyframes blinking3{0%{opacity:0.6667;}20%{opacity:0;}60%{opacity:0;}90%{opacity:1;}100%{opacity:0.6667;}}@-webkit-keyframes blinking4{0%{opacity:0.6667;}10%{opacity:1;}40%{opacity:0;}80%{opacity:0;}100%{opacity:0.6667;}}@-webkit-keyframes blinking5{0%{opacity:0;}30%{opacity:1;}60%{opacity:0;}100%{opacity:0;}}@keyframes blinking1{0%{opacity:0;}20%{opacity:0;}50%{opacity:1;}80%{opacity:0;}100%{opacity:0;}}@keyframes blinking2{0%{opacity:0;}40%{opacity:0;}70%{opacity:1;}100%{opacity:0;}}@keyframes blinking3{0%{opacity:0.6667;}20%{opacity:0;}60%{opacity:0;}90%{opacity:1;}100%{opacity:0.6667;}}@keyframes blinking4{0%{opacity:0.6667;}10%{opacity:1;}40%{opacity:0;}80%{opacity:0;}100%{opacity:0.6667;}}@keyframes blinking5{0%{opacity:0;}30%{opacity:1;}60%{opacity:0;}100%{opacity:0;}}</style>
<radialGradient id="cls-01"><stop offset="25%" stop-color="#c6e6f3"/><stop offset="95%" stop-color="rgba(198,230,243,0.1)"/></radialGradient>
<radialGradient id="cls-02"><stop offset="25%" stop-color="#68cdf3"/><stop offset="95%" stop-color="rgba(104,205,243,0.1)"/></radialGradient>
<radialGradient id="cls-03"><stop offset="25%" stop-color="#ffffff"/><stop offset="95%" stop-color="rgba(255,255,255,0.1)"/></radialGradient>
<radialGradient id="cls-04"><stop offset="25%" stop-color="#ffe779"/><stop offset="95%" stop-color="rgba(255,231,121,0.1)"/></radialGradient>
<radialGradient id="cls-05"><stop offset="25%" stop-color="#dd503f"/><stop offset="95%" stop-color="rgba(221,80,63,0.1)"/></radialGradient>
<radialGradient id="cls-06"><stop offset="25%" stop-color="#51c3d4"/><stop offset="95%" stop-color="rgba(81,195,212,0.1)"/></radialGradient>
<radialGradient id="cls-07"><stop offset="0%" stop-color="#c6e6f3"/><stop offset="70%" stop-color="rgba(198,230,243,0.1)"/></radialGradient>
<radialGradient id="cls-08"><stop offset="0%" stop-color="#68cdf3"/><stop offset="70%" stop-color="rgba(104,205,243,0.1)"/></radialGradient>
<radialGradient id="cls-09"><stop offset="0%" stop-color="#ffffff"/><stop offset="70%" stop-color="rgba(255,255,255,0.1)"/></radialGradient>
<radialGradient id="cls-10"><stop offset="0%" stop-color="#ffe779"/><stop offset="70%" stop-color="rgba(255,231,121,0.1)"/></radialGradient>
<radialGradient id="cls-11"><stop offset="0%" stop-color="#dd503f"/><stop offset="70%" stop-color="rgba(221,80,63,0.1)"/></radialGradient>
<radialGradient id="cls-12"><stop offset="0%" stop-color="#51c3d4"/><stop offset="70%" stop-color="rgba(81,195,212,0.1)"/></radialGradient>
</defs>
<title>stars</title>
<circle class="cls-08" cx="1366" cy="467.3" r="1"/>
<circle class="cls-10" cx="1429.9" cy="366.43" r="1"/>
<circle class="cls-10" cx="1154.28" cy="407.81" r="1"/>
<circle class="cls-12" cx="1235.8" cy="482.26" r="1"/>
<circle class="cls-08" cx="1277.55" cy="542.34" r="1"/>
<circle class="cls-12" cx="1369.65" cy="466.58" r="1"/>
<circle class="cls-12" cx="1617.15" cy="577.66" r="1"/>
<circle class="cls-11" cx="1561" cy="476.79" r="1"/>
<circle class="cls-09" cx="1405.41" cy="518.17" r="1"/>
<circle class="cls-09" cx="1540.78" cy="576.93" r="1"/>
<circle class="cls-07" cx="1461.67" cy="284.46" r="1"/>
<circle class="cls-07" cx="1435.55" cy="183.58" r="1"/>
<circle class="cls-07" cx="1189.92" cy="225" r="1"/>
<circle class="cls-10" cx="1355.3" cy="283.73" r="1"/>
<circle class="cls-10" cx="843" cy="388.29" r="1"/>
<circle class="cls-09" cx="936.91" cy="287.42" r="1"/>
<circle class="cls-12" cx="701.28" cy="328.8" r="1"/>
<circle class="cls-11" cx="806.65" cy="387.57" r="1"/>
<circle class="cls-11" cx="1023.47" cy="658.63" r="1"/>
<circle class="cls-10" cx="1027.35" cy="557.75" r="1"/>
<circle class="cls-12" cx="941.72" cy="599.14" r="1"/>
<circle class="cls-12" cx="1047.09" cy="657.9" r="1"/>
<circle class="cls-10" cx="316.09" cy="1288.11" r="1"/>
<circle class="cls-07" cx="370" cy="1187.24" r="1"/>
<circle class="cls-10" cx="264.34" cy="1228.62" r="1"/>
<circle class="cls-08" cx="349.71" cy="1287.39" r="1"/>
<circle class="cls-08" cx="758.61" cy="1221.49" r="1"/>
<circle class="cls-11" cx="782.49" cy="1120.62" r="1"/>
<circle class="cls-08" cx="586.86" cy="1162" r="1"/>
<circle class="cls-09" cx="852.24" cy="1220.77" r="1"/>
<circle class="cls-07" cx="1228.65" cy="1260.67" r="1"/>
<circle class="cls-11" cx="1162.53" cy="1159.8" r="1"/>
<circle class="cls-07" cx="986.9" cy="1201.18" r="1"/>
<circle class="cls-12" cx="1131" cy="1289.33" r="1"/>
<circle class="cls-12" cx="1532.47" cy="1239.14" r="1"/>
<circle class="cls-10" cx="1486.35" cy="1138.26" r="1"/>
<circle class="cls-12" cx="1260.73" cy="1179.65" r="1"/>
<circle class="cls-12" cx="1536.1" cy="1238.41" r="1"/>
<circle class="cls-10" cx="466.51" cy="463.4" r="1"/>
<circle class="cls-10" cx="510.39" cy="362.53" r="1"/>
<circle class="cls-08" cx="294.77" cy="403.91" r="1"/>
<circle class="cls-11" cx="480.14" cy="462.68" r="1"/>
<circle class="cls-11" cx="246.48" cy="255.75" r="1"/>
<circle class="cls-08" cx="120.36" cy="154.88" r="1"/>
<circle class="cls-07" cx="-56.53" cy="196.26" r="1"/>
<circle class="cls-08" cx="170.1" cy="255" r="1"/>
<circle class="cls-07" cx="1096.13" cy="977.21" r="1"/>
<circle class="cls-08" cx="626" cy="628.11" r="1"/>
<circle class="cls-09" cx="743.36" cy="936.74" r="1"/>
<circle class="cls-10" cx="1359.9" cy="140.89" r="1"/>
<circle class="cls-09" cx="1451.67" cy="58.92" r="1"/>
<circle class="cls-08" cx="1285.3" cy="58.2" r="1"/>
<circle class="cls-12" cx="796.91" cy="61.88" r="1"/>
<circle class="cls-10" cx="801.28" cy="103.26" r="1"/>
<circle class="cls-10" cx="590.39" cy="137" r="1"/>
<circle class="cls-11" cx="1251.25" cy="1421" r="1"/>
<circle class="cls-09" cx="321.74" cy="1417.12" r="1"/>
<circle class="cls-12" cx="1775.16" cy="100.09" r="1"/>
<circle class="cls-08" cx="1870.78" cy="58.71" r="1"/>
<circle class="cls-10" cx="1499.34" cy="2.8" r="1"/>
<circle class="cls-08" cx="209.8" cy="16.79" r="1"/>
<circle class="cls-08" cx="918.43" cy="54.42" r="1"/>
<circle class="cls-07" cx="1059.31" cy="20.69" r="1"/>
<circle class="cls-11" cx="1225.06" cy="650.99" r="1.72"/>
<circle class="cls-11" cx="1417.72" cy="471" r="1.72"/>
<circle class="cls-10" cx="1555.78" cy="595.7" r="1.72"/>
<circle class="cls-08" cx="1395.14" cy="575.59" r="1.72"/>
<circle class="cls-11" cx="1340.99" cy="728.28" r="1.72"/>
<circle class="cls-08" cx="1202.36" cy="674" r="1.72"/>
<circle class="cls-12" cx="1293.83" cy="396.66" r="1.72"/>
<circle class="cls-08" cx="1431.13" cy="419.65" r="1.72"/>
<circle class="cls-11" cx="1382.55" cy="401.55" r="1.72"/>
<circle class="cls-09" cx="1179.17" cy="343.76" r="1.72"/>
<circle class="cls-07" cx="1246.47" cy="366.76" r="1.72"/>
<circle class="cls-09" cx="1127.89" cy="348.66" r="1.72"/>
<circle class="cls-10" cx="160.23" cy="420.17" r="1.73"/>
<circle class="cls-10" cx="227.52" cy="443.16" r="1.72"/>
<circle class="cls-11" cx="178.94" cy="425.06" r="1.72"/>
<circle class="cls-11" cx="1072.57" cy="418.2" r="1.72"/>
<circle class="cls-08" cx="1149.87" cy="441.2" r="1.72"/>
<circle class="cls-12" cx="1061.29" cy="423.1" r="1.72"/>
<circle class="cls-09" cx="1197.72" cy="572.36" r="1.72"/>
<circle class="cls-11" cx="1135.05" cy="595.35" r="1.72"/>
<circle class="cls-09" cx="1278.72" cy="858" r="1.72"/>
<circle class="cls-08" cx="1318.29" cy="782" r="1.72"/>
<circle class="cls-09" cx="880.87" cy="719.94" r="1.73"/>
<circle class="cls-08" cx="1105.63" cy="709.58" r="1.72"/>
<circle class="cls-12" cx="674.81" cy="815.87" r="1.72"/>
<circle class="cls-11" cx="842.11" cy="838.86" r="1.72"/>
<circle class="cls-10" cx="653.53" cy="820.77" r="1.72"/>
<circle class="cls-11" cx="555.32" cy="1292.22" r="1.73"/>
<circle class="cls-08" cx="762.61" cy="1315.2" r="1.72"/>
<circle class="cls-09" cx="654.03" cy="1297.11" r="1.72"/>
<circle class="cls-07" cx="1075.22" cy="1311.29" r="1.72"/>
<circle class="cls-10" cx="929.39" cy="1331.12" r="1.72"/>
<circle class="cls-10" cx="571.06" cy="844.65" r="1.72"/>
<circle class="cls-07" cx="608.36" cy="867.65" r="1.72"/>
<circle class="cls-12" cx="559.78" cy="849.55" r="1.72"/>
<circle class="cls-08" cx="1069.17" cy="642.07" r="1.72"/>
<circle class="cls-12" cx="659.73" cy="740.48" r="1.73"/>
<circle class="cls-12" cx="1148.23" cy="824.79" r="1.72"/>
<circle class="cls-07" cx="969.9" cy="948" r="1.72"/>
<circle class="cls-12" cx="1598.15" cy="153" r="1.72"/>
<circle class="cls-07" cx="689.89" cy="284" r="1.72"/>
<circle class="cls-10" cx="190.93" cy="315.74" r="1.72"/>
<circle class="cls-08" cx="159.4" cy="354.92" r="1.72"/>
<circle class="cls-10" cx="1458.38" cy="234.77" r="1.72"/>
<circle class="cls-09" cx="1001.11" cy="140.25" r="1.72"/>
<circle class="cls-09" cx="122.47" cy="1060.13" r="1.72"/>
<circle class="cls-11" cx="1784.07" cy="1370.57" r="1.72"/>
<circle class="cls-08" cx="1714.07" cy="1260.87" r="1.72"/>
<circle class="cls-09" cx="40" cy="150.97" r="1.72"/>
<circle class="cls-07" cx="-18.28" cy="464.87" r="1.72"/>
<circle class="cls-10" cx="538.73" cy="519.17" r="1.73"/>
<circle class="cls-12" cx="1288.55" cy="440.75" r="1.72"/>
<circle class="cls-08" cx="1573.8" cy="312.06" r="1.72"/>
<circle class="cls-11" cx="1755.09" cy="222.31" r="1.72"/>
<circle class="cls-10" cx="1674.01" cy="196.9" r="1.73"/>
<circle class="cls-12" cx="1583.61" cy="266.12" r="1.73"/>
<circle class="cls-09" cx="1773.29" cy="124.84" r="1.72"/>
<circle class="cls-07" cx="1453.38" cy="760.45" r="1.72"/>
<circle class="cls-10" cx="1447.72" cy="746.5" r="1.72"/>
<circle class="cls-12" cx="929.13" cy="314.2" r="1.72"/>
<circle class="cls-12" cx="774.34" cy="446.78" r="1.72"/>
<circle class="cls-11" cx="675.72" cy="392.49" r="1.72"/>
<circle class="cls-09" cx="681.58" cy="543.29" r="1.72"/>
<circle class="cls-10" cx="1051.1" cy="465" r="1.72"/>
<circle class="cls-12" cx="1367.47" cy="141.05" r="1.72"/>
<circle class="cls-08" cx="1252.72" cy="362.33" r="1.72"/>
<circle class="cls-09" cx="1124.05" cy="308" r="1.72"/>
<circle class="cls-07" cx="1170.36" cy="236.07" r="1.72"/>
<circle class="cls-11" cx="1414.34" cy="264.09" r="1.72"/>
<circle class="cls-09" cx="1186.14" cy="125.66" r="1.72"/>
<circle class="cls-07" cx="1099.92" cy="458.84" r="1.72"/>
<circle class="cls-12" cx="1439.44" cy="380.55" r="1.72"/>
<circle class="cls-10" cx="1710.72" cy="571.44" r="1.72"/>
<circle class="cls-08" cx="1632.06" cy="517.15" r="1.72"/>
<circle class="cls-07" cx="1557.93" cy="668" r="1.72"/>
<circle class="cls-08" cx="1847.46" cy="589.66" r="1.72"/>
<circle class="cls-07" cx="1638.54" cy="788.72" r="1.72"/>
<circle class="cls-10" cx="1588.08" cy="774.84" r="1.72"/>
<circle class="cls-09" cx="1734.05" cy="796.33" r="1.72"/>
<circle class="cls-12" cx="1903.27" cy="908.64" r="1.72"/>
<circle class="cls-09" cx="1953.89" cy="1031.4" r="1.72"/>
<circle class="cls-07" cx="1898.9" cy="972.63" r="1.72"/>
<circle class="cls-10" cx="1857.99" cy="1095.39" r="1.72"/>
<circle class="cls-09" cx="1705.39" cy="772.82" r="1.72"/>
<circle class="cls-11" cx="1913.61" cy="323.48" r="1.72"/>
<circle class="cls-12" cx="1897.13" cy="758.27" r="1.73"/>
<circle class="cls-07" cx="1783.9" cy="814.62" r="1.72"/>
<circle class="cls-10" cx="1791.72" cy="866.85" r="1.72"/>
<circle class="cls-10" cx="1796.72" cy="881.22" r="1.72"/>
<circle class="cls-09" cx="1705.88" cy="936.07" r="1.73"/>
<circle class="cls-10" cx="1976.28" cy="1372.89" r="1.72"/>
<circle class="cls-08" cx="1087.55" cy="919.42" r="1.72"/>
<circle class="cls-09" cx="943.56" cy="1017.06" r="1.72"/>
<circle class="cls-09" cx="870" cy="1268.33" r="1.72"/>
<circle class="cls-07" cx="1019.52" cy="1070.22" r="1.72"/>
<circle class="cls-09" cx="1341.22" cy="1040.07" r="1.72"/>
<circle class="cls-07" cx="1186.43" cy="1292.46" r="1.72"/>
<circle class="cls-10" cx="1147.8" cy="1118.36" r="1.72"/>
<circle class="cls-08" cx="1513.19" cy="1194.64" r="1.72"/>
<circle class="cls-07" cx="1083.72" cy="1388.99" r="1.72"/>
<circle class="cls-11" cx="1443.2" cy="1310.69" r="1.73"/>
<circle class="cls-09" cx="1574.25" cy="1066.21" r="1.72"/>
<circle class="cls-07" cx="1670.72" cy="1318.6" r="1.72"/>
<circle class="cls-11" cx="1522.12" cy="1264.32" r="1.73"/>
<circle class="cls-12" cx="1585.72" cy="1384.6" r="1.72"/>
<circle class="cls-09" cx="1827.51" cy="1336.82" r="1.72"/>
<circle class="cls-08" cx="480.78" cy="924.32" r="1.72"/>
<circle class="cls-09" cx="319.72" cy="1062.05" r="1.72"/>
<circle class="cls-12" cx="291.13" cy="1007.77" r="1.72"/>
<circle class="cls-09" cx="177" cy="1278.38" r="1.72"/>
<circle class="cls-11" cx="443.13" cy="1081" r="1.72"/>
<circle class="cls-07" cx="104.31" cy="603.72" r="1.72"/>
<circle class="cls-12" cx="498.89" cy="292.08" r="1.72"/>
<circle class="cls-11" cx="474.1" cy="424.66" r="1.72"/>
<circle class="cls-07" cx="1663.47" cy="866.2" r="1.72"/>
<circle class="cls-10" cx="1615.84" cy="729.73" r="1.72"/>
<circle class="cls-11" cx="1916.72" cy="943.91" r="1.72"/>
<circle class="cls-07" cx="495.72" cy="334" r="1.72"/>
<circle class="cls-11" cx="133" cy="133.61" r="1.72"/>
<circle class="cls-08" cx="399.96" cy="464.62" r="1.72"/>
<circle class="cls-07" cx="660.87" cy="442.89" r="1.73"/>
<circle class="cls-12" cx="1365.23" cy="897.18" r="1.72"/>
<circle class="cls-10" cx="1467.59" cy="639.93" r="1.72"/>
<circle class="cls-11" cx="219.03" cy="1137.17" r="1.72"/>
<circle class="cls-07" cx="97.16" cy="1220.75" r="1.72"/>
<circle class="cls-08" cx="779.89" cy="1340.84" r="1.72"/>
<circle class="cls-09" cx="857.92" cy="937.39" r="1.72"/>
<circle class="cls-10" cx="1057.4" cy="838.86" r="1.72"/>
<circle class="cls-08" cx="54.63" cy="1264.43" r="1.72"/>
<circle class="cls-07" cx="142.72" cy="1389.1" r="1.72"/>
<circle class="cls-11" cx="34.4" cy="996" r="1.72"/>
<circle class="cls-08" cx="553.41" cy="766.99" r="1.72"/>
<circle class="cls-12" cx="482.17" cy="601.74" r="1.73"/>
<circle class="cls-12" cx="148.4" cy="316.2" r="1.72"/>
<circle class="cls-10" cx="127.9" cy="730.05" r="1.72"/>
<circle class="cls-09" cx="359.31" cy="860.92" r="1.72"/>
<circle class="cls-11" cx="277.95" cy="710.46" r="1.72"/>
<circle class="cls-12" cx="928.82" cy="548.84" r="1.72"/>
<circle class="cls-12" cx="609.42" cy="685.99" r="1.72"/>
<circle class="cls-10" cx="1581.48" cy="919.69" r="1.72"/>
<circle class="cls-07" cx="1940.04" cy="1128.72" r="1.72"/>
<circle class="cls-10" cx="1250.01" cy="1035.27" r="1.72"/>
<circle class="cls-10" cx="1322.11" cy="1242.36" r="1.72"/>
<circle class="cls-10" cx="285.73" cy="1160.69" r="1.73"/>
<circle class="cls-09" cx="1079.17" cy="118.23" r="1.72"/>
<circle class="cls-08" cx="1196.47" cy="141.22" r="1.72"/>
<circle class="cls-12" cx="1127.89" cy="123.13" r="1.72"/>
<circle class="cls-12" cx="739.89" cy="58.5" r="1.72"/>
<circle class="cls-09" cx="39.4" cy="129.38" r="1.72"/>
<circle class="cls-12" cx="1483.8" cy="86.52" r="1.72"/>
<circle class="cls-09" cx="959.13" cy="88.66" r="1.72"/>
<circle class="cls-11" cx="1302.72" cy="136.79" r="1.72"/>
<circle class="cls-09" cx="1104.05" cy="82.5" r="1.72"/>
<circle class="cls-10" cx="568.89" cy="66.54" r="1.72"/>
<circle class="cls-08" cx="78.4" cy="90.72" r="1.72"/>
<circle class="cls-07" cx="1329.49" cy="1433.12" r="1.72"/>
<circle class="cls-12" cx="802.46" cy="1420.38" r="1.72"/>
<circle class="cls-07" cx="1158.82" cy="1421.18" r="1.72"/>
<circle class="cls-10" cx="17.27" cy="1426.69" r="1.72"/>
<circle class="cls-08" cx="65.8" cy="1413.72" r="1.72"/>
<circle class="cls-11" cx="907.81" cy="1421.35" r="1.72"/>
<circle class="cls-08" cx="1074.02" cy="1416.92" r="1.72"/>
<circle class="cls-11" cx="106.82" cy="1424.99" r="1.72"/>
<circle class="cls-07" cx="81.56" cy="4.69" r="1.72"/>
<circle class="cls-08" cx="1752.28" cy="48.91" r="1.72"/>
<circle class="cls-11" cx="758.59" cy="17.43" r="1.72"/>
<circle class="cls-10" cx="1109.04" cy="28.58" r="1.72"/>
<circle class="cls-11" cx="1516.7" cy="86.79" r="1.72"/>
<circle class="cls-09" cx="1517.09" cy="17.57" r="1.73"/>
<circle class="cls-10" cx="282.28" cy="16.63" r="1.72"/>
<circle class="cls-09" cx="1790.35" cy="47.61" r="1.72"/>
<circle class="cls-09" cx="1682.74" cy="81.57" r="1.72"/>
<circle class="cls-11" cx="1746.36" cy="19.59" r="1.72"/>
<circle class="cls-10" cx="533.57" cy="32" r="1.72"/>
<circle class="cls-07" cx="1413.78" cy="11.12" r="1.72"/>
<circle class="cls-12" cx="1426.7" cy="24.06" r="1.73"/>
<circle class="cls-12" cx="1271.81" cy="28.69" r="1.73"/>
<circle class="cls-09" cx="530.54" cy="39.45" r="1.72"/>
<circle class="cls-10" cx="473.28" cy="16.46" r="1.72"/>
<circle class="cls-11" cx="501.81" cy="34.54" r="1.73"/>
<circle class="cls-08" cx="1478.78" cy="67.48" r="1.72"/>
<circle class="cls-08" cx="1510.28" cy="28.28" r="1.72"/>
<circle class="cls-11" cx="135.9" cy="71.16" r="1.72"/>
<circle class="cls-08" cx="720.57" cy="69" r="1.72"/>
<circle class="cls-09" cx="397.03" cy="20.89" r="1.72"/>
<circle class="cls-08" cx="375.66" cy="75.18" r="1.72"/>
<circle class="cls-07" cx="1134" cy="49.28" r="1.72"/>
<circle class="cls-09" cx="1274.27" cy="12.84" r="1.73"/>
<circle class="cls-07" cx="1491.27" cy="66.99" r="1.73"/>
<circle class="cls-12" cx="1545.4" cy="537.92" r="1.95"/>
<circle class="cls-08" cx="443.32" cy="1418.61" r="1.95"/>
<circle class="cls-07" cx="579.24" cy="1216.85" r="1.95"/>
<circle class="cls-11" cx="106.57" cy="447.64" r="1.95"/>
<circle class="cls-12 blinking3" cx="542" cy="364.11" r="2"/>
<circle class="cls-07 blinking3" cx="837.54" cy="763.94" r="2"/>
<circle class="cls-07 blinking3" cx="1223.2" cy="1250.81" r="2"/>
<circle class="cls-12 blinking5" cx="1212.51" cy="154.13" r="2.51"/>
<circle class="cls-12 blinking4" cx="764.29" cy="672.11" r="2.51"/>
<circle class="cls-09 blinking5" cx="817.95" cy="634.16" r="2.51"/>
<circle class="cls-11 blinking5" cx="462.56" cy="947.5" r="2.5"/>
<circle class="cls-12 blinking2" cx="830.08" cy="1181.58" r="2.51"/>
<circle class="cls-11 blinking5" cx="93.97" cy="1296.61" r="2.51"/>
<circle class="cls-11 blinking1" cx="1150.08" cy="501.2" r="2.51"/>
<circle class="cls-11 blinking2" cx="1405.42" cy="646.14" r="2.58"/>
<circle class="cls-07 blinking2" cx="1381.14" cy="659.45" r="2.58"/>
<circle class="cls-07 blinking4" cx="1317.64" cy="714.3" r="2.58"/>
<circle class="cls-07 blinking1" cx="1682.66" cy="512" r="2.58"/>
<circle class="cls-12 blinking5" cx="1504.87" cy="580.2" r="2.58"/>
<circle class="cls-09 blinking3" cx="1827.75" cy="173.34" r="2.58"/>
<circle class="cls-08 blinking3" cx="1216.06" cy="749.07" r="2.58"/>
<circle class="cls-10 blinking3" cx="1154.06" cy="821.15" r="2.58"/>
<circle class="cls-07 blinking5" cx="1216.64" cy="867.5" r="2.58"/>
<circle class="cls-12 blinking5" cx="1270.51" cy="950.66" r="2.58"/>
<circle class="cls-07 blinking4" cx="527.92" cy="669.38" r="2.58"/>
<circle class="cls-07 blinking3" cx="258.58" cy="1095.63" r="2.58"/>
<circle class="cls-12 blinking3" cx="501.82" cy="1294.14" r="2.58"/>
<circle class="cls-08 blinking4" cx="720.93" cy="900.8" r="2.58"/>
<circle class="cls-12 blinking1" cx="715.31" cy="994" r="2.58"/>
<circle class="cls-09 blinking3" cx="544.13" cy="1071.89" r="2.58"/>
<circle class="cls-11 blinking1" cx="478.74" cy="1132.62" r="2.58"/>
<circle class="cls-09 blinking3" cx="493.65" cy="1261.16" r="2.58"/>
<circle class="cls-10 blinking2" cx="316.65" cy="1120.86" r="2.58"/>
<circle class="cls-08 blinking3" cx="923.58" cy="1101.45" r="2.58"/>
<circle class="cls-11 blinking5" cx="1103.01" cy="1221" r="2.58"/>
<circle class="cls-08 blinking2" cx="1778.19" cy="1326.87" r="2.58"/>
<circle class="cls-10 blinking3" cx="1914.18" cy="1382.62" r="2.58"/>
<circle class="cls-07 blinking3" cx="1484.1" cy="436.54" r="2.58"/>
<circle class="cls-08 blinking1" cx="1436.31" cy="504.7" r="2.58"/>
<circle class="cls-11 blinking1" cx="1239.31" cy="484.21" r="2.58"/>
<circle class="cls-08 blinking2" cx="1270.46" cy="344.47" r="2.58"/>
<circle class="cls-09 blinking2" cx="1082.67" cy="412.63" r="2.58"/>
<circle class="cls-10 blinking2" cx="1035.68" cy="392.14" r="2.58"/>
<circle class="cls-11 blinking4" cx="622.25" cy="488.13" r="2.58"/>
<circle class="cls-07 blinking5" cx="1718.47" cy="311.82" r="2.58"/>
<circle class="cls-11 blinking5" cx="1425.73" cy="371.9" r="2.58"/>
<circle class="cls-07 blinking2" cx="1262" cy="329.45" r="2.58"/>
<circle class="cls-10 blinking5" cx="1292.93" cy="243.66" r="2.58"/>
<circle class="cls-11 blinking4" cx="1229.85" cy="233.46" r="2.58"/>
<circle class="cls-07 blinking4" cx="1087.46" cy="281.78" r="2.58"/>
<circle class="cls-08 blinking1" cx="929.67" cy="349.94" r="2.58"/>
<circle class="cls-12 blinking3" cx="898.65" cy="254" r="2.58"/>
<circle class="cls-12 blinking1" cx="816.97" cy="481.19" r="2.58"/>
<circle class="cls-09 blinking1" cx="750.96" cy="439" r="2.58"/>
<circle class="cls-09 blinking4" cx="553.97" cy="418.5" r="2.58"/>
<circle class="cls-10 blinking4" cx="472.68" cy="512.69" r="2.58"/>
<circle class="cls-09 blinking4" cx="544.96" cy="525.35" r="2.58"/>
<circle class="cls-09 blinking1" cx="254.58" cy="473.76" r="2.58"/>
<circle class="cls-08 blinking4" cx="253.24" cy="196.64" r="2.58"/>
<circle class="cls-10 blinking3" cx="1809.45" cy="656.01" r="2.51"/>
<circle class="cls-09 blinking2" cx="1419.51" cy="784.71" r="2.51"/>
<circle class="cls-09 blinking2" cx="279.51" cy="1030.01" r="2.51"/>
<circle class="cls-08 blinking5" cx="71.83" cy="1371.01" r="2.51"/>
<circle class="cls-07 blinking3" cx="1413.59" cy="1308.67" r="2.5"/>
<circle class="cls-09 blinking5" cx="1540.51" cy="1423.79" r="2.51"/>
<circle class="cls-11 blinking4" cx="1310.46" cy="118.93" r="2.58"/>
<circle class="cls-07 blinking2" cx="1535.73" cy="146.36" r="2.58"/>
<circle class="cls-09 blinking5" cx="1342" cy="103.91" r="2.58"/>
<circle class="cls-11 blinking3" cx="1167.46" cy="56.24" r="2.58"/>
<circle class="cls-12 blinking2" cx="1009.67" cy="124.4" r="2.58"/>
<circle class="cls-11 blinking3" cx="1033.86" cy="1434.25" r="2.5"/>
<circle class="cls-11 blinking5" cx="138.94" cy="1435.23" r="2.58"/>
<circle class="cls-08 blinking1" cx="1367.07" cy="1426.49" r="2.58"/>
<circle class="cls-11 blinking4" cx="317.19" cy="3.56" r="2.5"/>
<circle class="cls-07 blinking4" cx="1643.68" cy="87" r="2.58"/>
<circle class="cls-11 blinking1" cx="1717.78" cy="40" r="2.58"/>
<circle class="cls-08 blinking3" cx="1352.12" cy="2.58" r="2.58"/>
<circle class="cls-10 blinking1" cx="379.24" cy="38.75" r="2.58"/>
<circle class="cls-12 blinking4" cx="163.98" cy="11.32" r="2.58"/>
<circle class="cls-10 blinking1" cx="337.71" cy="53.76" r="2.58"/>
<circle class="cls-08 blinking1" cx="660.03" cy="33.28" r="2.58"/>
<circle class="cls-02 blinking2" cx="1352.08" cy="503.81" r="3.88"/>
<circle class="cls-04 blinking5" cx="-50.74" cy="258.93" r="4.45"/>
<circle class="cls-02 blinking4" cx="756.45" cy="127.68" r="4.45"/>
<circle class="cls-03 blinking5" cx="1779.03" cy="82.35" r="4.45"/>
<circle class="cls-02 blinking4" cx="-51.25" cy="71.15" r="4.46"/>
<circle class="cls-01 blinking1" cx="3.1" cy="1422.4" r="4.46"/>
<circle class="cls-05 blinking3" cx="1390.45" cy="1424.63" r="4.45"/>
<circle class="cls-06 blinking4" cx="1890.89" cy="1417.92" r="4.46"/>
<circle class="cls-04 blinking1" cx="850.02" cy="457" r="4.45"/>
<circle class="cls-02 blinking2" cx="1085.73" cy="992.23" r="4.45"/>
<circle class="cls-04 blinking1" cx="537.8" cy="1407.82" r="4.46"/>
<circle class="cls-06 blinking5" cx="1652.02" cy="1430.34" r="4.45"/>
<circle class="cls-04 blinking1" cx="1581.27" cy="1309.24" r="4.45"/>
<circle class="cls-01 blinking2" cx="1450.17" cy="1087.84" r="4.45"/>
<circle class="cls-01 blinking2" cx="16.81" cy="1030.25" r="4.45"/>
<circle class="cls-02 blinking5" cx="279.33" cy="1381.06" r="4.45"/>
<circle class="cls-03 blinking2" cx="933.26" cy="30" r="4.45"/>
<circle class="cls-05 blinking2" cx="1562.53" cy="937.16" r="5.17"/>
<circle class="cls-03 blinking4" cx="551.5" cy="855.58" r="5.17"/>
<circle class="cls-05 blinking2" cx="839.37" cy="159.77" r="5.17"/>
<circle class="cls-04 blinking3" cx="560.72" cy="1439.92" r="5.18"/>
<circle class="cls-06 blinking2" cx="1273.05" cy="1354.01" r="5.18"/>
<circle class="cls-01 blinking4" cx="1849.68" cy="556" r="5.17"/>
<circle class="cls-01 blinking1" cx="75.45" cy="676.5" r="5.17"/>
<circle class="cls-06 blinking4" cx="1453.5" cy="1137.09" r="7.28"/>
</svg>