<svg xmlns="http://www.w3.org/2000/svg" viewBox="0 0 1918 1445.08">
<defs>
<style>.cls-01{fill:url('#cls-01');}.cls-02{fill:url('#cls-02');}.cls-03{fill:url('#cls-03');}.cls-04{fill:url('#cls-04');}.cls-05{fill:url('#cls-05');}.cls-06{fill:url('#cls-06');}.cls-07{fill:url('#cls-07');}.cls-08{fill:url('#cls-08');}.cls-09{fill:url('#cls-09');}.cls-10{fill:url('#cls-10');}.cls-11{fill:url('#cls-11');}.cls-12{fill:url('#cls-12');}.blinking1{-webkit-animation:blinking1 5s linear infinite;animation:blinking1 5s linear infinite;}.blinking2{-webkit-animation:blinking2 5s linear infinite;animation:blinking2 5s linear infinite;}.blinking3{-webkit-animation:blinking3 5s linear infinite;animation:blinking3 5s linear infinite;}.blinking4{-webkit-animation:blinking4 5s linear infinite;animation:blinking4 5s linear infinite;}.blinking5{-webkit-animation:blinking5 5s linear infinite;animation:blinking5 5s linear infinite;}@-webkit-keyframes blinking1{0%{opacity:0;}20%{opacity:0;}50%{opacity:1;}80%{opacity:0;}100%{opacity:0;}}@-webkit-keyframes blinking2{0%{opacity:0;}40%{opacity:0;}70%{opacity:1;}100%{opacity:0;}}@-webkit-keyframes blinking3{0%{opacity:0.6667;}20%{opacity:0;}60%{opacity:0;}90%{opacity:1;}100%{opacity:0.6667;}}@-webkit-keyframes blinking4{0%{opacity:0.6667;}10%{opacity:1;}40%{opacity:0;}80%{opacity:0;}100%{opacity:0.6667;}}@-webkit-keyframes blinking5{0%{opacity:0;}30%{opacity:1;}60%{opacity:0;}100%{opacity:0;}}@keyframes blinking1{0%{opacity:0;}20%{opacity:0;}50%{opacity:1;}80%{opacity:0;}100%{opacity:0;}}@keyframes blinking2{0%{opacity:0;}40%{opacity:0;}70%{opacity:1;}100%{opacity:0;}}@keyframes blinking3{0%{opacity:0.6667;}20%{opacity:0;}60%{opacity:0;}90%{opacity:1;}100%{opacity:0.6667;}}@keyframes blinking4{0%{opacity:0.6667;}10%{opacity:1;}40%{opacity:0;}80%{opacity:0;}100%{opacity:0.6667;}}@keyframes blinking5{0%{opacity:0;}30%{opacity:1;}60%{opacity:0;}100%{opacity:0;}}</style>
<radialGradient id="cls-01"><stop offset="25%" stop-color="#c6e6f3"/><stop offset="95%" stop-color="rgba(198,230,243,0.1)"/></radialGradient>
<radialGradient id="cls-02"><stop offset="25%" stop-color="#68cdf3"/><stop offset="95%" stop-color="rgba(104,205,243,0.1)"/></radialGradient>
<radialGradient id="cls-03"><stop offset="25%" stop-color="#ffffff"/><stop offset="95%" stop-color="rgba(255,255,255,0.1)"/></radialGradient>
<radialGradient id="cls-04"><stop offset="25%" stop-color="#ffe779"/><stop offset="95%" stop-color="rgba(255,231,121,0.1)"/></radialGradient>
<radialGradient id="cls-05"><stop offset="25%" stop-color="#dd503f"/><stop offset="95%" stop-color="rgba(221,80,63,0.1)"/></radialGradient>
<radialGradient id="cls-06"><stop offset="25%" stop-color="#51c3d4"/><stop offset="95%" stop-color="rgba(81,195,212,0.1)"/></radialGradient>
<radialGradient id="cls-07"><stop offset="0%" stop-color="#c6e6f3"/><stop offset="70%" stop-color="rgba(198,230,243,0.1)"/></radialGradient>
<radialGradient id="cls-08"><stop offset="0%" stop-color="#68cdf3"/><stop offset="70%" stop-color="rgba(104,205,243,0.1)"/></radialGradient>
<radialGradient id="cls-09"><stop offset="0%" stop-color="#ffffff"/><stop offset="70%" stop-color="rgba(255,255,255,0.1)"/></radialGradient>
<radialGradient id="cls-10"><stop offset="0%" stop-color="#ffe779"/><stop offset="70%" stop-color="rgba(255,231,121,0.1)"/></radialGradient>
<radialGradient id="cls-11"><stop offset="0%" stop-color="#dd503f"/><stop offset="70%" stop-color="rgba(221,80,63,0.1)"/></radialGradient>
<radialGradient id="cls-12"><stop offset="0%" stop-color="#51c3d4"/><stop offset="70%" stop-color="rgba(81,195,212,0.1)"/></radialGradient>
</defs>
<title>stars</title>
<circle class="cls-12" cx="1366" cy="467.3" r="1"/>
<circle class="cls-12" cx="1309.9" cy="366.43" r="1"/>
<circle class="cls-07" cx="1294.28" cy="407.81" r="1"/>
<circle class="cls-11" cx="1295.8" cy="482.26" r="1"/>
<circle class="cls-07" cx="1147.55" cy="542.34" r="1"/>
<circle class="cls-08" cx="1369.65" cy="466.58" r="1"/>
<circle class="cls-12" cx="1647.15" cy="577.66" r="1"/>
<circle class="cls-09" cx="1601" cy="476.79" r="1"/>
<circle class="cls-07" cx="1405.41" cy="518.17" r="1"/>
<circle class="cls-09" cx="1620.78" cy="576.93" r="1"/>
<circle class="cls-11" cx="1341.67" cy="284.46" r="1"/>
<circle class="cls-10" cx="1305.55" cy="183.58" r="1"/>
<circle class="cls-12" cx="1289.92" cy="225" r="1"/>
<circle class="cls-10" cx="1255.3" cy="283.73" r="1"/>
<circle class="cls-10" cx="823" cy="388.29" r="1"/>
<circle class="cls-07" cx="946.91" cy="287.42" r="1"/>
<circle class="cls-08" cx="791.28" cy="328.8" r="1"/>
<circle class="cls-08" cx="936.65" cy="387.57" r="1"/>
<circle class="cls-07" cx="1083.47" cy="658.63" r="1"/>
<circle class="cls-08" cx="1007.35" cy="557.75" r="1"/>
<circle class="cls-07" cx="841.72" cy="599.14" r="1"/>
<circle class="cls-12" cx="997.09" cy="657.9" r="1"/>
<circle class="cls-11" cx="406.09" cy="1288.11" r="1"/>
<circle class="cls-07" cx="430" cy="1187.24" r="1"/>
<circle class="cls-11" cx="164.34" cy="1228.62" r="1"/>
<circle class="cls-10" cx="259.71" cy="1287.39" r="1"/>
<circle class="cls-10" cx="848.61" cy="1221.49" r="1"/>
<circle class="cls-09" cx="762.49" cy="1120.62" r="1"/>
<circle class="cls-07" cx="666.86" cy="1162" r="1"/>
<circle class="cls-10" cx="722.24" cy="1220.77" r="1"/>
<circle class="cls-12" cx="1238.65" cy="1260.67" r="1"/>
<circle class="cls-08" cx="1102.53" cy="1159.8" r="1"/>
<circle class="cls-11" cx="1076.9" cy="1201.18" r="1"/>
<circle class="cls-11" cx="1091" cy="1289.33" r="1"/>
<circle class="cls-10" cx="1422.47" cy="1239.14" r="1"/>
<circle class="cls-07" cx="1406.35" cy="1138.26" r="1"/>
<circle class="cls-07" cx="1390.73" cy="1179.65" r="1"/>
<circle class="cls-12" cx="1416.1" cy="1238.41" r="1"/>
<circle class="cls-07" cx="466.51" cy="463.4" r="1"/>
<circle class="cls-08" cx="480.39" cy="362.53" r="1"/>
<circle class="cls-08" cx="344.77" cy="403.91" r="1"/>
<circle class="cls-07" cx="540.14" cy="462.68" r="1"/>
<circle class="cls-08" cx="106.48" cy="255.75" r="1"/>
<circle class="cls-10" cx="210.36" cy="154.88" r="1"/>
<circle class="cls-11" cx="63.47" cy="196.26" r="1"/>
<circle class="cls-11" cx="180.1" cy="255" r="1"/>
<circle class="cls-08" cx="1126.13" cy="977.21" r="1"/>
<circle class="cls-12" cx="696" cy="628.11" r="1"/>
<circle class="cls-07" cx="773.36" cy="936.74" r="1"/>
<circle class="cls-08" cx="1399.9" cy="140.89" r="1"/>
<circle class="cls-08" cx="1381.67" cy="58.92" r="1"/>
<circle class="cls-12" cx="1315.3" cy="58.2" r="1"/>
<circle class="cls-10" cx="936.91" cy="61.88" r="1"/>
<circle class="cls-07" cx="701.28" cy="103.26" r="1"/>
<circle class="cls-10" cx="530.39" cy="137" r="1"/>
<circle class="cls-08" cx="1161.25" cy="1421" r="1"/>
<circle class="cls-12" cx="301.74" cy="1417.12" r="1"/>
<circle class="cls-09" cx="1775.16" cy="100.09" r="1"/>
<circle class="cls-09" cx="1960.78" cy="58.71" r="1"/>
<circle class="cls-12" cx="1569.34" cy="2.8" r="1"/>
<circle class="cls-12" cx="299.8" cy="16.79" r="1"/>
<circle class="cls-07" cx="938.43" cy="54.42" r="1"/>
<circle class="cls-12" cx="1129.31" cy="20.69" r="1"/>
<circle class="cls-12" cx="1095.06" cy="650.99" r="1.72"/>
<circle class="cls-07" cx="1417.72" cy="471" r="1.72"/>
<circle class="cls-12" cx="1515.78" cy="595.7" r="1.72"/>
<circle class="cls-09" cx="1285.14" cy="575.59" r="1.72"/>
<circle class="cls-12" cx="1280.99" cy="728.28" r="1.72"/>
<circle class="cls-11" cx="1202.36" cy="674" r="1.72"/>
<circle class="cls-07" cx="1293.83" cy="396.66" r="1.72"/>
<circle class="cls-09" cx="1391.13" cy="419.65" r="1.72"/>
<circle class="cls-08" cx="1372.55" cy="401.55" r="1.72"/>
<circle class="cls-11" cx="1199.17" cy="343.76" r="1.72"/>
<circle class="cls-07" cx="1156.47" cy="366.76" r="1.72"/>
<circle class="cls-12" cx="1127.89" cy="348.66" r="1.72"/>
<circle class="cls-08" cx="180.23" cy="420.17" r="1.73"/>
<circle class="cls-09" cx="237.52" cy="443.16" r="1.72"/>
<circle class="cls-07" cx="98.94" cy="425.06" r="1.72"/>
<circle class="cls-07" cx="1012.57" cy="418.2" r="1.72"/>
<circle class="cls-07" cx="1169.87" cy="441.2" r="1.72"/>
<circle class="cls-12" cx="971.29" cy="423.1" r="1.72"/>
<circle class="cls-09" cx="1137.72" cy="572.36" r="1.72"/>
<circle class="cls-12" cx="1165.05" cy="595.35" r="1.72"/>
<circle class="cls-07" cx="1358.72" cy="858" r="1.72"/>
<circle class="cls-12" cx="1268.29" cy="782" r="1.72"/>
<circle class="cls-12" cx="850.87" cy="719.94" r="1.73"/>
<circle class="cls-11" cx="1045.63" cy="709.58" r="1.72"/>
<circle class="cls-11" cx="694.81" cy="815.87" r="1.72"/>
<circle class="cls-09" cx="802.11" cy="838.86" r="1.72"/>
<circle class="cls-10" cx="703.53" cy="820.77" r="1.72"/>
<circle class="cls-09" cx="625.32" cy="1292.22" r="1.73"/>
<circle class="cls-11" cx="752.61" cy="1315.2" r="1.72"/>
<circle class="cls-08" cx="664.03" cy="1297.11" r="1.72"/>
<circle class="cls-09" cx="1115.22" cy="1311.29" r="1.72"/>
<circle class="cls-10" cx="949.39" cy="1331.12" r="1.72"/>
<circle class="cls-12" cx="501.06" cy="844.65" r="1.72"/>
<circle class="cls-08" cx="698.36" cy="867.65" r="1.72"/>
<circle class="cls-11" cx="479.78" cy="849.55" r="1.72"/>
<circle class="cls-10" cx="949.17" cy="642.07" r="1.72"/>
<circle class="cls-11" cx="629.73" cy="740.48" r="1.73"/>
<circle class="cls-07" cx="1168.23" cy="824.79" r="1.72"/>
<circle class="cls-10" cx="889.9" cy="948" r="1.72"/>
<circle class="cls-10" cx="1608.15" cy="153" r="1.72"/>
<circle class="cls-10" cx="729.89" cy="284" r="1.72"/>
<circle class="cls-08" cx="210.93" cy="315.74" r="1.72"/>
<circle class="cls-12" cx="99.4" cy="354.92" r="1.72"/>
<circle class="cls-08" cx="1468.38" cy="234.77" r="1.72"/>
<circle class="cls-10" cx="861.11" cy="140.25" r="1.72"/>
<circle class="cls-08" cx="132.47" cy="1060.13" r="1.72"/>
<circle class="cls-12" cx="1744.07" cy="1370.57" r="1.72"/>
<circle class="cls-12" cx="1734.07" cy="1260.87" r="1.72"/>
<circle class="cls-08" cx="10" cy="150.97" r="1.72"/>
<circle class="cls-10" cx="31.72" cy="464.87" r="1.72"/>
<circle class="cls-11" cx="598.73" cy="519.17" r="1.73"/>
<circle class="cls-09" cx="1308.55" cy="440.75" r="1.72"/>
<circle class="cls-07" cx="1563.8" cy="312.06" r="1.72"/>
<circle class="cls-07" cx="1665.09" cy="222.31" r="1.72"/>
<circle class="cls-10" cx="1594.01" cy="196.9" r="1.73"/>
<circle class="cls-11" cx="1623.61" cy="266.12" r="1.73"/>
<circle class="cls-11" cx="1743.29" cy="124.84" r="1.72"/>
<circle class="cls-10" cx="1423.38" cy="760.45" r="1.72"/>
<circle class="cls-10" cx="1517.72" cy="746.5" r="1.72"/>
<circle class="cls-10" cx="1029.13" cy="314.2" r="1.72"/>
<circle class="cls-12" cx="844.34" cy="446.78" r="1.72"/>
<circle class="cls-08" cx="765.72" cy="392.49" r="1.72"/>
<circle class="cls-12" cx="741.58" cy="543.29" r="1.72"/>
<circle class="cls-10" cx="1031.1" cy="465" r="1.72"/>
<circle class="cls-10" cx="1347.47" cy="141.05" r="1.72"/>
<circle class="cls-08" cx="1212.72" cy="362.33" r="1.72"/>
<circle class="cls-11" cx="1184.05" cy="308" r="1.72"/>
<circle class="cls-09" cx="1310.36" cy="236.07" r="1.72"/>
<circle class="cls-09" cx="1374.34" cy="264.09" r="1.72"/>
<circle class="cls-07" cx="1126.14" cy="125.66" r="1.72"/>
<circle class="cls-07" cx="1169.92" cy="458.84" r="1.72"/>
<circle class="cls-07" cx="1429.44" cy="380.55" r="1.72"/>
<circle class="cls-09" cx="1750.72" cy="571.44" r="1.72"/>
<circle class="cls-11" cx="1532.06" cy="517.15" r="1.72"/>
<circle class="cls-10" cx="1557.93" cy="668" r="1.72"/>
<circle class="cls-12" cx="1887.46" cy="589.66" r="1.72"/>
<circle class="cls-10" cx="1658.54" cy="788.72" r="1.72"/>
<circle class="cls-11" cx="1728.08" cy="774.84" r="1.72"/>
<circle class="cls-11" cx="1634.05" cy="796.33" r="1.72"/>
<circle class="cls-09" cx="1913.27" cy="908.64" r="1.72"/>
<circle class="cls-10" cx="1843.89" cy="1031.4" r="1.72"/>
<circle class="cls-11" cx="1938.9" cy="972.63" r="1.72"/>
<circle class="cls-08" cx="1927.99" cy="1095.39" r="1.72"/>
<circle class="cls-11" cx="1725.39" cy="772.82" r="1.72"/>
<circle class="cls-08" cx="1923.61" cy="323.48" r="1.72"/>
<circle class="cls-10" cx="1917.13" cy="758.27" r="1.73"/>
<circle class="cls-07" cx="1703.9" cy="814.62" r="1.72"/>
<circle class="cls-10" cx="1861.72" cy="866.85" r="1.72"/>
<circle class="cls-11" cx="1836.72" cy="881.22" r="1.72"/>
<circle class="cls-08" cx="1725.88" cy="936.07" r="1.73"/>
<circle class="cls-08" cx="1946.28" cy="1372.89" r="1.72"/>
<circle class="cls-09" cx="997.55" cy="919.42" r="1.72"/>
<circle class="cls-07" cx="863.56" cy="1017.06" r="1.72"/>
<circle class="cls-08" cx="710" cy="1268.33" r="1.72"/>
<circle class="cls-09" cx="1109.52" cy="1070.22" r="1.72"/>
<circle class="cls-10" cx="1311.22" cy="1040.07" r="1.72"/>
<circle class="cls-12" cx="1216.43" cy="1292.46" r="1.72"/>
<circle class="cls-07" cx="1137.8" cy="1118.36" r="1.72"/>
<circle class="cls-09" cx="1463.19" cy="1194.64" r="1.72"/>
<circle class="cls-08" cx="1033.72" cy="1388.99" r="1.72"/>
<circle class="cls-07" cx="1473.2" cy="1310.69" r="1.73"/>
<circle class="cls-07" cx="1614.25" cy="1066.21" r="1.72"/>
<circle class="cls-10" cx="1600.72" cy="1318.6" r="1.72"/>
<circle class="cls-11" cx="1492.12" cy="1264.32" r="1.73"/>
<circle class="cls-07" cx="1475.72" cy="1384.6" r="1.72"/>
<circle class="cls-11" cx="1777.51" cy="1336.82" r="1.72"/>
<circle class="cls-10" cx="470.78" cy="924.32" r="1.72"/>
<circle class="cls-10" cx="449.72" cy="1062.05" r="1.72"/>
<circle class="cls-12" cx="281.13" cy="1007.77" r="1.72"/>
<circle class="cls-12" cx="227" cy="1278.38" r="1.72"/>
<circle class="cls-09" cx="473.13" cy="1081" r="1.72"/>
<circle class="cls-12" cx="94.31" cy="603.72" r="1.72"/>
<circle class="cls-07" cx="478.89" cy="292.08" r="1.72"/>
<circle class="cls-12" cx="414.1" cy="424.66" r="1.72"/>
<circle class="cls-08" cx="1703.47" cy="866.2" r="1.72"/>
<circle class="cls-11" cx="1615.84" cy="729.73" r="1.72"/>
<circle class="cls-08" cx="1786.72" cy="943.91" r="1.72"/>
<circle class="cls-10" cx="345.72" cy="334" r="1.72"/>
<circle class="cls-11" cx="163" cy="133.61" r="1.72"/>
<circle class="cls-11" cx="389.96" cy="464.62" r="1.72"/>
<circle class="cls-08" cx="620.87" cy="442.89" r="1.73"/>
<circle class="cls-07" cx="1435.23" cy="897.18" r="1.72"/>
<circle class="cls-10" cx="1527.59" cy="639.93" r="1.72"/>
<circle class="cls-10" cx="89.03" cy="1137.17" r="1.72"/>
<circle class="cls-08" cx="27.16" cy="1220.75" r="1.72"/>
<circle class="cls-10" cx="829.89" cy="1340.84" r="1.72"/>
<circle class="cls-09" cx="747.92" cy="937.39" r="1.72"/>
<circle class="cls-10" cx="1057.4" cy="838.86" r="1.72"/>
<circle class="cls-08" cx="54.63" cy="1264.43" r="1.72"/>
<circle class="cls-09" cx="82.72" cy="1389.1" r="1.72"/>
<circle class="cls-09" cx="144.4" cy="996" r="1.72"/>
<circle class="cls-07" cx="463.41" cy="766.99" r="1.72"/>
<circle class="cls-11" cx="422.17" cy="601.74" r="1.73"/>
<circle class="cls-09" cx="78.4" cy="316.2" r="1.72"/>
<circle class="cls-12" cx="127.9" cy="730.05" r="1.72"/>
<circle class="cls-11" cx="349.31" cy="860.92" r="1.72"/>
<circle class="cls-09" cx="347.95" cy="710.46" r="1.72"/>
<circle class="cls-09" cx="888.82" cy="548.84" r="1.72"/>
<circle class="cls-12" cx="699.42" cy="685.99" r="1.72"/>
<circle class="cls-07" cx="1631.48" cy="919.69" r="1.72"/>
<circle class="cls-10" cx="1870.04" cy="1128.72" r="1.72"/>
<circle class="cls-09" cx="1330.01" cy="1035.27" r="1.72"/>
<circle class="cls-11" cx="1392.11" cy="1242.36" r="1.72"/>
<circle class="cls-11" cx="315.73" cy="1160.69" r="1.73"/>
<circle class="cls-11" cx="1069.17" cy="118.23" r="1.72"/>
<circle class="cls-09" cx="1096.47" cy="141.22" r="1.72"/>
<circle class="cls-11" cx="1147.89" cy="123.13" r="1.72"/>
<circle class="cls-08" cx="689.89" cy="58.5" r="1.72"/>
<circle class="cls-08" cx="79.4" cy="129.38" r="1.72"/>
<circle class="cls-09" cx="1443.8" cy="86.52" r="1.72"/>
<circle class="cls-07" cx="1029.13" cy="88.66" r="1.72"/>
<circle class="cls-09" cx="1312.72" cy="136.79" r="1.72"/>
<circle class="cls-09" cx="1214.05" cy="82.5" r="1.72"/>
<circle class="cls-11" cx="478.89" cy="66.54" r="1.72"/>
<circle class="cls-09" cx="218.4" cy="90.72" r="1.72"/>
<circle class="cls-08" cx="1369.49" cy="1433.12" r="1.72"/>
<circle class="cls-07" cx="672.46" cy="1420.38" r="1.72"/>
<circle class="cls-10" cx="1148.82" cy="1421.18" r="1.72"/>
<circle class="cls-09" cx="97.27" cy="1426.69" r="1.72"/>
<circle class="cls-12" cx="75.8" cy="1413.72" r="1.72"/>
<circle class="cls-09" cx="937.81" cy="1421.35" r="1.72"/>
<circle class="cls-10" cx="1084.02" cy="1416.92" r="1.72"/>
<circle class="cls-11" cx="196.82" cy="1424.99" r="1.72"/>
<circle class="cls-07" cx="51.56" cy="4.69" r="1.72"/>
<circle class="cls-10" cx="1702.28" cy="48.91" r="1.72"/>
<circle class="cls-11" cx="778.59" cy="17.43" r="1.72"/>
<circle class="cls-07" cx="1079.04" cy="28.58" r="1.72"/>
<circle class="cls-09" cx="1396.7" cy="86.79" r="1.72"/>
<circle class="cls-10" cx="1607.09" cy="17.57" r="1.73"/>
<circle class="cls-09" cx="292.28" cy="16.63" r="1.72"/>
<circle class="cls-12" cx="1910.35" cy="47.61" r="1.72"/>
<circle class="cls-12" cx="1652.74" cy="81.57" r="1.72"/>
<circle class="cls-09" cx="1696.36" cy="19.59" r="1.72"/>
<circle class="cls-09" cx="473.57" cy="32" r="1.72"/>
<circle class="cls-12" cx="1323.78" cy="11.12" r="1.72"/>
<circle class="cls-09" cx="1496.7" cy="24.06" r="1.73"/>
<circle class="cls-07" cx="1181.81" cy="28.69" r="1.73"/>
<circle class="cls-11" cx="570.54" cy="39.45" r="1.72"/>
<circle class="cls-10" cx="453.28" cy="16.46" r="1.72"/>
<circle class="cls-10" cx="541.81" cy="34.54" r="1.73"/>
<circle class="cls-08" cx="1448.78" cy="67.48" r="1.72"/>
<circle class="cls-10" cx="1590.28" cy="28.28" r="1.72"/>
<circle class="cls-07" cx="175.9" cy="71.16" r="1.72"/>
<circle class="cls-12" cx="720.57" cy="69" r="1.72"/>
<circle class="cls-11" cx="297.03" cy="20.89" r="1.72"/>
<circle class="cls-09" cx="515.66" cy="75.18" r="1.72"/>
<circle class="cls-11" cx="1234" cy="49.28" r="1.72"/>
<circle class="cls-12" cx="1274.27" cy="12.84" r="1.73"/>
<circle class="cls-08" cx="1431.27" cy="66.99" r="1.73"/>
<circle class="cls-09" cx="1665.4" cy="537.92" r="1.95"/>
<circle class="cls-08" cx="453.32" cy="1418.61" r="1.95"/>
<circle class="cls-09" cx="519.24" cy="1216.85" r="1.95"/>
<circle class="cls-07" cx="36.57" cy="447.64" r="1.95"/>
<circle class="cls-08 blinking5" cx="552" cy="364.11" r="2"/>
<circle class="cls-08 blinking5" cx="817.54" cy="763.94" r="2"/>
<circle class="cls-08 blinking2" cx="1253.2" cy="1250.81" r="2"/>
<circle class="cls-08 blinking3" cx="1212.51" cy="154.13" r="2.51"/>
<circle class="cls-08 blinking2" cx="814.29" cy="672.11" r="2.51"/>
<circle class="cls-10 blinking1" cx="727.95" cy="634.16" r="2.51"/>
<circle class="cls-08 blinking1" cx="382.56" cy="947.5" r="2.5"/>
<circle class="cls-10 blinking3" cx="710.08" cy="1181.58" r="2.51"/>
<circle class="cls-08 blinking3" cx="33.97" cy="1296.61" r="2.51"/>
<circle class="cls-11 blinking4" cx="1130.08" cy="501.2" r="2.51"/>
<circle class="cls-12 blinking2" cx="1345.42" cy="646.14" r="2.58"/>
<circle class="cls-10 blinking1" cx="1261.14" cy="659.45" r="2.58"/>
<circle class="cls-10 blinking4" cx="1227.64" cy="714.3" r="2.58"/>
<circle class="cls-09 blinking4" cx="1642.66" cy="512" r="2.58"/>
<circle class="cls-07 blinking1" cx="1494.87" cy="580.2" r="2.58"/>
<circle class="cls-11 blinking5" cx="1757.75" cy="173.34" r="2.58"/>
<circle class="cls-12 blinking1" cx="1216.06" cy="749.07" r="2.58"/>
<circle class="cls-09 blinking4" cx="1124.06" cy="821.15" r="2.58"/>
<circle class="cls-09 blinking4" cx="1126.64" cy="867.5" r="2.58"/>
<circle class="cls-10 blinking2" cx="1310.51" cy="950.66" r="2.58"/>
<circle class="cls-11 blinking3" cx="507.92" cy="669.38" r="2.58"/>
<circle class="cls-08 blinking1" cx="288.58" cy="1095.63" r="2.58"/>
<circle class="cls-10 blinking1" cx="481.82" cy="1294.14" r="2.58"/>
<circle class="cls-11 blinking3" cx="730.93" cy="900.8" r="2.58"/>
<circle class="cls-07 blinking4" cx="715.31" cy="994" r="2.58"/>
<circle class="cls-11 blinking5" cx="494.13" cy="1071.89" r="2.58"/>
<circle class="cls-09 blinking2" cx="618.74" cy="1132.62" r="2.58"/>
<circle class="cls-12 blinking1" cx="573.65" cy="1261.16" r="2.58"/>
<circle class="cls-07 blinking5" cx="296.65" cy="1120.86" r="2.58"/>
<circle class="cls-12 blinking2" cx="843.58" cy="1101.45" r="2.58"/>
<circle class="cls-12 blinking3" cx="1013.01" cy="1221" r="2.58"/>
<circle class="cls-12 blinking3" cx="1668.19" cy="1326.87" r="2.58"/>
<circle class="cls-10 blinking2" cx="1854.18" cy="1382.62" r="2.58"/>
<circle class="cls-12 blinking4" cx="1524.1" cy="436.54" r="2.58"/>
<circle class="cls-11 blinking4" cx="1406.31" cy="504.7" r="2.58"/>
<circle class="cls-11 blinking2" cx="1239.31" cy="484.21" r="2.58"/>
<circle class="cls-10 blinking3" cx="1200.46" cy="344.47" r="2.58"/>
<circle class="cls-08 blinking4" cx="1072.67" cy="412.63" r="2.58"/>
<circle class="cls-07 blinking1" cx="1015.68" cy="392.14" r="2.58"/>
<circle class="cls-07 blinking4" cx="722.25" cy="488.13" r="2.58"/>
<circle class="cls-09 blinking5" cx="1848.47" cy="311.82" r="2.58"/>
<circle class="cls-09 blinking4" cx="1485.73" cy="371.9" r="2.58"/>
<circle class="cls-08 blinking2" cx="1332" cy="329.45" r="2.58"/>
<circle class="cls-07 blinking2" cx="1342.93" cy="243.66" r="2.58"/>
<circle class="cls-12 blinking5" cx="1129.85" cy="233.46" r="2.58"/>
<circle class="cls-10 blinking3" cx="1137.46" cy="281.78" r="2.58"/>
<circle class="cls-09 blinking5" cx="1079.67" cy="349.94" r="2.58"/>
<circle class="cls-08 blinking2" cx="908.65" cy="254" r="2.58"/>
<circle class="cls-11 blinking5" cx="696.97" cy="481.19" r="2.58"/>
<circle class="cls-11 blinking2" cx="800.96" cy="439" r="2.58"/>
<circle class="cls-09 blinking1" cx="563.97" cy="418.5" r="2.58"/>
<circle class="cls-09 blinking1" cx="492.68" cy="512.69" r="2.58"/>
<circle class="cls-12 blinking5" cx="484.96" cy="525.35" r="2.58"/>
<circle class="cls-09 blinking1" cx="244.58" cy="473.76" r="2.58"/>
<circle class="cls-08 blinking5" cx="233.24" cy="196.64" r="2.58"/>
<circle class="cls-10 blinking2" cx="1829.45" cy="656.01" r="2.51"/>
<circle class="cls-08 blinking2" cx="1439.51" cy="784.71" r="2.51"/>
<circle class="cls-12 blinking1" cx="289.51" cy="1030.01" r="2.51"/>
<circle class="cls-07 blinking4" cx="31.83" cy="1371.01" r="2.51"/>
<circle class="cls-11 blinking3" cx="1533.59" cy="1308.67" r="2.5"/>
<circle class="cls-09 blinking4" cx="1630.51" cy="1423.79" r="2.51"/>
<circle class="cls-08 blinking2" cx="1290.46" cy="118.93" r="2.58"/>
<circle class="cls-08 blinking5" cx="1515.73" cy="146.36" r="2.58"/>
<circle class="cls-11 blinking5" cx="1362" cy="103.91" r="2.58"/>
<circle class="cls-12 blinking1" cx="1127.46" cy="56.24" r="2.58"/>
<circle class="cls-09 blinking4" cx="929.67" cy="124.4" r="2.58"/>
<circle class="cls-08 blinking4" cx="1133.86" cy="1434.25" r="2.5"/>
<circle class="cls-07 blinking4" cx="138.94" cy="1435.23" r="2.58"/>
<circle class="cls-12 blinking4" cx="1347.07" cy="1426.49" r="2.58"/>
<circle class="cls-12 blinking5" cx="437.19" cy="3.56" r="2.5"/>
<circle class="cls-12 blinking5" cx="1553.68" cy="87" r="2.58"/>
<circle class="cls-12 blinking2" cx="1847.78" cy="40" r="2.58"/>
<circle class="cls-11 blinking5" cx="1262.12" cy="2.58" r="2.58"/>
<circle class="cls-07 blinking1" cx="349.24" cy="38.75" r="2.58"/>
<circle class="cls-09 blinking3" cx="203.98" cy="11.32" r="2.58"/>
<circle class="cls-11 blinking1" cx="387.71" cy="53.76" r="2.58"/>
<circle class="cls-11 blinking5" cx="670.03" cy="33.28" r="2.58"/>
<circle class="cls-01 blinking4" cx="1432.08" cy="503.81" r="3.88"/>
<circle class="cls-02 blinking3" cx="79.26" cy="258.93" r="4.45"/>
<circle class="cls-05 blinking3" cx="646.45" cy="127.68" r="4.45"/>
<circle class="cls-04 blinking5" cx="1769.03" cy="82.35" r="4.45"/>
<circle class="cls-04 blinking3" cx="-31.25" cy="71.15" r="4.46"/>
<circle class="cls-02 blinking1" cx="63.1" cy="1422.4" r="4.46"/>
<circle class="cls-04 blinking1" cx="1240.45" cy="1424.63" r="4.45"/>
<circle class="cls-05 blinking5" cx="1810.89" cy="1417.92" r="4.46"/>
<circle class="cls-01 blinking2" cx="860.02" cy="457" r="4.45"/>
<circle class="cls-01 blinking5" cx="1015.73" cy="992.23" r="4.45"/>
<circle class="cls-05 blinking1" cx="507.8" cy="1407.82" r="4.46"/>
<circle class="cls-02 blinking3" cx="1742.02" cy="1430.34" r="4.45"/>
<circle class="cls-03 blinking2" cx="1641.27" cy="1309.24" r="4.45"/>
<circle class="cls-03 blinking3" cx="1430.17" cy="1087.84" r="4.45"/>
<circle class="cls-04 blinking3" cx="6.81" cy="1030.25" r="4.45"/>
<circle class="cls-06 blinking2" cx="309.33" cy="1381.06" r="4.45"/>
<circle class="cls-01 blinking2" cx="1013.26" cy="30" r="4.45"/>
<circle class="cls-02 blinking3" cx="1412.53" cy="937.16" r="5.17"/>
<circle class="cls-03 blinking4" cx="521.5" cy="855.58" r="5.17"/>
<circle class="cls-04 blinking1" cx="709.37" cy="159.77" r="5.17"/>
<circle class="cls-06 blinking4" cx="570.72" cy="1439.92" r="5.18"/>
<circle class="cls-05 blinking2" cx="1373.05" cy="1354.01" r="5.18"/>
<circle class="cls-01 blinking1" cx="1919.68" cy="556" r="5.17"/>
<circle class="cls-02 blinking3" cx="45.45" cy="676.5" r="5.17"/>
<circle class="cls-06 blinking5" cx="1483.5" cy="1137.09" r="7.28"/>
</svg>