<svg xmlns="http://www.w3.org/2000/svg" xmlns:xlink="http://www.w3.org/1999/xlink" viewBox="0 0 279.55 306.37"><defs><style>.cls-1{isolation:isolate;}.cls-2{fill:#f6f6ee;}.cls-3{fill:#e6e5ce;}.cls-12,.cls-4,.cls-5,.cls-7{fill:#cac7fc;}.cls-11,.cls-4{opacity:0.7;}.cls-11,.cls-30,.cls-31,.cls-4,.cls-5,.cls-7{mix-blend-mode:multiply;}.cls-5{opacity:0.47;}.cls-6{fill:#699caf;}.cls-8{fill:#679aae;}.cls-9{fill:#0d5f7f;}.cls-10{fill:#1a4656;}.cls-13{fill:#47af93;}.cls-14{fill:#0d232b;}.cls-15{fill:url(#linear-gradient);}.cls-16{fill:#9a5f32;}.cls-17{fill:#cf8c59;}.cls-18{fill:#5f423b;}.cls-19{fill:#7cb88e;}.cls-20{fill:#46956e;}.cls-21{fill:#7dc3b2;opacity:0.49;}.cls-22{fill:#d5b790;}.cls-23{fill:#e6605e;}.cls-24{fill:#f09d81;}.cls-25{fill:#fbc96d;}.cls-26{fill:#cc5654;}.cls-27{fill:#6a8791;}.cls-28{fill:#ee8371;}.cls-29{fill:#faf8dc;}.cls-30,.cls-31{opacity:0.72;}.cls-30{fill:url(#linear-gradient-2);}.cls-31{fill:url(#linear-gradient-3);}.cls-32{fill:url(#linear-gradient-4);}.cls-33{fill:#f1f1f1;}.cls-34{fill:gray;}.cls-35{fill:#666;}</style><linearGradient id="linear-gradient" x1="921.31" y1="140.21" x2="949.02" y2="140.21" gradientTransform="matrix(-1, 0, 0, 1, 970.76, 0)" gradientUnits="userSpaceOnUse"><stop offset="0" stop-color="#d4915f"/><stop offset="0.33" stop-color="#c07b46"/><stop offset="1" stop-color="#7f4b24"/></linearGradient><linearGradient id="linear-gradient-2" x1="226.43" y1="148.49" x2="226.43" y2="146.43" gradientUnits="userSpaceOnUse"><stop offset="0" stop-color="#cac7fc"/><stop offset="1" stop-color="#fff"/></linearGradient><linearGradient id="linear-gradient-3" x1="219.85" y1="138.1" x2="226.41" y2="138.1" xlink:href="#linear-gradient-2"/><linearGradient id="linear-gradient-4" x1="226.44" y1="137.98" x2="226.44" y2="125.49" gradientUnits="userSpaceOnUse"><stop offset="0" stop-color="#976b5c"/><stop offset="1" stop-color="#593c38"/></linearGradient></defs><title>unlink-successful</title><g class="cls-1"><g id="Layer_2" data-name="Layer 2"><g id="Layer_1-2" data-name="Layer 1"><path class="cls-2" d="M212.77,160c0,40.58-37,60.2-82.59,60.2S47.59,200.62,47.59,160s23-86.75,82.59-86.75C193.68,73.29,212.77,119.46,212.77,160Z"/><path class="cls-3" d="M213,164.69c0,40.58-37,60.2-82.59,60.2s-82.59-19.62-82.59-60.2,23-86.75,82.59-86.75C193.9,77.94,213,124.11,213,164.69Z"/><path class="cls-4" d="M47.81,164.69c0,40.58,37,60.2,82.59,60.2S213,205.27,213,164.69q0-4.51-.33-9.09H48.2Q47.81,160.18,47.81,164.69Z"/><path class="cls-5" d="M64.58,162.53c0,31.36,28.58,46.52,63.83,46.52s63.82-15.16,63.82-46.52q0-3.5-.25-7H64.88Q64.58,159,64.58,162.53Z"/><rect class="cls-6" x="122.4" y="218.5" width="10.61" height="71.19"/><rect class="cls-7" x="122.4" y="218.5" width="10.61" height="9.19"/><path class="cls-8" d="M165.51,300.41h-4v-2.49a5.8,5.8,0,0,0-5.8-5.8h-56a5.8,5.8,0,0,0-5.8,5.8v2.49h-4v-2.49a9.79,9.79,0,0,1,9.78-9.78h56a9.79,9.79,0,0,1,9.78,9.78Z"/><circle class="cls-9" cx="103.29" cy="300.07" r="6.31"/><circle class="cls-10" cx="103.29" cy="300.07" r="3.31"/><circle class="cls-9" cx="152.4" cy="300.07" r="6.31"/><circle class="cls-10" cx="152.4" cy="300.07" r="3.31"/><g class="cls-11"><path class="cls-12" d="M146.67,297.45h11.47a6.3,6.3,0,0,0-11.47,0Z"/><path class="cls-12" d="M97.56,297.45H109a6.3,6.3,0,0,0-11.47,0Z"/><path class="cls-13" d="M146.67,297.45h11.47a6.3,6.3,0,0,0-11.47,0Z"/><path class="cls-13" d="M97.56,297.45H109a6.3,6.3,0,0,0-11.47,0Z"/></g><rect class="cls-6" x="119.57" y="245.14" width="16.27" height="17.59" rx="5.42"/><path class="cls-14" d="M157.19,203H94.51c-8,0-14.86-2.58-14.31-16.77S94.63,156.5,94.63,156.5h63.9s12.25,18.06,12.8,29.54S165.18,203,157.19,203Z"/><path class="cls-15" d="M40.3,152.05H30.89a6.83,6.83,0,0,1-6.77-5.93l-2.38-17.74H49.45l-2.37,17.74A6.84,6.84,0,0,1,40.3,152.05Z"/><path class="cls-16" d="M32.1,129.45c-.3,0-.32-.47,0-.47S32.4,129.45,32.1,129.45Z"/><path class="cls-16" d="M29,129.53c.31-.32,1.15.4.09.4C28.92,129.8,28.92,129.63,29,129.53Z"/><path class="cls-16" d="M23,129.68c0,.19.12.24,0,.25s0,0,.06.09c.09.25-.3.39-.57-.09C22,129.15,23,128.69,23,129.68Z"/><path class="cls-16" d="M47.2,128.73c.13.16,0,.81-.26.55C46.41,128.71,46.64,128.08,47.2,128.73Z"/><path class="cls-16" d="M48,128.45c0-.12.37-.15.44.11S48,129.33,48,128.45Z"/><path class="cls-16" d="M40.81,128.38h.51C41.45,128.66,41,128.66,40.81,128.38Z"/><path class="cls-16" d="M34.93,128.38c.37,0,.33,0,.35.09S35,128.78,34.93,128.38Z"/><path class="cls-16" d="M37.74,147.53c.22-.17.65.23.42.6C38.07,149.33,36.91,148.17,37.74,147.53Z"/><path class="cls-16" d="M37.78,145.4a.53.53,0,0,1,.25-.64.24.24,0,0,1,.25.4c-.08.05-.06.07-.05.1C38.34,145.49,37.94,145.73,37.78,145.4Z"/><path class="cls-16" d="M37.07,147.78a.23.23,0,0,1-.45,0C36.05,147.32,37.25,146.59,37.07,147.78Z"/><path class="cls-16" d="M35.18,143c.09.14.33.23.37.56s-.58.4-.83-.33C34.64,143,35,142.73,35.18,143Z"/><path class="cls-16" d="M37,141.78c.08.61-.81.25-.46-.12S37,141.6,37,141.78Z"/><path class="cls-16" d="M35.69,140.32c.09-.12.15,0,.21-.11.28-.26.6.22.52.6C36.12,142.25,35,141.25,35.69,140.32Z"/><path class="cls-16" d="M33.4,141c0-.29.54-.49.58.08S33.4,141.58,33.4,141Z"/><path class="cls-16" d="M32,144.88c-.25.51-.56.18-.51-.06C31.58,144.19,32.24,144.31,32,144.88Z"/><path class="cls-16" d="M34.05,149.35c-.08.31-.32.44-.32.59,0,.3-.48.33-.47,0s.28-.52.33-.72A.24.24,0,0,1,34.05,149.35Z"/><path class="cls-16" d="M29,140.72c.3,0,.32.47,0,.47S28.74,140.72,29,140.72Z"/><path class="cls-16" d="M39.91,146.34c.17-.19.5,0,.39.32C40.09,147.41,39.38,146.5,39.91,146.34Z"/><path class="cls-16" d="M41.94,148c-.17.83-1.11.32-.73-.72C41.44,146.7,42.28,146.44,41.94,148Z"/><path class="cls-16" d="M40.24,149.86c.27-.3.66.29.27.65S39.81,149.89,40.24,149.86Z"/><path class="cls-16" d="M40,151.76c.13,0,.49.18-.21.25A.21.21,0,0,1,40,151.76Z"/><path class="cls-16" d="M37.42,149.9c.3,0,.32.47,0,.47S37.11,149.9,37.42,149.9Z"/><path class="cls-16" d="M45.66,148.7c0-.08,0-.14.07-.17S46.05,148.17,45.66,148.7Z"/><path class="cls-16" d="M43.26,144c-.2,0-.36-.56-.25-.68C43.25,142.81,43.82,144.32,43.26,144Z"/><path class="cls-16" d="M46.61,140.89c-.06.13-.29.2-.36-.27C46.21,140.33,46.82,140.49,46.61,140.89Z"/><path class="cls-16" d="M42.39,135.31c-.2-.48.52.18.56.47.18.48-.18.9-.41.64C42.06,136.4,41.61,135.25,42.39,135.31Z"/><path class="cls-16" d="M41.39,138.52c.17.69-.67.41-.56-.24C40.86,138,41.28,138.08,41.39,138.52Z"/><path class="cls-16" d="M40.68,141.89a.2.2,0,0,1-.34,0c-.39.52-.84-.11-.61-.59C39.71,140.35,41,141.23,40.68,141.89Z"/><path class="cls-16" d="M45.69,134.45c.17-.33.89.23.58.63C46.21,135.71,45.36,135.07,45.69,134.45Z"/><path class="cls-16" d="M48.3,134.46c.24-.05.11.77-.29.22C47.92,134.54,48.11,134.17,48.3,134.46Z"/><path class="cls-16" d="M47.44,135.61c.41-.44.62.87.13.8C47.31,136.51,46.86,135.7,47.44,135.61Z"/><path class="cls-16" d="M45.88,135.9c.08.14,0,.32-.26.23S45.68,135.55,45.88,135.9Z"/><path class="cls-16" d="M42.86,132.06c-.73-.06-.64-1.39,0-.89C43,131.18,43.15,132.08,42.86,132.06Z"/><path class="cls-16" d="M38.38,131.57s-.17-.46.1-.43C39.12,131.19,38.49,132.05,38.38,131.57Z"/><path class="cls-16" d="M38.53,133.3c.33-.26.64.76.23.82C38.33,134.51,38.06,133.67,38.53,133.3Z"/><path class="cls-16" d="M36.84,137.9c-.2-.33,0-.49.14-.42C37.41,137.65,37,138.14,36.84,137.9Z"/><path class="cls-16" d="M35.3,136.92c.05-.31.53-.13.69.24C36.31,137.87,35.13,138,35.3,136.92Z"/><path class="cls-16" d="M36.25,136.18c0-.29.46-.21.37.15C36.78,136.79,36.16,136.48,36.25,136.18Z"/><path class="cls-16" d="M26.19,147.28a1.25,1.25,0,0,1,1.11.26c.35.38,0,1-.37.47a.33.33,0,0,1-.42-.24C26,147.7,26,147.36,26.19,147.28Z"/><path class="cls-16" d="M24.69,145.6c.89,1.17-.22,1-.22.68C24.05,145.77,24.46,145.3,24.69,145.6Z"/><path class="cls-16" d="M26.07,146.31c.28,0,0,.88-.3.1C25.71,146.28,25.91,146.09,26.07,146.31Z"/><path class="cls-16" d="M30.19,146c.48.33,0,.93-.31.13A.17.17,0,0,1,30.19,146Z"/><path class="cls-16" d="M26.6,137.51c-.13-.2-.21-.64,0-.73.25-.7,1,.3.52.83C27.08,138.07,26.46,137.77,26.6,137.51Z"/><path class="cls-16" d="M24.75,135a.16.16,0,0,1-.3-.1c-.17,0-.28-.19-.28-.33C24.18,133.77,25.13,134.44,24.75,135Z"/><path class="cls-16" d="M33.24,132.68c.14-.42.76.23.36.73C33.37,133.69,32.89,132.94,33.24,132.68Z"/><path class="cls-16" d="M30.1,132.65c.11.15,0,.46-.24.17a.17.17,0,0,1-.13-.25C29.57,132.17,30.26,132.27,30.1,132.65Z"/><path class="cls-16" d="M31.73,133.2c0-.16.23-.24.42-.06C33.08,133.6,31.54,135.1,31.73,133.2Z"/><path class="cls-16" d="M31.73,132.36a.18.18,0,0,1-.31-.1c-.21.05-.24-.27-.21-.48C31.26,131.33,32,132,31.73,132.36Z"/><path class="cls-16" d="M32.7,132.07c-.12,0-.31-.3-.17-.42S33,132,32.7,132.07Z"/><path class="cls-16" d="M22.47,132.82c0,.05,0,1.08-.18-.36A1,1,0,0,1,22.47,132.82Z"/><path class="cls-16" d="M26.33,132.66c.2.59-.57.68-.52.2C25.56,132.44,26.12,132,26.33,132.66Z"/><path class="cls-16" d="M24.48,133.1c0,.31-.52.1-.41-.2S24.53,132.59,24.48,133.1Z"/><path class="cls-16" d="M29.93,129.93c.1-.4.59-.43.61-.11,0,.07,0,.1-.05.11h0C30.49,130.44,29.8,130.45,29.93,129.93Z"/><path class="cls-16" d="M29.43,129.93a.3.3,0,0,1-.33,0Z"/><path class="cls-16" d="M23.8,129.91a.18.18,0,0,1,.1,0h0a.42.42,0,0,1,.2.17.18.18,0,0,1-.31.19C23.59,130.06,23.66,129.9,23.8,129.91Z"/><path class="cls-16" d="M47.68,129.93a.36.36,0,0,1,.28-.21c.13-.18.26-.11.34.05s.18.15-.07.16c.27,0,.41.13,0,.52C48.06,130.64,47.51,130.32,47.68,129.93Z"/><circle class="cls-17" cx="35.6" cy="127.19" r="13.86"/><circle class="cls-18" cx="35.6" cy="127.19" r="12.05"/><path class="cls-19" d="M39,106.13c.2,0-.05.42,3-6.23a.22.22,0,0,0-.4-.18C38.62,106.11,38.47,106.13,39,106.13Z"/><path class="cls-19" d="M40.74,107.05c6.69-6.69,6.43-6.3,6.21-6.52s0-.36-6.52,6.21A.22.22,0,0,0,40.74,107.05Z"/><path class="cls-19" d="M42.11,108.83c5.73-3.55,5.69-3.42,5.52-3.68s0-.29-5.75,3.31A.22.22,0,0,0,42.11,108.83Z"/><path class="cls-20" d="M41.45,128.37l1.69-15a7.4,7.4,0,1,0-14.71,0l1.69,15C32.51,133.43,39,133.21,41.45,128.37Z"/><path class="cls-21" d="M34.26,128.46c-.94-18.45-.71-17.66-1.33-17.64s-.47-.56.45,17.68A.44.44,0,0,0,34.26,128.46Z"/><path class="cls-21" d="M37.31,128.81c.61,0,.37.84,1.3-17.64a.44.44,0,1,0-.87,0C36.81,129.56,36.65,128.81,37.31,128.81Z"/><polygon class="cls-22" points="16.03 305.82 6.3 305.82 32.83 160.35 42.56 160.35 16.03 305.82"/><polygon class="cls-7" points="28.88 182.02 38.61 182.02 42.56 160.35 32.83 160.35 28.88 182.02"/><polygon class="cls-22" points="266.95 305.82 276.68 305.82 250.15 160.35 240.42 160.35 266.95 305.82"/><polygon class="cls-7" points="254.1 182.02 244.38 182.02 240.42 160.35 250.15 160.35 254.1 182.02"/><rect class="cls-22" y="150.29" width="279.55" height="10.61"/><path class="cls-23" d="M114.9,114.5c-20.73,1.33-56.6,11.19-58,26.06C55.72,153,65.4,150,75.57,150.41s56.88-.22,56.88-.22Z"/><path class="cls-23" d="M144.44,114c20.72,1.32,64.24,11.94,64.79,26.89.39,10.45-9.67,10.12-22.43,9.62-10.17-.39-52.78-.33-52.78-.33Z"/><path class="cls-24" d="M61.72,147.78c-4-3.07-3.94-8.45-.41-12.11,3.1-3.21,9-5,15-4.42,12.88,1.21,45.68,8.63,45.68,8.63l-.42,9.54s-18.63.4-35.71.62C76.11,150.16,66.45,151.35,61.72,147.78Z"/><path class="cls-24" d="M109.36,181.51c10.38,1.13,18.81,7.74,12.62,25.45-5.72,16.33-42.48,75.75-48.17,84.9a3,3,0,0,0-.32,2.53l3.12,9.95H48.94a86.25,86.25,0,0,1,5.32-13.95c3.09-6,42.71-84.54,42.71-84.54s-7.08-4.87-8.41-7.08S89,179.29,109.36,181.51Z"/><path class="cls-4" d="M109.36,181.51c-20.36-2.22-22.13,15.05-20.8,17.26S97,205.85,97,205.85s-8.18,16.23-17.4,34.49c8-.32,17,2.28,22.68,4.28C111.28,229,119.51,214,122,207,128.17,189.25,119.74,182.64,109.36,181.51Z"/><path class="cls-23" d="M65.1,295.26a23.53,23.53,0,0,0-8.68,2.82,4.42,4.42,0,0,1-4.15,0l-1.1-.57c-1.38,3.75-2.23,6.8-2.23,6.8H76.61l-2.17-6.92-.21-.16A14.49,14.49,0,0,0,65.1,295.26Z"/><path class="cls-9" d="M49,304.27H76.61a0,0,0,0,1,0,0v.67a1.33,1.33,0,0,1-1.33,1.33H50.33A1.33,1.33,0,0,1,49,304.94v-.67A0,0,0,0,1,49,304.27Z"/><path class="cls-24" d="M140.58,181.51C130.2,182.64,121.76,189.25,128,207c5.71,16.33,42.48,75.75,48.17,84.9a3,3,0,0,1,.32,2.53l-3.12,9.95H201a85.74,85.74,0,0,0-5.31-13.95c-3.1-6-42.71-84.54-42.71-84.54s7.08-4.87,8.41-7.08S160.94,179.29,140.58,181.51Z"/><path class="cls-4" d="M140.57,181.51c20.37-2.22,22.14,15.05,20.81,17.26s-8.41,7.08-8.41,7.08,8.18,16.23,17.4,34.49c-8-.32-17,2.28-22.69,4.28C138.66,229,130.42,214,128,207,121.76,189.25,130.2,182.64,140.57,181.51Z"/><path class="cls-23" d="M184.84,295.26a23.41,23.41,0,0,1,8.67,2.82,4.42,4.42,0,0,0,4.15,0l1.11-.57c1.38,3.75,2.22,6.8,2.22,6.8H173.33l2.17-6.92.21-.16A14.46,14.46,0,0,1,184.84,295.26Z"/><path class="cls-9" d="M174.66,304.27H199.6a1.33,1.33,0,0,1,1.33,1.33v.67a0,0,0,0,1,0,0H173.33a0,0,0,0,1,0,0v-.67A1.33,1.33,0,0,1,174.66,304.27Z" transform="translate(374.27 610.55) rotate(-180)"/><path class="cls-24" d="M204.91,147.78c4-3.07,3.94-8.45.41-12.11-3.1-3.21-9-5-15-4.42-12.88,1.21-45.68,8.63-45.68,8.63l.42,9.54s18.63.4,35.71.62C190.52,150.16,200.18,151.35,204.91,147.78Z"/><path class="cls-7" d="M112.24,118.16c-3.82,3.81-8,7-9.3,12s-.83,6-.83,6-4,1.5-5,7,.34,7.64.34,7.64l72-.5s1.83-3.48-1.49-8.63-7-5.15-7-5.15-5.48-2.48-6.47-6-7.64-12.62-7.64-12.62Z"/><path class="cls-25" d="M159.48,179c-5.14-3-6-6.48-2.28-17.1s-.38-13.88-4-18.59c-3.36-4.39-5.47-8-1.1-13.82,3.39-4.55,1-11.92-3.48-14-2.32-1.07-1.83-4.66-3.72-6.93-2.13-2.56-7.28-3.62-11.08-2.17a18.39,18.39,0,0,0-3.43-1,18,18,0,0,0-21.13,14.12,17.61,17.61,0,0,0,.6,9c-.62,1.1-3.77,7-2.44,10.6,1.47,4,2.29,5.42-1.53,11.33s-1.87,8.1.78,14.15-.42,10.27-4,13.56-5,11.08-.45,14.93,7,6.37,2.24,15,2.71,15.43,8.46,14.42,15.37-3.07,14.11,4.18,9.92,13.88,16.9,9.38,4.18-11.52,2.71-18.22S151,209.09,159.28,201,164.63,182,159.48,179Z"/><path class="cls-7" d="M123.16,140.8c2.38,4.91,1.14,13.08-1.74,19.51s5.61,7,7,14.52-5.46,7.75-6.27,14.3,6.23,5.8,4.42,14c-1.71,7.76-8,7.64-9.56,18.66-1.42.21-2.81.47-4,.68-5.75,1-13.22-5.82-8.46-14.42s2.29-11.12-2.24-15-3.08-11.64.45-14.93,6.6-7.5,4-13.56-4.59-8.24-.78-14.15,3.31-7,1.84-11,1.44-10.77,1.44-10.77S120.77,135.89,123.16,140.8Z"/><path class="cls-26" d="M272.16,145.69H207.43l6.15-37.56a4.77,4.77,0,0,1,4.7-4h56.88a3.23,3.23,0,0,1,3.19,3.75Z"/><path class="cls-23" d="M273.32,145.69H208.59l6.15-37.56a4.77,4.77,0,0,1,4.7-4h56.88a3.23,3.23,0,0,1,3.19,3.75Z"/><path class="cls-27" d="M194.94,145.69h78.39a0,0,0,0,1,0,0v4.87a0,0,0,0,1,0,0H191.69a0,0,0,0,1,0,0v-1.62A3.24,3.24,0,0,1,194.94,145.69Z"/><circle class="cls-28" cx="246.6" cy="125.57" r="5.66"/><path class="cls-29" d="M237.35,145.57c0,.84-1.6,2.59-2.34,3.09H217.86a8.29,8.29,0,0,1-2.34-3.09Z"/><path class="cls-30" d="M237.35,145.57c0,.84-1.6,2.59-2.34,3.09H217.86a8.29,8.29,0,0,1-2.34-3.09Z"/><path class="cls-29" d="M234.6,133.72l-.2,0,.51-2.59a.39.39,0,0,0-.38-.47H218.34a.4.4,0,0,0-.39.47l2.89,14.47H232l.53-2.65.29.05h0a3.92,3.92,0,0,0,.76.08,4.12,4.12,0,0,0,4-3.35l.22-1.17A4.13,4.13,0,0,0,234.6,133.72Zm1.71,4.51-.22,1.17a2.52,2.52,0,0,1-3,2l-.27,0,1.22-6.11.21,0A2.52,2.52,0,0,1,236.31,138.23Z"/><path class="cls-31" d="M234.6,133.72l-.2,0,.51-2.59a.39.39,0,0,0-.38-.47H218.34a.4.4,0,0,0-.39.47l2.89,14.47H232l.53-2.65.29.05h0a3.92,3.92,0,0,0,.76.08,4.12,4.12,0,0,0,4-3.35l.22-1.17A4.13,4.13,0,0,0,234.6,133.72Zm1.71,4.51-.22,1.17a2.52,2.52,0,0,1-3,2l-.27,0,1.22-6.11.21,0A2.52,2.52,0,0,1,236.31,138.23Z"/><circle class="cls-29" cx="226.44" cy="130.74" r="8.48"/><circle class="cls-4" cx="226.44" cy="130.74" r="7.5"/><ellipse class="cls-32" cx="226.44" cy="131.8" rx="7.43" ry="6.44"/><path class="cls-33" d="M229.58,132.51l.49-.93a1.54,1.54,0,0,0-.55-1.77,9,9,0,0,0-2.68-1.41,1.83,1.83,0,0,0-1.77.56,13.42,13.42,0,0,0-1.41,2.67,2.14,2.14,0,0,0-.11.92c.86,0,1.79.09,2.75.09C227.46,132.64,228.57,132.59,229.58,132.51Z"/><path class="cls-34" d="M119.1,15.92c-1.48-.19-3-.32-4.46-.47l-5.22-.54a11,11,0,0,0-9.25,3.52,10.76,10.76,0,0,0-2.42,10,10.87,10.87,0,0,0,7.46,7.62,33.51,33.51,0,0,0,5.37.74l5.78.6.36,0a10.83,10.83,0,0,0,2.38-21.53Zm4,13.34-.07.15c-.08.13-.15.26-.23.38a9,9,0,0,1-.59.79l-.06.07c-.14.12-.27.27-.42.39a8.84,8.84,0,0,1-.77.6h0c-.17.09-.34.19-.52.27s-.58.26-.88.37h0c-.19,0-.39.09-.59.12s-.63.07-1,.11h-.07l-.63,0-9.27-1-.37,0c-.23,0-.46-.08-.69-.12l-.14,0h0l-.12,0-.57-.2-.49-.22-.14-.06c-.27-.18-.55-.35-.82-.55l-.35-.29-.07-.06c-.23-.26-.47-.5-.68-.78-.1-.13-.19-.27-.28-.4a9,9,0,0,1-.48-1l-.12-.31v.05a.31.31,0,0,0,0-.08l-.05-.15a.29.29,0,0,1,0-.16,9.3,9.3,0,0,1-.16-.92c0-.18,0-.37,0-.54l0,.16a1.15,1.15,0,0,1,0-.18,9.32,9.32,0,0,1,.1-1.05,3.55,3.55,0,0,0,.09-.47v.1a.36.36,0,0,1,0-.11A8.19,8.19,0,0,1,103,23l.08-.16.15-.25a8.76,8.76,0,0,1,.67-.9l.07-.08.32-.29a10.74,10.74,0,0,1,.85-.66l.45-.24c.28-.13.57-.25.86-.36h-.06l.1,0,.14,0a.37.37,0,0,1,.15,0l.32-.06c.38-.07.77-.07,1.15-.13l-.17,0h.18l.56,0h.09l.64.07,2.48.26,5.68.59.65.07h.1l.41.05.4.08.22.06.45.16a4.25,4.25,0,0,1,.49.21l.22.1a8,8,0,0,1,.74.5,3.51,3.51,0,0,1,.36.29l.14.11c.21.24.43.47.62.72l.31.42v0l0,0a8.25,8.25,0,0,1,.45.95c0,.11.09.22.13.33s0,.14,0,.18a7.59,7.59,0,0,1,.19,1.06l0,.4c0,.05,0,.11,0,.16a8.11,8.11,0,0,1-.09,1c0,.14-.06.28-.09.42a1.46,1.46,0,0,1-.05.2C123.35,28.64,123.23,29,123.09,29.26Z"/><path class="cls-35" d="M132.09,30.35c-1-.39-1.92-.76-2.83-1.23a.12.12,0,0,1,0-.22,1,1,0,0,0,.46-.25c-.16-.11-.32-.22-.5-.32a.12.12,0,0,1,0-.21,2,2,0,0,0,.86-.44,5.29,5.29,0,0,1-1.24-.86.12.12,0,0,1,0-.19A7.54,7.54,0,0,1,130.8,26c-.47-.2-1-.37-1.46-.56l-5.56-.32L121.91,25a2.49,2.49,0,1,0-.28,5l11.1.64Z"/><path class="cls-34" d="M164.85,17.22a11,11,0,0,0-10.13-3.56c-1.47.26-2.94.58-4.4.87l-5.15,1a11,11,0,0,0-7.82,6.08,10.78,10.78,0,0,0,.62,10.3,10.9,10.9,0,0,0,9.37,5.1,34.88,34.88,0,0,0,5.35-.87l5.7-1.12.36-.07a10.83,10.83,0,0,0,6.1-17.73Zm-2.41,8,0,.17c0,.14-.06.29-.1.43a8.62,8.62,0,0,1-.33.93.2.2,0,0,0,0,.08c-.11.16-.19.34-.28.5s-.37.54-.57.8l0,0c-.13.13-.27.28-.41.41s-.49.41-.74.6l0,0-.53.29c-.28.15-.58.25-.87.38l-.08,0c-.2.06-.41.1-.61.14l-9.15,1.8-.36.07c-.23,0-.46.06-.7.09h-.13l-.13,0,.1,0h-.12l-.6,0c-.18,0-.36,0-.54-.06l-.15,0c-.31-.09-.63-.17-.94-.29l-.42-.17-.09,0c-.29-.18-.59-.34-.87-.55s-.26-.19-.39-.29a9.59,9.59,0,0,1-.75-.81l-.2-.27,0,.06a.59.59,0,0,0,0-.08l-.1-.13a.29.29,0,0,1-.07-.14q-.22-.41-.42-.84c-.07-.16-.12-.34-.2-.5l.07.14-.06-.17a7.21,7.21,0,0,1-.2-1c0-.15,0-.32,0-.48l0,.1a.45.45,0,0,1,0-.11,8.74,8.74,0,0,1,.08-1.14l0-.18.08-.29a7.73,7.73,0,0,1,.38-1,.36.36,0,0,1,0-.09c.07-.13.14-.26.22-.38a10.72,10.72,0,0,1,.62-.88l.36-.36c.23-.21.47-.4.72-.59l-.06,0,.09-.05.12-.08a.27.27,0,0,1,.13-.07l.29-.16c.35-.18.71-.3,1.06-.46l-.15.07.17-.06.55-.13h.08l.63-.13,2.46-.48,5.59-1.1.65-.12.09,0,.42-.07.4,0h.23l.47,0a4.52,4.52,0,0,1,.53.06l.25,0c.28.08.57.16.85.26l.43.17.16.07c.27.16.55.32.81.51l.41.31,0,0,0,0a7.46,7.46,0,0,1,.71.78l.22.27.11.17a7.68,7.68,0,0,1,.48.95c.06.12.1.25.15.38s0,.1,0,.15a8.19,8.19,0,0,1,.2,1c0,.15,0,.29,0,.44v.2A6.73,6.73,0,0,1,162.44,25.25Z"/><path class="cls-35" d="M134.76,25.32a.11.11,0,0,1,0,.21,10.27,10.27,0,0,0-1.92.92,6.59,6.59,0,0,0,1.29.6.13.13,0,0,1,.07.18,1.61,1.61,0,0,1-.73.64l.45.23a.12.12,0,0,1,0,.16,1.54,1.54,0,0,1-.35.37c1,.31,1.95.53,2.93.77l1.07.29,1.41-.12,1.86-.17a2.49,2.49,0,1,0-.44-5l-6.85.6C134,25.12,134.39,25.2,134.76,25.32Z"/><path class="cls-23" d="M124.48,12.11a.65.65,0,0,1-.32-.16l-6.62-6.41a.63.63,0,0,1,0-.88.62.62,0,0,1,.87,0L125,11.06a.61.61,0,0,1-.54,1Z"/><path class="cls-23" d="M141.14,10.81a.65.65,0,0,1-.32-.16.63.63,0,0,1,0-.88l6.41-6.62a.63.63,0,0,1,.88,0,.62.62,0,0,1,0,.87l-6.41,6.63A.62.62,0,0,1,141.14,10.81Z"/><path class="cls-23" d="M132.75,10.44a.6.6,0,0,1-.51-.59L132.09.63a.62.62,0,0,1,1.24,0l.15,9.22a.61.61,0,0,1-.61.62Z"/></g></g></g></svg>