<svg xmlns="http://www.w3.org/2000/svg" xmlns:xlink="http://www.w3.org/1999/xlink" viewBox="0 0 360 193.51"><defs><style>.cls-1{mask:url(#mask);filter:url(#luminosity-noclip-5);}.cls-10,.cls-12,.cls-2,.cls-20,.cls-25,.cls-28,.cls-32,.cls-4,.cls-6,.cls-8{mix-blend-mode:multiply;}.cls-2{fill:url(#linear-gradient);}.cls-3{mask:url(#mask-2);filter:url(#luminosity-noclip-6);}.cls-4{fill:url(#linear-gradient-2);}.cls-5{mask:url(#mask-3);filter:url(#luminosity-noclip-7);}.cls-6{fill:url(#linear-gradient-3);}.cls-7{mask:url(#mask-4);filter:url(#luminosity-noclip-8);}.cls-8{fill:url(#linear-gradient-4);}.cls-9{isolation:isolate;}.cls-10{fill:#e5e5e5;}.cls-11{fill:#a7d7fc;}.cls-12{fill:#c7e4fd;}.cls-13{fill:#1a1a1a;}.cls-13,.cls-14,.cls-15,.cls-16{mix-blend-mode:screen;}.cls-14{fill:#242424;}.cls-15{fill:#c3c3c3;}.cls-16{fill:#474747;}.cls-17{fill:#fac52f;}.cls-18{fill:#fddf85;}.cls-19{mask:url(#mask-5);}.cls-20{fill:url(#linear-gradient-5);}.cls-21{fill:#ed5733;}.cls-22{fill:#fc826a;}.cls-23{fill:#ac2310;}.cls-24{mask:url(#mask-6);}.cls-25{fill:url(#linear-gradient-6);}.cls-26{fill:#fddb82;}.cls-27{mask:url(#mask-7);}.cls-28{fill:url(#linear-gradient-7);}.cls-29{fill:#052b71;}.cls-30{fill:#86cfd7;}.cls-31{mask:url(#mask-8);}.cls-32{fill:url(#linear-gradient-8);}.cls-33{fill:#010b25;}.cls-34{fill:#f5fdd3;opacity:0.11;}.cls-35{filter:url(#luminosity-noclip-4);}.cls-36{filter:url(#luminosity-noclip-3);}.cls-37{filter:url(#luminosity-noclip-2);}.cls-38{filter:url(#luminosity-noclip);}</style><filter id="luminosity-noclip" x="150.97" y="-4171.47" width="140.95" height="32766" filterUnits="userSpaceOnUse" color-interpolation-filters="sRGB"><feFlood flood-color="#fff" result="bg"/><feBlend in="SourceGraphic" in2="bg"/></filter><mask id="mask" x="150.97" y="-4171.47" width="140.95" height="32766" maskUnits="userSpaceOnUse"><g class="cls-38"/></mask><linearGradient id="linear-gradient" x1="2792.93" y1="-1141.05" x2="2825.93" y2="-1127" gradientTransform="matrix(0.22, -0.98, -0.98, -0.22, -1497.88, 2547.79)" gradientUnits="userSpaceOnUse"><stop offset="0"/><stop offset="1" stop-color="#fff"/></linearGradient><filter id="luminosity-noclip-2" x="23.22" y="-4171.47" width="130.59" height="32766" filterUnits="userSpaceOnUse" color-interpolation-filters="sRGB"><feFlood flood-color="#fff" result="bg"/><feBlend in="SourceGraphic" in2="bg"/></filter><mask id="mask-2" x="23.22" y="-4171.47" width="130.59" height="32766" maskUnits="userSpaceOnUse"><g class="cls-37"/></mask><linearGradient id="linear-gradient-2" x1="6361.77" y1="1079.67" x2="6387.9" y2="1079.67" gradientTransform="translate(-1332.54 -6178.71) rotate(67.69)" gradientUnits="userSpaceOnUse"><stop offset="0"/><stop offset="0.99" stop-color="#fff"/></linearGradient><filter id="luminosity-noclip-3" x="4.41" y="-4171.47" width="130.53" height="32766" filterUnits="userSpaceOnUse" color-interpolation-filters="sRGB"><feFlood flood-color="#fff" result="bg"/><feBlend in="SourceGraphic" in2="bg"/></filter><mask id="mask-3" x="4.41" y="-4171.47" width="130.53" height="32766" maskUnits="userSpaceOnUse"><g class="cls-36"/></mask><linearGradient id="linear-gradient-3" x1="6185.97" y1="1101.7" x2="6215.52" y2="1101.7" gradientTransform="matrix(0.4, 0.98, -0.83, 0.34, -1505.03, -6326.2)" xlink:href="#linear-gradient-2"/><filter id="luminosity-noclip-4" x="246.86" y="-4171.47" width="47.56" height="32766" filterUnits="userSpaceOnUse" color-interpolation-filters="sRGB"><feFlood flood-color="#fff" result="bg"/><feBlend in="SourceGraphic" in2="bg"/></filter><mask id="mask-4" x="246.86" y="-4171.47" width="47.56" height="32766" maskUnits="userSpaceOnUse"><g class="cls-35"/></mask><linearGradient id="linear-gradient-4" x1="2754.05" y1="-1252.97" x2="2772.57" y2="-1154.32" xlink:href="#linear-gradient"/><filter id="luminosity-noclip-5" x="150.97" y="3.67" width="140.95" height="119.22" filterUnits="userSpaceOnUse" color-interpolation-filters="sRGB"><feFlood flood-color="#fff" result="bg"/><feBlend in="SourceGraphic" in2="bg"/></filter><mask id="mask-5" x="150.97" y="3.67" width="140.95" height="119.22" maskUnits="userSpaceOnUse"><g class="cls-1"><path class="cls-2" d="M222.1,3.67,197.86,22.59l-18,14.08h0L157.5,54.1q-3.44,10.6-6.53,21.33C150.72,76.59,167.27,86,169,87.17L188.1,99.55c11.25,7.31,22.22,16.35,35.06,20.86a41,41,0,0,0,34.12-2.77,118.44,118.44,0,0,1-52.76-17.32c-5.57-3.45-11.3-8.13-12.08-14.63-.9-7.51,7.44-14,14.66-16.31s15-1.2,22.43.39c11.2,2.4,22.13,5.89,33.06,9.31,6.78,2.13,14,4.24,20.88,2.33a14.36,14.36,0,0,0,4.38-2.09,75.36,75.36,0,0,0,3.39-10.69c.26-1.11.49-2.24.68-3.36A141.48,141.48,0,0,1,252.78,58c-5-1.7-10.27-3.9-13.39-8.21-4.22-5.84-3.33-14.2.29-20.43,3.34-5.74,8.58-10,13.91-14A192.89,192.89,0,0,0,222.1,3.67Z"/></g></mask><linearGradient id="linear-gradient-5" x1="2792.93" y1="-1141.05" x2="2825.93" y2="-1127" gradientTransform="matrix(0.22, -0.98, -0.98, -0.22, -1497.88, 2547.79)" gradientUnits="userSpaceOnUse"><stop offset="0" stop-color="#fff"/><stop offset="1" stop-color="#fcb444"/></linearGradient><filter id="luminosity-noclip-6" x="23.22" y="88.4" width="130.59" height="80.08" filterUnits="userSpaceOnUse" color-interpolation-filters="sRGB"><feFlood flood-color="#fff" result="bg"/><feBlend in="SourceGraphic" in2="bg"/></filter><mask id="mask-6" x="23.22" y="88.4" width="130.59" height="80.08" maskUnits="userSpaceOnUse"><g class="cls-3"><path class="cls-4" d="M24,168.48l-.79-1.9A338.23,338.23,0,0,0,152.67,88.4q.56.87,1.14,1.71A335.39,335.39,0,0,1,83,142.66,336.36,336.36,0,0,1,24,168.48Z"/></g></mask><linearGradient id="linear-gradient-6" x1="6361.77" y1="1079.67" x2="6387.9" y2="1079.67" gradientTransform="translate(-1332.54 -6178.71) rotate(67.69)" gradientUnits="userSpaceOnUse"><stop offset="0" stop-color="#fff"/><stop offset="0.99" stop-color="#f2b52a"/></linearGradient><filter id="luminosity-noclip-7" x="4.41" y="63.11" width="130.53" height="85.23" filterUnits="userSpaceOnUse" color-interpolation-filters="sRGB"><feFlood flood-color="#fff" result="bg"/><feBlend in="SourceGraphic" in2="bg"/></filter><mask id="mask-7" x="4.41" y="63.11" width="130.53" height="85.23" maskUnits="userSpaceOnUse"><g class="cls-5"><path class="cls-6" d="M5.35,148.34l-.94-2.28A294.83,294.83,0,0,0,133.64,63.11c.42.69.85,1.39,1.3,2.07a298.06,298.06,0,0,1-70,56.8A288.9,288.9,0,0,1,5.35,148.34Z"/></g></mask><linearGradient id="linear-gradient-7" x1="6185.97" y1="1101.7" x2="6215.52" y2="1101.7" gradientTransform="matrix(0.4, 0.98, -0.83, 0.34, -1505.03, -6326.2)" xlink:href="#linear-gradient-6"/><filter id="luminosity-noclip-8" x="246.86" y="85.44" width="47.56" height="46.4" filterUnits="userSpaceOnUse" color-interpolation-filters="sRGB"><feFlood flood-color="#fff" result="bg"/><feBlend in="SourceGraphic" in2="bg"/></filter><mask id="mask-8" x="246.86" y="85.44" width="47.56" height="46.4" maskUnits="userSpaceOnUse"><g class="cls-7"><path class="cls-8" d="M291,85.45a44.08,44.08,0,0,0-26.72,8.41,43.59,43.59,0,0,0-7.42,6.88,44,44,0,0,0-8.73,16c-.08.26-.15.52-.22.77a30.93,30.93,0,0,0-1,5.13,26.07,26.07,0,0,0,.79,9,12.83,12.83,0,0,0,5.87-.24c2.54-.87,4-4.6,4.64-6.92.59-2,.91-4.06,1.33-6.1.1-.46.2-.92.31-1.37a33.87,33.87,0,0,1,7.71-14.6c.69-.77,1.41-1.5,2.17-2.2a33.79,33.79,0,0,1,17.55-8.48,19.78,19.78,0,0,0,4-.83,4.78,4.78,0,0,0,2.91-2.68,3.85,3.85,0,0,0,0-2.23A8.75,8.75,0,0,0,291,85.45Z"/></g></mask><linearGradient id="linear-gradient-8" x1="2754.05" y1="-1252.97" x2="2772.57" y2="-1154.32" xlink:href="#linear-gradient-5"/></defs><title>unsub-success</title><g class="cls-9"><g id="Layer_2" data-name="Layer 2"><g id="Layer_1-2" data-name="Layer 1"><path class="cls-10" d="M185.52,168.29c-.21,12.05,21.64,6.66,35,10.54,11.71,3.41,32.41,9.64,44.22.7,14.33-10.84,34.34-4.91,37.51-16.23C252.16,158.59,185.52,168.29,185.52,168.29Z"/><path class="cls-11" d="M251.33,147c-33.41,1.07-34.26,7.4-49.21,10.33s-27,16.36-3.11,17.74,30.93,7.41,49.82,7.58,12.88-8.61,26.79-9,34.67-9.64,24.08-15.33A94.85,94.85,0,0,0,251.33,147Z"/><path class="cls-12" d="M275.62,172.61c-13.91.34-7.89,9.13-26.79,9s-26-6.2-49.82-7.58c-9.23-.53-13.09-2.87-13.49-5.7-.45,3.28,3.16,6.14,13.49,6.73,23.87,1.38,30.93,7.41,49.82,7.58s12.88-8.61,26.79-9c11.61-.28,28-6.81,26.93-12.27C301.58,166.59,286.5,172.34,275.62,172.61Z"/><path class="cls-12" d="M302.25,163.3h0C283.74,179,272.71,168.13,265.53,176s-16.7,6.56-25.83,4.41-29-6-37-6.2c-6-.13-11.76.22-16.08-2.75,1.77,1.79,5.64,3.13,12.36,3.52,23.87,1.38,30.93,7.41,49.82,7.58s12.88-8.61,26.79-9C285.88,173.39,299.89,168.25,302.25,163.3Z"/><path class="cls-13" d="M248.94,178.42c-16.66-.32-33.79-6.28-43.91-6.43s-19.46-10.23,0-12.56,24.6-10.72,48-8.39.62,11.36,16.81,10.33,22.58,3.62,15.42,5.81-17.44,1.2-21,5.77S254.69,178.54,248.94,178.42Z"/><path class="cls-14" d="M212,170.48c-14.93-5.3-13.64-6.34,3.14-13s49.33-9.65,53.22-4.61S260,164.6,274,162.53s24.91-4.9,24-.38-8.57,6.68-17,7.36C266.31,170.7,240.9,180.72,212,170.48Z"/><path class="cls-15" d="M196.57,159.82c-3.11.54-9.4,5.39-9.19,6.77s.92-2.05,4.83-3.38S198.65,159.46,196.57,159.82Z"/><path class="cls-15" d="M186.92,168.62c0-.63.22-1.18.46-1.21s.29,1.16.29,1.39A.39.39,0,0,1,186.92,168.62Z"/><path class="cls-15" d="M236.64,178.43c4,2.24,14.37,2.63,17.44,2.27s4.82-2,3.53-2.27-3.84.83-8.46.94S235.24,177.65,236.64,178.43Z"/><path class="cls-16" d="M288.62,164.53c-20.37,2.23-50.58-12.22-39.6-14.68s46.94,6.23,48,11.08S292.18,164.14,288.62,164.53Z"/><path class="cls-17" d="M213.29,71.08l-1.54.77c-15.87,7.93-24,13.45-37.83,23.47L170.23,98c-24.23,17.56-64.34-29.59-63-39.67s17.66-22.74,17.66-22.74c18.92-15.3,41.91-23.49,64.3-31.36,6.63-2.33,13.52-4.7,20.18-4.14a28.87,28.87,0,0,1,11.82,4,41.11,41.11,0,0,1,16.51,17.49,39.27,39.27,0,0,1,3.65,11.91c0,.3.08.59.11.89.71,6.16,4.86,10.09,1.46,15.82C237.63,59.06,222.52,66.53,213.29,71.08Z"/><path class="cls-17" d="M222.1,3.67,197.86,22.59l-18,14.08h0L157.5,54.1q-3.44,10.6-6.53,21.33C150.72,76.59,167.27,86,169,87.17L188.1,99.55c11.25,7.31,22.22,16.35,35.06,20.86a41,41,0,0,0,34.12-2.77c10.33-5.59,18.94-15.15,24.85-26.17a119.36,119.36,0,0,0,5.72-12.15,75.36,75.36,0,0,0,3.39-10.69c.26-1.11.49-2.24.68-3.36.24-1.38.42-2.76.55-4.15s.21-2.82.21-4.22a32.52,32.52,0,0,0-4.09-16.5C284.7,33.69,278.11,29,271.5,25l-.39-.23a190.31,190.31,0,0,0-17.52-9.42A192.89,192.89,0,0,0,222.1,3.67Z"/><path class="cls-18" d="M222.1,3.67,197.86,22.59l-18,14.08h0L157.5,54.1q-3.44,10.6-6.53,21.33C150.72,76.59,167.27,86,169,87.17L188.1,99.55c11.25,7.31,22.22,16.35,35.06,20.86a41,41,0,0,0,34.12-2.77,118.44,118.44,0,0,1-52.76-17.32c-5.57-3.45-11.3-8.13-12.08-14.63-.9-7.51,7.44-14,14.66-16.31s15-1.2,22.43.39c11.2,2.4,22.13,5.89,33.06,9.31,6.78,2.13,14,4.24,20.88,2.33a14.36,14.36,0,0,0,4.38-2.09,75.36,75.36,0,0,0,3.39-10.69c.26-1.11.49-2.24.68-3.36A141.48,141.48,0,0,1,252.78,58c-5-1.7-10.27-3.9-13.39-8.21-4.22-5.84-3.33-14.2.29-20.43,3.34-5.74,8.58-10,13.91-14A192.89,192.89,0,0,0,222.1,3.67Z"/><g class="cls-19"><path class="cls-20" d="M222.1,3.67,197.86,22.59l-18,14.08h0L157.5,54.1q-3.44,10.6-6.53,21.33C150.72,76.59,167.27,86,169,87.17L188.1,99.55c11.25,7.31,22.22,16.35,35.06,20.86a41,41,0,0,0,34.12-2.77,118.44,118.44,0,0,1-52.76-17.32c-5.57-3.45-11.3-8.13-12.08-14.63-.9-7.51,7.44-14,14.66-16.31s15-1.2,22.43.39c11.2,2.4,22.13,5.89,33.06,9.31,6.78,2.13,14,4.24,20.88,2.33a14.36,14.36,0,0,0,4.38-2.09,75.36,75.36,0,0,0,3.39-10.69c.26-1.11.49-2.24.68-3.36A141.48,141.48,0,0,1,252.78,58c-5-1.7-10.27-3.9-13.39-8.21-4.22-5.84-3.33-14.2.29-20.43,3.34-5.74,8.58-10,13.91-14A192.89,192.89,0,0,0,222.1,3.67Z"/></g><path class="cls-21" d="M334,109.26l-.06,0a1.33,1.33,0,0,0-.09,1.87l23.84,26.37a1.33,1.33,0,0,0,2-1.78L335.82,109.4A1.34,1.34,0,0,0,334,109.26Z"/><path class="cls-17" d="M330.79,104.34a42.65,42.65,0,1,0-6.36,60A42.65,42.65,0,0,0,330.79,104.34Z"/><path class="cls-18" d="M255.2,127.79A42.66,42.66,0,0,0,320,168.05a50,50,0,0,0,6.9-12.47,50.76,50.76,0,0,0,2.12-7.07,46.11,46.11,0,0,0-2.74-29,35.72,35.72,0,0,0-19.64-18.85C287,93.17,264,105.32,255.2,127.79Z"/><ellipse class="cls-22" cx="331.17" cy="102.63" rx="8.77" ry="12.77" transform="translate(9.09 230.97) rotate(-38.94)"/><path class="cls-23" d="M336.87,98c-2.49-3.07-6.22-4.18-8.33-2.47a3.48,3.48,0,0,0-1,1.35c-.87,2-.26,4.88,1.7,7.31s4.69,3.63,6.79,3.19a3.42,3.42,0,0,0,1.53-.71C339.66,105,339.36,101.1,336.87,98Z"/><path class="cls-21" d="M334.31,100.09c-2-2.42-4.69-3.63-6.79-3.19-.87,2-.26,4.88,1.7,7.31s4.69,3.63,6.79,3.19C336.87,105.44,336.27,102.52,334.31,100.09Z"/><path class="cls-17" d="M34.28,193.51,19.53,157.57l3.22-1.33c21.68-9,43-19.16,62.35-32.49,1.5-1,3-2.09,4.46-3.16q3.9-2.84,7.65-5.86a165.17,165.17,0,0,0,26.83-27,132.85,132.85,0,0,0,11.41-17.2,2.83,2.83,0,0,1,3.84-1.41l.13.07h0a9.71,9.71,0,0,1,3.31,3.62L151.78,87c.29.46.59.92.89,1.38s.75,1.15,1.14,1.71a24.85,24.85,0,0,0,3.84,4.47,11.55,11.55,0,0,0,8.76,3.17,210.59,210.59,0,0,1-51.87,43.87q-4.46,2.69-9,5.13a200.51,200.51,0,0,1-66.77,21.94c1.45,4.47,2.93,9.05,2.68,13.75a13.33,13.33,0,0,1-4.1,9.06A11,11,0,0,1,34.28,193.51Z"/><g class="cls-24"><path class="cls-25" d="M24,168.48l-.79-1.9A338.23,338.23,0,0,0,152.67,88.4q.56.87,1.14,1.71A335.39,335.39,0,0,1,83,142.66,336.36,336.36,0,0,1,24,168.48Z"/></g><path class="cls-26" d="M105.5,146.75a195.81,195.81,0,0,1-15.13-24.59l-.81-1.57q3.9-2.84,7.65-5.86a223.9,223.9,0,0,0,17.33,26.89Q110.08,144.31,105.5,146.75Z"/><path class="cls-26" d="M34.28,193.51,19.53,157.57l3.22-1.33,2.35,5.65a5.28,5.28,0,0,1,6.54-2,5.1,5.1,0,0,1-3.36,9.58l9,22A11,11,0,0,1,34.28,193.51Z"/><path class="cls-17" d="M17.61,178.22,0,135.31,3.25,134c21.91-9.15,43.39-19.61,62.59-33.92q2.23-1.67,4.42-3.41,3.85-3.06,7.56-6.35a154.45,154.45,0,0,0,26.09-29.81,136.23,136.23,0,0,0,10.72-19.35c.76-1.69,2.26-2.36,3.9-1.4l.14.09h0a12.94,12.94,0,0,1,3.66,4.44l10.3,17.19,1,1.67c.42.69.85,1.39,1.3,2.07a33.1,33.1,0,0,0,4.27,5.46c2.62,2.62,6,4.52,9.29,4.27a191,191,0,0,1-51,47.89q-4.44,2.85-9,5.41a172.63,172.63,0,0,1-67.84,21.32c1.8,5.3,3.62,10.76,3.67,16.22a14.71,14.71,0,0,1-3.67,10.32A9.75,9.75,0,0,1,17.61,178.22Z"/><g class="cls-27"><path class="cls-28" d="M5.35,148.34l-.94-2.28A294.83,294.83,0,0,0,133.64,63.11c.42.69.85,1.39,1.3,2.07a298.06,298.06,0,0,1-70,56.8A288.9,288.9,0,0,1,5.35,148.34Z"/></g><path class="cls-26" d="M88.47,128.21A273,273,0,0,1,71.2,98.51c-.31-.62-.63-1.25-.94-1.88q3.85-3.06,7.56-6.35a312.75,312.75,0,0,0,19.7,32.52Q93.08,125.65,88.47,128.21Z"/><path class="cls-26" d="M17.61,178.22,0,135.31,3.25,134q1.41,3.38,2.8,6.74a4.76,4.76,0,0,1,6.66-1.87,7.21,7.21,0,0,1,3.14,7.53,4.76,4.76,0,0,1-6,3.44l10.78,26.27A9.75,9.75,0,0,1,17.61,178.22Z"/><path class="cls-17" d="M179.33,85a106.09,106.09,0,0,0-10.91,1.43l-1.8.34c-15.82,3.22-31,10.41-42.79,21.3a72.55,72.55,0,0,0-9,10.05,28.68,28.68,0,0,0-4.88,9.13,13,13,0,0,0,1,10.09c2.87,4.86,9.42,6.48,14.94,5.31,4.49-1,8.47-3.37,12.29-6h0c.88-.6,1.75-1.22,2.61-1.83,9.63-6.79,19.9-13.6,31.13-16.46a44.94,44.94,0,0,1,8.9-1.37l.66,0c10.87-.36,21.4,3.51,31.77,6.86a114.62,114.62,0,0,0,14,3.77,50.76,50.76,0,0,0,12.66,1c2.63-.16,5.87.11,8.18-1.3,5.76-3.51,8.65-11.54,7-18-1.31-5-5-9.14-9.27-12s-9.27-4.56-14.23-6C214.57,86.28,196.8,83.6,179.33,85Z"/><path class="cls-18" d="M123.83,108.07a72.55,72.55,0,0,0-9,10.05,28.68,28.68,0,0,0-4.88,9.13,13,13,0,0,0,1,10.09c2.87,4.86,9.42,6.48,14.94,5.31,4.49-1,8.47-3.37,12.29-6h0a20.78,20.78,0,0,0,1.53-5.52,21.73,21.73,0,0,0-8.34-19.77A17,17,0,0,0,123.83,108.07Z"/><path class="cls-18" d="M179.33,85a106.09,106.09,0,0,0-10.91,1.43l-1.8.34a38.6,38.6,0,0,1,6.24,27.63,22.26,22.26,0,0,1-1,4,44.94,44.94,0,0,1,8.9-1.37l.66,0a97.28,97.28,0,0,0,.26-20.4A47.8,47.8,0,0,0,179.33,85Z"/><path class="cls-29" d="M123.09,115a9.63,9.63,0,0,0-6.32,1.38c-2.76,1.59-4.9,4-7.14,6.31s-4.75,4.46-7.83,5.29c-.3.08-.61.14-.91.2-.6.12-1.21.19-1.82.27s-1.27.17-1.9.29a6.84,6.84,0,0,0-4.11,2.1A3.33,3.33,0,0,0,93,135.1a3.51,3.51,0,0,0-2.47,6.1A2.76,2.76,0,0,0,89,146c-.53-.47-2,1.84-2.16,2.15a2.45,2.45,0,0,0,.24,2.86,5.14,5.14,0,0,0,2.27,1.55,11.67,11.67,0,0,0,5,.7,14.69,14.69,0,0,0,2-.23l.58-.12a39.8,39.8,0,0,0,7.22-2.57l14.31-6.17c3.35-1.45,6.8-3,9.36-5.56a13.59,13.59,0,0,0,1.72-2.13,14.93,14.93,0,0,0,2.41-6.86,15.91,15.91,0,0,0-1.93-9l-.36-.62C128.17,117.55,125.89,115.44,123.09,115Z"/><path class="cls-30" d="M130,120.59l-7.42,3.57c-2.26,1.09-4.59,2.23-6.22,4.13-2.06,2.4-2.71,5.67-3.29,8.78a7.65,7.65,0,0,0-.18,2.52,2.61,2.61,0,0,0,1.34,2,3.59,3.59,0,0,0,2.27.06,34.82,34.82,0,0,0,6.82-2.21,44.76,44.76,0,0,0,6.2-3,14.93,14.93,0,0,0,2.41-6.86A15.91,15.91,0,0,0,130,120.59Z"/><path class="cls-30" d="M100.89,128.15c-.6.12-1.21.19-1.82.27a7.15,7.15,0,0,1,.16,2.21,7.26,7.26,0,0,1-2,4.43,6.51,6.51,0,0,1,.54,3.91,3,3,0,0,1-1.44,2.24,4.69,4.69,0,0,1,.49,2.89,5.05,5.05,0,0,1-1.41,2.7s0,.07,0,.13a5.81,5.81,0,0,1-1,6.34,14.69,14.69,0,0,0,2-.23,7,7,0,0,0,.58-5.51,6.18,6.18,0,0,0,1.8-6.28,7.76,7.76,0,0,0,1.34-2.54,2.76,2.76,0,0,0-.73-2.75,7.17,7.17,0,0,0,2.11-5.28A6.5,6.5,0,0,0,100.89,128.15Z"/><path class="cls-29" d="M278.11,79a36.08,36.08,0,0,0-12.64,3.16,52.46,52.46,0,0,0-18.09,13,51.74,51.74,0,0,0-7.14,10.11,34.67,34.67,0,0,0-2.87,6.83,20.87,20.87,0,0,0-.86,6.47c.17,4.66,2.47,9.43,6.6,11.59a15.72,15.72,0,0,0,4.64,1.47,12.83,12.83,0,0,0,5.87-.24c2.54-.87,4-4.6,4.64-6.92.59-2,.91-4.06,1.33-6.1.1-.46.2-.92.31-1.37a33.87,33.87,0,0,1,7.71-14.6c.69-.77,1.41-1.5,2.17-2.2a33.79,33.79,0,0,1,17.55-8.48,19.78,19.78,0,0,0,4-.83,4.78,4.78,0,0,0,2.91-2.68,3.85,3.85,0,0,0,0-2.23,4.78,4.78,0,0,0-.68-1.51,8.78,8.78,0,0,0-2.91-2.57A22.5,22.5,0,0,0,278.11,79Z"/><g class="cls-31"><path class="cls-32" d="M291,85.45a44.08,44.08,0,0,0-26.72,8.41,43.59,43.59,0,0,0-7.42,6.88,44,44,0,0,0-8.73,16c-.08.26-.15.52-.22.77a30.93,30.93,0,0,0-1,5.13,26.07,26.07,0,0,0,.79,9,12.83,12.83,0,0,0,5.87-.24c2.54-.87,4-4.6,4.64-6.92.59-2,.91-4.06,1.33-6.1.1-.46.2-.92.31-1.37a33.87,33.87,0,0,1,7.71-14.6c.69-.77,1.41-1.5,2.17-2.2a33.79,33.79,0,0,1,17.55-8.48,19.78,19.78,0,0,0,4-.83,4.78,4.78,0,0,0,2.91-2.68,3.85,3.85,0,0,0,0-2.23A8.75,8.75,0,0,0,291,85.45Z"/></g><path class="cls-30" d="M247.38,95.15a51.74,51.74,0,0,0-7.14,10.11,34.67,34.67,0,0,0-2.87,6.83,29.87,29.87,0,0,0,8.51,4.78c.67.24,1.35.46,2.05.64a29.61,29.61,0,0,0,11.66.85c.1-.46.2-.92.31-1.37a33.87,33.87,0,0,1,7.71-14.6,28.6,28.6,0,0,1-10.73-1.65c-.58-.2-1.15-.43-1.72-.68A30.22,30.22,0,0,1,247.38,95.15Z"/><path class="cls-33" d="M316.65,108.88l-.18-.19c-11.36-11.78-31.48-13.8-48.27-3.85-19.2,11.36-26.79,34.06-16.95,50.68,5.15,8.7,14,14,24.1,15.47,1.17.17,2.36.29,3.56.36A44.4,44.4,0,0,0,303.84,165c19.2-11.37,26.79-34.06,17-50.69A30.36,30.36,0,0,0,316.65,108.88Z"/><path class="cls-34" d="M316.65,108.88l-.18-.19c-11.36-11.78-31.48-13.8-48.27-3.85-19.2,11.36-26.79,34.06-16.95,50.68,5.15,8.7,14,14,24.1,15.47a62.66,62.66,0,0,1-17.79-19.59c-2.39-4.15-4.34-8.79-4-13.57s3.64-9.58,8.36-10.36c3.39-.55,6.74,1,9.74,2.63s6.07,3.51,9.49,3.7,7.27-2,7.52-5.41c.2-2.7-1.81-5-3.83-6.83s-4.32-3.63-5-6.25c-.82-3.13,1.05-6.5,3.75-8.28s6-2.29,9.27-2.45A53.88,53.88,0,0,1,316.65,108.88Z"/><path class="cls-21" d="M183.6,102.07a16.71,16.71,0,0,1,.7-10.51c2.26-5.71,16.56-36,19.49-37.95S240.67,66.22,242,69.4c.53,1.3-.88,3.91-.88,3.91S207,106.1,183.6,102.07Z"/><path class="cls-22" d="M213.89,118.69s-28-11.37-30.29-16.62c-1.46-3.43,18.8-41.87,20.72-44,2.74-3.1,38,13,36.76,15.29S218.67,121.35,213.89,118.69Z"/><path class="cls-21" d="M226.23,79.13a4.52,4.52,0,0,0-2.07,1.22,2,2,0,0,0-.61,1.4c.06,1.22,1.56,2.65,2.61,3.08a3.23,3.23,0,0,0,3.51-.63,2.9,2.9,0,0,0,.73-2.41,3.14,3.14,0,0,0-.52-1.38A3.54,3.54,0,0,0,226.23,79.13Z"/><path class="cls-23" d="M226.23,79.13a4.52,4.52,0,0,0-2.07,1.22,5.26,5.26,0,0,0,2.45,2.42,3.25,3.25,0,0,0,3.52-.64,2.24,2.24,0,0,0,.27-.34,3.14,3.14,0,0,0-.52-1.38A3.54,3.54,0,0,0,226.23,79.13Z"/><path class="cls-21" d="M210.84,82.79l-9.6,17.91-1.47,2.73,6.34,3.06s.68-1.18,1.69-3c2.91-5.1,8.58-15.15,9-16.63C217.39,84.9,210.84,82.79,210.84,82.79Z"/><path class="cls-23" d="M210.84,82.79l-9.6,17.91,6.56,2.82c2.91-5.1,8.58-15.15,9-16.63C217.39,84.9,210.84,82.79,210.84,82.79Z"/><path class="cls-21" d="M212,72.33a1.59,1.59,0,0,0-.38.56,2.64,2.64,0,0,0,4.78,2,1.64,1.64,0,0,0,.13-.65,2.79,2.79,0,0,0-4.53-1.9Z"/><path class="cls-23" d="M212,72.33a2.79,2.79,0,0,0,4.53,1.9,2.79,2.79,0,0,0-4.53-1.9Z"/><path class="cls-17" d="M211.21,24.83a47.29,47.29,0,0,0-4.2,2.89C194.33,37.48,186.78,53,182.63,68.66a68,68,0,0,0-2,9.88,33.17,33.17,0,0,0,.41,11c1.51,6.87,6.4,13.38,13.26,15,3.53.82,7.61.14,10-2.54s2.69-6.53,3-10.23c0-.63.1-1.25.16-1.86a37.27,37.27,0,0,1,31.07-33c.49-.08,1-.15,1.48-.21,9-1.07,18,1.14,27,1.35,7.61.18,29.24-3.92,22.92-15.95a19.64,19.64,0,0,0-4.61-5.35c-10-8.92-22.19-15.7-35.37-18.27a56.3,56.3,0,0,0-33.25,3.41A46.55,46.55,0,0,0,211.21,24.83Z"/><path class="cls-18" d="M180.66,78.54a33.17,33.17,0,0,0,.41,11c1.51,6.87,6.4,13.38,13.26,15,3.53.82,7.61.14,10-2.54s2.69-6.53,3-10.23a24.79,24.79,0,0,0-1.62-3.93,20.6,20.6,0,0,0-12.42-10.16A19.07,19.07,0,0,0,180.66,78.54Z"/><path class="cls-18" d="M211.21,24.83a47.29,47.29,0,0,0-4.2,2.89,15.64,15.64,0,0,1,2.25.87,25.69,25.69,0,0,1,8,6.49,49.15,49.15,0,0,1,11.63,24.8,37.23,37.23,0,0,1,9.67-3A56.28,56.28,0,0,0,231,35.85a38.12,38.12,0,0,0-11.42-12.37,26.71,26.71,0,0,0-2.81-1.59A46.55,46.55,0,0,0,211.21,24.83Z"/><path class="cls-18" d="M275.08,41.06c5.77.23,8.14-6.43,2.83-9.37-3.79-2.37-10.44-1.66-12.21,2.89C264.94,38.43,272,41.24,275.08,41.06Z"/><path class="cls-29" d="M182.32,86.82a9.61,9.61,0,0,0-3.62,5.36c-.91,3.06-.77,6.3-.83,9.49s-.37,6.51-2,9.23c-.16.26-.33.52-.52.77-.35.5-.74,1-1.13,1.45s-.81,1-1.18,1.52a6.85,6.85,0,0,0-1.52,4.35,3.33,3.33,0,0,0,2.89,3.17,3.51,3.51,0,0,0,2.42,6.12A2.75,2.75,0,0,0,179,132.8c-.7,0-.18,2.72-.07,3a2.43,2.43,0,0,0,2.14,1.91,5.29,5.29,0,0,0,2.71-.45,11.63,11.63,0,0,0,4.11-2.94,14.31,14.31,0,0,0,1.27-1.53c.11-.16.23-.32.34-.49a39.54,39.54,0,0,0,3.46-6.84l6.11-14.33c1.44-3.36,2.89-6.83,3-10.48a13.75,13.75,0,0,0-.23-2.72,14.89,14.89,0,0,0-3-6.64,15.91,15.91,0,0,0-7.63-5.21l-.69-.2C187.78,85.19,184.67,85.24,182.32,86.82Z"/><path class="cls-30" d="M191.21,86.13c-1,2.56-2,5.13-2.92,7.7-.88,2.34-1.79,4.77-1.65,7.28.16,3.15,1.94,6,3.66,8.62a7.85,7.85,0,0,0,1.61,2,2.63,2.63,0,0,0,2.38.55,3.67,3.67,0,0,0,1.68-1.52,35.22,35.22,0,0,0,3.42-6.3A45.5,45.5,0,0,0,201.82,98a14.89,14.89,0,0,0-3-6.64A15.91,15.91,0,0,0,191.21,86.13Z"/><path class="cls-30" d="M175.32,111.67c-.35.5-.74,1-1.13,1.45a7.15,7.15,0,0,1,3.22,6.1,6.49,6.49,0,0,1,3.08,2.46,3,3,0,0,1,.51,2.62,4.69,4.69,0,0,1,2.35,1.76,5,5,0,0,1,.84,2.92c0,.07,0,.05.07.11a6,6,0,0,1,3.14,3,5.92,5.92,0,0,1,.51,2.27,14.31,14.31,0,0,0,1.27-1.53,7,7,0,0,0-3.38-4.39,6.18,6.18,0,0,0-3-5.79,7.54,7.54,0,0,0-.78-2.77,2.76,2.76,0,0,0-2.43-1.48,7.18,7.18,0,0,0-2.1-5.29A6.69,6.69,0,0,0,175.32,111.67Z"/></g></g></g></svg>